<svg width="40" height="40" viewBox="0 0 40 40" fill="none" xmlns="http://www.w3.org/2000/svg">
<path d="M0 20C0 8.95431 8.95431 0 20 0C31.0457 0 40 8.95431 40 20C40 31.0457 31.0457 40 20 40C8.95431 40 0 31.0457 0 20Z" fill="#E5DED6"/>
<path d="M11.4142 7.58579C11.7893 7.21071 12.298 7 12.8284 7H29C30.1046 7 31 7.89543 31 9V29.1716C31 29.702 30.7893 30.2107 30.4142 30.5858L28.5858 32.4142C28.2107 32.7893 27.702 33 27.1716 33H11C9.89543 33 9 32.1046 9 31V10.8284C9 10.298 9.21071 9.78929 9.58579 9.41421L11.4142 7.58579Z" fill="#2A2620"/>
<path d="M13 8.25H29C29.4142 8.25 29.75 8.58579 29.75 9V29C29.75 29.4142 29.4142 29.75 29 29.75H13C12.5858 29.75 12.25 29.4142 12.25 29V9C12.25 8.58579 12.5858 8.25 13 8.25Z" fill="white"/>
<path fill-rule="evenodd" clip-rule="evenodd" d="M27 13.625H22V12.375H27V13.625Z" fill="#2A2620"/>
<path fill-rule="evenodd" clip-rule="evenodd" d="M27 19.625H22V18.375H27V19.625Z" fill="#2A2620"/>
<path fill-rule="evenodd" clip-rule="evenodd" d="M27 25.625H22V24.375H27V25.625Z" fill="#2A2620"/>
<path fill-rule="evenodd" clip-rule="evenodd" d="M19.3286 11.9035L16.531 15.3911C16.4199 15.5296 16.2551 15.6143 16.0778 15.6241C15.9005 15.6338 15.7274 15.5677 15.6018 15.4422L14.1161 13.9579L14.9996 13.0736L15.9921 14.0652L18.3535 11.1214L19.3286 11.9035Z" fill="#2A2620"/>
<path fill-rule="evenodd" clip-rule="evenodd" d="M19.3286 17.475L16.531 20.9625C16.4199 21.101 16.2551 21.1857 16.0778 21.1955C15.9005 21.2052 15.7274 21.1391 15.6018 21.0136L14.1161 19.5293L14.9996 18.645L15.9921 19.6366L18.3535 16.6928L19.3286 17.475Z" fill="#2A2620"/>
<path fill-rule="evenodd" clip-rule="evenodd" d="M19.3286 23.475L16.531 26.9625C16.4199 27.101 16.2551 27.1857 16.0778 27.1955C15.9005 27.2052 15.7274 27.1391 15.6018 27.0136L14.1161 25.5293L14.9996 24.645L15.9921 25.6366L18.3535 22.6928L19.3286 23.475Z" fill="#2A2620"/>
</svg>
