<svg width="40" height="40" viewBox="0 0 40 40" fill="none" xmlns="http://www.w3.org/2000/svg">
<path d="M0 20C0 8.95431 8.95431 0 20 0V0C31.0457 0 40 8.95431 40 20V20C40 31.0457 31.0457 40 20 40V40C8.95431 40 0 31.0457 0 20V20Z" fill="#E5DED6"/>
<path fill-rule="evenodd" clip-rule="evenodd" d="M15.625 9C15.625 8.65482 15.3452 8.375 15 8.375C14.8068 8.375 14.6342 8.46262 14.5195 8.60029L13.1198 10H11C10.7118 10 10.4521 10.1219 10.2696 10.317L8.31687 12.2697C8.12187 12.4522 8 12.7119 8 13V29C8 29.5523 8.44772 30 9 30H31C31.3036 30 31.5756 29.8647 31.759 29.6511L33.6511 27.759C33.8647 27.5756 34 27.3036 34 27V11C34 10.4477 33.5523 10 33 10H29.625V9C29.625 8.65482 29.3452 8.375 29 8.375C28.8068 8.375 28.6341 8.46263 28.5195 8.6003L27.1198 10H15.625V9Z" fill="#2A2620"/>
<path d="M11 11H33V26.5H11V11Z" fill="white"/>
<path fill-rule="evenodd" clip-rule="evenodd" d="M15 8.375C15.3452 8.375 15.625 8.65482 15.625 9L15.625 13C15.625 13.3452 15.3452 13.625 15 13.625C14.6548 13.625 14.375 13.3452 14.375 13L14.375 9C14.375 8.65482 14.6548 8.375 15 8.375Z" fill="#2A2620"/>
<path fill-rule="evenodd" clip-rule="evenodd" d="M29 8.375C29.3452 8.375 29.625 8.65482 29.625 9L29.625 13C29.625 13.3452 29.3452 13.625 29 13.625C28.6548 13.625 28.375 13.3452 28.375 13L28.375 9C28.375 8.65482 28.6548 8.375 29 8.375Z" fill="#2A2620"/>
<path fill-rule="evenodd" clip-rule="evenodd" d="M22 13.75C22.5415 13.75 23.0215 14.0987 23.1888 14.6137L23.8062 16.5139H25.8042C26.3458 16.5139 26.8257 16.8626 26.9931 17.3777C27.1604 17.8927 26.9771 18.4569 26.539 18.7752L24.9226 19.9496L25.54 21.8498C25.7073 22.3648 25.524 22.929 25.0859 23.2473C24.6478 23.5656 24.0545 23.5656 23.6164 23.2473L22 22.0729L20.3836 23.2473C19.9455 23.5656 19.3522 23.5656 18.9141 23.2473C18.476 22.929 18.2927 22.3648 18.46 21.8498L19.0775 19.9496L17.461 18.7752C17.0229 18.4569 16.8396 17.8927 17.007 17.3777C17.1743 16.8626 17.6542 16.5139 18.1958 16.5139H20.1938L20.8112 14.6137C20.9785 14.0987 21.4585 13.75 22 13.75ZM21.1019 17.7639H18.1958L20.5469 19.4721L19.6489 22.2361L22 20.5279L24.3511 22.2361L23.4531 19.4721L25.8042 17.7639H22.8981L22 15L21.1019 17.7639Z" fill="#2A2620"/>
</svg>
