<svg width="40" height="40" viewBox="0 0 40 40" fill="none" xmlns="http://www.w3.org/2000/svg">
<path d="M0 20C0 8.95431 8.95431 0 20 0C31.0457 0 40 8.95431 40 20C40 31.0457 31.0457 40 20 40C8.95431 40 0 31.0457 0 20Z" fill="#E5DED6"/>
<path d="M28.9917 28.4486C28.9858 28.454 28.98 28.4595 28.9743 28.4651C28.9655 28.4737 28.9569 28.4826 28.9486 28.4917C26.4125 31.2428 22.8374 33.25 19 33.25C12.2345 33.25 6.75 27.7655 6.75 21C6.75 17.1563 8.12344 14.9234 10.5762 11.9801C13.4027 8.58825 17.1499 6.75 21 6.75C27.7655 6.75 33.25 12.2345 33.25 19C33.25 22.868 31.7163 25.9369 28.9917 28.4486Z" fill="#2A2620" stroke="#2A2620" stroke-width="1.5" stroke-linecap="round" stroke-linejoin="round"/>
<path fill-rule="evenodd" clip-rule="evenodd" d="M21 30.75C27.4893 30.75 32.75 25.4893 32.75 19C32.75 12.5107 27.4893 7.25 21 7.25C14.5107 7.25 9.25 12.5107 9.25 19C9.25 25.4893 14.5107 30.75 21 30.75ZM16 18C16.8284 18 17.5 17.3284 17.5 16.5C17.5 15.6716 16.8284 15 16 15C15.1716 15 14.5 15.6716 14.5 16.5C14.5 17.3284 15.1716 18 16 18ZM27.5 16.5C27.5 17.3284 26.8284 18 26 18C25.1716 18 24.5 17.3284 24.5 16.5C24.5 15.6716 25.1716 15 26 15C26.8284 15 27.5 15.6716 27.5 16.5ZM15.2423 21.6091C15.0264 21.3398 14.6331 21.2965 14.3637 21.5124C14.0944 21.7283 14.0511 22.1216 14.267 22.3909C15.8466 24.3615 18.276 25.625 21 25.625C23.7241 25.625 26.1534 24.3615 27.7331 22.3909C27.949 22.1216 27.9056 21.7283 27.6363 21.5124C27.367 21.2965 26.9736 21.3398 26.7577 21.6091C25.4051 23.2964 23.3288 24.375 21 24.375C18.6713 24.375 16.5949 23.2964 15.2423 21.6091Z" fill="white"/>
</svg>
