<svg width="40" height="40" viewBox="0 0 40 40" fill="none" xmlns="http://www.w3.org/2000/svg">
<path d="M0 20C0 8.95431 8.95431 0 20 0C31.0457 0 40 8.95431 40 20C40 31.0457 31.0457 40 20 40C8.95431 40 0 31.0457 0 20Z" fill="#E5DED6"/>
<path d="M34 19C34 23.0993 32.3618 26.3618 29.5 29C26.8618 31.8618 23.0993 34 19 34C11.8203 34 6 28.1797 6 21C6 16.9007 7.5 14.5 10 11.5C12.9511 7.95867 16.9007 6 21 6C28.1797 6 34 11.8203 34 19Z" fill="#2A2620"/>
<path fill-rule="evenodd" clip-rule="evenodd" d="M21 30.75C27.4893 30.75 32.75 25.4893 32.75 19C32.75 12.5107 27.4893 7.25 21 7.25C14.5107 7.25 9.25 12.5107 9.25 19C9.25 25.4893 14.5107 30.75 21 30.75ZM16 18C16.8284 18 17.5 17.3284 17.5 16.5C17.5 15.6716 16.8284 15 16 15C15.1716 15 14.5 15.6716 14.5 16.5C14.5 17.3284 15.1716 18 16 18ZM27.5 16.5C27.5 17.3284 26.8284 18 26 18C25.1716 18 24.5 17.3284 24.5 16.5C24.5 15.6716 25.1716 15 26 15C26.8284 15 27.5 15.6716 27.5 16.5ZM15.2423 21.6091C15.0264 21.3398 14.6331 21.2965 14.3637 21.5124C14.0944 21.7283 14.0511 22.1216 14.267 22.3909C15.8466 24.3615 18.276 25.625 21 25.625C23.7241 25.625 26.1534 24.3615 27.7331 22.3909C27.949 22.1216 27.9056 21.7283 27.6363 21.5124C27.367 21.2965 26.9736 21.3398 26.7577 21.6091C25.4051 23.2964 23.3288 24.375 21 24.375C18.6713 24.375 16.5949 23.2964 15.2423 21.6091Z" fill="white"/>
</svg>
