<svg width="40" height="40" viewBox="0 0 40 40" fill="none" xmlns="http://www.w3.org/2000/svg">
<path d="M0 20C0 8.95431 8.95431 0 20 0V0C31.0457 0 40 8.95431 40 20V20C40 31.0457 31.0457 40 20 40V40C8.95431 40 0 31.0457 0 20V20Z" fill="#E5DED6"/>
<path d="M11.063 11.9051C11.9605 11.0075 13.3549 11.1111 14.2214 11.9775C14.7435 10.5178 16.7013 10.0535 17.8189 11.1711C18.0862 11.4384 18.3974 11.6281 18.667 11.8895C18.7706 11.6306 18.9302 11.388 19.1457 11.179C19.9759 10.3741 21.322 10.3741 22.1522 11.179L23.8258 12.8016C25.0361 12.3939 25.9041 12.995 26.5638 13.8923C26.7329 13.4698 27.0461 13.0982 27.4824 12.854C28.499 12.285 29.7989 12.6225 30.3861 13.6078L33.5004 18.8021C33.5039 18.8079 33.5072 18.8137 33.5105 18.8196C34.3891 20.4014 34.6913 21.9948 34.3649 23.5769C33.5708 27.4262 28.8542 32.0626 24.7652 32.126C23.5055 33.0384 21.9539 33.5839 20.2112 33.5047C15.0491 33.2701 11.3216 28.0574 7.96202 24.6979C6.64936 23.3852 7.60357 21.9862 8.62896 20.9608C7.26713 19.599 7.6969 18.2133 8.99277 16.9174C8.21155 16.0611 8.23497 14.7331 9.06301 13.9051C9.72945 13.2386 10.3888 12.5793 11.063 11.9051Z" fill="#2A2620"/>
<path d="M12.531 16.4589C12.167 16.095 11.5769 16.095 11.2129 16.4589C10.8489 16.8229 10.8489 17.4131 11.2129 17.777L16.2423 22.8062L15.3584 23.6901L12.1744 20.506L12.164 20.4959C11.8 20.1319 11.2099 20.1319 10.8459 20.4959C10.4819 20.8599 10.4819 21.45 10.8459 21.814L15.9839 26.952C18.2915 29.2596 20.4457 30.1732 22.268 30.256C24.0875 30.3387 25.6659 29.598 26.8439 28.42C28.253 27.0109 29.0589 25.6177 29.3337 24.2436C29.6061 22.8819 29.3703 21.4724 28.5753 19.9921L25.3275 14.4046C25.0701 13.9588 24.5001 13.8061 24.0543 14.0634C23.6085 14.3208 23.4558 14.8908 23.7132 15.3366C23.7221 15.3522 23.7304 15.3681 23.738 15.3844L25.283 18.6882C25.4116 18.9631 25.3241 19.2906 25.0756 19.4648C24.8272 19.6389 24.4895 19.6095 24.2749 19.3949L16.935 12.055C16.571 11.691 15.9809 11.691 15.6169 12.055C15.2529 12.419 15.2529 13.0091 15.6169 13.3731L15.6246 13.3809L20.2793 18.0357L19.3954 18.9195L13.265 12.789C12.901 12.425 12.3109 12.425 11.9469 12.789C11.5829 13.1529 11.5829 13.7431 11.9469 14.1071L18.0773 20.2373L17.1934 21.1212L12.5391 16.4669C12.5364 16.4643 12.5337 16.4616 12.531 16.4589Z" fill="white"/>
<path fill-rule="evenodd" clip-rule="evenodd" d="M26.6995 11.136L28.8662 7.38321L29.9487 8.00821L27.782 11.761L26.6995 11.136Z" fill="#2A2620"/>
<path fill-rule="evenodd" clip-rule="evenodd" d="M22.8759 10.2807L24.17 5.45107L25.3774 5.7746L24.0833 10.6042L22.8759 10.2807Z" fill="#2A2620"/>
<path fill-rule="evenodd" clip-rule="evenodd" d="M19.6641 9.8443L18.823 6.70504L20.0304 6.38152L20.8715 9.52078L19.6641 9.8443Z" fill="#2A2620"/>
</svg>
