<svg width="40" height="40" viewBox="0 0 40 40" fill="none" xmlns="http://www.w3.org/2000/svg">
<path d="M0 20C0 8.95431 8.95431 0 20 0V0C31.0457 0 40 8.95431 40 20V20C40 31.0457 31.0457 40 20 40V40C8.95431 40 0 31.0457 0 20V20Z" fill="#E5DED6"/>
<path fill-rule="evenodd" clip-rule="evenodd" d="M16.7472 11.254C16.6641 11.3786 16.5644 11.5036 16.4485 11.6209C16.7902 11.9797 17 12.4654 17 13V16H18V15.0001C18 14.4654 18.2098 13.9798 18.5515 13.6209C18.4356 13.5037 18.3359 13.3787 18.2528 13.2541C17.9171 12.7504 17.75 12.1266 17.75 11.5001C17.75 10.6043 18.2687 9.9312 18.5805 9.59258C18.6899 9.47381 18.7978 9.37055 18.8944 9.28461L20.5249 7.6541C20.5425 7.6343 20.5595 7.61542 20.576 7.59746C20.6302 7.53837 20.6872 7.48344 20.7464 7.43267L20.7713 7.40771V7.41163C21.5526 6.7641 22.7158 6.82604 23.424 7.59746C23.7353 7.93656 24.25 8.60773 24.25 9.49999C24.25 10.1266 24.0829 10.7504 23.7472 11.254C23.6641 11.3786 23.5644 11.5036 23.4485 11.6209C23.7902 11.9797 24 12.4654 24 13V16H25V15.0001C25 14.4654 25.2098 13.9798 25.5515 13.6209C25.4356 13.5037 25.3359 13.3787 25.2528 13.2541C24.9171 12.7504 24.75 12.1266 24.75 11.5001C24.75 10.6043 25.2687 9.9312 25.5805 9.59258C25.6853 9.47888 25.7886 9.3794 25.882 9.29572L27.5355 7.6422C27.5493 7.6267 27.5628 7.61179 27.576 7.59746C27.6273 7.54161 27.6809 7.48948 27.7366 7.44106L27.77 7.40771V7.41274C28.5513 6.76403 29.7154 6.8256 30.424 7.59746C30.7353 7.93656 31.25 8.60773 31.25 9.49999C31.25 10.1266 31.0829 10.7504 30.7472 11.254C30.6641 11.3786 30.5644 11.5036 30.4485 11.6209C30.7902 11.9797 31 12.4654 31 13V16H33C33.5178 16 33.9436 16.3935 33.9948 16.8978C33.9983 16.9314 34 16.9655 34 17C34 17 34 17 34 17.0001V29V29.0001C34 29.0346 33.9982 29.0686 33.9948 29.1022C33.9912 29.138 33.9857 29.1731 33.9784 29.2076C33.9322 29.4264 33.8145 29.6189 33.6509 29.7593L31.7592 31.6509C31.5758 31.8647 31.3037 32.0001 31 32.0001H9C8.44772 32.0001 8 31.5524 8 31.0001V19.0001C8 18.7322 8.10536 18.4888 8.27691 18.3093C8.29992 18.2852 8.32413 18.2623 8.34943 18.2406L10.2401 16.35C10.2581 16.3289 10.2771 16.3085 10.2969 16.289C10.4775 16.1103 10.7259 16 11 16V15.0001C11 14.4654 11.2098 13.9798 11.5515 13.621C11.4356 13.5037 11.3359 13.3787 11.2528 13.2541C10.9171 12.7504 10.75 12.1266 10.75 11.5001C10.75 10.6043 11.2687 9.9312 11.5805 9.59258C11.6674 9.4983 11.7533 9.41378 11.8333 9.33995L13.5779 7.5954C13.6156 7.55439 13.6547 7.5154 13.6949 7.47842L13.7655 7.40777V7.41647C14.5468 6.7638 15.7141 6.82413 16.424 7.59746C16.7353 7.93656 17.25 8.60773 17.25 9.49999C17.25 10.1266 17.0829 10.7504 16.7472 11.254ZM15.1897 10.973C15.044 10.3398 14.6667 9.86105 14.4195 9.59258C14.2829 9.44435 14.1487 9.32028 14.0359 9.2239C14.1134 8.92204 14.3048 8.65195 14.4968 8.44279C14.7715 8.14358 15.2285 8.14358 15.5032 8.44279C15.7521 8.71396 16 9.08753 16 9.49999C16 10.2311 15.6513 10.8401 15.1897 10.973ZM29.1897 10.973C29.6513 10.8401 30 10.2311 30 9.49999C30 9.08753 29.7521 8.71396 29.5032 8.44279C29.2285 8.14358 28.7715 8.14358 28.4968 8.44279C28.3048 8.65195 28.1134 8.92204 28.0359 9.2239C28.1487 9.32028 28.2829 9.44436 28.4195 9.59258C28.6667 9.86105 29.044 10.3398 29.1897 10.973ZM22.1897 10.973C22.6513 10.8401 23 10.2311 23 9.49999C23 9.08753 22.7521 8.71396 22.5032 8.44279C22.2285 8.14358 21.7715 8.14358 21.4968 8.44279C21.3048 8.65195 21.1134 8.92204 21.0359 9.2239C21.1487 9.32028 21.2829 9.44435 21.4195 9.59258C21.6667 9.86105 22.044 10.3398 22.1897 10.973Z" fill="#2A2620"/>
<path fill-rule="evenodd" clip-rule="evenodd" d="M14.98 12.25C15.3942 12.25 15.73 12.5858 15.73 13L15.73 17C15.73 17.4142 15.3942 17.75 14.98 17.75C14.5658 17.75 14.23 17.4142 14.23 17L14.23 13C14.23 12.5858 14.5658 12.25 14.98 12.25Z" fill="white"/>
<path fill-rule="evenodd" clip-rule="evenodd" d="M14.98 11C16.0846 11 16.98 11.8954 16.98 13L16.98 17C16.98 18.1046 16.0846 19 14.98 19C13.8754 19 12.98 18.1046 12.98 17L12.98 13C12.98 11.8954 13.8754 11 14.98 11ZM15.73 13C15.73 12.5858 15.3942 12.25 14.98 12.25C14.5658 12.25 14.23 12.5858 14.23 13L14.23 17C14.23 17.4142 14.5658 17.75 14.98 17.75C15.3942 17.75 15.73 17.4142 15.73 17L15.73 13Z" fill="#2A2620"/>
<path fill-rule="evenodd" clip-rule="evenodd" d="M21.98 12.25C22.3942 12.25 22.73 12.5858 22.73 13L22.73 17C22.73 17.4142 22.3942 17.75 21.98 17.75C21.5658 17.75 21.23 17.4142 21.23 17L21.23 13C21.23 12.5858 21.5658 12.25 21.98 12.25Z" fill="white"/>
<path fill-rule="evenodd" clip-rule="evenodd" d="M21.98 11C23.0846 11 23.98 11.8954 23.98 13L23.98 17C23.98 18.1046 23.0846 19 21.98 19C20.8754 19 19.98 18.1046 19.98 17L19.98 13C19.98 11.8954 20.8754 11 21.98 11ZM22.73 13C22.73 12.5858 22.3942 12.25 21.98 12.25C21.5658 12.25 21.23 12.5858 21.23 13L21.23 17C21.23 17.4142 21.5658 17.75 21.98 17.75C22.3942 17.75 22.73 17.4142 22.73 17L22.73 13Z" fill="#2A2620"/>
<path fill-rule="evenodd" clip-rule="evenodd" d="M28.98 12.25C29.3942 12.25 29.73 12.5858 29.73 13L29.73 17C29.73 17.4142 29.3942 17.75 28.98 17.75C28.5658 17.75 28.23 17.4142 28.23 17L28.23 13C28.23 12.5858 28.5658 12.25 28.98 12.25Z" fill="white"/>
<path fill-rule="evenodd" clip-rule="evenodd" d="M28.98 11C30.0846 11 30.98 11.8954 30.98 13L30.98 17C30.98 18.1046 30.0846 19 28.98 19C27.8754 19 26.98 18.1046 26.98 17L26.98 13C26.98 11.8954 27.8754 11 28.98 11ZM29.73 13C29.73 12.5858 29.3942 12.25 28.98 12.25C28.5658 12.25 28.23 12.5858 28.23 13L28.23 17C28.23 17.4142 28.5658 17.75 28.98 17.75C29.3942 17.75 29.73 17.4142 29.73 17L29.73 13Z" fill="#2A2620"/>
<path d="M9.98 17C9.98 16.4477 10.4277 16 10.98 16H32.98C33.5323 16 33.98 16.4477 33.98 17V29C33.98 29.5523 33.5323 30 32.98 30H10.98C10.4277 30 9.98 29.5523 9.98 29V17Z" fill="white"/>
<path fill-rule="evenodd" clip-rule="evenodd" d="M11.23 17.25V28.75H32.73V17.25H11.23ZM10.98 16C10.4277 16 9.98 16.4477 9.98 17V29C9.98 29.5523 10.4277 30 10.98 30H32.98C33.5323 30 33.98 29.5523 33.98 29V17C33.98 16.4477 33.5323 16 32.98 16H10.98Z" fill="#2A2620"/>
<path d="M15.98 9.5C15.98 10.3284 15.5323 11 14.98 11C14.4277 11 13.98 10.3284 13.98 9.5C13.98 8.67157 14.98 8 14.98 8C14.98 8 15.98 8.67157 15.98 9.5Z" fill="white"/>
<path fill-rule="evenodd" clip-rule="evenodd" d="M15.6769 6.96228L14.98 7.99999L14.2831 6.96228L14.98 6.49426L15.6769 6.96228ZM14.98 7.99999C14.98 7.99999 15.98 8.67156 15.98 9.49999C15.98 10.3284 15.5323 11 14.98 11C14.4277 11 13.98 10.3284 13.98 9.49999C13.98 8.67156 14.98 7.99999 14.98 7.99999ZM16.7272 11.254C16.3972 11.7489 15.8041 12.25 14.98 12.25C14.1559 12.25 13.5628 11.7489 13.2328 11.254C12.8971 10.7504 12.73 10.1266 12.73 9.49999C12.73 8.60425 13.2487 7.93112 13.5605 7.59251C13.737 7.40088 13.9096 7.24962 14.0372 7.14636C14.1019 7.09396 14.1575 7.05192 14.1995 7.02121C14.2206 7.00581 14.2384 6.99313 14.2525 6.9833L14.2708 6.97065L14.2777 6.96593L14.2806 6.96397L14.2831 6.96228C14.2834 6.96208 14.2831 6.96228 14.98 7.99999C15.6769 6.96228 15.6766 6.96208 15.6769 6.96228L15.6794 6.96397L15.6823 6.96593L15.6892 6.97065L15.7075 6.9833C15.7216 6.99313 15.7394 7.00581 15.7605 7.02121C15.8025 7.05192 15.8581 7.09396 15.9228 7.14636C16.0503 7.24962 16.223 7.40088 16.3995 7.59251C16.7113 7.93112 17.23 8.60425 17.23 9.49999C17.23 10.1266 17.0629 10.7504 16.7272 11.254Z" fill="#2A2620"/>
<path d="M22.98 9.5C22.98 10.3284 22.5323 11 21.98 11C21.4277 11 20.98 10.3284 20.98 9.5C20.98 8.67157 21.98 8 21.98 8C21.98 8 22.98 8.67157 22.98 9.5Z" fill="white"/>
<path fill-rule="evenodd" clip-rule="evenodd" d="M22.6769 6.96228L21.98 7.99999L21.2831 6.96228L21.98 6.49426L22.6769 6.96228ZM21.98 7.99999C21.98 7.99999 22.98 8.67156 22.98 9.49999C22.98 10.3284 22.5323 11 21.98 11C21.4277 11 20.98 10.3284 20.98 9.49999C20.98 8.67156 21.98 7.99999 21.98 7.99999ZM23.7272 11.254C23.3972 11.7489 22.8041 12.25 21.98 12.25C21.1559 12.25 20.5628 11.7489 20.2328 11.254C19.8971 10.7504 19.73 10.1266 19.73 9.49999C19.73 8.60425 20.2487 7.93112 20.5605 7.59251C20.737 7.40088 20.9096 7.24962 21.0372 7.14636C21.1019 7.09396 21.1575 7.05192 21.1995 7.02121C21.2206 7.00581 21.2384 6.99313 21.2525 6.9833L21.2708 6.97065L21.2777 6.96593L21.2806 6.96397L21.2831 6.96228C21.2834 6.96208 21.2831 6.96228 21.98 7.99999C22.6769 6.96228 22.6766 6.96208 22.6769 6.96228L22.6794 6.96397L22.6823 6.96593L22.6892 6.97065L22.7075 6.9833C22.7216 6.99313 22.7394 7.00581 22.7605 7.02121C22.8025 7.05192 22.8581 7.09396 22.9228 7.14636C23.0503 7.24962 23.223 7.40088 23.3995 7.59251C23.7113 7.93112 24.23 8.60425 24.23 9.49999C24.23 10.1266 24.0629 10.7504 23.7272 11.254Z" fill="#2A2620"/>
<path d="M29.98 9.5C29.98 10.3284 29.5323 11 28.98 11C28.4277 11 27.98 10.3284 27.98 9.5C27.98 8.67157 28.98 8 28.98 8C28.98 8 29.98 8.67157 29.98 9.5Z" fill="white"/>
<path fill-rule="evenodd" clip-rule="evenodd" d="M29.6769 6.96228L28.98 7.99999L28.2831 6.96228L28.98 6.49426L29.6769 6.96228ZM28.98 7.99999C28.98 7.99999 29.98 8.67156 29.98 9.49999C29.98 10.3284 29.5323 11 28.98 11C28.4277 11 27.98 10.3284 27.98 9.49999C27.98 8.67156 28.98 7.99999 28.98 7.99999ZM30.7272 11.254C30.3972 11.7489 29.8041 12.25 28.98 12.25C28.1559 12.25 27.5628 11.7489 27.2328 11.254C26.8971 10.7504 26.73 10.1266 26.73 9.49999C26.73 8.60425 27.2487 7.93112 27.5605 7.59251C27.737 7.40088 27.9096 7.24962 28.0372 7.14636C28.1019 7.09396 28.1575 7.05192 28.1995 7.02121C28.2206 7.00581 28.2384 6.99313 28.2525 6.9833L28.2708 6.97065L28.2777 6.96593L28.2806 6.96397L28.2831 6.96228C28.2834 6.96208 28.2831 6.96228 28.98 7.99999C29.6769 6.96228 29.6766 6.96208 29.6769 6.96228L29.6794 6.96397L29.6823 6.96593L29.6892 6.97065L29.7075 6.9833C29.7216 6.99313 29.7394 7.00581 29.7605 7.02121C29.8025 7.05192 29.8581 7.09396 29.9228 7.14636C30.0503 7.24962 30.223 7.40088 30.3995 7.59251C30.7113 7.93112 31.23 8.60425 31.23 9.49999C31.23 10.1266 31.0629 10.7504 30.7272 11.254Z" fill="#2A2620"/>
<path fill-rule="evenodd" clip-rule="evenodd" d="M12.523 22.375C12.1676 22.375 11.6496 22.1071 10.9966 21.1482L9.96341 21.8518C10.6724 22.8929 11.5165 23.625 12.523 23.625C13.5296 23.625 14.3737 22.8929 15.0827 21.8518C15.7357 20.8929 16.2536 20.625 16.6091 20.625C16.9646 20.625 17.4825 20.8929 18.1356 21.8518C18.8445 22.8929 19.6886 23.625 20.6952 23.625C21.7017 23.625 22.5459 22.8929 23.2548 21.8518C23.9079 20.8929 24.4258 20.625 24.7813 20.625C25.1368 20.625 25.6547 20.8929 26.3077 21.8518C27.0167 22.8929 27.8608 23.625 28.8674 23.625C29.8739 23.625 30.718 22.8929 31.427 21.8518C31.8277 21.2635 32.1885 20.9221 32.4943 20.7554C32.7744 20.6027 33.0131 20.5912 33.2588 20.6842L33.7012 19.5151C33.0904 19.2839 32.4725 19.3437 31.8961 19.6578C31.3454 19.958 30.8497 20.4788 30.3938 21.1482C29.7408 22.1071 29.2228 22.375 28.8674 22.375C28.5119 22.375 27.994 22.1071 27.3409 21.1482C26.6319 20.1071 25.7878 19.375 24.7813 19.375C23.7747 19.375 22.9306 20.1071 22.2217 21.1482C21.5686 22.1071 21.0507 22.375 20.6952 22.375C20.3397 22.375 19.8218 22.1071 19.1687 21.1482C18.4598 20.1071 17.6157 19.375 16.6091 19.375C15.6026 19.375 14.7585 20.1071 14.0495 21.1482C13.3964 22.1071 12.8785 22.375 12.523 22.375Z" fill="#2A2620"/>
</svg>
