<svg width="40" height="40" viewBox="0 0 40 40" fill="none" xmlns="http://www.w3.org/2000/svg">
<path d="M0 20C0 8.95431 8.95431 0 20 0V0C31.0457 0 40 8.95431 40 20V20C40 31.0457 31.0457 40 20 40V40C8.95431 40 0 31.0457 0 20V20Z" fill="#E5DED6"/>
<path d="M7.18726 28.8639C7.18726 29.9525 8.06979 30.8351 9.15845 30.8351H13.68C13.9406 30.8351 14.1909 30.7333 14.3776 30.5515L32.5104 12.896C32.7037 12.7077 32.8127 12.4494 32.8127 12.1795V11.1232C32.8127 10.0345 31.9302 9.15198 30.8415 9.15198H10.9605C10.4377 9.15198 9.93636 9.35966 9.56669 9.72933L7.7646 11.5314C7.39493 11.9011 7.18726 12.4025 7.18726 12.9253V28.8639Z" fill="#2A2620"/>
<path d="M13.4758 14.8191C13.4758 14.0737 14.0802 13.4694 14.8256 13.4694C15.5711 13.4694 16.1754 14.0737 16.1754 14.8191C16.1754 15.5646 15.5711 16.1689 14.8256 16.1689C14.0802 16.1689 13.4758 15.5646 13.4758 14.8191Z" fill="white"/>
<path fill-rule="evenodd" clip-rule="evenodd" d="M10.144 11.1376C10.144 10.5853 10.5918 10.1376 11.144 10.1376H30.8271C31.3794 10.1376 31.8271 10.5853 31.8271 11.1376V12.0876C31.8271 12.1011 31.8217 12.1141 31.8119 12.1235L25.829 17.9251L24.6655 16.223C24.3327 15.7361 23.6529 15.6415 23.1998 16.0191L17.9955 20.356L15.8495 18.9253C15.3293 18.5785 14.622 18.7888 14.3757 19.3635L12.2531 24.3162C11.8289 25.306 12.5549 26.4071 13.6318 26.4071H17.082L15.5794 27.8642C15.57 27.8732 15.5576 27.8783 15.5446 27.8783H11.144C10.5918 27.8783 10.144 27.4306 10.144 26.8783V11.1376ZM14.8256 12.7194C13.6659 12.7194 12.7258 13.6595 12.7258 14.8191C12.7258 15.9788 13.6659 16.9189 14.8256 16.9189C15.9853 16.9189 16.9254 15.9788 16.9254 14.8191C16.9254 13.6595 15.9853 12.7194 14.8256 12.7194Z" fill="white"/>
<path d="M23.84 16.7873L25.1005 18.6315L19.4721 24.0894L18.0974 25.4071H13.6318C13.2728 25.4071 13.0308 25.0401 13.1722 24.7101L15.2948 19.7574L17.4408 21.188C17.8093 21.4337 18.2955 21.4077 18.6357 21.1242L23.84 16.7873Z" fill="white"/>
<path d="M19.1905 30.1674C18.8755 30.4824 19.0986 31.021 19.544 31.021H24.8963H29.848C30.2143 31.021 30.5655 30.8718 30.8245 30.6064L32.0869 29.3124C32.3459 29.0469 32.4914 28.6869 32.4914 28.3115V23.236V18.0736C32.4914 17.6281 31.9528 17.405 31.6379 17.72L19.1905 30.1674Z" fill="#2A2620"/>
<path d="M31.6588 19.0687C31.6588 19.0242 31.6049 19.0019 31.5734 19.0334L28.2847 22.3221L29.7172 25.187C30.2158 26.1844 29.4906 27.3579 28.3755 27.3579H23.2489L22.169 28.4378C22.1375 28.4692 22.1599 28.5231 22.2044 28.5231H30.6588C31.2111 28.5231 31.6588 28.0754 31.6588 27.5231V19.0687Z" fill="white"/>
<path d="M28.3755 26.3579H24.3369L27.5671 23.123L28.8227 25.6342C28.989 25.9667 28.7472 26.3579 28.3755 26.3579Z" fill="white"/>
</svg>
