<svg width="40" height="40" viewBox="0 0 40 40" fill="none" xmlns="http://www.w3.org/2000/svg">
<path d="M0 20C0 8.95431 8.95431 0 20 0C31.0457 0 40 8.95431 40 20C40 31.0457 31.0457 40 20 40C8.95431 40 0 31.0457 0 20Z" fill="#E5DED6"/>
<path d="M33.8596 28.7498C35.1109 27.4985 35.3913 25.5737 34.5489 24.0174L25.0853 6.53304C24.2943 5.13094 22.8228 4.4999 21.0023 4.58836C19.0386 4.68379 17.4828 6.13607 16.4063 7.78122L6.26671 26.3322C5.00268 28.6642 6.69117 31.5 9.34378 31.5H29.4526C30.5134 31.5 31.5308 31.0786 32.281 30.3284L33.8596 28.7498Z" fill="#2A2620"/>
<path d="M32.1833 27.9278C33.3733 27.5996 34.0331 26.2139 33.4019 25.0479L23.7661 7.24713C23.3873 6.54738 22.6953 6.19805 22.0038 6.19922C21.3149 6.2004 20.6266 6.54936 20.2489 7.24617L10.6006 25.047C9.98552 26.1817 10.5938 27.5251 11.7238 27.8991C11.8379 27.9368 11.9574 27.9647 12.0814 27.9815C12.1716 27.9937 12.2642 28 12.3589 28H31.6431C31.643 28 31.6431 28 31.6431 28C31.8325 28 32.0133 27.9747 32.1833 27.9278Z" fill="white"/>
<path fill-rule="evenodd" clip-rule="evenodd" d="M22.625 11.375V19.625H21.375V11.375H22.625Z" fill="#2A2620"/>
<path d="M24 23.5C24 24.6046 23.1046 25.5 22 25.5C20.8954 25.5 20 24.6046 20 23.5C20 22.3954 20.8954 21.5 22 21.5C23.1046 21.5 24 22.3954 24 23.5Z" fill="#2A2620"/>
</svg>
