<svg width="40" height="40" viewBox="0 0 40 40" fill="none" xmlns="http://www.w3.org/2000/svg">
<path d="M0 20C0 8.95431 8.95431 0 20 0C31.0457 0 40 8.95431 40 20C40 31.0457 31.0457 40 20 40C8.95431 40 0 31.0457 0 20Z" fill="#E5DED6"/>
<path d="M23.3426 9.18519C23.3426 9.87554 23.9023 10.4352 24.5926 10.4352H28.8148C29.229 10.4352 29.5648 10.771 29.5648 11.1852V15.4074C29.5648 16.0978 30.1245 16.6574 30.8148 16.6574H32C33.5188 16.6574 34.75 17.8886 34.75 19.4074V19.7037C34.75 21.2225 33.5188 22.4537 32 22.4537H30.8148C30.1245 22.4537 29.5648 23.0133 29.5648 23.7037V27.9259C29.5648 28.3401 29.229 28.6759 28.8148 28.6759H12.0741C11.6599 28.6759 11.3241 28.3401 11.3241 27.9259V11.1852C11.3241 10.771 11.6599 10.4352 12.0741 10.4352H16.2963C16.9867 10.4352 17.5463 9.87554 17.5463 9.18519V8C17.5463 6.48122 18.7775 5.25 20.2963 5.25H20.5926C22.1114 5.25 23.3426 6.48122 23.3426 8V9.18519Z" fill="white"/>
<path fill-rule="evenodd" clip-rule="evenodd" d="M16.4907 5.97685C17.5472 4.9927 18.7621 4 20.4444 4C22.7353 4 24.5925 5.85719 24.5925 8.14815V9.18518H28.7407C29.8862 9.18518 30.8148 10.1138 30.8148 11.2593V15.4074H31.8518C34.1428 15.4074 35.9999 17.2646 35.9999 19.5556C35.9999 21.2378 35.0034 22.4965 34.0231 23.4769C33.0498 24.4502 32.0247 25.3136 30.8148 25.6396V28.0605C30.8148 28.5909 30.6041 29.0996 30.229 29.4747L28.2895 31.4142C27.9144 31.7893 27.4057 32 26.8753 32H10.0741C8.92859 32 8 31.0714 8 29.9259V13.1247C8 12.5943 8.21071 12.0856 8.58579 11.7105L10.5253 9.77097C10.9004 9.39589 11.4091 9.18518 11.9395 9.18518H14.3539C14.6691 7.95247 15.5134 6.88722 16.4907 5.97685ZM24.5926 10.4352C23.9023 10.4352 23.3426 9.87554 23.3426 9.18519V8C23.3426 6.48122 22.1114 5.25 20.5926 5.25H20.2963C18.7775 5.25 17.5463 6.48122 17.5463 8V9.18519C17.5463 9.87554 16.9867 10.4352 16.2963 10.4352H12.0741C11.6599 10.4352 11.3241 10.771 11.3241 11.1852V27.9259C11.3241 28.3401 11.6599 28.6759 12.0741 28.6759H28.8148C29.229 28.6759 29.5648 28.3401 29.5648 27.9259V23.7037C29.5648 23.0133 30.1245 22.4537 30.8148 22.4537H32C33.5188 22.4537 34.75 21.2225 34.75 19.7037V19.4074C34.75 17.8886 33.5188 16.6574 32 16.6574H30.8148C30.1245 16.6574 29.5648 16.0978 29.5648 15.4074V11.1852C29.5648 10.771 29.229 10.4352 28.8148 10.4352H24.5926Z" fill="#2A2620"/>
<path fill-rule="evenodd" clip-rule="evenodd" d="M23.3426 9.18519C23.3426 9.87554 23.9023 10.4352 24.5926 10.4352H28.8148C29.229 10.4352 29.5648 10.771 29.5648 11.1852V15.4074C29.5648 16.0978 30.1245 16.6574 30.8148 16.6574H32C33.5188 16.6574 34.75 17.8886 34.75 19.4074V19.7037C34.75 20.797 34.112 21.7413 33.1881 22.1845C32.8284 22.3571 32.4255 22.4537 32 22.4537H30.8148C30.1245 22.4537 29.5648 23.0133 29.5648 23.7037V27.9259C29.5648 27.9718 29.5607 28.0168 29.5528 28.0605C29.5192 28.2462 29.4171 28.4082 29.2736 28.5193C29.1712 28.5986 29.0476 28.652 28.9128 28.6696C28.8807 28.6738 28.848 28.6759 28.8148 28.6759H12.0741C11.6599 28.6759 11.3241 28.3401 11.3241 27.9259V11.1852C11.3241 11.152 11.3263 11.1192 11.3304 11.0872C11.348 10.9524 11.4014 10.8288 11.4807 10.7264C11.5918 10.5829 11.7538 10.4809 11.9395 10.4472C11.9832 10.4393 12.0282 10.4352 12.0741 10.4352H16.2963C16.9867 10.4352 17.5463 9.87554 17.5463 9.18519V8C17.5463 7.56512 17.6473 7.15382 17.827 6.78825C18.275 5.87709 19.2124 5.25 20.2963 5.25H20.5926C22.1114 5.25 23.3426 6.48122 23.3426 8V9.18519ZM16.6314 5.84668C17.6236 4.93614 18.7634 4.05617 20.2963 4.00258C20.3453 4.00087 20.3946 4 20.4444 4C20.494 4 20.5434 4.00087 20.5926 4.0026C22.7658 4.07892 24.5137 5.82685 24.5899 8C24.5917 8.04917 24.5925 8.09856 24.5925 8.14815V9.18518H28.7407C28.7655 9.18518 28.7902 9.18562 28.8148 9.18648C29.9014 9.22463 30.7754 10.0986 30.8135 11.1852C30.8144 11.2098 30.8148 11.2345 30.8148 11.2593V15.4074H31.8518C31.9014 15.4074 31.9508 15.4083 32 15.41C34.1732 15.4863 35.9211 17.2343 35.9974 19.4074C35.9991 19.4566 35.9999 19.506 35.9999 19.5556C35.9999 19.6053 35.9991 19.6547 35.9974 19.7037C35.9425 21.2688 35.0257 22.46 34.0998 23.3996C34.0742 23.4256 34.0487 23.4513 34.0231 23.4769C33.1175 24.3824 32.1672 25.1929 31.0648 25.5639C30.9824 25.5916 30.899 25.6169 30.8148 25.6396V28.0605C30.8148 28.5909 30.6041 29.0996 30.229 29.4747L28.2895 31.4142C27.9144 31.7893 27.4057 32 26.8753 32H10.0741C8.92859 32 8 31.0714 8 29.9259V13.1247C8 12.5943 8.21071 12.0856 8.58579 11.7105L10.5253 9.77097C10.9004 9.39589 11.4091 9.18518 11.9395 9.18518H14.3539C14.3754 9.10107 14.3994 9.01774 14.4257 8.93519C14.7849 7.80783 15.5801 6.8251 16.4907 5.97685C16.5373 5.93345 16.5842 5.89003 16.6314 5.84668Z" fill="#2A2620"/>
<path d="M21.588 18.412V14.2639H20.338V18.412H16.1898V19.662H20.338V23.8102H21.588V19.662H25.7361V18.412H21.588Z" fill="#2A2620"/>
</svg>
