<svg width="40" height="40" viewBox="0 0 40 40" fill="none" xmlns="http://www.w3.org/2000/svg">
<path d="M0 20C0 8.95431 8.95431 0 20 0C31.0457 0 40 8.95431 40 20C40 31.0457 31.0457 40 20 40C8.95431 40 0 31.0457 0 20Z" fill="#E5DED6"/>
<path d="M23.3426 9.18519C23.3426 9.87554 23.9023 10.4352 24.5926 10.4352H28.8148C29.229 10.4352 29.5648 10.771 29.5648 11.1852V15.4074C29.5648 16.0978 30.1245 16.6574 30.8148 16.6574H32C33.5188 16.6574 34.75 17.8886 34.75 19.4074V19.7037C34.75 21.2225 33.5188 22.4537 32 22.4537H30.8148C30.1245 22.4537 29.5648 23.0133 29.5648 23.7037V27.9259C29.5648 28.3401 29.229 28.6759 28.8148 28.6759H12.0741C11.6599 28.6759 11.3241 28.3401 11.3241 27.9259V11.1852C11.3241 10.771 11.6599 10.4352 12.0741 10.4352H16.2963C16.9867 10.4352 17.5463 9.87554 17.5463 9.18519V8C17.5463 6.48122 18.7775 5.25 20.2963 5.25H20.5926C22.1114 5.25 23.3426 6.48122 23.3426 8V9.18519Z" fill="white"/>
<path d="M17.2247 6.32084C16.9516 6.81932 16.7963 7.39153 16.7963 8V9.18519C16.7963 9.46133 16.5725 9.68519 16.2963 9.68519H15.0002L15.0806 9.37095C15.3436 8.34224 16.0666 7.39683 17.0019 6.52565C17.0763 6.45637 17.1505 6.38803 17.2247 6.32084ZM32 23.2037C32.593 23.2037 33.1516 23.0562 33.641 22.7959C33.5921 22.8465 33.5426 22.8967 33.4928 22.9465C32.5292 23.9101 31.624 24.6448 30.6197 24.9155L30.3148 24.9976V23.7037C30.3148 23.4276 30.5387 23.2037 30.8148 23.2037H32ZM28.8148 29.4259C28.9831 29.4259 29.1449 29.3982 29.2959 29.3471L27.7592 30.8839C27.5247 31.1183 27.2068 31.25 26.8753 31.25H10.0741C9.34281 31.25 8.75 30.6572 8.75 29.9259V13.1247C8.75 12.7932 8.8817 12.4753 9.11612 12.2408L8.58579 11.7105L9.11612 12.2408L10.6529 10.704C10.6018 10.8551 10.5741 11.0169 10.5741 11.1852V27.9259C10.5741 28.7544 11.2457 29.4259 12.0741 29.4259H28.8148Z" fill="#2A2620" stroke="#2A2620" stroke-width="1.5"/>
<path d="M21.588 18.412V14.2639H20.338V18.412H16.1898V19.662H20.338V23.8102H21.588V19.662H25.7361V18.412H21.588Z" fill="#2A2620"/>
</svg>
