<svg width="40" height="40" viewBox="0 0 40 40" fill="none" xmlns="http://www.w3.org/2000/svg">
<path d="M0 20C0 8.95431 8.95431 0 20 0C31.0457 0 40 8.95431 40 20C40 31.0457 31.0457 40 20 40C8.95431 40 0 31.0457 0 20Z" fill="#E5DED6"/>
<path d="M5.74544 11.2057C5.83937 11.1081 5.93491 11.0085 6.0313 10.9062C7.00899 9.8687 7.80907 9.05109 9.16284 9.05109C10.8197 9.05109 12.1628 10.3942 12.1628 12.0511C12.1628 12.4532 12.0837 12.8369 11.9402 13.1873L14.8827 15.47C15.4325 14.8458 16.2376 14.452 17.1348 14.452C18.3279 14.452 19.3584 15.1486 19.8417 16.1572L21.5422 15.5187C21.7044 14.3508 22.4216 13.5915 23.2657 12.7812C23.2853 12.7624 23.305 12.7435 23.3247 12.7246C24.2604 11.8258 25.1877 10.935 26.5136 10.935C28.1704 10.935 29.5136 12.2781 29.5136 13.935C29.5136 14.4061 29.405 14.8518 29.2115 15.2485L30.9516 16.5779C31.4619 16.1765 32.1056 15.937 32.8052 15.937C34.462 15.937 35.8052 17.2802 35.8052 18.937C35.8052 20.2908 34.9085 21.4351 33.6766 21.8085C33.6383 21.9351 33.5917 22.0582 33.5377 22.1771V26.5354C33.5377 27.226 33.1445 27.6084 32.6223 28.1164C32.545 28.1916 32.4649 28.2695 32.3829 28.3516C31.7461 28.9883 31.09 29.5354 30.5377 29.5354H7.43032C6.87804 29.5354 6.43032 29.0877 6.43032 28.5354V16.961C5.12754 16.6341 4.16284 15.4553 4.16284 14.0511C4.16284 12.8498 4.86419 12.1212 5.70529 11.2474" fill="#2A2620"/>
<path d="M7.41284 12.0511C7.41284 13.0176 8.19634 13.8011 9.16284 13.8011C9.34294 13.8011 9.51667 13.7739 9.68018 13.7234C9.88013 13.6616 10.0648 13.5649 10.227 13.4405C10.2436 13.4278 10.2599 13.4148 10.276 13.4015C10.6649 13.0805 10.9128 12.5947 10.9128 12.0511C10.9128 11.0846 10.1293 10.3011 9.16284 10.3011C8.19634 10.3011 7.41284 11.0846 7.41284 12.0511Z" fill="white"/>
<path d="M9.68018 15.0066V26.2854H32.2875V21.8925C30.8774 21.6473 29.8052 20.4173 29.8052 18.937C29.8052 18.4321 29.9299 17.9564 30.1502 17.5389L28.4415 16.2335C27.9202 16.6713 27.2476 16.935 26.5135 16.935C25.5862 16.935 24.7572 16.5143 24.2069 15.8533L20.134 17.3827C20.1345 17.4057 20.1348 17.4288 20.1348 17.452C20.1348 19.1089 18.7916 20.452 17.1348 20.452C15.4779 20.452 14.1348 19.1089 14.1348 17.452C14.1348 17.1463 14.1805 16.8513 14.2655 16.5734L11.2338 14.2216C10.8137 14.6226 10.2772 14.9029 9.68018 15.0066Z" fill="white"/>
<path d="M25.5055 15.3656C25.7904 15.5668 26.1382 15.685 26.5135 15.685C26.839 15.685 27.1437 15.5962 27.4047 15.4414C27.9189 15.1366 28.2635 14.5761 28.2635 13.935C28.2635 12.9685 27.48 12.185 26.5135 12.185C25.5471 12.185 24.7635 12.9685 24.7635 13.935C24.7635 14.4787 25.0115 14.9644 25.4004 15.2854C25.4344 15.3134 25.4694 15.3402 25.5055 15.3656Z" fill="white"/>
<path d="M15.3848 17.452C15.3848 18.4185 16.1683 19.202 17.1348 19.202C17.957 19.202 18.6467 18.635 18.8344 17.8707C18.8363 17.8629 18.8381 17.8551 18.84 17.8472C18.8693 17.7202 18.8848 17.5879 18.8848 17.452C18.8848 16.4855 18.1013 15.702 17.1348 15.702C16.1717 15.702 15.3904 16.4799 15.3848 17.4417C15.3848 17.4451 15.3848 17.4486 15.3848 17.452Z" fill="white"/>
<path d="M32.3261 20.6206C32.4783 20.6639 32.6391 20.687 32.8052 20.687C33.7717 20.687 34.5552 19.9035 34.5552 18.937C34.5552 17.9705 33.7717 17.187 32.8052 17.187C32.0571 17.187 31.4187 17.6564 31.1683 18.3166C31.0952 18.5095 31.0552 18.7186 31.0552 18.937C31.0552 19.7233 31.5737 20.3885 32.2875 20.6092C32.3003 20.6131 32.3132 20.617 32.3261 20.6206Z" fill="white"/>
</svg>
