<svg width="40" height="40" viewBox="0 0 40 40" fill="none" xmlns="http://www.w3.org/2000/svg">
<path d="M0 20C0 8.95431 8.95431 0 20 0C31.0457 0 40 8.95431 40 20C40 31.0457 31.0457 40 20 40C8.95431 40 0 31.0457 0 20Z" fill="#E5DED6"/>
<path d="M7.05532 16.961V16.4735L6.58244 16.3548C5.55099 16.096 4.78784 15.1619 4.78784 14.0511C4.78784 13.1152 5.3005 12.5782 6.16476 11.6731C6.26706 11.5659 6.37428 11.4536 6.48616 11.3349C7.48883 10.2708 8.11462 9.67609 9.16284 9.67609C10.4745 9.67609 11.5378 10.7394 11.5378 12.0511C11.5378 12.3706 11.4751 12.6739 11.3618 12.9505L11.1818 13.39L11.5571 13.6812L14.4996 15.9638L14.9636 16.3238L15.3517 15.8831C15.7879 15.3879 16.4246 15.077 17.1348 15.077C18.0784 15.077 18.8948 15.6273 19.2781 16.4273L19.5255 16.9436L20.0615 16.7423L21.7619 16.1038L22.1102 15.973L22.1613 15.6046C22.2908 14.6718 22.8513 14.0455 23.6985 13.2321C24.7016 12.2691 25.4563 11.56 26.5136 11.56C27.8253 11.56 28.8886 12.6233 28.8886 13.935C28.8886 14.3091 28.8025 14.6613 28.6497 14.9745L28.4254 15.4345L28.8321 15.7452L30.5722 17.0746L30.9573 17.3688L31.3381 17.0691C31.7421 16.7513 32.2507 16.562 32.8052 16.562C34.1169 16.562 35.1802 17.6253 35.1802 18.937C35.1802 20.0078 34.471 20.9146 33.4953 21.2103L33.1755 21.3073L33.0785 21.6272C33.0482 21.7272 33.0114 21.8245 32.9687 21.9185L32.9127 22.0417V22.1771V26.5354C32.9127 26.7695 32.8449 26.9349 32.7013 27.124C32.5764 27.2884 32.4247 27.436 32.2177 27.6375C32.1349 27.7181 32.0433 27.8073 31.9409 27.9096C31.6304 28.2201 31.3388 28.4844 31.073 28.6683C30.7937 28.8616 30.6215 28.9104 30.5377 28.9104H7.43032C7.22322 28.9104 7.05532 28.7425 7.05532 28.5354V16.961Z" fill="#2A2620" stroke="#2A2620" stroke-width="1.25"/>
<path d="M7.41284 12.0511C7.41284 13.0176 8.19634 13.8011 9.16284 13.8011C9.34294 13.8011 9.51667 13.7739 9.68018 13.7234C9.88013 13.6616 10.0648 13.5649 10.227 13.4405C10.2436 13.4278 10.2599 13.4148 10.276 13.4015C10.6649 13.0805 10.9128 12.5947 10.9128 12.0511C10.9128 11.0846 10.1293 10.3011 9.16284 10.3011C8.19634 10.3011 7.41284 11.0846 7.41284 12.0511Z" fill="white"/>
<path d="M9.68018 15.0066V26.2854H32.2875V21.8925C30.8774 21.6473 29.8052 20.4173 29.8052 18.937C29.8052 18.4321 29.9299 17.9564 30.1502 17.5389L28.4415 16.2335C27.9202 16.6713 27.2476 16.935 26.5135 16.935C25.5862 16.935 24.7572 16.5143 24.2069 15.8533L20.134 17.3827C20.1345 17.4057 20.1348 17.4288 20.1348 17.452C20.1348 19.1089 18.7916 20.452 17.1348 20.452C15.4779 20.452 14.1348 19.1089 14.1348 17.452C14.1348 17.1463 14.1805 16.8513 14.2655 16.5734L11.2338 14.2216C10.8137 14.6226 10.2772 14.9029 9.68018 15.0066Z" fill="white"/>
<path d="M25.5055 15.3656C25.7904 15.5668 26.1382 15.685 26.5135 15.685C26.839 15.685 27.1437 15.5962 27.4047 15.4414C27.9189 15.1366 28.2635 14.5761 28.2635 13.935C28.2635 12.9685 27.48 12.185 26.5135 12.185C25.5471 12.185 24.7635 12.9685 24.7635 13.935C24.7635 14.4787 25.0115 14.9644 25.4004 15.2854C25.4344 15.3134 25.4694 15.3402 25.5055 15.3656Z" fill="white"/>
<path d="M15.3848 17.452C15.3848 18.4185 16.1683 19.202 17.1348 19.202C17.957 19.202 18.6467 18.635 18.8344 17.8707C18.8363 17.8629 18.8381 17.8551 18.84 17.8472C18.8693 17.7202 18.8848 17.5879 18.8848 17.452C18.8848 16.4855 18.1013 15.702 17.1348 15.702C16.1717 15.702 15.3904 16.4799 15.3848 17.4417C15.3848 17.4451 15.3848 17.4486 15.3848 17.452Z" fill="white"/>
<path d="M32.3261 20.6206C32.4783 20.6639 32.6391 20.687 32.8052 20.687C33.7717 20.687 34.5552 19.9035 34.5552 18.937C34.5552 17.9705 33.7717 17.187 32.8052 17.187C32.0571 17.187 31.4187 17.6564 31.1683 18.3166C31.0952 18.5095 31.0552 18.7186 31.0552 18.937C31.0552 19.7233 31.5737 20.3885 32.2875 20.6092C32.3003 20.6131 32.3132 20.617 32.3261 20.6206Z" fill="white"/>
</svg>
