<svg width="40" height="40" viewBox="0 0 40 40" fill="none" xmlns="http://www.w3.org/2000/svg">
<path d="M0 20C0 8.95431 8.95431 0 20 0V0C31.0457 0 40 8.95431 40 20V20C40 31.0457 31.0457 40 20 40V40C8.95431 40 0 31.0457 0 20V20Z" fill="#E5DED6"/>
<path fill-rule="evenodd" clip-rule="evenodd" d="M34 19C34 23.0993 32.3618 26.3618 29.5 29C26.8618 31.8618 23.0993 34 19 34C11.8203 34 6 28.1797 6 21C6 16.9007 7.5 14.5 10 11.5C12.9511 7.95867 16.9007 6 21 6C28.1797 6 34 11.8203 34 19ZM21 30.75C27.4893 30.75 32.75 25.4893 32.75 19C32.75 12.5107 27.4893 7.25 21 7.25C14.5107 7.25 9.25 12.5107 9.25 19C9.25 25.4893 14.5107 30.75 21 30.75Z" fill="#2A2620"/>
<path fill-rule="evenodd" clip-rule="evenodd" d="M32.75 19C32.75 25.4893 27.4893 30.75 21 30.75C14.5107 30.75 9.25 25.4893 9.25 19C9.25 12.5107 14.5107 7.25 21 7.25C27.4893 7.25 32.75 12.5107 32.75 19ZM17.5 16.5C17.5 17.3284 16.8284 18 16 18C15.1716 18 14.5 17.3284 14.5 16.5C14.5 15.6716 15.1716 15 16 15C16.8284 15 17.5 15.6716 17.5 16.5ZM27.5 16.5C27.5 17.3284 26.8284 18 26 18C25.1716 18 24.5 17.3284 24.5 16.5C24.5 15.6716 25.1716 15 26 15C26.8284 15 27.5 15.6716 27.5 16.5ZM15 22.375C14.6548 22.375 14.375 22.6548 14.375 23C14.375 23.3452 14.6548 23.625 15 23.625H27C27.3452 23.625 27.625 23.3452 27.625 23C27.625 22.6548 27.3452 22.375 27 22.375H15Z" fill="white"/>
<path d="M17.5 16.5C17.5 17.3284 16.8284 18 16 18C15.1716 18 14.5 17.3284 14.5 16.5C14.5 15.6716 15.1716 15 16 15C16.8284 15 17.5 15.6716 17.5 16.5Z" fill="#2A2620"/>
<path d="M27.5 16.5C27.5 17.3284 26.8284 18 26 18C25.1716 18 24.5 17.3284 24.5 16.5C24.5 15.6716 25.1716 15 26 15C26.8284 15 27.5 15.6716 27.5 16.5Z" fill="#2A2620"/>
<path fill-rule="evenodd" clip-rule="evenodd" d="M14.375 23C14.375 22.6548 14.6548 22.375 15 22.375H27C27.3452 22.375 27.625 22.6548 27.625 23C27.625 23.3452 27.3452 23.625 27 23.625H15C14.6548 23.625 14.375 23.3452 14.375 23Z" fill="#2A2620"/>
</svg>
