<svg width="40" height="40" viewBox="0 0 40 40" fill="none" xmlns="http://www.w3.org/2000/svg">
<path d="M0 20C0 8.95431 8.95431 0 20 0V0C31.0457 0 40 8.95431 40 20V20C40 31.0457 31.0457 40 20 40V40C8.95431 40 0 31.0457 0 20V20Z" fill="#E5DED6"/>
<path fill-rule="evenodd" clip-rule="evenodd" d="M31.9928 19.7967C32.2823 19.4606 32.372 18.9961 32.2285 18.5764L28.8403 8.66855C28.7021 8.26432 28.367 7.95868 27.9518 7.85814C27.5365 7.75759 27.0987 7.87605 26.7909 8.17226C25.4485 9.46382 24.2052 9.95192 23.0139 10.1094C21.8377 10.2649 20.6755 10.1103 19.3336 9.9317L19.0483 9.89385C17.6504 9.70941 16.0439 9.52155 14.4046 9.92327C13.4314 10.1618 12.4875 10.5954 11.5705 11.2904L11.3057 10.5264C10.9666 9.54798 9.8985 9.02973 8.92008 9.36886C7.94165 9.70799 7.4234 10.7761 7.76253 11.7545L15.9095 35.2594C16.2486 36.2378 17.3167 36.7561 18.2951 36.4169C19.2736 36.0778 19.7918 35.0097 19.4527 34.0313L15.9206 23.8408C16.7394 22.8666 17.6048 22.3523 18.4767 22.0738C19.6925 21.6854 21.0406 21.7139 22.5758 21.853C22.8585 21.8786 23.1517 21.9087 23.4522 21.9396C24.6916 22.0669 26.0561 22.2072 27.3228 22.0962C28.9891 21.9503 30.6375 21.3699 31.9928 19.7967Z" fill="#2A2620"/>
<path d="M8.18204 9.84307L10.2021 7.82298L10.2021 9.85315L8.18204 9.84307Z" fill="#2A2620"/>
<path d="M20.9504 34.0253L18.9303 36.0454L18.9303 34.0153L20.9504 34.0253Z" fill="#2A2620"/>
<path d="M33.5205 18.2949L31.5005 20.315L31.5005 18.2849L33.5205 18.2949Z" fill="#2A2620"/>
<path d="M29.6576 7.07303L33.0457 16.9808C28.6767 22.0524 20.7901 14.4732 16.063 22.307L12.553 12.0723C18.0968 5.00044 23.5258 12.9728 29.6576 7.07303Z" fill="white"/>
<path fill-rule="evenodd" clip-rule="evenodd" d="M34.2285 16.5764C34.372 16.9961 34.2823 17.4606 33.9928 17.7967C32.6375 19.3699 30.9891 19.9503 29.3228 20.0962C28.0561 20.2072 26.6916 20.067 25.4522 19.9396C25.1517 19.9087 24.8585 19.8786 24.5759 19.853C23.0406 19.7139 21.6925 19.6854 20.4767 20.0738C19.3195 20.4435 18.1738 21.2284 17.1332 22.9528C16.8823 23.3686 16.4133 23.6014 15.9304 23.5499C15.4474 23.4984 15.0381 23.1718 14.8806 22.7125L11.3706 12.4778C11.2332 12.0772 11.308 11.6343 11.5693 11.3011C13.1003 9.34802 14.7079 8.33908 16.4046 7.92329C18.0439 7.52157 19.6504 7.70942 21.0483 7.89386C21.1443 7.90653 21.2394 7.91918 21.3336 7.93172C22.6755 8.11028 23.8377 8.26493 25.0139 8.10943C26.2052 7.95193 27.4485 7.46383 28.7909 6.17227C29.0987 5.87607 29.5366 5.7576 29.9518 5.85815C30.367 5.9587 30.7021 6.26434 30.8403 6.66857L34.2285 16.5764ZM29.6576 7.07303C29.3138 7.40377 28.9723 7.69091 28.6328 7.93955C26.0586 9.82502 23.6031 9.49655 21.2034 9.17555C18.2747 8.78378 15.4293 8.40315 12.553 12.0723L16.063 22.307C16.3486 21.8335 16.6458 21.4164 16.9531 21.0494C19.448 18.0694 22.6064 18.3918 25.6396 18.7015C28.4145 18.9848 31.0845 19.2574 33.0457 16.9808L29.6576 7.07303Z" fill="#2A2620"/>
<path fill-rule="evenodd" clip-rule="evenodd" d="M11.3294 8.5499C11.6556 8.43685 12.0116 8.60961 12.1247 8.93575L20.2716 32.4406C20.3847 32.7668 20.2119 33.1228 19.8858 33.2358C19.5596 33.3489 19.2036 33.1761 19.0906 32.85L10.9436 9.34512C10.8306 9.01897 11.0033 8.66294 11.3294 8.5499Z" fill="white"/>
<path fill-rule="evenodd" clip-rule="evenodd" d="M10.9201 7.36881C11.8985 7.02968 12.9666 7.54793 13.3057 8.52636L21.4527 32.0312C21.7918 33.0097 21.2736 34.0778 20.2952 34.4169C19.3167 34.756 18.2486 34.2378 17.9095 33.2593L9.76253 9.75446C9.4234 8.77603 9.94165 7.70794 10.9201 7.36881ZM12.1247 8.93573L20.2716 32.4406C20.3847 32.7668 20.2119 33.1228 19.8858 33.2358C19.5596 33.3489 19.2036 33.1761 19.0906 32.85L10.9436 9.34509C10.8306 9.01895 11.0033 8.66292 11.3294 8.54988C11.6556 8.43683 12.0116 8.60959 12.1247 8.93573Z" fill="#2A2620"/>
<path fill-rule="evenodd" clip-rule="evenodd" d="M11.3294 8.54984C11.6556 8.43679 12.0116 8.60954 12.1247 8.93569L20.2716 32.4406C20.3847 32.7667 20.2119 33.1227 19.8858 33.2358C19.5596 33.3488 19.2036 33.1761 19.0906 32.8499L10.9436 9.34505C10.8306 9.01891 11.0033 8.66288 11.3294 8.54984Z" fill="white"/>
</svg>
