<svg width="40" height="40" viewBox="0 0 40 40" fill="none" xmlns="http://www.w3.org/2000/svg">
<path d="M0 20C0 8.95431 8.95431 0 20 0V0C31.0457 0 40 8.95431 40 20V20C40 31.0457 31.0457 40 20 40V40C8.95431 40 0 31.0457 0 20V20Z" fill="#E5DED6"/>
<path d="M11 10H26V30H11V10Z" fill="#2A2620"/>
<path d="M11 11C11 10.4477 11.4477 10 12 10H25C25.5523 10 26 10.4477 26 11V29C26 29.5523 25.5523 30 25 30H12C11.4477 30 11 29.5523 11 29V11Z" fill="#2A2620"/>
<path fill-rule="evenodd" clip-rule="evenodd" d="M12 8.75H25C26.2426 8.75 27.25 9.75736 27.25 11V29C27.25 30.2426 26.2426 31.25 25 31.25H12C10.7574 31.25 9.75 30.2426 9.75 29V11C9.75 9.75736 10.7574 8.75 12 8.75ZM12 10C11.4477 10 11 10.4477 11 11V29C11 29.5523 11.4477 30 12 30H25C25.5523 30 26 29.5523 26 29V11C26 10.4477 25.5523 10 25 10H12Z" fill="#2A2620"/>
<path d="M28.4983 28.6708L26.4783 30.6909L26.4783 28.6608L28.4983 28.6708Z" fill="#2A2620"/>
<path d="M27 12H28C28.5523 12 29 12.4477 29 13V15C29 15.5523 28.5523 16 28 16H27V12Z" fill="#2A2620"/>
<path fill-rule="evenodd" clip-rule="evenodd" d="M25.75 10.75H28C29.2426 10.75 30.25 11.7574 30.25 13V15C30.25 16.2426 29.2426 17.25 28 17.25H25.75V10.75ZM28 16C28.0863 16 28.1701 15.9891 28.25 15.9685C28.6813 15.8575 29 15.466 29 15V13C29 12.534 28.6813 12.1425 28.25 12.0315C28.1701 12.0109 28.0863 12 28 12H27V16H28Z" fill="#2A2620"/>
<path d="M27 18H28C28.5523 18 29 18.4477 29 19V21C29 21.5523 28.5523 22 28 22H27V18Z" fill="#2A2620"/>
<path fill-rule="evenodd" clip-rule="evenodd" d="M25.75 16.75H28C29.2426 16.75 30.25 17.7574 30.25 19V21C30.25 22.2426 29.2426 23.25 28 23.25H25.75V16.75ZM28 22C28.0863 22 28.1701 21.9891 28.25 21.9685C28.6813 21.8575 29 21.466 29 21V19C29 18.534 28.6813 18.1425 28.25 18.0315C28.1701 18.0109 28.0863 18 28 18H27V22H28Z" fill="#2A2620"/>
<path d="M27 24H28C28.5523 24 29 24.4477 29 25V27C29 27.5523 28.5523 28 28 28H27V24Z" fill="#2A2620"/>
<path fill-rule="evenodd" clip-rule="evenodd" d="M25.75 22.75H28C29.2426 22.75 30.25 23.7574 30.25 25V27C30.25 28.2426 29.2426 29.25 28 29.25H25.75V22.75ZM28 28C28.0863 28 28.1701 27.9891 28.25 27.9685C28.6813 27.8575 29 27.466 29 27V25C29 24.534 28.6813 24.1425 28.25 24.0315C28.1701 24.0109 28.0863 24 28 24H27V28H28Z" fill="#2A2620"/>
<path d="M31.73 26.4401L29.71 28.4602L29.71 26.4301L31.73 26.4401Z" fill="#2A2620"/>
<path d="M10.3618 9.45702L12.3818 7.43694L12.3818 9.4671L10.3618 9.45702Z" fill="#2A2620"/>
<path d="M13 8H28V28H13V8Z" fill="#2A2620"/>
<path d="M13 9C13 8.44772 13.4477 8 14 8H27C27.5523 8 28 8.44772 28 9V27C28 27.5523 27.5523 28 27 28H14C13.4477 28 13 27.5523 13 27V9Z" fill="#2A2620"/>
<path fill-rule="evenodd" clip-rule="evenodd" d="M14 6.75H27C28.2426 6.75 29.25 7.75736 29.25 9V27C29.25 28.2426 28.2426 29.25 27 29.25H14C12.7574 29.25 11.75 28.2426 11.75 27V9C11.75 7.75736 12.7574 6.75 14 6.75ZM14 8C13.4477 8 13 8.44772 13 9V27C13 27.5523 13.4477 28 14 28H27C27.5523 28 28 27.5523 28 27V9C28 8.44772 27.5523 8 27 8H14Z" fill="#2A2620"/>
<path d="M29 10H30C30.5523 10 31 10.4477 31 11V13C31 13.5523 30.5523 14 30 14H29V10Z" fill="#2A2620"/>
<path fill-rule="evenodd" clip-rule="evenodd" d="M27.75 8.75H30C31.2426 8.75 32.25 9.75736 32.25 11V13C32.25 14.2426 31.2426 15.25 30 15.25H27.75V8.75ZM30 14C30.0863 14 30.1701 13.9891 30.25 13.9685C30.6813 13.8575 31 13.466 31 13V11C31 10.534 30.6813 10.1425 30.25 10.0315C30.1701 10.0109 30.0863 10 30 10H29V14H30Z" fill="#2A2620"/>
<path d="M29 16H30C30.5523 16 31 16.4477 31 17V19C31 19.5523 30.5523 20 30 20H29V16Z" fill="#2A2620"/>
<path fill-rule="evenodd" clip-rule="evenodd" d="M27.75 14.75H30C31.2426 14.75 32.25 15.7574 32.25 17V19C32.25 20.2426 31.2426 21.25 30 21.25H27.75V14.75ZM30 20C30.0863 20 30.1701 19.9891 30.25 19.9685C30.6813 19.8575 31 19.466 31 19V17C31 16.534 30.6813 16.1425 30.25 16.0315C30.1701 16.0109 30.0863 16 30 16H29V20H30Z" fill="#2A2620"/>
<path d="M29 22H30C30.5523 22 31 22.4477 31 23V25C31 25.5523 30.5523 26 30 26H29V22Z" fill="#2A2620"/>
<path fill-rule="evenodd" clip-rule="evenodd" d="M27.75 20.75H30C31.2426 20.75 32.25 21.7574 32.25 23V25C32.25 26.2426 31.2426 27.25 30 27.25H27.75V20.75ZM30 26C30.0863 26 30.1701 25.9891 30.25 25.9685C30.6813 25.8575 31 25.466 31 25V23C31 22.534 30.6813 22.1425 30.25 22.0315C30.1701 22.0109 30.0863 22 30 22H29V26H30Z" fill="#2A2620"/>
<path d="M13 9C13 8.44772 13.4477 8 14 8H27C27.5523 8 28 8.44772 28 9V27C28 27.5523 27.5523 28 27 28H14C13.4477 28 13 27.5523 13 27V9Z" fill="white"/>
<path fill-rule="evenodd" clip-rule="evenodd" d="M14 6.75H27C28.2426 6.75 29.25 7.75736 29.25 9V27C29.25 28.2426 28.2426 29.25 27 29.25H14C12.7574 29.25 11.75 28.2426 11.75 27V9C11.75 7.75736 12.7574 6.75 14 6.75ZM14 8C13.4477 8 13 8.44772 13 9V27C13 27.5523 13.4477 28 14 28H27C27.5523 28 28 27.5523 28 27V9C28 8.44772 27.5523 8 27 8H14Z" fill="#2A2620"/>
<path d="M29 10H30C30.5523 10 31 10.4477 31 11V13C31 13.5523 30.5523 14 30 14H29V10Z" fill="white"/>
<path d="M29 16H30C30.5523 16 31 16.4477 31 17V19C31 19.5523 30.5523 20 30 20H29V16Z" fill="white"/>
<path d="M29 22H30C30.5523 22 31 22.4477 31 23V25C31 25.5523 30.5523 26 30 26H29V22Z" fill="white"/>
<path d="M23.5 14C23.5 15.6569 22.1569 17 20.5 17C18.8431 17 17.5 15.6569 17.5 14C17.5 12.3431 18.8431 11 20.5 11C22.1569 11 23.5 12.3431 23.5 14Z" fill="#2A2620"/>
<path d="M15.5 22C15.5 19.7909 17.2909 18 19.5 18H21.5C23.7091 18 25.5 19.7909 25.5 22V28H15.5V22Z" fill="#2A2620"/>
</svg>
