<svg width="40" height="40" viewBox="0 0 40 40" fill="none" xmlns="http://www.w3.org/2000/svg">
<path d="M0 20C0 8.95431 8.95431 0 20 0V0C31.0457 0 40 8.95431 40 20V20C40 31.0457 31.0457 40 20 40V40C8.95431 40 0 31.0457 0 20V20Z" fill="#E5DED6"/>
<path fill-rule="evenodd" clip-rule="evenodd" d="M22.5554 5.49386L24.5659 7.98104L27.6544 7.15063C28.8841 6.82001 30.1055 7.70743 30.1711 8.97909L30.3357 12.173L33.3224 13.3166C34.5116 13.7719 34.9781 15.2078 34.2837 16.2751L32.5395 18.9558L34.2837 21.6365C34.8184 22.4583 34.6648 23.4985 34.0232 24.1414L30.2466 27.4669L30.1711 28.9325C30.1395 29.5453 29.8395 30.0689 29.3995 30.4099L29.4019 30.4119C29.3239 30.4453 28.1548 31.6121 27.3393 32.4461L27.3343 32.4447C26.872 32.9325 26.0679 33.0592 25.2507 32.8493L22.8756 32.0215C22.205 32.8512 21.5284 33.6762 20.8575 34.5061C20.057 35.4963 18.5472 35.4964 17.7467 34.5061L15.7362 32.0189L12.6477 32.8493C11.418 33.1799 10.1966 32.2925 10.1311 31.0209L9.96643 27.8269L6.97969 26.6834C5.79053 26.2281 5.52166 24.9557 6.19182 24.0034L7.9151 21.3227L6.59066 19.4211C5.75062 18.3319 5.57547 17.641 5.85006 17.1647L5.84766 17.1628L7.66 14.1847C7.87919 13.8033 8.22636 13.4893 8.67756 13.3166L10.0299 12.7988L11.9727 8.32684C12.3396 7.42403 13.363 6.88025 14.3686 7.15063L17.4341 7.98104L19.4446 5.49386C20.2451 4.5036 21.7549 4.50359 22.5554 5.49386Z" fill="#2A2620"/>
<path d="M20.6426 6.13817C20.8429 5.89047 21.2205 5.89047 21.4207 6.13817L23.8951 9.19908C24.0195 9.35298 24.2229 9.41908 24.414 9.3677L28.2149 8.34574C28.5225 8.26303 28.828 8.48501 28.8444 8.80309L29.047 12.7338C29.0572 12.9314 29.183 13.1045 29.3678 13.1752L33.0435 14.5826C33.3409 14.6965 33.4576 15.0556 33.2839 15.3226L31.1374 18.6217C31.0295 18.7876 31.0295 19.0015 31.1374 19.1674L33.2839 22.4664C33.4576 22.7334 33.3409 23.0926 33.0435 23.2065L29.3678 24.6138C29.183 24.6846 29.0572 24.8576 29.047 25.0553L28.8444 28.986C28.828 29.304 28.5225 29.526 28.2149 29.4433L24.414 28.4214C24.2229 28.37 24.0195 28.4361 23.8951 28.59L21.4207 31.6509C21.2205 31.8986 20.8429 31.8986 20.6426 31.6509L18.1683 28.59C18.0439 28.4361 17.8405 28.37 17.6494 28.4214L13.8484 29.4433C13.5409 29.526 13.2353 29.304 13.2189 28.986L13.0163 25.0553C13.0061 24.8576 12.8804 24.6846 12.6956 24.6138L9.01989 23.2065C8.72244 23.0926 8.60574 22.7334 8.77944 22.4664L10.9259 19.1674C11.0339 19.0015 11.0339 18.7876 10.9259 18.6217L8.77944 15.3226C8.60574 15.0556 8.72244 14.6965 9.01989 14.5826L12.6956 13.1752C12.8804 13.1045 13.0061 12.9314 13.0163 12.7338L13.2189 8.8031C13.2353 8.48501 13.5409 8.26303 13.8484 8.34573L17.6494 9.3677C17.8405 9.41908 18.0439 9.35298 18.1683 9.19908L20.6426 6.13817Z" fill="white"/>
<path fill-rule="evenodd" clip-rule="evenodd" d="M17.5 18C18.8807 18 20 16.8807 20 15.5C20 14.1193 18.8807 13 17.5 13C16.1193 13 15 14.1193 15 15.5C15 16.8807 16.1193 18 17.5 18ZM17.5 16.75C18.1904 16.75 18.75 16.1904 18.75 15.5C18.75 14.8096 18.1904 14.25 17.5 14.25C16.8096 14.25 16.25 14.8096 16.25 15.5C16.25 16.1904 16.8096 16.75 17.5 16.75Z" fill="#2A2620"/>
<path d="M15.5 23.5L25.5 13.5L26.3839 14.3839L16.3839 24.3839L15.5 23.5Z" fill="#2A2620"/>
<path fill-rule="evenodd" clip-rule="evenodd" d="M27 22.5C27 23.8807 25.8807 25 24.5 25C23.1193 25 22 23.8807 22 22.5C22 21.1193 23.1193 20 24.5 20C25.8807 20 27 21.1193 27 22.5ZM25.75 22.5C25.75 23.1904 25.1904 23.75 24.5 23.75C23.8096 23.75 23.25 23.1904 23.25 22.5C23.25 21.8096 23.8096 21.25 24.5 21.25C25.1904 21.25 25.75 21.8096 25.75 22.5Z" fill="#2A2620"/>
</svg>
