<svg width="40" height="40" viewBox="0 0 40 40" fill="none" xmlns="http://www.w3.org/2000/svg">
<path d="M0 20C0 8.95431 8.95431 0 20 0C31.0457 0 40 8.95431 40 20C40 31.0457 31.0457 40 20 40C8.95431 40 0 31.0457 0 20Z" fill="#E5DED6"/>
<path d="M7 29C7 30.1046 7.89543 31 9 31H29.1716C29.702 31 30.2107 30.7893 30.5858 30.4142L32.4142 28.5858C32.7893 28.2107 33 27.702 33 27.1716V11C33 9.89543 32.1046 9 31 9H10.8284C10.298 9 9.78929 9.21071 9.41421 9.58579L7.58579 11.4142C7.21071 11.7893 7 12.298 7 12.8284V29Z" fill="#2A2620"/>
<path d="M10.25 11.1026L19.7572 20.6098C20.3919 21.2444 21.4207 21.2444 22.0553 20.6098L31.7457 10.9194C31.7486 10.9459 31.75 10.9728 31.75 11V27C31.75 27.4142 31.4142 27.75 31 27.75H11C10.5858 27.75 10.25 27.4142 10.25 27V11.1026Z" fill="white"/>
<path d="M11.1652 10.25H30.6474L21.1715 19.7259C21.025 19.8724 20.7876 19.8724 20.6411 19.7259L11.1652 10.25Z" fill="white"/>
</svg>
