<svg width="40" height="40" viewBox="0 0 40 40" fill="none" xmlns="http://www.w3.org/2000/svg">
<path d="M0 20C0 8.95431 8.95431 0 20 0C31.0457 0 40 8.95431 40 20C40 31.0457 31.0457 40 20 40C8.95431 40 0 31.0457 0 20Z" fill="#E5DED6"/>
<path d="M9 30.25C8.30964 30.25 7.75 29.6904 7.75 29V12.8284C7.75 12.4969 7.8817 12.179 8.11612 11.9445L9.94454 10.1161C10.179 9.8817 10.4969 9.75 10.8284 9.75H31C31.6904 9.75 32.25 10.3096 32.25 11V27.1716C32.25 27.5031 32.1183 27.821 31.8839 28.0555L30.0555 29.8839C29.821 30.1183 29.5031 30.25 29.1716 30.25H9Z" fill="#2A2620" stroke="#2A2620" stroke-width="1.5" stroke-linejoin="round"/>
<path d="M10.25 11.1026L19.7572 20.6098C20.3919 21.2444 21.4207 21.2444 22.0553 20.6098L31.7457 10.9194C31.7486 10.9459 31.75 10.9728 31.75 11V27C31.75 27.4142 31.4142 27.75 31 27.75H11C10.5858 27.75 10.25 27.4142 10.25 27V11.1026Z" fill="white"/>
<path d="M11.1652 10.25H30.6474L21.1715 19.7259C21.025 19.8724 20.7876 19.8724 20.6411 19.7259L11.1652 10.25Z" fill="white"/>
</svg>
