<svg width="40" height="40" viewBox="0 0 40 40" fill="none" xmlns="http://www.w3.org/2000/svg">
<path d="M0 20C0 8.95431 8.95431 0 20 0C31.0457 0 40 8.95431 40 20C40 31.0457 31.0457 40 20 40C8.95431 40 0 31.0457 0 20Z" fill="#E5DED6"/>
<path d="M11.5977 9C11.0672 9 10.5585 9.21072 10.1834 9.58579L8.58579 11.1834C8.21071 11.5585 8 12.0672 8 12.5977V26.3846C8 27.4892 8.89543 28.3846 10 28.3846H12.3846V32.5954C12.3846 33.462 13.4118 33.9184 14.0549 33.3375L19.5385 28.3846H28.4023C28.9328 28.3846 29.4415 28.1739 29.8166 27.7988L31.4142 26.2012C31.7893 25.8261 32 25.3174 32 24.787V11C32 10.1716 31.4963 9.46079 30.7785 9.15717C30.5392 9.05596 30.2761 9 30 9L11.5977 9Z" fill="#2A2620"/>
<path fill-rule="evenodd" clip-rule="evenodd" d="M15.25 25.6154C15.25 24.925 14.6904 24.3654 14 24.3654H11.8462C11.432 24.3654 11.0962 24.0296 11.0962 23.6154V11C11.0962 10.5858 11.432 10.25 11.8462 10.25H30C30.4143 10.25 30.75 10.5858 30.75 11V23.6154C30.75 24.0296 30.4143 24.3654 30 24.3654H22.3077C22.0016 24.3654 21.7061 24.4777 21.4773 24.6811L15.25 30.2164V25.6154ZM21 19C21.8284 19 22.5 18.3284 22.5 17.5C22.5 16.6716 21.8284 16 21 16C20.1716 16 19.5 16.6716 19.5 17.5C19.5 18.3284 20.1716 19 21 19ZM27.5 17.5C27.5 18.3284 26.8284 19 26 19C25.1716 19 24.5 18.3284 24.5 17.5C24.5 16.6716 25.1716 16 26 16C26.8284 16 27.5 16.6716 27.5 17.5ZM16 19C16.8284 19 17.5 18.3284 17.5 17.5C17.5 16.6716 16.8284 16 16 16C15.1716 16 14.5 16.6716 14.5 17.5C14.5 18.3284 15.1716 19 16 19Z" fill="white"/>
</svg>
