<svg width="40" height="40" viewBox="0 0 40 40" fill="none" xmlns="http://www.w3.org/2000/svg">
<path d="M0 20C0 8.95431 8.95431 0 20 0C31.0457 0 40 8.95431 40 20C40 31.0457 31.0457 40 20 40C8.95431 40 0 31.0457 0 20Z" fill="#E5DED6"/>
<path fill-rule="evenodd" clip-rule="evenodd" d="M29.5 29C32.3618 26.3618 34 23.0993 34 19C34 17.3487 33.6921 15.7693 33.1306 14.3162L36.0499 12.2356L31.9114 11.3105L32.3875 7.09666L29.4943 9.15862C27.216 7.19041 24.247 6 21 6C16.9007 6 12.9511 7.95867 10 11.5C7.5 14.5 6 16.9007 6 21C6 28.1797 11.8203 34 19 34C23.0993 34 26.8618 31.8618 29.5 29ZM33.0423 12.8441L32.6127 13.1503C32.535 12.9965 32.4544 12.8443 32.3709 12.694L33.0423 12.8441ZM30.8308 9.74109L30.7555 10.4073C30.6447 10.2816 30.5315 10.158 30.416 10.0367L30.8308 9.74109Z" fill="#2A2620"/>
<path d="M32.75 19C32.75 17.6209 32.5124 16.2973 32.0759 15.0679L30.0563 16.5073L28.4792 16.1548C28.8157 17.0388 29 17.9979 29 19C29 23.4183 25.4183 27 21 27C16.5817 27 13 23.4183 13 19C13 14.5817 16.5817 11 21 11C22.9932 11 24.8162 11.7289 26.2168 12.9348L26.3938 11.3684L28.4432 9.90774C26.4166 8.24676 23.8247 7.25 21 7.25C14.5107 7.25 9.25 12.5107 9.25 19C9.25 25.4893 14.5107 30.75 21 30.75C27.4893 30.75 32.75 25.4893 32.75 19Z" fill="white"/>
<path d="M21 12.25C23.0033 12.25 24.8028 13.1227 26.039 14.5087L26.0143 14.728L23.0805 16.8386C22.5411 16.3193 21.8079 16 21 16C19.3431 16 18 17.3431 18 19C18 20.6569 19.3431 22 21 22C22.6569 22 24 20.6569 24 19C24 18.6018 23.9224 18.2218 23.7816 17.8741L26.7186 15.7612L26.9519 15.8134C27.4612 16.7625 27.75 17.8475 27.75 19C27.75 22.7279 24.7279 25.75 21 25.75C17.2721 25.75 14.25 22.7279 14.25 19C14.25 15.2721 17.2721 12.25 21 12.25Z" fill="white"/>
<path d="M30.9409 12.0022L31.2438 9.32085L27.5733 11.9368L27.2704 14.6182L29.9039 15.2068L33.5743 12.5909L30.9409 12.0022Z" fill="white"/>
</svg>
