<svg width="40" height="40" viewBox="0 0 40 40" fill="none" xmlns="http://www.w3.org/2000/svg">
<path d="M0 20C0 8.95431 8.95431 0 20 0C31.0457 0 40 8.95431 40 20C40 31.0457 31.0457 40 20 40C8.95431 40 0 31.0457 0 20Z" fill="#E5DED6"/>
<path fill-rule="evenodd" clip-rule="evenodd" d="M25.5484 6.8179L23.6893 3.12704L22.5318 6.0893C22.0294 6.03033 21.5183 6 21 6C16.9007 6 12.9511 7.95867 10 11.5C7.5 14.5 6 16.9007 6 21C6 28.1797 11.8203 34 19 34C23.0993 34 26.8618 31.8618 29.5 29C32.1709 26.5379 33.7759 23.5319 33.9782 19.8095L37.1576 19.1795L33.7887 16.6529L33.7806 16.609L35.9309 12.9894L32.8306 13.6038C31.8587 11.4765 30.33 9.65699 28.4308 8.33167L29.567 5.42374L25.7001 6.87565C25.6497 6.8561 25.5991 6.83685 25.5484 6.8179ZM23.9004 6.32475L23.8337 6.19223L23.7914 6.30041C23.8278 6.30837 23.8641 6.31649 23.9004 6.32475ZM27.353 7.6554L27.3828 7.57905L27.2831 7.61648C27.3065 7.62939 27.3297 7.64236 27.353 7.6554ZM34.1656 18.4981L33.9918 18.5325C33.9897 18.4757 33.9874 18.419 33.9846 18.3624L34.1656 18.4981ZM33.4249 14.7603L33.3408 14.9018C33.3279 14.8627 33.3147 14.8237 33.3014 14.7848L33.4249 14.7603Z" fill="#2A2620"/>
<path d="M23.8337 6.19223L24.9856 8.47914L27.3828 7.57905L25.927 11.3049L23.5297 12.2049L22.3778 9.91804L23.8337 6.19223Z" fill="white"/>
<path d="M22.0599 7.29715C21.7108 7.26594 21.3572 7.25 21 7.25C14.5107 7.25 9.25 12.5107 9.25 19C9.25 25.4893 14.5107 30.75 21 30.75C27.1313 30.75 32.1657 26.0539 32.7026 20.0623L29.9378 20.6102L28.9531 19.8717C28.5187 23.8799 25.1237 27 21 27C16.5817 27 13 23.4183 13 19C13 14.5817 16.5817 11 21 11C21.1787 11 21.3561 11.0059 21.5319 11.0174L21.0106 9.98241L22.0599 7.29715Z" fill="white"/>
<path d="M21 12.25C21.412 12.25 21.8154 12.2869 22.207 12.3576L22.5316 13.002L21.3669 16.0222C21.2466 16.0075 21.1242 16 21 16C19.3431 16 18 17.3431 18 19C18 20.6569 19.3431 22 21 22C22.6077 22 23.92 20.7354 23.9965 19.1467L27.1974 18.555L27.7499 18.9694L27.75 19C27.75 22.7279 24.7279 25.75 21 25.75C17.2721 25.75 14.25 22.7279 14.25 19C14.25 15.2721 17.2721 12.25 21 12.25Z" fill="white"/>
<path d="M23.6865 13.4813L24.4475 13.1956C25.7807 13.9891 26.8173 15.229 27.3513 16.7091L26.9867 17.3228L23.7968 17.9124C23.5552 17.2915 23.1127 16.7709 22.5492 16.4304L23.6865 13.4813Z" fill="white"/>
<path d="M25.8777 12.6586C26.8198 13.3843 27.5956 14.3152 28.1383 15.3844L28.7112 14.4201L31.5663 13.8543C30.7289 12.1379 29.4856 10.6559 27.9613 9.53316L26.8883 12.2791L25.8777 12.6586Z" fill="white"/>
<path d="M34.1656 18.4981L30.2418 19.2757L28.1932 17.7393L29.5011 15.5379L33.4249 14.7603L32.1171 16.9617L34.1656 18.4981Z" fill="white"/>
</svg>
