<svg width="40" height="40" viewBox="0 0 40 40" fill="none" xmlns="http://www.w3.org/2000/svg">
<path d="M0 20C0 8.95431 8.95431 0 20 0V0C31.0457 0 40 8.95431 40 20V20C40 31.0457 31.0457 40 20 40V40C8.95431 40 0 31.0457 0 20V20Z" fill="#E5DED6"/>
<path fill-rule="evenodd" clip-rule="evenodd" d="M15.9219 8.4347C15.3772 8.12024 14.7061 8.12024 14.1615 8.4347L9.61563 11.0592C9.43719 11.1623 9.28119 11.2939 9.15209 11.4465L7.19869 13.3999L7.19992 13.3999C6.80385 13.731 6.56876 14.224 6.56876 14.7504V19.9995C6.56876 20.6284 6.90429 21.2096 7.44897 21.5241L11.9948 24.1486C12.1627 24.2455 12.3426 24.3126 12.5271 24.3498V29.2078C12.5271 29.8368 12.8626 30.4179 13.4073 30.7324L17.9531 33.3569C18.4978 33.6714 19.1689 33.6714 19.7135 33.3569L24.2594 30.7324C24.4425 30.6267 24.602 30.4908 24.7331 30.333L26.666 28.4002L26.665 28.4002C27.0671 28.069 27.3063 27.5721 27.3063 27.0412V23.205L30.2177 21.5241C30.41 21.4131 30.5762 21.2688 30.7108 21.101L32.6054 19.2064C33.0184 18.8753 33.2646 18.3716 33.2646 17.8329V12.5838C33.2646 11.9549 32.9291 11.3737 32.3844 11.0592L27.8385 8.4347C27.2939 8.12024 26.6228 8.12024 26.0781 8.4347L21.5323 11.0592C21.3209 11.1813 21.141 11.3435 21 11.5331C20.859 11.3435 20.6791 11.1813 20.4677 11.0592L15.9219 8.4347Z" fill="#2A2620"/>
<path d="M26.4583 8.83032C26.7677 8.65169 27.1489 8.65169 27.4583 8.83032L32.0875 11.503C32.3969 11.6816 32.5875 12.0117 32.5875 12.369V17.7143C32.5875 18.0716 32.3969 18.4017 32.0875 18.5803L27.4583 21.253C27.1489 21.4316 26.7677 21.4316 26.4583 21.253L21.8292 18.5803C21.5198 18.4017 21.3292 18.0716 21.3292 17.7143V12.369C21.3292 12.0117 21.5198 11.6816 21.8292 11.503L26.4583 8.83032Z" fill="white"/>
<path fill-rule="evenodd" clip-rule="evenodd" d="M26.1458 8.28906C26.6486 7.99878 27.2681 7.99878 27.7708 8.28906L32.4 10.9617C32.9028 11.252 33.2125 11.7884 33.2125 12.369V17.7143C33.2125 18.2949 32.9028 18.8313 32.4 19.1216L27.7708 21.7942C27.2681 22.0845 26.6486 22.0845 26.1458 21.7942L21.5167 19.1216C21.0139 18.8313 20.7042 18.2949 20.7042 17.7143V12.369C20.7042 11.7884 21.0139 11.252 21.5167 10.9617L26.1458 8.28906ZM27.1458 9.37159C27.0298 9.3046 26.8869 9.3046 26.7708 9.37159L22.1417 12.0442C22.0256 12.1112 21.9542 12.235 21.9542 12.369V17.7143C21.9542 17.8483 22.0256 17.9721 22.1417 18.0391L26.7708 20.7117C26.8869 20.7787 27.0298 20.7787 27.1458 20.7117L31.775 18.0391C31.891 17.9721 31.9625 17.8483 31.9625 17.7143V12.369C31.9625 12.235 31.891 12.1112 31.775 12.0442L27.1458 9.37159Z" fill="#2A2620"/>
<path d="M14.5417 8.83032C14.8511 8.65169 15.2323 8.65169 15.5417 8.83032L20.1708 11.503C20.4802 11.6816 20.6708 12.0117 20.6708 12.369L20.6708 17.7143C20.6708 18.0716 20.4802 18.4017 20.1708 18.5803L15.5417 21.253C15.2323 21.4316 14.8511 21.4316 14.5417 21.253L9.91251 18.5803C9.6031 18.4017 9.41251 18.0716 9.41251 17.7143L9.41251 12.369C9.41251 12.0117 9.60311 11.6816 9.91251 11.503L14.5417 8.83032Z" fill="white"/>
<path fill-rule="evenodd" clip-rule="evenodd" d="M14.2292 8.28906C14.7319 7.99878 15.3514 7.99878 15.8542 8.28906L20.4833 10.9617C20.9861 11.252 21.2958 11.7884 21.2958 12.369L21.2958 17.7143C21.2958 18.2949 20.9861 18.8313 20.4833 19.1216L15.8542 21.7942C15.3514 22.0845 14.7319 22.0845 14.2292 21.7942L9.60001 19.1216C9.09723 18.8313 8.78751 18.2949 8.78751 17.7143L8.78751 12.369C8.78751 11.7884 9.09723 11.252 9.60001 10.9617L14.2292 8.28906ZM15.2292 9.37159C15.1131 9.3046 14.9702 9.3046 14.8542 9.37159L10.225 12.0442C10.109 12.1112 10.0375 12.235 10.0375 12.369L10.0375 17.7143C10.0375 17.8483 10.109 17.9721 10.225 18.0391L14.8542 20.7117C14.9702 20.7787 15.1131 20.7787 15.2292 20.7117L19.8583 18.0391C19.9744 17.9721 20.0458 17.8483 20.0458 17.7143L20.0458 12.369C20.0458 12.235 19.9744 12.1112 19.8583 12.0442L15.2292 9.37159Z" fill="#2A2620"/>
<path d="M20.5 18.0387C20.8094 17.8601 21.1906 17.8601 21.5 18.0387L26.1292 20.7113C26.4386 20.89 26.6292 21.2201 26.6292 21.5774V26.9227C26.6292 27.2799 26.4386 27.6101 26.1292 27.7887L21.5 30.4613C21.1906 30.64 20.8094 30.64 20.5 30.4613L15.8708 27.7887C15.5614 27.6101 15.3708 27.2799 15.3708 26.9227L15.3708 21.5774C15.3708 21.2201 15.5614 20.89 15.8708 20.7113L20.5 18.0387Z" fill="white"/>
<path fill-rule="evenodd" clip-rule="evenodd" d="M20.1875 17.4974C20.6903 17.2072 21.3097 17.2072 21.8125 17.4974L26.4417 20.1701C26.9444 20.4604 27.2542 20.9968 27.2542 21.5774V26.9227C27.2542 27.5032 26.9444 28.0397 26.4417 28.33L21.8125 31.0026C21.3097 31.2929 20.6903 31.2929 20.1875 31.0026L15.5583 28.33C15.0556 28.0397 14.7458 27.5032 14.7458 26.9227L14.7458 21.5774C14.7458 20.9968 15.0556 20.4604 15.5583 20.1701L20.1875 17.4974ZM21.1875 18.58C21.0715 18.513 20.9285 18.513 20.8125 18.58L16.1833 21.2526C16.0673 21.3196 15.9958 21.4434 15.9958 21.5774L15.9958 26.9227C15.9958 27.0566 16.0673 27.1804 16.1833 27.2474L20.8125 29.9201C20.9285 29.9871 21.0715 29.9871 21.1875 29.9201L25.8167 27.2474C25.9327 27.1804 26.0042 27.0566 26.0042 26.9227V21.5774C26.0042 21.4434 25.9327 21.3196 25.8167 21.2526L21.1875 18.58Z" fill="#2A2620"/>
<path d="M28.5833 13.9583C28.5833 14.8558 27.8558 15.5833 26.9583 15.5833C26.0609 15.5833 25.3333 14.8558 25.3333 13.9583C25.3333 13.0609 26.0609 12.3333 26.9583 12.3333C27.8558 12.3333 28.5833 13.0609 28.5833 13.9583Z" fill="#2A2620"/>
<path fill-rule="evenodd" clip-rule="evenodd" d="M26.9583 12.9583C26.406 12.9583 25.9583 13.406 25.9583 13.9583C25.9583 14.5106 26.406 14.9583 26.9583 14.9583C27.5106 14.9583 27.9583 14.5106 27.9583 13.9583C27.9583 13.406 27.5106 12.9583 26.9583 12.9583ZM24.7083 13.9583C24.7083 12.7157 25.7157 11.7083 26.9583 11.7083C28.201 11.7083 29.2083 12.7157 29.2083 13.9583C29.2083 15.201 28.201 16.2083 26.9583 16.2083C25.7157 16.2083 24.7083 15.201 24.7083 13.9583Z" fill="#2A2620"/>
<path d="M22.625 23.1667C22.625 24.0641 21.8975 24.7917 21 24.7917C20.1025 24.7917 19.375 24.0641 19.375 23.1667C19.375 22.2692 20.1025 21.5417 21 21.5417C21.8975 21.5417 22.625 22.2692 22.625 23.1667Z" fill="#2A2620"/>
<path fill-rule="evenodd" clip-rule="evenodd" d="M21 22.1667C20.4477 22.1667 20 22.6144 20 23.1667C20 23.719 20.4477 24.1667 21 24.1667C21.5523 24.1667 22 23.719 22 23.1667C22 22.6144 21.5523 22.1667 21 22.1667ZM18.75 23.1667C18.75 21.924 19.7574 20.9167 21 20.9167C22.2426 20.9167 23.25 21.924 23.25 23.1667C23.25 24.4093 22.2426 25.4167 21 25.4167C19.7574 25.4167 18.75 24.4093 18.75 23.1667Z" fill="#2A2620"/>
<path d="M16.6667 13.9583C16.6667 14.8558 15.9391 15.5833 15.0417 15.5833C14.1442 15.5833 13.4167 14.8558 13.4167 13.9583C13.4167 13.0609 14.1442 12.3333 15.0417 12.3333C15.9391 12.3333 16.6667 13.0609 16.6667 13.9583Z" fill="#2A2620"/>
<path fill-rule="evenodd" clip-rule="evenodd" d="M15.0417 12.9583C14.4894 12.9583 14.0417 13.406 14.0417 13.9583C14.0417 14.5106 14.4894 14.9583 15.0417 14.9583C15.594 14.9583 16.0417 14.5106 16.0417 13.9583C16.0417 13.406 15.594 12.9583 15.0417 12.9583ZM12.7917 13.9583C12.7917 12.7157 13.799 11.7083 15.0417 11.7083C16.2843 11.7083 17.2917 12.7157 17.2917 13.9583C17.2917 15.201 16.2843 16.2083 15.0417 16.2083C13.799 16.2083 12.7917 15.201 12.7917 13.9583Z" fill="#2A2620"/>
<path d="M26.9583 17.2084C25.7617 17.2084 24.7917 18.4209 24.7917 19.9167L27 21.5L29.125 19.9167C29.125 18.4209 28.155 17.2084 26.9583 17.2084Z" fill="#2A2620"/>
<path fill-rule="evenodd" clip-rule="evenodd" d="M25.4329 19.6074L26.9929 20.7259L28.4846 19.6145C28.3692 18.5055 27.628 17.8334 26.9583 17.8334C26.2901 17.8334 25.5506 18.5026 25.4329 19.6074ZM24.1667 19.9167C24.1667 18.2131 25.2936 16.5834 26.9583 16.5834C28.6231 16.5834 29.75 18.2131 29.75 19.9167V20.2304L27.0071 22.2741L24.1667 20.2376V19.9167Z" fill="#2A2620"/>
<path d="M15.0417 17.2084C13.845 17.2084 12.875 18.4209 12.875 19.9167L15 21.5L17.2083 19.9167C17.2083 18.4209 16.2383 17.2084 15.0417 17.2084Z" fill="#2A2620"/>
<path fill-rule="evenodd" clip-rule="evenodd" d="M13.5154 19.6145L15.0071 20.7259L16.5671 19.6074C16.4494 18.5026 15.7099 17.8334 15.0417 17.8334C14.372 17.8334 13.6308 18.5055 13.5154 19.6145ZM12.25 19.9167C12.25 18.2131 13.3769 16.5834 15.0417 16.5834C16.7064 16.5834 17.8333 18.2131 17.8333 19.9167V20.2376L14.9929 22.2741L12.25 20.2304V19.9167Z" fill="#2A2620"/>
<path d="M21 26.4166C19.8034 26.4166 18.8333 27.6292 18.8333 29.125L21 30.5L23.1667 29.125C23.1667 27.6292 22.1966 26.4166 21 26.4166Z" fill="#2A2620"/>
<path fill-rule="evenodd" clip-rule="evenodd" d="M19.477 28.7932L21 29.7598L22.523 28.7932C22.3977 27.7018 21.6637 27.0416 21 27.0416C20.3363 27.0416 19.6023 27.7018 19.477 28.7932ZM18.2083 29.125C18.2083 27.4214 19.3353 25.7916 21 25.7916C22.6647 25.7916 23.7917 27.4214 23.7917 29.125V29.4686L21 31.2402L18.2083 29.4686V29.125Z" fill="#2A2620"/>
</svg>
