<svg width="40" height="40" viewBox="0 0 40 40" fill="none" xmlns="http://www.w3.org/2000/svg">
<path d="M0 20C0 8.95431 8.95431 0 20 0C31.0457 0 40 8.95431 40 20C40 31.0457 31.0457 40 20 40C8.95431 40 0 31.0457 0 20Z" fill="#E5DED6"/>
<path fill-rule="evenodd" clip-rule="evenodd" d="M27.612 19.3739C27.8135 19.1746 28.0837 18.9087 28.3663 18.6307C28.7084 18.2941 29.0686 17.9397 29.3467 17.6641C29.365 17.646 29.3826 17.6273 29.3994 17.6078C29.5395 17.4735 29.674 17.3319 29.802 17.1825C32.0582 14.5491 31.6283 10.2977 31.3489 8.63085C31.278 8.20745 30.9253 7.9053 30.496 7.9001C28.806 7.87963 24.539 8.10684 22.2828 10.7402C22.2206 10.8128 22.1604 10.8866 22.1022 10.9616C21.9966 9.83842 21.6922 8.71049 21.0581 7.72387C19.1833 4.80662 14.9875 3.99785 13.3106 3.78695C12.9898 3.74661 12.689 3.87906 12.5053 4.12193L10.7272 6.01391C10.6205 6.11439 10.5379 6.24355 10.4908 6.39414C9.98597 8.00712 8.97861 12.1597 10.8534 15.077C12.7212 17.9834 16.8928 18.797 18.5821 19.0115C18.586 19.1347 18.5914 19.2557 18.5978 19.3739H12.7528C12.5037 19.3739 12.2745 19.4653 12.1021 19.6161V19.6119L10.044 21.67H10.0453C9.87018 21.8508 9.76921 22.0995 9.79186 22.3732C9.97959 24.6423 10.8122 25.606 11.6038 26.5221C12.2701 27.2932 12.9072 28.0307 13.106 29.4846C13.1181 29.5729 13.1396 29.6588 13.1694 29.7407V34.0405C13.1694 34.5928 13.6171 35.0405 14.1694 35.0405H25.8361C26.1405 35.0405 26.4131 34.9045 26.5965 34.69L28.4852 32.8013C28.7 32.6179 28.8361 32.3451 28.8361 32.0406C28.8361 32.0406 28.6373 29.1947 28.8361 27.7408C29.0349 26.2868 29.7355 25.2933 30.4018 24.5221C31.1933 23.606 32.026 22.6423 32.2137 20.3732C32.2592 19.8228 31.8051 19.3739 31.2528 19.3739H27.612ZM13.2051 6.10766C15.1695 6.57311 17.8042 7.57814 19.1831 9.72385C19.7937 10.6739 20.0986 11.755 20.2147 12.8368C20.2584 12.7818 20.3033 12.7275 20.3492 12.6738C20.5205 12.4739 20.7034 12.2878 20.8959 12.1147C20.9174 10.7697 20.6827 9.45184 20.0066 8.39967C19.2673 7.24933 18.0199 6.44708 16.6486 5.90218C15.4573 5.42883 14.2692 5.18831 13.4676 5.07001C13.3825 5.36393 13.2903 5.71525 13.2051 6.10766ZM30.1504 13.4118C30.0351 12.1463 29.7085 11.0433 29.4892 10.4153C29.3686 10.0699 29.0514 9.84316 28.6856 9.83573C27.9457 9.8207 26.5977 9.8493 25.1339 10.1532C25.6872 9.89091 26.2856 9.68987 26.9001 9.53884C28.1449 9.23289 29.3548 9.15716 30.165 9.14961C30.2818 9.95137 30.3925 11.1585 30.281 12.4356C30.2523 12.7645 30.2095 13.0912 30.1504 13.4118ZM18.7131 20.6239H13.0742C13.1092 20.9027 13.1556 21.151 13.2104 21.3739H18.8324C18.8242 21.3444 18.8174 21.3143 18.8121 21.2835C18.7801 21.097 18.7456 20.8749 18.7131 20.6239ZM26.8361 31.7906H27.5683L27.5599 31.6401C27.544 31.3429 27.5248 30.9306 27.512 30.4707C27.4872 29.5785 27.4829 28.411 27.5976 27.5715C27.599 27.5612 27.6004 27.551 27.6019 27.5409C27.2744 28.0465 27.0141 28.6465 26.8995 29.4846C26.8875 29.573 26.866 29.6588 26.8361 29.7408V31.7906ZM30.1674 22.8123C30.1856 22.6715 30.2011 22.5253 30.2137 22.3732C30.2592 21.8228 29.805 21.3739 29.2527 21.3739H24.7663C25.2683 21.1802 25.76 20.9344 26.221 20.6239H30.9314C30.8319 21.4173 30.6397 21.9636 30.4239 22.3807C30.3444 22.5344 30.2592 22.676 30.1674 22.8123Z" fill="#2A2620"/>
<path d="M13.78 12.4012C13.0407 11.2509 12.8292 9.78295 12.9032 8.30919C12.9675 7.02893 13.2423 5.84825 13.4676 5.07001C14.2692 5.18831 15.4573 5.42883 16.6486 5.90218C18.0199 6.44708 19.2673 7.24933 20.0066 8.39967C20.7459 9.55001 20.9574 11.0179 20.8834 12.4917C20.8336 13.4832 20.6575 14.415 20.476 15.1464L15.7969 7.9456L14.7487 8.62669L19.2358 15.532C18.5965 15.3913 17.8678 15.1887 17.138 14.8987C15.7667 14.3538 14.5193 13.5516 13.78 12.4012Z" fill="white"/>
<path d="M25.1847 18.3839C26.6177 18.0317 27.9631 17.4076 28.8527 16.3692C29.7424 15.3308 30.1528 13.9056 30.2811 12.4356C30.3925 11.1585 30.2818 9.95136 30.165 9.14961C29.3548 9.15716 28.1449 9.23289 26.9001 9.53884C25.4671 9.89103 24.1217 10.5151 23.2321 11.5535C22.3424 12.5919 21.932 14.0171 21.8037 15.4871C21.7205 16.4408 21.7612 17.3555 21.8358 18.0915L27.117 11.623L28.0853 12.4135L22.9271 18.7313C23.6009 18.6818 24.3856 18.5802 25.1847 18.3839Z" fill="white"/>
<path d="M13.0743 20.6239C13.1737 21.4173 13.366 21.9636 13.5817 22.3807C13.836 22.8723 14.1487 23.2408 14.5497 23.7049C14.582 23.7422 14.6161 23.7813 14.6516 23.8222C15.2926 24.5577 16.4195 25.8506 16.4195 27.7407V31.7906H27.5683L27.56 31.6401C27.544 31.3429 27.5249 30.9306 27.5121 30.4707C27.4873 29.5785 27.4829 28.411 27.5976 27.5715C27.8436 25.7723 28.7195 24.5573 29.456 23.7049C29.857 23.2408 30.1696 22.8723 30.4239 22.3807C30.6397 21.9636 30.8319 21.4173 30.9314 20.6239H13.0743Z" fill="white"/>
</svg>
