<svg width="40" height="40" viewBox="0 0 40 40" fill="none" xmlns="http://www.w3.org/2000/svg">
<path d="M0 20C0 8.95431 8.95431 0 20 0C31.0457 0 40 8.95431 40 20C40 31.0457 31.0457 40 20 40C8.95431 40 0 31.0457 0 20Z" fill="#E5DED6"/>
<path fill-rule="evenodd" clip-rule="evenodd" d="M26.2696 24.1249C25.3356 25.3163 24.2951 26.6436 24.2951 27.9349V32.1091H25.525L24.1147 33.5194C23.547 34.6116 21.7054 35.4118 19.5211 35.4118C16.8845 35.4118 14.7472 34.2459 14.7472 32.8078C14.7472 32.7923 14.7474 32.7768 14.7479 32.7613L14.7472 27.9349C14.7472 26.7557 13.6096 25.5225 12.5313 24.3534C12.1058 23.8922 11.6896 23.4409 11.356 23.0068C10.2132 21.5197 9.53918 19.8915 9.53918 17.9131C9.53918 15.7008 10.3819 13.6746 11.7806 12.1052H11.7733L11.8463 12.0322C12.041 11.8184 12.2461 11.6133 12.4609 11.4176L13.8315 10.047V10.3799C15.3389 9.43908 17.1453 8.89136 19.0871 8.89136C24.3603 8.89136 28.6351 12.9306 28.6351 17.9131C28.6351 19.7163 28.0752 21.5975 27.1108 23.0068C26.8684 23.361 26.5747 23.7357 26.2696 24.1249Z" fill="#2A2620"/>
<path fill-rule="evenodd" clip-rule="evenodd" d="M23.0451 32.8667V27.9349C23.0451 26.9651 23.4306 26.0813 23.8541 25.3597C24.2737 24.6447 24.8108 23.9596 25.2622 23.3838L25.2858 23.3537C25.5972 22.9565 25.8641 22.6152 26.0792 22.3009C26.892 21.1132 27.3851 19.4815 27.3851 17.9131C27.3851 13.6867 23.7377 10.1414 19.0871 10.1414C17.3824 10.1414 15.8048 10.6218 14.4933 11.4403L13.7287 11.9176L13.3242 12.3221L13.3027 12.3417C13.1165 12.5113 12.9389 12.6889 12.7706 12.8738L12.7509 12.8954L12.7491 12.8972L12.7137 12.9369C11.5058 14.2922 10.7892 16.027 10.7892 17.9131C10.7892 19.57 11.3418 20.9369 12.3472 22.2452C12.6398 22.626 13.0148 23.034 13.4501 23.5059L13.4796 23.5379C13.9982 24.1001 14.6009 24.7534 15.0693 25.426C15.5362 26.0962 15.9972 26.9596 15.9972 27.9349V31.5113H16.0387L15.9973 32.8014L15.9972 32.8078C15.9972 32.855 16.0495 33.1729 16.744 33.5517C17.3912 33.9048 18.3708 34.1618 19.5211 34.1618C20.4684 34.1618 21.3082 33.9871 21.9417 33.722C22.6027 33.4455 22.9087 33.1293 23.0055 32.943L23.0451 32.8667ZM24.2951 32.1091H25.525L24.1147 33.5194C23.547 34.6116 21.7054 35.4118 19.5211 35.4118C16.913 35.4118 14.7934 34.271 14.7479 32.8543C14.7475 32.8405 14.7472 32.8267 14.7472 32.8129C14.7472 32.8112 14.7472 32.8095 14.7472 32.8078C14.7472 32.8061 14.7472 32.8044 14.7472 32.8027C14.7472 32.7888 14.7475 32.7751 14.7479 32.7613L14.7472 27.9349C14.7472 26.7557 13.6096 25.5225 12.5313 24.3534C12.1058 23.8922 11.6896 23.4409 11.356 23.0068C10.2132 21.5197 9.53918 19.8915 9.53918 17.9131C9.53918 16.2504 10.0152 14.6928 10.8455 13.3552C11.1181 12.9162 11.4288 12.5009 11.7733 12.1133C11.7746 12.1119 11.7759 12.1105 11.7772 12.109C11.7783 12.1078 11.7794 12.1065 11.7806 12.1052H11.7733L11.8463 12.0322C12.041 11.8184 12.2461 11.6133 12.4609 11.4176L13.8315 10.047V10.3799C13.8999 10.3372 13.969 10.2953 14.0387 10.2542C14.16 10.1826 14.2833 10.1136 14.4082 10.047C14.6274 9.93039 14.852 9.82167 15.0815 9.7213C16.2996 9.18861 17.6566 8.89136 19.0871 8.89136C24.3603 8.89136 28.6351 12.9306 28.6351 17.9131C28.6351 19.7163 28.0752 21.5975 27.1108 23.0068C26.8684 23.361 26.5747 23.7357 26.2696 24.1249C25.3356 25.3163 24.2951 26.6436 24.2951 27.9349V32.1091Z" fill="#2A2620"/>
<path d="M27.8879 22.3888C26.9539 23.5803 25.9134 24.9075 25.9134 26.1989V31.0252C25.9139 31.0407 25.9134 31.0562 25.9134 31.0718C25.9134 32.5099 23.776 33.6758 21.1395 33.6758C18.5029 33.6758 16.3655 32.5099 16.3655 31.0718C16.3655 31.0562 16.3657 31.0407 16.3662 31.0252L16.3655 26.1989C16.3655 25.0197 15.2279 23.7865 14.1496 22.6174C13.7241 22.1561 13.3079 21.7048 12.9743 21.2708C11.8315 19.7837 11.1575 18.1555 11.1575 16.1771C11.1575 11.1945 15.4322 7.15533 20.7054 7.15533C25.9786 7.15533 30.2534 11.1945 30.2534 16.1771C30.2534 17.9803 29.6935 19.8614 28.7291 21.2708C28.4867 21.625 28.193 21.9997 27.8879 22.3888Z" fill="white"/>
<path d="M19.3855 3V5.47244H20.6355V3H19.3855Z" fill="#2A2620"/>
<path d="M8.80469 7.10059L10.553 8.84886L11.4368 7.96498L9.68857 6.2167L8.80469 7.10059Z" fill="#2A2620"/>
<path d="M29.468 8.84886L31.2163 7.10059L30.3324 6.2167L28.5841 7.96498L29.468 8.84886Z" fill="#2A2620"/>
<path d="M5 16.8113H7.47244V15.5613H5V16.8113Z" fill="#2A2620"/>
<path d="M35.0209 16.8113H32.5485V15.5613H35.0209V16.8113Z" fill="#2A2620"/>
<path fill-rule="evenodd" clip-rule="evenodd" d="M22.2682 17.9575C22.1855 18.063 22.0977 18.1723 22.0041 18.2823C22.6809 18.4735 23.3191 18.4056 23.7772 18.0292L24.2601 17.6324L25.0537 18.5981L24.5708 18.9949C23.6859 19.7221 22.5673 19.7466 21.6377 19.4777C21.409 19.4115 21.1837 19.3256 20.967 19.2229C20.8077 19.3246 20.6373 19.4147 20.4545 19.4886C19.6005 19.8334 18.5955 19.7802 17.3849 19.182L16.8246 18.9052L17.3783 17.7845L17.9386 18.0614C18.7719 18.4731 19.3504 18.5079 19.7778 18.3982C19.6259 18.2464 19.4919 18.0852 19.3805 17.9175C18.7147 16.9146 18.5428 15.8716 18.8314 15.0241C19.1251 14.1615 19.8811 13.5793 20.8334 13.5795C21.3891 13.5797 21.8746 13.7464 22.2514 14.0615C22.624 14.3731 22.8494 14.7955 22.952 15.2417C23.1541 16.1208 22.8998 17.1524 22.2682 17.9575ZM20.8331 14.8295C21.1316 14.8296 21.3236 14.9151 21.4495 15.0203C21.5795 15.129 21.6817 15.2951 21.7338 15.5218C21.8411 15.9885 21.7128 16.6402 21.2847 17.186C21.1408 17.3695 20.9997 17.5387 20.857 17.6897C20.6746 17.5414 20.5256 17.3823 20.4219 17.226C19.9149 16.4625 19.8803 15.8218 20.0147 15.4271C20.1439 15.0476 20.4404 14.8294 20.8331 14.8295Z" fill="#2A2620"/>
<path fill-rule="evenodd" clip-rule="evenodd" d="M25.9134 26.1989V29.0759L25.9135 29.0956L25.9135 29.1049L25.9134 31.0252C25.9139 31.0407 25.9134 31.0562 25.9134 31.0718C25.9134 32.5099 23.776 33.6758 21.1395 33.6758C18.5029 33.6758 16.3655 32.5099 16.3655 31.0718C16.3655 31.0562 16.3657 31.0407 16.3662 31.0252L16.3655 26.1989C16.3655 25.0197 15.2279 23.7865 14.1496 22.6174C13.7241 22.1561 13.3079 21.7048 12.9743 21.2708C11.8315 19.7837 11.1575 18.1555 11.1575 16.1771C11.1575 11.1945 15.4322 7.15533 20.7054 7.15533C25.9786 7.15533 30.2534 11.1945 30.2534 16.1771C30.2534 17.9803 29.6935 19.8614 28.7291 21.2708C28.4867 21.625 28.193 21.9997 27.8879 22.3888C26.9539 23.5803 25.9134 24.9075 25.9134 26.1989ZM29.0034 16.1771C29.0034 17.7455 28.5103 19.3772 27.6975 20.5649C27.4788 20.8844 27.2072 21.231 26.89 21.6356C26.5832 22.027 26.2394 22.4658 25.9247 22.9198C25.3238 23.7868 24.6634 24.9329 24.6634 26.1989V27.3388C23.7905 26.8181 22.535 26.4916 21.1396 26.4916C19.744 26.4916 18.4884 26.8182 17.6155 27.3389V26.1989C17.6155 24.8776 16.7613 23.7143 16.0695 22.89C15.745 22.5032 15.3911 22.1197 15.0663 21.7676L14.9213 21.6102C14.5459 21.2024 14.222 20.843 13.9654 20.5091C12.9601 19.2009 12.4075 17.834 12.4075 16.1771C12.4075 11.9507 16.0549 8.40533 20.7054 8.40533C25.356 8.40533 29.0034 11.9507 29.0034 16.1771ZM17.6155 29.315C18.4884 28.7944 19.744 28.4678 21.1395 28.4678C22.5349 28.4678 23.7905 28.7943 24.6634 29.315V29.091C24.6602 29.0307 24.592 28.7199 23.9167 28.3516C23.2695 27.9986 22.2899 27.7416 21.1396 27.7416C19.9892 27.7416 19.0097 27.9986 18.3624 28.3516C17.6679 28.7305 17.6156 29.0484 17.6156 29.0956C17.6156 29.098 17.6157 29.1011 17.6161 29.1049L17.6155 29.315ZM24.6634 31.0718C24.6634 31.119 24.6111 31.4369 23.9166 31.8157C23.2694 32.1687 22.2898 32.4258 21.1395 32.4258C19.9891 32.4258 19.0095 32.1687 18.3623 31.8157C17.6678 31.4369 17.6155 31.119 17.6155 31.0718C17.6155 31.0246 17.6678 30.7067 18.3623 30.3278C19.0095 29.9748 19.9891 29.7178 21.1395 29.7178C22.2898 29.7178 23.2694 29.9748 23.9166 30.3278C24.6111 30.7067 24.6634 31.0246 24.6634 31.0718Z" fill="#2A2620"/>
</svg>
