<svg width="40" height="40" viewBox="0 0 40 40" fill="none" xmlns="http://www.w3.org/2000/svg">
<path d="M0 20C0 8.95431 8.95431 0 20 0C31.0457 0 40 8.95431 40 20C40 31.0457 31.0457 40 20 40C8.95431 40 0 31.0457 0 20Z" fill="#E5DED6"/>
<path d="M29.1382 29.1382C32.1026 26.7555 34 23.0993 34 19C34 11.8203 28.1797 6 21 6C16.9007 6 13.2445 7.89738 10.8618 10.8618C8.5 13.5 6 16.9007 6 21C6 28.1797 11.8203 34 19 34C23.0993 34 26 31.5 29.1382 29.1382Z" fill="#2A2620"/>
<path d="M32.75 19C32.75 25.4893 27.4893 30.75 21 30.75C14.5107 30.75 9.25 25.4893 9.25 19C9.25 12.5107 14.5107 7.25 21 7.25C27.4893 7.25 32.75 12.5107 32.75 19Z" fill="white"/>
<path fill-rule="evenodd" clip-rule="evenodd" d="M21.625 26.125V17.875H20.375V26.125H21.625Z" fill="#2A2620"/>
<path d="M23 14C23 12.8954 22.1046 12 21 12C19.8954 12 19 12.8954 19 14C19 15.1046 19.8954 16 21 16C22.1046 16 23 15.1046 23 14Z" fill="#2A2620"/>
</svg>
