<svg width="40" height="40" viewBox="0 0 40 40" fill="none" xmlns="http://www.w3.org/2000/svg">
<path d="M0 20C0 8.95431 8.95431 0 20 0C31.0457 0 40 8.95431 40 20C40 31.0457 31.0457 40 20 40C8.95431 40 0 31.0457 0 20Z" fill="#E5DED6"/>
<path d="M31.9277 24.1786C31.2148 25.7361 30.1629 27.1205 28.8214 28.3571C26.3717 31.0146 22.8779 33 19.0714 33C13.5305 33 8.86158 29.2669 7.44252 24.1786H5.14284C3.86075 24.1786 2.82141 23.1392 2.82141 21.8571V20C2.82141 19.0299 3.46072 18.4 4.14414 17.7267C4.26153 17.611 4.38022 17.4941 4.49719 17.3739C4.57847 17.2904 4.66275 17.1966 4.75176 17.0975C5.25052 16.5423 5.89815 15.8214 6.99998 15.8214H8.13753C8.76782 14.5619 9.64198 13.3939 10.7143 12.1071C12.2188 10.3017 14.0029 8.93919 15.936 8.07754C17.4576 7.38548 19.148 7 20.9285 7C21.2748 7 21.6177 7.01458 21.9567 7.04317C27.0403 7.47194 31.2271 11.0512 32.5574 15.8214H34.8571C36.1392 15.8214 37.1786 16.8608 37.1786 18.1429V20C37.1786 21.1368 36.7457 21.5696 35.9453 22.3577L35.8031 22.4978C34.4961 23.7861 34.0979 24.1786 33 24.1786H31.9277Z" fill="#2A2620"/>
<path fill-rule="evenodd" clip-rule="evenodd" d="M20.9285 29.8929C26.9051 29.8929 31.75 25.0479 31.75 19.0714C31.75 13.0949 26.9051 8.25 20.9285 8.25C14.952 8.25 10.1071 13.0949 10.1071 19.0714C10.1071 25.0479 14.952 29.8929 20.9285 29.8929ZM19.3067 24.1054L27.1464 14.3321L26.1713 13.55L18.7678 22.7795L15.5888 19.6034L14.7053 20.4877L18.3775 24.1564C18.5031 24.282 18.6762 24.3481 18.8535 24.3384C19.0308 24.3286 19.1956 24.2439 19.3067 24.1054Z" fill="white"/>
<path d="M8.85712 19.0714C8.85712 19.703 8.90562 20.3232 8.9991 20.9286H7.07141C6.6572 20.9286 6.3018 20.6767 6.15 20.3178C6.09939 20.1982 6.07141 20.0667 6.07141 19.9286V18.2143C6.07141 18.0916 6.0935 17.9741 6.13391 17.8655C6.27545 17.4852 6.64179 17.2143 7.07141 17.2143H8.99909C8.90562 17.8197 8.85712 18.4399 8.85712 19.0714Z" fill="white"/>
<path d="M33 19.0714C33 18.4399 32.9515 17.8197 32.858 17.2143L34.7857 17.2143C35.338 17.2143 35.7857 17.662 35.7857 18.2143V19.9286C35.7857 20.4809 35.338 20.9286 34.7857 20.9286L32.858 20.9286C32.9515 20.3232 33 19.703 33 19.0714Z" fill="white"/>
</svg>
