<svg width="40" height="40" viewBox="0 0 40 40" fill="none" xmlns="http://www.w3.org/2000/svg">
<path d="M0 20C0 8.95431 8.95431 0 20 0V0C31.0457 0 40 8.95431 40 20V20C40 31.0457 31.0457 40 20 40V40C8.95431 40 0 31.0457 0 20V20Z" fill="#E5DED6"/>
<path fill-rule="evenodd" clip-rule="evenodd" d="M20 33L19.3205 34.0491L19.3164 34.0465L19.3088 34.0416L19.2829 34.0245C19.2609 34.01 19.2297 33.9893 19.1899 33.9625C19.1103 33.909 18.9962 33.8311 18.8525 33.7303C18.5652 33.5288 18.1588 33.2349 17.673 32.8593C16.7034 32.1097 15.4068 31.0266 14.1058 29.6945C11.5601 27.0881 8.75 23.2789 8.75 19C8.75 12.7868 13.7868 7.75 20 7.75C26.2132 7.75 31.25 12.7868 31.25 19C31.25 23.2789 28.4399 27.0881 25.8942 29.6945C24.5932 31.0266 23.2966 32.1097 22.327 32.8593C21.8412 33.2349 21.4348 33.5288 21.1475 33.7303C21.0038 33.8311 20.8897 33.909 20.8101 33.9625C20.7703 33.9893 20.7391 34.01 20.7171 34.0245L20.6912 34.0416L20.6836 34.0465L20.6795 34.0491L20 33ZM20 33C19.3205 34.0491 19.3208 34.0494 19.3205 34.0491L20 34.4893L20.6795 34.0491C20.6792 34.0494 20.6795 34.0491 20 33Z" fill="#2A2620"/>
<path d="M11.98 11.1264L14 9.10631L14 11.1365L11.98 11.1264Z" fill="#2A2620"/>
<path d="M32 17C32 24.5228 22 31 22 31C22 31 12 24.5228 12 17C12 11.4772 16.4772 7 22 7C27.5228 7 32 11.4772 32 17Z" fill="white"/>
<path fill-rule="evenodd" clip-rule="evenodd" d="M21.3205 32.0491L22 31L22.6795 32.0491L22 32.4893L21.3205 32.0491ZM22 31C22 31 12 24.5228 12 17C12 11.4772 16.4772 7 22 7C27.5228 7 32 11.4772 32 17C32 24.5228 22 31 22 31ZM22.6795 32.0491C22.6792 32.0494 22.6795 32.0491 22 31C21.3205 32.0491 21.3208 32.0494 21.3205 32.0491L21.3164 32.0465L21.3088 32.0416L21.2829 32.0245C21.2609 32.01 21.2297 31.9893 21.1899 31.9625C21.1103 31.909 20.9962 31.8311 20.8525 31.7303C20.5652 31.5288 20.1588 31.2349 19.673 30.8593C18.7034 30.1097 17.4068 29.0266 16.1058 27.6945C13.5601 25.0881 10.75 21.2789 10.75 17C10.75 10.7868 15.7868 5.75 22 5.75C28.2132 5.75 33.25 10.7868 33.25 17C33.25 21.2789 30.4399 25.0881 27.8942 27.6945C26.5932 29.0266 25.2966 30.1097 24.327 30.8593C23.8412 31.2349 23.4348 31.5288 23.1475 31.7303C23.0038 31.8311 22.8897 31.909 22.8101 31.9625C22.7703 31.9893 22.7391 32.01 22.7171 32.0245L22.6912 32.0416L22.6836 32.0465L22.6795 32.0491Z" fill="#2A2620"/>
<path d="M25 17C25 18.6569 23.6569 20 22 20C20.3431 20 19 18.6569 19 17C19 15.3431 20.3431 14 22 14C23.6569 14 25 15.3431 25 17Z" fill="#2A2620"/>
</svg>
