<svg width="40" height="40" viewBox="0 0 40 40" fill="none" xmlns="http://www.w3.org/2000/svg">
<path d="M0 20C0 8.95431 8.95431 0 20 0C31.0457 0 40 8.95431 40 20C40 31.0457 31.0457 40 20 40C8.95431 40 0 31.0457 0 20Z" fill="#E5DED6"/>
<path d="M12.8284 7C12.298 7 11.7893 7.21071 11.4142 7.58579L9.58579 9.41421C9.21071 9.78929 9 10.298 9 10.8284V31C9 32.1046 9.89543 33 11 33H27.1716C27.702 33 28.2107 32.7893 28.5858 32.4142L30.4142 30.5858C30.7893 30.2107 31 29.702 31 29.1716V9C31 7.89543 30.1046 7 29 7H12.8284Z" fill="#2A2620"/>
<path fill-rule="evenodd" clip-rule="evenodd" d="M29 8.25H13C12.5858 8.25 12.25 8.58579 12.25 9V29C12.25 29.4142 12.5858 29.75 13 29.75H29C29.4142 29.75 29.75 29.4142 29.75 29V9C29.75 8.58579 29.4142 8.25 29 8.25ZM16.5 14.5C17.3284 14.5 18 13.8284 18 13C18 12.1716 17.3284 11.5 16.5 11.5C15.6716 11.5 15 12.1716 15 13C15 13.8284 15.6716 14.5 16.5 14.5ZM20 13.625H27V12.375H20V13.625ZM20 19.625H27V18.375H20V19.625ZM27 25.625H20V24.375H27V25.625ZM16.5 20.5C17.3284 20.5 18 19.8284 18 19C18 18.1716 17.3284 17.5 16.5 17.5C15.6716 17.5 15 18.1716 15 19C15 19.8284 15.6716 20.5 16.5 20.5ZM18 25C18 25.8284 17.3284 26.5 16.5 26.5C15.6716 26.5 15 25.8284 15 25C15 24.1716 15.6716 23.5 16.5 23.5C17.3284 23.5 18 24.1716 18 25Z" fill="white"/>
</svg>
