<svg width="40" height="40" viewBox="0 0 40 40" fill="none" xmlns="http://www.w3.org/2000/svg">
<path d="M0 20C0 8.95431 8.95431 0 20 0C31.0457 0 40 8.95431 40 20C40 31.0457 31.0457 40 20 40C8.95431 40 0 31.0457 0 20Z" fill="#E5DED6"/>
<path d="M12.8284 7C12.298 7 11.7893 7.21071 11.4142 7.58579L9.58579 9.41421C9.21071 9.78929 9 10.298 9 10.8284V31C9 32.1046 9.89543 33 11 33H27.1716C27.702 33 28.2107 32.7893 28.5858 32.4142L30.4142 30.5858C30.7893 30.2107 31 29.702 31 29.1716V9C31 7.89543 30.1046 7 29 7H12.8284Z" fill="#2A2620"/>
<path fill-rule="evenodd" clip-rule="evenodd" d="M13 8.25H29C29.4142 8.25 29.75 8.58579 29.75 9V29C29.75 29.4142 29.4142 29.75 29 29.75H13C12.5858 29.75 12.25 29.4142 12.25 29V9C12.25 8.58579 12.5858 8.25 13 8.25ZM17.2795 12.441C17.4912 12.5469 17.625 12.7633 17.625 13V23.875H19V25.125H15V23.875H16.375V14.25L15.375 15L14.625 14L16.625 12.5C16.8144 12.358 17.0678 12.3351 17.2795 12.441ZM25.2795 12.441C25.4912 12.5469 25.625 12.7633 25.625 13V23.875H27V25.125H23V23.875H24.375V14.25L23.375 15L22.625 14L24.625 12.5C24.8144 12.358 25.0678 12.3351 25.2795 12.441ZM21 21.5C21.5523 21.5 22 21.0523 22 20.5C22 19.9477 21.5523 19.5 21 19.5C20.4477 19.5 20 19.9477 20 20.5C20 21.0523 20.4477 21.5 21 21.5ZM22 17.5C22 18.0523 21.5523 18.5 21 18.5C20.4477 18.5 20 18.0523 20 17.5C20 16.9477 20.4477 16.5 21 16.5C21.5523 16.5 22 16.9477 22 17.5Z" fill="white"/>
</svg>
