<svg width="40" height="40" viewBox="0 0 40 40" fill="none" xmlns="http://www.w3.org/2000/svg">
<path d="M0 20C0 8.95431 8.95431 0 20 0V0C31.0457 0 40 8.95431 40 20V20C40 31.0457 31.0457 40 20 40V40C8.95431 40 0 31.0457 0 20V20Z" fill="#E5DED6"/>
<path fill-rule="evenodd" clip-rule="evenodd" d="M10.3173 16.8968L13.8107 8.75322C13.9846 8.34766 14.2435 8.01375 14.5549 7.75836L16.1958 6.11749C17.1198 4.99081 18.8641 4.80468 20.006 5.86147L27.8935 13.1609L30.4934 12.6083C31.0336 12.4934 31.5646 12.8383 31.6794 13.3785L34.2575 25.5075C34.3379 25.8855 34.1932 26.259 33.914 26.4886L32.0512 28.3513C31.9124 28.52 31.7176 28.6446 31.4873 28.6936L9.96805 33.2676C9.42783 33.3824 8.89681 33.0376 8.78199 32.4974L6.20388 20.3684C6.12155 19.981 6.27554 19.5984 6.56843 19.3705L8.39335 17.5456C8.53304 17.3662 8.73433 17.2333 8.97411 17.1823L10.3173 16.8968ZM20.6184 14.7072L17.2659 11.6047L15.4652 15.8026L20.6184 14.7072Z" fill="#2A2620"/>
<path d="M18.4778 7.51282C18.2876 7.33685 17.9806 7.40212 17.8784 7.64022L14.2679 16.057L12.7713 16.3751L16.7297 7.14744C17.1722 6.11568 18.5028 5.83287 19.3268 6.5954L26.6962 13.4153L25.1996 13.7334L18.4778 7.51282Z" fill="white"/>
<path d="M9.47853 18.353L11.9527 29.9929L32.9829 25.5228L30.5087 13.8829L9.47853 18.353Z" fill="white"/>
</svg>
