<svg width="40" height="40" viewBox="0 0 40 40" fill="none" xmlns="http://www.w3.org/2000/svg">
<path d="M0 20C0 8.95431 8.95431 0 20 0C31.0457 0 40 8.95431 40 20C40 31.0457 31.0457 40 20 40C8.95431 40 0 31.0457 0 20Z" fill="#E5DED6"/>
<path d="M31.9277 24.1786C31.2148 25.7361 30.1629 27.1205 28.8214 28.3571C26.3717 31.0146 22.8779 33 19.0714 33C13.5305 33 8.86158 29.2669 7.44252 24.1786H5.14284C3.86075 24.1786 2.82141 23.1392 2.82141 21.8571V20C2.82141 19.0299 3.46072 18.4 4.14414 17.7267C4.26153 17.611 4.38022 17.4941 4.49719 17.3739C4.57847 17.2904 4.66275 17.1966 4.75176 17.0975C5.25052 16.5423 5.89815 15.8214 6.99998 15.8214H8.13753C8.76782 14.5619 9.64198 13.3939 10.7143 12.1071C12.219 10.3014 14.0034 8.93882 15.9368 8.0772C17.4581 7.38536 19.1483 7 20.9285 7C20.9285 7 20.9286 7 20.9285 7C21.6211 7 22.3001 7.05833 22.9609 7.17035C25.5563 7.61036 27.8698 8.87877 29.6199 10.694C30.9885 12.1136 32.0126 13.8676 32.5575 15.8214H34.8571C36.1392 15.8214 37.1786 16.8608 37.1786 18.1429V20C37.1786 21.1368 36.7457 21.5696 35.9453 22.3577L35.8031 22.4978C34.4961 23.7861 34.0979 24.1786 33 24.1786H31.9277Z" fill="#2A2620"/>
<path fill-rule="evenodd" clip-rule="evenodd" d="M20.9286 29.8929C26.9051 29.8929 31.75 25.0479 31.75 19.0714C31.75 13.0949 26.9051 8.25 20.9286 8.25C14.9521 8.25 10.1071 13.0949 10.1071 19.0714C10.1071 25.0479 14.9521 29.8929 20.9286 29.8929ZM21.5535 13.5V24.6429H20.3035V13.5H21.5535ZM17.8392 15.3571V22.7857H16.5892V15.3571H17.8392ZM25.2678 22.7857V15.3571H24.0178V22.7857H25.2678Z" fill="white"/>
<path d="M32.858 20.9286C32.9515 20.3232 33 19.703 33 19.0714C33 18.4399 32.9515 17.8197 32.858 17.2143H34.7857C35.338 17.2143 35.7857 17.662 35.7857 18.2143V19.9286C35.7857 20.4809 35.338 20.9286 34.7857 20.9286H32.858Z" fill="white"/>
<path d="M7.07141 17.2143H8.99909C8.90562 17.8197 8.85714 18.4399 8.85714 19.0714C8.85714 19.703 8.90563 20.3232 8.99911 20.9286H7.07141C6.51913 20.9286 6.07141 20.4809 6.07141 19.9286V18.2143C6.07141 17.662 6.51913 17.2143 7.07141 17.2143Z" fill="white"/>
</svg>
