<svg width="40" height="40" viewBox="0 0 40 40" fill="none" xmlns="http://www.w3.org/2000/svg">
<path d="M0 20C0 8.95431 8.95431 0 20 0C31.0457 0 40 8.95431 40 20C40 31.0457 31.0457 40 20 40C8.95431 40 0 31.0457 0 20Z" fill="#E5DED6"/>
<path fill-rule="evenodd" clip-rule="evenodd" d="M8.66421 8.58579C9.03929 8.21071 9.54799 8 10.0784 8H23.25C24.3546 8 25.25 8.89543 25.25 10V13.1551C25.488 13.0552 25.7494 13 26.0237 13H31.75C32.8546 13 33.75 13.8954 33.75 15V28L33.75 28.0137V29.1716C33.75 29.702 33.5393 30.2107 33.1642 30.5858L32.3358 31.4142C31.9607 31.7893 31.452 32 30.9216 32H9.25C8.14543 32 7.25 31.1046 7.25 30V10.8284C7.25 10.298 7.46071 9.78929 7.83579 9.41421L8.66421 8.58579ZM26.0237 14.25C25.6095 14.25 25.2737 14.5858 25.2737 15V28C25.2737 28.4142 25.6095 28.75 26.0237 28.75H31.75C32.1643 28.75 32.5 28.4142 32.5 28V15C32.5 14.5858 32.1643 14.25 31.75 14.25H26.0237ZM23.25 9.25H11.25C10.8358 9.25 10.5 9.58579 10.5 10V28C10.5 28.4142 10.8358 28.75 11.25 28.75H23.25C23.6642 28.75 24 28.4142 24 28V10C24 9.58579 23.6642 9.25 23.25 9.25Z" fill="#2A2620"/>
<path d="M11.25 9.25H23.25C23.6642 9.25 24 9.58579 24 10V28C24 28.4142 23.6642 28.75 23.25 28.75H11.25C10.8358 28.75 10.5 28.4142 10.5 28V10C10.5 9.58579 10.8358 9.25 11.25 9.25Z" fill="white"/>
<path d="M26.0237 14.25H31.75C32.1643 14.25 32.5 14.5858 32.5 15V28C32.5 28.4142 32.1643 28.75 31.75 28.75H26.0237C25.6095 28.75 25.2737 28.4142 25.2737 28V15C25.2737 14.5858 25.6095 14.25 26.0237 14.25Z" fill="white"/>
<path fill-rule="evenodd" clip-rule="evenodd" d="M18.25 12.5V15.5H21.25V12.5H18.25ZM16.25 17.5V20.5H13.25V17.5H16.25ZM21.25 17.5V20.5H18.25V17.5H21.25ZM27.25 17.5V20.5H30.25V17.5H27.25ZM27.25 22.5V25.5H30.25V22.5H27.25ZM18.25 22.5V25.5H21.25V22.5H18.25ZM16.25 12.5V15.5H13.25V12.5H16.25ZM13.25 22.5V25.5H16.25V22.5H13.25Z" fill="#2A2620"/>
</svg>
