<svg width="40" height="40" viewBox="0 0 40 40" fill="none" xmlns="http://www.w3.org/2000/svg">
<path d="M0 20C0 8.95431 8.95431 0 20 0C31.0457 0 40 8.95431 40 20C40 31.0457 31.0457 40 20 40C8.95431 40 0 31.0457 0 20Z" fill="#E5DED6"/>
<path fill-rule="evenodd" clip-rule="evenodd" d="M17.8627 6.5625C20.8369 6.5625 23.3616 8.48755 24.2582 11.1597C24.326 11.0748 24.3962 10.9894 24.4685 10.9027C25.5635 9.58862 27.0292 8.86169 28.5502 8.86169C31.2147 8.86169 33.3745 11.0217 33.3745 13.6859C33.3745 15.2069 32.7665 16.4178 31.7045 17.3962L31.6963 17.4054C33.9512 18.5217 35.5803 20.8789 35.851 23.678C35.9019 24.2059 35.6801 24.7162 35.305 25.0909L35.1777 25.2179C34.8027 25.5933 34.2939 25.8038 33.7635 25.8038H27.8325C27.9649 26.3873 28.0546 26.9891 28.097 27.6056C28.1334 28.1348 27.9146 28.645 27.5395 29.0198L26.8953 29.6643C26.5202 30.0391 26.0115 30.2502 25.4811 30.2502H7.33502C6.78296 30.2502 6.33038 29.801 6.38165 29.2511C6.68408 26.0107 8.42358 23.2098 10.5104 21.1743C10.7573 20.9015 11.0499 20.6183 11.3801 20.3357L11.4576 20.2698C11.7677 20.0092 12.1092 19.7498 12.4763 19.5007C12.1559 19.2297 11.8608 18.9301 11.5956 18.6047L11.588 18.595C10.6453 17.4353 10.0804 15.9558 10.0804 14.3445C10.0804 12.218 10.8586 10.9723 12.1556 9.41589C13.6866 7.57874 15.7359 6.5625 17.8627 6.5625ZM23.2637 17.406C23.3979 17.2272 23.5228 17.0435 23.6381 16.8549C23.9174 17.3334 24.2769 17.76 24.698 18.1152C24.192 18.4595 23.7535 18.8293 23.4141 19.1815L23.3842 19.1614L23.3604 19.1455C23.0247 18.9203 22.6759 18.7164 22.3155 18.5352L22.2609 18.5077L22.2725 18.4955C22.3973 18.3801 22.5175 18.2629 22.6332 18.1433C22.8169 17.9535 22.9887 17.7576 23.1483 17.5555L23.2637 17.406Z" fill="#2A2620"/>
<path d="M22.0006 18.456C23.4453 17.2435 24.3638 15.4244 24.3638 13.3907C24.3638 9.74028 21.4045 6.78101 17.7541 6.78101C14.1036 6.78101 11.1443 9.74028 11.1443 13.3907C11.1443 15.5211 12.1522 17.416 13.717 18.6248C10.4711 20.3629 8.23669 24.0044 8.23669 28.2152H26.8316C27.3729 28.2152 27.816 27.7751 27.771 27.2358C27.4435 23.3068 25.1648 19.9926 22.0006 18.456Z" fill="white"/>
<path d="M13.6296 18.6479C10.6433 20.247 8.49603 23.425 8.10243 27.1842C8.05948 27.5943 8.03741 28.0114 8.03741 28.4342H27.0119C27.5641 28.4342 28.0163 27.9851 27.9704 27.4347C27.6362 23.4255 25.311 20.0438 22.0823 18.4758C21.7015 18.7954 21.2848 19.0737 20.8392 19.3038C23.9035 20.458 26.2525 23.4466 26.6893 27.1842H9.35939C9.77889 23.5751 11.991 20.6594 14.9073 19.4256C14.4515 19.2135 14.0233 18.952 13.6296 18.6479Z" fill="#2A2620"/>
<path fill-rule="evenodd" clip-rule="evenodd" d="M17.749 18.8017C20.7836 18.8017 23.2437 16.3417 23.2437 13.3071C23.2437 10.2725 20.7836 7.8125 17.749 7.8125C14.7145 7.8125 12.2544 10.2725 12.2544 13.3071C12.2544 16.3417 14.7145 18.8017 17.749 18.8017ZM17.749 20.0517C21.474 20.0517 24.4937 17.0321 24.4937 13.3071C24.4937 9.58217 21.474 6.5625 17.749 6.5625C14.0241 6.5625 11.0044 9.58217 11.0044 13.3071C11.0044 17.0321 14.0241 20.0517 17.749 20.0517Z" fill="#2A2620"/>
</svg>
