<svg width="40" height="40" viewBox="0 0 40 40" fill="none" xmlns="http://www.w3.org/2000/svg">
<path d="M0 20C0 8.95431 8.95431 0 20 0V0C31.0457 0 40 8.95431 40 20V20C40 31.0457 31.0457 40 20 40V40C8.95431 40 0 31.0457 0 20V20Z" fill="#E5DED6"/>
<path fill-rule="evenodd" clip-rule="evenodd" d="M10.6884 9.53043C13.2473 6.74546 16.9198 5 21 5C28.732 5 35 11.268 35 19C35 23.0681 33.2649 26.7309 30.4944 29.2887C27.2673 32.5159 23.8028 35 19 35C11.268 35 5 28.732 5 21C5 16.2105 7.46842 12.7505 10.6884 9.53043Z" fill="#2A2620"/>
<path d="M29.3522 28.6337C32.0463 26.296 33.75 22.847 33.75 19C33.75 11.9584 28.0416 6.25 21 6.25C13.9584 6.25 8.25 11.9584 8.25 19C8.25 22.847 9.95374 26.296 12.6478 28.6337C13.483 25.9648 15.5622 23.8457 18.2063 22.9555C16.3951 21.9655 15.1667 20.0429 15.1667 17.8333C15.1667 14.6117 17.7783 12 21 12C24.2217 12 26.8333 14.6117 26.8333 17.8333C26.8333 20.0429 25.6049 21.9655 23.7937 22.9554C26.4378 23.8457 28.517 25.9648 29.3522 28.6337Z" fill="white"/>
</svg>
