<svg width="40" height="40" viewBox="0 0 40 40" fill="none" xmlns="http://www.w3.org/2000/svg">
<path d="M0 20C0 8.95431 8.95431 0 20 0C31.0457 0 40 8.95431 40 20C40 31.0457 31.0457 40 20 40C8.95431 40 0 31.0457 0 20Z" fill="#E5DED6"/>
<path d="M29.1382 29.1382C32.1026 26.7555 34 23.0993 34 19C34 11.8203 28.1797 6 21 6C16.9007 6 13.2445 7.89738 10.8618 10.8618C8.5 13.5 6 16.9007 6 21C6 28.1797 11.8203 34 19 34C23.0993 34 26 31.5 29.1382 29.1382Z" fill="#2A2620"/>
<path d="M32.75 19C32.75 25.4893 27.4893 30.75 21 30.75C14.5107 30.75 9.25 25.4893 9.25 19C9.25 12.5107 14.5107 7.25 21 7.25C27.4893 7.25 32.75 12.5107 32.75 19Z" fill="white"/>
<path d="M19.8272 22.0382V21.9579C19.8361 21.1058 19.9253 20.4277 20.0949 19.9235C20.2644 19.4194 20.5053 19.0112 20.8176 18.6989C21.1299 18.3866 21.5047 18.0988 21.9419 17.8356C22.2051 17.675 22.4416 17.4853 22.6513 17.2667C22.861 17.0437 23.026 16.7871 23.1465 16.4971C23.2714 16.2071 23.3339 15.8859 23.3339 15.5335C23.3339 15.0962 23.2313 14.717 23.026 14.3958C22.8208 14.0746 22.5464 13.827 22.2029 13.653C21.8594 13.479 21.4779 13.392 21.0585 13.392C20.6927 13.392 20.3402 13.4678 20.0012 13.6195C19.6621 13.7712 19.3788 14.0099 19.1513 14.3356C18.9237 14.6612 18.7921 15.0873 18.7564 15.6138H17.07C17.1057 14.8553 17.302 14.2062 17.6589 13.6663C18.0203 13.1265 18.4954 12.7138 19.0843 12.4283C19.6777 12.1428 20.3358 12 21.0585 12C21.8437 12 22.5263 12.1562 23.1063 12.4685C23.6908 12.7808 24.1414 13.2091 24.4582 13.7533C24.7794 14.2976 24.94 14.9178 24.94 15.6138C24.94 16.1045 24.8641 16.5484 24.7125 16.9455C24.5652 17.3426 24.3511 17.6973 24.07 18.0096C23.7934 18.3219 23.4588 18.5985 23.0662 18.8394C22.6736 19.0848 22.359 19.3435 22.1226 19.6157C21.8861 19.8834 21.7144 20.2024 21.6073 20.5727C21.5002 20.943 21.4422 21.4047 21.4333 21.9579V22.0382H19.8272ZM20.6838 26C20.3536 26 20.0703 25.8818 19.8339 25.6453C19.5974 25.4089 19.4792 25.1256 19.4792 24.7954C19.4792 24.4653 19.5974 24.182 19.8339 23.9455C20.0703 23.709 20.3536 23.5908 20.6838 23.5908C21.0139 23.5908 21.2972 23.709 21.5337 23.9455C21.7701 24.182 21.8884 24.4653 21.8884 24.7954C21.8884 25.014 21.8326 25.2148 21.7211 25.3977C21.614 25.5806 21.469 25.7279 21.2861 25.8394C21.1076 25.9465 20.9068 26 20.6838 26Z" fill="#2A2620"/>
</svg>
