<svg width="40" height="40" viewBox="0 0 40 40" fill="none" xmlns="http://www.w3.org/2000/svg">
<path d="M0 20C0 8.95431 8.95431 0 20 0C31.0457 0 40 8.95431 40 20C40 31.0457 31.0457 40 20 40C8.95431 40 0 31.0457 0 20Z" fill="#E5DED6"/>
<path fill-rule="evenodd" clip-rule="evenodd" d="M15.5013 9.73832C15.4619 9.52817 15.4413 9.31141 15.4413 9.08983C15.4413 8.01845 15.9228 7.05954 16.6813 6.41774L18.5643 4.53473C19.2061 3.77596 20.1652 3.29419 21.2368 3.29419C23.1692 3.29419 24.7357 4.86066 24.7357 6.793C24.7357 7.3278 24.6157 7.83457 24.4011 8.28787C27.916 9.57739 30.4239 12.9535 30.4239 16.9155V20.3606L33.3624 28.1965C33.5423 28.6762 33.33 29.1794 32.9284 29.4133L30.9927 31.349C30.8222 31.6401 30.5072 31.8444 30.1293 31.8444H24.3904C23.5945 33.4286 21.7052 34.5476 19.8944 34.5476C18.0836 34.5476 16.5341 33.4286 15.8997 31.8444H7.75091C7.0527 31.8444 6.56942 31.1471 6.81458 30.4933L9.75305 22.6574L9.75305 19.2124C9.75305 16.5501 10.8855 14.1523 12.6949 12.4744L14.497 10.6723C14.8079 10.3368 15.1437 10.0245 15.5013 9.73832ZM19.3229 5.61172C19.7192 4.97104 20.4282 4.54419 21.2368 4.54419C22.4788 4.54419 23.4857 5.55102 23.4857 6.793C23.4857 7.20919 23.3726 7.59898 23.1755 7.93332C22.8511 7.86363 22.5203 7.81107 22.1841 7.77664C21.8727 7.74474 21.5567 7.72839 21.2369 7.72839C20.5718 7.72839 19.9232 7.79907 19.2982 7.93332C19.1011 7.59898 18.988 7.20919 18.988 6.793C18.988 6.3597 19.1106 5.95501 19.3229 5.61172ZM10.4084 28.2977L13.1504 20.9857L29.3233 20.9857L32.0653 28.2977H10.4084ZM23.6299 9.3455C26.8439 10.3605 29.1739 13.3659 29.1739 16.9155V19.7357L13.2998 19.7357L13.2998 16.9155C13.2998 12.6904 16.6011 9.23641 20.7649 8.9922C20.921 8.98304 21.0784 8.97839 21.2369 8.97839C22.0708 8.97839 22.8747 9.10701 23.6299 9.3455ZM18.4868 29.5477C18.4868 31.0664 19.7181 32.2976 21.2368 32.2976C22.7556 32.2976 23.9868 31.0664 23.9868 29.5477H18.4868Z" fill="#2A2620"/>
<path d="M29.3233 20.9857L32.0653 28.2977H10.4084L13.1504 20.9857L29.3233 20.9857Z" fill="white"/>
<path d="M29.1739 19.7357V16.9155C29.1739 12.5319 25.6204 8.97839 21.2369 8.97839C21.0784 8.97839 20.921 8.98304 20.7649 8.9922C16.6011 9.23641 13.2998 12.6904 13.2998 16.9155L13.2998 19.7357L29.1739 19.7357Z" fill="white"/>
<path d="M21.2368 32.2976C19.7181 32.2976 18.4868 31.0664 18.4868 29.5477H23.9868C23.9868 31.0664 22.7556 32.2976 21.2368 32.2976Z" fill="white"/>
<path d="M18.988 6.793C18.988 7.20919 19.1011 7.59898 19.2982 7.93332C19.9232 7.79907 20.5718 7.72839 21.2369 7.72839C21.902 7.72839 22.5505 7.79907 23.1755 7.93332C23.3726 7.59898 23.4857 7.20919 23.4857 6.793C23.4857 5.55102 22.4788 4.54419 21.2368 4.54419C19.9949 4.54419 18.988 5.55102 18.988 6.793Z" fill="white"/>
</svg>
