<svg width="40" height="40" viewBox="0 0 40 40" fill="none" xmlns="http://www.w3.org/2000/svg">
<path d="M0 20C0 8.95431 8.95431 0 20 0C31.0457 0 40 8.95431 40 20C40 31.0457 31.0457 40 20 40C8.95431 40 0 31.0457 0 20Z" fill="#E5DED6"/>
<path d="M21 4.5H20.2856C19.0783 4.5 17.9204 4.97961 17.0667 5.83333L16.8971 6.00294C16.5788 6.3212 16.1471 6.5 15.6971 6.5C15.0082 6.5 14.4153 6.91039 14.1493 7.5H12.8284C12.298 7.5 11.7893 7.71071 11.4142 8.08579L9.58579 9.91421C9.21071 10.2893 9 10.798 9 11.3284V31.5C9 32.6046 9.89543 33.5 11 33.5H27.1716C27.702 33.5 28.2107 33.2893 28.5858 32.9142L30.4142 31.0858C30.7893 30.7107 31 30.202 31 29.6716V9.5C31 8.39543 30.1046 7.5 29 7.5H26.8507C26.5847 6.91039 25.9918 6.5 25.3029 6.5C24.8529 6.5 24.4212 6.3212 24.1029 6.00294L23.7314 5.63137C23.0181 4.91811 22.0546 4.51259 21.0472 4.50029L21 4.5Z" fill="#2A2620"/>
<path d="M18.7809 6.88683L19.1525 6.51525C19.6425 6.02527 20.3071 5.75 21 5.75C21.6929 5.75 22.3575 6.02527 22.8475 6.51525L23.2191 6.88683C23.7717 7.43951 24.5213 7.75 25.3029 7.75C25.5498 7.75 25.75 7.95015 25.75 8.19706V9.25H16.25V8.19706C16.25 7.95015 16.4502 7.75 16.6971 7.75C17.4787 7.75 18.2283 7.43951 18.7809 6.88683Z" fill="white"/>
<path d="M27 9V10.5H15V9H13C12.7239 9 12.5 9.22386 12.5 9.5V29.5C12.5 29.7761 12.7239 30 13 30H29C29.2761 30 29.5 29.7761 29.5 29.5V9.5C29.5 9.22386 29.2761 9 29 9H27Z" fill="white"/>
<path d="M21 14L22.7634 17.5729L26.7063 18.1459L23.8532 20.9271L24.5267 24.8541L21 23L17.4733 24.8541L18.1468 20.9271L15.2937 18.1459L19.2366 17.5729L21 14Z" fill="#2A2620"/>
</svg>
