<svg width="40" height="40" viewBox="0 0 40 40" fill="none" xmlns="http://www.w3.org/2000/svg">
<path d="M0 20C0 8.95431 8.95431 0 20 0C31.0457 0 40 8.95431 40 20C40 31.0457 31.0457 40 20 40C8.95431 40 0 31.0457 0 20Z" fill="#E5DED6"/>
<path fill-rule="evenodd" clip-rule="evenodd" d="M32.8052 9.05109C31.9506 9.05109 31.1795 9.40841 30.633 9.98181L28.7362 11.8787C28.7009 11.9123 28.6664 11.9468 28.6328 11.9821L28.6298 11.9852C28.1188 12.5232 27.8052 13.2505 27.8052 14.0511C27.8052 14.3212 27.8409 14.583 27.9078 14.832L27.0852 15.4701C26.5355 14.8459 25.7303 14.452 24.8331 14.452C23.64 14.452 22.6095 15.1486 22.1262 16.1572L18.3458 14.7376C18.4165 14.4822 18.4543 14.213 18.4543 13.935C18.4543 12.2781 17.1112 10.935 15.4543 10.935C14.7065 10.935 14.0226 11.2086 13.4972 11.6612V11.6597L13.486 11.671C13.3807 11.7626 13.2819 11.8614 13.1903 11.9666L11.4854 13.6715C10.8537 14.2215 10.4544 15.0316 10.4544 15.935C10.4544 16.0365 10.4595 16.1368 10.4693 16.2357C10.0744 16.0443 9.63114 15.937 9.16284 15.937C8.39251 15.937 7.69 16.2274 7.15875 16.7046V16.7007L7.11249 16.747C7.06443 16.792 7.01785 16.8386 6.97284 16.8867L5.11263 18.7469C4.5281 19.2943 4.16284 20.073 4.16284 20.937C4.16284 22.3412 5.12754 23.52 6.43033 23.8469V28.5354C6.43033 29.0877 6.87804 29.5354 7.43033 29.5354H30.5377C30.8316 29.5354 31.0959 29.4086 31.2789 29.2067L33.2091 27.2765C33.2334 27.2544 33.2567 27.2312 33.2787 27.2069L33.2984 27.1872H33.2961C33.4467 27.0121 33.5377 26.7844 33.5377 26.5354V15.2912C33.5917 15.1723 33.6383 15.0492 33.6766 14.9226C34.9085 14.5492 35.8052 13.4049 35.8052 12.0511C35.8052 10.3942 34.462 9.05109 32.8052 9.05109ZM31.3372 11.0981C31.6493 10.6183 32.1902 10.3011 32.8052 10.3011C33.7717 10.3011 34.5552 11.0846 34.5552 12.0511C34.5552 12.6661 34.2379 13.207 33.7582 13.5191C33.4839 13.6975 33.1567 13.8011 32.8052 13.8011C32.625 13.8011 32.4512 13.7739 32.2877 13.7233L32.2848 13.7224C32.086 13.6606 31.9024 13.5642 31.7409 13.4404C31.324 13.1205 31.0552 12.6172 31.0552 12.0511C31.0552 11.6996 31.1588 11.3723 31.3372 11.0981ZM23.3651 16.499C23.6772 16.0193 24.2181 15.702 24.8331 15.702C25.3286 15.702 25.7759 15.9079 26.0943 16.2388C26.397 16.5534 26.5831 16.981 26.5831 17.452C26.5831 18.4185 25.7996 19.202 24.8331 19.202C24.0109 19.202 23.3212 18.635 23.1335 17.8707C23.1006 17.7366 23.0831 17.5963 23.0831 17.452C23.0831 17.1005 23.1868 16.7732 23.3651 16.499ZM17.2043 13.935C17.2043 14.0584 17.1916 14.1789 17.1673 14.2951C17.0752 14.7354 16.8175 15.115 16.4624 15.3657M17.2043 13.935C17.2043 12.9685 16.4208 12.185 15.4543 12.185L17.2043 13.935ZM15.4543 12.185C14.8393 12.185 14.2984 12.5022 13.9864 12.982L15.4543 12.185ZM17.626 16.0048C17.2992 16.3475 16.8921 16.613 16.4349 16.7711C16.1276 16.8773 15.7977 16.935 15.4543 16.935C14.7202 16.935 14.0477 16.6713 13.5263 16.2335L11.8177 17.5388C12.0381 17.9563 12.1628 18.4321 12.1628 18.937C12.1628 20.4174 11.0906 21.6474 9.6803 21.8926V26.2854H32.2877V15.0066C31.6907 14.9028 31.1542 14.6225 30.7341 14.2215L27.7024 16.5733C27.7874 16.8512 27.8331 17.1463 27.8331 17.452C27.8331 19.1089 26.49 20.452 24.8331 20.452C23.1763 20.452 21.8331 19.1089 21.8331 17.452C21.8331 17.4289 21.8334 17.4057 21.8339 17.3827L17.761 15.8533C17.7177 15.9053 17.6726 15.9558 17.626 16.0048ZM7.69484 17.984C8.00693 17.5043 8.54784 17.187 9.16284 17.187C9.45192 17.187 9.72462 17.2571 9.96489 17.3812C10.3463 17.5783 10.646 17.9115 10.7997 18.3165L10.8067 18.3353C10.8753 18.5229 10.9128 18.7256 10.9128 18.937C10.9128 19.7234 10.3942 20.3886 9.6803 20.6092C9.51676 20.6598 9.34298 20.687 9.16284 20.687C8.19634 20.687 7.41284 19.9035 7.41284 18.937C7.41284 18.5855 7.51647 18.2582 7.69484 17.984ZM13.9864 12.982C13.808 13.2562 13.7043 13.5835 13.7043 13.935L13.9864 12.982ZM13.7043 13.935C13.7043 14.576 14.049 15.1366 14.5632 15.4414L13.7043 13.935ZM14.5632 15.4414C14.582 15.4525 14.601 15.4633 14.6202 15.4738L14.5632 15.4414ZM14.6202 15.4738C14.8682 15.6085 15.1523 15.685 15.4543 15.685L14.6202 15.4738ZM15.4543 15.685C15.8059 15.685 16.1332 15.5813 16.4074 15.403L15.4543 15.685Z" fill="#2A2620"/>
<path d="M34.5552 12.0511C34.5552 13.0176 33.7717 13.8011 32.8052 13.8011C32.625 13.8011 32.4512 13.7739 32.2877 13.7233L32.2848 13.7224C32.086 13.6606 31.9024 13.5642 31.7409 13.4404C31.324 13.1205 31.0552 12.6172 31.0552 12.0511C31.0552 11.0846 31.8387 10.3011 32.8052 10.3011C33.7717 10.3011 34.5552 11.0846 34.5552 12.0511Z" fill="white"/>
<path d="M26.5831 17.452C26.5831 18.4185 25.7996 19.202 24.8331 19.202C24.0109 19.202 23.3212 18.635 23.1335 17.8707C23.1006 17.7366 23.0831 17.5963 23.0831 17.452C23.0831 16.4855 23.8666 15.702 24.8331 15.702C25.7996 15.702 26.5831 16.4855 26.5831 17.452Z" fill="white"/>
<path d="M16.4624 15.3657C16.9112 15.0488 17.2043 14.5261 17.2043 13.935C17.2043 12.9685 16.4208 12.185 15.4543 12.185C14.4878 12.185 13.7043 12.9685 13.7043 13.935C13.7043 14.576 14.049 15.1366 14.5632 15.4414C14.582 15.4525 14.601 15.4633 14.6202 15.4738C14.8682 15.6085 15.1523 15.685 15.4543 15.685C15.8297 15.685 16.1774 15.5668 16.4624 15.3657Z" fill="white"/>
<path d="M9.6803 20.6092C9.51676 20.6598 9.34298 20.687 9.16284 20.687C8.19634 20.687 7.41284 19.9035 7.41284 18.937C7.41284 17.9705 8.19634 17.187 9.16284 17.187C9.91085 17.187 10.5492 17.6563 10.7997 18.3165C10.802 18.3228 10.8044 18.329 10.8067 18.3353C10.8753 18.5229 10.9128 18.7256 10.9128 18.937C10.9128 19.7234 10.3942 20.3886 9.6803 20.6092Z" fill="white"/>
<path d="M27.7024 16.5733L30.7341 14.2215C31.1542 14.6225 31.6907 14.9028 32.2877 15.0066V26.2854H9.6803V21.8926C11.0906 21.6474 12.1628 20.4174 12.1628 18.937C12.1628 18.4321 12.0381 17.9563 11.8177 17.5388L13.5263 16.2335C14.0477 16.6713 14.7202 16.935 15.4543 16.935C16.3817 16.935 17.2107 16.5143 17.761 15.8533L21.8339 17.3827C21.8334 17.4057 21.8331 17.4289 21.8331 17.452C21.8331 19.1089 23.1763 20.452 24.8331 20.452C26.49 20.452 27.8331 19.1089 27.8331 17.452C27.8331 17.1463 27.7874 16.8512 27.7024 16.5733Z" fill="white"/>
</svg>
