<svg width="40" height="40" viewBox="0 0 40 40" fill="none" xmlns="http://www.w3.org/2000/svg">
<path d="M0 20C0 8.95431 8.95431 0 20 0C31.0457 0 40 8.95431 40 20C40 31.0457 31.0457 40 20 40C8.95431 40 0 31.0457 0 20Z" fill="#E5DED6"/>
<path d="M32.339 16.937C32.3751 16.7923 32.4087 16.6498 32.4401 16.5094C33.2276 12.9878 32.6004 10.7566 32.294 9.9568C31.4942 9.65047 29.263 9.02323 25.7415 9.81071C25.6011 9.8421 25.4585 9.87577 25.3138 9.91183L32.339 16.937Z" fill="white"/>
<path d="M23.9421 10.3079C20.2911 11.5027 15.498 14.1711 9.69873 19.7705L22.4803 32.5521C28.0798 26.7529 30.7481 21.9598 31.943 18.3088L23.9421 10.3079Z" fill="white"/>
<path d="M13.7704 14.577C15.3936 13.3257 16.9252 12.3064 18.3612 11.4799C17.0137 10.4044 15.7726 9.95001 14.6217 9.95001C13.438 9.95001 12.1589 10.4307 10.7667 11.5733L13.7704 14.577Z" fill="white"/>
<path d="M27.6738 28.4805C28.8675 26.9319 29.85 25.4669 30.6555 24.0885C31.2204 25.0453 31.469 25.946 31.469 26.7974C31.469 27.9811 30.9884 29.2602 29.8457 30.6524L27.6738 28.4805Z" fill="white"/>
<path fill-rule="evenodd" clip-rule="evenodd" d="M25.515 16.7358C24.821 16.0417 23.6957 16.0417 23.0016 16.7358C22.3076 17.4298 22.3076 18.5551 23.0016 19.2492C23.6957 19.9432 24.821 19.9432 25.515 19.2492C26.2091 18.5551 26.2091 17.4298 25.515 16.7358ZM22.1177 15.8519C23.3 14.6697 25.2167 14.6697 26.3989 15.8519C27.5811 17.0341 27.5811 18.9508 26.3989 20.1331C25.2167 21.3153 23.3 21.3153 22.1177 20.1331C20.9355 18.9508 20.9355 17.0341 22.1177 15.8519Z" fill="#2A2620"/>
<path fill-rule="evenodd" clip-rule="evenodd" d="M32.9595 8.87805C33.1488 8.95949 33.2914 9.10208 33.3728 9.29138C33.8718 10.4512 35.3994 15.1819 31.3444 22.8512C33.3811 25.7744 33.1548 28.6976 30.6655 31.6207C30.4307 31.8965 30.0904 32.0133 29.7586 31.9787H26.7478C26.6732 31.9865 26.5977 31.9865 26.5226 31.9787H26.4918L26.495 31.9755C26.2571 31.9448 26.0252 31.8361 25.8414 31.6523L25.4101 31.221C24.7552 31.9647 24.0532 32.7252 23.3006 33.502C23.0245 33.787 22.632 33.8968 22.2674 33.8284L19.4234 33.9129C19.0486 34.0063 18.6346 33.9089 18.3431 33.6175L13.2459 28.5203L10.679 31.0872L9.79509 30.2033L12.362 27.6364L5.39674 20.6711C4.94986 20.2242 4.95919 19.489 5.41313 19.0493C6.85142 17.6561 8.23343 16.4358 9.55725 15.3682L6.53024 12.3412C6.08336 11.8943 6.08068 11.1634 6.56184 10.7537C8.30423 9.2699 10.0466 8.59015 11.789 8.71439L14.2189 8.71439C15.5933 8.61662 16.9677 9.01913 18.3421 9.92191C21.4439 8.61471 23.9652 8.2544 25.8525 8.2795L27.9766 8.21634C30.6317 8.02762 32.3268 8.60587 32.9595 8.87805ZM22.4803 32.5521C23.2104 31.796 23.8907 31.0569 24.5244 30.3353C26.3875 28.2135 27.8478 26.2422 28.9874 24.429C29.3025 23.9275 29.5932 23.4381 29.861 22.961C30.0824 22.5665 30.2883 22.1804 30.4796 21.8028C31.1178 20.5427 31.5935 19.3769 31.943 18.3088L23.9421 10.3079C20.2911 11.5027 15.498 14.1711 9.69873 19.7705L22.4803 32.5521ZM25.3138 9.91183L32.339 16.937C32.3416 16.9266 32.3442 16.9162 32.3468 16.9057C32.3799 16.7718 32.411 16.6396 32.4401 16.5094C32.4894 16.2893 32.5331 16.0742 32.5716 15.8643C33.1505 12.7145 32.5812 10.7067 32.2941 9.95681C32.2446 9.93787 32.1897 9.9177 32.1293 9.89671C31.7067 9.74981 31.0175 9.56289 30.0733 9.47671C28.971 9.3761 27.521 9.41278 25.7415 9.81071C25.6011 9.8421 25.4585 9.87577 25.3138 9.91183ZM30.6556 24.0886C31.2204 25.0453 31.4692 25.946 31.4692 26.7974C31.4692 27.9811 30.9885 29.2602 29.8458 30.6524L27.6738 28.4805C28.8675 26.9319 29.8501 25.4669 30.6556 24.0886ZM18.3612 11.4799C16.9252 12.3064 15.3936 13.3257 13.7704 14.577L10.7667 11.5733C12.1589 10.4307 13.438 9.95001 14.6217 9.95001C15.7726 9.95001 17.0137 10.4044 18.3612 11.4799Z" fill="#2A2620"/>
<path d="M15.0984 31.9711L11.5629 35.5066L12.4468 36.3905L15.9823 32.855L15.0984 31.9711Z" fill="#2A2620"/>
<path d="M4.49182 28.4356L8.02736 24.9L8.91124 25.7839L5.3757 29.3194L4.49182 28.4356Z" fill="#2A2620"/>
</svg>
