<svg width="40" height="40" viewBox="0 0 40 40" fill="none" xmlns="http://www.w3.org/2000/svg">
<path d="M0 20C0 8.95431 8.95431 0 20 0C31.0457 0 40 8.95431 40 20C40 31.0457 31.0457 40 20 40C8.95431 40 0 31.0457 0 20Z" fill="#E5DED6"/>
<path fill-rule="evenodd" clip-rule="evenodd" d="M6.67531 16.1982L4.8822 17.922C4.30408 18.3651 3.94934 19.0591 3.94934 19.8126V20.5216C3.94934 21.5068 4.55585 22.3903 5.47521 22.7444L13.1007 25.6814C14.254 26.1256 15.4714 25.6123 16.0281 24.6391L15.0015 29.0868C14.6669 30.5367 15.7681 31.9211 17.2562 31.9211C17.9001 31.9211 18.493 31.6555 18.9177 31.2178L18.9178 31.2224L20.8614 29.1652C21.2001 28.8644 21.4491 28.4603 21.5568 27.9938L22.4308 24.2069C22.8393 25.4507 24.2365 26.1875 25.5505 25.6814L33.176 22.7444C33.5957 22.5828 33.9503 22.3107 34.2117 21.969L36.0398 20.0814C36.4815 19.6645 36.7459 19.0767 36.7459 18.4446V17.655C36.7459 16.7244 36.173 15.8899 35.3046 15.5554L27.5618 12.5732C26.5623 12.1883 25.5119 12.5646 24.9392 13.3392L25.3567 11.5305C25.6807 10.1265 24.6144 8.78601 23.1735 8.78601C22.516 8.78601 21.9134 9.07194 21.4989 9.5378L19.428 11.4967L19.4308 11.4968C19.1263 11.7971 18.903 12.1834 18.8014 12.6235L18.3743 14.474C18.2481 13.0038 16.7353 12.0297 15.3241 12.5732L7.58134 15.5554C7.22227 15.6937 6.91372 15.9175 6.67531 16.1982ZM17.3022 19.119L17.9257 16.4176C17.8391 16.5319 17.7416 16.6379 17.6343 16.7341L15.8774 18.5879L16.8377 18.9046C17.0027 18.9591 17.1582 19.0314 17.3022 19.119ZM14.5187 19.456L12.3629 20.1671L14.703 20.939C15.4233 21.1766 15.9711 21.7353 16.2089 22.4248C16.3325 22.4154 16.4516 22.3827 16.5609 22.3307L16.9808 20.5114C16.8599 20.3179 16.6734 20.1667 16.4461 20.0917L14.5187 19.456ZM16.2067 16.0869L16.4461 16.0079C16.8559 15.8727 17.1328 15.4898 17.1328 15.0582V14.6729C17.1328 13.9709 16.4285 13.4874 15.7734 13.7397L13.8092 14.4962C14.8696 14.4281 15.8585 15.0886 16.2067 16.0869ZM19.9306 28.309C20.1314 28.1724 20.281 27.9628 20.3388 27.7126L22.5441 18.158C22.4741 18.0114 22.4189 17.857 22.3799 17.6971L19.9306 28.309ZM23.283 14.9568C23.1603 15.0469 23.0461 15.1487 22.9423 15.2607L23.3108 13.6643C23.5565 12.5994 23.0279 11.57 22.1403 11.0982L22.2082 10.8038C22.312 10.3544 22.7122 10.036 23.1735 10.036C23.8105 10.036 24.2819 10.6287 24.1387 11.2494L23.283 14.9568ZM26.2398 20.1831C26.2515 20.1761 26.2633 20.1694 26.2753 20.1628L26.2883 20.1671L26.2398 20.1831ZM34.6738 19.4476C34.5448 18.6142 33.9801 17.8995 33.176 17.5898L25.7531 14.7308V14.6729C25.7531 13.9709 26.4574 13.4874 27.1125 13.7397L34.8553 16.7219C35.2412 16.8705 35.4959 17.2414 35.4959 17.655V18.4446C35.4959 18.8582 35.2412 19.2291 34.8553 19.3778L34.6738 19.4476ZM23.5778 19.2373L23.0733 21.4231L24.9197 19.7371C24.9238 19.7313 24.928 19.7255 24.9321 19.7198L23.9482 19.3952C23.8189 19.3526 23.6952 19.2996 23.5778 19.2373Z" fill="#2A2620"/>
<path d="M15.7734 22.3599C16.4285 22.6122 17.1328 22.1287 17.1328 21.4267V21.0414C17.1328 20.6098 16.8559 20.2269 16.4461 20.0917L13.4051 19.0886L10.5859 18.1061C10.5619 18.0978 10.5458 18.0752 10.5458 18.0498C10.5458 18.0244 10.5619 18.0018 10.5859 17.9934L13.4051 17.0109L16.4461 16.0078C16.8559 15.8726 17.1328 15.4898 17.1328 15.0582V14.6728C17.1328 13.9708 16.4285 13.4873 15.7734 13.7396L8.0306 16.7218C7.64463 16.8705 7.39001 17.2414 7.39001 17.655V18.4445C7.39001 18.8581 7.64463 19.2291 8.0306 19.3777L15.7734 22.3599ZM19.3735 28.4804C19.8348 28.4804 20.235 28.162 20.3388 27.7126L24.1387 11.2493C24.2819 10.6286 23.8105 10.036 23.1734 10.036C22.7122 10.036 22.312 10.3543 22.2082 10.8038L18.4083 27.267C18.2651 27.8878 18.7365 28.4804 19.3735 28.4804ZM25.7531 21.4267C25.7531 22.1287 26.4574 22.6122 27.1125 22.3599L34.8553 19.3777C35.2412 19.2291 35.4958 18.8581 35.4958 18.4445V17.655C35.4958 17.2414 35.2412 16.8705 34.8553 16.7218L27.1125 13.7396C26.4574 13.4873 25.7531 13.9708 25.7531 14.6728V15.0582C25.7531 15.4898 26.0299 15.8726 26.4398 16.0078L29.4807 17.0109L32.3 17.9934C32.324 18.0018 32.34 18.0244 32.34 18.0498C32.34 18.0752 32.324 18.0978 32.3 18.1061L29.4807 19.0886L26.4398 20.0917C26.0299 20.2269 25.7531 20.6098 25.7531 21.0414V21.4267Z" fill="white"/>
</svg>
