<svg width="40" height="40" viewBox="0 0 40 40" fill="none" xmlns="http://www.w3.org/2000/svg">
<path d="M0 20C0 8.95431 8.95431 0 20 0C31.0457 0 40 8.95431 40 20C40 31.0457 31.0457 40 20 40C8.95431 40 0 31.0457 0 20Z" fill="#E5DED6"/>
<path d="M19.7739 6C19.0611 6 18.5389 6.39167 18.0432 6.89091L17.0568 7.88523L15.9352 9.03068L14.6405 8.52792C13.9787 8.2632 13.2228 8.41835 12.7188 8.92236L10.9589 10.6823C10.9124 10.7288 10.8688 10.7775 10.8282 10.8281C10.7777 10.8686 10.729 10.9122 10.6824 10.9587L8.92254 12.7186C8.41852 13.2226 8.26338 13.9785 8.52809 14.6403L9.11243 16.1012C8.46293 16.3813 8.25909 16.5318 7.55909 17.2477L6.525 18.3295C6 18.8545 6 19.0608 6 19.7736V22.2625C6 22.9753 6.42478 23.6195 7.07993 23.9003L9.19423 24.8064C9.25351 24.9595 9.31627 25.1108 9.38241 25.2603L8.52809 27.396C8.26338 28.0578 8.41853 28.8137 8.92253 29.3177L10.6824 31.0776C11.1865 31.5816 11.9423 31.7368 12.6041 31.4721L14.74 30.6177C14.8894 30.6838 15.0406 30.7465 15.1936 30.8058L16.0997 32.9201C16.3805 33.5752 17.0247 34 17.7375 34H20.2264C20.9392 34 21.4 33.6659 21.9409 33.0932L22.6091 32.3932L24.1045 30.9614L25.3598 31.472C26.0216 31.7367 26.7775 31.5816 27.2815 31.0776L29.0414 29.3177C29.0879 29.2711 29.1315 29.2224 29.1721 29.1719C29.2226 29.1313 29.2713 29.0878 29.3179 29.0412L31.0778 27.2813C31.5818 26.7773 31.7369 26.0214 31.4722 25.3596L30.9852 24.0966L32.0034 23.0705L32.942 22.1557C32.942 22.1557 33.4475 21.6592 33.6341 21.392C33.8388 21.0989 34.0001 20.599 34.0001 20.2261V17.7373C34.0001 17.0245 33.5753 16.3803 32.9202 16.0995L30.806 15.1934C30.7468 15.0404 30.684 14.8891 30.6179 14.7397L31.4722 12.604C31.7369 11.9422 31.5818 11.1863 31.0778 10.6823L29.3179 8.92241C28.8138 8.4184 28.058 8.26325 27.3962 8.52797L25.2606 9.3822C25.111 9.31603 24.9597 9.25324 24.8065 9.19393L23.9005 7.07993C23.6197 6.42478 22.9755 6 22.2627 6H19.7739Z" fill="#2A2620"/>
<path d="M9.66335 17.3759L12.0796 16.3404C12.2407 16.2713 12.3654 16.1378 12.4233 15.9724C12.536 15.6505 12.6662 15.3369 12.8129 15.0327C12.889 14.8747 12.8953 14.692 12.8302 14.5292L11.8538 12.0883C11.7954 11.9422 11.8296 11.7754 11.9409 11.6642L13.7008 9.90431C13.812 9.7931 13.9788 9.75886 14.1248 9.81727L16.5657 10.7936C16.7285 10.8588 16.9112 10.8525 17.0692 10.7763C17.3735 10.6296 17.6872 10.4993 18.0092 10.3866C18.1746 10.3287 18.3081 10.204 18.3771 10.0429L19.4125 7.62697C19.4745 7.48241 19.6166 7.38867 19.7739 7.38867H22.2628C22.4201 7.38867 22.5622 7.48241 22.6242 7.62697L23.6596 10.0429C23.7286 10.204 23.8621 10.3287 24.0275 10.3866C24.3495 10.4993 24.6633 10.6296 24.9676 10.7763C25.1255 10.8525 25.3083 10.8588 25.4711 10.7937L27.9119 9.81732C28.058 9.75891 28.2248 9.79314 28.336 9.90436L30.0959 11.6643C30.2071 11.7755 30.2413 11.9423 30.1829 12.0883L29.2066 14.5292C29.1414 14.6921 29.1477 14.8748 29.2239 15.0328C29.3705 15.337 29.5008 15.6506 29.6135 15.9725C29.6714 16.1379 29.7961 16.2714 29.9571 16.3404L32.3732 17.3759C32.5178 17.4379 32.6115 17.58 32.6115 17.7373V20.2262C32.6115 20.3835 32.5178 20.5256 32.3732 20.5876L29.9571 21.623C29.7961 21.6921 29.6714 21.8256 29.6135 21.991C29.5007 22.3129 29.3705 22.6266 29.2238 22.9308C29.1476 23.0888 29.1414 23.2715 29.2065 23.4343L30.1829 25.8754C30.2413 26.0214 30.2071 26.1882 30.0959 26.2994L28.336 28.0593C28.2248 28.1706 28.058 28.2048 27.9119 28.1464L25.4708 27.1699C25.308 27.1048 25.1253 27.1111 24.9673 27.1872C24.6631 27.3339 24.3495 27.4641 24.0277 27.5768C23.8622 27.6347 23.7288 27.7594 23.6597 27.9205L22.6242 30.3367C22.5622 30.4813 22.4201 30.575 22.2628 30.575H19.7739C19.6166 30.575 19.4745 30.4813 19.4125 30.3367L18.377 27.9205C18.308 27.7594 18.1745 27.6347 18.009 27.5768C17.6872 27.4641 17.3736 27.3339 17.0695 27.1873C16.9115 27.1111 16.7288 27.1048 16.566 27.17L14.1248 28.1464C13.9788 28.2048 13.812 28.1706 13.7008 28.0594L11.9409 26.2995C11.8296 26.1883 11.7954 26.0215 11.8538 25.8754L12.8302 23.4344C12.8954 23.2716 12.8891 23.0888 12.8129 22.9309C12.6662 22.6266 12.536 22.313 12.4233 21.991C12.3654 21.8256 12.2407 21.6921 12.0796 21.6231L9.66335 20.5876C9.51878 20.5256 9.42505 20.3835 9.42505 20.2262V17.7373C9.42505 17.58 9.51878 17.4379 9.66335 17.3759Z" fill="white"/>
<path d="M16.3204 15.5341V16.4363H17.5704V15.5341H27.1272V14.2841H17.5704V13.3818H16.3204V14.2841H14.9091V15.5341H16.3204Z" fill="#2A2620"/>
<path d="M16.3204 23.6795V24.5818H17.5704V23.6795H27.1272V22.4295H17.5704V21.5273H16.3204V22.4295H14.9091V23.6795H16.3204Z" fill="#2A2620"/>
<path d="M24.2114 19.6068V20.5091H25.4614V19.6068H27.1272V18.3568H25.4614V17.4546H24.2114V18.3568H14.9091V19.6068H24.2114Z" fill="#2A2620"/>
</svg>
