<svg width="40" height="40" viewBox="0 0 40 40" fill="none" xmlns="http://www.w3.org/2000/svg">
<path d="M0 20C0 8.95431 8.95431 0 20 0C31.0457 0 40 8.95431 40 20C40 31.0457 31.0457 40 20 40C8.95431 40 0 31.0457 0 20Z" fill="#E5DED6"/>
<path fill-rule="evenodd" clip-rule="evenodd" d="M22.1981 22.1146C22.3337 21.9535 22.5096 21.8271 22.7119 21.7505L28.7428 19.4677L30.6233 18.965C31.5302 18.7226 31.541 17.4395 30.6382 17.1819L22.7617 14.9345C22.4976 14.8591 22.2668 14.7081 22.0939 14.5058L19.3534 4.91432C19.1399 4.16691 18.2165 3.90258 17.6398 4.42379L15.8458 6.04521C15.7048 6.17267 15.601 6.33604 15.5455 6.51788L13.0977 14.5434C12.9748 14.9464 12.6572 15.2603 12.2528 15.3786L3.35617 17.9794C2.17312 18.3253 2.15171 19.9935 3.32547 20.3696L11.7955 23.0837C12.1946 23.2116 12.503 23.5309 12.617 23.9341L15.4338 33.9001C15.6457 34.6499 16.5717 34.9158 17.1491 34.3928L18.9392 32.7714C19.0862 32.6383 19.1924 32.4663 19.2457 32.2754L21.3536 24.7219L22.1981 22.1146ZM24.8227 16.8224L22.3209 16.6606C21.931 16.6354 21.7184 16.2299 21.8638 15.9068C22.0374 16.0033 22.2233 16.0807 22.4187 16.1365L24.8227 16.8224Z" fill="#2A2620"/>
<path d="M16.5084 14.2392L18.3468 6.46381L20.6166 14.3392C20.8673 15.2089 21.5483 15.8881 22.4187 16.1365L29.1641 18.0611L22.9161 19.7312C22.056 19.9611 21.371 20.6114 21.0967 21.4584L18.3278 30.0076L15.9523 21.6032C15.7043 20.7255 15.0184 20.0395 14.1408 19.7913L8.0686 18.0736L14.6844 16.1565C15.5936 15.893 16.2906 15.1604 16.5084 14.2392Z" fill="white"/>
<path d="M30.4387 23.7601C30.351 23.5997 30.1828 23.5 30 23.5C29.8172 23.5 29.649 23.5997 29.5613 23.7601L28.2174 26.2174L25.7601 27.5613C25.5997 27.649 25.5 27.8172 25.5 28C25.5 28.1828 25.5997 28.351 25.7601 28.4387L28.2174 29.7826L29.5613 32.2399C29.649 32.4003 29.8172 32.5 30 32.5C30.1828 32.5 30.351 32.4003 30.4387 32.2399L31.7826 29.7826L34.2399 28.4387C34.4003 28.351 34.5 28.1828 34.5 28C34.5 27.8172 34.4003 27.649 34.2399 27.5613L31.7826 26.2174L30.4387 23.7601Z" fill="#2A2620"/>
<path d="M28.4387 5.76008C28.351 5.59972 28.1828 5.5 28 5.5C27.8172 5.5 27.649 5.59972 27.5613 5.76008L26.5709 7.57093L24.7601 8.56132C24.5997 8.64902 24.5 8.81723 24.5 9C24.5 9.18277 24.5997 9.35098 24.7601 9.43868L26.5709 10.4291L27.5613 12.2399C27.649 12.4003 27.8172 12.5 28 12.5C28.1828 12.5 28.351 12.4003 28.4387 12.2399L29.4291 10.4291L31.2399 9.43868C31.4003 9.35098 31.5 9.18277 31.5 9C31.5 8.81723 31.4003 8.64902 31.2399 8.56132L29.4291 7.57093L28.4387 5.76008Z" fill="#2A2620"/>
</svg>
