<svg width="40" height="40" viewBox="0 0 40 40" fill="none" xmlns="http://www.w3.org/2000/svg">
<path d="M0 20C0 8.95431 8.95431 0 20 0C31.0457 0 40 8.95431 40 20C40 31.0457 31.0457 40 20 40C8.95431 40 0 31.0457 0 20Z" fill="#E5DED6"/>
<path d="M23.4322 6.73264C22.6833 5.21518 21.018 5.21888 19.7055 6.44022L18.7029 7.44283C18.7029 7.44283 17.992 8.04439 17.4372 9.06597L15.6327 12.7222L10.5001 13.468C9.33104 13.6379 9.11436 14.3152 8.36696 15.0626L7.49652 15.9422C6.84481 16.5574 5.65993 17.8061 7.03522 19.2838L11.5606 23.695C11.6294 23.762 11.6607 23.8585 11.6445 23.9531L10.5762 30.1818C10.2901 31.8497 12.0407 33.1215 13.5386 32.3341L19.1323 29.3933C19.2172 29.3486 19.3188 29.3486 19.4037 29.3933L24.9974 32.3341C27.0154 33.073 28.0857 31.5029 28.8383 30.6485C29.4809 29.9191 30.5393 29.284 30.2931 27.8485L29.2248 21.6198C29.2177 21.5784 29.2197 21.5367 29.2299 21.4973L31.5008 19.2838C31.6059 19.1813 31.6969 19.0722 31.7743 18.9582L33.8341 16.9504C35.0459 15.7693 34.3772 13.7113 32.7026 13.468L26.4486 12.5592C26.3536 12.5454 26.2715 12.4858 26.229 12.3997L23.4322 6.73264Z" fill="#2A2620"/>
<path d="M21.265 7.09362C21.4026 6.8149 21.8 6.8149 21.9376 7.09362L24.9227 13.1421C25.1594 13.6217 25.6169 13.9541 26.1462 14.031L32.8211 15.0009C33.1286 15.0456 33.2514 15.4236 33.0289 15.6406L28.1989 20.3486C27.8159 20.7219 27.6411 21.2598 27.7316 21.787L28.8718 28.4349C28.9243 28.7412 28.6028 28.9748 28.3277 28.8302L22.3575 25.6915C21.8841 25.4426 21.3185 25.4426 20.8451 25.6915L14.8749 28.8302C14.5998 28.9748 14.2783 28.7412 14.3308 28.4349L15.471 21.787C15.5614 21.2598 15.3867 20.722 15.0037 20.3486L10.1737 15.6406C9.95114 15.4236 10.074 15.0456 10.3815 15.0009L17.0564 14.031C17.5857 13.9541 18.0432 13.6217 18.2799 13.1421L21.265 7.09362Z" fill="white"/>
</svg>
