<svg width="40" height="40" viewBox="0 0 40 40" fill="none" xmlns="http://www.w3.org/2000/svg">
<path d="M0 20C0 8.95431 8.95431 0 20 0C31.0457 0 40 8.95431 40 20C40 31.0457 31.0457 40 20 40C8.95431 40 0 31.0457 0 20Z" fill="#E5DED6"/>
<path d="M28.9917 28.4486C28.9858 28.454 28.98 28.4595 28.9743 28.4651C28.9655 28.4737 28.9569 28.4826 28.9486 28.4917C26.4125 31.2428 22.8374 33.25 19 33.25C12.2345 33.25 6.75 27.7655 6.75 21C6.75 17.1563 8.12344 14.9234 10.5762 11.9801C12.1286 10.1173 13.9593 8.72336 15.9287 7.84552L15.9287 7.84554L15.9338 7.84318C17.4769 7.14132 19.1917 6.75 21 6.75C27.7655 6.75 33.25 12.2345 33.25 19C33.25 22.868 31.7163 25.9369 28.9917 28.4486Z" fill="#2A2620" stroke="#2A2620" stroke-width="1.5" stroke-linecap="round" stroke-linejoin="round"/>
<path d="M32.75 19C32.75 25.4893 27.4893 30.75 21 30.75C14.5107 30.75 9.25 25.4893 9.25 19C9.25 12.5107 14.5107 7.25 21 7.25C27.4893 7.25 32.75 12.5107 32.75 19Z" fill="white"/>
<path fill-rule="evenodd" clip-rule="evenodd" d="M27.6286 13.9035L19.216 24.391C19.1049 24.5295 18.9401 24.6143 18.7627 24.624C18.5854 24.6337 18.4123 24.5676 18.2867 24.4421L14.3661 20.5251L15.2496 19.6409L18.6771 23.0651L26.6535 13.1213L27.6286 13.9035Z" fill="#2A2620"/>
</svg>
