<svg width="40" height="40" viewBox="0 0 40 40" fill="none" xmlns="http://www.w3.org/2000/svg">
<path d="M0 20C0 8.95431 8.95431 0 20 0C31.0457 0 40 8.95431 40 20C40 31.0457 31.0457 40 20 40C8.95431 40 0 31.0457 0 20Z" fill="#E5DED6"/>
<path d="M21 6C28.1797 6 34 11.8203 34 19C34 23.0993 32.3618 26.3618 29.5 29C26.8618 31.8618 23.0993 34 19 34C11.8203 34 6 28.1797 6 21C6 16.9007 7.5 14.5 10 11.5C11.6203 9.55567 13.5415 8.08842 15.6233 7.16049C17.2619 6.41516 19.0825 6 21 6Z" fill="#2A2620"/>
<path fill-rule="evenodd" clip-rule="evenodd" d="M29.5 29C32.3618 26.3618 34 23.0993 34 19C34 11.8203 28.1797 6 21 6C19.0825 6 17.2619 6.41516 15.6233 7.16049C13.5415 8.08842 11.6203 9.55567 10 11.5C7.5 14.5 6 16.9007 6 21C6 28.1797 11.8203 34 19 34C23.0993 34 26.8618 31.8618 29.5 29Z" fill="#2A2620"/>
<path d="M32.75 19C32.75 25.4893 27.4893 30.75 21 30.75C14.5107 30.75 9.25 25.4893 9.25 19C9.25 12.5107 14.5107 7.25 21 7.25C27.4893 7.25 32.75 12.5107 32.75 19Z" fill="white"/>
<path fill-rule="evenodd" clip-rule="evenodd" d="M27.6286 13.9035L19.216 24.391C19.1049 24.5295 18.9401 24.6143 18.7627 24.624C18.5854 24.6337 18.4123 24.5676 18.2867 24.4421L14.3661 20.5251L15.2496 19.6409L18.6771 23.0651L26.6535 13.1213L27.6286 13.9035Z" fill="#2A2620"/>
</svg>
