<svg width="40" height="40" viewBox="0 0 40 40" fill="none" xmlns="http://www.w3.org/2000/svg">
<path d="M0 20C0 8.95431 8.95431 0 20 0C31.0457 0 40 8.95431 40 20C40 31.0457 31.0457 40 20 40C8.95431 40 0 31.0457 0 20Z" fill="#E5DED6"/>
<path d="M34 19C34 23.0993 32.3618 26.3618 29.5 29C26.8618 31.8618 23.0993 34 19 34C11.8203 34 6 28.1797 6 21C6 16.9007 7.5 14.5 10 11.5C12.9511 7.95867 16.9007 6 21 6C28.1797 6 34 11.8203 34 19Z" fill="#2A2620"/>
<path d="M24.733 15.766L19.3146 17.3142L23.1845 21.1846L24.733 15.766Z" fill="white"/>
<path fill-rule="evenodd" clip-rule="evenodd" d="M20.375 7.26636V9.97836H21.625V7.26636C27.7927 7.5896 32.7006 12.6691 32.7496 18.9057H30.0217V20.1557H32.6939C32.1333 25.8982 27.4388 30.429 21.625 30.7337V28.0217H20.375V30.7337C14.5612 30.429 9.86673 25.8982 9.30611 20.1557H11.9783V18.9057H9.25037C9.29939 12.6691 14.2073 7.5896 20.375 7.26636ZM26.553 13.946L18.3034 16.303L15.9464 24.5526L24.196 22.1956L26.553 13.946Z" fill="white"/>
</svg>
