<svg width="40" height="40" viewBox="0 0 40 40" fill="none" xmlns="http://www.w3.org/2000/svg">
<path d="M0 20C0 8.95431 8.95431 0 20 0C31.0457 0 40 8.95431 40 20C40 31.0457 31.0457 40 20 40C8.95431 40 0 31.0457 0 20Z" fill="#E5DED6"/>
<path d="M11.4142 7.58579C11.7893 7.21071 12.298 7 12.8284 7H29C30.1046 7 31 7.89543 31 9V29.1716C31 29.702 30.7893 30.2107 30.4142 30.5858L28.5858 32.4142C28.2107 32.7893 27.702 33 27.1716 33H11C9.89543 33 9 32.1046 9 31V10.8284C9 10.298 9.21071 9.78929 9.58579 9.41421L11.4142 7.58579Z" fill="#2A2620"/>
<path d="M11 9C11 7.89543 11.8954 7 13 7H29C30.1046 7 31 7.89543 31 9V29C31 30.1046 30.1046 31 29 31H13C11.8954 31 11 30.1046 11 29V9Z" fill="white"/>
<path fill-rule="evenodd" clip-rule="evenodd" d="M29 8.25H13C12.5858 8.25 12.25 8.58579 12.25 9V13.3643H29.75V9C29.75 8.58579 29.4142 8.25 29 8.25ZM12.25 29V14.6143H17.5831L17.5831 29.75H13C12.5858 29.75 12.25 29.4142 12.25 29ZM18.8331 29.75H29C29.4142 29.75 29.75 29.4142 29.75 29V14.6143H18.8331L18.8331 29.75ZM13 7C11.8954 7 11 7.89543 11 9V29C11 30.1046 11.8954 31 13 31H29C30.1046 31 31 30.1046 31 29V9C31 7.89543 30.1046 7 29 7H13Z" fill="#2A2620"/>
</svg>
