<svg width="40" height="40" viewBox="0 0 40 40" fill="none" xmlns="http://www.w3.org/2000/svg">
<path d="M0 20C0 8.95431 8.95431 0 20 0C31.0457 0 40 8.95431 40 20C40 31.0457 31.0457 40 20 40C8.95431 40 0 31.0457 0 20Z" fill="#E5DED6"/>
<path d="M12.8284 7C12.298 7 11.7893 7.21071 11.4142 7.58579L9.58579 9.41421C9.21071 9.78929 9 10.298 9 10.8284V31C9 32.1046 9.89543 33 11 33H27.1716C27.702 33 28.2107 32.7893 28.5858 32.4142L30.4142 30.5858C30.7893 30.2107 31 29.702 31 29.1716V9C31 7.89543 30.1046 7 29 7H12.8284Z" fill="#2A2620"/>
<path fill-rule="evenodd" clip-rule="evenodd" d="M13 8.25H29C29.4142 8.25 29.75 8.58579 29.75 9V29C29.75 29.4142 29.4142 29.75 29 29.75H13C12.5858 29.75 12.25 29.4142 12.25 29V9C12.25 8.58579 12.5858 8.25 13 8.25ZM27 12.625H15V11.375H27V12.625ZM15 16.625H27V15.375H15V16.625ZM27 20.625H15V19.375H27V20.625ZM15 24.625H22V23.375H15V24.625Z" fill="white"/>
</svg>
