<svg width="40" height="40" viewBox="0 0 40 40" fill="none" xmlns="http://www.w3.org/2000/svg">
<path d="M0 20C0 8.95431 8.95431 0 20 0C31.0457 0 40 8.95431 40 20C40 31.0457 31.0457 40 20 40C8.95431 40 0 31.0457 0 20Z" fill="#E5DED6"/>
<path d="M31.1729 25.9426H11.1523L10.6387 23.7168H31.6866L31.1729 25.9426Z" fill="white"/>
<path d="M31.975 22.4668H10.3502L8.46863 14.3132L12.4363 16.1079C13.2985 16.4978 14.3126 16.3067 14.9736 15.6295L21.1563 9.2959L27.2427 15.619C27.8997 16.3016 28.9139 16.4995 29.7793 16.114L33.8607 14.2958L31.975 22.4668Z" fill="white"/>
<path fill-rule="evenodd" clip-rule="evenodd" d="M21.878 8.24328L28.1137 14.7216L33.9392 12.7125C34.6819 12.4564 35.4163 13.1173 35.2396 13.8827L32.3492 26.408C32.3425 26.4368 32.3346 26.4652 32.3256 26.493C32.2567 26.7123 32.1161 26.8958 31.9337 27.0198L29.8705 29.083C29.687 29.3385 29.388 29.4999 29.058 29.4999H8.63967C8.17401 29.4999 7.76998 29.1785 7.66528 28.7248L4.77658 16.2071C4.67363 15.7609 4.8801 15.3506 5.21713 15.1363L7.28218 13.1547C7.48831 12.9569 7.76281 12.8616 8.03523 12.878C8.19376 12.8659 8.36015 12.8923 8.52352 12.9662L12.8587 14.9271C12.94 14.8871 13.0166 14.8355 13.0862 14.7728L20.3248 8.24834C20.4541 8.13184 20.6044 8.05573 20.7612 8.01835C21.132 7.85845 21.58 7.93369 21.878 8.24328ZM11.1523 25.9426H31.1729L31.6865 23.7168H10.6387L11.1523 25.9426ZM10.3502 22.4668L8.46865 14.3133L12.4363 16.1079C13.2985 16.4979 14.3126 16.3067 14.9736 15.6296L21.1563 9.29595L27.2426 15.6191C27.8996 16.3017 28.9139 16.4996 29.7793 16.114L33.8606 14.2958L31.975 22.4668H10.3502Z" fill="#2A2620"/>
<rect x="18.2692" y="16.7706" width="4" height="4" transform="rotate(-45 18.2692 16.7706)" fill="#2A2620"/>
</svg>
