<svg width="40" height="40" viewBox="0 0 40 40" fill="none" xmlns="http://www.w3.org/2000/svg">
<path d="M0 20C0 8.95431 8.95431 0 20 0V0C31.0457 0 40 8.95431 40 20V20C40 31.0457 31.0457 40 20 40V40C8.95431 40 0 31.0457 0 20V20Z" fill="#E5DED6"/>
<path fill-rule="evenodd" clip-rule="evenodd" d="M14.2902 14.9417C14.3684 14.0476 15.1566 13.3863 16.0507 13.4645L27.5069 14.4668C28.401 14.545 29.0623 15.3332 28.9841 16.2272L27.5896 32.1664C27.5114 33.0604 26.7232 33.7218 25.8292 33.6435L14.3729 32.6413C13.4789 32.563 12.8175 31.7749 12.8957 30.8808L14.2902 14.9417Z" fill="#2A2620"/>
<path d="M10 9C10 8.44772 10.4477 8 11 8H22.5C23.0523 8 23.5 8.44772 23.5 9V24.5C23.5 25.0523 23.0523 25.5 22.5 25.5H11C10.4477 25.5 10 25.0523 10 24.5V9Z" fill="#2A2620"/>
<path d="M16.9128 12.9962C16.961 12.446 17.446 12.039 17.9962 12.0872L29.4524 13.0894C30.0026 13.1376 30.4096 13.6226 30.3615 14.1728L28.967 30.1119C28.9188 30.6621 28.4338 31.0691 27.8836 31.021L16.4274 30.0187C15.8772 29.9705 15.4702 29.4855 15.5184 28.9353L16.9128 12.9962Z" fill="#2A2620"/>
<path d="M16.9128 12.9962C16.961 12.446 17.446 12.039 17.9962 12.0872L29.4524 13.0894C30.0026 13.1376 30.4096 13.6226 30.3615 14.1728L28.967 30.1119C28.9188 30.6621 28.4338 31.0691 27.8836 31.021L16.4274 30.0187C15.8772 29.9705 15.4702 29.4855 15.5184 28.9353L16.9128 12.9962Z" fill="white"/>
<path fill-rule="evenodd" clip-rule="evenodd" d="M16.2902 12.9417C16.3684 12.0477 17.1566 11.3863 18.0507 11.4645L29.5069 12.4668C30.401 12.545 31.0623 13.3332 30.9841 14.2273L29.5896 30.1664C29.5114 31.0604 28.7232 31.7218 27.8292 31.6436L16.3729 30.6413C15.4789 30.5631 14.8175 29.7749 14.8957 28.8808L16.2902 12.9417ZM17.9417 12.7098C17.7354 12.6917 17.5535 12.8443 17.5355 13.0507L16.141 28.9898C16.1229 29.1961 16.2755 29.378 16.4819 29.396L27.9381 30.3983C28.1444 30.4164 28.3263 30.2638 28.3444 30.0574L29.7389 14.1183C29.7569 13.912 29.6043 13.7301 29.398 13.7121L17.9417 12.7098Z" fill="#2A2620"/>
<path fill-rule="evenodd" clip-rule="evenodd" d="M19.755 22.3011C20.0573 22.1344 20.4375 22.2444 20.6041 22.5467C21.61 24.3711 24.0857 24.719 25.5555 23.2425C25.799 22.9979 26.1947 22.997 26.4394 23.2405C26.684 23.484 26.6849 23.8798 26.4414 24.1244C24.3837 26.1915 20.9177 25.7044 19.5095 23.1502C19.3428 22.8479 19.4528 22.4678 19.755 22.3011Z" fill="#2A2620"/>
<path d="M20.9962 20.2907C21.5464 20.3389 22.0314 19.9319 22.0796 19.3817C22.1277 18.8315 21.7207 18.3465 21.1705 18.2983C20.6203 18.2502 20.1353 18.6572 20.0872 19.2074C20.039 19.7576 20.446 20.2426 20.9962 20.2907Z" fill="#2A2620"/>
<path d="M25.4962 20.7907C26.0464 20.8389 26.5314 20.4319 26.5796 19.8817C26.6277 19.3315 26.2207 18.8465 25.6705 18.7983C25.1203 18.7502 24.6353 19.1572 24.5872 19.7074C24.539 20.2576 24.946 20.7426 25.4962 20.7907Z" fill="#2A2620"/>
<path d="M29.11 31.1801L27.09 33.2002L27.09 31.17L29.11 31.1801Z" fill="#2A2620"/>
</svg>
