<svg width="16" height="16" viewBox="0 0 16 16" fill="none" xmlns="http://www.w3.org/2000/svg">
<path fill-rule="evenodd" clip-rule="evenodd" d="M13.8632 1.74563C13.8632 1.43178 13.6678 1.15111 13.3734 1.04222C13.0791 0.933328 12.748 1.01924 12.5438 1.25754L11.7438 2.19087C11.6273 2.32681 11.5632 2.49993 11.5632 2.67897V3.37608L8.17691 6.76241C8.11916 6.75423 8.06013 6.75 8.00012 6.75C7.30977 6.75 6.75012 7.30964 6.75012 8C6.75012 8.69036 7.30977 9.25 8.00012 9.25C8.69048 9.25 9.25012 8.69036 9.25012 8C9.25012 7.9399 9.24588 7.88079 9.23768 7.82296L12.565 4.49563H13.3799C13.5589 4.49563 13.7321 4.43159 13.868 4.31508L14.8013 3.51508C15.0396 3.31082 15.1255 2.97979 15.0166 2.68542C14.9078 2.39106 14.6271 2.19563 14.3132 2.19563H13.8632V1.74563ZM8.00003 2.49564C4.96005 2.49564 2.49567 4.96002 2.49567 8C2.49567 11.04 4.96005 13.5044 8.00003 13.5044C11.04 13.5044 13.5044 11.04 13.5044 8C13.5044 7.45728 13.4261 6.93416 13.2806 6.44067C13.1635 6.04336 13.3906 5.62634 13.7879 5.50922C14.1853 5.39211 14.6023 5.61925 14.7194 6.01657C14.905 6.64632 15.0044 7.31221 15.0044 8C15.0044 11.8684 11.8684 15.0044 8.00003 15.0044C4.13162 15.0044 0.995667 11.8684 0.995667 8C0.995667 4.13159 4.13162 0.995636 8.00003 0.995636C8.68778 0.995636 9.35364 1.09498 9.98338 1.2806C10.3807 1.39771 10.6078 1.81473 10.4907 2.21204C10.3736 2.60936 9.9566 2.83651 9.55929 2.7194C9.06581 2.57395 8.54272 2.49564 8.00003 2.49564ZM8.00004 5.49897C6.61877 5.49897 5.49902 6.61871 5.49902 7.99999C5.49902 9.38127 6.61877 10.501 8.00004 10.501C9.38132 10.501 10.5011 9.38127 10.5011 7.99999C10.5011 7.91111 10.4965 7.82355 10.4875 7.7375C10.4447 7.32551 10.744 6.95681 11.156 6.91399C11.568 6.87118 11.9367 7.17046 11.9795 7.58245C11.9938 7.71991 12.0011 7.85922 12.0011 7.99999C12.0011 10.2097 10.2097 12.001 8.00004 12.001C5.79034 12.001 3.99902 10.2097 3.99902 7.99999C3.99902 5.79029 5.79034 3.99897 8.00004 3.99897C8.13458 3.99897 8.26778 4.00564 8.39932 4.0187C8.81151 4.05963 9.11247 4.42696 9.07154 4.83914C9.0306 5.25133 8.66328 5.55229 8.25109 5.51136C8.16873 5.50318 8.085 5.49897 8.00004 5.49897Z" fill="#3C3C3C"/>
</svg>
