<svg width="16" height="16" viewBox="0 0 16 16" fill="none" xmlns="http://www.w3.org/2000/svg">
<path fill-rule="evenodd" clip-rule="evenodd" d="M6.04117 4.49719L6.35279 3.5H9.64722L9.95884 4.49719H6.04117ZM4.46963 4.49719L5.03071 2.70172C5.16118 2.28425 5.54781 2 5.98519 2H10.0148C10.4522 2 10.8388 2.28425 10.9693 2.70173L11.5304 4.49719H14C14.5523 4.49719 15 4.94491 15 5.49719V13C15 13.5522 14.5523 14 14 14H2C1.44772 14 1 13.5522 1 13V5.49719C1 4.94491 1.44772 4.49719 2 4.49719H4.46963ZM5.28402 5.99719H2.5V12.5H13.5V5.99719H10.716C10.6909 5.99905 10.6655 6 10.6398 6H5.36019C5.33451 6 5.30911 5.99905 5.28402 5.99719ZM8 10C8.41421 10 8.75 9.66421 8.75 9.25C8.75 8.83579 8.41421 8.5 8 8.5C7.58579 8.5 7.25 8.83579 7.25 9.25C7.25 9.66421 7.58579 10 8 10ZM8 11.5C9.24264 11.5 10.25 10.4926 10.25 9.25C10.25 8.00736 9.24264 7 8 7C6.75736 7 5.75 8.00736 5.75 9.25C5.75 10.4926 6.75736 11.5 8 11.5Z" fill="#3C3C3C"/>
</svg>
