<svg width="16" height="16" viewBox="0 0 16 16" fill="none" xmlns="http://www.w3.org/2000/svg">
<path d="M8.8546 12.1186H6.29816M12.3768 12.1186H13.7515C14.0277 12.1186 14.2515 11.8947 14.2515 11.6186V9.18798C14.2515 8.37116 13.7549 7.63645 12.9969 7.33207C12.6045 7.17448 12.1832 7.00532 11.8343 6.86519M11.8343 6.86519L10.147 3.06636C10.0888 2.96944 10.0133 2.89078 9.92655 2.8366C9.83978 2.78242 9.7441 2.75421 9.64708 2.75421H6.86626M11.8343 6.86519H9.07152C8.76826 6.86519 8.49484 6.68256 8.3787 6.40242L6.86626 2.75421M3.0032 12.1186H2.25339C1.97725 12.1186 1.75339 11.8947 1.75339 11.6186V8.15433L1.76696 4.74625C1.77134 3.6448 2.67662 2.75421 3.77809 2.75421V2.75421H6.86626" stroke="#3C3C3C" stroke-width="1.5" stroke-linecap="round" stroke-linejoin="round"/>
<path d="M4.87792 13.2547C5.66229 13.2547 6.29816 12.6189 6.29816 11.8345C6.29816 11.0501 5.66229 10.4142 4.87792 10.4142C4.09354 10.4142 3.45767 11.0501 3.45767 11.8345C3.45767 12.6189 4.09354 13.2547 4.87792 13.2547Z" stroke="#3C3C3C" stroke-width="1.5" stroke-linecap="round" stroke-linejoin="round"/>
<path d="M10.5589 13.2547C11.3433 13.2547 11.9791 12.6189 11.9791 11.8345C11.9791 11.0501 11.3433 10.4142 10.5589 10.4142C9.77451 10.4142 9.13864 11.0501 9.13864 11.8345C9.13864 12.6189 9.77451 13.2547 10.5589 13.2547Z" stroke="#3C3C3C" stroke-width="1.5" stroke-linecap="round" stroke-linejoin="round"/>
</svg>
