<svg width="16" height="16" viewBox="0 0 16 16" fill="none" xmlns="http://www.w3.org/2000/svg">
<path fill-rule="evenodd" clip-rule="evenodd" d="M3.50488 2.75879C3.50488 2.34458 3.1691 2.00879 2.75488 2.00879C2.34067 2.00879 2.00488 2.34458 2.00488 2.75879V13.2535C2.00488 13.6678 2.34067 14.0035 2.75488 14.0035H13.2496C13.6638 14.0035 13.9996 13.6678 13.9996 13.2535C13.9996 12.8393 13.6638 12.5035 13.2496 12.5035H3.50488V2.75879ZM12.6139 6.78717C12.9068 6.49427 12.9068 6.0194 12.6139 5.72651C12.321 5.43361 11.8461 5.43361 11.5532 5.72651L9.75138 7.52834L8.53259 6.30955C8.23969 6.01665 7.76482 6.01665 7.47193 6.30955L5.13976 8.64171C4.84687 8.93461 4.84687 9.40948 5.13976 9.70237C5.43265 9.99527 5.90753 9.99527 6.20042 9.70237L8.00226 7.90054L9.22105 9.11933C9.51394 9.41223 9.98882 9.41223 10.2817 9.11933L12.6139 6.78717Z" fill="#3C3C3C"/>
</svg>
