<svg width="16" height="16" viewBox="0 0 16 16" fill="none" xmlns="http://www.w3.org/2000/svg">
<path fill-rule="evenodd" clip-rule="evenodd" d="M2.50928 8C2.50928 4.96243 4.97171 2.5 8.00928 2.5C11.0468 2.5 13.5093 4.96243 13.5093 8C13.5093 9.38317 12.9997 10.6455 12.1569 11.6122C11.8978 11.9094 11.9131 12.3565 12.192 12.6354L13.0566 13.5H8.00928C4.97171 13.5 2.50928 11.0376 2.50928 8ZM8.00928 1C4.14328 1 1.00928 4.13401 1.00928 8C1.00928 11.866 4.14328 15 8.00928 15H14.8673C15.1706 15 15.4441 14.8173 15.5602 14.537C15.6763 14.2568 15.6121 13.9342 15.3976 13.7197L13.7229 12.045C14.5328 10.9028 15.0093 9.50636 15.0093 8C15.0093 4.13401 11.8753 1 8.00928 1ZM11.5445 6.69635C11.8294 6.39565 11.8166 5.92095 11.5159 5.63608C11.2152 5.35121 10.7405 5.36404 10.4556 5.66474L7.1284 9.1768L5.53039 7.57879C5.2375 7.2859 4.76262 7.2859 4.46973 7.57879C4.17684 7.87169 4.17684 8.34656 4.46973 8.63945L6.6126 10.7823C6.75573 10.9255 6.95065 11.0047 7.15306 11.0019C7.35546 10.9992 7.54817 10.9147 7.68739 10.7678L11.5445 6.69635Z" fill="#3C3C3C"/>
</svg>
