<svg width="16" height="16" viewBox="0 0 16 16" fill="none" xmlns="http://www.w3.org/2000/svg">
<path fill-rule="evenodd" clip-rule="evenodd" d="M3.50024 3.5H7.99854V6.7597C7.99854 7.45006 8.55818 8.0097 9.24854 8.0097H12.4999V12.4996H3.50024V3.5ZM9.49854 6.5097V3.90556L12.1027 6.5097H9.49854ZM2.00024 3V12.9996C2.00024 13.5519 2.44796 13.9996 3.00024 13.9996H12.9999C13.5522 13.9996 13.9999 13.5519 13.9999 12.9996V6.6998C13.9999 6.43458 13.8945 6.18023 13.707 5.99269L10.0072 2.29289C9.81965 2.10536 9.5653 2 9.30008 2H3.00025C2.44796 2 2.00024 2.44772 2.00024 3ZM6.70194 9.89012C6.63384 9.32498 6.2061 9 5.63977 9C4.99339 9 4.49994 9.45641 4.49994 10.2569C4.49994 11.055 4.98503 11.5138 5.63977 11.5138C6.26704 11.5138 6.64579 11.0969 6.70194 10.6464L6.17862 10.644C6.12964 10.9057 5.92413 11.0562 5.64814 11.0562C5.27656 11.0562 5.02445 10.7802 5.02445 10.2569C5.02445 9.74794 5.27297 9.45761 5.65172 9.45761C5.93489 9.45761 6.1392 9.62129 6.17862 9.89012H6.70194ZM8.40034 9.73719H8.89618C8.88901 9.30109 8.53058 9 7.98575 9C7.44929 9 7.0562 9.29631 7.05859 9.74077C7.0574 10.1016 7.31189 10.3083 7.72529 10.4075L7.99172 10.4744C8.25816 10.5389 8.40632 10.6154 8.40751 10.7802C8.40632 10.9595 8.23666 11.0813 7.9738 11.0813C7.70497 11.0813 7.51142 10.9571 7.49469 10.7121H6.99407C7.00721 11.2414 7.38596 11.515 7.97978 11.515C8.57717 11.515 8.92844 11.2295 8.92964 10.7814C8.92844 10.374 8.62138 10.1578 8.19603 10.0622L7.97619 10.0096C7.76352 9.96061 7.58549 9.88176 7.58908 9.70612C7.58908 9.54841 7.72887 9.43252 7.98217 9.43252C8.22949 9.43252 8.38123 9.54483 8.40034 9.73719ZM9.145 9.03345H9.7197L10.3111 10.8926H10.3338L10.9264 9.03345H11.4999L10.6564 11.4804H9.98972L9.145 9.03345Z" fill="#3C3C3C"/>
</svg>
