<svg xmlns="http://www.w3.org/2000/svg" width="16" height="16" viewBox="0 0 16 16" fill="none">
<path fill-rule="evenodd" clip-rule="evenodd" d="M2.25324 1.19028C1.96045 0.900493 1.48818 0.90142 1.19654 1.19306C0.903969 1.48563 0.903969 1.95999 1.19654 2.25256L3.82011 4.87612C3.70567 4.9603 3.59478 5.04532 3.48761 5.13048C2.32715 6.05261 1.51247 7.06229 1.22577 7.43877C0.957274 7.79135 0.957275 8.27385 1.22577 8.62642C1.51247 9.0029 2.32715 10.0126 3.48761 10.9347C4.63674 11.8478 6.21389 12.7459 8.01093 12.7459C9.16056 12.7459 10.1654 12.4812 11.0269 12.0829L13.744 14.8C14.0366 15.0926 14.5109 15.0926 14.8035 14.8C15.0951 14.5084 15.096 14.0361 14.8062 13.7433L14.8035 13.7405L2.25603 1.19306L2.25324 1.19028ZM4.4208 6.30486C4.57435 6.18284 4.7326 6.06436 4.89502 5.95104L5.83435 6.89036C5.65392 7.23143 5.55176 7.62027 5.55176 8.03297C5.55176 9.38444 6.64734 10.48 7.99881 10.48C8.41151 10.48 8.80036 10.3779 9.14142 10.1974L9.87434 10.9304C9.31427 11.1262 8.69294 11.2459 8.01093 11.2459C6.70609 11.2459 5.45662 10.5834 4.4208 9.76034C3.63588 9.13663 3.02464 8.46118 2.66991 8.0326C3.02464 7.60402 3.63588 6.92857 4.4208 6.30486ZM7.92085 8.97686C7.45999 8.93931 7.09247 8.5718 7.05492 8.11094L7.92085 8.97686Z" fill="#3C3C3C"/>
<path d="M6.1197 3.64253L7.3514 4.87423C7.56913 4.83844 7.78923 4.81932 8.01093 4.81932C9.3276 4.81932 10.5876 5.49386 11.6281 6.32642C12.4306 6.96856 13.0485 7.66155 13.3921 8.08138C13.135 8.46352 12.6951 9.04073 12.0752 9.59801L13.1368 10.6597C14.105 9.77254 14.6817 8.86855 14.8729 8.54649C15.0793 8.19905 15.049 7.77278 14.8111 7.45858C14.5404 7.101 13.7294 6.08674 12.5653 5.15522C11.4129 4.23311 9.82369 3.31932 8.01093 3.31932C7.34701 3.31932 6.7131 3.4419 6.1197 3.64253Z" fill="#3C3C3C"/>
<path d="M10.445 7.96784C10.411 6.66812 9.36366 5.62073 8.06394 5.58677L10.445 7.96784Z" fill="#3C3C3C"/>
</svg>