<svg width="16" height="16" viewBox="0 0 16 16" fill="none" xmlns="http://www.w3.org/2000/svg">
<path fill-rule="evenodd" clip-rule="evenodd" d="M4.42081 9.76035C3.6359 9.13665 3.02466 8.46119 2.66993 8.03261C3.02466 7.60403 3.6359 6.92858 4.42081 6.30488C5.45664 5.48179 6.70611 4.81934 8.01095 4.81934C9.32761 4.81934 10.5877 5.49388 11.6281 6.32644C12.4306 6.96857 13.0485 7.66157 13.3921 8.0814C12.7443 9.04432 10.9357 11.2459 8.01095 11.2459C6.70611 11.2459 5.45664 10.5834 4.42081 9.76035ZM8.01095 3.31934C6.21391 3.31934 4.63676 4.21738 3.48763 5.1305C2.32716 6.05262 1.51249 7.06231 1.22579 7.43879C0.957289 7.79137 0.95729 8.27386 1.22579 8.62644C1.51249 9.00292 2.32716 10.0126 3.48763 10.9347C4.63676 11.8479 6.21391 12.7459 8.01095 12.7459C12.1882 12.7459 14.4542 9.2516 14.8729 8.54651C15.0793 8.19907 15.049 7.77279 14.8111 7.4586C14.5404 7.10102 13.7294 6.08675 12.5653 5.15524C11.4129 4.23313 9.8237 3.31934 8.01095 3.31934ZM7.05177 8.03299C7.05177 7.50995 7.47578 7.08594 7.99883 7.08594C8.52187 7.08594 8.94588 7.50995 8.94588 8.03299C8.94588 8.55603 8.52187 8.98004 7.99883 8.98004C7.47578 8.98004 7.05177 8.55603 7.05177 8.03299ZM7.99883 5.58594C6.64736 5.58594 5.55177 6.68152 5.55177 8.03299C5.55177 9.38446 6.64736 10.48 7.99883 10.48C9.3503 10.48 10.4459 9.38446 10.4459 8.03299C10.4459 6.68152 9.3503 5.58594 7.99883 5.58594Z" fill="#3C3C3C"/>
</svg>
