<svg width="16" height="16" viewBox="0 0 16 16" fill="none" xmlns="http://www.w3.org/2000/svg">
<path fill-rule="evenodd" clip-rule="evenodd" d="M13.5 8C13.5 11.0376 11.0376 13.5 8 13.5C4.96243 13.5 2.5 11.0376 2.5 8C2.5 4.96243 4.96243 2.5 8 2.5C11.0376 2.5 13.5 4.96243 13.5 8ZM15 8C15 11.866 11.866 15 8 15C4.13401 15 1 11.866 1 8C1 4.13401 4.13401 1 8 1C11.866 1 15 4.13401 15 8ZM6.00004 4C5.58583 4 5.25004 4.33579 5.25004 4.75V7.45458C5.25004 7.69706 5.36727 7.92458 5.56473 8.06532C5.76219 8.20606 6.01551 8.24265 6.24473 8.16354C7.1717 7.84361 8.06089 7.79826 8.66507 7.98938C8.95709 8.08176 9.15605 8.21986 9.2825 8.38155C9.4048 8.53794 9.50001 8.76784 9.50001 9.12362C9.50001 9.80471 9.1913 10.1033 8.86883 10.2758C8.68839 10.3723 8.49377 10.4304 8.32714 10.4635C8.24541 10.4798 8.17487 10.4891 8.12235 10.4943C8.07633 10.4989 8.04856 10.4998 8.04336 10.5C7.45049 10.5 6.90445 10.1409 6.57002 9.74985C6.30082 9.43504 5.82739 9.39807 5.51258 9.66727C5.19777 9.93647 5.1608 10.4099 5.43001 10.7247C5.93806 11.3188 6.86557 12 8.04336 12C8.21214 12 8.90064 11.9597 9.57616 11.5985C10.3065 11.208 11 10.4434 11 9.12362C11 8.47896 10.8194 7.91184 10.4641 7.45751C10.1129 7.00848 9.63253 6.72216 9.11747 6.55923C8.40089 6.33255 7.57065 6.3274 6.75004 6.48115L6.75096 5.5H9.99997C10.4142 5.5 10.75 5.16421 10.75 4.75C10.75 4.33579 10.4142 4 9.99997 4H6.00004Z" fill="#3C3C3C"/>
</svg>
