<svg width="16" height="16" viewBox="0 0 16 16" fill="none" xmlns="http://www.w3.org/2000/svg">
<path fill-rule="evenodd" clip-rule="evenodd" d="M7.14171 12.6386L3.34924 8.79204C3.54496 7.34696 4.02529 5.93348 5.00776 4.96484C5.79564 4.18805 6.86498 3.73822 8.00429 3.50013L7.99001 3.51421L12.4389 8.02663L12.5244 7.94234C12.2763 9.12189 11.8068 10.2312 10.992 11.0346C10.0096 12.0032 8.58941 12.4634 7.14171 12.6386ZM5.1148 12.7193L3.23985 10.8176C3.25313 11.541 3.31545 12.1574 3.36903 12.5654C3.77619 12.6247 4.39165 12.6958 5.1148 12.7193ZM12.6308 3.43402C12.7081 4.02302 12.8037 5.04649 12.7436 6.19918L9.86748 3.28197C11.0209 3.23825 12.0429 3.34832 12.6308 3.43402ZM1.8253 8.89496C2.01263 7.21362 2.55454 5.27709 3.95465 3.89669C5.35476 2.51628 7.29878 2.00188 8.98261 1.83841C10.6813 1.67349 12.2328 1.85435 12.97 1.96814C13.5621 2.05953 14.0183 2.52226 14.1013 3.11558C14.2046 3.8543 14.3635 5.4082 14.1745 7.10443C13.9872 8.78577 13.4453 10.7223 12.0451 12.1027C10.645 13.4831 8.70102 13.9975 7.01719 14.161C5.31845 14.3259 3.76696 14.145 3.02978 14.0313C2.43769 13.9399 1.98148 13.4771 1.89849 12.8838C1.79516 12.1451 1.63631 10.5912 1.8253 8.89496ZM5.07482 8.42575C5.36978 8.13494 5.84464 8.13831 6.13545 8.43327L6.33533 8.636L6.69627 8.28014L6.49619 8.0772C6.20538 7.78224 6.20875 7.30738 6.50371 7.01657C6.79867 6.72576 7.27353 6.72913 7.56434 7.02409L7.76442 7.22702L8.12494 6.87159L7.92496 6.66876C7.63415 6.37379 7.63752 5.89893 7.93248 5.60812C8.22744 5.31731 8.70231 5.32068 8.99312 5.61564L10.4019 7.04452C10.6927 7.33948 10.6893 7.81434 10.3944 8.10515C10.0994 8.39596 9.62454 8.39259 9.33373 8.09763L9.17805 7.93974L8.81754 8.29518L8.9731 8.45296C9.26392 8.74793 9.26055 9.22279 8.96559 9.5136C8.67062 9.80441 8.19576 9.80104 7.90495 9.50608L7.74939 9.34829L7.38845 9.70415L7.54421 9.86214C7.83502 10.1571 7.83166 10.632 7.53669 10.9228C7.24173 11.2136 6.76687 11.2102 6.47606 10.9153L5.0673 9.48638C4.77649 9.19142 4.77985 8.71656 5.07482 8.42575Z" fill="#3C3C3C"/>
</svg>
