<svg width="16" height="16" viewBox="0 0 16 16" fill="none" xmlns="http://www.w3.org/2000/svg">
<path fill-rule="evenodd" clip-rule="evenodd" d="M13.5 8C13.5 11.0376 11.0376 13.5 8 13.5C4.96243 13.5 2.5 11.0376 2.5 8C2.5 4.96243 4.96243 2.5 8 2.5C11.0376 2.5 13.5 4.96243 13.5 8ZM15 8C15 11.866 11.866 15 8 15C4.13401 15 1 11.866 1 8C1 4.13401 4.13401 1 8 1C11.866 1 15 4.13401 15 8ZM7.31471 5.04204C7.47599 4.66052 7.29745 4.22048 6.91593 4.0592C6.53441 3.89792 6.09437 4.07646 5.93309 4.45798L4.75498 7.24486C4.45304 7.9591 4.97737 8.75001 5.75282 8.75001H8.75001V11.25C8.75001 11.6642 9.0858 12 9.50001 12C9.91422 12 10.25 11.6642 10.25 11.25V4.75001C10.25 4.3358 9.91422 4.00001 9.50001 4.00001C9.0858 4.00001 8.75001 4.3358 8.75001 4.75001V7.25001H6.38132L7.31471 5.04204Z" fill="#3C3C3C"/>
</svg>
