<svg width="16" height="16" viewBox="0 0 16 16" fill="none" xmlns="http://www.w3.org/2000/svg">
<path fill-rule="evenodd" clip-rule="evenodd" d="M3.50391 12.4991V3.49585H8.00253V6.75989C8.00253 7.45024 8.56218 8.00989 9.25253 8.00989H12.5071V9.24312C12.5071 9.65733 12.8429 9.99312 13.2571 9.99312C13.6714 9.99312 14.0071 9.65733 14.0071 9.24312V6.70411C14.0071 6.37259 13.8754 6.05465 13.641 5.82023L10.1828 2.36197C9.94834 2.12755 9.6304 1.99585 9.29888 1.99585H3.25391C2.56355 1.99585 2.00391 2.55549 2.00391 3.24585V12.7491C2.00391 13.4394 2.56355 13.9991 3.25391 13.9991H9.24904C9.66325 13.9991 9.99904 13.6633 9.99904 13.2491C9.99904 12.8349 9.66325 12.4991 9.24904 12.4991H3.50391ZM12.2094 6.50989L9.50253 3.80306V6.50989H12.2094ZM11.0027 12.5003C11.0027 12.2242 11.2265 12.0003 11.5027 12.0003H11.5239C11.6422 11.2901 12.2596 10.7487 13.0034 10.7487C13.7472 10.7487 14.3646 11.2901 14.483 12.0003H14.5039C14.78 12.0003 15.0039 12.2242 15.0039 12.5003V14.5003C15.0039 14.7764 14.78 15.0003 14.5039 15.0003H11.5027C11.2265 15.0003 11.0027 14.7764 11.0027 14.5003V12.5003ZM13.4375 12.0003C13.3513 11.8499 13.1892 11.7487 13.0034 11.7487C12.8177 11.7487 12.6556 11.8499 12.5694 12.0003H13.4375ZM12.0027 13.0003V14.0003H14.0039V13.0003H12.0027Z" fill="#3C3C3C"/>
</svg>
