<svg width="16" height="16" viewBox="0 0 16 16" fill="none" xmlns="http://www.w3.org/2000/svg">
<path d="M2.24905 1.18952C1.95596 0.903927 1.48683 0.906246 1.1966 1.19648C0.90403 1.48905 0.90403 1.9634 1.1966 2.25597L5.49439 6.55376C5.52582 7.89023 6.60344 8.96784 7.93991 8.99928L8.97322 10.0326C8.66441 10.1214 8.33735 10.1668 7.99998 10.1668C6.41442 10.1668 5.03222 9.09207 4.74027 7.29648C4.67379 6.88764 4.28847 6.61009 3.87963 6.67657C3.47078 6.74304 3.19324 7.12837 3.25971 7.53721C3.62511 9.7845 5.26027 11.3052 7.25316 11.6103V13.5H6.41666C6.00244 13.5 5.66666 13.8358 5.66666 14.25C5.66666 14.6642 6.00244 15 6.41666 15H9.58332C9.99754 15 10.3333 14.6642 10.3333 14.25C10.3333 13.8358 9.99754 13.5 9.58332 13.5H8.75316V11.6114C9.23757 11.5392 9.70136 11.3972 10.131 11.1904L13.744 14.8034C14.0366 15.096 14.511 15.096 14.8035 14.8034C15.0938 14.5132 15.0961 14.0441 14.8105 13.751L2.24905 1.18952Z" fill="#3C3C3C"/>
<path d="M12.0036 9.52983C12.3665 8.96263 12.6235 8.29247 12.7412 7.53148C12.8045 7.12213 12.524 6.73897 12.1146 6.67566C11.7053 6.61235 11.3221 6.89287 11.2588 7.30222C11.1939 7.72159 11.0725 8.0987 10.9047 8.43101L12.0036 9.52983Z" fill="#3C3C3C"/>
<path d="M10.189 7.71522C10.3911 7.35381 10.5063 6.9372 10.5063 6.49369V3.50628C10.5063 2.12209 9.38417 0.999984 7.99998 0.999984C6.76824 0.999984 5.74403 1.88854 5.53337 3.05963L6.99368 4.51994V3.50628C6.99368 2.95052 7.44422 2.49998 7.99998 2.49998C8.55574 2.49998 9.00627 2.95052 9.00627 3.50628V6.49369C9.00627 6.50646 9.00603 6.51917 9.00556 6.53182L10.189 7.71522Z" fill="#3C3C3C"/>
</svg>
