<svg width="16" height="16" viewBox="0 0 16 16" fill="none" xmlns="http://www.w3.org/2000/svg">
<path fill-rule="evenodd" clip-rule="evenodd" d="M5.55275 3.86366C5.5884 3.96519 5.67271 4.07603 5.81277 4.15201C5.81858 4.15446 5.85054 4.16782 5.92003 4.18499C5.99779 4.2042 6.09841 4.22236 6.22035 4.23817C6.38528 4.25955 6.57083 4.27434 6.76226 4.28409C6.65325 4.13085 6.54293 3.98513 6.43764 3.85991C6.3598 3.76733 6.29109 3.69363 6.23345 3.63938C6.18195 3.59092 6.15381 3.57183 6.14862 3.56831C6.00856 3.49232 5.86689 3.48041 5.75924 3.5042C5.65343 3.52759 5.59299 3.57971 5.56232 3.63311C5.53164 3.6865 5.51771 3.76386 5.55275 3.86366ZM8 3.41203C8.12322 3.23935 8.25471 3.06559 8.38759 2.90756C8.57163 2.68869 8.8226 2.42026 9.10454 2.26731C9.46863 2.06979 9.93104 2.20083 10.1374 2.56C10.3437 2.91917 10.2155 3.3708 9.85138 3.56832C9.84619 3.57184 9.81805 3.59092 9.76654 3.63939C9.7089 3.69364 9.64019 3.76734 9.56235 3.85992C9.45707 3.98513 9.34674 4.13086 9.23773 4.2841C9.42916 4.27434 9.61471 4.25956 9.77964 4.23818C9.90158 4.22237 10.0022 4.20421 10.08 4.185C10.1495 4.16783 10.1814 4.15447 10.1872 4.15202C10.5513 3.9545 11.0137 4.08555 11.22 4.44472C11.3248 4.62706 11.3434 4.83314 11.2887 5.01771C11.4069 5.15026 11.4787 5.32505 11.4787 5.51662C11.4787 5.93083 11.1429 6.26662 10.7287 6.26662H3.29254V7.04055H3.93908L3.95209 7.04048H12.0478L12.0608 7.04055H12.7074V6.65358C12.7074 6.23937 13.0432 5.90358 13.4574 5.90358C13.8716 5.90358 14.2074 6.23937 14.2074 6.65358V7.29055C14.2074 7.86291 13.8227 8.34542 13.2978 8.49364V12.7479C13.2978 13.4383 12.7382 13.9979 12.0478 13.9979H3.95209C3.26173 13.9979 2.70209 13.4383 2.70209 12.7479V8.49362C2.1772 8.34538 1.79254 7.86289 1.79254 7.29055V6.01662C1.79254 5.32626 2.35219 4.76662 3.04254 4.76662H4.32077C3.97107 4.23065 3.88579 3.54112 4.24384 2.91782C4.79014 1.96683 6.01314 1.78864 6.89545 2.2673C7.17739 2.42026 7.42837 2.68868 7.61241 2.90756C7.74528 3.06558 7.87678 3.23935 8 3.41203ZM4.20209 8.54055V12.4979H7.24995V8.54055H4.20209ZM8.74995 8.54055V12.4979H11.7978V8.54055H8.74995Z" fill="#3C3C3C"/>
<path d="M12.9999 5C14.1044 5 14.9999 4.10457 14.9999 3C14.9999 1.89543 14.1044 1 12.9999 1C11.8953 1 10.9999 1.89543 10.9999 3C10.9999 4.10457 11.8953 5 12.9999 5Z" fill="#3B57FF"/>
</svg>
