<svg width="16" height="16" viewBox="0 0 16 16" fill="none" xmlns="http://www.w3.org/2000/svg">
<path fill-rule="evenodd" clip-rule="evenodd" d="M5.66905 3.49988H3.5V12.4999H12.5V10.336C12.5 9.92182 12.8358 9.58604 13.25 9.58604C13.6642 9.58604 14 9.92182 14 10.336V12.7499C14 13.4402 13.4404 13.9999 12.75 13.9999H3.25C2.55964 13.9999 2 13.4402 2 12.7499V3.24988C2 2.55952 2.55964 1.99988 3.25 1.99988H5.66905C6.08326 1.99988 6.41905 2.33566 6.41905 2.74988C6.41905 3.16409 6.08326 3.49988 5.66905 3.49988ZM6.15717 8.78241C5.86428 9.07531 5.86428 9.55018 6.15717 9.84307C6.45006 10.136 6.92494 10.136 7.21783 9.84307L12.5 4.5609V6.68774C12.5 7.10196 12.8358 7.43774 13.25 7.43774C13.6642 7.43774 14 7.10196 14 6.68774V2.75024C14 2.33603 13.6642 2.00024 13.25 2.00024H9.3125C8.89829 2.00024 8.5625 2.33603 8.5625 2.75024C8.5625 3.16446 8.89829 3.50024 9.3125 3.50024H11.4393L6.15717 8.78241Z" fill="#3C3C3C"/>
</svg>
