<svg width="16" height="16" viewBox="0 0 16 16" fill="none" xmlns="http://www.w3.org/2000/svg">
<path fill-rule="evenodd" clip-rule="evenodd" d="M3.50024 3.5H7.99854V6.7597C7.99854 7.45006 8.55818 8.0097 9.24854 8.0097H12.4999V12.4996H3.50024V3.5ZM9.49854 6.5097V3.90556L12.1027 6.5097H9.49854ZM2.00024 3V12.9996C2.00024 13.5519 2.44796 13.9996 3.00024 13.9996H12.9999C13.5522 13.9996 13.9999 13.5519 13.9999 12.9996V6.6998C13.9999 6.43458 13.8945 6.18023 13.707 5.99269L10.0072 2.29289C9.81965 2.10536 9.5653 2 9.30008 2H3.00025C2.44796 2 2.00024 2.44772 2.00024 3ZM11.264 9.80688C11.587 9.54763 11.6387 9.07558 11.3795 8.75253C11.1202 8.42948 10.6482 8.37777 10.3251 8.63702L8.59376 10.0265L7.49154 9.27155C7.21576 9.08266 6.84827 9.09908 6.59043 9.31181L4.97023 10.6486C4.65072 10.9122 4.60541 11.3849 4.86901 11.7044C5.13262 12.0239 5.60533 12.0692 5.92484 11.8056L7.10964 10.8281L8.20531 11.5785C8.47799 11.7653 8.84078 11.7515 9.09854 11.5447L11.264 9.80688Z" fill="#3C3C3C"/>
</svg>
