<svg width="16" height="16" viewBox="0 0 16 16" fill="none" xmlns="http://www.w3.org/2000/svg">
<path fill-rule="evenodd" clip-rule="evenodd" d="M8.21464 2.71463C5.29561 2.71463 2.92926 5.08098 2.92926 8.00001V8.08556L3.08242 7.96303C3.40586 7.70428 3.87783 7.75672 4.13659 8.08016C4.39535 8.40361 4.34291 8.87558 4.01946 9.13434L2.64778 10.2317C2.37387 10.4508 1.98465 10.4508 1.71074 10.2317L0.339062 9.13434C0.015616 8.87558 -0.036825 8.40361 0.221932 8.08016C0.480689 7.75672 0.952659 7.70428 1.27611 7.96303L1.42926 8.08556V8.00001C1.42926 4.25255 4.46718 1.21463 8.21464 1.21463C11.9621 1.21463 15 4.25255 15 8.00001C15 11.7475 11.9621 14.7854 8.21464 14.7854C7.80043 14.7854 7.46464 14.4496 7.46464 14.0354C7.46464 13.6212 7.80043 13.2854 8.21464 13.2854C11.1337 13.2854 13.5 10.9191 13.5 8.00001C13.5 5.08098 11.1337 2.71463 8.21464 2.71463Z" fill="#3C3C3C"/>
</svg>
