<svg width="16" height="16" viewBox="0 0 16 16" fill="none" xmlns="http://www.w3.org/2000/svg">
<path fill-rule="evenodd" clip-rule="evenodd" d="M7.30557 1.00061C7.00555 1.00061 6.7344 1.17941 6.61621 1.45517L6.06966 2.73046C5.92306 2.78417 5.77934 2.84382 5.6388 2.9091L4.35053 2.39379C4.07197 2.28237 3.7538 2.34767 3.54166 2.55982L2.55966 3.54182C2.34751 3.75396 2.28221 4.07213 2.39363 4.35069L2.90898 5.63905C2.84373 5.77955 2.78411 5.92323 2.73041 6.06979L1.45517 6.61632C1.17941 6.7345 1.00061 7.00565 1.00061 7.30568V8.69443C1.00061 8.99445 1.17941 9.2656 1.45517 9.38379L2.73047 9.93034C2.78415 10.0769 2.84376 10.2205 2.90899 10.3609L2.39363 11.6493C2.28221 11.9279 2.34751 12.246 2.55966 12.4582L3.54166 13.4402C3.7538 13.6523 4.07197 13.7176 4.35053 13.6062L5.63883 13.0909C5.77936 13.1562 5.92306 13.2158 6.06965 13.2695L6.61621 14.5448C6.7344 14.8206 7.00555 14.9994 7.30557 14.9994H8.69432C8.99435 14.9994 9.2655 14.8206 9.38368 14.5448L9.93024 13.2695C10.0768 13.2158 10.2205 13.1562 10.361 13.091L11.6494 13.6064C11.928 13.7178 12.2462 13.6525 12.4583 13.4403L13.4403 12.4583C13.6525 12.2462 13.7178 11.928 13.6063 11.6495L13.091 10.361C13.1562 10.2205 13.2158 10.0769 13.2695 9.93036L14.5448 9.38379C14.8206 9.2656 14.9994 8.99445 14.9994 8.69443V7.30568C14.9994 7.00565 14.8206 6.7345 14.5448 6.61632L13.2696 6.06977C13.2158 5.9232 13.1562 5.77951 13.091 5.63899L13.6063 4.35053C13.7178 4.07197 13.6525 3.7538 13.4403 3.54166L12.4583 2.55966C12.2462 2.34751 11.928 2.28221 11.6495 2.39363L10.361 2.90902C10.2205 2.84376 10.0768 2.78413 9.93022 2.73042L9.38368 1.45517C9.2655 1.17941 8.99435 1.00061 8.69432 1.00061H7.30557ZM7.31536 3.6317L7.80012 2.50061H8.19978L8.68452 3.63168C8.77259 3.83718 8.94776 3.99267 9.16225 4.05576C9.44394 4.13861 9.71315 4.25089 9.9664 4.38915C10.1627 4.49634 10.3967 4.5103 10.6043 4.42723L11.7474 3.97002L12.03 4.25262L11.5728 5.39565C11.4897 5.60333 11.5036 5.83726 11.6108 6.03358C11.7491 6.28683 11.8614 6.55605 11.9442 6.83773C12.0073 7.05223 12.1628 7.2274 12.3683 7.31547L13.4994 7.80022V8.19988L12.3683 8.68465C12.1628 8.77272 12.0073 8.94788 11.9442 9.16237C11.8613 9.44401 11.7491 9.71319 11.6108 9.9664C11.5036 10.1627 11.4897 10.3967 11.5727 10.6043L12.03 11.7474L11.7474 12.03L10.6043 11.5728C10.3966 11.4897 10.1627 11.5036 9.96637 11.6108C9.71314 11.7491 9.44393 11.8614 9.16227 11.9442C8.94777 12.0073 8.77261 12.1628 8.68454 12.3683L8.19978 13.4994H7.80012L7.31535 12.3683C7.22728 12.1628 7.05212 12.0073 6.83763 11.9442C6.55594 11.8613 6.28671 11.749 6.03346 11.6108C5.83713 11.5036 5.60319 11.4896 5.3955 11.5727L4.25262 12.0298L3.97002 11.7472L4.4272 10.6043C4.51027 10.3966 4.49631 10.1627 4.38913 9.96635C4.2509 9.71315 4.13863 9.44398 4.05579 9.16235C3.9927 8.94787 3.83721 8.77271 3.63171 8.68464L2.50061 8.19988V7.80022L3.63167 7.31548C3.83717 7.22741 3.99267 7.05224 4.05575 6.83775C4.13859 6.55608 4.25087 6.28686 4.38912 6.03363C4.4963 5.8373 4.51026 5.60338 4.42719 5.3957L3.97002 4.25278L4.25262 3.97018L5.39547 4.42732C5.60316 4.51039 5.8371 4.49643 6.03343 4.38923C6.28669 4.25095 6.55594 4.13864 6.83765 4.05578C7.05213 3.99269 7.22729 3.8372 7.31536 3.6317ZM6.8604 7.99993C6.8604 7.37056 7.3706 6.86035 7.99997 6.86035C8.62934 6.86035 9.13955 7.37056 9.13955 7.99993C9.13955 8.6293 8.62934 9.1395 7.99997 9.1395C7.3706 9.1395 6.8604 8.6293 6.8604 7.99993ZM7.99997 5.36035C6.54218 5.36035 5.3604 6.54213 5.3604 7.99993C5.3604 9.45772 6.54218 10.6395 7.99997 10.6395C9.45777 10.6395 10.6395 9.45772 10.6395 7.99993C10.6395 6.54213 9.45777 5.36035 7.99997 5.36035Z" fill="#3C3C3C"/>
</svg>
