<svg width="16" height="16" viewBox="0 0 16 16" fill="none" xmlns="http://www.w3.org/2000/svg">
<path fill-rule="evenodd" clip-rule="evenodd" d="M1.06802 2.75244C1.06802 2.33823 1.40381 2.00244 1.81802 2.00244H14.318C14.7322 2.00244 15.068 2.33823 15.068 2.75244C15.068 3.16665 14.7322 3.50244 14.318 3.50244H1.81802C1.40381 3.50244 1.06802 3.16665 1.06802 2.75244Z" fill="#3C3C3C"/>
<path fill-rule="evenodd" clip-rule="evenodd" d="M1.06799 8.00003C1.06799 7.58582 1.40378 7.25003 1.81799 7.25003H10C10.4142 7.25003 10.75 7.58582 10.75 8.00003C10.75 8.41425 10.4142 8.75003 10 8.75003H1.81799C1.40378 8.75003 1.06799 8.41425 1.06799 8.00003Z" fill="#3C3C3C"/>
<path fill-rule="evenodd" clip-rule="evenodd" d="M1.06802 13.25C1.06802 12.8358 1.40381 12.5 1.81802 12.5H7.00003C7.41424 12.5 7.75003 12.8358 7.75003 13.25C7.75003 13.6642 7.41424 14 7.00003 14H1.81802C1.40381 14 1.06802 13.6642 1.06802 13.25Z" fill="#3C3C3C"/>
</svg>
