<svg width="16" height="16" viewBox="0 0 16 16" fill="none" xmlns="http://www.w3.org/2000/svg">
<path fill-rule="evenodd" clip-rule="evenodd" d="M8 13.5C11.0376 13.5 13.5 11.0376 13.5 8C13.5 4.96243 11.0376 2.5 8 2.5C4.96243 2.5 2.5 4.96243 2.5 8C2.5 11.0376 4.96243 13.5 8 13.5ZM8 15C11.866 15 15 11.866 15 8C15 4.13401 11.866 1 8 1C4.13401 1 1 4.13401 1 8C1 11.866 4.13401 15 8 15Z" fill="#ECEBE8"/>
<path fill-rule="evenodd" clip-rule="evenodd" d="M14.9677 8.67229C14.9268 9.09559 14.5143 9.3626 14.098 9.27553C13.6818 9.18846 13.4207 8.77991 13.4484 8.35555C13.525 7.18196 13.2207 6.00718 12.5695 5.01144C11.9182 4.01571 10.9639 3.26605 9.85802 2.86584C9.45814 2.72114 9.18846 2.31823 9.27553 1.90198C9.3626 1.48573 9.77257 1.2148 10.1767 1.34703C11.6816 1.83936 12.9833 2.83071 13.8583 4.16852C14.7333 5.50633 15.1198 7.09623 14.9677 8.67229Z" fill="#3C3C3C"/>
</svg>
