<svg width="16" height="16" viewBox="0 0 16 16" fill="none" xmlns="http://www.w3.org/2000/svg">
<path fill-rule="evenodd" clip-rule="evenodd" d="M6.87905 1.69838C7.33757 0.769324 8.66237 0.769321 9.12089 1.69838L10.5195 4.5322L13.6468 4.98662C14.6721 5.1356 15.0814 6.39557 14.3395 7.11874L12.0766 9.32456L12.6108 12.4392C12.7859 13.4604 11.7142 14.2391 10.7971 13.757L7.99997 12.2864L5.20283 13.757C4.28579 14.2391 3.214 13.4604 3.38914 12.4392L3.92335 9.32456L1.66041 7.11874C0.918512 6.39557 1.32789 5.1356 2.35317 4.98662L5.48048 4.5322L6.87905 1.69838ZM7.99997 2.81647L6.76742 5.31391C6.58534 5.68284 6.23338 5.93855 5.82624 5.99771L3.07016 6.39819L5.06448 8.34217C5.35909 8.62935 5.49352 9.0431 5.42398 9.44859L4.95318 12.1935L7.4183 10.8975C7.78245 10.7061 8.21749 10.7061 8.58165 10.8975L11.0468 12.1935L10.576 9.44859C10.5064 9.04309 10.6409 8.62935 10.9355 8.34217L12.9298 6.39819L10.1737 5.99771C9.76656 5.93855 9.41461 5.68284 9.23253 5.31391L7.99997 2.81647Z" fill="#3C3C3C"/>
</svg>
