<svg width="16" height="16" viewBox="0 0 16 16" fill="none" xmlns="http://www.w3.org/2000/svg">
<path fill-rule="evenodd" clip-rule="evenodd" d="M8.10501 2.50146C6.37037 2.50146 5.17932 3.67425 5.17932 4.87619C5.17932 6.07491 6.36401 7.24463 8.0911 7.25088L13.2505 7.25374C13.6647 7.25397 14.0003 7.58994 14.0001 8.00416C13.9998 8.41837 13.6639 8.75397 13.2496 8.75374L11.4009 8.75272C11.9724 9.39456 12.3217 10.2081 12.3217 11.1255C12.3217 13.3751 10.2214 15.0002 7.89599 15.0002C6.89048 15.0002 5.9404 14.7035 5.17946 14.1871V14.2502C5.17946 14.6645 4.84367 15.0002 4.42946 15.0002C4.01524 15.0002 3.67946 14.6645 3.67946 14.2502L3.67946 12.1671C3.67946 11.8095 3.93195 11.5016 4.28265 11.4316C4.63335 11.3616 4.98469 11.5489 5.12198 11.8792C5.49257 12.7705 6.54967 13.5002 7.89599 13.5002C9.63062 13.5002 10.8217 12.3275 10.8217 11.1255C10.8217 9.92359 9.63062 8.7508 7.89599 8.7508C7.89373 8.7508 7.89147 8.75079 7.88921 8.75077L2.74965 8.74792C2.33543 8.7477 1.99983 8.41172 2.00006 7.99751C2.00029 7.5833 2.33626 7.2477 2.75048 7.24792L4.60003 7.24895C4.02861 6.60712 3.67932 5.79357 3.67932 4.87619C3.67932 2.62665 5.77959 1.00146 8.10501 1.00146C9.11052 1.00146 10.0606 1.29817 10.8215 1.81465V1.75146C10.8215 1.33725 11.1573 1.00146 11.5715 1.00146C11.9858 1.00146 12.3215 1.33725 12.3215 1.75146V3.83461C12.3215 4.19223 12.069 4.5001 11.7183 4.5701C11.3676 4.64011 11.0163 4.45276 10.879 4.12255C10.5084 3.23122 9.45132 2.50146 8.10501 2.50146Z" fill="#3C3C3C"/>
</svg>
