<svg width="16" height="16" viewBox="0 0 16 16" fill="none" xmlns="http://www.w3.org/2000/svg">
<path fill-rule="evenodd" clip-rule="evenodd" d="M13.5 8C13.5 11.0376 11.0376 13.5 8 13.5C4.96243 13.5 2.5 11.0376 2.5 8C2.5 4.96243 4.96243 2.5 8 2.5C11.0376 2.5 13.5 4.96243 13.5 8ZM15 8C15 11.866 11.866 15 8 15C4.13401 15 1 11.866 1 8C1 4.13401 4.13401 1 8 1C11.866 1 15 4.13401 15 8ZM5.08331 7.25C4.6691 7.25 4.33331 7.58579 4.33331 8C4.33331 8.41421 4.6691 8.75 5.08331 8.75H10.9166C11.3309 8.75 11.6666 8.41421 11.6666 8C11.6666 7.58579 11.3309 7.25 10.9166 7.25H5.08331Z" fill="#3C3C3C"/>
</svg>
