<svg width="16" height="16" viewBox="0 0 16 16" fill="none" xmlns="http://www.w3.org/2000/svg">
<path fill-rule="evenodd" clip-rule="evenodd" d="M13.5 8C13.5 11.0376 11.0376 13.5 8 13.5C4.96243 13.5 2.5 11.0376 2.5 8C2.5 4.96243 4.96243 2.5 8 2.5C11.0376 2.5 13.5 4.96243 13.5 8ZM15 8C15 11.866 11.866 15 8 15C4.13401 15 1 11.866 1 8C1 4.13401 4.13401 1 8 1C11.866 1 15 4.13401 15 8ZM5.80001 5.2L8.78151 5.2L7.56946 6.44878C7.40158 6.62175 7.35351 6.8784 7.44741 7.10041C7.54086 7.32133 7.75684 7.46525 7.99648 7.46666L8.00413 7.46687C8.01295 7.46717 8.02875 7.46787 8.05051 7.46948C8.09423 7.47269 8.16075 7.47944 8.24222 7.49343C8.40791 7.52188 8.62006 7.57769 8.82524 7.68338C9.0277 7.78768 9.21456 7.93565 9.35252 8.14887C9.48861 8.35919 9.60001 8.66805 9.60001 9.13333C9.60001 9.60638 9.49372 9.91951 9.36457 10.1305C9.23486 10.3424 9.06053 10.4864 8.8715 10.5871C8.47485 10.7982 8.04918 10.8 8.00001 10.8C7.08258 10.8 6.73226 10.4613 6.57875 10.224C6.49022 10.0872 6.44417 9.94703 6.4209 9.83912C6.40945 9.78604 6.40416 9.74371 6.40176 9.71782C6.40058 9.70498 6.40011 9.69597 6.39997 9.69267C6.39604 9.36468 6.12894 9.1 5.80001 9.1C5.46864 9.1 5.20001 9.36941 5.20001 9.70078L5.20001 9.7016L5.20002 9.70337L5.20005 9.70739L5.20021 9.7174C5.20037 9.72492 5.20064 9.73414 5.20111 9.74495C5.20204 9.76655 5.20375 9.79463 5.20686 9.82827C5.21306 9.89535 5.22495 9.98584 5.24787 10.0921C5.29335 10.303 5.38481 10.5878 5.57127 10.876C5.96776 11.4887 6.71745 12 8.00001 12H8.0014C8.09987 12 8.77092 12.0001 9.43543 11.6463C9.77859 11.4636 10.1275 11.1826 10.388 10.757C10.6491 10.3305 10.8 9.79362 10.8 9.13333C10.8 8.46528 10.6364 7.92414 10.36 7.49696C10.0855 7.07268 9.72233 6.79565 9.37479 6.61661C9.30644 6.58141 9.23837 6.54981 9.17123 6.52143L10.6306 5.01789C10.7984 4.84491 10.8465 4.58826 10.7526 4.36626C10.6587 4.14425 10.4407 4 10.1997 4L5.80001 4C5.46864 4 5.20001 4.26863 5.20001 4.6C5.20001 4.93137 5.46864 5.2 5.80001 5.2ZM5.80001 9.7L5.20001 9.70078C5.20001 9.70039 5.20001 9.7 5.80001 9.7Z" fill="#3C3C3C"/>
</svg>
