<svg width="16" height="16" viewBox="0 0 16 16" fill="none" xmlns="http://www.w3.org/2000/svg">
<path fill-rule="evenodd" clip-rule="evenodd" d="M8.256 14.5672C9.016 15.436 10.4468 14.8985 10.4468 13.7442V11.463L12.9648 11.4631C13.2542 11.4656 13.5411 11.4066 13.8059 11.2896C14.0722 11.172 14.3104 10.9984 14.5033 10.78C14.6963 10.5616 14.8394 10.3037 14.9219 10.0239C15.0045 9.74413 15.0243 9.44972 14.9798 9.16136L14.9791 9.15688L14.1035 3.69896C14.1033 3.69811 14.1032 3.69727 14.1031 3.69642C14.0286 3.21743 13.7815 2.78347 13.4103 2.47297C13.0399 2.16318 12.5706 1.99651 12.0885 2.00077H3.02396C2.49205 2.00077 1.97955 2.20861 1.59983 2.5823C1.2197 2.9564 1.00391 3.46635 1.00391 4.00066V8.37529C1.00391 8.90961 1.2197 9.41956 1.59983 9.79366C1.97955 10.1674 2.49205 10.3752 3.02396 10.3752H4.58867L8.256 14.5672ZM4.17904 8.87519H3.02396C2.8822 8.87519 2.74861 8.81965 2.65197 8.72455C2.55573 8.62984 2.50391 8.50396 2.50391 8.37529V4.00066C2.50391 3.87199 2.55573 3.74612 2.65197 3.65141C2.74861 3.55631 2.8822 3.50077 3.02396 3.50077H4.17904V8.87519ZM5.67904 3.50077H12.1005C12.2293 3.49934 12.3526 3.54384 12.4478 3.62351C12.5428 3.70293 12.6031 3.81132 12.621 3.92741L12.6217 3.93198L13.4973 9.39001C13.4974 9.39058 13.4975 9.39116 13.4976 9.39174C13.508 9.4611 13.5032 9.53189 13.4832 9.59952C13.4631 9.66774 13.4279 9.73174 13.3792 9.78679C13.3306 9.84189 13.2695 9.88674 13.1999 9.9175C13.1302 9.94827 13.0541 9.96397 12.9769 9.96311L12.9685 9.96302L10.1968 9.96303C9.50645 9.96302 8.9468 10.5227 8.9468 11.213V13.0787L5.67904 9.34343V3.50077Z" fill="#3C3C3C"/>
</svg>
