<svg width="16" height="16" viewBox="0 0 16 16" fill="none" xmlns="http://www.w3.org/2000/svg">
<path fill-rule="evenodd" clip-rule="evenodd" d="M2.04058 1.15589C1.75808 1.00779 1.40087 1.05246 1.16343 1.2899C0.870977 1.58236 0.870978 2.05652 1.16344 2.34898L1.20623 2.39178C1.07687 2.56031 0.999983 2.77123 0.999983 3.0001V13.0001C0.999983 13.5524 1.4477 14.0001 1.99998 14.0001H11C11.494 14.0001 11.9044 13.6419 11.9854 13.171L13.7774 14.963C14.0699 15.2555 14.5441 15.2555 14.8365 14.963C15.074 14.7256 15.1186 14.3683 14.9705 14.0858L2.04058 1.15589ZM13.7978 11.4989L13.8721 11.5422C14.3721 11.8339 15 11.4732 15 10.8944V5.10593C15 4.52709 14.3721 4.16643 13.8721 4.4581L12 5.55015V3.0001C12 2.44782 11.5523 2.0001 11 2.0001H4.29901L5.79901 3.5001H10.5V3.95359C10.499 3.96897 10.4986 3.98448 10.4986 4.0001V8.19966L13.7978 11.4989ZM2.49998 12.5001V3.68553L10.5 11.6855V12.5001H2.49998ZM11.9986 8.71277L13.5 9.5886V6.41171L11.9986 7.28754V8.71277Z" fill="#3C3C3C"/>
</svg>
