<svg width="24" height="24" viewBox="0 0 24 24" fill="none" xmlns="http://www.w3.org/2000/svg">
    <g>
        <path fill-rule="evenodd" clip-rule="evenodd"
              d="M2.07715 0.697503L1.66538 0.285735C1.2844 -0.0952449 0.666714 -0.0952449 0.285735 0.285735C-0.0952449 0.666714 -0.0952449 1.2844 0.285735 1.66538L3.00523 4.38488C2.87105 4.70443 2.80015 5.04871 2.80015 5.40001V17.6813C2.80015 18.4004 3.09724 19.0901 3.62608 19.5986C4.15491 20.1071 4.87217 20.3927 5.62006 20.3927H19.0131L22.3346 23.7143C22.7156 24.0952 23.3333 24.0952 23.7143 23.7143C24.0793 23.3493 24.0946 22.767 23.7602 22.3838L2.1231 0.746682C2.10712 0.730694 2.0918 0.71429 2.07715 0.697503ZM4.79067 6.17032V17.6813C4.79067 17.8928 4.87805 18.0956 5.03359 18.2452C5.18913 18.3948 5.40009 18.4788 5.62006 18.4788H17.0991L4.79067 6.17032Z"
              fill="currentColor"/>
        <path
            d="M22.8321 18.6964C22.9662 18.3768 23.0371 18.0326 23.0371 17.6813V8.03171C23.0371 7.31259 22.74 6.62292 22.2112 6.11443C21.6824 5.60593 20.9651 5.32026 20.2172 5.32026H12.539L11.0098 3.1147C10.8252 2.84847 10.5144 2.68856 10.1817 2.68856H6.82428L8.73824 4.60252H9.64902L11.1782 6.80808C11.3628 7.07431 11.6736 7.23422 12.0063 7.23422H20.2172C20.4372 7.23422 20.6482 7.31825 20.8037 7.4678C20.9592 7.61736 21.0466 7.8202 21.0466 8.03171V16.9109L22.8321 18.6964Z"
            fill="currentColor"/>
    </g>
</svg>
