<svg width="16" height="16" viewBox="0 0 16 16" fill="none" xmlns="http://www.w3.org/2000/svg">
    <path fill-rule="evenodd" clip-rule="evenodd"
          d="M3.33331 4.66666C3.1565 4.66666 2.98693 4.7369 2.86191 4.86192C2.73688 4.98695 2.66665 5.15652 2.66665 5.33333V12.6667C2.66665 12.8435 2.73688 13.013 2.86191 13.1381C2.98693 13.2631 3.1565 13.3333 3.33331 13.3333H10.6666C10.8435 13.3333 11.013 13.2631 11.1381 13.1381C11.2631 13.013 11.3333 12.8435 11.3333 12.6667V8.66666C11.3333 8.29847 11.6318 7.99999 12 7.99999C12.3682 7.99999 12.6666 8.29847 12.6666 8.66666V12.6667C12.6666 13.1971 12.4559 13.7058 12.0809 14.0809C11.7058 14.4559 11.1971 14.6667 10.6666 14.6667H3.33331C2.80288 14.6667 2.29417 14.4559 1.9191 14.0809C1.54403 13.7058 1.33331 13.1971 1.33331 12.6667V5.33333C1.33331 4.8029 1.54403 4.29419 1.9191 3.91911C2.29417 3.54404 2.80288 3.33333 3.33331 3.33333H7.33331C7.7015 3.33333 7.99998 3.63181 7.99998 3.99999C7.99998 4.36818 7.7015 4.66666 7.33331 4.66666H3.33331Z"
          fill="currentColor"/>
    <path fill-rule="evenodd" clip-rule="evenodd"
          d="M9.33331 1.99999C9.33331 1.63181 9.63179 1.33333 9.99998 1.33333H14C14.3682 1.33333 14.6666 1.63181 14.6666 1.99999V5.99999C14.6666 6.36818 14.3682 6.66666 14 6.66666C13.6318 6.66666 13.3333 6.36818 13.3333 5.99999V2.66666H9.99998C9.63179 2.66666 9.33331 2.36818 9.33331 1.99999Z"
          fill="currentColor"/>
    <path fill-rule="evenodd" clip-rule="evenodd"
          d="M14.4714 1.52859C14.7318 1.78894 14.7318 2.21105 14.4714 2.4714L7.13807 9.80473C6.87772 10.0651 6.45561 10.0651 6.19526 9.80473C5.93491 9.54438 5.93491 9.12227 6.19526 8.86192L13.5286 1.52859C13.7889 1.26824 14.2111 1.26824 14.4714 1.52859Z"
          fill="currentColor"/>
</svg>
