<svg width="24" height="24" viewBox="0 0 24 24" fill="none" xmlns="http://www.w3.org/2000/svg">
    <path fill-rule="evenodd" clip-rule="evenodd"
          d="M14.1856 3.94384C14.7458 3.56932 15.4764 3.56932 16.0366 3.94384L20.9255 7.21271C21.3876 7.52169 21.665 8.04092 21.665 8.59682V15.4032C21.665 15.9591 21.3876 16.4783 20.9255 16.7873L16.0366 20.0562C15.4764 20.4307 14.7458 20.4307 14.1856 20.0562L12.8526 19.1649L13.5919 18.0592L14.9249 18.9506C15.0376 19.0259 15.1846 19.0259 15.2973 18.9506L20.1862 15.6817C20.2792 15.6195 20.335 15.515 20.335 15.4032V8.59682C20.335 8.48497 20.2792 8.3805 20.1862 8.31833L15.2973 5.04946C15.1846 4.97411 15.0376 4.97411 14.9249 5.04946L13.5919 5.94077L12.8526 4.83515L14.1856 3.94384Z"
          fill="currentColor"/>
    <path fill-rule="evenodd" clip-rule="evenodd"
          d="M9.88886 4.54057L3.52086 8.2631V15.7369L9.88886 19.4594L16.2569 15.7369V8.2631L9.88886 4.54057ZM10.3935 3.29501C10.0818 3.11276 9.69596 3.11276 9.3842 3.29501L2.68619 7.21044C2.37942 7.38977 2.19086 7.71842 2.19086 8.07376V15.9262C2.19086 16.2816 2.37942 16.6102 2.68619 16.7896L9.3842 20.705C9.69596 20.8872 10.0818 20.8872 10.3935 20.705L17.0915 16.7896C17.3983 16.6102 17.5869 16.2816 17.5869 15.9262V8.07376C17.5869 7.71842 17.3983 7.38977 17.0915 7.21044L10.3935 3.29501Z"
          fill="currentColor"/>
    <path
        d="M11.5 12C11.5 12.8284 10.8284 13.5 10 13.5C9.17157 13.5 8.5 12.8284 8.5 12C8.5 11.1716 9.17157 10.5 10 10.5C10.8284 10.5 11.5 11.1716 11.5 12Z"
        fill="currentColor"/>
</svg>
