<svg xmlns="http://www.w3.org/2000/svg" width="24" height="24" fill="none"><path fill="inherit" fill-rule="evenodd" d="M2.344 1.5a.844.844 0 0 0-.844.844v19.312c0 .466.378.844.844.844h19.312a.844.844 0 0 0 .844-.844V2.344a.844.844 0 0 0-.844-.844H2.344ZM0 2.344A2.344 2.344 0 0 1 2.344 0h19.312A2.344 2.344 0 0 1 24 2.344v19.312A2.344 2.344 0 0 1 21.656 24H2.344A2.344 2.344 0 0 1 0 21.656V2.344Z" clip-rule="evenodd"/><path fill="inherit" fill-rule="evenodd" d="M13.857 18.098v2.347c.381.195.832.342 1.353.44.52.097 1.07.146 1.647.146.562 0 1.097-.053 1.603-.161a3.93 3.93 0 0 0 1.331-.532c.382-.247.684-.57.907-.968.222-.398.333-.89.333-1.477 0-.426-.063-.798-.19-1.119a2.614 2.614 0 0 0-.55-.854 4.03 4.03 0 0 0-.863-.67 9.237 9.237 0 0 0-1.133-.562c-.308-.127-.585-.25-.83-.37a4.21 4.21 0 0 1-.623-.367 1.599 1.599 0 0 1-.396-.396.834.834 0 0 1-.14-.473.79.79 0 0 1 .125-.436c.084-.13.201-.24.353-.334.151-.093.337-.165.557-.216.22-.052.465-.077.734-.077a4.912 4.912 0 0 1 1.276.18c.22.06.434.138.642.23.208.093.4.2.576.323V10.56a5.728 5.728 0 0 0-1.17-.305 9.536 9.536 0 0 0-1.456-.099c-.558 0-1.086.06-1.585.18-.499.12-.938.307-1.317.56-.379.255-.678.579-.898.972-.22.394-.33.865-.33 1.412 0 .7.201 1.296.605 1.79.403.493 1.016.911 1.837 1.253.323.133.624.262.903.389.278.127.52.26.722.396.203.137.364.286.48.447a.91.91 0 0 1 .067.972.974.974 0 0 1-.334.337c-.149.096-.335.17-.557.224-.223.054-.483.08-.782.08a4.51 4.51 0 0 1-2.898-1.07Zm-3.945-5.782h3.01v-1.925h-8.39v1.925h2.995v8.575h2.385v-8.575Z" clip-rule="evenodd"/></svg>
