<svg width="16" height="16" viewBox="0 0 16 16" fill="none" xmlns="http://www.w3.org/2000/svg">
    <path d="M3.68161 8.67821L2.04863 2.02685L0 2.01516L0.106684 2.32863L2.92088 12.644L3.31865 14.1063H4.22666L4.59378 12.6247L5.8046 7.73263L5.09441 4.66969L4.93339 4.10848L3.72879 8.74699L3.68161 8.67821Z" fill="currentColor"/>
    <path d="M7.91788 8.53919L6.23775 2.02685L4.22249 2L4.30952 2.24979L4.96948 4.6721L5.8049 7.73233L7.12338 12.5666L7.54245 14.1063H8.39058L8.79248 12.5552L11.0372 3.90966L13.2221 3.89141L10.7283 8.32895L12.0705 8.44044C12.1342 8.44665 13.7496 8.61694 14.1398 9.96916C14.4361 10.9928 14.233 11.8974 13.5996 12.3921C13.1148 12.7692 12.4779 12.8074 11.9363 12.4923C11.4815 12.227 11.4109 11.9314 11.2915 11.4408C11.273 11.3647 11.2544 11.286 11.233 11.2058L9.56118 11.6472C9.57942 11.7102 9.59454 11.777 9.61175 11.8488C9.7566 12.4461 9.9744 13.3497 11.0638 13.9845C12.2123 14.6534 13.624 14.5639 14.6621 13.7554C15.855 12.8254 16.293 11.1906 15.802 9.49021C15.3888 8.05678 14.3129 7.36036 13.4454 7.02388L15.5752 3.23353L15.5123 2.02722L9.68913 2.04926L7.96361 8.60838L7.91788 8.53919Z" fill="currentColor"/>
</svg>
