<svg width="16" height="16" viewBox="0 0 16 16" fill="none" xmlns="http://www.w3.org/2000/svg">
<path fill-rule="evenodd" clip-rule="evenodd" d="M8 13.5C11.0376 13.5 13.5 11.0376 13.5 8C13.5 4.96243 11.0376 2.5 8 2.5C4.96243 2.5 2.5 4.96243 2.5 8C2.5 11.0376 4.96243 13.5 8 13.5ZM8 15C11.866 15 15 11.866 15 8C15 4.13401 11.866 1 8 1C4.13401 1 1 4.13401 1 8C1 11.866 4.13401 15 8 15ZM4.33331 8C4.33331 7.58579 4.6691 7.25 5.08331 7.25H7.24998V5.08334C7.24998 4.66912 7.58577 4.33334 7.99998 4.33334C8.41419 4.33334 8.74998 4.66912 8.74998 5.08334V7.25H10.9166C11.3309 7.25 11.6666 7.58579 11.6666 8C11.6666 8.41422 11.3309 8.75 10.9166 8.75H8.74998V10.9167C8.74998 11.3309 8.41419 11.6667 7.99998 11.6667C7.58577 11.6667 7.24998 11.3309 7.24998 10.9167V8.75H5.08331C4.6691 8.75 4.33331 8.41422 4.33331 8Z" fill="#3C3C3C"/>
</svg>
