<svg width="16" height="16" viewBox="0 0 16 16" fill="none" xmlns="http://www.w3.org/2000/svg">
<path fill-rule="evenodd" clip-rule="evenodd" d="M5.75 1C6.16421 1 6.5 1.33579 6.5 1.75V2H9.50024V1.75C9.50024 1.33579 9.83603 1 10.2502 1C10.6645 1 11.0002 1.33579 11.0002 1.75V2H13C13.5523 2 14 2.44772 14 3V13C14 13.5523 13.5523 14 13 14H3C2.44772 14 2 13.5523 2 13V3C2 2.44772 2.44772 2 3 2H5V1.75C5 1.33579 5.33579 1 5.75 1ZM9.54292 3.5C9.64588 3.7913 9.92369 4 10.2502 4C10.5768 4 10.8546 3.7913 10.9576 3.5H12.5V12.5H3.5V3.5H5.04268C5.14564 3.7913 5.42345 4 5.75 4C6.07655 4 6.35436 3.7913 6.45732 3.5H9.54292ZM8 5.25C8.41421 5.25 8.75 5.58579 8.75 6V7.25H10C10.4142 7.25 10.75 7.58579 10.75 8C10.75 8.41421 10.4142 8.75 10 8.75H8.75V10C8.75 10.4142 8.41421 10.75 8 10.75C7.58579 10.75 7.25 10.4142 7.25 10V8.75H6C5.58579 8.75 5.25 8.41421 5.25 8C5.25 7.58579 5.58579 7.25 6 7.25H7.25V6C7.25 5.58579 7.58579 5.25 8 5.25Z" fill="#3C3C3C"/>
</svg>
