<svg width="16" height="16" viewBox="0 0 16 16" fill="none" xmlns="http://www.w3.org/2000/svg">
<path fill-rule="evenodd" clip-rule="evenodd" d="M7.98436 2.50174C4.95678 2.50174 2.50244 4.95608 2.50244 7.98366C2.50244 9.54672 3.15661 10.957 4.20611 11.9556C4.63469 11.0485 5.30352 10.2861 6.13187 9.79584C5.42887 9.24365 4.97729 8.38584 4.97729 7.42256C4.97729 5.75678 6.32767 4.4064 7.99345 4.4064C9.65922 4.4064 11.0096 5.75678 11.0096 7.42256C11.0096 8.31348 10.6233 9.11419 10.0091 9.66633C10.2089 9.76743 10.4055 9.88343 10.5953 10.0126C10.9378 10.2456 11.0265 10.7121 10.7934 11.0546C10.5604 11.397 10.0939 11.4857 9.75144 11.2527C9.18875 10.8698 8.63465 10.7052 8.27498 10.7052C7.07277 10.7052 5.95961 11.5385 5.45336 12.8476C6.21051 13.2424 7.07137 13.4656 7.98436 13.4656C8.39858 13.4656 8.73436 13.8014 8.73436 14.2156C8.73436 14.6298 8.39858 14.9656 7.98436 14.9656C4.12835 14.9656 1.00244 11.8397 1.00244 7.98366C1.00244 4.12765 4.12835 1.00174 7.98436 1.00174C11.8404 1.00174 14.9663 4.12765 14.9663 7.98366C14.9663 8.39788 14.6305 8.73366 14.2163 8.73366C13.8021 8.73366 13.4663 8.39788 13.4663 7.98366C13.4663 4.95608 11.0119 2.50174 7.98436 2.50174ZM12.7012 10.055C13.1154 10.055 13.4512 10.3908 13.4512 10.805V11.9301H14.5762C14.9904 11.9301 15.3262 12.2658 15.3262 12.6801C15.3262 13.0943 14.9904 13.4301 14.5762 13.4301H13.4512V14.555C13.4512 14.9692 13.1154 15.305 12.7012 15.305C12.287 15.305 11.9512 14.9692 11.9512 14.555V13.4301H10.8262C10.412 13.4301 10.0762 13.0943 10.0762 12.6801C10.0762 12.2658 10.412 11.9301 10.8262 11.9301H11.9512V10.805C11.9512 10.3908 12.287 10.055 12.7012 10.055ZM7.99345 5.9064C7.1561 5.9064 6.47729 6.58521 6.47729 7.42256C6.47729 8.25991 7.1561 8.93871 7.99345 8.93871C8.8308 8.93871 9.5096 8.25991 9.5096 7.42256C9.5096 6.58521 8.8308 5.9064 7.99345 5.9064Z" fill="#3C3C3C"/>
</svg>
