<svg width="16" height="16" viewBox="0 0 16 16" fill="none" xmlns="http://www.w3.org/2000/svg">
<path fill-rule="evenodd" clip-rule="evenodd" d="M13.5 8C13.5 11.0376 11.0376 13.5 8 13.5C4.96243 13.5 2.5 11.0376 2.5 8C2.5 4.96243 4.96243 2.5 8 2.5C11.0376 2.5 13.5 4.96243 13.5 8ZM15 8C15 11.866 11.866 15 8 15C4.13401 15 1 11.866 1 8C1 4.13401 4.13401 1 8 1C11.866 1 15 4.13401 15 8ZM10.1791 4.4235C11.01 4.25732 11.7426 4.98991 11.5765 5.82083L10.7724 9.84108C10.6784 10.3111 10.311 10.6786 9.84092 10.7726L5.82089 11.5769C4.98999 11.7431 4.25735 11.0105 4.42349 10.1796L5.22734 6.15916C5.32134 5.68905 5.6888 5.32157 6.15891 5.22754L10.1791 4.4235ZM10.0137 5.9863L6.65738 6.65756L5.98628 10.0141L9.34239 9.34264L10.0137 5.9863ZM8.875 8C8.875 8.48325 8.48325 8.875 8 8.875C7.51675 8.875 7.125 8.48325 7.125 8C7.125 7.51675 7.51675 7.125 8 7.125C8.48325 7.125 8.875 7.51675 8.875 8Z" fill="#3C3C3C"/>
</svg>
