<svg width="16" height="16" viewBox="0 0 16 16" fill="none" xmlns="http://www.w3.org/2000/svg">
<path fill-rule="evenodd" clip-rule="evenodd" d="M6.08383 2.00012C7.1903 2.02667 8.24161 2.48778 9.01051 3.28329C9.04517 3.31496 9.0741 3.34593 9.09276 3.36589L9.09641 3.3698C9.12053 3.39558 9.13265 3.40815 9.14552 3.4196C9.15303 3.42627 9.16029 3.43322 9.16729 3.44042C9.51052 3.79377 9.92565 4.06927 10.3846 4.24829C10.8433 4.42722 11.335 4.50559 11.8266 4.47812C12.0091 4.46712 12.19 4.44189 12.3677 4.40286L12.3858 4.39884C12.5068 4.37158 12.6263 4.33791 12.7438 4.29798L12.7438 4.29797C12.9279 4.23538 13.107 4.1574 13.2791 4.06459C13.4178 3.98977 13.5871 4.00085 13.7149 4.0931C13.8427 4.18535 13.9065 4.34254 13.8792 4.49777C13.851 4.65812 13.8138 4.81606 13.7678 4.97091C13.713 5.15586 13.6458 5.3364 13.5669 5.51137C13.5524 5.54346 13.5375 5.57537 13.5223 5.60708C13.2798 6.11091 12.939 6.56561 12.5157 6.94246C11.7989 7.5806 10.8877 7.95816 9.92961 8.01402C9.92164 8.01448 9.91366 8.01472 9.90568 8.01472L9.57736 8.01471C9.29923 8.01404 9.02215 7.98069 8.75183 7.91534C8.45715 7.85756 8.1564 7.8368 7.85655 7.85356C7.31776 7.88649 6.79427 8.04575 6.32842 8.31849C6.06914 8.47029 5.83177 8.65486 5.62182 8.86694L5.62077 8.868C5.59635 8.89269 5.57231 8.91775 5.54864 8.94317L5.52304 8.97098C5.45554 9.0451 5.39123 9.12222 5.33033 9.20216L6.7647 13.1408C6.86977 13.4293 6.72105 13.7484 6.43252 13.8534C6.14401 13.9585 5.82497 13.8098 5.7199 13.5213L3.46682 7.33456L2.33678 4.23396C2.33563 4.23068 2.33467 4.22725 2.33389 4.22367L2.03396 3.4001C1.92889 3.11158 2.07761 2.79251 2.36614 2.68745C2.65465 2.5824 2.97369 2.73111 3.07876 3.01961L3.10952 3.10408C3.37909 2.85697 3.68033 2.64524 4.00612 2.47484C4.53827 2.19651 5.12365 2.03486 5.72322 2.00067C5.73101 2.00022 5.73882 2 5.74663 2H6.07396L6.08383 2.00012ZM9.83946 5.64572C10.3179 5.83236 10.8215 5.94281 11.3317 5.97416C10.9081 6.28979 10.4014 6.47824 9.87134 6.51474L9.57943 6.51473C9.41934 6.51423 9.25987 6.49497 9.10428 6.45736C9.08312 6.45224 9.06184 6.44759 9.04046 6.44339C8.62323 6.36158 8.19739 6.33219 7.77284 6.35592L7.77284 6.3559L7.76506 6.35637C6.99131 6.40366 6.23954 6.63237 5.57055 7.02404C5.39727 7.12549 5.23081 7.23713 5.07195 7.35821L3.9771 4.35415C4.18557 4.13189 4.43028 3.94576 4.70133 3.80399C5.03609 3.6289 5.40353 3.52541 5.78025 3.49998H6.05979C6.76773 3.52009 7.43974 3.81648 7.93196 4.32574C7.95042 4.34484 7.96939 4.36345 7.98885 4.38155L7.99666 4.38988L7.99682 4.39005L8.00046 4.39395L8.00099 4.39451L8.00472 4.39851L8.00473 4.39851C8.02261 4.41768 8.0627 4.46065 8.11416 4.5089C8.60261 5.00513 9.19054 5.39259 9.83946 5.64572ZM3.73878 4.66238C3.73873 4.6624 3.73947 4.6609 3.74115 4.6578L3.73878 4.66238Z" fill="#3C3C3C"/>
</svg>
