<svg width="16" height="16" viewBox="0 0 16 16" fill="none" xmlns="http://www.w3.org/2000/svg">
<path fill-rule="evenodd" clip-rule="evenodd" d="M2.82127 5.56214C2.83141 5.54763 2.84206 5.53348 2.8532 5.51972C3.50614 4.71343 4.3151 4.38613 5.17638 4.48002C5.96626 4.56612 6.70369 4.997 7.32167 5.46726C7.68058 5.74038 8.02777 6.0494 8.35268 6.35981C8.42734 6.15905 8.54107 5.96802 8.70233 5.79929C9.0204 5.4665 9.45189 5.2952 9.9216 5.24583C10.3119 5.20481 10.6691 5.34188 10.9448 5.50079C11.2301 5.66523 11.5028 5.89569 11.7521 6.15393C12.2519 6.67156 12.7305 7.37626 13.0973 8.13748C13.4633 8.89713 13.7401 9.75891 13.7934 10.5949C13.8467 11.431 13.678 12.3178 13.0555 13.0039C12.0662 14.0943 10.8269 14.7656 9.48888 14.8963C8.14728 15.0273 6.77842 14.6075 5.5499 13.6461C4.42947 12.7692 3.19711 11.6113 2.50993 10.2554C2.16127 9.5674 1.94196 8.80712 1.96673 7.99654C1.99168 7.17983 2.26317 6.36085 2.82127 5.56214ZM4.03528 6.44372C3.63989 7.01734 3.48107 7.54999 3.46603 8.04235C3.4506 8.54725 3.58517 9.05883 3.84792 9.57728C4.38355 10.6342 5.40411 11.6272 6.47436 12.4648C7.43651 13.2178 8.42949 13.4926 9.34311 13.4034C10.2603 13.3138 11.1696 12.8502 11.9445 11.9961C12.2041 11.71 12.334 11.2792 12.2964 10.6903C12.2589 10.1014 12.0554 9.43084 11.746 8.78862C11.4373 8.14796 11.0451 7.58126 10.673 7.19582C10.4864 7.00253 10.3227 6.87355 10.1958 6.80036C10.1171 6.75503 10.0735 6.74285 10.0602 6.73966C9.86411 6.76328 9.80059 6.82116 9.78671 6.83569C9.77402 6.84897 9.74062 6.89004 9.73705 7.01166C9.72885 7.29106 9.89531 7.791 10.3593 8.35017C10.6056 8.64689 10.5867 9.08198 10.3157 9.35626C10.0447 9.63055 9.60985 9.65464 9.31019 9.41197C8.99802 9.15917 8.6144 8.76198 8.22684 8.36071C8.14233 8.27321 8.05762 8.18551 7.97343 8.09907C7.47597 7.58833 6.94807 7.06788 6.41332 6.66095C5.86582 6.24433 5.39472 6.01271 5.01383 5.97119C4.70903 5.93796 4.39013 6.01501 4.03528 6.44372Z" fill="#3C3C3C"/>
<path fill-rule="evenodd" clip-rule="evenodd" d="M12.3505 5.625C11.9918 5.41789 11.8689 4.9592 12.076 4.60048L12.826 3.30144C13.0331 2.94272 13.4918 2.81982 13.8505 3.02692C14.2092 3.23403 14.3321 3.69272 14.125 4.05144L13.375 5.35048C13.1679 5.7092 12.7092 5.83211 12.3505 5.625Z" fill="#3C3C3C"/>
<path fill-rule="evenodd" clip-rule="evenodd" d="M9.27555 4.30589C8.87545 4.19868 8.63802 3.78743 8.74522 3.38733L9.13345 1.93844C9.24066 1.53834 9.65191 1.3009 10.052 1.40811C10.4521 1.51531 10.6895 1.92657 10.5823 2.32667L10.1941 3.77556C10.0869 4.17566 9.67565 4.41309 9.27555 4.30589Z" fill="#3C3C3C"/>
<path fill-rule="evenodd" clip-rule="evenodd" d="M6.27555 4.19411C5.87545 4.30132 5.4642 4.06388 5.35699 3.66378L5.22758 3.18082C5.12038 2.78072 5.35781 2.36947 5.75791 2.26226C6.15801 2.15506 6.56927 2.39249 6.67647 2.79259L6.80588 3.27556C6.91309 3.67566 6.67565 4.08691 6.27555 4.19411Z" fill="#3C3C3C"/>
</svg>
