<svg width="16" height="16" viewBox="0 0 16 16" fill="none" xmlns="http://www.w3.org/2000/svg">
<path fill-rule="evenodd" clip-rule="evenodd" d="M1 3.25391C1 2.56355 1.55964 2.00391 2.25 2.00391H13.75C14.4404 2.00391 15 2.56355 15 3.25391V4.5C15 5.10433 14.5711 5.6085 14.0011 5.72476V12.7488C14.0011 13.4391 13.4415 13.9988 12.7511 13.9988H3.24884C2.55848 13.9988 1.99884 13.4391 1.99884 12.7488V5.72476C1.42886 5.60849 1 5.10433 1 4.5V3.25391ZM3.49884 5.75H12.5011V12.4988H3.49884V5.75ZM13.5 4.25H12.7511H3.24884H2.5V3.50391H13.5V4.25ZM6.24988 7.00342C5.83566 7.00342 5.49988 7.3392 5.49988 7.75342C5.49988 8.16763 5.83566 8.50342 6.24988 8.50342H9.7501C10.1643 8.50342 10.5001 8.16763 10.5001 7.75342C10.5001 7.3392 10.1643 7.00342 9.7501 7.00342H6.24988Z" fill="#3C3C3C"/>
</svg>
