<svg width="16" height="16" viewBox="0 0 16 16" fill="none" xmlns="http://www.w3.org/2000/svg">
<path fill-rule="evenodd" clip-rule="evenodd" d="M7.46832 1.22852L2.36341 6.33336C2.07052 6.62625 2.07051 7.10113 2.3634 7.39402C2.6563 7.68692 3.13117 7.68692 3.42406 7.39403L7.2561 3.56204V14.2581C7.2561 14.6723 7.59189 15.0081 8.0061 15.0081C8.42032 15.0081 8.7561 14.6723 8.7561 14.2581V3.5617L12.5882 7.39388C12.8811 7.68678 13.356 7.68678 13.6489 7.39389C13.9418 7.101 13.9418 6.62613 13.6489 6.33323L8.53657 1.22083C8.24368 0.927938 7.7688 0.927935 7.47591 1.22083C7.47336 1.22338 7.47083 1.22594 7.46832 1.22852Z" fill="#3C3C3C"/>
</svg>
