<svg width="16" height="16" viewBox="0 0 16 16" fill="none" xmlns="http://www.w3.org/2000/svg">
<path fill-rule="evenodd" clip-rule="evenodd" d="M12.4487 7.2544L8.61671 3.42236C8.32382 3.12946 8.32382 2.65459 8.61672 2.36169C8.90962 2.0688 9.38449 2.06881 9.67738 2.3617L14.7803 7.46467C14.7835 7.46779 14.7867 7.47095 14.7899 7.47414C15.0828 7.76704 15.0828 8.24191 14.7899 8.5348L9.67751 13.6471C9.38461 13.94 8.90974 13.94 8.61685 13.6471C8.32396 13.3542 8.32396 12.8794 8.61686 12.5865L12.449 8.7544L1.75269 8.75439C1.33847 8.75439 1.00269 8.41861 1.00269 8.00439C1.00269 7.59018 1.33847 7.25439 1.75269 7.25439L12.4487 7.2544Z" fill="#3C3C3C"/>
</svg>
