<svg width="16" height="16" viewBox="0 0 16 16" fill="none" xmlns="http://www.w3.org/2000/svg">
<path fill-rule="evenodd" clip-rule="evenodd" d="M8.00629 1.00122C7.59208 1.00122 7.25629 1.33701 7.25629 1.75122L7.25629 12.4476L3.42416 8.61539C3.13127 8.3225 2.6564 8.32249 2.3635 8.61538C2.07061 8.90827 2.0706 9.38315 2.3635 9.67604L7.47582 14.7884C7.76871 15.0813 8.24359 15.0813 8.53648 14.7885C8.53904 14.7859 8.54157 14.7833 8.54409 14.7807L13.649 9.67591C13.9419 9.38302 13.9419 8.90815 13.649 8.61525C13.3561 8.32236 12.8812 8.32236 12.5883 8.61525L8.75629 12.4472L8.75629 1.75122C8.75629 1.33701 8.42051 1.00122 8.00629 1.00122Z" fill="#3C3C3C"/>
</svg>
