<svg width="16" height="16" viewBox="0 0 16 16" fill="none" xmlns="http://www.w3.org/2000/svg">
<path fill-rule="evenodd" clip-rule="evenodd" d="M8.41668 2.74994C8.41668 2.33573 8.75246 1.99994 9.16668 1.99994H13.25C13.6642 1.99994 14 2.33573 14 2.74994V6.83327C14 7.24749 13.6642 7.58327 13.25 7.58327C12.8358 7.58327 12.5 7.24749 12.5 6.83327V4.56084L4.56074 12.5001H6.8333C7.24752 12.5001 7.5833 12.8359 7.5833 13.2501C7.5833 13.6643 7.24752 14.0001 6.8333 14.0001H2.74997C2.33576 14.0001 1.99997 13.6643 1.99997 13.2501V9.16677C1.99997 8.75256 2.33576 8.41677 2.74997 8.41677C3.16418 8.41677 3.49997 8.75256 3.49997 9.16677L3.49997 11.4396L11.4396 3.49994L9.16668 3.49994C8.75246 3.49994 8.41668 3.16415 8.41668 2.74994Z" fill="#3C3C3C"/>
</svg>
