<svg width="16" height="16" viewBox="0 0 16 16" fill="none" xmlns="http://www.w3.org/2000/svg">
<path fill-rule="evenodd" clip-rule="evenodd" d="M7.39547 3.42258L3.56335 7.25464L14.2596 7.25464C14.6739 7.25464 15.0096 7.59043 15.0096 8.00464C15.0096 8.41886 14.6739 8.75464 14.2596 8.75464L3.56363 8.75464L7.39562 12.5867C7.68851 12.8796 7.6885 13.3545 7.39561 13.6473C7.10271 13.9402 6.62784 13.9402 6.33495 13.6473L1.23206 8.54438C1.22883 8.54125 1.22561 8.53809 1.22241 8.5349C0.929521 8.242 0.929525 7.76713 1.22242 7.47424L6.33482 2.36191C6.62771 2.06902 7.10259 2.06902 7.39548 2.36192C7.68837 2.65481 7.68837 3.12969 7.39547 3.42258Z" fill="#3C3C3C"/>
</svg>
