<svg width="16" height="16" viewBox="0 0 16 16" fill="none" xmlns="http://www.w3.org/2000/svg">
<path d="M11.4251 1.99866C11.8393 1.99866 12.1751 2.33444 12.1751 2.74866L12.1751 11.4346L13.7231 9.88663C14.016 9.59374 14.4909 9.59375 14.7837 9.88664C15.0766 10.1795 15.0766 10.6544 14.7837 10.9473L11.9625 13.7685C11.9407 13.7909 11.9176 13.8119 11.8932 13.8314C11.843 13.8716 11.7888 13.9044 11.7322 13.9298C11.6518 13.9659 11.564 13.9883 11.4716 13.9939C11.4329 13.9963 11.394 13.9957 11.3553 13.9922C11.3018 13.9872 11.2499 13.9767 11.2002 13.9611C11.0884 13.9261 10.9832 13.8643 10.8947 13.7757L8.06623 10.9473C7.77334 10.6544 7.77333 10.1796 8.06622 9.88668C8.35912 9.59378 8.83399 9.59378 9.12688 9.88667L10.6751 11.4348L10.6751 2.74866C10.6751 2.33444 11.0109 1.99866 11.4251 1.99866Z" fill="#3C3C3C"/>
<path d="M5.11773 2.21832L7.94615 5.04671C8.23905 5.3396 8.23905 5.81447 7.94616 6.10737C7.65327 6.40026 7.17839 6.40027 6.8855 6.10737L5.33738 4.55927L5.33738 13.2454C5.33738 13.6596 5.00159 13.9954 4.58737 13.9954C4.17316 13.9954 3.83737 13.6596 3.83737 13.2454L3.83738 4.55948L2.2893 6.10753C1.9964 6.40042 1.52153 6.40042 1.22864 6.10752C0.935747 5.81463 0.93575 5.33975 1.22865 5.04686L4.04805 2.2275C4.0553 2.21999 4.06271 2.21264 4.07028 2.20544C4.14223 2.13687 4.22447 2.08536 4.31188 2.0509C4.38181 2.02326 4.45689 2.00584 4.53528 2.00046C4.57217 1.99791 4.60921 1.99807 4.64608 2.00094C4.71297 2.00612 4.77739 2.02007 4.83821 2.04165C4.94027 2.07778 5.03607 2.13667 5.11773 2.21832Z" fill="#3C3C3C"/>
</svg>
