<svg width="16" height="16" viewBox="0 0 16 16" fill="none" xmlns="http://www.w3.org/2000/svg">
<path fill-rule="evenodd" clip-rule="evenodd" d="M4.25 11.5V4H5.75V11.5C5.75 11.6381 5.86193 11.75 6 11.75H8V13.25H6C5.0335 13.25 4.25 12.4665 4.25 11.5Z" fill="#3C3C3C"/>
<path fill-rule="evenodd" clip-rule="evenodd" d="M8.5 11.5V13.5H12.5V11.5H8.5ZM8 10C7.44772 10 7 10.4477 7 11V14C7 14.5523 7.44772 15 8 15H13C13.5523 15 14 14.5523 14 14V11C14 10.4477 13.5523 10 13 10H8Z" fill="#3C3C3C"/>
<path d="M2 2C2 1.44772 2.44772 1 3 1H7C7.55228 1 8 1.44772 8 2V4C8 4.55228 7.55228 5 7 5H3C2.44772 5 2 4.55228 2 4V2Z" fill="#3C3C3C"/>
</svg>
