<svg width="16" height="16" viewBox="0 0 16 16" fill="none" xmlns="http://www.w3.org/2000/svg">
<path fill-rule="evenodd" clip-rule="evenodd" d="M5.5 4.75C5.91421 4.75 6.25 5.08579 6.25 5.5V11.3333C6.25 11.681 6.3361 11.9595 6.43601 12.126C6.48159 12.2019 6.51613 12.236 6.53423 12.25H8C8.41421 12.25 8.75 12.5858 8.75 13C8.75 13.4142 8.41421 13.75 8 13.75H6.5C5.85691 13.75 5.40284 13.3195 5.14977 12.8977C4.88775 12.461 4.75 11.9061 4.75 11.3333V5.5C4.75 5.08579 5.08579 4.75 5.5 4.75ZM6.54837 12.2586C6.54837 12.2586 6.54621 12.2581 6.54226 12.2556C6.54646 12.2571 6.54837 12.2586 6.54837 12.2586Z" fill="#3C3C3C"/>
<path fill-rule="evenodd" clip-rule="evenodd" d="M3.5 2.5V4.5H7.5V2.5H3.5ZM3 1C2.44772 1 2 1.44772 2 2V5C2 5.55228 2.44772 6 3 6H8C8.55228 6 9 5.55228 9 5V2C9 1.44772 8.55228 1 8 1H3Z" fill="#3C3C3C"/>
<path d="M8 12C8 11.4477 8.44772 11 9 11H13C13.5523 11 14 11.4477 14 12V14C14 14.5523 13.5523 15 13 15H9C8.44772 15 8 14.5523 8 14V12Z" fill="#3C3C3C"/>
</svg>
