<svg width="16" height="16" viewBox="0 0 16 16" fill="none" xmlns="http://www.w3.org/2000/svg">
<path fill-rule="evenodd" clip-rule="evenodd" d="M8.37043 2.96582C9.65827 1.67798 11.7463 1.67798 13.0341 2.96582C14.322 4.25366 14.322 6.34167 13.0341 7.62951L7.62957 13.0341C6.34173 14.3219 4.25372 14.3219 2.96588 13.0341C1.67804 11.7462 1.67804 9.65821 2.96588 8.37037L5.54337 5.79287C6.35743 4.97882 7.67728 4.97882 8.49134 5.79287C9.30539 6.60693 9.30539 7.92678 8.49134 8.74084L6.97838 10.2538C6.68548 10.5467 6.21061 10.5467 5.91772 10.2538C5.62482 9.96091 5.62482 9.48603 5.91772 9.19314L7.43068 7.68018C7.65895 7.45191 7.65895 7.08181 7.43068 6.85354C7.20241 6.62526 6.83231 6.62526 6.60404 6.85354L4.02654 9.43103C3.32449 10.1331 3.32449 11.2713 4.02654 11.9734C4.7286 12.6755 5.86686 12.6755 6.56891 11.9734L11.9735 6.56885C12.6755 5.8668 12.6755 4.72854 11.9735 4.02648C11.2714 3.32443 10.1331 3.32443 9.43109 4.02648L9.18543 4.27214C8.89253 4.56504 8.41766 4.56504 8.12477 4.27214C7.83187 3.97925 7.83187 3.50438 8.12477 3.21148L8.37043 2.96582Z" fill="#3C3C3C"/>
</svg>
