<svg width="16" height="16" viewBox="0 0 16 16" fill="none" xmlns="http://www.w3.org/2000/svg">
<path fill-rule="evenodd" clip-rule="evenodd" d="M1.06799 2.75244C1.06799 2.33823 1.40378 2.00244 1.81799 2.00244H14.318C14.7322 2.00244 15.068 2.33823 15.068 2.75244C15.068 3.16665 14.7322 3.50244 14.318 3.50244H1.81799C1.40378 3.50244 1.06799 3.16665 1.06799 2.75244ZM1.06796 8C1.06796 7.58579 1.40375 7.25 1.81796 7.25H14.318C14.7322 7.25 15.068 7.58579 15.068 8C15.068 8.41421 14.7322 8.75 14.318 8.75H1.81796C1.40375 8.75 1.06796 8.41421 1.06796 8ZM1.81799 12.5C1.40378 12.5 1.06799 12.8358 1.06799 13.25C1.06799 13.6642 1.40378 14 1.81799 14H14.318C14.7322 14 15.068 13.6642 15.068 13.25C15.068 12.8358 14.7322 12.5 14.318 12.5H1.81799Z" fill="#3C3C3C"/>
</svg>
