<svg width="16" height="16" viewBox="0 0 16 16" fill="none" xmlns="http://www.w3.org/2000/svg">
<path fill-rule="evenodd" clip-rule="evenodd" d="M7.25 14.9603C7.49641 14.9865 7.74663 15 8 15C8.25337 15 8.50359 14.9865 8.75 14.9603C12.0169 14.6123 14.6123 12.0169 14.9603 8.75C14.9865 8.50359 15 8.25337 15 8C15 7.74663 14.9865 7.49641 14.9603 7.25C14.6123 3.98308 12.0169 1.38769 8.75 1.03971C8.50359 1.01346 8.25337 1 8 1C7.74663 1 7.49641 1.01346 7.25 1.03971C3.98308 1.38769 1.38769 3.98308 1.03971 7.25C1.01346 7.49641 1 7.74663 1 8C1 8.25337 1.01346 8.50359 1.03971 8.75C1.38769 12.0169 3.98308 14.6123 7.25 14.9603ZM8.75 13.4493C11.1875 13.1169 13.1169 11.1875 13.4493 8.75H8.75V13.4493ZM7.25 8.75V13.4493C4.81246 13.1169 2.88307 11.1875 2.55071 8.75H7.25ZM8.75 7.25H13.4493C13.1169 4.81246 11.1875 2.88307 8.75 2.55071V7.25ZM7.25 2.55071V7.25H2.55071C2.88307 4.81246 4.81246 2.88307 7.25 2.55071Z" fill="#3C3C3C"/>
<path fill-rule="evenodd" clip-rule="evenodd" d="M12.8599 5.42166C12.2227 6.09455 11.8333 7.00236 11.8333 7.99989C11.8333 8.99741 12.2227 9.90522 12.8599 10.5781C13.2688 9.80931 13.5 8.93237 13.5 7.99989C13.5 7.06741 13.2688 6.19046 12.8599 5.42166ZM13.2044 3.31854C11.5005 4.18616 10.3333 5.95672 10.3333 7.99989C10.3333 10.0431 11.5005 11.8136 13.2044 12.6812C14.3207 11.4411 15 9.7998 15 7.99989C15 6.19997 14.3207 4.55872 13.2044 3.31854Z" fill="#3C3C3C"/>
<path fill-rule="evenodd" clip-rule="evenodd" d="M3.14019 5.42168C3.77736 6.09456 4.16666 7.00233 4.16666 7.9998C4.16666 8.99737 3.77728 9.90522 3.14 10.5781C2.73116 9.80936 2.49999 8.93249 2.49999 8.00008C2.49999 7.06753 2.73123 6.19052 3.14019 5.42168ZM2.79576 3.31854C4.4996 4.18619 5.66666 5.9567 5.66666 7.9998C5.66666 10.043 4.49943 11.8136 2.79541 12.6812C1.67925 11.4411 0.99999 9.7999 0.99999 8.00008C0.99999 6.20007 1.6794 4.55874 2.79576 3.31854Z" fill="#3C3C3C"/>
</svg>
