<svg width="16" height="16" viewBox="0 0 16 16" fill="none" xmlns="http://www.w3.org/2000/svg">
<path d="M4.40015 3.2002C4.40015 3.86291 3.86291 4.40015 3.2002 4.40015C2.53748 4.40015 2.00024 3.86291 2.00024 3.2002C2.00024 2.53748 2.53748 2.00024 3.2002 2.00024C3.86291 2.00024 4.40015 2.53748 4.40015 3.2002Z" fill="#3C3C3C"/>
<path d="M4.40015 8C4.40015 8.66271 3.86291 9.19995 3.2002 9.19995C2.53748 9.19995 2.00024 8.66271 2.00024 8C2.00024 7.33729 2.53748 6.80005 3.2002 6.80005C3.86291 6.80005 4.40015 7.33729 4.40015 8Z" fill="#3C3C3C"/>
<path d="M4.40015 12.7998C4.40015 13.4625 3.86291 13.9998 3.2002 13.9998C2.53748 13.9998 2.00024 13.4625 2.00024 12.7998C2.00024 12.1371 2.53748 11.5999 3.2002 11.5999C3.86291 11.5999 4.40015 12.1371 4.40015 12.7998Z" fill="#3C3C3C"/>
<path d="M9.19995 3.2002C9.19995 3.86291 8.66271 4.40015 8 4.40015C7.33729 4.40015 6.80005 3.86291 6.80005 3.2002C6.80005 2.53748 7.33729 2.00024 8 2.00024C8.66271 2.00024 9.19995 2.53748 9.19995 3.2002Z" fill="#3C3C3C"/>
<path d="M9.19995 8C9.19995 8.66271 8.66271 9.19995 8 9.19995C7.33729 9.19995 6.80005 8.66271 6.80005 8C6.80005 7.33729 7.33729 6.80005 8 6.80005C8.66271 6.80005 9.19995 7.33729 9.19995 8Z" fill="#3C3C3C"/>
<path d="M9.19995 12.7998C9.19995 13.4625 8.66271 13.9998 8 13.9998C7.33729 13.9998 6.80005 13.4625 6.80005 12.7998C6.80005 12.1371 7.33729 11.5999 8 11.5999C8.66271 11.5999 9.19995 12.1371 9.19995 12.7998Z" fill="#3C3C3C"/>
<path d="M13.9998 3.2002C13.9998 3.86291 13.4625 4.40015 12.7998 4.40015C12.1371 4.40015 11.5999 3.86291 11.5999 3.2002C11.5999 2.53748 12.1371 2.00024 12.7998 2.00024C13.4625 2.00024 13.9998 2.53748 13.9998 3.2002Z" fill="#3C3C3C"/>
<path d="M13.9998 8C13.9998 8.66271 13.4625 9.19995 12.7998 9.19995C12.1371 9.19995 11.5999 8.66271 11.5999 8C11.5999 7.33729 12.1371 6.80005 12.7998 6.80005C13.4625 6.80005 13.9998 7.33729 13.9998 8Z" fill="#3C3C3C"/>
<path d="M13.9998 12.7998C13.9998 13.4625 13.4625 13.9998 12.7998 13.9998C12.1371 13.9998 11.5999 13.4625 11.5999 12.7998C11.5999 12.1371 12.1371 11.5999 12.7998 11.5999C13.4625 11.5999 13.9998 12.1371 13.9998 12.7998Z" fill="#3C3C3C"/>
</svg>
