<svg width="16" height="16" viewBox="0 0 16 16" fill="none" xmlns="http://www.w3.org/2000/svg">
<path fill-rule="evenodd" clip-rule="evenodd" d="M12 3C12.4142 3 12.75 2.66421 12.75 2.25C12.75 1.83579 12.4142 1.5 12 1.5C11.5858 1.5 11.25 1.83579 11.25 2.25C11.25 2.66421 11.5858 3 12 3ZM4.75 5C4.75 4.58579 4.41421 4.25 4 4.25C3.58579 4.25 3.25 4.58579 3.25 5V6H2C1.44772 6 1 6.44772 1 7V13C1 13.5523 1.44772 14 2 14H14C14.5523 14 15 13.5523 15 13V7C15 6.44772 14.5523 6 14 6H12.75V5C12.75 4.58579 12.4142 4.25 12 4.25C11.5858 4.25 11.25 4.58579 11.25 5V6H8.75V5C8.75 4.58579 8.41421 4.25 8 4.25C7.58579 4.25 7.25 4.58579 7.25 5V6H4.75V5ZM2.5 12.5V11.6429C2.67519 11.711 2.86366 11.75 3.06593 11.75C3.79708 11.75 4.34782 11.2409 4.74322 10.6844C4.89023 10.4776 5.01064 10.3612 5.09642 10.3009C5.13738 10.2721 5.16536 10.2596 5.18022 10.2544C5.18759 10.2518 5.19225 10.2508 5.19449 10.2504C5.19664 10.25 5.19759 10.25 5.19779 10.25C5.198 10.25 5.19896 10.25 5.20111 10.2504C5.20335 10.2508 5.20801 10.2518 5.21539 10.2544C5.23024 10.2596 5.25822 10.2721 5.29919 10.3009C5.38497 10.3612 5.50537 10.4776 5.65238 10.6844C6.04779 11.2409 6.59852 11.75 7.32967 11.75C8.06082 11.75 8.61155 11.2409 9.00696 10.6844C9.15397 10.4776 9.27437 10.3612 9.36015 10.3009C9.40112 10.2721 9.4291 10.2596 9.44395 10.2544C9.45133 10.2518 9.45599 10.2508 9.45823 10.2504L9.45994 10.2501L9.46153 10.25L9.46245 10.25L9.46485 10.2504C9.46709 10.2508 9.47175 10.2518 9.47912 10.2544C9.49398 10.2596 9.52196 10.2721 9.56292 10.3009C9.6487 10.3612 9.76911 10.4776 9.91611 10.6844C10.3115 11.2409 10.8623 11.75 11.5934 11.75C12.3246 11.75 12.8753 11.2409 13.2707 10.6844C13.3578 10.5619 13.4348 10.4722 13.5 10.4072V12.5H2.5ZM2.61136 9.81556C2.57827 9.76899 2.54083 9.72734 2.5 9.69076V7.5H13.5V8.76692C13.3222 8.79371 13.1485 8.85182 12.9825 8.93851C12.613 9.13149 12.3069 9.45113 12.048 9.81556C11.901 10.0224 11.7806 10.1388 11.6948 10.1991C11.6538 10.2279 11.6258 10.2404 11.611 10.2456C11.6036 10.2482 11.599 10.2492 11.5967 10.2496C11.5945 10.25 11.5936 10.25 11.5934 10.25L11.5917 10.2499L11.5901 10.2496C11.5879 10.2492 11.5832 10.2482 11.5758 10.2456C11.561 10.2404 11.533 10.2279 11.492 10.1991C11.4062 10.1388 11.2858 10.0224 11.1388 9.81556C10.7434 9.25913 10.1927 8.75 9.46154 8.75C8.73039 8.75 8.17966 9.25913 7.78425 9.81556C7.63724 10.0224 7.51683 10.1388 7.43106 10.1991C7.39009 10.2279 7.36211 10.2404 7.34725 10.2456C7.33988 10.2482 7.33522 10.2492 7.33298 10.2496L7.33071 10.2499L7.32967 10.25C7.32946 10.25 7.32851 10.25 7.32636 10.2496C7.32412 10.2492 7.31946 10.2482 7.31209 10.2456C7.29723 10.2404 7.26925 10.2279 7.22828 10.1991C7.14251 10.1388 7.0221 10.0224 6.87509 9.81556C6.47968 9.25913 5.92895 8.75 5.1978 8.75C4.46665 8.75 3.91592 9.25913 3.52051 9.81556C3.3735 10.0224 3.2531 10.1388 3.16732 10.1991C3.12635 10.2279 3.09837 10.2404 3.08352 10.2456C3.07614 10.2482 3.07148 10.2492 3.06924 10.2496C3.06709 10.25 3.06614 10.25 3.06594 10.25L3.06488 10.2499L3.06262 10.2496C3.06038 10.2492 3.05572 10.2482 3.04835 10.2456C3.03349 10.2404 3.00551 10.2279 2.96455 10.1991C2.87877 10.1388 2.75836 10.0224 2.61136 9.81556ZM8.75 2.25C8.75 2.66421 8.41421 3 8 3C7.58579 3 7.25 2.66421 7.25 2.25C7.25 1.83579 7.58579 1.5 8 1.5C8.41421 1.5 8.75 1.83579 8.75 2.25ZM4 3C4.41421 3 4.75 2.66421 4.75 2.25C4.75 1.83579 4.41421 1.5 4 1.5C3.58579 1.5 3.25 1.83579 3.25 2.25C3.25 2.66421 3.58579 3 4 3Z" fill="#3C3C3C"/>
</svg>
