<svg width="16" height="16" viewBox="0 0 16 16" fill="none" xmlns="http://www.w3.org/2000/svg">
<path fill-rule="evenodd" clip-rule="evenodd" d="M2.74994 1.00049C2.33573 1.00049 1.99994 1.33627 1.99994 1.75049C1.99994 2.1647 2.33573 2.50049 2.74994 2.50049H3.67976L3.67976 7.10583L3.67976 7.10599C3.67976 7.10614 3.67976 7.10628 3.67976 7.10642V13.4965H2.74994C2.33573 13.4965 1.99994 13.8323 1.99994 14.2465C1.99994 14.6607 2.33573 14.9965 2.74994 14.9965H9.7837C12.1546 14.9965 14.0581 13.0434 14.0002 10.6762C14.0435 8.90364 12.9872 7.36333 11.4584 6.70126C11.9948 6.0963 12.3204 5.3003 12.3204 4.42824C12.3204 2.53515 10.7858 1.00049 8.89268 1.00049H2.74994ZM5.17976 7.85599H8.89268C8.90377 7.85599 8.91485 7.85594 8.92592 7.85583H9.7837C11.3162 7.85583 12.5456 9.12218 12.5003 10.654C12.4998 10.6708 12.4998 10.6875 12.5004 10.7041C12.5425 12.2333 11.3142 13.4965 9.7837 13.4965H5.17976V7.85599ZM8.91761 6.35583C9.97079 6.34249 10.8204 5.48459 10.8204 4.42824C10.8204 3.36357 9.95735 2.50049 8.89268 2.50049H5.17976V6.35583H8.91761Z" fill="#3C3C3C"/>
</svg>
