<svg width="16" height="16" viewBox="0 0 16 16" fill="none" xmlns="http://www.w3.org/2000/svg">
<path fill-rule="evenodd" clip-rule="evenodd" d="M9.31981 1.04076C9.62344 1.14441 9.8275 1.42971 9.8275 1.75053V6.2436H12.5255C12.8115 6.2436 13.0726 6.40623 13.1987 6.66291C13.3248 6.91959 13.2939 7.22564 13.1191 7.45199L7.51612 14.7079C7.32 14.9619 6.98403 15.063 6.68033 14.9594C6.37664 14.8558 6.1725 14.5704 6.1725 14.2496V9.75031H3.47449C3.18846 9.75031 2.92733 9.58762 2.80126 9.33086C2.6752 9.0741 2.70615 8.768 2.88107 8.54168L8.48408 1.2919C8.68026 1.03805 9.01619 0.937102 9.31981 1.04076ZM5.00202 8.25031H6.9225C7.33671 8.25031 7.6725 8.5861 7.6725 9.00031V12.0512L10.9988 7.7436H9.0775C8.66329 7.7436 8.3275 7.40781 8.3275 6.9936V3.94744L5.00202 8.25031Z" fill="#3C3C3C"/>
</svg>
