<svg width="16" height="16" viewBox="0 0 16 16" fill="none" xmlns="http://www.w3.org/2000/svg">
<path fill-rule="evenodd" clip-rule="evenodd" d="M13.3558 1.25688C14.1652 0.987079 15.001 1.58955 15.001 2.44274V12.2238C15.001 12.7618 14.6567 13.2395 14.1463 13.4096L9.48738 14.9626C9.4109 14.9881 9.33082 15.0011 9.25021 15.0011H6.74979C6.66918 15.0011 6.5891 14.9881 6.51262 14.9626L1.85368 13.4096C1.34325 13.2395 0.998962 12.7618 0.998962 12.2238V2.44274C0.998962 1.58954 1.83483 0.98708 2.64425 1.25688L6.8715 2.66597H9.1285L13.3558 1.25688ZM8.50021 4.16597H7.49979V13.5011H8.50021V4.16597ZM10.0002 13.2105L13.501 12.0436V2.78959L10.0002 3.95654V13.2105ZM5.99979 13.2105V3.95654L2.49896 2.78959V12.0436L5.99979 13.2105Z" fill="#3C3C3C"/>
</svg>
