<svg width="16" height="16" viewBox="0 0 16 16" fill="none" xmlns="http://www.w3.org/2000/svg">
<path fill-rule="evenodd" clip-rule="evenodd" d="M10.75 11V2H12.25V11H10.75Z" fill="#3C3C3C"/>
<path fill-rule="evenodd" clip-rule="evenodd" d="M3.75 11V2H5.25V11H3.75Z" fill="#3C3C3C"/>
<path fill-rule="evenodd" clip-rule="evenodd" d="M10.5 11.5V13.5H12.5V11.5H10.5ZM10 10C9.44772 10 9 10.4477 9 11V14C9 14.5523 9.44772 15 10 15H13C13.5523 15 14 14.5523 14 14V11C14 10.4477 13.5523 10 13 10H10Z" fill="#3C3C3C"/>
<path fill-rule="evenodd" clip-rule="evenodd" d="M3.5 11.5V13.5H5.5V11.5H3.5ZM3 10C2.44772 10 2 10.4477 2 11V14C2 14.5523 2.44772 15 3 15H6C6.55228 15 7 14.5523 7 14V11C7 10.4477 6.55228 10 6 10H3Z" fill="#3C3C3C"/>
<path d="M9 2C9 1.44772 9.44772 1 10 1H13C13.5523 1 14 1.44772 14 2V4C14 4.55228 13.5523 5 13 5H10C9.44772 5 9 4.55228 9 4V2Z" fill="#3C3C3C"/>
<path d="M2 2C2 1.44772 2.44772 1 3 1H6C6.55228 1 7 1.44772 7 2V4C7 4.55228 6.55228 5 6 5H3C2.44772 5 2 4.55228 2 4V2Z" fill="#3C3C3C"/>
</svg>
