<svg width="16" height="16" viewBox="0 0 16 16" fill="none" xmlns="http://www.w3.org/2000/svg">
<path fill-rule="evenodd" clip-rule="evenodd" d="M7.69666 3.111C8.92279 1.88488 10.7697 1.68915 12.244 2.44707C12.4571 2.55662 12.605 2.76139 12.6421 2.9981C12.6791 3.23482 12.6008 3.47499 12.4314 3.64441L10.5748 5.50101L10.9738 5.89997L12.8304 4.04336C12.9998 3.87394 13.24 3.79566 13.4767 3.83272C13.7134 3.86977 13.9182 4.01769 14.0277 4.23078C14.7856 5.70502 14.5899 7.55199 13.3638 8.77811C12.3696 9.77225 10.9655 10.0891 9.68544 9.76925L5.19968 14.255C4.90679 14.5479 4.43192 14.5479 4.13902 14.255L2.21967 12.3357C2.07902 12.195 2 12.0042 2 11.8053C2 11.6064 2.07902 11.4156 2.21967 11.275L6.70548 6.78918C6.38568 5.50917 6.70257 4.10509 7.69666 3.111ZM10.4546 3.49986C9.82816 3.48732 9.21401 3.71498 8.75732 4.17166C8.09041 4.83857 7.91209 5.83887 8.25644 6.72706C8.36384 7.00409 8.29758 7.3184 8.08748 7.5285L3.81066 11.8053L4.66935 12.664L8.94613 8.38724C9.15624 8.17713 9.47057 8.11087 9.74761 8.2183C10.6358 8.5627 11.6362 8.38439 12.3031 7.71745C12.7598 7.26077 12.9875 6.64661 12.9749 6.02013L11.5041 7.49096C11.3634 7.63161 11.1727 7.71063 10.9738 7.71063C10.7748 7.71063 10.5841 7.63161 10.4434 7.49096L8.98382 6.03134C8.69093 5.73845 8.69093 5.26358 8.98382 4.97068L10.4546 3.49986Z" fill="#3C3C3C"/>
</svg>
