<svg width="16" height="16" viewBox="0 0 16 16" fill="none" xmlns="http://www.w3.org/2000/svg">
<path fill-rule="evenodd" clip-rule="evenodd" d="M1.01696 4.74326C1.02302 3.22336 2.269 2.00421 3.77809 2.00421H9.64708C9.89235 2.00421 10.1247 2.0761 10.3238 2.20042C10.5213 2.32374 10.6773 2.49255 10.79 2.68021C10.8058 2.70655 10.82 2.73384 10.8324 2.76192L12.3962 6.28262L13.2764 6.63608C14.3186 7.05463 15.0015 8.06488 15.0015 9.18798V11.6186C15.0015 12.3089 14.4419 12.8686 13.7515 12.8686H12.4674C12.1 13.5453 11.3831 14.0047 10.5589 14.0047C9.7347 14.0047 9.01782 13.5453 8.65037 12.8686H6.78643C6.41898 13.5453 5.7021 14.0047 4.87792 14.0047C4.05373 14.0047 3.33685 13.5453 2.9694 12.8686H2.25339C1.56303 12.8686 1.00339 12.3089 1.00339 11.6186V8.15134L1.01696 4.74326ZM8.43877 11.3686C8.65199 10.3939 9.52023 9.66425 10.5589 9.66425C11.5975 9.66425 12.4658 10.3939 12.679 11.3686H13.5015V9.18798C13.5015 8.67743 13.1911 8.21827 12.7174 8.02805L11.6893 7.61519H9.07152C8.465 7.61519 7.91816 7.24993 7.68588 6.68964L6.36529 3.50421H3.77809C3.08425 3.50421 2.51967 4.06623 2.51695 4.74923L2.50339 8.15433V11.3686H2.7578C2.97102 10.3939 3.83926 9.66425 4.87792 9.66425C5.91657 9.66425 6.78481 10.3939 6.99803 11.3686H8.43877ZM7.98909 3.50421L9.07152 6.11519H10.6805L9.52083 3.50421H7.98909ZM4.87792 11.1642C4.50775 11.1642 4.20767 11.4643 4.20767 11.8345C4.20767 12.2047 4.50775 12.5047 4.87792 12.5047C5.24808 12.5047 5.54816 12.2047 5.54816 11.8345C5.54816 11.4643 5.24808 11.1642 4.87792 11.1642ZM9.88864 11.8345C9.88864 11.4643 10.1887 11.1642 10.5589 11.1642C10.929 11.1642 11.2291 11.4643 11.2291 11.8345C11.2291 12.2047 10.929 12.5047 10.5589 12.5047C10.1887 12.5047 9.88864 12.2047 9.88864 11.8345Z" fill="#3C3C3C"/>
</svg>
