<svg width="16" height="16" viewBox="0 0 16 16" fill="none" xmlns="http://www.w3.org/2000/svg">
<path fill-rule="evenodd" clip-rule="evenodd" d="M7.99982 3.21499C7.62551 3.21553 7.21789 3.2582 6.84107 3.32387C6.42588 2.99749 5.82913 2.59854 5.14838 2.31638C4.29693 1.96349 3.17671 1.73974 2.12064 2.26778C1.85205 2.40207 1.68386 2.62123 1.58039 2.81067C1.47525 3.00315 1.40842 3.21596 1.36441 3.41972C1.27628 3.82775 1.25693 4.30779 1.28442 4.78333C1.32984 5.56901 1.51306 6.49055 1.85944 7.20733C1.58726 7.87443 1.43502 8.60489 1.43502 9.38145C1.43502 12.8625 4.53589 14.9783 8.0009 14.9783C11.4738 14.9783 14.5668 12.7856 14.5668 9.38145C14.5668 8.61272 14.3878 7.87154 14.0794 7.19035C14.4205 6.47604 14.6012 5.56283 14.6463 4.78335C14.6738 4.3078 14.6544 3.82777 14.5663 3.41974C14.5223 3.21598 14.4555 3.00318 14.3503 2.8107C14.2469 2.62126 14.0787 2.4021 13.8101 2.2678C12.754 1.73976 11.6338 1.96352 10.7823 2.31643C10.1056 2.59693 9.51181 2.99288 9.09695 3.31819C8.73659 3.25077 8.37053 3.21618 8.00333 3.21499V3.21498L7.99982 3.21499ZM2.8306 3.73639C2.84731 3.65906 2.86476 3.6048 2.87872 3.5695C3.35554 3.37097 3.93858 3.4387 4.57405 3.70208C5.23766 3.97712 5.82649 4.41437 6.1417 4.69198C6.32237 4.8511 6.56845 4.91382 6.80325 4.86058C7.18403 4.77423 7.63171 4.7157 8.00024 4.71499C8.374 4.71634 8.74612 4.7637 9.10807 4.85596C9.34819 4.91717 9.60305 4.85582 9.78901 4.69203C10.1042 4.41442 10.6931 3.97717 11.3567 3.70212C11.9921 3.43873 12.5752 3.371 13.052 3.56952C13.066 3.60483 13.0834 3.65909 13.1001 3.73642C13.1504 3.96941 13.1715 4.30457 13.1488 4.69678C13.1022 5.50237 12.8865 6.3279 12.604 6.76524C12.4554 6.99508 12.4439 7.28757 12.5738 7.5284C12.8921 8.11834 13.0668 8.74874 13.0668 9.38145C13.0668 11.6812 10.9513 13.4783 8.0009 13.4783C5.0426 13.4783 2.93502 11.7454 2.93502 9.38145C2.93502 8.69755 3.09309 8.06684 3.37004 7.50285C3.48613 7.26643 3.4697 6.98645 3.32676 6.76524C3.04418 6.3279 2.82849 5.50236 2.78192 4.69677C2.75925 4.30455 2.78028 3.96938 2.8306 3.73639ZM13.0294 3.52225C13.0295 3.52221 13.03 3.52295 13.031 3.52459L13.0294 3.52225ZM2.89975 3.52456C2.90074 3.52292 2.90126 3.52218 2.90127 3.52222L2.89975 3.52456ZM5.06213 9.58788C5.38674 9.58788 5.64989 9.32473 5.64989 9.00012C5.64989 8.6755 5.38674 8.41235 5.06213 8.41235C4.73752 8.41235 4.47437 8.6755 4.47437 9.00012C4.47437 9.32473 4.73752 9.58788 5.06213 9.58788ZM11.5275 9.00012C11.5275 9.32473 11.2643 9.58788 10.9397 9.58788C10.6151 9.58788 10.3519 9.32473 10.3519 9.00012C10.3519 8.6755 10.6151 8.41235 10.9397 8.41235C11.2643 8.41235 11.5275 8.6755 11.5275 9.00012ZM7.41316 10.7634C7.17543 10.7634 6.96111 10.9066 6.87014 11.1263C6.77916 11.3459 6.82945 11.5987 6.99755 11.7668L7.58531 12.3546C7.81485 12.5841 8.187 12.5841 8.41653 12.3546L9.0043 11.7668C9.1724 11.5987 9.22268 11.3459 9.13171 11.1263C9.04073 10.9066 8.82641 10.7634 8.58869 10.7634H7.41316Z" fill="#3C3C3C"/>
</svg>
