<svg width="16" height="16" viewBox="0 0 16 16" fill="none" xmlns="http://www.w3.org/2000/svg">
<path fill-rule="evenodd" clip-rule="evenodd" d="M3.50281 2.75781C3.50281 2.3436 3.16702 2.00781 2.75281 2.00781C2.33859 2.00781 2.00281 2.3436 2.00281 2.75781V13.2554C2.00281 13.6696 2.33859 14.0054 2.75281 14.0054H13.2504C13.6646 14.0054 14.0004 13.6696 14.0004 13.2554C14.0004 12.8412 13.6646 12.5054 13.2504 12.5054H3.50281V2.75781ZM9.5 4.25C9.5 3.83579 9.16421 3.5 8.75 3.5C8.33579 3.5 8 3.83579 8 4.25V10.25C8 10.6642 8.33579 11 8.75 11C9.16421 11 9.5 10.6642 9.5 10.25V4.25ZM6.5 6.25C6.5 5.83579 6.16421 5.5 5.75 5.5C5.33579 5.5 5 5.83579 5 6.25V10.25C5 10.6642 5.33579 11 5.75 11C6.16421 11 6.5 10.6642 6.5 10.25V6.25ZM11.75 7.5C12.1642 7.5 12.5 7.83579 12.5 8.25V10.25C12.5 10.6642 12.1642 11 11.75 11C11.3358 11 11 10.6642 11 10.25V8.25C11 7.83579 11.3358 7.5 11.75 7.5Z" fill="#3C3C3C"/>
</svg>
