<svg width="16" height="16" viewBox="0 0 16 16" fill="none" xmlns="http://www.w3.org/2000/svg">
<path fill-rule="evenodd" clip-rule="evenodd" d="M13.8819 5.49994C13.3872 3.88756 12.1124 2.61276 10.5 2.11803L10.5 5.39994C10.5 5.43521 10.5 5.46845 10.5 5.49991C10.5315 5.49994 10.5647 5.49994 10.6 5.49994H13.8819ZM10.0397 5.4886C10.0397 5.48859 10.0405 5.4887 10.0421 5.48896L10.0397 5.4886ZM10.511 5.95781C10.5112 5.9594 10.5114 5.96023 10.5113 5.96025L10.511 5.95781ZM15.4829 6.29757C15.5659 6.03146 15.5153 5.82597 15.414 5.41499C14.8292 3.04015 12.9598 1.17078 10.585 0.585907C10.174 0.484691 9.96848 0.434083 9.70237 0.517045C9.50076 0.579898 9.25343 0.773707 9.14419 0.954437C9 1.19299 9 1.46017 9 1.99453V5.39994C9 5.95999 9 6.24002 9.10899 6.45393C9.20487 6.64209 9.35785 6.79507 9.54601 6.89095C9.75992 6.99994 10.0399 6.99994 10.6 6.99994H14.0054C14.5398 6.99994 14.807 6.99994 15.0455 6.85575C15.2262 6.74651 15.42 6.49918 15.4829 6.29757Z" fill="#3C3C3C"/>
<path fill-rule="evenodd" clip-rule="evenodd" d="M7.98871 9.5113C7.16029 9.5113 6.48871 8.83973 6.48871 8.0113V2.72966C4.18604 3.38193 2.5 5.5014 2.5 8.0113C2.5 11.0426 4.95738 13.5 7.98871 13.5C10.4986 13.5 12.6181 11.814 13.2704 9.5113H7.98871ZM13.3774 8.0113C13.9143 8.0113 14.1827 8.0113 14.42 8.15342C14.6012 8.26194 14.7933 8.50374 14.858 8.70475C14.9428 8.96802 14.894 9.17802 14.7965 9.59802C14.0779 12.6934 11.3027 15 7.98871 15C4.12895 15 1 11.8711 1 8.0113C1 4.69732 3.30663 1.92208 6.40199 1.20349C6.82199 1.10599 7.03199 1.05724 7.29526 1.14202C7.49627 1.20676 7.73808 1.39886 7.84659 1.58003C7.98871 1.8173 7.98871 2.08573 7.98871 2.62259V8.0113H13.3774Z" fill="#3C3C3C"/>
</svg>
