<svg width="16" height="16" viewBox="0 0 16 16" fill="none" xmlns="http://www.w3.org/2000/svg">
<path fill-rule="evenodd" clip-rule="evenodd" d="M10.947 5.90184C11.8391 6.41045 12.8235 6.66581 13.9377 6.66581C14.3519 6.66581 14.6877 6.33003 14.6877 5.91581C14.6877 5.35496 14.4568 4.75527 14.1308 4.21122C13.7957 3.6519 13.3196 3.08316 12.7368 2.57321C11.5746 1.5563 9.92355 0.719482 8.00928 0.719482C7.74191 0.719482 7.49476 0.861819 7.36057 1.09308C7.31887 1.16494 7.29004 1.24201 7.27409 1.32109C7.24279 1.46712 7.21072 1.61931 7.17752 1.77681L7.17752 1.77683L7.17752 1.77684C6.95531 2.83113 6.68305 4.12296 6.25835 5.39429C5.83 6.67653 5.27101 7.8576 4.51876 8.70891C4.25117 8.58705 3.9735 8.51697 3.69104 8.50306C3.17791 8.47777 2.70949 8.64107 2.32684 8.91555C1.57848 9.45236 1.14557 10.4111 1.14557 11.3995C1.14557 12.3488 1.5127 13.2631 2.17224 13.9403C2.83243 14.6181 3.73212 15.0026 4.67453 15.0026C5.61693 15.0026 6.51662 14.6181 7.17681 13.9403C7.2757 13.8387 7.368 13.7319 7.45349 13.6204C7.53897 13.7319 7.63128 13.8387 7.73016 13.9403C8.39035 14.6181 9.29004 15.0026 10.2324 15.0026C11.1749 15.0026 12.0745 14.6181 12.7347 13.9403C13.3943 13.2631 13.7614 12.3488 13.7614 11.3995C13.7614 10.4111 13.3285 9.45236 12.5801 8.91555C12.1975 8.64107 11.7291 8.47777 11.2159 8.50306C11.172 8.50522 11.1283 8.50874 11.0846 8.5136C11.1738 7.54678 11.1196 6.69823 10.947 5.90184ZM9.24734 5.40125C9.57064 6.31726 9.71293 7.28544 9.57395 8.5441C9.46654 8.5222 9.35811 8.50843 9.24897 8.50306C8.73584 8.47777 8.26741 8.64107 7.88476 8.91555C7.72653 9.02905 7.58241 9.16142 7.45349 9.30894C7.32457 9.16142 7.18044 9.02905 7.02221 8.91555C6.8458 8.78901 6.65115 8.6861 6.44231 8.6144C6.97203 7.75629 7.37047 6.79933 7.68106 5.86956C7.95117 5.06101 8.16357 4.24431 8.33783 3.49433C8.71965 4.16658 9.02614 4.7745 9.24734 5.40125ZM2.64557 11.3995C2.64557 10.813 2.9074 10.3451 3.20114 10.1344C3.33955 10.0351 3.47902 9.99443 3.61721 10.0012C3.75569 10.0081 3.9534 10.0659 4.1985 10.2672C4.47517 10.4944 4.87388 10.4944 5.15055 10.2672C5.39565 10.0659 5.59336 10.0081 5.73184 10.0012C5.87003 9.99443 6.0095 10.0351 6.14791 10.1344C6.44166 10.3451 6.70348 10.813 6.70348 11.3995C6.70348 11.9636 6.48505 12.5007 6.10228 12.8937C5.72016 13.286 5.20617 13.5026 4.67453 13.5026C4.14288 13.5026 3.62889 13.286 3.24677 12.8937C2.864 12.5007 2.64557 11.9636 2.64557 11.3995ZM8.20349 11.3995C8.20349 10.813 8.46532 10.3451 8.75907 10.1344C8.89747 10.0351 9.03695 9.99443 9.17513 10.0012C9.31361 10.0081 9.51132 10.0659 9.75642 10.2672C10.0331 10.4944 10.4318 10.4944 10.7085 10.2672C10.9536 10.0659 11.1513 10.0081 11.2898 10.0012C11.428 9.99443 11.5674 10.0351 11.7058 10.1344C11.9996 10.3451 12.2614 10.813 12.2614 11.3995C12.2614 11.9636 12.043 12.5007 11.6602 12.8937C11.2781 13.286 10.7641 13.5026 10.2324 13.5026C9.70081 13.5026 9.18681 13.286 8.8047 12.8937C8.42193 12.5007 8.20349 11.9636 8.20349 11.3995ZM11.1161 4.21306C10.5654 3.78466 10.0372 3.20122 9.50593 2.44305C10.3667 2.70187 11.1323 3.16244 11.7491 3.70209C12.2252 4.11872 12.5966 4.56907 12.8441 4.98218C12.8596 5.00809 12.8745 5.03363 12.8888 5.05878C12.2379 4.91755 11.6601 4.63623 11.1161 4.21306Z" fill="#3C3C3C"/>
</svg>
