<svg width="16" height="16" viewBox="0 0 16 16" fill="none" xmlns="http://www.w3.org/2000/svg">
<path fill-rule="evenodd" clip-rule="evenodd" d="M13.5 7.99997C13.5 11.0376 11.0375 13.5001 7.99991 13.5001C4.96229 13.5001 2.49982 11.0376 2.49982 7.99997C2.49982 4.96235 4.96229 2.49988 7.99991 2.49988C11.0375 2.49988 13.5 4.96235 13.5 7.99997ZM15 7.99997C15 11.866 11.866 15.0001 7.99991 15.0001C4.13386 15.0001 0.999817 11.866 0.999817 7.99997C0.999817 4.13393 4.13386 0.999878 7.99991 0.999878C11.866 0.999878 15 4.13393 15 7.99997ZM6.58122 5.28039C6.28833 4.9875 6.28833 4.51262 6.58122 4.21973C6.87411 3.92684 7.34899 3.92684 7.64188 4.21973L10.7151 7.29295C11.1056 7.68348 11.1056 8.31664 10.7151 8.70717L7.64188 11.7804C7.34899 12.0733 6.87411 12.0733 6.58122 11.7804C6.28833 11.4875 6.28833 11.0126 6.58122 10.7197L9.30089 8.00006L6.58122 5.28039Z" fill="#3C3C3C"/>
</svg>
