<svg width="16" height="16" viewBox="0 0 16 16" fill="none" xmlns="http://www.w3.org/2000/svg">
<path fill-rule="evenodd" clip-rule="evenodd" d="M13.5 7.99997C13.5 11.0376 11.0375 13.5001 7.99991 13.5001C4.96229 13.5001 2.49982 11.0376 2.49982 7.99997C2.49982 4.96235 4.96229 2.49988 7.99991 2.49988C11.0375 2.49988 13.5 4.96235 13.5 7.99997ZM15 7.99997C15 11.866 11.866 15.0001 7.99991 15.0001C4.13386 15.0001 0.999817 11.866 0.999817 7.99997C0.999817 4.13393 4.13386 0.999878 7.99991 0.999878C11.866 0.999878 15 4.13393 15 7.99997ZM9.42031 5.28033C9.7132 4.98744 9.7132 4.51256 9.42031 4.21967C9.12741 3.92678 8.65254 3.92678 8.35965 4.21967L5.28642 7.29289C4.8959 7.68342 4.8959 8.31658 5.28642 8.70711L8.35965 11.7803C8.65254 12.0732 9.12741 12.0732 9.42031 11.7803C9.7132 11.4874 9.7132 11.0126 9.42031 10.7197L6.70064 8L9.42031 5.28033Z" fill="#3C3C3C"/>
</svg>
