<svg width="16" height="16" viewBox="0 0 16 16" fill="none" xmlns="http://www.w3.org/2000/svg">
<path fill-rule="evenodd" clip-rule="evenodd" d="M13.5 8C13.5 11.0376 11.0376 13.5 8 13.5C4.96243 13.5 2.5 11.0376 2.5 8C2.5 4.96243 4.96243 2.5 8 2.5C11.0376 2.5 13.5 4.96243 13.5 8ZM15 8C15 11.866 11.866 15 8 15C4.13401 15 1 11.866 1 8C1 4.13401 4.13401 1 8 1C11.866 1 15 4.13401 15 8ZM8.75 5.08337C8.75 4.66916 8.41421 4.33337 8 4.33337C7.58579 4.33337 7.25 4.66916 7.25 5.08337V7.50004C7.25 8.1904 7.80964 8.75004 8.5 8.75004H10.9167C11.3309 8.75004 11.6667 8.41425 11.6667 8.00004C11.6667 7.58583 11.3309 7.25004 10.9167 7.25004H8.75V5.08337Z" fill="#3C3C3C"/>
</svg>
