<svg width="16" height="16" viewBox="0 0 16 16" fill="none" xmlns="http://www.w3.org/2000/svg">
<path fill-rule="evenodd" clip-rule="evenodd" d="M15.0031 2.75293C15.0031 2.33872 14.6673 2.00293 14.2531 2.00293C13.8388 2.00293 13.5031 2.33872 13.5031 2.75293L13.5031 13.25C13.5031 13.6642 13.8388 14 14.2531 14C14.6673 14 15.0031 13.6642 15.0031 13.25L15.0031 2.75293ZM1.75281 8.75C1.33859 8.75 1.00281 8.41421 1.00281 8C1.00281 7.58579 1.33859 7.25 1.75281 7.25H9.43533L6.46935 4.28013C6.17665 3.98705 6.17696 3.51217 6.47004 3.21947C6.76313 2.92677 7.238 2.92708 7.5307 3.22017L11.7761 7.47108C11.7893 7.48437 11.802 7.49804 11.8141 7.51204C12.0691 7.80665 12.0567 8.25266 11.7769 8.53256L7.53035 12.7804C7.2375 13.0733 6.76263 13.0734 6.46969 12.7805C6.17675 12.4877 6.17668 12.0128 6.46953 11.7199L9.4385 8.75H1.75281Z" fill="#3C3C3C"/>
</svg>
