<svg width="16" height="16" viewBox="0 0 16 16" fill="none" xmlns="http://www.w3.org/2000/svg">
<path fill-rule="evenodd" clip-rule="evenodd" d="M1.00281 2.75293C1.00281 2.33872 1.33859 2.00293 1.75281 2.00293C2.16702 2.00293 2.50281 2.33872 2.50281 2.75293L2.50281 13.25C2.50281 13.6642 2.16702 14 1.75281 14C1.33859 14 1.00281 13.6642 1.00281 13.25V2.75293ZM8.46964 12.7803C8.76253 13.0732 9.23741 13.0732 9.5303 12.7803C9.82319 12.4874 9.82319 12.0126 9.5303 11.7197L6.56063 8.75H14.2531C14.6673 8.75 15.0031 8.41421 15.0031 8C15.0031 7.58579 14.6673 7.25 14.2531 7.25H6.56063L9.7803 4.03033C10.0732 3.73744 10.0732 3.26256 9.7803 2.96967C9.48741 2.67678 9.01253 2.67678 8.71964 2.96967L4.21964 7.46967C3.92675 7.76256 3.92675 8.23744 4.21964 8.53033L8.46964 12.7803Z" fill="#3C3C3C"/>
</svg>
