<svg width="16" height="16" viewBox="0 0 16 16" fill="none" xmlns="http://www.w3.org/2000/svg">
<path fill-rule="evenodd" clip-rule="evenodd" d="M8 2.50366C4.96243 2.50366 2.5 4.9661 2.5 8.00366C2.5 11.0412 4.96243 13.5037 8 13.5037H13.0473L12.1827 12.639C11.9039 12.3602 11.8886 11.9131 12.1477 11.6159C12.9904 10.6491 13.5 9.38683 13.5 8.00366C13.5 4.9661 11.0376 2.50366 8 2.50366ZM1 8.00366C1 4.13767 4.13401 1.00366 8 1.00366C11.866 1.00366 15 4.13767 15 8.00366C15 9.51002 14.5235 10.9064 13.7136 12.0486L15.3883 13.7233C15.6028 13.9378 15.667 14.2604 15.5509 14.5407C15.4348 14.8209 15.1613 15.0037 14.858 15.0037H8C4.13401 15.0037 1 11.8697 1 8.00366Z" fill="#3C3C3C"/>
</svg>
