<svg width="16" height="16" viewBox="0 0 16 16" fill="none" xmlns="http://www.w3.org/2000/svg">
<path fill-rule="evenodd" clip-rule="evenodd" d="M5.08376 10.9162C2.75992 10.4859 1 8.44846 1 6C1 3.23858 3.23858 1 6 1C8.44846 1 10.4859 2.75992 10.9162 5.08376C13.2401 5.51413 15 7.55154 15 10C15 12.7614 12.7614 15 10 15C7.55154 15 5.51413 13.2401 5.08376 10.9162ZM5.03974 9.36663C5.32479 7.11167 7.11167 5.32479 9.36663 5.03974C8.94925 3.57361 7.6 2.5 6 2.5C4.067 2.5 2.5 4.067 2.5 6C2.5 7.6 3.57361 8.94925 5.03974 9.36663ZM6.63337 10.9603C7.05076 12.4264 8.4 13.5 10 13.5C11.933 13.5 13.5 11.933 13.5 10C13.5 8.4 12.4264 7.05076 10.9603 6.63337C10.6752 8.88833 8.88833 10.6752 6.63337 10.9603ZM9.45834 6.54166C7.95909 6.77459 6.77459 7.95909 6.54166 9.45834C8.04091 9.22541 9.22541 8.04091 9.45834 6.54166Z" fill="#3C3C3C"/>
</svg>
