<svg width="16" height="16" viewBox="0 0 16 16" fill="none" xmlns="http://www.w3.org/2000/svg">
<path fill-rule="evenodd" clip-rule="evenodd" d="M3.50024 3.5V9H5.50623V6.5061C5.50623 5.95382 5.95394 5.5061 6.50623 5.5061H9.00024V3.5H3.50024ZM10.5002 5.5061H13.0062C13.5585 5.5061 14.0062 5.95382 14.0062 6.5061V13.0061C14.0062 13.5584 13.5585 14.0061 13.0062 14.0061H6.50623C5.95394 14.0061 5.50623 13.5584 5.50623 13.0061V10.5H3.00024C2.44796 10.5 2.00024 10.0523 2.00024 9.5V3C2.00024 2.44772 2.44796 2 3.00024 2H9.50024C10.0525 2 10.5002 2.44772 10.5002 3V5.5061ZM7.00623 12.5061V7.0061H12.5062V12.5061H7.00623Z" fill="#3C3C3C"/>
</svg>
