<svg width="16" height="16" viewBox="0 0 16 16" fill="none" xmlns="http://www.w3.org/2000/svg">
<path d="M3.34449 11.0897V4.91038H2.39943C2.39943 5.6737 2.15407 5.96449 1 5.96449V6.83686H2.30855V11.0897H3.34449Z" fill="#3C3C3C"/>
<path d="M9.4187 11.0897V10.1537H6.35632C6.46537 9.59027 6.6562 9.36309 7.33774 8.97234L8.22828 8.46346C8.9916 8.02728 9.43688 7.32757 9.43688 6.57333C9.43688 5.48287 8.66447 4.80133 7.41952 4.80133C6.10188 4.80133 5.25677 5.66461 5.25677 7.00951H6.33815C6.33815 6.17349 6.7289 5.71005 7.41952 5.71005C7.95567 5.71005 8.32824 6.08262 8.32824 6.62785C8.32824 7.12765 8.06471 7.5184 7.55583 7.8001L6.64711 8.29989C5.57483 8.89056 5.12047 9.72658 5.12047 11.0897H9.4187Z" fill="#3C3C3C"/>
<path d="M12.8645 11.1987C14.1185 11.1987 15 10.4263 15 9.31766C15 8.54525 14.5275 7.96367 13.8005 7.83645C14.482 7.61836 14.8455 7.15491 14.8455 6.50063C14.8455 5.48287 14.0368 4.80133 12.8282 4.80133C11.5469 4.80133 10.729 5.55557 10.729 6.7369H11.7559C11.7559 6.06445 12.1648 5.66461 12.8282 5.66461C13.3916 5.66461 13.7823 6.00993 13.7823 6.50063C13.7823 7.10947 13.4552 7.40935 12.7918 7.40935H12.3465V8.30898H12.7827C13.5551 8.30898 13.9459 8.65429 13.9459 9.32675C13.9459 9.91741 13.5097 10.3172 12.8645 10.3172C12.083 10.3172 11.6377 9.8538 11.6377 9.02687H10.5745C10.5745 10.399 11.4197 11.1987 12.8645 11.1987Z" fill="#3C3C3C"/>
</svg>
