<svg xmlns="http://www.w3.org/2000/svg" width="16" height="16" viewBox="0 0 16 16" fill="none"><path d="M1.75 13.512a.75.75 0 0 0 0 1.5h12.512a.75.75 0 0 0 0-1.5H1.75ZM8.7 9.341a.75.75 0 0 0 0 1.5h5.562a.75.75 0 0 0 0-1.5H8.7ZM1.75 1a.75.75 0 0 0 0 1.5h12.512a.75.75 0 0 0 0-1.5H1.75ZM8.125 5.92a.75.75 0 0 1 .75-.75h5.387a.75.75 0 0 1 0 1.5H8.875a.75.75 0 0 1-.75-.75ZM7.887 8.005a.75.75 0 0 1-.75.75h-3.25l1.35 1.08a.75.75 0 0 1-.937 1.171L1.498 8.765a.972.972 0 0 1 0-1.518L4.3 5.004a.75.75 0 1 1 .937 1.172L3.888 7.255h3.249a.75.75 0 0 1 .75.75Z"/></svg>
