<svg width="16" height="16" viewBox="0 0 16 16" fill="none" xmlns="http://www.w3.org/2000/svg">
<path fill-rule="evenodd" clip-rule="evenodd" d="M6.0083 2.5V2.99928H9.99173V2.5H6.0083ZM5.5083 1C4.95602 1 4.5083 1.44772 4.5083 2V3H3H1.75C1.33579 3 1 3.33579 1 3.75C1 4.16421 1.33579 4.5 1.75 4.5H2V14C2 14.5523 2.44772 15 3 15H13C13.5523 15 14 14.5523 14 14V4.5H14.24C14.6542 4.5 14.99 4.16421 14.99 3.75C14.99 3.33579 14.6542 3 14.24 3H13H11.4917V2C11.4917 1.44772 11.044 1 10.4917 1H5.5083ZM12.5 4.5H3.5V13.5H12.5V4.5ZM6.26251 6.50317C6.67673 6.50317 7.01251 6.83896 7.01251 7.25317V10.8286C7.01251 11.2428 6.67673 11.5786 6.26251 11.5786C5.8483 11.5786 5.51251 11.2428 5.51251 10.8286V7.25317C5.51251 6.83896 5.8483 6.50317 6.26251 6.50317ZM10.588 7.25317C10.588 6.83896 10.2522 6.50317 9.83795 6.50317C9.42374 6.50317 9.08795 6.83896 9.08795 7.25317V10.8286C9.08795 11.2428 9.42374 11.5786 9.83795 11.5786C10.2522 11.5786 10.588 11.2428 10.588 10.8286V7.25317Z" fill="#3C3C3C"/>
</svg>
