<svg width="16" height="16" viewBox="0 0 16 16" fill="none" xmlns="http://www.w3.org/2000/svg">
<path fill-rule="evenodd" clip-rule="evenodd" d="M7.25 8.5V4.5H8.75V8.5H7.25Z" fill="#3C3C3C"/>
<path d="M3 3C3 2.44772 3.44772 2 4 2H12C12.5523 2 13 2.44772 13 3V5C13 5.55228 12.5523 6 12 6H4C3.44772 6 3 5.55228 3 5V3Z" fill="#3C3C3C"/>
<path fill-rule="evenodd" clip-rule="evenodd" d="M2.5 11.5V12.5H5.5V11.5H2.5ZM2 10C1.44772 10 1 10.4477 1 11V13C1 13.5523 1.44772 14 2 14H6C6.55228 14 7 13.5523 7 13V11C7 10.4477 6.55228 10 6 10H2Z" fill="#3C3C3C"/>
<path fill-rule="evenodd" clip-rule="evenodd" d="M10.5 11.5V12.5H13.5V11.5H10.5ZM10 10C9.44772 10 9 10.4477 9 11V13C9 13.5523 9.44772 14 10 14H14C14.5523 14 15 13.5523 15 13V11C15 10.4477 14.5523 10 14 10H10Z" fill="#3C3C3C"/>
<path fill-rule="evenodd" clip-rule="evenodd" d="M3.25 9C3.25 8.0335 4.0335 7.25 5 7.25H11C11.9665 7.25 12.75 8.0335 12.75 9V10H11.25V9C11.25 8.86193 11.1381 8.75 11 8.75H5C4.86193 8.75 4.75 8.86193 4.75 9V10H3.25V9Z" fill="#3C3C3C"/>
</svg>
