<svg width="16" height="16" viewBox="0 0 16 16" fill="none" xmlns="http://www.w3.org/2000/svg">
<path fill-rule="evenodd" clip-rule="evenodd" d="M8.75 6.25V11.75H7.25V6.25H8.75Z" fill="#3C3C3C"/>
<path fill-rule="evenodd" clip-rule="evenodd" d="M4.5 3.5V5.5H11.5V3.5H4.5ZM4 2C3.44772 2 3 2.44772 3 3V6C3 6.55228 3.44772 7 4 7H12C12.5523 7 13 6.55228 13 6V3C13 2.44772 12.5523 2 12 2H4Z" fill="#3C3C3C"/>
<path d="M1 12C1 11.4477 1.44772 11 2 11H4C4.55228 11 5 11.4477 5 12V13C5 13.5523 4.55228 14 4 14H2C1.44772 14 1 13.5523 1 13V12Z" fill="#3C3C3C"/>
<path d="M11 12C11 11.4477 11.4477 11 12 11H14C14.5523 11 15 11.4477 15 12V13C15 13.5523 14.5523 14 14 14H12C11.4477 14 11 13.5523 11 13V12Z" fill="#3C3C3C"/>
<path d="M6 12C6 11.4477 6.44772 11 7 11H9C9.55228 11 10 11.4477 10 12V13C10 13.5523 9.55228 14 9 14H7C6.44772 14 6 13.5523 6 13V12Z" fill="#3C3C3C"/>
<path fill-rule="evenodd" clip-rule="evenodd" d="M2.25 10C2.25 9.0335 3.0335 8.25 4 8.25H12C12.9665 8.25 13.75 9.0335 13.75 10V12H12.25V10C12.25 9.86193 12.1381 9.75 12 9.75H4C3.86193 9.75 3.75 9.86193 3.75 10V12H2.25V10Z" fill="#3C3C3C"/>
</svg>
