<svg width="16" height="16" viewBox="0 0 16 16" fill="none" xmlns="http://www.w3.org/2000/svg">
<path fill-rule="evenodd" clip-rule="evenodd" d="M12.9467 4.11395C13.2396 3.82105 13.2396 3.34618 12.9467 3.05329C12.6538 2.76039 12.1789 2.76039 11.886 3.05329L7.99997 6.93932L4.11407 3.05342C3.82118 2.76053 3.3463 2.76053 3.05341 3.05342C2.76052 3.34631 2.76052 3.82119 3.05341 4.11408L6.93931 7.99998L3.05347 11.8858C2.76057 12.1787 2.76057 12.6536 3.05347 12.9465C3.34636 13.2394 3.82123 13.2394 4.11413 12.9465L7.99997 9.06064L11.8859 12.9466C12.1788 13.2395 12.6537 13.2395 12.9466 12.9466C13.2395 12.6537 13.2395 12.1788 12.9466 11.886L9.06063 7.99998L12.9467 4.11395Z" fill="#3C3C3C"/>
</svg>
