<svg width="16" height="16" viewBox="0 0 16 16" fill="none" xmlns="http://www.w3.org/2000/svg">
<path fill-rule="evenodd" clip-rule="evenodd" d="M13.5 8C13.5 11.0376 11.0376 13.5 8 13.5C4.96243 13.5 2.5 11.0376 2.5 8C2.5 4.96243 4.96243 2.5 8 2.5C11.0376 2.5 13.5 4.96243 13.5 8ZM15 8C15 11.866 11.866 15 8 15C4.13401 15 1 11.866 1 8C1 4.13401 4.13401 1 8 1C11.866 1 15 4.13401 15 8ZM7.50516 6.58216C7.50516 6.43396 7.54075 6.37412 7.55493 6.35364C7.57303 6.32751 7.60514 6.29766 7.66671 6.26869C7.81076 6.20089 7.98183 6.19837 7.99998 6.19837C8.25146 6.19837 8.37604 6.24588 8.4271 6.27273C8.473 6.29688 8.48484 6.31716 8.48821 6.32293L8.48833 6.32313C8.69738 6.68072 9.15674 6.80113 9.51432 6.59207C9.87191 6.38302 9.99232 5.92367 9.78327 5.56608C9.58138 5.22076 9.24283 4.93768 8.75 4.79618V4.5C8.75 4.08579 8.41421 3.75 8 3.75C7.58579 3.75 7.25 4.08579 7.25 4.5V4.82241C7.17727 4.84693 7.1027 4.87631 7.02794 4.91149C6.78839 5.02424 6.52442 5.20698 6.32171 5.49973C6.11509 5.79813 6.00516 6.16345 6.00516 6.58216C6.00516 7.01209 6.12639 7.38268 6.34447 7.68061C6.55649 7.97027 6.82806 8.14808 7.06675 8.25677C7.30423 8.36492 7.53174 8.41526 7.69294 8.43973C7.77543 8.45225 7.84562 8.45874 7.89783 8.46214C7.92406 8.46384 7.94609 8.46479 7.96327 8.46531L7.98542 8.46582L7.99369 8.46591L7.99409 8.46592C7.99701 8.46601 8.00446 8.46628 8.01576 8.46702C8.03861 8.4685 8.07564 8.47177 8.12181 8.47878C8.21794 8.49338 8.33353 8.52116 8.43916 8.56926C8.54357 8.61681 8.61511 8.67337 8.66042 8.73528C8.69967 8.78891 8.75 8.88708 8.75 9.08215C8.75 9.28845 8.69949 9.39187 8.66268 9.44503C8.62196 9.50385 8.55949 9.55549 8.46706 9.59899C8.26128 9.69584 8.02641 9.69837 8 9.69837C7.44286 9.69837 7.31356 9.52157 7.29302 9.49348L7.2927 9.49306C7.26949 9.46134 7.25771 9.42919 7.25206 9.40603C7.2507 9.40044 7.24987 9.39605 7.24939 9.39323C7.23341 8.99315 6.90401 8.6737 6.5 8.6737C6.08579 8.6737 5.75 9.00949 5.75 9.4237H6.5C5.75 9.4237 5.75 9.42424 5.75 9.42479L5.75 9.4259L5.75001 9.42821L5.75006 9.43316L5.75025 9.44435C5.75044 9.45237 5.75076 9.46153 5.75126 9.47176C5.75225 9.4922 5.754 9.51706 5.757 9.54573C5.76297 9.60281 5.77407 9.67656 5.79481 9.76158C5.83604 9.93055 5.91801 10.1546 6.0823 10.379C6.33295 10.7215 6.71624 10.9883 7.25 11.116V11.5C7.25 11.9142 7.58579 12.25 8 12.25C8.41421 12.25 8.75 11.9142 8.75 11.5V11.0898C8.86469 11.0565 8.98513 11.013 9.10583 10.9562C9.37625 10.8289 9.67056 10.6244 9.8959 10.299C10.1252 9.96786 10.25 9.55896 10.25 9.08215C10.25 8.59411 10.1128 8.17995 9.87083 7.84933C9.63489 7.52699 9.33143 7.32738 9.06084 7.20415C8.79147 7.08148 8.53206 7.02388 8.34694 6.99577C8.25249 6.98144 8.17233 6.97403 8.11314 6.97018C8.08343 6.96825 8.05865 6.96719 8.03961 6.96661L8.01532 6.96605L8.00794 6.96597L7.99519 6.9653C7.97932 6.96427 7.95226 6.96191 7.91805 6.95671C7.84584 6.94575 7.76214 6.92523 7.68841 6.89166C7.61589 6.85863 7.57626 6.82386 7.55487 6.79464C7.53954 6.7737 7.50516 6.71912 7.50516 6.58216ZM8 7.65531C8.00001 6.96593 8.00033 6.96593 8.00064 6.96593H8.00069C8.00034 6.96593 8 6.96593 8 7.71593V7.65531ZM7.99933 8.46593C7.99949 8.46593 7.99965 8.46536 7.99977 8.38868C7.99965 8.46593 7.9995 8.46593 7.99935 8.46593H7.99933Z" fill="#3C3C3C"/>
</svg>
