<svg width="16" height="16" viewBox="0 0 16 16" fill="none" xmlns="http://www.w3.org/2000/svg">
<path fill-rule="evenodd" clip-rule="evenodd" d="M1 11.3333V13C1 13.5523 1.44772 14 2 14H3.33333V12.5H2.5V11.3333H1ZM3.33333 2H2C1.44772 2 1 2.44772 1 3V4.66667H2.5V3.5H3.33333V2ZM1 9.66667H2.5V6.33333H1V9.66667ZM4.66667 2V3.5H7.33333V2H4.66667ZM8.66667 2V3.5H11.3333V2H8.66667ZM12.6667 2V3.5H13.5V4.66667H15V3C15 2.44772 14.5523 2 14 2H12.6667ZM15 6.33333H13.5V9.66667H15V6.33333ZM15 11.3333H13.5V12.5H12.6667V14H14C14.5523 14 15 13.5523 15 13V11.3333ZM11.3333 14V12.5H8.66667V14H11.3333ZM7.33333 14V12.5H4.66667V14H7.33333Z" fill="#3C3C3C"/>
</svg>
