<svg width="16" height="16" viewBox="0 0 16 16" fill="none" xmlns="http://www.w3.org/2000/svg">
<path fill-rule="evenodd" clip-rule="evenodd" d="M8.00014 0.990723C8.41436 0.990723 8.75014 1.32651 8.75014 1.74072V9.0605L10.3096 7.50101C10.6025 7.20812 11.0774 7.20812 11.3703 7.50101C11.6632 7.7939 11.6632 8.26878 11.3703 8.56167L8.76619 11.1658C8.34312 11.5888 7.65719 11.5888 7.23413 11.1658L4.63002 8.56167C4.33713 8.26878 4.33713 7.7939 4.63002 7.50101C4.92291 7.20812 5.39779 7.20812 5.69068 7.50101L7.25014 9.06048V1.74072C7.25014 1.32651 7.58593 0.990723 8.00014 0.990723ZM3.5 11.4007V13.4912H12.5V11.4007C12.5 10.9865 12.8358 10.6507 13.25 10.6507C13.6642 10.6507 14 10.9865 14 11.4007V13.7412C14 14.4316 13.4403 14.9912 12.75 14.9912H3.25C2.55964 14.9912 2 14.4316 2 13.7412V11.4007C2 10.9865 2.33579 10.6507 2.75 10.6507C3.16421 10.6507 3.5 10.9865 3.5 11.4007Z" fill="#3C3C3C"/>
</svg>
