<svg width="16" height="16" viewBox="0 0 16 16" fill="none" xmlns="http://www.w3.org/2000/svg">
<path fill-rule="evenodd" clip-rule="evenodd" d="M11.4802 2.36361C10.9921 1.87546 10.2006 1.87546 9.71246 2.36361L3.19844 8.87763C3.11718 8.95889 3.05846 9.05417 3.02229 9.15567C3.01182 9.18052 3.00262 9.20607 2.99479 9.23225L2.04838 12.3964C1.76338 13.3493 2.65131 14.2372 3.60416 13.9522L6.76832 13.0058C6.79874 12.9967 6.82832 12.9857 6.85692 12.9731C6.95371 12.9366 7.04448 12.8794 7.12237 12.8016L13.6364 6.28754C14.1245 5.79938 14.1245 5.00793 13.6364 4.51977L11.4802 2.36361ZM4.78943 9.40796L10.5963 3.60105L12.3989 5.40365L6.59204 11.2106L4.78943 9.40796ZM5.13436 11.9288L3.61826 12.3823L4.07173 10.8662L5.13436 11.9288Z" fill="#3C3C3C"/>
</svg>
