<svg width="16" height="16" viewBox="0 0 16 16" fill="none" xmlns="http://www.w3.org/2000/svg">
<path d="M15 14C15 14.5523 14.5523 15 14 15H5C4.44771 15 4 14.5523 4 14V11.75C4 11.3358 4.33579 11 4.75 11C5.16421 11 5.5 11.3358 5.5 11.75V13.5H13.5V2.5H5.5V4.25C5.5 4.66421 5.16421 5 4.75 5C4.33579 5 4 4.66421 4 4.25V2C4 1.44771 4.44772 1 5 1H14C14.5523 1 15 1.44771 15 2V14Z" fill="#3C3C3C"/>
<path d="M8.21967 5.21967C8.51256 4.92678 8.98744 4.92678 9.28033 5.21967L11.5303 7.46967C11.8232 7.76256 11.8232 8.23744 11.5303 8.53033L9.28033 10.7803C8.98744 11.0732 8.51256 11.0732 8.21967 10.7803C7.92678 10.4874 7.92678 10.0126 8.21967 9.71967L9.18934 8.75H1.75C1.33579 8.75 1 8.41421 1 8C1 7.58579 1.33579 7.25 1.75 7.25H9.18934L8.21967 6.28033C7.92678 5.98744 7.92678 5.51256 8.21967 5.21967Z" fill="#3C3C3C"/>
</svg>
