<svg width="16" height="16" viewBox="0 0 16 16" fill="none" xmlns="http://www.w3.org/2000/svg">
<path fill-rule="evenodd" clip-rule="evenodd" d="M3.50024 3.5V5.90431H12.5098V3.5H3.50024ZM3.00024 2H13.0098C13.5621 2 14.0098 2.44772 14.0098 3V6.40431C14.0098 6.95659 13.5621 7.40431 13.0098 7.40431H3.00024C2.44796 7.40431 2.00024 6.95659 2.00024 6.40431V3C2.00024 2.44771 2.44796 2 3.00024 2ZM2.00226 9.70573C2.00226 9.01538 2.5619 8.45573 3.25226 8.45573H13.2493C13.6635 8.45573 13.9993 8.79152 13.9993 9.20573C13.9993 9.61995 13.6635 9.95573 13.2493 9.95573H3.50226V12.6591H8.00078C8.41499 12.6591 8.75078 12.9949 8.75078 13.4091C8.75078 13.8233 8.41499 14.1591 8.00078 14.1591H3.25226C2.5619 14.1591 2.00226 13.5994 2.00226 12.9091V9.70573ZM15.1406 12.138C15.4335 11.8451 15.4335 11.3702 15.1406 11.0773C14.8477 10.7844 14.3728 10.7844 14.0799 11.0773L11.6079 13.5494L10.9373 12.8788C10.6444 12.5859 10.1695 12.5859 9.87659 12.8788C9.5837 13.1716 9.5837 13.6465 9.87659 13.9394L11.0775 15.1404C11.2182 15.281 11.409 15.36 11.6079 15.36C11.8068 15.36 11.9976 15.281 12.1382 15.1404L15.1406 12.138Z" fill="#3C3C3C"/>
</svg>
