<svg width="16" height="16" viewBox="0 0 16 16" fill="none" xmlns="http://www.w3.org/2000/svg">
<path d="M11.4375 2.0461C11.7962 2.25321 11.9191 2.7119 11.712 3.07062L9.29906 7.25H14.125C14.5392 7.25 14.875 7.58579 14.875 8C14.875 8.41421 14.5392 8.75 14.125 8.75H9.29903L11.712 12.9294C11.9191 13.2882 11.7962 13.7468 11.4375 13.954C11.0788 14.1611 10.6201 14.0382 10.413 13.6794L8 9.50003L5.58702 13.6794C5.37992 14.0382 4.92122 14.1611 4.5625 13.954C4.20378 13.7468 4.08088 13.2882 4.28798 12.9294L6.70098 8.75H1.875C1.46079 8.75 1.125 8.41421 1.125 8C1.125 7.58579 1.46079 7.25 1.875 7.25H6.70095L4.28798 3.07062C4.08088 2.7119 4.20378 2.25321 4.5625 2.0461C4.92122 1.839 5.37992 1.9619 5.58702 2.32062L8 6.50003L10.413 2.32062C10.6201 1.9619 11.0788 1.839 11.4375 2.0461Z" fill="#3C3C3C"/>
</svg>
