<svg width="16" height="16" viewBox="0 0 16 16" fill="none" xmlns="http://www.w3.org/2000/svg">
<path fill-rule="evenodd" clip-rule="evenodd" d="M2.49463 1C1.80427 1 1.24463 1.55964 1.24463 2.25V13.7473C1.24463 14.4377 1.80428 14.9973 2.49463 14.9973H10.584C11.2744 14.9973 11.834 14.4377 11.834 13.7473V12.7583C11.834 12.3441 11.4982 12.0083 11.084 12.0083C10.6698 12.0083 10.334 12.3441 10.334 12.7583V13.4973H2.74463V2.5H10.3395V3.25525C10.3395 3.66946 10.6753 4.00525 11.0895 4.00525C11.5037 4.00525 11.8395 3.66946 11.8395 3.25525V2.25C11.8395 1.55964 11.2799 1 10.5895 1H2.49463ZM11.8609 5.19635C11.568 5.48925 11.568 5.96412 11.8609 6.25701L12.8523 7.24847L5.4057 7.24849C4.99149 7.2485 4.6557 7.58428 4.6557 7.9985C4.6557 8.41271 4.99149 8.7485 5.4057 8.74849L12.8523 8.74847L11.8609 9.73993C11.568 10.0328 11.568 10.5077 11.8609 10.8006C12.1538 11.0935 12.6286 11.0935 12.9215 10.8006L14.9576 8.7645C15.3807 8.34143 15.3807 7.65551 14.9576 7.23244L12.9215 5.19635C12.6286 4.90346 12.1538 4.90346 11.8609 5.19635Z" fill="#3C3C3C"/>
</svg>
