<svg width="16" height="16" viewBox="0 0 16 16" fill="none" xmlns="http://www.w3.org/2000/svg">
<path fill-rule="evenodd" clip-rule="evenodd" d="M9.21999 11C8.83982 11 8.47384 11.1444 8.19603 11.4039L6 13.4553V12.5C6 11.6716 5.32843 11 4.5 11C3.39543 11 2.5 10.1046 2.5 9V5.5C2.5 4.39543 3.39543 3.5 4.5 3.5H11.5C12.6046 3.5 13.5 4.39543 13.5 5.5V9C13.5 10.1046 12.6046 11 11.5 11H9.21999ZM11.5 12.5H9.21999L6.24267 15.2813C5.59958 15.882 4.5 15.4566 4.5 14.607V14V12.5C2.567 12.5 1 10.933 1 9V5.5C1 3.567 2.567 2 4.5 2H11.5C13.433 2 15 3.567 15 5.5V9C15 10.933 13.433 12.5 11.5 12.5ZM11.0625 8.125C10.5793 8.125 10.1875 7.73325 10.1875 7.25C10.1875 6.76675 10.5793 6.375 11.0625 6.375C11.5457 6.375 11.9375 6.76675 11.9375 7.25C11.9375 7.73325 11.5457 8.125 11.0625 8.125ZM7.16876 7.25C7.16876 7.73325 7.56051 8.125 8.04376 8.125C8.52701 8.125 8.91876 7.73325 8.91876 7.25C8.91876 6.76675 8.52701 6.375 8.04376 6.375C7.56051 6.375 7.16876 6.76675 7.16876 7.25ZM4.9375 8.125C4.45425 8.125 4.0625 7.73325 4.0625 7.25C4.0625 6.76675 4.45425 6.375 4.9375 6.375C5.42075 6.375 5.8125 6.76675 5.8125 7.25C5.8125 7.73325 5.42075 8.125 4.9375 8.125Z" fill="#3C3C3C"/>
</svg>
