<svg width="16" height="16" viewBox="0 0 16 16" fill="none" xmlns="http://www.w3.org/2000/svg">
<path fill-rule="evenodd" clip-rule="evenodd" d="M3.50391 3.49591V12.4991H9.75606C10.1703 12.4991 10.5061 12.8349 10.5061 13.2491C10.5061 13.6634 10.1703 13.9991 9.75606 13.9991H3.25391C2.56355 13.9991 2.00391 13.4395 2.00391 12.7491V3.24591C2.00391 2.55555 2.56355 1.99591 3.25391 1.99591H9.29888C9.6304 1.99591 9.94834 2.12761 10.1828 2.36203L13.641 5.82029C13.8754 6.05471 14.0071 6.37265 14.0071 6.70417V9.74807C14.0071 10.1623 13.6714 10.4981 13.2571 10.4981C12.8429 10.4981 12.5071 10.1623 12.5071 9.74807V8.00995H9.25253C8.56218 8.00995 8.00253 7.4503 8.00253 6.75995V3.49591H3.50391ZM9.50253 3.80312L12.2094 6.50995H9.50253V3.80312ZM15.1416 12.7744C15.4337 12.4806 15.4323 12.0058 15.1386 11.7137C14.8449 11.4217 14.37 11.423 14.0779 11.7167L12.6211 13.1819L12.3574 12.9167C12.0654 12.623 11.5905 12.6217 11.2968 12.9137C11.003 13.2058 11.0017 13.6806 11.2938 13.9744L12.0892 14.7744C12.23 14.9159 12.4214 14.9955 12.6211 14.9955C12.8207 14.9955 13.0121 14.9159 13.1529 14.7744L15.1416 12.7744Z" fill="#3C3C3C"/>
</svg>
