<svg width="16" height="16" viewBox="0 0 16 16" fill="none" xmlns="http://www.w3.org/2000/svg">
<path fill-rule="evenodd" clip-rule="evenodd" d="M7.25 5.25C7.25 5.66421 7.58579 6 8 6C8.41421 6 8.75 5.66421 8.75 5.25V4.5H13.25C13.6642 4.5 14 4.16421 14 3.75C14 3.33579 13.6642 3 13.25 3H8.75V2.25C8.75 1.83579 8.41421 1.5 8 1.5C7.58579 1.5 7.25 1.83579 7.25 2.25V3H2.75C2.33579 3 2 3.33579 2 3.75C2 4.16421 2.33579 4.5 2.75 4.5H7.25V5.25ZM2.75 11.5C2.33579 11.5 2 11.8358 2 12.25C2 12.6642 2.33579 13 2.75 13H4V13.75C4 14.1642 4.33579 14.5 4.75 14.5C5.16421 14.5 5.5 14.1642 5.5 13.75V13H13.25C13.6642 13 14 12.6642 14 12.25C14 11.8358 13.6642 11.5 13.25 11.5H5.5V10.75C5.5 10.3358 5.16421 10 4.75 10C4.33579 10 4 10.3358 4 10.75V11.5H2.75ZM2 8C2 7.58579 2.33579 7.25 2.75 7.25H10.5V6.5C10.5 6.08579 10.8358 5.75 11.25 5.75C11.6642 5.75 12 6.08579 12 6.5V7.25H13.25C13.6642 7.25 14 7.58579 14 8C14 8.41421 13.6642 8.75 13.25 8.75H12V9.5C12 9.91421 11.6642 10.25 11.25 10.25C10.8358 10.25 10.5 9.91421 10.5 9.5V8.75H2.75C2.33579 8.75 2 8.41421 2 8Z" fill="#3C3C3C"/>
</svg>
