<svg width="16" height="16" viewBox="0 0 16 16" fill="none" xmlns="http://www.w3.org/2000/svg">
<path fill-rule="evenodd" clip-rule="evenodd" d="M2.0735 2.3587C2.46527 2.2242 2.8919 2.43276 3.0264 2.82452L3.16851 3.23847C3.67755 2.81141 4.20453 2.53634 4.75168 2.37792C5.60599 2.13056 6.43665 2.19111 7.16598 2.27948C7.32218 2.2984 7.47411 2.31819 7.62236 2.33749C8.91721 2.50611 9.93082 2.6381 11.0496 1.84059C11.6855 1.38723 12.7433 1.54814 13.0511 2.4481L14.5325 6.78C14.6715 7.18658 14.6025 7.69151 14.2393 8.0424C13.4697 8.78584 12.5679 9.02233 11.6938 9.06481C11.0754 9.09486 10.4033 9.02611 9.79269 8.96365C9.58898 8.94281 9.39213 8.92267 9.2064 8.90714C8.41035 8.84056 7.72148 8.84185 7.10525 9.05156C6.58763 9.22771 6.06953 9.56957 5.58439 10.2625L6.94054 14.0079C7.08156 14.3973 6.88015 14.8274 6.49068 14.9684C6.10122 15.1094 5.67117 14.908 5.53015 14.5186L4.0428 10.4108L1.60768 3.31159C1.47318 2.91982 1.68174 2.4932 2.0735 2.3587ZM3.70532 4.8025L5.01522 8.62206C5.50688 8.14537 6.04651 7.82738 6.622 7.63154C7.54583 7.31715 8.49502 7.3424 9.33142 7.41236C9.58398 7.43348 9.82177 7.45774 10.0487 7.4809C10.6214 7.53934 11.1247 7.5907 11.621 7.56658C12.1937 7.53874 12.6579 7.40884 13.0534 7.09054L11.7218 3.19679C10.1644 4.20303 8.63692 3.99318 7.41981 3.82598C7.2702 3.80542 7.12527 3.78551 6.98556 3.76859C6.29237 3.6846 5.7165 3.66018 5.16886 3.81874C4.71646 3.94973 4.22908 4.22271 3.70532 4.8025Z" fill="#3C3C3C"/>
</svg>
