<svg width="16" height="16" viewBox="0 0 16 16" fill="none" xmlns="http://www.w3.org/2000/svg">
<path fill-rule="evenodd" clip-rule="evenodd" d="M5.25 2.5V7.75C5.25 9.26878 6.48122 10.5 8 10.5C9.51879 10.5 10.75 9.26878 10.75 7.75V2.5H5.25ZM4.75 1C4.19772 1 3.75 1.44771 3.75 2V4H3.04254C2.04746 4 1.25263 4.82864 1.29406 5.82286L1.30175 6.00733C1.37074 7.66292 2.53659 9.02258 4.08106 9.39736C4.63119 10.7045 5.8162 11.6787 7.25 11.934V13.5H5.75C5.33579 13.5 5 13.8358 5 14.25C5 14.6642 5.33579 15 5.75 15H10.25C10.6642 15 11 14.6642 11 14.25C11 13.8358 10.6642 13.5 10.25 13.5H8.75V11.934C10.1822 11.679 11.3661 10.7067 11.9171 9.40182C13.4625 9.02769 14.6292 7.66756 14.6982 6.01129L14.706 5.82278C14.7474 4.82859 13.9526 4 12.9575 4H12.25V2C12.25 1.44772 11.8023 1 11.25 1H4.75ZM3.75 7.63771V5.5H3.04254C2.90039 5.5 2.78684 5.61838 2.79276 5.76041L2.80045 5.94488C2.82996 6.65312 3.20062 7.26933 3.75 7.63771ZM13.1995 5.94891C13.17 6.65713 12.7994 7.27332 12.25 7.64171V5.5H12.9575C13.0997 5.5 13.2132 5.61837 13.2073 5.7604L13.1995 5.94891Z" fill="#3C3C3C"/>
</svg>
