<svg width="16" height="16" viewBox="0 0 16 16" fill="none" xmlns="http://www.w3.org/2000/svg">
<path fill-rule="evenodd" clip-rule="evenodd" d="M13.5 9V12.5H10.9997C10.9999 12.4934 11 12.4867 11 12.48C11 11.405 10.4346 10.462 9.58488 9.93233L9.94637 9.02852C10.1002 8.64393 9.91313 8.20746 9.52854 8.05363C9.14395 7.8998 8.70747 8.08688 8.55365 8.47147L8.14881 9.48362C8.09951 9.48121 8.0499 9.48 8 9.48C6.34315 9.48 5 10.8231 5 12.48C5 12.4867 5.00009 12.4934 5.00026 12.5H2.5V9C2.5 5.96243 4.96243 3.5 8 3.5C11.0376 3.5 13.5 5.96243 13.5 9ZM6.49974 12.5H9.50026C9.50009 12.4934 9.5 12.4867 9.5 12.48C9.5 11.6516 8.82843 10.98 8 10.98C7.17157 10.98 6.5 11.6516 6.5 12.48C6.5 12.4867 6.49991 12.4934 6.49974 12.5ZM1 9C1 5.13401 4.13401 2 8 2C11.866 2 15 5.13401 15 9V13C15 13.5523 14.5523 14 14 14H2C1.44772 14 1 13.5523 1 13V9ZM8 6C8.41421 6 8.75 5.66421 8.75 5.25C8.75 4.83579 8.41421 4.5 8 4.5C7.58579 4.5 7.25 4.83579 7.25 5.25C7.25 5.66421 7.58579 6 8 6ZM11.5 6.75C11.5 7.16421 11.1642 7.5 10.75 7.5C10.3358 7.5 10 7.16421 10 6.75C10 6.33579 10.3358 6 10.75 6C11.1642 6 11.5 6.33579 11.5 6.75ZM5.25 7.5C5.66421 7.5 6 7.16421 6 6.75C6 6.33579 5.66421 6 5.25 6C4.83579 6 4.5 6.33579 4.5 6.75C4.5 7.16421 4.83579 7.5 5.25 7.5ZM5 9.25C5 9.66421 4.66421 10 4.25 10C3.83579 10 3.5 9.66421 3.5 9.25C3.5 8.83579 3.83579 8.5 4.25 8.5C4.66421 8.5 5 8.83579 5 9.25ZM11.75 10C12.1642 10 12.5 9.66421 12.5 9.25C12.5 8.83579 12.1642 8.5 11.75 8.5C11.3358 8.5 11 8.83579 11 9.25C11 9.66421 11.3358 10 11.75 10Z" fill="#3C3C3C"/>
</svg>
