<svg width="16" height="16" viewBox="0 0 16 16" fill="none" xmlns="http://www.w3.org/2000/svg">
<path fill-rule="evenodd" clip-rule="evenodd" d="M5.55275 3.86366C5.5884 3.96519 5.67271 4.07603 5.81277 4.15201C5.81858 4.15446 5.85054 4.16782 5.92003 4.18499C5.99779 4.2042 6.09841 4.22236 6.22035 4.23817C6.38528 4.25955 6.57083 4.27434 6.76226 4.28409C6.65325 4.13085 6.54293 3.98513 6.43764 3.85991C6.3598 3.76733 6.29109 3.69363 6.23345 3.63938C6.18195 3.59092 6.15381 3.57183 6.14862 3.56831C6.00856 3.49232 5.86689 3.48041 5.75924 3.5042C5.65343 3.52759 5.59299 3.57971 5.56232 3.63311C5.53164 3.6865 5.51771 3.76386 5.55275 3.86366ZM7.99997 3.41199C8.12318 3.23932 8.25467 3.06557 8.38753 2.90756C8.57157 2.68868 8.82255 2.42026 9.10449 2.2673C9.9868 1.78864 11.2098 1.96683 11.7561 2.91782C12.1141 3.54112 12.0289 4.23065 11.6792 4.76662H12.9574C13.6478 4.76662 14.2074 5.32626 14.2074 6.01662V7.29055C14.2074 7.86291 13.8227 8.34542 13.2978 8.49364V12.7479C13.2978 13.4382 12.7382 13.9979 12.0478 13.9979H3.95209C3.26173 13.9979 2.70209 13.4382 2.70209 12.7479V8.49362C2.1772 8.34538 1.79254 7.86289 1.79254 7.29055V6.01662C1.79254 5.32626 2.35219 4.76662 3.04254 4.76662H4.32077C3.97107 4.23065 3.88579 3.54112 4.24384 2.91782C4.79014 1.96683 6.01314 1.78864 6.89545 2.2673C7.17739 2.42026 7.42837 2.68868 7.61241 2.90756C7.74527 3.06557 7.87676 3.23932 7.99997 3.41199ZM3.29254 7.04055V6.26662H12.7074V7.04055H12.0658L12.0478 7.04042H3.95209L3.93406 7.04055H3.29254ZM4.20209 8.54055V12.4979H7.24995V8.54055H4.20209ZM8.74995 8.54055V12.4979H11.7978V8.54055H8.74995ZM10.1872 4.15201C10.3272 4.07603 10.4115 3.96519 10.4472 3.86366C10.4822 3.76386 10.4683 3.6865 10.4376 3.63311C10.407 3.57971 10.3465 3.52759 10.2407 3.5042C10.133 3.48041 9.99138 3.49232 9.85132 3.56831C9.84613 3.57183 9.81799 3.59092 9.76649 3.63938C9.70885 3.69363 9.64014 3.76733 9.5623 3.85991C9.45701 3.98513 9.34668 4.13085 9.23768 4.28409C9.42911 4.27434 9.61465 4.25955 9.77959 4.23817C9.90153 4.22236 10.0021 4.2042 10.0799 4.18499C10.1494 4.16782 10.1814 4.15446 10.1872 4.15201Z" fill="#3C3C3C"/>
</svg>
