<svg width="16" height="16" viewBox="0 0 16 16" fill="none" xmlns="http://www.w3.org/2000/svg">
<path fill-rule="evenodd" clip-rule="evenodd" d="M8.40328 2.47783C8.14908 2.36767 7.86057 2.36792 7.60655 2.47849L1.94998 4.94085C1.14809 5.28992 1.14904 6.42758 1.95152 6.7753L7.59757 9.22185C7.85177 9.332 8.14028 9.33176 8.3943 9.22118L10.5 8.30456V11.1927H5.5V8.31294L4 7.66296V11.6927C4 12.245 4.44771 12.6927 5 12.6927H11C11.5523 12.6927 12 12.245 12 11.6927V7.6516L13.16 7.14665V8.55632C13.16 8.97053 13.4957 9.30632 13.91 9.30632C14.3242 9.30632 14.66 8.97053 14.66 8.55632V5.84984C14.66 5.78346 14.6513 5.7191 14.6352 5.65781C14.5796 5.35223 14.3843 5.0695 14.0493 4.92437L8.40328 2.47783ZM8.00614 3.94051L3.60425 5.85669L7.99471 7.75916L12.3966 5.84298L8.00614 3.94051Z" fill="#3C3C3C"/>
</svg>
