<svg width="16" height="16" viewBox="0 0 16 16" fill="none" xmlns="http://www.w3.org/2000/svg">
<path fill-rule="evenodd" clip-rule="evenodd" d="M11.5 4C11.5 4.27614 11.7239 4.5 12 4.5C12.2761 4.5 12.5 4.27614 12.5 4C12.5 3.72386 12.2761 3.5 12 3.5C11.7239 3.5 11.5 3.72386 11.5 4ZM12 2C10.8954 2 10 2.89543 10 4C10 4.60097 10.2651 5.14002 10.6847 5.50664L9.84909 8.00561C9.6307 8.0219 9.42208 8.07326 9.22885 8.15408L7.84427 6.77508C7.94456 6.53672 8 6.27483 8 6C8 4.89543 7.10457 4 6 4C4.89543 4 4 4.89543 4 6C4 6.63142 4.2926 7.19449 4.74961 7.56103L3.91711 10.0017C2.85098 10.0451 2 10.9232 2 12C2 13.1046 2.89543 14 4 14C5.10457 14 6 13.1046 6 12C6 11.406 5.74105 10.8725 5.32989 10.5062L6.18771 7.99131C6.39872 7.97167 6.60022 7.91924 6.78706 7.83918L8.16248 9.20907C8.05792 9.45165 8 9.71906 8 10C8 11.1046 8.89543 12 10 12C11.1046 12 12 11.1046 12 10C12 9.38149 11.7192 8.82856 11.2782 8.4617L12.1022 5.99744C13.1593 5.94424 14 5.0703 14 4C14 2.89543 13.1046 2 12 2ZM10 10.5C9.72386 10.5 9.5 10.2761 9.5 10C9.5 9.72386 9.72386 9.5 10 9.5C10.2761 9.5 10.5 9.72386 10.5 10C10.5 10.2761 10.2761 10.5 10 10.5ZM3.5 12C3.5 12.2761 3.72386 12.5 4 12.5C4.27614 12.5 4.5 12.2761 4.5 12C4.5 11.7239 4.27614 11.5 4 11.5C3.72386 11.5 3.5 11.7239 3.5 12ZM6 6.5C5.72386 6.5 5.5 6.27614 5.5 6C5.5 5.72386 5.72386 5.5 6 5.5C6.27614 5.5 6.5 5.72386 6.5 6C6.5 6.27614 6.27614 6.5 6 6.5Z" fill="#3C3C3C"/>
</svg>
