<svg width="16" height="16" viewBox="0 0 16 16" fill="none" xmlns="http://www.w3.org/2000/svg">
<path fill-rule="evenodd" clip-rule="evenodd" d="M3.50024 5.99939V3.5H5.99963V5.99939H3.50024ZM2.00024 3C2.00024 2.44772 2.44796 2 3.00024 2H6.49963C7.05192 2 7.49963 2.44772 7.49963 3V6.49939C7.49963 7.05167 7.05192 7.49939 6.49963 7.49939H3.00024C2.44796 7.49939 2.00024 7.05167 2.00024 6.49939V3ZM10.0008 5.99939V3.5H12.5002V5.99939H10.0008ZM8.50082 3C8.50082 2.44772 8.94854 2 9.50082 2H13.0002C13.5525 2 14.0002 2.44772 14.0002 3V6.49939C14.0002 7.05167 13.5525 7.49939 13.0002 7.49939H9.50082C8.94854 7.49939 8.50082 7.05167 8.50082 6.49939V3ZM3.50024 10V12.4994H5.99963V10H3.50024ZM3.00024 8.5C2.44796 8.5 2.00024 8.94772 2.00024 9.5V12.9994C2.00024 13.5517 2.44796 13.9994 3.00024 13.9994H6.49963C7.05192 13.9994 7.49963 13.5517 7.49963 12.9994V9.5C7.49963 8.94772 7.05192 8.5 6.49963 8.5H3.00024ZM10.0002 12.4994V10H12.4996V12.4994H10.0002ZM8.50024 9.5C8.50024 8.94772 8.94796 8.5 9.50024 8.5H12.9996C13.5519 8.5 13.9996 8.94772 13.9996 9.5V12.9994C13.9996 13.5516 13.5519 13.9994 12.9996 13.9994H9.50025C8.94796 13.9994 8.50024 13.5517 8.50024 12.9994V9.5Z" fill="#3C3C3C"/>
</svg>
