<svg width="16" height="16" viewBox="0 0 16 16" fill="none" xmlns="http://www.w3.org/2000/svg">
<path d="M6.54167 2.45833C6.54167 3.26375 5.88875 3.91667 5.08333 3.91667C4.27792 3.91667 3.625 3.26375 3.625 2.45833C3.625 1.65292 4.27792 1 5.08333 1C5.88875 1 6.54167 1.65292 6.54167 2.45833Z" fill="#3C3C3C"/>
<path d="M6.54167 7.99996C6.54167 8.80537 5.88875 9.45829 5.08333 9.45829C4.27792 9.45829 3.625 8.80537 3.625 7.99996C3.625 7.19454 4.27792 6.54163 5.08333 6.54163C5.88875 6.54163 6.54167 7.19454 6.54167 7.99996Z" fill="#3C3C3C"/>
<path d="M6.54167 13.5417C6.54167 14.3471 5.88875 15 5.08333 15C4.27792 15 3.625 14.3471 3.625 13.5417C3.625 12.7363 4.27792 12.0834 5.08333 12.0834C5.88875 12.0834 6.54167 12.7363 6.54167 13.5417Z" fill="#3C3C3C"/>
<path d="M12.375 2.45833C12.375 3.26375 11.7221 3.91667 10.9167 3.91667C10.1113 3.91667 9.45837 3.26375 9.45837 2.45833C9.45837 1.65292 10.1113 1 10.9167 1C11.7221 1 12.375 1.65292 12.375 2.45833Z" fill="#3C3C3C"/>
<path d="M12.375 7.99996C12.375 8.80537 11.7221 9.45829 10.9167 9.45829C10.1113 9.45829 9.45837 8.80537 9.45837 7.99996C9.45837 7.19454 10.1113 6.54163 10.9167 6.54163C11.7221 6.54163 12.375 7.19454 12.375 7.99996Z" fill="#3C3C3C"/>
<path d="M12.375 13.5417C12.375 14.3471 11.7221 15 10.9167 15C10.1113 15 9.45837 14.3471 9.45837 13.5417C9.45837 12.7363 10.1113 12.0834 10.9167 12.0834C11.7221 12.0834 12.375 12.7363 12.375 13.5417Z" fill="#3C3C3C"/>
</svg>
