<svg width="16" height="16" viewBox="0 0 16 16" fill="none" xmlns="http://www.w3.org/2000/svg">
<path fill-rule="evenodd" clip-rule="evenodd" d="M11.875 9.36087C11.3336 9.67348 10.6665 9.67348 10.125 9.36087L8.09392 8.18822C7.55247 7.87561 7.21892 7.29789 7.21892 6.67267V4.32737C7.21892 3.70216 7.55247 3.12444 8.09392 2.81183L10.125 1.63918C10.6665 1.32657 11.3336 1.32657 11.875 1.63918L13.9061 2.81183C14.4475 3.12444 14.7811 3.70216 14.7811 4.32737V6.67267C14.7811 7.29789 14.4475 7.87561 13.9061 8.18822L11.875 9.36087ZM10.875 8.06183C10.9524 8.10649 11.0477 8.10649 11.125 8.06183L13.1561 6.88918C13.2334 6.84452 13.2811 6.76199 13.2811 6.67267V4.32737C13.2811 4.23806 13.2334 4.15553 13.1561 4.11087L11.125 2.93822C11.0477 2.89356 10.9524 2.89356 10.875 2.93822L8.84392 4.11087C8.76657 4.15553 8.71892 4.23806 8.71892 4.32737V6.67267C8.71892 6.76199 8.76657 6.84452 8.84392 6.88918L10.875 8.06183Z" fill="#3C3C3C"/>
<path fill-rule="evenodd" clip-rule="evenodd" d="M5.87501 9.36087C5.33355 9.67348 4.66646 9.67348 4.12501 9.36087L2.09392 8.18822C1.55247 7.87561 1.21892 7.29789 1.21892 6.67267L1.21892 4.32737C1.21892 3.70216 1.55247 3.12444 2.09392 2.81183L4.12501 1.63918C4.66646 1.32657 5.33356 1.32657 5.87501 1.63918L7.9061 2.81183C8.44755 3.12444 8.7811 3.70216 8.7811 4.32737V6.67267C8.7811 7.29789 8.44755 7.87561 7.9061 8.18822L5.87501 9.36087ZM4.87501 8.06183C4.95236 8.10649 5.04766 8.10649 5.12501 8.06183L7.1561 6.88918C7.23345 6.84452 7.2811 6.76199 7.2811 6.67267V4.32737C7.2811 4.23806 7.23345 4.15553 7.1561 4.11087L5.12501 2.93822C5.04766 2.89356 4.95236 2.89356 4.87501 2.93822L2.84392 4.11087C2.76657 4.15553 2.71892 4.23806 2.71892 4.32737L2.71892 6.67267C2.71892 6.76199 2.76657 6.84452 2.84392 6.88918L4.87501 8.06183Z" fill="#3C3C3C"/>
<path fill-rule="evenodd" clip-rule="evenodd" d="M8.87501 14.658C8.33355 14.9706 7.66646 14.9706 7.12501 14.658L5.09392 13.4854C4.55247 13.1728 4.21892 12.595 4.21892 11.9698V9.62453C4.21892 8.99932 4.55247 8.4216 5.09392 8.10899L7.12501 6.93634C7.66646 6.62373 8.33356 6.62373 8.87501 6.93634L10.9061 8.10899C11.4475 8.4216 11.7811 8.99932 11.7811 9.62453V11.9698C11.7811 12.595 11.4475 13.1728 10.9061 13.4854L8.87501 14.658ZM7.87501 13.359C7.95236 13.4036 8.04766 13.4036 8.12501 13.359L10.1561 12.1863C10.2334 12.1417 10.2811 12.0591 10.2811 11.9698V9.62453C10.2811 9.53522 10.2334 9.45268 10.1561 9.40803L8.12501 8.23538C8.04766 8.19072 7.95236 8.19072 7.87501 8.23538L5.84392 9.40803C5.76657 9.45268 5.71892 9.53522 5.71892 9.62453V11.9698C5.71892 12.0591 5.76657 12.1417 5.84392 12.1863L7.87501 13.359Z" fill="#3C3C3C"/>
</svg>
