<svg width="16" height="16" viewBox="0 0 16 16" fill="none" xmlns="http://www.w3.org/2000/svg">
<path fill-rule="evenodd" clip-rule="evenodd" d="M7.2404 3.03285C7.29778 2.7701 7.57994 2.5 8.00013 2.5C8.42027 2.5 8.70242 2.77003 8.75985 3.03276L8.93433 3.83103L9.71476 3.58893C10.0944 3.47117 10.4897 3.62617 10.6608 3.89869C10.8154 4.14494 10.7697 4.45928 10.513 4.66709L9.79316 5.24999L10.5131 5.83286C10.7697 6.04067 10.8154 6.35502 10.6608 6.60127C10.4898 6.87379 10.0944 7.0288 9.71478 6.91103L8.9343 6.6689L8.75985 7.46724C8.70244 7.72998 8.42029 8.00003 8.00013 8.00003C7.58 8.00003 7.29785 7.73001 7.24042 7.46729L7.06591 6.66902L6.28549 6.91115C5.90586 7.02892 5.5105 6.87392 5.33942 6.6014C5.18484 6.35515 5.23053 6.04082 5.48716 5.83301L6.20694 5.25017L5.48718 4.66729C5.23057 4.45949 5.18488 4.14517 5.33946 3.89893C5.51054 3.62642 5.90586 3.47141 6.28548 3.58916L7.06603 3.83127L7.2404 3.03285ZM8.00013 1C7.19431 1 6.45092 1.40535 6.04567 2.05058C5.27397 2.04404 4.5051 2.40681 4.06905 3.1014C3.63417 3.79414 3.66158 4.60884 4.03967 5.25013C3.66153 5.89142 3.63411 6.70616 4.06901 7.39893C4.5051 8.09358 5.27407 8.45635 6.04585 8.44975C6.45114 9.0948 7.19443 9.50003 8.00013 9.50003C8.80588 9.50003 9.54921 9.09475 9.95449 8.44962C10.7262 8.4562 11.4952 8.09343 11.9312 7.3988C12.3662 6.70601 12.3387 5.89125 11.9606 5.24995C12.3387 4.60865 12.3661 3.79392 11.9312 3.10116C11.4951 2.40653 10.7262 2.04376 9.95445 2.05034C9.54916 1.40525 8.80585 1 8.00013 1ZM8 6.25C8.55228 6.25 9 5.80228 9 5.25C9 4.69772 8.55228 4.25 8 4.25C7.44772 4.25 7 4.69772 7 5.25C7 5.80228 7.44772 6.25 8 6.25ZM2.33635 10.8899C2.15083 9.94447 2.96341 9.18917 3.84563 9.30497C5.58982 9.53391 7.12996 10.4799 8.00001 11.8367C8.87006 10.4799 10.4102 9.53391 12.1544 9.30497C13.0366 9.18917 13.8492 9.94447 13.6637 10.8899C13.1785 13.3626 10.7649 15.125 8.00001 15.125C5.23507 15.125 2.82154 13.3626 2.33635 10.8899ZM7.13759 13.5509C5.47893 13.2606 4.22587 12.1513 3.86086 10.8244C5.53034 11.1166 6.76995 12.2196 7.13759 13.5509ZM8.86242 13.5509C10.5211 13.2606 11.7741 12.1513 12.1391 10.8244C10.4697 11.1166 9.23006 12.2196 8.86242 13.5509Z" fill="#3C3C3C"/>
</svg>
