<svg width="16" height="16" viewBox="0 0 16 16" fill="none" xmlns="http://www.w3.org/2000/svg">
<path fill-rule="evenodd" clip-rule="evenodd" d="M13.5 8C13.5 11.0376 11.0376 13.5 8 13.5C4.96243 13.5 2.5 11.0376 2.5 8C2.5 4.96243 4.96243 2.5 8 2.5C11.0376 2.5 13.5 4.96243 13.5 8ZM15 8C15 11.866 11.866 15 8 15C4.13401 15 1 11.866 1 8C1 4.13401 4.13401 1 8 1C11.866 1 15 4.13401 15 8ZM5.25 6.5C5.66421 6.5 6 6.16421 6 5.75C6 5.33579 5.66421 5 5.25 5C4.83579 5 4.5 5.33579 4.5 5.75C4.5 6.16421 4.83579 6.5 5.25 6.5ZM11.5 5.75C11.5 6.16421 11.1642 6.5 10.75 6.5C10.3358 6.5 10 6.16421 10 5.75C10 5.33579 10.3358 5 10.75 5C11.1642 5 11.5 5.33579 11.5 5.75ZM5.23994 8.37761C5.17235 7.96895 4.78627 7.69246 4.37761 7.76005C3.96895 7.82764 3.69246 8.21372 3.76005 8.62238C4.09927 10.6734 5.86075 12.25 7.99999 12.25C10.1392 12.25 11.9007 10.6734 12.2399 8.62238C12.3075 8.21372 12.031 7.82764 11.6224 7.76005C11.2137 7.69246 10.8276 7.96895 10.76 8.37761C10.5361 9.73186 9.37787 10.75 7.99999 10.75C6.62212 10.75 5.46393 9.73186 5.23994 8.37761Z" fill="#3C3C3C"/>
</svg>
