<svg width="16" height="16" viewBox="0 0 16 16" fill="none" xmlns="http://www.w3.org/2000/svg">
<path fill-rule="evenodd" clip-rule="evenodd" d="M8.00012 1.99792C6.89555 1.99792 6.00012 2.89336 6.00012 3.99792C6.00012 4.83722 6.51711 5.55577 7.25 5.8525V6.9986H5C3.48122 6.9986 2.25 8.22981 2.25 9.7486V10.1465C1.5164 10.4429 0.998779 11.1618 0.998779 12.0016C0.998779 13.1062 1.89421 14.0016 2.99878 14.0016C4.10335 14.0016 4.99878 13.1062 4.99878 12.0016C4.99878 11.1627 4.48231 10.4445 3.75 10.1475V9.7486C3.75 9.05824 4.30964 8.4986 5 8.4986H7.25V10.147C6.51711 10.4438 6.00012 11.1623 6.00012 12.0016C6.00012 13.1062 6.89555 14.0016 8.00012 14.0016C9.10469 14.0016 10.0001 13.1062 10.0001 12.0016C10.0001 11.1622 9.48302 10.4436 8.75 10.1469V8.4986H10.9961C11.6864 8.4986 12.2461 9.05824 12.2461 9.7486V10.149C11.5158 10.4469 11.0011 11.1642 11.0011 12.0016C11.0011 13.1062 11.8965 14.0016 13.0011 14.0016C14.1057 14.0016 15.0011 13.1062 15.0011 12.0016C15.0011 11.1603 14.4817 10.4404 13.7461 10.1449V9.7486C13.7461 8.22981 12.5149 6.9986 10.9961 6.9986H8.75V5.85259C9.48302 5.55593 10.0001 4.83732 10.0001 3.99792C10.0001 2.89336 9.10469 1.99792 8.00012 1.99792ZM7.50012 3.99792C7.50012 3.72178 7.72398 3.49792 8.00012 3.49792C8.27626 3.49792 8.50012 3.72178 8.50012 3.99792C8.50012 4.27407 8.27626 4.49792 8.00012 4.49792C7.72398 4.49792 7.50012 4.27407 7.50012 3.99792ZM13.0011 11.5016C12.725 11.5016 12.5011 11.7254 12.5011 12.0016C12.5011 12.2777 12.725 12.5016 13.0011 12.5016C13.2772 12.5016 13.5011 12.2777 13.5011 12.0016C13.5011 11.7254 13.2772 11.5016 13.0011 11.5016ZM2.49878 12.0016C2.49878 11.7255 2.72264 11.5016 2.99878 11.5016C3.27492 11.5016 3.49878 11.7255 3.49878 12.0016C3.49878 12.2778 3.27492 12.5016 2.99878 12.5016C2.72264 12.5016 2.49878 12.2778 2.49878 12.0016ZM7.50012 12.0016C7.50012 11.7255 7.72398 11.5016 8.00012 11.5016C8.27626 11.5016 8.50012 11.7255 8.50012 12.0016C8.50012 12.2778 8.27626 12.5016 8.00012 12.5016C7.72398 12.5016 7.50012 12.2778 7.50012 12.0016Z" fill="#3C3C3C"/>
</svg>
