<svg width="16" height="16" viewBox="0 0 16 16" fill="none" xmlns="http://www.w3.org/2000/svg">
<path fill-rule="evenodd" clip-rule="evenodd" d="M3.50024 6.32128V12.5H5.30005V11.1182C5.30005 9.73746 6.41934 8.61817 7.80005 8.61817H8.19995C9.58066 8.61817 10.7 9.73746 10.7 11.1182V12.5H12.4998V6.32128L8 2.72147L3.50024 6.32128ZM7.37531 1.30029C7.74052 1.00812 8.25948 1.00812 8.62469 1.30029L13.6245 5.3001C13.8617 5.48987 13.9998 5.77718 13.9998 6.08097V13C13.9998 13.5523 13.552 14 12.9998 14H10.2C9.64767 14 9.19995 13.5523 9.19995 13V11.1182C9.19995 10.5659 8.75224 10.1182 8.19995 10.1182H7.80005C7.24776 10.1182 6.80005 10.5659 6.80005 11.1182V13C6.80005 13.5523 6.35233 14 5.80005 14H3.00024C2.44796 14 2.00024 13.5523 2.00024 13V6.08097C2.00024 5.77718 2.13833 5.48987 2.37555 5.3001L7.37531 1.30029Z" fill="#3C3C3C"/>
</svg>
