<svg width="16" height="16" viewBox="0 0 16 16" fill="none" xmlns="http://www.w3.org/2000/svg">
<path fill-rule="evenodd" clip-rule="evenodd" d="M13.25 2.5C13.6642 2.5 14 2.16421 14 1.75C14 1.33579 13.6642 1 13.25 1H2.75C2.33579 1 2 1.33579 2 1.75C2 2.16421 2.33579 2.5 2.75 2.5H3.61641C3.26695 4.19867 3.31848 5.51643 4.00188 6.54113C4.42665 7.17805 5.05462 7.63304 5.81823 7.99764C5.04773 8.36313 4.41623 8.81968 3.99118 9.46038C3.31097 10.4857 3.26579 11.8037 3.61617 13.5H2.75C2.33579 13.5 2 13.8358 2 14.25C2 14.6642 2.33579 15 2.75 15H13.25C13.6642 15 14 14.6642 14 14.25C14 13.8358 13.6642 13.5 13.25 13.5H12.3839C12.7334 11.8013 12.6818 10.4836 11.9984 9.45885C11.5736 8.82195 10.9456 8.36696 10.182 8.00236C10.9525 7.63687 11.5841 7.18033 12.0091 6.53964C12.6894 5.51433 12.7346 4.19627 12.3842 2.5H13.25ZM8.00061 7.21614C9.55702 6.73699 10.3641 6.30589 10.7592 5.71036C11.1118 5.17901 11.2395 4.34388 10.9039 2.75H5.09663C4.76292 4.34126 4.89496 5.17679 5.24981 5.70886C5.64827 6.30632 6.45693 6.73725 8.00061 7.21614ZM7.99963 8.78386C6.44324 9.26301 5.6362 9.69411 5.24112 10.2896C4.8886 10.821 4.76091 11.6561 5.09645 13.25H10.9037C11.2374 11.6588 11.1053 10.8232 10.7505 10.2911C10.352 9.69368 9.54331 9.26275 7.99963 8.78386Z" fill="#3C3C3C"/>
</svg>
