<svg width="16" height="16" viewBox="0 0 16 16" fill="none" xmlns="http://www.w3.org/2000/svg">
<path fill-rule="evenodd" clip-rule="evenodd" d="M2 3C2 2.44772 2.44772 2 3 2H13C13.5523 2 14 2.44772 14 3V13C14 13.1583 13.9632 13.3081 13.8977 13.4411C13.8918 13.4531 13.8857 13.465 13.8793 13.4767C13.71 13.7884 13.3797 14 13 14H3C2.44772 14 2 13.5523 2 13V3ZM3.5 8.01188V3.5H12.5V8.29263L11.7273 7.51994C11.3368 7.12941 10.7036 7.12941 10.3131 7.51994L9.15772 8.67532L6.70425 6.22185C6.31372 5.83132 5.68056 5.83132 5.29003 6.22185L3.5 8.01188ZM10.8611 12.5H3.5V10.1332L5.99714 7.63606L10.8611 12.5ZM12.5 12.0176V10.4139L11.0202 8.93415L10.2184 9.73598L12.5 12.0176Z" fill="#3C3C3C"/>
</svg>
