<svg width="16" height="16" viewBox="0 0 16 16" fill="none" xmlns="http://www.w3.org/2000/svg">
<g clip-path="url(#clip0_4175_24)">
<path fill-rule="evenodd" clip-rule="evenodd" d="M1.7442 0.993927C1.32999 0.993927 0.994202 1.32971 0.994202 1.74393C0.994202 2.15814 1.32999 2.49393 1.7442 2.49393L14.2558 2.49393C14.67 2.49393 15.0058 2.15814 15.0058 1.74393C15.0058 1.32971 14.67 0.993927 14.2558 0.993927H1.7442ZM8.69508 9.33524C8.28087 9.33524 7.94508 9.67102 7.94508 10.0852C7.94508 10.4994 8.28087 10.8352 8.69508 10.8352H14.2558C14.67 10.8352 15.0058 10.4994 15.0058 10.0852C15.0058 9.67102 14.67 9.33524 14.2558 9.33524H8.69508ZM8.11887 5.91434C8.11887 5.50012 8.45465 5.16434 8.86887 5.16434H14.2558C14.67 5.16434 15.0058 5.50012 15.0058 5.91434C15.0058 6.32855 14.67 6.66434 14.2558 6.66434H8.86887C8.45465 6.66434 8.11887 6.32855 8.11887 5.91434ZM1.7442 13.5056C1.32999 13.5056 0.994202 13.8414 0.994202 14.2556C0.994202 14.6699 1.32999 15.0056 1.7442 15.0056L14.2558 15.0056C14.67 15.0056 15.0058 14.6699 15.0058 14.2556C15.0058 13.8414 14.67 13.5056 14.2558 13.5056L1.7442 13.5056ZM0.994202 7.99979C0.994202 7.58557 1.32999 7.24979 1.7442 7.24979L4.99411 7.24979L3.64395 6.16939C3.32054 5.9106 3.26815 5.43862 3.52695 5.11521C3.78575 4.79179 4.25772 4.73941 4.58114 4.9982L7.38289 7.24017C7.86928 7.62937 7.86928 8.36917 7.38289 8.75838L4.58114 11.0003C4.25772 11.2591 3.78575 11.2068 3.52695 10.8833C3.26815 10.5599 3.32054 10.0879 3.64395 9.82915L4.99282 8.74979L1.7442 8.74979C1.32999 8.74979 0.994202 8.414 0.994202 7.99979Z" fill="#3C3C3C"/>
</g>
<defs>
<clipPath id="clip0_4175_24">
<rect width="16" height="16" fill="white"/>
</clipPath>
</defs>
</svg>
