<svg width="16" height="16" viewBox="0 0 16 16" xmlns="http://www.w3.org/2000/svg" fill="none"><path fill-rule="evenodd" clip-rule="evenodd" d="M1.75 1C1.33579 1 1 1.33579 1 1.75C1 2.16421 1.33579 2.5 1.75 2.5L14.2616 2.5C14.6758 2.5 15.0116 2.16421 15.0116 1.75C15.0116 1.33579 14.6758 1 14.2616 1H1.75ZM8.70088 9.34131C8.28667 9.34131 7.95088 9.6771 7.95088 10.0913C7.95088 10.5055 8.28667 10.8413 8.70088 10.8413H14.2616C14.6758 10.8413 15.0116 10.5055 15.0116 10.0913C15.0116 9.6771 14.6758 9.34131 14.2616 9.34131H8.70088ZM8.12466 5.92041C8.12466 5.5062 8.46045 5.17041 8.87466 5.17041H14.2616C14.6758 5.17041 15.0116 5.5062 15.0116 5.92041C15.0116 6.33462 14.6758 6.67041 14.2616 6.67041H8.87466C8.46045 6.67041 8.12466 6.33462 8.12466 5.92041ZM1.75 13.5117C1.33579 13.5117 1 13.8475 1 14.2617C1 14.6759 1.33579 15.0117 1.75 15.0117L14.2616 15.0117C14.6758 15.0117 15.0116 14.6759 15.0116 14.2617C15.0116 13.8475 14.6758 13.5117 14.2616 13.5117L1.75 13.5117ZM1 8.00586C1 7.59165 1.33579 7.25586 1.75 7.25586L4.99991 7.25586L3.64975 6.17547C3.32634 5.91667 3.27395 5.44469 3.53275 5.12128C3.79155 4.79786 4.26352 4.74548 4.58694 5.00428L7.38869 7.24624C7.87508 7.63544 7.87507 8.37525 7.38869 8.76445L4.58694 11.0064C4.26352 11.2652 3.79155 11.2128 3.53275 10.8894C3.27395 10.566 3.32634 10.094 3.64975 9.83522L4.99862 8.75586L1.75 8.75586C1.33579 8.75586 1 8.42007 1 8.00586Z" fill="#3C3C3C"/></svg>
