<svg width="16" height="16" viewBox="0 0 16 16" fill="none" xmlns="http://www.w3.org/2000/svg">
<path fill-rule="evenodd" clip-rule="evenodd" d="M8 13.5C11.0376 13.5 13.5 11.0376 13.5 8C13.5 4.96243 11.0376 2.5 8 2.5C4.96243 2.5 2.5 4.96243 2.5 8C2.5 11.0376 4.96243 13.5 8 13.5ZM8 15C11.866 15 15 11.866 15 8C15 4.13401 11.866 1 8 1C4.13401 1 1 4.13401 1 8C1 11.866 4.13401 15 8 15ZM8 7.88403C8.41421 7.88403 8.75 8.21982 8.75 8.63403V11.134C8.75 11.5482 8.41421 11.884 8 11.884C7.58579 11.884 7.25 11.5482 7.25 11.134V8.63403C7.25 8.21982 7.58579 7.88403 8 7.88403ZM8 6.86597C8.55228 6.86597 9 6.41825 9 5.86597C9 5.31368 8.55228 4.86597 8 4.86597C7.44772 4.86597 7 5.31368 7 5.86597C7 6.41825 7.44772 6.86597 8 6.86597Z" fill="#3C3C3C"/>
</svg>
