<svg width="16" height="16" viewBox="0 0 16 16" fill="none" xmlns="http://www.w3.org/2000/svg">
<path d="M11 8.25C11 8.66421 10.6642 9 10.25 9C9.83579 9 9.5 8.66421 9.5 8.25C9.5 7.83579 9.83579 7.5 10.25 7.5C10.6642 7.5 11 7.83579 11 8.25Z" fill="#3C3C3C"/>
<path d="M5.75 7.5C5.33579 7.5 5 7.83579 5 8.25C5 8.66421 5.33579 9 5.75 9H7.75C8.16421 9 8.5 8.66421 8.5 8.25C8.5 7.83579 8.16421 7.5 7.75 7.5H5.75Z" fill="#3C3C3C"/>
<path d="M11 5.25C11 5.66421 10.6642 6 10.25 6C9.83579 6 9.5 5.66421 9.5 5.25C9.5 4.83579 9.83579 4.5 10.25 4.5C10.6642 4.5 11 4.83579 11 5.25Z" fill="#3C3C3C"/>
<path d="M5.75 4.5C5.33579 4.5 5 4.83579 5 5.25C5 5.66421 5.33579 6 5.75 6H7.75C8.16421 6 8.5 5.66421 8.5 5.25C8.5 4.83579 8.16421 4.5 7.75 4.5H5.75Z" fill="#3C3C3C"/>
<path fill-rule="evenodd" clip-rule="evenodd" d="M3 1C2.44772 1 2 1.44772 2 2V13.9983C2 14.8772 3.05251 15.3286 3.68929 14.7228L4.8105 13.656C5.19669 13.2886 5.80322 13.2887 6.1893 13.6562L7.31049 14.7236C7.69666 15.0912 8.30334 15.0912 8.68951 14.7236L9.8107 13.6562C10.1968 13.2887 10.8033 13.2886 11.1895 13.656L12.3107 14.7228C12.9475 15.3286 14 14.8772 14 13.9983V2C14 1.44772 13.5523 1 13 1H3ZM3.5 2.5V12.8324L3.77656 12.5693C4.74205 11.6507 6.25836 11.6509 7.22357 12.5698L8 13.309L8.77643 12.5698C9.74164 11.6509 11.258 11.6507 12.2234 12.5693L12.5 12.8324V2.5H3.5Z" fill="#3C3C3C"/>
</svg>
