<svg width="16" height="16" viewBox="0 0 16 16" fill="none" xmlns="http://www.w3.org/2000/svg">
<path fill-rule="evenodd" clip-rule="evenodd" d="M6.68198 1.75122C6.68198 1.33701 7.01777 1.00122 7.43198 1.00122H11.9766C12.3908 1.00122 12.7266 1.33701 12.7266 1.75122C12.7266 2.16543 12.3908 2.50122 11.9766 2.50122H10.2771L7.27778 13.4988H8.56813C8.98234 13.4988 9.31813 13.8346 9.31813 14.2488C9.31813 14.663 8.98234 14.9988 8.56813 14.9988H4.02356C3.60935 14.9988 3.27356 14.663 3.27356 14.2488C3.27356 13.8346 3.60935 13.4988 4.02356 13.4988H5.723L8.72233 2.50122H7.43198C7.01777 2.50122 6.68198 2.16543 6.68198 1.75122Z" fill="#3C3C3C"/>
</svg>
