<svg width="16" height="16" viewBox="0 0 16 16" fill="none" xmlns="http://www.w3.org/2000/svg">
<path d="M9.45833 2.45833C9.45833 3.26375 8.80542 3.91667 8 3.91667C7.19459 3.91667 6.54167 3.26375 6.54167 2.45833C6.54167 1.65292 7.19459 1 8 1C8.80542 1 9.45833 1.65292 9.45833 2.45833Z" fill="#3C3C3C"/>
<path d="M9.45833 8.00001C9.45833 8.80542 8.80542 9.45834 8 9.45834C7.19459 9.45834 6.54167 8.80542 6.54167 8.00001C6.54167 7.19459 7.19459 6.54167 8 6.54167C8.80542 6.54167 9.45833 7.19459 9.45833 8.00001Z" fill="#3C3C3C"/>
<path d="M9.45833 13.5417C9.45833 14.3471 8.80542 15 8 15C7.19459 15 6.54167 14.3471 6.54167 13.5417C6.54167 12.7362 7.19459 12.0833 8 12.0833C8.80542 12.0833 9.45833 12.7362 9.45833 13.5417Z" fill="#3C3C3C"/>
</svg>
