<svg width="16" height="16" viewBox="0 0 16 16" fill="none" xmlns="http://www.w3.org/2000/svg">
<path d="M9.75 5.5C9.75 5.91421 10.0858 6.25 10.5 6.25C10.9142 6.25 11.25 5.91421 11.25 5.5C11.25 5.08579 10.9142 4.75 10.5 4.75C10.0858 4.75 9.75 5.08579 9.75 5.5Z" fill="#3C3C3C"/>
<path fill-rule="evenodd" clip-rule="evenodd" d="M6 6.00005C6 6.16067 6.00947 6.31907 6.02787 6.47473L2.29311 10.2073C2.10544 10.3948 2 10.6493 2 10.9146V13C2 13.5523 2.44772 14 3 14H5.0856C5.35093 14 5.60538 13.8946 5.79293 13.7069L9.5252 9.97222C9.68091 9.99064 9.83935 10.0001 10 10.0001C12.2091 10.0001 14 8.20922 14 6.00005C14 3.79089 12.2091 2 10 2C7.79086 2 6 3.79089 6 6.00005ZM3.5 11.1218L7.60294 7.0213L7.51749 6.2986C7.50599 6.20127 7.5 6.10168 7.5 6.00005C7.5 4.61932 8.61929 3.50002 10 3.50002C11.3807 3.50002 12.5 4.61932 12.5 6.00005C12.5 7.38078 11.3807 8.50009 10 8.50009C9.89835 8.50009 9.79874 8.4941 9.70137 8.48258L8.97865 8.39711L4.8784 12.5H3.5V11.1218Z" fill="#3C3C3C"/>
</svg>
