<svg width="16" height="16" viewBox="0 0 16 16" fill="none" xmlns="http://www.w3.org/2000/svg">
<path fill-rule="evenodd" clip-rule="evenodd" d="M3.50024 1.75C3.50024 1.33579 3.16446 1 2.75024 1C2.33603 1 2.00024 1.33579 2.00024 1.75L2.00024 4.22958C2.00008 4.23789 2 4.24621 2 4.25455V9.25455C2 9.26289 2.00008 9.27122 2.00024 9.27952L2.00024 14.25C2.00024 14.6642 2.33603 15 2.75024 15C3.16446 15 3.50024 14.6642 3.50024 14.25L3.50024 10.5045H12.5746C13.7562 10.5045 14.2781 9.0166 13.3554 8.27846L11.4505 6.75455L13.3554 5.23063C14.2781 4.49249 13.7562 3.00455 12.5746 3.00455H3.50024L3.50024 1.75ZM3.50024 9.00455L3.50024 4.50455H11.8619L10.2695 5.77846C9.64397 6.27887 9.64397 7.23022 10.2695 7.73063L11.8619 9.00455H3.50024Z" fill="#3C3C3C"/>
</svg>
