<svg width="16" height="16" viewBox="0 0 16 16" fill="none" xmlns="http://www.w3.org/2000/svg">
<path fill-rule="evenodd" clip-rule="evenodd" d="M15 8C15 4.13401 11.866 1 8 1C4.13401 1 1 4.13401 1 8C1 11.866 4.13401 15 8 15C11.866 15 15 11.866 15 8ZM5.01702 8.75C5.09512 10.461 5.43743 11.9878 5.9469 13.104C4.14865 12.38 2.82111 10.7332 2.55071 8.75H5.01702ZM6.51872 8.75C6.59223 10.2111 6.87593 11.4688 7.2574 12.3589C7.4812 12.8811 7.70918 13.2079 7.88592 13.3823C7.93501 13.4307 7.97301 13.461 8 13.4796C8.02699 13.461 8.06499 13.4307 8.11408 13.3823C8.29082 13.2079 8.5188 12.8811 8.7426 12.3589C9.12407 11.4688 9.40777 10.2111 9.48128 8.75H6.51872ZM9.48128 7.25H6.51872C6.59223 5.78894 6.87593 4.53123 7.2574 3.64113C7.4812 3.11892 7.70918 2.79215 7.88592 2.61772C7.93501 2.56927 7.97301 2.53897 8 2.52038C8.02699 2.53897 8.06499 2.56927 8.11408 2.61772C8.29082 2.79215 8.5188 3.11892 8.7426 3.64113C9.12407 4.53123 9.40777 5.78894 9.48128 7.25ZM10.983 8.75C10.9049 10.461 10.5626 11.9878 10.0531 13.104C11.8513 12.38 13.1789 10.7332 13.4493 8.75H10.983ZM13.4493 7.25H10.983C10.9049 5.539 10.5626 4.01221 10.0531 2.896C11.8513 3.62003 13.1789 5.26684 13.4493 7.25ZM5.01702 7.25H2.55071C2.82111 5.26684 4.14865 3.62003 5.9469 2.896C5.43743 4.01221 5.09512 5.539 5.01702 7.25Z" fill="#3C3C3C"/>
</svg>
