<svg width="16" height="16" viewBox="0 0 16 16" fill="none" xmlns="http://www.w3.org/2000/svg">
<path fill-rule="evenodd" clip-rule="evenodd" d="M15 3C15 4.10457 14.1046 5 13 5C12.1607 5 11.4421 4.48296 11.1454 3.75H4.25C3.2835 3.75 2.5 4.5335 2.5 5.5C2.5 6.4665 3.2835 7.25 4.25 7.25H6.14538C6.44207 6.51704 7.16066 6 8 6C8.83934 6 9.55793 6.51704 9.85462 7.25H11.75C13.5449 7.25 15 8.70507 15 10.5C15 12.2949 13.5449 13.75 11.75 13.75L4.85462 13.75C4.55793 14.483 3.83934 15 3 15C1.89543 15 1 14.1046 1 13C1 11.8954 1.89543 11 3 11C3.83934 11 4.55793 11.517 4.85462 12.25L11.75 12.25C12.7165 12.25 13.5 11.4665 13.5 10.5C13.5 9.5335 12.7165 8.75 11.75 8.75H9.85462C9.55793 9.48296 8.83934 10 8 10C7.16066 10 6.44207 9.48296 6.14538 8.75H4.25C2.45507 8.75 1 7.29493 1 5.5C1 3.70507 2.45507 2.25 4.25 2.25H11.1454C11.4421 1.51704 12.1607 1 13 1C14.1046 1 15 1.89543 15 3ZM13.5 3C13.5 3.27614 13.2761 3.5 13 3.5C12.7239 3.5 12.5 3.27614 12.5 3C12.5 2.72386 12.7239 2.5 13 2.5C13.2761 2.5 13.5 2.72386 13.5 3ZM3 13.5C3.27614 13.5 3.5 13.2761 3.5 13C3.5 12.7239 3.27614 12.5 3 12.5C2.72386 12.5 2.5 12.7239 2.5 13C2.5 13.2761 2.72386 13.5 3 13.5ZM8.5 8C8.5 8.27614 8.27614 8.5 8 8.5C7.72386 8.5 7.5 8.27614 7.5 8C7.5 7.72386 7.72386 7.5 8 7.5C8.27614 7.5 8.5 7.72386 8.5 8Z" fill="#3C3C3C"/>
</svg>
