<svg width="16" height="16" viewBox="0 0 16 16" fill="none" xmlns="http://www.w3.org/2000/svg">
<path fill-rule="evenodd" clip-rule="evenodd" d="M3 1C2.44772 1 2 1.44772 2 2V6C2 6.55228 2.44772 7 3 7H7.25V12.5393L5.53033 10.8197C5.23744 10.5268 4.76256 10.5268 4.46967 10.8197C4.17678 11.1126 4.17678 11.5874 4.46967 11.8803L7.29289 14.7036C7.68342 15.0941 8.31658 15.0941 8.70711 14.7036L11.5303 11.8803C11.8232 11.5874 11.8232 11.1126 11.5303 10.8197C11.2374 10.5268 10.7626 10.5268 10.4697 10.8197L8.75 12.5393V7H13C13.5523 7 14 6.55228 14 6V2C14 1.44772 13.5523 1 13 1H3ZM3.5 2.5V5.5H12.5V2.5H3.5Z" fill="#3C3C3C"/>
</svg>
