<svg width="16" height="16" viewBox="0 0 16 16" fill="none" xmlns="http://www.w3.org/2000/svg">
<path fill-rule="evenodd" clip-rule="evenodd" d="M8 2.50391C6.41326 2.50391 5.12695 3.79021 5.12695 5.37695C5.12695 6.47496 5.74267 7.43034 6.6512 7.91452C6.89571 8.04483 7.04846 8.29933 7.04846 8.5764V9.49696H8.95156V8.57638C8.95156 8.29932 9.10431 8.04482 9.34882 7.91451C10.2573 7.43032 10.873 6.47496 10.873 5.37695C10.873 3.79021 9.58674 2.50391 8 2.50391ZM3.62695 5.37695C3.62695 2.96179 5.58483 1.00391 8 1.00391C10.4152 1.00391 12.373 2.96179 12.373 5.37695C12.373 6.88454 11.61 8.21296 10.4516 8.99859V10.247C10.4516 10.6612 10.1158 10.997 9.70156 10.997H6.29846C5.88425 10.997 5.54846 10.6612 5.54846 10.247V8.9986C4.39004 8.21298 3.62695 6.88455 3.62695 5.37695ZM5.54846 12.2632C5.54846 11.849 5.88425 11.5132 6.29846 11.5132H9.70156C10.1158 11.5132 10.4516 11.849 10.4516 12.2632C10.4516 12.6775 10.1158 13.0132 9.70156 13.0132H6.29846C5.88425 13.0132 5.54846 12.6775 5.54846 12.2632ZM6.8656 13.4819C6.45139 13.4819 6.1156 13.8177 6.1156 14.2319C6.1156 14.6462 6.45139 14.9819 6.8656 14.9819H9.13504C9.54926 14.9819 9.88504 14.6462 9.88504 14.2319C9.88504 13.8177 9.54926 13.4819 9.13504 13.4819H6.8656Z" fill="#3C3C3C"/>
</svg>
