<svg width="16" height="16" viewBox="0 0 16 16" fill="none" xmlns="http://www.w3.org/2000/svg">
<path fill-rule="evenodd" clip-rule="evenodd" d="M13.0244 2.9756C11.7095 1.66068 9.57759 1.66068 8.26268 2.9756L7.46959 3.76868C7.1767 4.06158 7.1767 4.53645 7.46959 4.82934C7.76248 5.12224 8.23736 5.12224 8.53025 4.82934L9.32334 4.03626C10.0525 3.30713 11.2346 3.30713 11.9637 4.03626C12.6929 4.76539 12.6929 5.94754 11.9637 6.67667L10.2895 8.35096C9.60899 9.03142 8.50575 9.03142 7.82528 8.35096L7.73716 8.26284C7.44427 7.96995 6.9694 7.96995 6.6765 8.26284C6.38361 8.55573 6.38361 9.03061 6.6765 9.3235L6.76462 9.41162C8.03087 10.6779 10.0839 10.6779 11.3501 9.41162L13.0244 7.73733C14.3393 6.42241 14.3393 4.29051 13.0244 2.9756ZM2.97557 13.0244C4.29048 14.3393 6.42238 14.3393 7.7373 13.0244L8.53038 12.2313C8.82328 11.9384 8.82328 11.4636 8.53038 11.1707C8.23749 10.8778 7.76262 10.8778 7.46972 11.1707L6.67664 11.9638C5.94751 12.6929 4.76536 12.6929 4.03623 11.9638C3.3071 11.2346 3.3071 10.0525 4.03623 9.32334L5.71052 7.64905C6.39098 6.96859 7.49423 6.96859 8.17469 7.64905L8.26281 7.73717C8.5557 8.03006 9.03058 8.03006 9.32347 7.73717C9.61636 7.44428 9.61636 6.9694 9.32347 6.67651L9.23535 6.58839C7.9691 5.32214 5.91611 5.32214 4.64986 6.58839L2.97557 8.26268C1.66065 9.5776 1.66065 11.7095 2.97557 13.0244Z" fill="#3C3C3C"/>
</svg>
