<svg width="16" height="16" viewBox="0 0 16 16" fill="none" xmlns="http://www.w3.org/2000/svg">
<path fill-rule="evenodd" clip-rule="evenodd" d="M10.5 7C10.5 8.38071 9.38071 9.5 8 9.5C6.61929 9.5 5.5 8.38071 5.5 7C5.5 5.61929 6.61929 4.5 8 4.5C9.38071 4.5 10.5 5.61929 10.5 7ZM9 7C9 7.55228 8.55228 8 8 8C7.44772 8 7 7.55228 7 7C7 6.44772 7.44772 6 8 6C8.55228 6 9 6.44772 9 7Z" fill="#3C3C3C"/>
<path fill-rule="evenodd" clip-rule="evenodd" d="M14 6.83333C14 10.6646 9.9559 13.8308 8.50799 14.8417C8.19943 15.0571 7.80057 15.0571 7.49201 14.8417C6.0441 13.8308 2 10.6646 2 6.83333C2 3.61167 4.68629 1 8 1C11.3137 1 14 3.61167 14 6.83333ZM12.5 6.83333C12.5 8.22758 11.7518 9.63728 10.656 10.9215C9.74646 11.9872 8.7062 12.8385 8 13.3598C7.2938 12.8385 6.25354 11.9872 5.34405 10.9215C4.24816 9.63728 3.5 8.22758 3.5 6.83333C3.5 4.47965 5.4746 2.5 8 2.5C10.5254 2.5 12.5 4.47965 12.5 6.83333Z" fill="#3C3C3C"/>
</svg>
