<svg width="16" height="16" viewBox="0 0 16 16" fill="none" xmlns="http://www.w3.org/2000/svg">
<path fill-rule="evenodd" clip-rule="evenodd" d="M8 1.00293C5.83566 1.00293 4.08112 2.75747 4.08112 4.92182V5.78137H3.00012C2.44784 5.78137 2.00012 6.22909 2.00012 6.78137V14C2.00012 14.5522 2.44784 15 3.00012 15H13C13.5522 15 14 14.5522 14 14V6.78137C14 6.22909 13.5522 5.78137 13 5.78137H11.9189V4.92182C11.9189 2.75747 10.1643 1.00293 8 1.00293ZM10.4189 5.78137V4.92182C10.4189 3.5859 9.33592 2.50293 8 2.50293C6.66409 2.50293 5.58112 3.5859 5.58112 4.92182V5.78137H10.4189ZM3.50012 13.5V7.28137H12.5V13.5H3.50012Z" fill="#3C3C3C"/>
</svg>
