<svg width="16" height="16" viewBox="0 0 16 16" fill="none" xmlns="http://www.w3.org/2000/svg">
<path fill-rule="evenodd" clip-rule="evenodd" d="M10.25 1C10.6642 1 11 1.33579 11 1.75V2H13C13.5523 2 14 2.44771 14 3V8.5C14 8.91421 13.6642 9.25 13.25 9.25C12.8358 9.25 12.5 8.91421 12.5 8.5V7H3.5V12.5H8.75C9.16421 12.5 9.5 12.8358 9.5 13.25C9.5 13.6642 9.16421 14 8.75 14H2.99906C2.44308 14 2 13.5486 2 13V3C2 2.44772 2.44771 2 3 2H5V1.75C5 1.33579 5.33579 1 5.75 1C6.16421 1 6.5 1.33579 6.5 1.75V2H9.5V1.75C9.5 1.33579 9.83579 1 10.25 1ZM5.04268 3.5C5.14564 3.7913 5.42345 4 5.75 4C6.07655 4 6.35436 3.7913 6.45732 3.5H9.54268C9.64564 3.7913 9.92345 4 10.25 4C10.5766 4 10.8544 3.7913 10.9573 3.5H12.5V5.5H3.5V3.5H5.04268Z" fill="#3C3C3C"/>
<path fill-rule="evenodd" clip-rule="evenodd" d="M11.5 12H11.5207C11.6398 11.2906 12.2568 10.75 13 10.75C13.7432 10.75 14.3602 11.2906 14.4793 12H14.5C14.7761 12 15 12.2239 15 12.5V14.5C15 14.7761 14.7761 15 14.5 15H11.5C11.2239 15 11 14.7761 11 14.5V12.5C11 12.2239 11.2239 12 11.5 12ZM12 14V13H14V14H12ZM13 11.75C13.1851 11.75 13.3467 11.8505 13.4331 12H12.5669C12.6533 11.8505 12.8149 11.75 13 11.75Z" fill="#3C3C3C"/>
</svg>
