<svg width="16" height="16" viewBox="0 0 16 16" fill="none" xmlns="http://www.w3.org/2000/svg">
<path fill-rule="evenodd" clip-rule="evenodd" d="M1 3C1 2.44772 1.44772 2 2 2H14C14.5523 2 15 2.44772 15 3V13C15 13.5523 14.5523 14 14 14H2C1.44772 14 1 13.5523 1 13V3ZM2.5 5.5V3.5H4.25V5.5H2.5ZM2.5 7V9H4.25V7H2.5ZM2.5 10.5V12.5H4.25V10.5H2.5ZM5.75 12.5H10.25V8.75H5.75V12.5ZM11.75 12.5H13.5V10.5H11.75V12.5ZM13.5 9V7H11.75V9H13.5ZM13.5 5.5V3.5H11.75V5.5H13.5ZM10.25 3.5H5.75V7.25H10.25V3.5Z" fill="#3C3C3C"/>
</svg>
