<svg width="16" height="16" viewBox="0 0 16 16" fill="none" xmlns="http://www.w3.org/2000/svg">
<path fill-rule="evenodd" clip-rule="evenodd" d="M9.00627 3.50629V6.49371C9.00627 7.04947 8.55574 7.5 7.99998 7.5C7.44422 7.5 6.99368 7.04947 6.99368 6.49371V3.50629C6.99368 2.95053 7.44422 2.5 7.99998 2.5C8.55574 2.5 9.00627 2.95053 9.00627 3.50629ZM5.49368 3.50629C5.49368 2.12211 6.61579 1 7.99998 1C9.38417 1 10.5063 2.12211 10.5063 3.50629V6.49371C10.5063 7.87789 9.38417 9 7.99998 9C6.61579 9 5.49368 7.87789 5.49368 6.49371V3.50629ZM4.74027 7.2965C4.67379 6.88765 4.28847 6.61011 3.87963 6.67658C3.47078 6.74306 3.19324 7.12838 3.25971 7.53723C3.62511 9.78452 5.26027 11.3052 7.25316 11.6103V13.5H6.41666C6.00244 13.5 5.66666 13.8358 5.66666 14.25C5.66666 14.6642 6.00244 15 6.41666 15H9.58332C9.99754 15 10.3333 14.6642 10.3333 14.25C10.3333 13.8358 9.99754 13.5 9.58332 13.5H8.75316V11.6115C10.7424 11.3149 12.3839 9.84178 12.7412 7.53149C12.8045 7.12214 12.524 6.73898 12.1146 6.67567C11.7053 6.61236 11.3221 6.89288 11.2588 7.30223C10.9745 9.14067 9.60366 10.1669 7.99998 10.1669C6.41442 10.1669 5.03222 9.09209 4.74027 7.2965Z" fill="#3C3C3C"/>
</svg>
