<svg width="16" height="16" viewBox="0 0 16 16" fill="none" xmlns="http://www.w3.org/2000/svg">
<path fill-rule="evenodd" clip-rule="evenodd" d="M8.35356 1.64646C8.25979 1.55268 8.1326 1.5 7.99999 1.5C7.86738 1.5 7.7402 1.55268 7.64643 1.64646L5.84645 3.44657C5.65119 3.64184 5.6512 3.95842 5.84647 4.15368C6.04174 4.34893 6.35832 4.34892 6.55358 4.15365L7.49999 3.20717V7.50002H3.20715L4.15365 6.55357C4.34892 6.35831 4.34893 6.04173 4.15367 5.84646C3.95842 5.65119 3.64183 5.65118 3.44657 5.84644L1.64646 7.64646C1.55268 7.74023 1.5 7.86741 1.5 8.00002C1.5 8.13264 1.55268 8.25982 1.64646 8.35359L3.44657 10.1536C3.64184 10.3488 3.95842 10.3488 4.15368 10.1535C4.34893 9.95827 4.34892 9.64169 4.15365 9.44644L3.20717 8.50002H7.49999V12.7929L6.55356 11.8465C6.35829 11.6513 6.04171 11.6513 5.84645 11.8466C5.65119 12.0418 5.6512 12.3584 5.84647 12.5537L7.64645 14.3536C7.84171 14.5488 8.15827 14.5488 8.35353 14.3536L10.1536 12.5537C10.3488 12.3584 10.3488 12.0418 10.1536 11.8466C9.95832 11.6513 9.64174 11.6513 9.44647 11.8465L8.49999 12.793V8.50002H12.7929L11.8465 9.44646C11.6513 9.64173 11.6513 9.95831 11.8466 10.1536C12.0418 10.3488 12.3584 10.3488 12.5537 10.1535L14.3536 8.35357C14.5488 8.15831 14.5488 7.84174 14.3536 7.64648L12.5537 5.84646C12.3584 5.65119 12.0418 5.65118 11.8466 5.84644C11.6513 6.04169 11.6513 6.35827 11.8465 6.55354L12.793 7.50002H8.49999V3.20715L9.44645 4.15365C9.64171 4.34892 9.95829 4.34893 10.1536 4.15367C10.3488 3.95842 10.3488 3.64183 10.1536 3.44657L8.35356 1.64646Z" fill="#3C3C3C"/>
</svg>
