<svg width="16" height="16" viewBox="0 0 16 16" fill="none" xmlns="http://www.w3.org/2000/svg">
<path fill-rule="evenodd" clip-rule="evenodd" d="M8 2.50366C4.96243 2.50366 2.5 4.9661 2.5 8.00366C2.5 11.0412 4.96243 13.5037 8 13.5037H13.0473L12.1827 12.639C11.9039 12.3602 11.8886 11.9131 12.1477 11.6159C12.9904 10.6491 13.5 9.38683 13.5 8.00366C13.5 7.59064 13.4546 7.18911 13.3688 6.80347C13.2789 6.39913 13.5338 5.99845 13.9381 5.90851C14.3424 5.81858 14.7431 6.07345 14.833 6.47778C14.9424 6.96965 15 7.48038 15 8.00366C15 9.51002 14.5235 10.9064 13.7136 12.0486L15.3883 13.7233C15.6028 13.9378 15.667 14.2604 15.5509 14.5407C15.4348 14.8209 15.1613 15.0037 14.858 15.0037H8C4.13401 15.0037 1 11.8697 1 8.00366C1 4.13767 4.13401 1.00366 8 1.00366C8.52356 1.00366 9.03455 1.06127 9.52666 1.17079C9.93098 1.26077 10.1858 1.66149 10.0958 2.06581C10.0058 2.47013 9.60512 2.72495 9.2008 2.63497C8.81497 2.5491 8.41324 2.50366 8 2.50366Z" fill="#3C3C3C"/>
<path d="M13.2458 4.75342C14.3504 4.75342 15.2458 3.85799 15.2458 2.75342C15.2458 1.64885 14.3504 0.753418 13.2458 0.753418C12.1413 0.753418 11.2458 1.64885 11.2458 2.75342C11.2458 3.85799 12.1413 4.75342 13.2458 4.75342Z" fill="#3B57FF"/>
</svg>
