<svg width="16" height="16" viewBox="0 0 16 16" fill="none" xmlns="http://www.w3.org/2000/svg">
<path d="M13 5C14.1046 5 15 4.10457 15 3C15 1.89543 14.1046 1 13 1C11.8954 1 11 1.89543 11 3C11 4.10457 11.8954 5 13 5Z" fill="#3B57FF"/>
<path fill-rule="evenodd" clip-rule="evenodd" d="M4.44179 6.1123C4.44179 4.11197 6.04286 2.50494 8.00002 2.50494V1.00494C5.19844 1.00494 2.94179 3.29963 2.94179 6.1123C2.94179 9.74109 2.22082 10.9829 1.91826 11.4069C1.75761 11.6321 1.5798 12.0531 1.81341 12.4865C2.04122 12.9091 2.47807 13.0002 2.74581 13.0002H5.2239C5.57043 14.1779 6.71286 15.0001 8.00002 15.0001C9.28719 15.0001 10.4296 14.1779 10.7761 13.0002H13.2539C13.4974 13.0002 13.9613 12.9248 14.188 12.4729C14.4116 12.0273 14.2031 11.6131 14.0638 11.4183C13.7627 10.9974 13.0582 9.72341 13.0582 6.1123H11.5582C11.5582 8.9223 11.9636 10.5399 12.3957 11.5002H10.8833H5.1167H3.58628C4.02277 10.5529 4.44179 8.95032 4.44179 6.1123ZM9.10487 13.0002H6.89518C7.14001 13.2968 7.53011 13.5001 8.00002 13.5001C8.46994 13.5001 8.86004 13.2968 9.10487 13.0002Z" fill="#3C3C3C"/>
</svg>
