<svg width="16" height="16" viewBox="0 0 16 16" fill="none" xmlns="http://www.w3.org/2000/svg">
<path d="M13.2571 15.2491C14.3616 15.2491 15.2571 14.3537 15.2571 13.2491C15.2571 12.1446 14.3616 11.2491 13.2571 11.2491C12.1525 11.2491 11.2571 12.1446 11.2571 13.2491C11.2571 14.3537 12.1525 15.2491 13.2571 15.2491Z" fill="#3B57FF"/>
<path fill-rule="evenodd" clip-rule="evenodd" d="M3.50391 12.4991V3.49585H8.00253V6.75989C8.00253 7.45024 8.56218 8.00989 9.25253 8.00989H12.5071V9.74801C12.5071 10.1622 12.8429 10.498 13.2571 10.498C13.6714 10.498 14.0071 10.1622 14.0071 9.74801V6.70411C14.0071 6.37259 13.8754 6.05465 13.641 5.82023L10.1828 2.36197C9.94834 2.12755 9.6304 1.99585 9.29888 1.99585H3.25391C2.56355 1.99585 2.00391 2.55549 2.00391 3.24585V12.7491C2.00391 13.4394 2.56355 13.9991 3.25391 13.9991H9.75606C10.1703 13.9991 10.5061 13.6633 10.5061 13.2491C10.5061 12.8349 10.1703 12.4991 9.75606 12.4991H3.50391ZM12.2094 6.50989L9.50253 3.80306V6.50989H12.2094Z" fill="#3C3C3C"/>
</svg>
