<svg width="16" height="16" viewBox="0 0 16 16" fill="none" xmlns="http://www.w3.org/2000/svg">
<path d="M13 5C14.1046 5 15 4.10457 15 3C15 1.89543 14.1046 1 13 1C11.8954 1 11 1.89543 11 3C11 4.10457 11.8954 5 13 5Z" fill="#3B57FF"/>
<path fill-rule="evenodd" clip-rule="evenodd" d="M3.5 3.5V12.5H7.99924V9.24438C7.99924 8.55403 8.55888 7.99438 9.24924 7.99438H12.5V6.75C12.5 6.33579 12.8358 6 13.25 6C13.6642 6 14 6.33579 14 6.75V9.29289C14 9.62441 13.8683 9.94235 13.6339 10.1768L10.1768 13.6339C9.94236 13.8683 9.62441 14 9.29289 14H3.25C2.55964 14 2 13.4404 2 12.75V3.25C2 2.55964 2.55964 2 3.25 2H9.25C9.66421 2 10 2.33579 10 2.75C10 3.16421 9.66421 3.5 9.25 3.5H3.5ZM12.195 9.49438H9.49924V12.1901L12.195 9.49438Z" fill="#3C3C3C"/>
</svg>
