<svg width="16" height="16" viewBox="0 0 16 16" fill="none" xmlns="http://www.w3.org/2000/svg">
<path fill-rule="evenodd" clip-rule="evenodd" d="M8.00024 0.998779C8.41446 0.998779 8.75024 1.33457 8.75024 1.74878V2.99878C8.75024 3.41299 8.41446 3.74878 8.00024 3.74878C7.58603 3.74878 7.25024 3.41299 7.25024 2.99878V1.74878C7.25024 1.33457 7.58603 0.998779 8.00024 0.998779ZM5.91441 8.01621C5.91441 6.8644 6.84815 5.93066 7.99996 5.93066C9.15178 5.93066 10.0855 6.8644 10.0855 8.01621C10.0855 8.78723 9.6675 9.46151 9.04215 9.82324C8.81039 9.95729 8.66767 10.2047 8.66767 10.4725V11.227H7.33213V10.4724C7.33213 10.2047 7.18942 9.95724 6.95769 9.82318C6.33238 9.46144 5.91441 8.7872 5.91441 8.01621ZM7.99996 4.43066C6.01972 4.43066 4.41441 6.03597 4.41441 8.01621C4.41441 9.18266 4.97171 10.2183 5.83213 10.8723V11.977C5.83213 12.3912 6.16791 12.727 6.58213 12.727H9.41768C9.83189 12.727 10.1677 12.3912 10.1677 11.977V10.8724C11.0282 10.2184 11.5855 9.18272 11.5855 8.01621C11.5855 6.03597 9.98021 4.43066 7.99996 4.43066ZM6.63179 13.5C6.21758 13.5 5.88179 13.8358 5.88179 14.25C5.88179 14.6642 6.21758 15 6.63179 15H9.36795C9.78216 15 10.1179 14.6642 10.1179 14.25C10.1179 13.8358 9.78216 13.5 9.36795 13.5H6.63179ZM3 7.25171C3.41421 7.25171 3.75 7.5875 3.75 8.00171C3.75 8.41592 3.41421 8.75171 3 8.75171H1.75C1.33579 8.75171 1 8.41592 1 8.00171C1 7.5875 1.33579 7.25171 1.75 7.25171H3ZM15.0026 8.00171C15.0026 7.5875 14.6668 7.25171 14.2526 7.25171H13.0026C12.5884 7.25171 12.2526 7.5875 12.2526 8.00171C12.2526 8.41592 12.5884 8.75171 13.0026 8.75171H14.2526C14.6668 8.75171 15.0026 8.41592 15.0026 8.00171ZM4.0174 3.15473C3.7245 2.86184 3.24963 2.86184 2.95674 3.15473C2.66384 3.44762 2.66384 3.9225 2.95674 4.21539L3.84062 5.09927C4.13351 5.39217 4.60839 5.39217 4.90128 5.09927C5.19417 4.80638 5.19417 4.33151 4.90128 4.03861L4.0174 3.15473Z" fill="#3C3C3C"/>
<path d="M13.2458 4.97388C14.3504 4.97388 15.2458 4.07845 15.2458 2.97388C15.2458 1.86931 14.3504 0.973877 13.2458 0.973877C12.1413 0.973877 11.2458 1.86931 11.2458 2.97388C11.2458 4.07845 12.1413 4.97388 13.2458 4.97388Z" fill="#3B57FF"/>
</svg>
