<svg width="16" height="16" viewBox="0 0 16 16" fill="none" xmlns="http://www.w3.org/2000/svg">
<path d="M13 5C14.1046 5 15 4.10457 15 3C15 1.89543 14.1046 1 13 1C11.8954 1 11 1.89543 11 3C11 4.10457 11.8954 5 13 5Z" fill="#3B57FF"/>
<path fill-rule="evenodd" clip-rule="evenodd" d="M3.49841 3.50342H9.25C9.66421 3.50342 10 3.16763 10 2.75342C10 2.3392 9.66421 2.00342 9.25 2.00342H3.24841C2.55806 2.00342 1.99841 2.56306 1.99841 3.25342V12.7509C1.99841 13.4412 2.55806 14.0009 3.24841 14.0009H12.7458C13.4362 14.0009 13.9958 13.4412 13.9958 12.7509V6.75967L13.9959 6.75C13.9959 6.36653 13.7081 6.05029 13.3367 6.00545C13.3101 6.00223 13.283 6.00041 13.2555 6.00006L13.2459 6H13.2458H3.49841V3.50342ZM7.5 7.5H12.4958V12.5009H7.5L7.5 7.5ZM6 7.5H3.49841V12.5009H6L6 7.5Z" fill="#3C3C3C"/>
</svg>
