<svg width="16" height="16" viewBox="0 0 16 16" fill="none" xmlns="http://www.w3.org/2000/svg">
<path d="M7.46039 5.22321C7.75329 4.93032 8.22816 4.93032 8.52105 5.22321L10.7102 7.4124C10.8859 7.54967 10.9988 7.76348 10.9988 8.00367C10.9988 8.21473 10.9116 8.40543 10.7713 8.54172L8.52545 10.7875C8.23255 11.0804 7.75768 11.0804 7.46479 10.7875C7.17189 10.4947 7.17189 10.0198 7.46479 9.72689L8.43801 8.75367H5.75C5.33579 8.75367 5 8.41788 5 8.00367C5 7.58946 5.33579 7.25367 5.75 7.25367H8.43019L7.46039 6.28387C7.1675 5.99098 7.1675 5.5161 7.46039 5.22321Z" fill="#3C3C3C"/>
<path fill-rule="evenodd" clip-rule="evenodd" d="M6.5 1.75C6.5 1.33579 6.16421 1 5.75 1C5.33579 1 5 1.33579 5 1.75V2H3C2.44772 2 2 2.44772 2 3V13C2 13.5523 2.44772 14 3 14H13C13.5523 14 14 13.5523 14 13V3C14 2.44772 13.5523 2 13 2H11.0002V1.75C11.0002 1.33579 10.6645 1 10.2502 1C9.83603 1 9.50024 1.33579 9.50024 1.75V2H6.5V1.75ZM10.2502 4C9.92369 4 9.64588 3.7913 9.54292 3.5H6.45732C6.35436 3.7913 6.07655 4 5.75 4C5.42345 4 5.14564 3.7913 5.04268 3.5H3.5V12.5H12.5V3.5H10.9576C10.8546 3.7913 10.5768 4 10.2502 4Z" fill="#3C3C3C"/>
</svg>
