<svg width="16" height="16" viewBox="0 0 16 16" fill="none" xmlns="http://www.w3.org/2000/svg">
<path fill-rule="evenodd" clip-rule="evenodd" d="M7.99854 3.5H3.50024V12.4996H12.4999V8.0097H9.24854C8.55818 8.0097 7.99854 7.45006 7.99854 6.7597V3.5ZM9.49854 3.90556V6.5097H12.1027L9.49854 3.90556ZM2.00024 12.9996V3C2.00024 2.44772 2.44796 2 3.00025 2H9.30008C9.5653 2 9.81965 2.10536 10.0072 2.29289L13.707 5.99269C13.8945 6.18023 13.9999 6.43458 13.9999 6.6998V12.9996C13.9999 13.5519 13.5522 13.9996 12.9999 13.9996H3.00024C2.44796 13.9996 2.00024 13.5519 2.00024 12.9996Z" fill="#3C3C3C"/>
</svg>
