<svg width="16" height="16" viewBox="0 0 16 16" fill="none" xmlns="http://www.w3.org/2000/svg">
<path fill-rule="evenodd" clip-rule="evenodd" d="M3.5 4.99854V7.25H4.25C4.66421 7.25 5 7.58579 5 8C5 8.41421 4.66421 8.75 4.25 8.75H3.5V11.0084H4.25C4.66421 11.0084 5 11.3441 5 11.7584C5 12.1726 4.66421 12.5084 4.25 12.5084H3.5V13.5H12.4859V2.5H3.5V3.49854H4.25C4.66421 3.49854 5 3.83432 5 4.24854C5 4.66275 4.66421 4.99854 4.25 4.99854H3.5ZM2 12.5084V14C2 14.5523 2.44772 15 3 15H12.9859C13.5382 15 13.9859 14.5523 13.9859 14V2C13.9859 1.44772 13.5382 1 12.9859 1H3C2.44772 1 2 1.44772 2 2V3.49854H1.75C1.33579 3.49854 1 3.83432 1 4.24854C1 4.66275 1.33579 4.99854 1.75 4.99854H2V7.25H1.75C1.33579 7.25 1 7.58579 1 8C1 8.41421 1.33579 8.75 1.75 8.75H2V11.0084H1.75C1.33579 11.0084 1 11.3441 1 11.7584C1 12.1726 1.33579 12.5084 1.75 12.5084H2ZM5.5 5.7619C5.5 5.34769 5.83579 5.0119 6.25 5.0119H9.75C10.1642 5.0119 10.5 5.34769 10.5 5.7619C10.5 6.17612 10.1642 6.5119 9.75 6.5119H6.25C5.83579 6.5119 5.5 6.17612 5.5 5.7619Z" fill="#3C3C3C"/>
</svg>
