<svg width="16" height="16" viewBox="0 0 16 16" fill="none" xmlns="http://www.w3.org/2000/svg">
<path fill-rule="evenodd" clip-rule="evenodd" d="M4.4418 6.1123C4.4418 4.11197 6.04286 2.50494 8.00003 2.50494C9.95719 2.50494 11.5583 4.11197 11.5583 6.1123C11.5583 8.9223 11.9636 10.5399 12.3957 11.5002H10.8833H5.1167H3.58628C4.02277 10.5529 4.4418 8.95032 4.4418 6.1123ZM5.2239 13.0002H2.74581C2.47807 13.0002 2.04122 12.9091 1.81341 12.4865C1.5798 12.0531 1.75761 11.6321 1.91826 11.4069C2.22082 10.9829 2.9418 9.74109 2.9418 6.1123C2.9418 3.29962 5.19845 1.00494 8.00003 1.00494C10.8016 1.00494 13.0583 3.29962 13.0583 6.1123C13.0583 9.72341 13.7627 10.9974 14.0638 11.4183C14.2031 11.6131 14.4116 12.0273 14.1881 12.4729C13.9614 12.9248 13.4974 13.0002 13.254 13.0002H10.7761C10.4296 14.1779 9.28719 15.0001 8.00002 15.0001C6.71286 15.0001 5.57043 14.1779 5.2239 13.0002ZM6.89518 13.0002C7.14001 13.2968 7.53011 13.5001 8.00002 13.5001C8.46994 13.5001 8.86004 13.2968 9.10487 13.0002H6.89518Z" fill="#3C3C3C"/>
</svg>
