<svg width="16" height="16" viewBox="0 0 16 16" fill="none" xmlns="http://www.w3.org/2000/svg">
<path fill-rule="evenodd" clip-rule="evenodd" d="M4.99658 0.75C5.4108 0.75 5.74658 1.08579 5.74658 1.5V2H10.7419V1.5C10.7419 1.08579 11.0777 0.75 11.4919 0.75C11.9062 0.75 12.2419 1.08579 12.2419 1.5V2H14.2466C14.7989 2 15.2466 2.44772 15.2466 3V13C15.2466 13.5523 14.7989 14 14.2466 14H2.24658C1.6943 14 1.24658 13.5523 1.24658 13V3C1.24658 2.44771 1.6943 2 2.24658 2H4.24658V1.5C4.24658 1.08579 4.58237 0.75 4.99658 0.75ZM10.7419 3.5V4C10.7419 4.41421 11.0777 4.75 11.4919 4.75C11.9062 4.75 12.2419 4.41421 12.2419 4V3.5H13.7466V12.5H2.74658V3.5H4.24658V4C4.24658 4.41421 4.58237 4.75 4.99658 4.75C5.4108 4.75 5.74658 4.41421 5.74658 4V3.5H10.7419ZM6.47863 5.69592C6.70828 5.83053 6.84938 6.07678 6.84938 6.34297V10.657C6.84938 11.0712 6.51359 11.407 6.09938 11.407C5.68516 11.407 5.34938 11.0712 5.34938 10.657V7.62256L5.11769 7.75231C4.75628 7.9547 4.29924 7.82579 4.09685 7.46439C3.89447 7.10298 4.02338 6.64594 4.38478 6.44355L5.73292 5.68859C5.96518 5.55853 6.24897 5.56132 6.47863 5.69592ZM12.242 6.34297C12.242 6.07678 12.1009 5.83053 11.8712 5.69592C11.6416 5.56132 11.3578 5.55853 11.1255 5.68859L9.77736 6.44355C9.41595 6.64594 9.28705 7.10298 9.48943 7.46439C9.69182 7.82579 10.1489 7.9547 10.5103 7.75231L10.742 7.62256V10.657C10.742 11.0712 11.0777 11.407 11.492 11.407C11.9062 11.407 12.242 11.0712 12.242 10.657V6.34297ZM8.79556 7.42149C8.79556 7.71931 8.55412 7.96075 8.2563 7.96075C7.95848 7.96075 7.71704 7.71931 7.71704 7.42149C7.71704 7.12367 7.95848 6.88223 8.2563 6.88223C8.55412 6.88223 8.79556 7.12367 8.79556 7.42149ZM8.2563 10.1178C8.55412 10.1178 8.79556 9.87634 8.79556 9.57852C8.79556 9.28069 8.55412 9.03926 8.2563 9.03926C7.95848 9.03926 7.71704 9.28069 7.71704 9.57852C7.71704 9.87634 7.95848 10.1178 8.2563 10.1178Z" fill="#3C3C3C"/>
</svg>
