<svg width="16" height="16" viewBox="0 0 16 16" fill="none" xmlns="http://www.w3.org/2000/svg">
<path fill-rule="evenodd" clip-rule="evenodd" d="M3.36183 6.29895L5.18352 2.05223C5.66015 0.941115 7.09307 0.636542 7.98042 1.45773L11.3719 4.59635L12.2576 4.40809C12.7978 4.29327 13.3288 4.63811 13.4437 5.17833L14.5248 10.2647C14.6396 10.8049 14.2948 11.3359 13.7546 11.4508L3.97308 13.5299C3.43286 13.6447 2.90185 13.2999 2.78702 12.7596L1.70588 7.67327C1.59105 7.13305 1.9359 6.60204 2.47612 6.48721L3.36183 6.29895ZM6.56204 2.64357C6.63013 2.48484 6.83483 2.44133 6.9616 2.55864L9.57597 4.97809L5.15777 5.91721L6.56204 2.64357ZM4.15029 11.9587L3.27706 7.85048L12.0804 5.97927L12.9536 10.0875L4.15029 11.9587Z" fill="#3C3C3C"/>
</svg>
