<svg width="16" height="16" viewBox="0 0 16 16" fill="none" xmlns="http://www.w3.org/2000/svg">
<path fill-rule="evenodd" clip-rule="evenodd" d="M13.5 8C13.5 11.0376 11.0376 13.5 8 13.5C4.96243 13.5 2.5 11.0376 2.5 8C2.5 4.96243 4.96243 2.5 8 2.5C11.0376 2.5 13.5 4.96243 13.5 8ZM15 8C15 11.866 11.866 15 8 15C4.13401 15 1 11.866 1 8C1 4.13401 4.13401 1 8 1C11.866 1 15 4.13401 15 8ZM5.00008 8.48047C4.77828 8.48047 4.56784 8.57865 4.42534 8.74862C4.28284 8.9186 4.22289 9.14293 4.26159 9.36134C4.57042 11.1041 6.15233 12.3804 8.00004 12.3804C9.84775 12.3804 11.4297 11.1041 11.7385 9.36134C11.7772 9.14293 11.7172 8.9186 11.5747 8.74862C11.4322 8.57865 11.2218 8.48047 11 8.48047H5.00008ZM8.00004 10.8804C7.21375 10.8804 6.53929 10.5175 6.12975 9.98047H9.87034C9.46079 10.5175 8.78633 10.8804 8.00004 10.8804ZM5.95833 6.26147C5.95833 6.74472 5.56658 7.13647 5.08333 7.13647C4.60008 7.13647 4.20833 6.74472 4.20833 6.26147C4.20833 5.77823 4.60008 5.38647 5.08333 5.38647C5.56658 5.38647 5.95833 5.77823 5.95833 6.26147ZM10.9167 7.13647C11.3999 7.13647 11.7917 6.74472 11.7917 6.26147C11.7917 5.77823 11.3999 5.38647 10.9167 5.38647C10.4334 5.38647 10.0417 5.77823 10.0417 6.26147C10.0417 6.74472 10.4334 7.13647 10.9167 7.13647Z" fill="#3C3C3C"/>
</svg>
