<svg width="16" height="16" viewBox="0 0 16 16" fill="none" xmlns="http://www.w3.org/2000/svg">
<path fill-rule="evenodd" clip-rule="evenodd" d="M4.75 3.25C4.75 2.83579 5.08579 2.5 5.5 2.5L14.25 2.5C14.6642 2.5 15 2.83579 15 3.25C15 3.66421 14.6642 4 14.25 4L5.5 4C5.08579 4 4.75 3.66421 4.75 3.25Z" fill="#3C3C3C"/>
<path fill-rule="evenodd" clip-rule="evenodd" d="M4.75 8C4.75 7.58579 5.08579 7.25 5.5 7.25L14.25 7.25C14.6642 7.25 15 7.58579 15 8C15 8.41421 14.6642 8.75 14.25 8.75L5.5 8.75C5.08579 8.75 4.75 8.41421 4.75 8Z" fill="#3C3C3C"/>
<path fill-rule="evenodd" clip-rule="evenodd" d="M4.75 12.75C4.75 12.3358 5.08579 12 5.5 12L14.25 12C14.6642 12 15 12.3358 15 12.75C15 13.1642 14.6642 13.5 14.25 13.5L5.5 13.5C5.08579 13.5 4.75 13.1642 4.75 12.75Z" fill="#3C3C3C"/>
<path fill-rule="evenodd" clip-rule="evenodd" d="M2.13068 1.98975C2.33778 1.98975 2.50568 2.15764 2.50568 2.36475V4.61889C2.50568 4.826 2.33778 4.99389 2.13068 4.99389C1.92357 4.99389 1.75568 4.826 1.75568 4.61889V2.36475C1.75568 2.15764 1.92357 1.98975 2.13068 1.98975Z" fill="#3C3C3C"/>
<path fill-rule="evenodd" clip-rule="evenodd" d="M1.83351 7.37393C1.77656 7.45303 1.75391 7.55921 1.75391 7.62443C1.75391 7.83153 1.58602 7.99943 1.37891 7.99943C1.17181 7.99943 1.00391 7.83153 1.00391 7.62443C1.00391 7.43919 1.0564 7.16968 1.22486 6.9357C1.40709 6.6826 1.70752 6.49805 2.13029 6.49805C2.55307 6.49805 2.85349 6.6826 3.03572 6.9357C3.20419 7.16968 3.25667 7.43919 3.25667 7.62443C3.25667 7.93529 3.10395 8.20516 2.93969 8.41048C2.8413 8.53348 2.72691 8.64811 2.60879 8.75219H2.88167C3.08878 8.75219 3.25667 8.92008 3.25667 9.12719C3.25667 9.3343 3.08878 9.50219 2.88167 9.50219H1.37891C1.205 9.50219 1.0539 9.38261 1.01394 9.21335C0.974007 9.04417 1.05557 8.86974 1.21097 8.7919C1.21097 8.7919 1.21097 8.7919 1.21097 8.7919C1.21099 8.79189 1.211 8.79188 1.21101 8.79188L1.21103 8.79187L1.21109 8.79184M1.21121 8.79178L1.21123 8.79176L1.21336 8.79069L1.22366 8.78541C1.23311 8.78052 1.2476 8.77295 1.2664 8.76288C1.30405 8.74271 1.35875 8.71264 1.42477 8.67413C1.55759 8.59665 1.73246 8.4872 1.90529 8.35758C2.0803 8.22632 2.24071 8.08363 2.35404 7.94196C2.47155 7.79508 2.50667 7.68926 2.50667 7.62443C2.50667 7.55921 2.48402 7.45303 2.42707 7.37393C2.38389 7.31395 2.30863 7.24805 2.13029 7.24805C1.95196 7.24805 1.8767 7.31395 1.83351 7.37393" fill="#3C3C3C"/>
<path fill-rule="evenodd" clip-rule="evenodd" d="M1.97634 11.7561L1.37891 11.7561C1.1718 11.7561 1.00391 11.5882 1.00391 11.3811C1.00391 11.174 1.1718 11.0061 1.37891 11.0061L2.88122 11.0061C3.03289 11.0061 3.17008 11.0975 3.22812 11.2376C3.28617 11.3777 3.25408 11.539 3.14683 11.6463L2.81677 11.9763C2.90974 12.0418 3.00074 12.1281 3.07628 12.2415C3.19222 12.4154 3.25667 12.6304 3.25667 12.8839C3.25667 13.1323 3.19781 13.3447 3.0883 13.5183C2.97947 13.6909 2.83462 13.803 2.69639 13.8745C2.4335 14.0103 2.17194 14.0103 2.13123 14.0102C1.6463 14.0102 1.33278 13.8195 1.16081 13.5615C1.08212 13.4435 1.04369 13.3271 1.02458 13.2411C1.01491 13.1976 1.00979 13.1601 1.00706 13.1315C1.00569 13.1171 1.0049 13.1047 1.00446 13.0947L1.00402 13.0814L1.00393 13.0761L1.00391 13.0738L1.00391 13.0727C1.00391 13.0725 1.00391 13.0717 1.37891 13.0717H1.00391C1.00391 12.8646 1.1718 12.6967 1.37891 12.6967C1.58247 12.6967 1.74815 12.8589 1.75376 13.0611C1.75405 13.0638 1.75484 13.07 1.75672 13.0784C1.76109 13.0981 1.76962 13.1226 1.78485 13.1455C1.80072 13.1693 1.86384 13.2602 2.13029 13.2602C2.14154 13.2602 2.25357 13.2591 2.35208 13.2082C2.3956 13.1857 2.42948 13.157 2.45392 13.1182C2.47769 13.0805 2.50667 13.0111 2.50667 12.8839C2.50667 12.7616 2.47719 12.6949 2.45225 12.6575C2.42574 12.6177 2.38771 12.5865 2.33827 12.5618C2.28737 12.5364 2.23192 12.5218 2.18604 12.5141C2.16399 12.5104 2.14643 12.5088 2.13586 12.508L2.1263 12.5075C2.12594 12.5075 2.1263 12.5075 2.1263 12.5075L2.12786 12.5075L2.12895 12.5075" fill="#3C3C3C"/>
</svg>
