<svg width="16" height="16" viewBox="0 0 16 16" fill="none" xmlns="http://www.w3.org/2000/svg">
<path fill-rule="evenodd" clip-rule="evenodd" d="M3.5 3.5V12.5H9V5V3.5H3.5ZM3 14H9H9.5H13C13.5523 14 14 13.5523 14 13V6C14 5.44772 13.5523 5 13 5H10.5V3C10.5 2.44772 10.0523 2 9.5 2H3C2.44772 2 2 2.44772 2 3V13C2 13.5523 2.44772 14 3 14ZM12.5 12.5H10.5V6.5H12.5V12.5ZM6 7C5.72386 7 5.5 7.22386 5.5 7.5V8C5.5 8.27615 5.72386 8.5 6 8.5H6.5C6.77614 8.5 7 8.27615 7 8V7.5C7 7.22386 6.77614 7 6.5 7H6ZM5.5 5.00002C5.5 4.72387 5.72386 4.50002 6 4.50002H6.5C6.77614 4.50002 7 4.72387 7 5.00002V5.50002C7 5.77616 6.77614 6.00002 6.5 6.00002H6C5.72386 6.00002 5.5 5.77616 5.5 5.50002V5.00002ZM6 9.5C5.72386 9.5 5.5 9.72386 5.5 10V10.5C5.5 10.7761 5.72386 11 6 11H6.5C6.77614 11 7 10.7761 7 10.5V10C7 9.72386 6.77614 9.5 6.5 9.5H6Z" fill="#3C3C3C"/>
</svg>
