<svg width="16" height="16" viewBox="0 0 16 16" fill="none" xmlns="http://www.w3.org/2000/svg">
<path fill-rule="evenodd" clip-rule="evenodd" d="M8.75 6.25V10.75H7.25V6.25H8.75Z" fill="#3C3C3C"/>
<path fill-rule="evenodd" clip-rule="evenodd" d="M4.5 3.5V5.5H11.5V3.5H4.5ZM4 2C3.44772 2 3 2.44772 3 3V6C3 6.55228 3.44772 7 4 7H12C12.5523 7 13 6.55228 13 6V3C13 2.44772 12.5523 2 12 2H4Z" fill="#3C3C3C"/>
<path fill-rule="evenodd" clip-rule="evenodd" d="M2.5 11.5V12.5H3.5V11.5H2.5ZM2 10C1.44772 10 1 10.4477 1 11V13C1 13.5523 1.44772 14 2 14H4C4.55228 14 5 13.5523 5 13V11C5 10.4477 4.55228 10 4 10H2Z" fill="#3C3C3C"/>
<path fill-rule="evenodd" clip-rule="evenodd" d="M12.5 11.5V12.5H13.5V11.5H12.5ZM12 10C11.4477 10 11 10.4477 11 11V13C11 13.5523 11.4477 14 12 14H14C14.5523 14 15 13.5523 15 13V11C15 10.4477 14.5523 10 14 10H12Z" fill="#3C3C3C"/>
<path fill-rule="evenodd" clip-rule="evenodd" d="M7.5 11.5V12.5H8.5V11.5H7.5ZM7 10C6.44772 10 6 10.4477 6 11V13C6 13.5523 6.44772 14 7 14H9C9.55228 14 10 13.5523 10 13V11C10 10.4477 9.55228 10 9 10H7Z" fill="#3C3C3C"/>
<path fill-rule="evenodd" clip-rule="evenodd" d="M2.25 9.5C2.25 8.5335 3.0335 7.75 4 7.75H12C12.9665 7.75 13.75 8.5335 13.75 9.5V10.5H12.25V9.5C12.25 9.36193 12.1381 9.25 12 9.25H4C3.86193 9.25 3.75 9.36193 3.75 9.5V10.5H2.25V9.5Z" fill="#3C3C3C"/>
</svg>
