<svg width="16" height="16" viewBox="0 0 16 16" fill="none" xmlns="http://www.w3.org/2000/svg">
<path fill-rule="evenodd" clip-rule="evenodd" d="M3.50006 13.5V2.5H5.30001V13.5H3.50006ZM2.00006 2C2.00006 1.44772 2.44778 1 3.00006 1H5.80001C6.3523 1 6.80001 1.44772 6.80001 2V14C6.80001 14.5523 6.3523 15 5.80001 15H3.00006C2.44778 15 2.00006 14.5523 2.00006 14V2ZM10.7 13.5V2.5H12.5V13.5H10.7ZM9.20001 2C9.20001 1.44772 9.64773 1 10.2 1H13C13.5522 1 14 1.44772 14 2V14C14 14.5523 13.5522 15 13 15H10.2C9.64773 15 9.20001 14.5523 9.20001 14V2Z" fill="#3C3C3C"/>
</svg>
