<svg width="16" height="16" viewBox="0 0 16 16" fill="none" xmlns="http://www.w3.org/2000/svg">
<path fill-rule="evenodd" clip-rule="evenodd" d="M3.50024 3.5H7.99854V6.75977C7.99854 7.45012 8.55818 8.00977 9.24854 8.00977H12.4999V12.4996H3.50024V3.5ZM9.49854 6.50977V3.90556L12.1027 6.50977H9.49854ZM2.00024 3V12.9996C2.00024 13.5519 2.44796 13.9996 3.00024 13.9996H12.9999C13.5522 13.9996 13.9999 13.5519 13.9999 12.9996V6.6998C13.9999 6.43458 13.8945 6.18023 13.707 5.99269L10.0072 2.29289C9.81965 2.10536 9.5653 2 9.30008 2H3.00025C2.44796 2 2.00024 2.44772 2.00024 3ZM4.79761 11.515H5.32935V10.6996H5.77635C6.35476 10.6996 6.69124 10.3545 6.69124 9.85226C6.69124 9.35245 6.3609 9 5.78986 9H4.79761V11.515ZM5.32935 10.2735V9.43472H5.68793C5.99494 9.43472 6.14353 9.60174 6.14353 9.85226C6.14353 10.1015 5.99494 10.2735 5.69039 10.2735H5.32935ZM7.92817 11.515C8.69447 11.515 9.15867 11.041 9.15867 10.2551C9.15867 9.47157 8.69447 9 7.93554 9H7.03662V11.515H7.92817ZM7.56836 11.0594V9.4556H7.9073C8.37886 9.4556 8.62815 9.6963 8.62815 10.2551C8.62815 10.8163 8.37886 11.0594 7.90607 11.0594H7.56836ZM10.0843 11.515H9.55256V9H11.2178V9.43841H10.0843V10.0377H11.1072V10.4761H10.0843V11.515Z" fill="#3C3C3C"/>
</svg>
