<svg width="16" height="16" viewBox="0 0 16 16" fill="none" xmlns="http://www.w3.org/2000/svg">
<path fill-rule="evenodd" clip-rule="evenodd" d="M8 1C7.74663 1 7.49641 1.01346 7.25 1.03971C3.73667 1.41394 1 4.38738 1 8C1 9.66283 1.57979 11.1902 2.54824 12.3911C2.70518 12.5857 2.87232 12.7717 3.04886 12.9484C3.04932 12.9488 3.04979 12.9493 3.05025 12.9497C3.05072 12.9502 3.05118 12.9507 3.05164 12.9511C3.22828 13.1277 3.4143 13.2948 3.6089 13.4518C4.62678 14.2726 5.87928 14.8143 7.25 14.9603C7.49641 14.9865 7.74663 15 8 15C8.25337 15 8.50359 14.9865 8.75 14.9603C10.1207 14.8143 11.3732 14.2726 12.3911 13.4518C12.5854 13.295 12.7712 13.1281 12.9477 12.9518C12.9484 12.9511 12.9491 12.9504 12.9497 12.9497C12.9504 12.9491 12.9511 12.9484 12.9518 12.9477C13.1281 12.7712 13.295 12.5854 13.4518 12.3911C14.4202 11.1902 15 9.66283 15 8C15 4.38738 12.2633 1.41394 8.75 1.03971C8.50359 1.01346 8.25337 1 8 1ZM7.25 2.55071C4.56724 2.9165 2.5 5.21684 2.5 8C2.5 9.24899 2.91499 10.3991 3.6166 11.3227L7.25 7.68934V2.55071ZM7.25 9.81066L4.67726 12.3834C5.4127 12.9421 6.29177 13.319 7.25 13.4494V9.81066ZM8.75 13.4494C9.70823 13.319 10.5873 12.9421 11.3227 12.3834L8.75 9.81066V13.4494ZM8.75 7.68934V2.55071C11.4328 2.9165 13.5 5.21684 13.5 8C13.5 9.24899 13.085 10.3991 12.3834 11.3227L8.75 7.68934Z" fill="#3C3C3C"/>
</svg>
