<svg width="16" height="16" viewBox="0 0 16 16" fill="none" xmlns="http://www.w3.org/2000/svg">
<path d="M12.0009 3.33758C12.1677 3.09554 12.0907 2.76252 11.8346 2.61823L11.5777 2.47348C11.3526 2.34671 11.0681 2.41219 10.9211 2.62457L3.97792 12.6569C3.80907 12.9008 3.88859 13.2373 4.14879 13.3799L4.42906 13.5335C4.65392 13.6567 4.93553 13.5898 5.08103 13.3787L12.0009 3.33758ZM4.85676 7.95226C6.64079 7.95226 7.69209 6.67796 7.69209 5.24436C7.69209 3.81076 6.64079 2.53646 4.85676 2.53646C3.07273 2.53646 2.02142 3.81076 2.02142 5.24436C2.02142 6.67796 3.07273 7.95226 4.85676 7.95226ZM4.85676 6.61424C3.9966 6.61424 3.53466 6.00894 3.53466 5.24436C3.53466 4.47978 3.9966 3.87448 4.85676 3.87448C5.71691 3.87448 6.17885 4.47978 6.17885 5.24436C6.17885 6.00894 5.71691 6.61424 4.85676 6.61424ZM11.1646 13.5433C12.9486 13.5433 13.9999 12.269 13.9999 10.8354C13.9999 9.40179 12.9486 8.12748 11.1646 8.12748C9.38055 8.12748 8.32924 9.40179 8.32924 10.8354C8.32924 12.269 9.38055 13.5433 11.1646 13.5433ZM11.1646 12.2053C10.3044 12.2053 9.84248 11.6 9.84248 10.8354C9.84248 10.0708 10.3044 9.4655 11.1646 9.4655C12.0247 9.4655 12.4867 10.0708 12.4867 10.8354C12.4867 11.6 12.0247 12.2053 11.1646 12.2053Z" fill="#3C3C3C"/>
</svg>
