<svg width="16" height="16" viewBox="0 0 16 16" fill="none" xmlns="http://www.w3.org/2000/svg">
<path fill-rule="evenodd" clip-rule="evenodd" d="M4.10126 3.99639C3.19189 8.3614 6.41819 12.4909 10.8735 12.6645L12.0138 11.7736L10.9009 10.3491C10.2446 10.8548 9.25871 11.0761 8.35065 10.6128C6.85341 9.84885 5.86072 8.57826 5.48167 6.94068C5.25179 5.94751 5.70505 5.0444 6.35449 4.53003L5.24153 3.10551L4.10126 3.99639ZM4.71205 1.61566L3.02766 2.93164C2.85832 3.06395 2.73405 3.24799 2.68464 3.45714C1.40055 8.89248 5.46952 14.1005 11.0541 14.1695C11.2689 14.1722 11.4776 14.0961 11.6469 13.9638L13.3313 12.6478C13.7665 12.3078 13.8437 11.6793 13.5037 11.2441L11.7751 9.03165C11.435 8.59644 10.8066 8.51928 10.3714 8.8593L9.98999 9.15729C9.71484 9.37225 9.34341 9.43537 9.0324 9.27668C7.92957 8.71398 7.22223 7.80862 6.94304 6.60243C6.8643 6.26226 7.0154 5.91713 7.29055 5.70216L7.67196 5.40417C8.10716 5.06415 8.18433 4.43571 7.84431 4.0005L6.11572 1.78801C5.7757 1.3528 5.14725 1.27564 4.71205 1.61566Z" fill="#3C3C3C"/>
</svg>
