<svg width="16" height="16" viewBox="0 0 16 16" fill="none" xmlns="http://www.w3.org/2000/svg">
<path fill-rule="evenodd" clip-rule="evenodd" d="M6.85282 6.74809L10.0092 3.59168L12.3972 5.97961L9.2405 9.13627C9.07372 9.30304 8.99512 9.53856 9.02829 9.77207C9.13644 10.5335 8.97992 11.3232 8.5609 11.9943L6.30001 9.73341C6.29461 9.72766 6.2891 9.72198 6.28349 9.71636C6.27787 9.71075 6.27219 9.70524 6.26644 9.69984L3.99421 7.42761C4.66542 7.00849 5.45536 6.852 6.21691 6.96029C6.45046 6.9935 6.68602 6.91489 6.85282 6.74809ZM4.69224 10.247L2.69662 8.25134C2.22825 7.78297 2.16475 6.93072 2.78578 6.44517C3.7367 5.70171 4.90114 5.36616 6.04343 5.43616L9.12534 2.35425C9.6135 1.86609 10.405 1.86609 10.8931 2.35425L13.6346 5.09573C14.1228 5.58388 14.1228 6.37534 13.6346 6.86349L10.5524 9.94571C10.6222 11.0878 10.2867 12.252 9.54333 13.2027L9.00783 12.7841L9.54333 13.2027C9.05779 13.8238 8.20554 13.7603 7.73717 13.2919L5.7529 11.3076L3.31774 13.7428C3.02485 14.0357 2.54998 14.0357 2.25708 13.7428C1.96419 13.4499 1.96419 12.975 2.25708 12.6821L4.69224 10.247Z" fill="#3C3C3C"/>
</svg>
