<svg width="16" height="16" viewBox="0 0 16 16" fill="none" xmlns="http://www.w3.org/2000/svg">
<path fill-rule="evenodd" clip-rule="evenodd" d="M9.12528 2.35418C9.61344 1.86603 10.4049 1.86603 10.8931 2.35418L13.6345 5.09567C14.1227 5.58382 14.1227 6.37528 13.6345 6.86343L10.5523 9.94565C10.6222 11.0877 10.2866 12.2519 9.54327 13.2027L9.00777 12.784L9.54327 13.2027C9.05773 13.8237 8.20548 13.7602 7.73711 13.2918L5.7528 11.3075L3.31768 13.7426C3.02479 14.0355 2.54992 14.0355 2.25702 13.7426C1.96413 13.4497 1.96413 12.9749 2.25702 12.682L4.69214 10.2469L2.69656 8.25128C2.22819 7.78291 2.16469 6.93066 2.78572 6.44511C3.73664 5.70165 4.90108 5.3661 6.04337 5.4361L9.12528 2.35418Z" fill="#3C3C3C"/>
</svg>
