<svg width="16" height="16" viewBox="0 0 16 16" fill="none" xmlns="http://www.w3.org/2000/svg">
<path fill-rule="evenodd" clip-rule="evenodd" d="M8.75 2.74927C8.75 2.33505 8.41421 1.99927 8 1.99927C7.58579 1.99927 7.25 2.33505 7.25 2.74927V7.25H2.74915C2.33493 7.25 1.99915 7.58579 1.99915 8C1.99915 8.41421 2.33493 8.75 2.74915 8.75H7.25V13.251C7.25 13.6652 7.58579 14.001 8 14.001C8.41421 14.001 8.75 13.6652 8.75 13.251V8.75H13.2509C13.6651 8.75 14.0009 8.41421 14.0009 8C14.0009 7.58579 13.6651 7.25 13.2509 7.25H8.75V2.74927Z" fill="#3C3C3C"/>
</svg>
