<svg width="16" height="16" viewBox="0 0 16 16" fill="none" xmlns="http://www.w3.org/2000/svg">
<path fill-rule="evenodd" clip-rule="evenodd" d="M5 3C5 2.44772 5.44772 2 6 2H10C10.5523 2 11 2.44772 11 3V4.75H12C12.5651 4.75 13.0196 5.05717 13.3071 5.44052C13.5944 5.82365 13.75 6.31856 13.75 6.83333V10.1667C13.75 10.6814 13.5944 11.1764 13.3071 11.5595C13.0196 11.9428 12.5651 12.25 12 12.25H11V13C11 13.5523 10.5523 14 10 14H6C5.44772 14 5 13.5523 5 13V12.25H4C3.43486 12.25 2.98041 11.9428 2.69289 11.5595C2.40555 11.1764 2.25 10.6814 2.25 10.1667V6.83333C2.25 6.31856 2.40555 5.82365 2.69289 5.44052C2.98041 5.05717 3.43486 4.75 4 4.75H5V3ZM6.5 4.5V3.5H9.5V4.5H6.5ZM3.89289 6.34052C3.81831 6.43997 3.75 6.61173 3.75 6.83333V10.1667C3.75 10.3883 3.81831 10.56 3.89289 10.6595C3.9292 10.7079 3.96105 10.7317 3.97917 10.7419C3.98795 10.7469 3.99353 10.7487 3.99588 10.7494C3.99802 10.7499 4 10.75 4 10.75H5V9C5 8.44772 5.44772 8 6 8H10C10.5523 8 11 8.44772 11 9V10.75H12C12 10.75 12.002 10.7499 12.0041 10.7494C12.0065 10.7487 12.0121 10.7469 12.0208 10.7419C12.0389 10.7317 12.0708 10.7079 12.1071 10.6595C12.1817 10.56 12.25 10.3883 12.25 10.1667V6.83333C12.25 6.61173 12.1817 6.43997 12.1071 6.34052C12.0708 6.29211 12.0389 6.26827 12.0208 6.25806C12.0121 6.25311 12.0065 6.25128 12.0041 6.25064C12.002 6.25006 12 6.25 12 6.25H4C4 6.25 3.99802 6.25006 3.99588 6.25064C3.99353 6.25128 3.98795 6.25311 3.97917 6.25806C3.96105 6.26827 3.9292 6.29211 3.89289 6.34052ZM6.5 9.5V12.5H9.5V9.5H6.5Z" fill="#3C3C3C"/>
</svg>
