<svg width="16" height="16" viewBox="0 0 16 16" fill="none" xmlns="http://www.w3.org/2000/svg">
<path fill-rule="evenodd" clip-rule="evenodd" d="M1 8C1 4.13401 4.13401 1 8 1C11.866 1 15 4.13401 15 8C15 11.866 11.866 15 8 15C4.13401 15 1 11.866 1 8ZM8 2.5C4.96243 2.5 2.5 4.96243 2.5 8C2.5 9.555 3.14531 10.9593 4.18275 11.9596C4.5354 11.2826 4.98161 10.6936 5.50899 10.2369C5.69339 10.0772 5.88661 9.9348 6.08723 9.81124C5.42307 9.26096 5 8.42989 5 7.5C5 5.84315 6.34315 4.5 8 4.5C9.65685 4.5 11 5.84315 11 7.5C11 8.4299 10.5769 9.26098 9.91275 9.81125C10.1134 9.93481 10.3066 10.0772 10.491 10.2369C11.0184 10.6936 11.4646 11.2826 11.8172 11.9597C12.8547 10.9593 13.5 9.55501 13.5 8C13.5 4.96243 11.0376 2.5 8 2.5ZM10.5871 12.8548C10.2917 12.2283 9.9192 11.726 9.50899 11.3708C9.01614 10.944 8.4957 10.75 7.99998 10.75C7.50427 10.75 6.98382 10.944 6.49097 11.3708C6.08077 11.726 5.70826 12.2283 5.41283 12.8547C6.18397 13.2665 7.06472 13.5 8 13.5C8.93527 13.5 9.81601 13.2666 10.5871 12.8548ZM8 6C7.17157 6 6.5 6.67157 6.5 7.5C6.5 8.32843 7.17157 9 8 9C8.82843 9 9.5 8.32843 9.5 7.5C9.5 6.67157 8.82843 6 8 6Z" fill="#3C3C3C"/>
</svg>
