<svg width="16" height="16" viewBox="0 0 16 16" fill="none" xmlns="http://www.w3.org/2000/svg">
<path fill-rule="evenodd" clip-rule="evenodd" d="M8 0.99939C7.58579 0.99939 7.25 1.33518 7.25 1.74939C7.25 2.1636 7.58579 2.49939 8 2.49939C11.0379 2.49939 13.5007 4.96212 13.5007 8.00006C13.5007 11.038 11.0379 13.5007 8 13.5007C7.58579 13.5007 7.25 13.8365 7.25 14.2507C7.25 14.6649 7.58579 15.0007 8 15.0007C11.8664 15.0007 15.0007 11.8664 15.0007 8.00006C15.0007 4.1337 11.8664 0.99939 8 0.99939ZM5.58598 3.05583C5.95804 2.87378 6.11208 2.42459 5.93003 2.05252C5.74798 1.68046 5.29879 1.52642 4.92673 1.70847C4.09454 2.11565 3.35566 2.68266 2.74969 3.36922C2.47559 3.67977 2.50514 4.15372 2.8157 4.42782C3.12625 4.70192 3.6002 4.67237 3.8743 4.36182C4.35135 3.82132 4.93261 3.37552 5.58598 3.05583ZM2.59901 6.95148C2.67745 6.54476 2.41132 6.15146 2.0046 6.07303C1.59788 5.99459 1.20459 6.26072 1.12615 6.66744C1.04284 7.09943 0.999329 7.54502 0.999329 8.00006C0.999329 8.4551 1.04284 8.90069 1.12615 9.33269C1.20459 9.7394 1.59788 10.0055 2.0046 9.9271C2.41132 9.84866 2.67745 9.45536 2.59901 9.04865C2.53366 8.70977 2.49933 8.35928 2.49933 8.00006C2.49933 7.64084 2.53366 7.29035 2.59901 6.95148ZM3.8743 11.6383C3.6002 11.3278 3.12625 11.2982 2.8157 11.5723C2.50514 11.8464 2.47559 12.3204 2.74969 12.6309C3.35566 13.3175 4.09454 13.8845 4.92672 14.2917C5.29879 14.4737 5.74798 14.3197 5.93003 13.9476C6.11208 13.5755 5.95804 13.1263 5.58598 12.9443C4.93261 12.6246 4.35135 12.1788 3.8743 11.6383ZM10.8184 6.81007C11.1027 6.50884 11.089 6.03416 10.7877 5.74986C10.4865 5.46555 10.0118 5.47927 9.72751 5.78051L7.06954 8.59673L6.28568 7.72153C6.00933 7.41297 5.53518 7.38687 5.22662 7.66322C4.91807 7.93956 4.89197 8.41372 5.16831 8.72227L6.31499 10.0026C6.70551 10.4386 7.38538 10.4475 7.78714 10.0218L10.8184 6.81007Z" fill="#3C3C3C"/>
</svg>
