<svg width="16" height="16" viewBox="0 0 16 16" fill="none" xmlns="http://www.w3.org/2000/svg">
<path fill-rule="evenodd" clip-rule="evenodd" d="M7.87371 2.71114C8.13932 2.83373 8.30941 3.09957 8.30941 3.3921V12.6076C8.30941 12.9002 8.13932 13.166 7.87371 13.2886C7.60811 13.4112 7.29546 13.3682 7.07284 13.1784L4.19455 10.7246H2C1.58579 10.7246 1.25 10.3888 1.25 9.97463V6.02511C1.25 5.6109 1.58579 5.27511 2 5.27511H4.19455L7.07284 2.82135C7.29546 2.63157 7.60811 2.58854 7.87371 2.71114ZM6.80941 5.01703L4.95741 6.59586C4.8217 6.71156 4.64919 6.77511 4.47085 6.77511H2.75V9.22463H4.47085C4.64919 9.22463 4.8217 9.28818 4.95741 9.40388L6.80941 10.9827V5.01703Z" fill="#3C3C3C"/>
<path fill-rule="evenodd" clip-rule="evenodd" d="M11.6583 2.96172C11.9556 2.67329 12.4304 2.68047 12.7188 2.97776C14.0149 4.31361 14.7391 6.12051 14.7391 8.00001C14.7391 9.87951 14.0149 11.6864 12.7188 13.0223C12.4304 13.3195 11.9556 13.3267 11.6583 13.0383C11.361 12.7499 11.3538 12.2751 11.6422 11.9778C12.6623 10.9264 13.2391 9.49601 13.2391 8.00001C13.2391 6.50401 12.6623 5.07361 11.6422 4.02226C11.3538 3.72497 11.361 3.25015 11.6583 2.96172ZM9.47775 5.20854C9.77504 4.92011 10.2499 4.92729 10.5383 5.22458C11.2553 5.96363 11.6543 6.96121 11.6543 7.99683C11.6543 9.03245 11.2553 10.03 10.5383 10.7691C10.2499 11.0664 9.77504 11.0735 9.47775 10.7851C9.18046 10.4967 9.17328 10.0219 9.46171 9.72458C9.90271 9.27003 10.1543 8.64895 10.1543 7.99683C10.1543 7.3447 9.90271 6.72363 9.46171 6.26908C9.17328 5.97179 9.18046 5.49697 9.47775 5.20854Z" fill="#3C3C3C"/>
</svg>
