<svg width="16" height="16" viewBox="0 0 16 16" fill="none" xmlns="http://www.w3.org/2000/svg">
<path fill-rule="evenodd" clip-rule="evenodd" d="M8 13.5C11.0376 13.5 13.5 11.0376 13.5 8C13.5 4.96243 11.0376 2.5 8 2.5C4.96243 2.5 2.5 4.96243 2.5 8C2.5 11.0376 4.96243 13.5 8 13.5ZM8 15C11.866 15 15 11.866 15 8C15 4.13401 11.866 1 8 1C4.13401 1 1 4.13401 1 8C1 11.866 4.13401 15 8 15ZM8.74999 11.25C8.74999 11.6642 8.41421 12 7.99999 12C7.58578 12 7.24999 11.6642 7.24999 11.25C7.24999 10.8358 7.58578 10.5 7.99999 10.5C8.41421 10.5 8.74999 10.8358 8.74999 11.25ZM7.11133 6.15586C7.11133 5.66507 7.50919 5.26721 7.99997 5.26721C8.49076 5.26721 8.88861 5.66507 8.88861 6.15586C8.88861 6.55246 8.62825 6.89022 8.26727 7.00381C7.82584 7.1427 7.24997 7.56901 7.24997 8.2945V9.16003C7.24997 9.57425 7.58576 9.91003 7.99997 9.91003C8.41419 9.91003 8.74997 9.57425 8.74997 9.16003V8.42417C9.70099 8.10981 10.3886 7.21409 10.3886 6.15586C10.3886 4.83664 9.31918 3.76721 7.99997 3.76721C6.68076 3.76721 5.61133 4.83664 5.61133 6.15586C5.61133 6.57007 5.94711 6.90586 6.36133 6.90586C6.77554 6.90586 7.11133 6.57007 7.11133 6.15586Z" fill="#3C3C3C"/>
</svg>
