<svg width="16" height="16" viewBox="0 0 16 16" fill="none" xmlns="http://www.w3.org/2000/svg">
<path d="M10.5303 7.53033C10.8232 7.23744 10.8232 6.76256 10.5303 6.46967C10.2374 6.17678 9.76256 6.17678 9.46967 6.46967L7.5 8.43934L6.53033 7.46967C6.23744 7.17678 5.76256 7.17678 5.46967 7.46967C5.17678 7.76256 5.17678 8.23744 5.46967 8.53033L6.96967 10.0303C7.26256 10.3232 7.73744 10.3232 8.03033 10.0303L10.5303 7.53033Z" fill="#3C3C3C"/>
<path fill-rule="evenodd" clip-rule="evenodd" d="M2 3C2 2.44772 2.44772 2 3 2H13C13.5523 2 14 2.44772 14 3V13C14 13.5523 13.5523 14 13 14H3C2.44772 14 2 13.5523 2 13V3ZM3.5 12.5V3.5H12.5V12.5H3.5Z" fill="#3C3C3C"/>
</svg>
