<svg width="16" height="16" viewBox="0 0 16 16" fill="none" xmlns="http://www.w3.org/2000/svg">
<path fill-rule="evenodd" clip-rule="evenodd" d="M12.7424 1.01099C13.1566 1.01099 13.4924 1.34677 13.4924 1.76099V2.51099H14.2423C14.6565 2.51099 14.9923 2.84677 14.9923 3.26099C14.9923 3.6752 14.6565 4.01099 14.2423 4.01099H13.4924V4.76099C13.4924 5.1752 13.1566 5.51099 12.7424 5.51099C12.3281 5.51099 11.9924 5.1752 11.9924 4.76099V4.01099H11.2423C10.8281 4.01099 10.4923 3.6752 10.4923 3.26099C10.4923 2.84677 10.8281 2.51099 11.2423 2.51099H11.9924V1.76099C11.9924 1.34677 12.3281 1.01099 12.7424 1.01099ZM7.99787 13.5C4.96337 13.5 2.50342 11.04 2.50342 8.00554C2.50342 4.97104 4.96337 2.51109 7.99787 2.51109C8.41209 2.51109 8.74787 2.1753 8.74787 1.76109C8.74787 1.34688 8.41209 1.01109 7.99787 1.01109C4.13494 1.01109 1.00342 4.14261 1.00342 8.00554C1.00342 11.8685 4.13494 15 7.99787 15C11.8608 15 14.9923 11.8685 14.9923 8.00554C14.9923 7.59133 14.6565 7.25554 14.2423 7.25554C13.8281 7.25554 13.4923 7.59133 13.4923 8.00554C13.4923 11.04 11.0324 13.5 7.99787 13.5ZM5.15948 7.02213C5.62976 7.02213 6.011 6.64089 6.011 6.17061C6.011 5.70033 5.62976 5.31909 5.15948 5.31909C4.68921 5.31909 4.30797 5.70033 4.30797 6.17061C4.30797 6.64089 4.68921 7.02213 5.15948 7.02213ZM10.8363 7.02212C11.3065 7.02212 11.6878 6.64089 11.6878 6.17061C11.6878 5.70033 11.3065 5.31909 10.8363 5.31909C10.366 5.31909 9.98474 5.70033 9.98474 6.17061C9.98474 6.64089 10.366 7.02212 10.8363 7.02212ZM5.02862 7.83463C5.43648 7.76235 5.82571 8.0344 5.89798 8.44226C6.0589 9.35034 6.91213 10.0938 7.99788 10.0938C9.08362 10.0938 9.93685 9.35034 10.0978 8.44226C10.17 8.0344 10.5593 7.76235 10.9671 7.83463C11.375 7.90691 11.647 8.29613 11.5748 8.70399C11.2789 10.3734 9.76441 11.5938 7.99788 11.5938C6.23135 11.5938 4.71682 10.3734 4.42099 8.70399C4.34872 8.29613 4.62076 7.90691 5.02862 7.83463Z" fill="#3C3C3C"/>
</svg>
