<svg width="16" height="16" viewBox="0 0 16 16" fill="none" xmlns="http://www.w3.org/2000/svg">
<path fill-rule="evenodd" clip-rule="evenodd" d="M12.3361 3.11554C12.0432 2.82264 12.0432 2.34777 12.3361 2.05488C12.629 1.76198 13.1039 1.76198 13.3968 2.05488L14.6679 3.32604C15.091 3.74911 15.091 4.43504 14.6679 4.8581L13.3968 6.12927C13.1039 6.42216 12.629 6.42216 12.3361 6.12927C12.0432 5.83637 12.0432 5.3615 12.3361 5.06861L12.5627 4.84204H5.41343C4.35489 4.84204 3.49677 5.70016 3.49677 6.75871V7.85921C3.49677 8.27342 3.16098 8.60921 2.74677 8.60921C2.33255 8.60921 1.99677 8.27342 1.99677 7.85921V6.75871C1.99677 4.87173 3.52646 3.34204 5.41343 3.34204H12.5626L12.3361 3.11554ZM13.9952 9.43367C13.9952 11.3206 12.4655 12.8503 10.5785 12.8503H3.43733L3.66408 13.0771C3.95697 13.37 3.95697 13.8449 3.66408 14.1378C3.37119 14.4306 2.89631 14.4306 2.60342 14.1378L1.33225 12.8666C0.909187 12.4435 0.909186 11.7576 1.33225 11.3345L2.60342 10.0634C2.89631 9.77047 3.37119 9.77047 3.66408 10.0634C3.95697 10.3563 3.95697 10.8311 3.66408 11.124L3.43776 11.3503H10.5785C11.6371 11.3503 12.4952 10.4922 12.4952 9.43367V8.33318C12.4952 7.91896 12.831 7.58318 13.2452 7.58318C13.6594 7.58318 13.9952 7.91896 13.9952 8.33318V9.43367Z" fill="#3C3C3C"/>
</svg>
