<svg width="16" height="16" viewBox="0 0 16 16" fill="none" xmlns="http://www.w3.org/2000/svg">
<path fill-rule="evenodd" clip-rule="evenodd" d="M2.67453 6.91026C3.17211 4.39697 5.37396 2.50952 8.00587 2.50952C9.77469 2.50952 11.3489 3.36118 12.3429 4.68443L10.8128 4.68443C10.4 4.68443 10.0654 5.02139 10.0654 5.43704C10.0654 5.8527 10.4 6.18966 10.8128 6.18966H13.8342C14.3845 6.18966 14.8307 5.74038 14.8307 5.18617V2.14363C14.8307 1.72798 14.4961 1.39102 14.0833 1.39102C13.6706 1.39102 13.3359 1.72798 13.3359 2.14363V3.52243C12.0648 1.9884 10.1502 1.00952 8.00587 1.00952C4.6369 1.00952 1.83564 3.42392 1.20309 6.61895C1.12265 7.02528 1.38683 7.41988 1.79316 7.50033C2.19948 7.58077 2.59409 7.31659 2.67453 6.91026ZM8.00849 13.4905C10.6404 13.4905 12.8423 11.603 13.3398 9.08974C13.4203 8.68341 13.8149 8.41923 14.2212 8.49967C14.6275 8.58012 14.8917 8.97472 14.8113 9.38105C14.1787 12.5761 11.3775 14.9905 8.00849 14.9905C5.86421 14.9905 3.94961 14.0116 2.67847 12.4776V13.8625C2.67847 14.2781 2.34386 14.6151 1.93109 14.6151C1.51833 14.6151 1.18372 14.2781 1.18372 13.8625V10.8138C1.18372 10.2596 1.62987 9.81034 2.18022 9.81034H5.20767C5.62044 9.81034 5.95505 10.1473 5.95505 10.563C5.95505 10.9786 5.62044 11.3156 5.20767 11.3156H3.67143C4.66543 12.6388 6.23967 13.4905 8.00849 13.4905Z" fill="#3C3C3C"/>
</svg>
