<svg width="16" height="16" viewBox="0 0 16 16" fill="none" xmlns="http://www.w3.org/2000/svg">
<path fill-rule="evenodd" clip-rule="evenodd" d="M6.21183 5.00441C6.72538 3.54562 8.11558 2.5 9.75 2.5C11.8211 2.5 13.5 4.17893 13.5 6.25C13.5 7.88442 12.4544 9.27462 10.9956 9.78817C10.9759 9.31527 10.8905 8.85934 10.7483 8.42927C11.4746 8.12342 12.0248 7.48388 12.1657 6.68887C12.2259 6.34899 11.9992 6.02464 11.6593 5.96441C11.3194 5.90418 10.9951 6.13088 10.9349 6.47076C10.8703 6.83485 10.5959 7.15821 10.2087 7.2995C9.35507 5.97182 7.89034 5.07436 6.21183 5.00441ZM4.60563 5.19701C5.09321 2.80215 7.21115 1 9.75 1C12.6495 1 15 3.3505 15 6.25C15 8.78885 13.1979 10.9068 10.803 11.3944C10.1993 13.4773 8.2775 15 6 15C3.23858 15 1 12.7614 1 10C1 7.7225 2.52272 5.80066 4.60563 5.19701ZM9.5 10C9.5 11.933 7.933 13.5 6 13.5C4.067 13.5 2.5 11.933 2.5 10C2.5 8.067 4.067 6.5 6 6.5C7.933 6.5 9.5 8.067 9.5 10ZM4.14093 9.88457C4.48081 9.82434 4.80516 10.051 4.86539 10.3909C4.95201 10.8797 5.41686 11.2951 6.02511 11.2951C6.63335 11.2951 7.09821 10.8797 7.18482 10.3909C7.24505 10.051 7.56941 9.82434 7.90929 9.88457C8.24917 9.9448 8.47587 10.2692 8.41564 10.609C8.21661 11.7322 7.20067 12.5451 6.02511 12.5451C4.84954 12.5451 3.83361 11.7322 3.63457 10.609C3.57434 10.2692 3.80104 9.9448 4.14093 9.88457ZM4.625 9.25C4.97018 9.25 5.25 8.97018 5.25 8.625C5.25 8.27982 4.97018 8 4.625 8C4.27982 8 4 8.27982 4 8.625C4 8.97018 4.27982 9.25 4.625 9.25ZM8 8.625C8 8.97018 7.72018 9.25 7.375 9.25C7.02982 9.25 6.75 8.97018 6.75 8.625C6.75 8.27982 7.02982 8 7.375 8C7.72018 8 8 8.27982 8 8.625ZM8.75 4.625C8.75 4.97018 8.47018 5.25 8.125 5.25C7.77982 5.25 7.5 4.97018 7.5 4.625C7.5 4.27982 7.77982 4 8.125 4C8.47018 4 8.75 4.27982 8.75 4.625ZM11.375 5.25C11.7202 5.25 12 4.97018 12 4.625C12 4.27982 11.7202 4 11.375 4C11.0298 4 10.75 4.27982 10.75 4.625C10.75 4.97018 11.0298 5.25 11.375 5.25Z" fill="#3C3C3C"/>
</svg>
