<svg width="16" height="16" viewBox="0 0 16 16" fill="none" xmlns="http://www.w3.org/2000/svg">
<path fill-rule="evenodd" clip-rule="evenodd" d="M7 3.50098C7 2.94869 7.44772 2.50098 8 2.50098C8.55228 2.50098 9 2.94869 9 3.50098C9 4.05326 8.55228 4.50098 8 4.50098C7.44772 4.50098 7 4.05326 7 3.50098ZM8 1.00098C6.61929 1.00098 5.5 2.12026 5.5 3.50098C5.5 4.88169 6.61929 6.00098 8 6.00098C9.38071 6.00098 10.5 4.88169 10.5 3.50098C10.5 2.12026 9.38071 1.00098 8 1.00098ZM5 13.5C5 14.3284 4.32843 15 3.5 15C2.67157 15 2 14.3284 2 13.5C2 12.6716 2.67157 12 3.5 12C4.32843 12 5 12.6716 5 13.5ZM9.5 13.5C9.5 14.3284 8.82843 15 8 15C7.17157 15 6.5 14.3284 6.5 13.5C6.5 12.6716 7.17157 12 8 12C8.82843 12 9.5 12.6716 9.5 13.5ZM14 13.5C14 14.3284 13.3284 15 12.5 15C11.6716 15 11 14.3284 11 13.5C11 12.6716 11.6716 12 12.5 12C13.3284 12 14 12.6716 14 13.5ZM6.25 7C4.45507 7 3 8.45507 3 10.25C3 10.6642 3.33579 11 3.75 11C4.16421 11 4.5 10.6642 4.5 10.25C4.5 9.2835 5.2835 8.5 6.25 8.5H9.75C10.7165 8.5 11.5 9.2835 11.5 10.25C11.5 10.6642 11.8358 11 12.25 11C12.6642 11 13 10.6642 13 10.25C13 8.45507 11.5449 7 9.75 7H6.25Z" fill="#3C3C3C"/>
</svg>
