<svg width="16" height="16" viewBox="0 0 16 16" fill="none" xmlns="http://www.w3.org/2000/svg">
<path fill-rule="evenodd" clip-rule="evenodd" d="M2.92932 7.99998C2.92932 5.08095 5.29567 2.7146 8.21471 2.7146C11.1337 2.7146 13.5001 5.08095 13.5001 7.99998C13.5001 10.919 11.1337 13.2854 8.21471 13.2854C7.80049 13.2854 7.46471 13.6212 7.46471 14.0354C7.46471 14.4496 7.80049 14.7854 8.21471 14.7854C11.9622 14.7854 15.0001 11.7474 15.0001 7.99998C15.0001 4.25252 11.9622 1.2146 8.21471 1.2146C4.46724 1.2146 1.42932 4.25252 1.42932 7.99998V8.08553L1.27617 7.963C0.95272 7.70424 0.48075 7.75669 0.221993 8.08013C-0.036764 8.40358 0.015677 8.87555 0.339123 9.13431L1.7108 10.2316C1.98472 10.4508 2.37393 10.4508 2.64784 10.2316L4.01952 9.13431C4.34297 8.87555 4.39541 8.40358 4.13665 8.08013C3.8779 7.75669 3.40593 7.70424 3.08248 7.963L2.92932 8.08553V7.99998ZM8.77167 5.15942C8.77167 4.74521 8.43588 4.40942 8.02167 4.40942C7.60745 4.40942 7.27167 4.74521 7.27167 5.15942V7.49994C7.27167 8.1903 7.83131 8.74994 8.52167 8.74994H10.8622C11.2764 8.74994 11.6122 8.41416 11.6122 7.99994C11.6122 7.58573 11.2764 7.24994 10.8622 7.24994H8.77167V5.15942Z" fill="#3C3C3C"/>
</svg>
