<svg width="16" height="16" viewBox="0 0 16 16" fill="none" xmlns="http://www.w3.org/2000/svg">
<path fill-rule="evenodd" clip-rule="evenodd" d="M7.99999 2.50342C4.97241 2.50342 2.51807 4.95776 2.51807 7.98534C2.51807 9.54842 3.17225 10.9587 4.22177 11.9573C4.65034 11.0502 5.31917 10.2878 6.14752 9.79751C5.4445 9.24532 4.99292 8.3875 4.99292 7.4242C4.99292 5.75843 6.3433 4.40805 8.00907 4.40805C9.67485 4.40805 11.0252 5.75843 11.0252 7.4242C11.0252 8.31512 10.639 9.11582 10.0247 9.66795C10.2246 9.76906 10.4212 9.88507 10.611 10.0142C10.9535 10.2473 11.0422 10.7138 10.8091 11.0562C10.5761 11.3987 10.1096 11.4874 9.76713 11.2543C9.20443 10.8714 8.65034 10.7069 8.29067 10.7069C7.08844 10.7069 5.97526 11.5402 5.46903 12.8493C6.22617 13.2441 7.08702 13.4673 7.99999 13.4673C8.4142 13.4673 8.74999 13.8031 8.74999 14.2173C8.74999 14.6315 8.4142 14.9673 7.99999 14.9673C4.14398 14.9673 1.01807 11.8414 1.01807 7.98534C1.01807 4.12933 4.14398 1.00342 7.99999 1.00342C11.856 1.00342 14.9819 4.12933 14.9819 7.98534C14.9819 8.39956 14.6461 8.73534 14.2319 8.73534C13.8177 8.73534 13.4819 8.39956 13.4819 7.98534C13.4819 4.95776 11.0276 2.50342 7.99999 2.50342ZM8.00907 5.90805C7.17173 5.90805 6.49292 6.58686 6.49292 7.4242C6.49292 8.26155 7.17173 8.94036 8.00907 8.94036C8.84642 8.94036 9.52523 8.26155 9.52523 7.4242C9.52523 6.58686 8.84642 5.90805 8.00907 5.90805Z" fill="#3C3C3C"/>
<path d="M15.0801 11.3634C15.373 11.6563 15.373 12.1312 15.0801 12.4241L14.2846 13.2196L15.08 14.015C15.3729 14.3079 15.3729 14.7828 15.08 15.0757C14.7871 15.3686 14.3122 15.3686 14.0194 15.0757L13.2239 14.2802L12.4284 15.0757C12.1355 15.3686 11.6607 15.3686 11.3678 15.0757C11.0749 14.7828 11.0749 14.308 11.3678 14.0151L12.1632 13.2196L11.3677 12.4241C11.0748 12.1312 11.0748 11.6563 11.3677 11.3634C11.6606 11.0705 12.1355 11.0705 12.4284 11.3634L13.2239 12.1589L14.0194 11.3634C14.3123 11.0705 14.7872 11.0705 15.0801 11.3634Z" fill="#3C3C3C"/>
</svg>
