<svg width="16" height="16" viewBox="0 0 16 16" fill="none" xmlns="http://www.w3.org/2000/svg">
<path fill-rule="evenodd" clip-rule="evenodd" d="M8 13.5C11.0376 13.5 13.5 11.0376 13.5 8C13.5 4.96243 11.0376 2.5 8 2.5C4.96243 2.5 2.5 4.96243 2.5 8C2.5 11.0376 4.96243 13.5 8 13.5ZM8 15C11.866 15 15 11.866 15 8C15 4.13401 11.866 1 8 1C4.13401 1 1 4.13401 1 8C1 11.866 4.13401 15 8 15ZM5.40729 10.5928C5.1144 10.2999 5.1144 9.82507 5.40729 9.53218L6.93946 8.00001L5.40728 6.46783C5.11439 6.17494 5.11439 5.70006 5.40728 5.40717C5.70018 5.11428 6.17505 5.11428 6.46794 5.40717L8.00012 6.93935L9.53208 5.40739C9.82498 5.1145 10.2998 5.1145 10.5927 5.40739C10.8856 5.70028 10.8856 6.17516 10.5927 6.46805L9.06078 8.00001L10.5927 9.53196C10.8856 9.82485 10.8856 10.2997 10.5927 10.5926C10.2998 10.8855 9.82497 10.8855 9.53207 10.5926L8.00012 9.06067L6.46795 10.5928C6.17506 10.8857 5.70019 10.8857 5.40729 10.5928Z" fill="#3C3C3C"/>
</svg>
