<svg width="16" height="16" viewBox="0 0 16 16" fill="none" xmlns="http://www.w3.org/2000/svg">
<path d="M9.94458 6.22708C10.2375 6.51997 10.2375 6.99484 9.94458 7.28774L9.06066 8.17165L9.9445 9.0555C10.2374 9.34839 10.2374 9.82326 9.9445 10.1162C9.65161 10.4091 9.17674 10.4091 8.88384 10.1162L8 9.23231L7.11615 10.1162C6.82326 10.4091 6.34838 10.4091 6.05549 10.1162C5.7626 9.82327 5.76259 9.3484 6.05549 9.0555L6.93934 8.17165L6.05542 7.28773C5.76252 6.99484 5.76252 6.51996 6.05542 6.22707C6.34831 5.93418 6.82318 5.93418 7.11608 6.22707L8 7.11099L8.88392 6.22708C9.17681 5.93418 9.65168 5.93418 9.94458 6.22708Z" fill="#3C3C3C"/>
<path fill-rule="evenodd" clip-rule="evenodd" d="M9.50024 2H6.5V1.75C6.5 1.33579 6.16421 1 5.75 1C5.33579 1 5 1.33579 5 1.75L5 2L3 2C2.44772 2 2 2.44772 2 3L2 13C2 13.5523 2.44772 14 3 14H13C13.5523 14 14 13.5523 14 13L14 3C14 2.44772 13.5523 2 13 2L11.0002 2V1.75C11.0002 1.33579 10.6645 1 10.2502 1C9.83603 1 9.50024 1.33579 9.50024 1.75V2ZM3.5 3.5L3.5 12.5H12.5V3.5H10.9576C10.8546 3.7913 10.5768 4 10.2502 4C9.92369 4 9.64588 3.7913 9.54292 3.5H6.45732C6.35436 3.7913 6.07656 4 5.75 4C5.42345 4 5.14564 3.7913 5.04268 3.5H3.5Z" fill="#3C3C3C"/>
</svg>
