<svg width="16" height="16" viewBox="0 0 16 16" fill="none" xmlns="http://www.w3.org/2000/svg">
<path fill-rule="evenodd" clip-rule="evenodd" d="M7.98743 3.5061H2.50452L2.50452 10.1419L12.4994 10.1419L11.3955 9.11377C11.0924 8.83146 11.0755 8.35689 11.3578 8.05378C11.6401 7.75067 12.1147 7.73381 12.4178 8.01612L14.6542 10.0991C15.1142 10.5275 15.1142 11.2562 14.6542 11.6846L12.4178 13.7675C12.1147 14.0498 11.6401 14.033 11.3578 13.7299C11.0755 13.4268 11.0924 12.9522 11.3955 12.6699L12.4992 11.6419L2.25452 11.6419C1.56416 11.6419 1.00452 11.0823 1.00452 10.3919V3.2561C1.00452 2.56575 1.56416 2.0061 2.25452 2.0061H7.98743C8.40164 2.0061 8.73743 2.34189 8.73743 2.7561C8.73743 3.17032 8.40164 3.5061 7.98743 3.5061Z" fill="#3C3C3C"/>
</svg>
