<svg width="16" height="16" viewBox="0 0 16 16" fill="none" xmlns="http://www.w3.org/2000/svg">
<path fill-rule="evenodd" clip-rule="evenodd" d="M7.25 10V6H8.75V10H7.25Z" fill="#3C3C3C"/>
<path fill-rule="evenodd" clip-rule="evenodd" d="M4 3V5H12V3H4ZM3 1C2.44772 1 2 1.44772 2 2V6C2 6.55228 2.44772 7 3 7H13C13.5523 7 14 6.55228 14 6V2C14 1.44772 13.5523 1 13 1H3Z" fill="#3C3C3C"/>
<path d="M2 11C2 10.4477 2.44772 10 3 10H13C13.5523 10 14 10.4477 14 11V14C14 14.5523 13.5523 15 13 15H3C2.44772 15 2 14.5523 2 14V11Z" fill="#3C3C3C"/>
</svg>
