<svg width="16" height="16" viewBox="0 0 16 16" fill="none" xmlns="http://www.w3.org/2000/svg">
<path fill-rule="evenodd" clip-rule="evenodd" d="M7.99992 4.5C8.2854 4.5 8.54613 4.66207 8.67247 4.91808L9.37965 6.35097L10.9609 6.58074C11.2435 6.6218 11.4782 6.81968 11.5664 7.09119C11.6546 7.3627 11.581 7.66074 11.3766 7.86001L10.2324 8.97537L10.5025 10.5503C10.5507 10.8316 10.4351 11.116 10.2041 11.2838C9.97316 11.4516 9.66696 11.4737 9.41427 11.3409L7.99992 10.5973L6.58557 11.3409C6.33288 11.4737 6.02668 11.4516 5.79573 11.2838C5.56477 11.116 5.4491 10.8316 5.49736 10.5503L5.76747 8.97537L4.62324 7.86001C4.41881 7.66074 4.34524 7.3627 4.43346 7.09119C4.52168 6.81968 4.75639 6.6218 5.0389 6.58074L6.62019 6.35097L7.32737 4.91808C7.45371 4.66207 7.71444 4.5 7.99992 4.5ZM7.99992 6.94466L7.79079 7.3684C7.68155 7.58976 7.47037 7.74318 7.22609 7.77868L6.75847 7.84663L7.09684 8.17646C7.27361 8.34876 7.35427 8.59701 7.31254 8.84031L7.23266 9.30604L7.65091 9.08615C7.86941 8.97128 8.13043 8.97128 8.34893 9.08615L8.76718 9.30604L8.6873 8.84031C8.64557 8.59701 8.72623 8.34876 8.903 8.17646L9.24137 7.84663L8.77375 7.77868C8.52947 7.74318 8.31829 7.58976 8.20905 7.3684L7.99992 6.94466Z" fill="#3C3C3C"/>
<path fill-rule="evenodd" clip-rule="evenodd" d="M6.5 1.75C6.5 1.33579 6.16421 1 5.75 1C5.33579 1 5 1.33579 5 1.75V2H3C2.44772 2 2 2.44772 2 3V13C2 13.5523 2.44772 14 3 14H13C13.5523 14 14 13.5523 14 13V3C14 2.44772 13.5523 2 13 2H11V1.75C11 1.33579 10.6642 1 10.25 1C9.83579 1 9.5 1.33579 9.5 1.75V2H6.5V1.75ZM5.04268 3.5C5.14564 3.7913 5.42345 4 5.75 4C6.07655 4 6.35436 3.7913 6.45732 3.5H9.54268C9.64564 3.7913 9.92345 4 10.25 4C10.5766 4 10.8544 3.7913 10.9573 3.5H12.5V12.5H3.5V3.5H5.04268Z" fill="#3C3C3C"/>
</svg>
