<svg width="16" height="16" viewBox="0 0 16 16" fill="none" xmlns="http://www.w3.org/2000/svg">
<path fill-rule="evenodd" clip-rule="evenodd" d="M3.49854 3.50335H4.37809C4.41493 3.60465 4.47352 3.69781 4.55097 3.77574C4.69175 3.9174 4.88323 3.99706 5.08295 3.99706H10.9088C11.2328 3.99706 11.5091 3.7915 11.6138 3.50335H12.5029V13.5006H3.49854V3.50335ZM12.7529 2.00335H11.6482C11.5297 1.15276 10.7993 0.497063 9.91497 0.497063H6.08919C5.20591 0.497063 4.47473 1.15167 4.35604 2.00335H3.24854C2.55818 2.00335 1.99854 2.56299 1.99854 3.25335V13.7506C1.99854 14.441 2.55818 15.0006 3.24854 15.0006H12.7529C13.4433 15.0006 14.0029 14.441 14.0029 13.7506V3.25335C14.0029 2.56299 13.4433 2.00335 12.7529 2.00335ZM6.08919 1.99706C5.95173 1.99706 5.84005 2.10805 5.83919 2.24551L5.83763 2.49706H10.1634L10.165 2.24862C10.1658 2.10994 10.0537 1.99706 9.91497 1.99706H6.08919ZM8.71402 5.38438C8.58768 5.12838 8.32695 4.9663 8.04147 4.9663C7.75599 4.9663 7.49526 5.12838 7.36892 5.38438L6.59055 6.96153L4.85006 7.21443C4.56754 7.25549 4.33283 7.45337 4.24462 7.72488C4.1564 7.99639 4.22997 8.29444 4.4344 8.4937L5.69383 9.72134L5.39652 11.4548C5.34826 11.7362 5.46392 12.0205 5.69488 12.1883C5.92584 12.3561 6.23204 12.3783 6.48473 12.2454L8.04147 11.427L9.59821 12.2454C9.8509 12.3783 10.1571 12.3561 10.3881 12.1883C10.619 12.0205 10.7347 11.7362 10.6864 11.4548L10.3891 9.72134L11.6485 8.4937C11.853 8.29444 11.9265 7.99639 11.8383 7.72488C11.7501 7.45337 11.5154 7.25549 11.2329 7.21443L9.49239 6.96153L8.71402 5.38438ZM7.76115 7.97896L8.04147 7.41096L8.32179 7.97896C8.43104 8.20031 8.64221 8.35374 8.88649 8.38924L9.51331 8.48032L9.05974 8.92244C8.88298 9.09474 8.80232 9.34299 8.84404 9.58629L8.95112 10.2106L8.39048 9.91582C8.17198 9.80096 7.91096 9.80096 7.69246 9.91582L7.13182 10.2106L7.23889 9.58629C7.28062 9.34299 7.19996 9.09474 7.0232 8.92244L6.56963 8.48032L7.19645 8.38924C7.44073 8.35374 7.6519 8.20031 7.76115 7.97896Z" fill="#3C3C3C"/>
</svg>
