<svg width="16" height="16" viewBox="0 0 16 16" fill="none" xmlns="http://www.w3.org/2000/svg">
<path fill-rule="evenodd" clip-rule="evenodd" d="M11.0619 3.58928C9.91038 3.82626 8.74767 4.26561 8.12561 4.88767C7.70917 5.30411 7.04809 6.32848 6.4523 7.337C6.16475 7.82376 5.90723 8.28083 5.72146 8.61652L5.68885 8.67554L6.50114 9.48783L6.50666 9.49333L6.51217 9.49886L7.32446 10.3112L7.38348 10.2785C7.71917 10.0928 8.17624 9.83525 8.663 9.5477C9.67152 8.95191 10.6959 8.29083 11.1123 7.87439C11.7344 7.25233 12.1737 6.08962 12.4107 4.9381C12.5253 4.38116 12.5838 3.86971 12.5982 3.4933C12.5995 3.46031 12.6004 3.42888 12.601 3.39902C12.5711 3.3996 12.5397 3.4005 12.5067 3.40176C12.1303 3.41617 11.6188 3.47467 11.0619 3.58928ZM5.44871 10.5567L5.446 10.554L5.44327 10.5513C5.20553 10.3168 4.75002 10.2869 4.42165 10.6153C4.35682 10.6801 4.23515 10.8513 4.08509 11.1383C3.94378 11.4085 3.80394 11.7294 3.68852 12.0449C3.637 12.1857 3.5921 12.3206 3.55475 12.4452C3.67944 12.4079 3.81434 12.363 3.95513 12.3115C4.27055 12.1961 4.5915 12.0562 4.86173 11.9149C5.14868 11.7648 5.31985 11.6432 5.38468 11.5784C5.71305 11.25 5.6832 10.7945 5.44871 10.5567ZM3.36099 9.55466C3.49419 9.42145 3.64081 9.30689 3.79675 9.21172L1.63347 8.2846C1.40472 8.18657 1.2395 7.98145 1.19244 7.73707C1.14538 7.4927 1.2226 7.24089 1.39858 7.06491L3.27582 5.18767C3.51024 4.95325 3.82818 4.82155 4.1597 4.82155H6.2702C6.54891 4.42193 6.8228 4.06915 7.06495 3.82701C8.01017 2.88179 9.54002 2.37105 10.7595 2.12007C11.3881 1.99071 11.9818 1.92076 12.4493 1.90286C12.6809 1.894 12.8992 1.89717 13.0835 1.91741C13.1745 1.92739 13.2768 1.94357 13.3766 1.97236C13.4517 1.994 13.6358 2.05187 13.7919 2.20806C13.9481 2.36424 14.006 2.54832 14.0276 2.62336C14.0564 2.72324 14.0726 2.8255 14.0826 2.91648C14.1028 3.10082 14.106 3.31912 14.0971 3.55067C14.0792 4.01818 14.0093 4.61187 13.8799 5.24046C13.629 6.45998 13.1182 7.98983 12.173 8.93505C11.9308 9.1772 11.5781 9.4511 11.1784 9.72981V11.8403C11.1784 12.1718 11.0467 12.4897 10.8123 12.7241L8.93507 14.6014C8.7591 14.7774 8.50729 14.8546 8.26291 14.8075C8.01854 14.7605 7.81342 14.5952 7.71539 14.3665L6.78828 12.2032C6.6931 12.3592 6.57854 12.5058 6.44534 12.639C6.21381 12.8705 5.87588 13.0773 5.55683 13.2441C5.22105 13.4197 4.83911 13.5853 4.47061 13.7201C4.1057 13.8537 3.72955 13.9661 3.40764 14.0246C3.24966 14.0534 3.07456 14.0749 2.90671 14.0689C2.78585 14.0645 2.45977 14.0436 2.20809 13.7919C1.95642 13.5402 1.93547 13.2141 1.93113 13.0933C1.92511 12.9254 1.94662 12.7503 1.97537 12.5924C2.03394 12.2704 2.14634 11.8943 2.27987 11.5294C2.41472 11.1609 2.58028 10.7789 2.75587 10.4432C2.92271 10.1241 3.12946 9.78618 3.36099 9.55466ZM8.14861 11.5695C8.48874 11.3809 8.94235 11.1249 9.42594 10.8392C9.5086 10.7903 9.59294 10.7402 9.67844 10.6889V11.7367L8.65773 12.7574L8.14861 11.5695ZM4.26326 6.32155H5.31108C5.25981 6.40705 5.20966 6.4914 5.16082 6.57406C4.87514 7.05765 4.61911 7.51126 4.43053 7.85139L3.24255 7.34226L4.26326 6.32155ZM8.40477 5.97627C8.85183 5.52921 9.57666 5.52921 10.0237 5.97627C10.4708 6.42333 10.4708 7.14816 10.0237 7.59523C9.57666 8.04229 8.85183 8.04229 8.40477 7.59523C7.9577 7.14816 7.9577 6.42333 8.40477 5.97627ZM2.96052 12.5698C2.94159 12.5691 2.94606 12.5672 2.96649 12.5699L2.96052 12.5698ZM3.4301 13.0335C3.43277 13.0539 3.43085 13.0584 3.43017 13.0395L3.4301 13.0335Z" fill="#3C3C3C"/>
</svg>
