<svg width="16" height="16" viewBox="0 0 16 16" fill="none" xmlns="http://www.w3.org/2000/svg">
<path fill-rule="evenodd" clip-rule="evenodd" d="M8.25673 1.43499C9.01673 0.566245 10.4475 1.10377 10.4475 2.25803V4.53919L12.9655 4.53917C13.2549 4.5366 13.5418 4.59563 13.8067 4.71261C14.073 4.83023 14.3111 5.00386 14.504 5.22222C14.697 5.44062 14.8401 5.6985 14.9227 5.97828C15.0052 6.2581 15.025 6.55251 14.9805 6.84087L14.9798 6.84535L14.1042 12.3033C14.1041 12.3041 14.1039 12.305 14.1038 12.3058C14.0294 12.7848 13.7822 13.2188 13.411 13.5293C13.0407 13.839 12.5714 14.0057 12.0892 14.0015H3.02469C2.49278 14.0015 1.98028 13.7936 1.60056 13.4199C1.22043 13.0458 1.00464 12.5359 1.00464 12.0016V7.62694C1.00464 7.09262 1.22043 6.58267 1.60056 6.20857C1.98028 5.83488 2.49278 5.62704 3.02469 5.62704H4.58941L8.25673 1.43499ZM4.17978 7.12704H3.02469C2.88293 7.12704 2.74934 7.18258 2.6527 7.27768C2.55647 7.37239 2.50464 7.49826 2.50464 7.62694V12.0016C2.50464 12.1302 2.55647 12.2561 2.6527 12.3508C2.74934 12.4459 2.88293 12.5015 3.02469 12.5015H4.17978V7.12704ZM5.67978 12.5015H12.1012C12.23 12.5029 12.3533 12.4584 12.4486 12.3787C12.5435 12.2993 12.6038 12.1909 12.6217 12.0748L12.6224 12.0702L13.498 6.61222C13.4981 6.61164 13.4982 6.61106 13.4983 6.61048C13.5087 6.54113 13.5039 6.47033 13.484 6.40271C13.4638 6.33449 13.4286 6.27049 13.38 6.21543C13.3313 6.16034 13.2703 6.11548 13.2006 6.08473C13.131 6.05396 13.0548 6.03826 12.9776 6.03912L12.9692 6.03921L10.1975 6.0392C9.50718 6.03921 8.94753 5.47956 8.94753 4.7892V2.92349L5.67978 6.6588V12.5015Z" fill="#3C3C3C"/>
</svg>
