<svg width="16" height="16" viewBox="0 0 16 16" fill="none" xmlns="http://www.w3.org/2000/svg">
<path d="M8.88389 4.92794C8.39573 4.43979 7.60428 4.43979 7.11612 4.92794L4.98795 7.05612C4.69506 7.34901 4.69506 7.82388 4.98795 8.11678C5.28084 8.40967 5.75572 8.40967 6.04861 8.11678L8 6.16538L9.9514 8.11678C10.2443 8.40967 10.7192 8.40967 11.0121 8.11678C11.305 7.82388 11.305 7.34901 11.0121 7.05612L8.88389 4.92794Z" fill="#3C3C3C"/>
<path fill-rule="evenodd" clip-rule="evenodd" d="M1 3C1 2.44772 1.44772 2 2 2H14C14.5523 2 15 2.44772 15 3V13C15 13.5523 14.5523 14 14 14H2C1.44772 14 1 13.5523 1 13V3ZM2.5 12.5V3.5H13.5V12.5H2.5Z" fill="#3C3C3C"/>
<path fill-rule="evenodd" clip-rule="evenodd" d="M8.75 10.8743L8.75 5.58246C8.75 5.16824 8.41421 4.83246 8 4.83246C7.58579 4.83246 7.25 5.16824 7.25 5.58246L7.25 10.8743C7.25 11.2885 7.58579 11.6243 8 11.6243C8.41421 11.6243 8.75 11.2885 8.75 10.8743Z" fill="#3C3C3C"/>
</svg>
