<svg width="16" height="16" viewBox="0 0 16 16" fill="none" xmlns="http://www.w3.org/2000/svg">
<path fill-rule="evenodd" clip-rule="evenodd" d="M3.49805 6.92327C3.49805 5.03373 5.02982 3.50195 6.91937 3.50195C8.80891 3.50195 10.3407 5.03373 10.3407 6.92327C10.3407 8.81281 8.80891 10.3446 6.91937 10.3446C5.02982 10.3446 3.49805 8.81281 3.49805 6.92327ZM6.91937 2.00195C4.2014 2.00195 1.99805 4.2053 1.99805 6.92327C1.99805 9.64124 4.2014 11.8446 6.91937 11.8446C8.0079 11.8446 9.01389 11.4912 9.82885 10.8928L12.6461 13.7101C12.939 14.003 13.4139 14.003 13.7068 13.7101C13.9997 13.4172 13.9997 12.9424 13.7068 12.6495L10.8894 9.8321C11.4875 9.01725 11.8407 8.01151 11.8407 6.92327C11.8407 4.2053 9.63733 2.00195 6.91937 2.00195Z" fill="#3C3C3C"/>
</svg>
