<svg width="16" height="16" viewBox="0 0 16 16" fill="none" xmlns="http://www.w3.org/2000/svg">
<path fill-rule="evenodd" clip-rule="evenodd" d="M3.5 3.5V5.5H12.5V3.5H3.5ZM3 2H13C13.5523 2 14 2.44772 14 3V6C14 6.55228 13.5523 7 13 7H3C2.44772 7 2 6.55228 2 6V3C2 2.44772 2.44772 2 3 2ZM2 9.75C2 9.33579 2.33579 9 2.75 9H13.25C13.6642 9 14 9.33579 14 9.75C14 10.1642 13.6642 10.5 13.25 10.5H2.75C2.33579 10.5 2 10.1642 2 9.75ZM2.75 12.5C2.33579 12.5 2 12.8358 2 13.25C2 13.6642 2.33579 14 2.75 14H13.25C13.6642 14 14 13.6642 14 13.25C14 12.8358 13.6642 12.5 13.25 12.5H2.75Z" fill="#3C3C3C"/>
</svg>
