<svg width="16" height="16" viewBox="0 0 16 16" fill="none" xmlns="http://www.w3.org/2000/svg">
<path fill-rule="evenodd" clip-rule="evenodd" d="M3.5 12.5V3.5H12.5V12.5H3.5ZM2 3C2 2.44772 2.44772 2 3 2H13C13.5523 2 14 2.44772 14 3V13C14 13.5523 13.5523 14 13 14H3C2.44772 14 2 13.5523 2 13V3ZM7.29766 6.49717C7.29766 6.3304 7.33991 6.25541 7.36585 6.22009C7.39769 6.17673 7.45205 6.13167 7.54273 6.09143C7.74304 6.00254 7.97293 6 7.99995 6C8.31528 6 8.4874 6.05642 8.57236 6.09856C8.65178 6.13795 8.67818 6.17581 8.68766 6.19109C8.90594 6.54313 9.36827 6.65156 9.7203 6.43328C10.0723 6.215 10.1808 5.75267 9.96248 5.40063C9.6391 4.87909 9.01023 4.5 7.99995 4.5L7.9977 4.5C7.92249 4.49997 7.43137 4.49979 6.93431 4.72036C6.67368 4.83602 6.38261 5.02481 6.15685 5.33221C5.92519 5.64766 5.79766 6.04036 5.79766 6.49717C5.79766 6.96601 5.93819 7.36385 6.18216 7.67811C6.4179 7.98177 6.71733 8.16571 6.97792 8.2776C7.23854 8.3895 7.48883 8.44181 7.6668 8.46727C7.75771 8.48029 7.83481 8.487 7.89166 8.49048C7.9202 8.49223 7.94398 8.49319 7.96221 8.49371L7.98543 8.49421L7.99382 8.4943L7.99519 8.49431L7.99817 8.49438C8.00339 8.49453 8.01401 8.49492 8.02925 8.49585C8.05996 8.49774 8.10795 8.50177 8.16715 8.51024C8.2894 8.52774 8.43939 8.56136 8.57906 8.62134C8.71876 8.68132 8.81962 8.75519 8.8841 8.83825C8.94035 8.91071 8.99997 9.02849 8.99997 9.24716C8.99997 9.47785 8.94033 9.60078 8.88798 9.67205C8.82974 9.75137 8.73997 9.82039 8.61328 9.87661C8.34096 9.99746 8.03663 10 7.99997 10C7.40739 10 7.18612 9.80132 7.10135 9.70136C7.04805 9.63851 7.01774 9.57647 7.00154 9.53364C6.99423 9.51433 6.99042 9.50054 6.98897 9.4948C6.92015 9.09644 6.54629 8.82271 6.14352 8.88047C5.7335 8.93926 5.44877 9.31931 5.50757 9.72933L6.22311 9.62673C5.50757 9.72934 5.50764 9.72984 5.50771 9.73035L5.50787 9.73139L5.50819 9.73357L5.5089 9.73826L5.51063 9.74901C5.51191 9.75678 5.51349 9.76573 5.51541 9.77579C5.51924 9.79589 5.52443 9.82056 5.53141 9.84913C5.54531 9.90609 5.56653 9.97967 5.59856 10.0643C5.66229 10.2328 5.77166 10.4526 5.95732 10.6715C6.35046 11.1351 7.00419 11.5 7.99997 11.5H8.00223C8.08724 11.5 8.65268 11.5002 9.2217 11.2477C9.51834 11.116 9.84482 10.9033 10.097 10.5599C10.355 10.2085 10.5 9.76789 10.5 9.24716C10.5 8.71441 10.3408 8.26863 10.069 7.91842C9.80533 7.57881 9.46869 7.37089 9.17089 7.24302C8.87305 7.11514 8.58555 7.05484 8.37967 7.02537C8.27481 7.01036 8.18608 7.00265 8.12109 6.99867C8.08848 6.99667 8.0615 6.99558 8.04109 6.995L8.01538 6.99444L8.00635 6.99435L8.00512 6.99433C8.00208 6.99424 7.99465 6.99398 7.98348 6.9933C7.96091 6.99191 7.92454 6.98888 7.8793 6.9824C7.78496 6.9689 7.67218 6.94327 7.56972 6.89927C7.46723 6.85527 7.40359 6.80537 7.36702 6.75827C7.33868 6.72176 7.29766 6.65192 7.29766 6.49717ZM6.99224 9.51543L6.9921 9.51446L6.99182 9.51259L6.99129 9.50912L6.99035 9.5032L6.98895 9.49527C6.98826 9.49168 6.98809 9.49123 6.98864 9.49348L6.98897 9.4948M6.99224 9.51543C6.99231 9.51592 6.99238 9.51642 6.24997 9.62287L6.99238 9.51642C6.99233 9.51609 6.99229 9.51576 6.99224 9.51543ZM7.99997 7.6839C7.99998 6.99432 8.00028 6.99432 8.00058 6.99432H8.00062C8.00029 6.99434 7.99997 6.99743 7.99997 7.74098V7.6839ZM7.99934 8.49432C7.99951 8.49432 7.99968 8.49358 7.9998 8.38187C7.99969 8.49432 7.99952 8.49432 7.99936 8.49432H7.99934Z" fill="#3C3C3C"/>
</svg>
