<svg width="16" height="16" viewBox="0 0 16 16" fill="none" xmlns="http://www.w3.org/2000/svg">
<path fill-rule="evenodd" clip-rule="evenodd" d="M8.10906 5.34448C8.10906 6.36315 7.28326 7.18895 6.26458 7.18895C5.2459 7.18895 4.4201 6.36315 4.4201 5.34448C4.4201 4.3258 5.2459 3.5 6.26458 3.5C7.28326 3.5 8.10906 4.3258 8.10906 5.34448ZM9.60906 5.34448C9.60906 7.19158 8.11168 8.68895 6.26458 8.68895C4.41748 8.68895 2.9201 7.19158 2.9201 5.34448C2.9201 3.49737 4.41748 2 6.26458 2C8.11168 2 9.60906 3.49737 9.60906 5.34448ZM6.80918 9.54071C8.88311 9.54071 10.5644 11.222 10.5644 13.2959C10.5644 13.6848 10.2491 14 9.86027 14H2.6684C2.27953 14 1.96429 13.6848 1.96429 13.2959C1.96429 11.222 3.64555 9.54071 5.71949 9.54071H6.80918ZM5.71949 11.0407H6.80918C7.77452 11.0407 8.5982 11.6472 8.91991 12.5H3.60875C3.93047 11.6472 4.75415 11.0407 5.71949 11.0407ZM8.60217 8.50456C9.90997 8.05024 10.8487 6.80698 10.8487 5.34448C10.8487 3.88197 9.90997 2.63871 8.60217 2.18439C8.94608 2.06492 9.31552 2 9.70011 2C11.5472 2 13.0446 3.49737 13.0446 5.34448C13.0446 7.19158 11.5472 8.68895 9.70011 8.68895C9.31552 8.68895 8.94608 8.62404 8.60217 8.50456ZM13.2958 14H11.0999C11.4888 14 11.804 13.6847 11.804 13.2959C11.804 11.4098 10.4136 9.84853 8.60193 9.5811C8.78243 9.55445 8.96712 9.54065 9.15503 9.54065H10.2447C12.3187 9.54065 13.9999 11.2219 13.9999 13.2959C13.9999 13.6847 13.6847 14 13.2958 14Z" fill="#3C3C3C"/>
</svg>
