<svg width="16" height="16" viewBox="0 0 16 16" fill="none" xmlns="http://www.w3.org/2000/svg">
<path fill-rule="evenodd" clip-rule="evenodd" d="M9.74701 4.01498C9.74701 2.8389 10.7004 1.8855 11.8765 1.8855C13.0526 1.8855 14.006 2.8389 14.006 4.01498C14.006 5.19105 13.0526 6.14445 11.8765 6.14445C11.3722 6.14445 10.9088 5.96913 10.544 5.6761L6.74336 7.8695L10.741 10.1832C11.0696 9.97559 11.459 9.85547 11.8765 9.85547C13.0526 9.85547 14.006 10.8089 14.006 11.9849C14.006 13.161 13.0526 14.1144 11.8765 14.1144C10.7004 14.1144 9.74701 13.161 9.74701 11.9849C9.74701 11.7784 9.77642 11.5787 9.83129 11.3898L5.87173 9.09814C5.48695 9.65004 4.84748 10.0112 4.12368 10.0112C2.9476 10.0112 1.9942 9.05775 1.9942 7.88167C1.9942 6.7056 2.9476 5.7522 4.12368 5.7522C4.83983 5.7522 5.47341 6.10571 5.85943 6.64775L9.77915 4.38561C9.75803 4.26524 9.74701 4.1414 9.74701 4.01498ZM11.8765 3.3855C11.5288 3.3855 11.247 3.66732 11.247 4.01498C11.247 4.36263 11.5288 4.64445 11.8765 4.64445C12.2241 4.64445 12.506 4.36263 12.506 4.01498C12.506 3.66732 12.2241 3.3855 11.8765 3.3855ZM3.4942 7.88167C3.4942 7.53402 3.77603 7.2522 4.12368 7.2522C4.47133 7.2522 4.75316 7.53402 4.75316 7.88167C4.75316 8.22933 4.47133 8.51115 4.12368 8.51115C3.77603 8.51115 3.4942 8.22933 3.4942 7.88167ZM11.247 11.9849C11.247 11.6373 11.5288 11.3555 11.8765 11.3555C12.2241 11.3555 12.506 11.6373 12.506 11.9849C12.506 12.3326 12.2241 12.6144 11.8765 12.6144C11.5288 12.6144 11.247 12.3326 11.247 11.9849Z" fill="#3C3C3C"/>
</svg>
