<svg width="16" height="16" viewBox="0 0 16 16" fill="none" xmlns="http://www.w3.org/2000/svg">
<path fill-rule="evenodd" clip-rule="evenodd" d="M7.68247 1.07652C7.88372 0.982468 8.11631 0.982468 8.31756 1.07652L13.5663 3.52951C13.8301 3.65282 13.9987 3.91773 13.9987 4.20897V7.44639C13.9987 10.9278 11.5364 14.1743 8.17343 14.9736C8.05941 15.0007 7.94061 15.0007 7.82659 14.9736C4.46361 14.1743 2.00128 10.9278 2.00128 7.44639V4.20897C2.00128 3.91773 2.16989 3.65282 2.43374 3.52951L7.68247 1.07652ZM3.50128 4.68633V6.69639H7.25001V2.93436L3.50128 4.68633ZM8.75001 2.93436V6.69639H12.4987V4.68633L8.75001 2.93436ZM12.4514 8.19639H8.75001V13.2055C10.7139 12.3505 12.1749 10.3865 12.4514 8.19639ZM7.25001 13.2055C5.28613 12.3505 3.82511 10.3865 3.54864 8.19639H7.25001V13.2055Z" fill="#3C3C3C"/>
</svg>
