<svg width="16" height="16" viewBox="0 0 16 16" fill="none" xmlns="http://www.w3.org/2000/svg">
<path fill-rule="evenodd" clip-rule="evenodd" d="M8 12.5C10.4853 12.5 12.5 10.4853 12.5 8C12.5 5.51472 10.4853 3.5 8 3.5C5.51472 3.5 3.5 5.51472 3.5 8C3.5 10.4853 5.51472 12.5 8 12.5ZM8 14C10.973 14 13.441 11.8377 13.917 9H15C15.5523 9 16 8.55228 16 8C16 7.44772 15.5523 7 15 7H13.917C13.441 4.16229 10.973 2 8 2C5.027 2 2.55904 4.16229 2.08296 7H1C0.447715 7 0 7.44772 0 8C0 8.55228 0.447715 9 1 9H2.08296C2.55904 11.8377 5.027 14 8 14ZM8.75 5.75C8.75 5.33579 8.41421 5 8 5C7.58579 5 7.25 5.33579 7.25 5.75V10.25C7.25 10.6642 7.58579 11 8 11C8.41421 11 8.75 10.6642 8.75 10.25V5.75ZM5.75 6.5C6.16421 6.5 6.5 6.83579 6.5 7.25V8.75C6.5 9.16421 6.16421 9.5 5.75 9.5C5.33579 9.5 5 9.16421 5 8.75V7.25C5 6.83579 5.33579 6.5 5.75 6.5ZM11 7.25C11 6.83579 10.6642 6.5 10.25 6.5C9.83579 6.5 9.5 6.83579 9.5 7.25V8.75C9.5 9.16421 9.83579 9.5 10.25 9.5C10.6642 9.5 11 9.16421 11 8.75V7.25Z" fill="#3C3C3C"/>
</svg>
