<svg width="16" height="16" viewBox="0 0 16 16" fill="none" xmlns="http://www.w3.org/2000/svg">
<path fill-rule="evenodd" clip-rule="evenodd" d="M5.51752 0.998291C5.8466 0.998291 6.13725 1.21282 6.23422 1.52729L7.14653 4.48587L9.57189 5.56283C9.84286 5.68315 10.0175 5.95181 10.0175 6.24829C10.0175 6.54477 9.84286 6.81343 9.57189 6.93375L7.14653 8.01071L6.23422 10.9693C6.13725 11.2838 5.8466 11.4983 5.51752 11.4983C5.18843 11.4983 4.89779 11.2838 4.80082 10.9693L3.88851 8.01071L1.46314 6.93375C1.19217 6.81343 1.01752 6.54477 1.01752 6.24829C1.01752 5.95181 1.19217 5.68315 1.46314 5.56283L3.88851 4.48587L4.80082 1.52729C4.89779 1.21282 5.18843 0.998291 5.51752 0.998291ZM5.51752 4.29351L5.22138 5.25388C5.15751 5.46101 5.00715 5.63038 4.80905 5.71834L3.61558 6.24829L4.80905 6.77824C5.00715 6.8662 5.15751 7.03557 5.22138 7.2427L5.51752 8.20307L5.81366 7.2427C5.87753 7.03557 6.02788 6.8662 6.22599 6.77824L7.41945 6.24829L6.22599 5.71834C6.02788 5.63038 5.87753 5.46101 5.81366 5.25388L5.51752 4.29351ZM9.50031 3.74829C9.50031 3.33408 9.83609 2.99829 10.2503 2.99829H11.5003V1.74829C11.5003 1.33408 11.8361 0.998291 12.2503 0.998291C12.6645 0.998291 13.0003 1.33408 13.0003 1.74829V2.99829H14.2503C14.6645 2.99829 15.0003 3.33408 15.0003 3.74829C15.0003 4.1625 14.6645 4.49829 14.2503 4.49829H13.0003V5.74829C13.0003 6.1625 12.6645 6.49829 12.2503 6.49829C11.8361 6.49829 11.5003 6.1625 11.5003 5.74829V4.49829H10.2503C9.83609 4.49829 9.50031 4.1625 9.50031 3.74829ZM8.00012 12.2499C8.00012 11.8357 8.33591 11.4999 8.75012 11.4999H10.0001V10.2499C10.0001 9.83573 10.3359 9.49994 10.7501 9.49994C11.1643 9.49994 11.5001 9.83573 11.5001 10.2499V11.4999H12.7501C13.1643 11.4999 13.5001 11.8357 13.5001 12.2499C13.5001 12.6642 13.1643 12.9999 12.7501 12.9999H11.5001V14.2499C11.5001 14.6642 11.1643 14.9999 10.7501 14.9999C10.3359 14.9999 10.0001 14.6642 10.0001 14.2499V12.9999H8.75012C8.33591 12.9999 8.00012 12.6642 8.00012 12.2499Z" fill="#3C3C3C"/>
</svg>
