<svg width="16" height="16" viewBox="0 0 16 16" fill="none" xmlns="http://www.w3.org/2000/svg">
<path fill-rule="evenodd" clip-rule="evenodd" d="M2.49899 2.49709C2.50024 2.8289 2.54199 3.30082 2.67023 3.8226C2.85771 4.58546 3.21048 5.37373 3.80425 5.95907C5.0752 7.21196 6.52244 7.3078 7.24994 7.22776C7.25182 6.91128 7.21461 6.44755 7.08633 5.92889C6.90378 5.19077 6.5542 4.41298 5.94849 3.81588C5.34748 3.22341 4.56049 2.86819 3.80805 2.67693C3.29183 2.5457 2.82727 2.50045 2.49899 2.49709ZM4.17759 1.22316C5.09778 1.45707 6.1541 1.91226 7.00154 2.74766C7.86239 3.59629 8.31619 4.6539 8.54246 5.56875C8.62066 5.88494 8.67382 6.19281 8.70674 6.47975C8.79907 6.36871 8.89696 6.26024 9.00071 6.15499C9.84934 5.29413 10.907 4.84033 11.8218 4.61407C12.727 4.39018 13.564 4.37158 14.0372 4.44539C14.444 4.50885 14.7725 4.80466 14.8766 5.20603C15.097 6.05686 15.2441 8.41322 13.2803 10.4053C12.4378 11.26 11.3643 11.7142 10.4337 11.943C9.81429 12.0952 9.2217 12.1564 8.75 12.1575V14.2489C8.75 14.6631 8.41421 14.9989 8 14.9989C7.58579 14.9989 7.25 14.6631 7.25 14.2489L7.25 8.73256C6.145 8.8151 4.33324 8.58685 2.7512 7.02729C1.89653 6.18476 1.4423 5.11126 1.21357 4.1806C0.986833 3.25801 0.962077 2.39483 1.03693 1.90213C1.10652 1.44405 1.46546 1.09814 1.91312 1.03205C2.41396 0.958106 3.26669 0.991611 4.17759 1.22316ZM10.0757 10.4863C9.55387 10.6145 9.08195 10.6563 8.75014 10.6575C8.7535 10.3293 8.79876 9.8647 8.92998 9.34847C9.12125 8.59603 9.47646 7.80905 10.0689 7.20804C10.666 6.60233 11.4438 6.25275 12.1819 6.07019C12.7006 5.94191 13.1643 5.9047 13.4808 5.90658C13.5609 6.63409 13.465 8.08132 12.2121 9.35227C11.6268 9.94605 10.8385 10.2988 10.0757 10.4863Z" fill="#3C3C3C"/>
</svg>
