<svg width="16" height="16" viewBox="0 0 16 16" fill="none" xmlns="http://www.w3.org/2000/svg">
<path fill-rule="evenodd" clip-rule="evenodd" d="M4.76396 6.86103C5.06707 7.14334 5.08393 7.61792 4.80162 7.92102C4.51932 8.22413 4.04474 8.241 3.74163 7.95869L1.5052 5.87573C1.04522 5.44732 1.04522 4.71865 1.5052 4.29023L3.74163 2.20728C4.04474 1.92497 4.51932 1.94183 4.80162 2.24494C5.08393 2.54805 5.06707 3.02263 4.76396 3.30493L3.66026 4.33289L13.905 4.33289C14.5953 4.33289 15.155 4.89254 15.155 5.58289L15.155 12.7187C15.155 13.4091 14.5953 13.9687 13.905 13.9687H8.17205C7.75784 13.9687 7.42205 13.6329 7.42205 13.2187C7.42205 12.8045 7.75784 12.4687 8.17205 12.4687H13.655L13.655 5.83289L3.66007 5.8329L4.76396 6.86103Z" fill="#3C3C3C"/>
</svg>
