<svg width="16" height="16" viewBox="0 0 16 16" fill="none" xmlns="http://www.w3.org/2000/svg">
<path fill-rule="evenodd" clip-rule="evenodd" d="M12.4996 7.89951V3.5H3.5V12.5H7.84988V9.14951C7.84988 8.45915 8.40953 7.89951 9.09988 7.89951H12.4996ZM12.1931 9.39951H9.34988V12.2428L12.1931 9.39951ZM3 2H12.9996C13.5519 2 13.9996 2.44772 13.9996 3V9.30008C13.9996 9.56529 13.8943 9.81964 13.7068 10.0072L10.0069 13.7071C9.81941 13.8946 9.56505 14 9.29983 14H3C2.44772 14 2 13.5523 2 13V3C2 2.44772 2.44772 2 3 2Z" fill="#3C3C3C"/>
</svg>
