<svg width="16" height="16" viewBox="0 0 16 16" fill="none" xmlns="http://www.w3.org/2000/svg">
<path fill-rule="evenodd" clip-rule="evenodd" d="M13.5 8C13.5 11.0376 11.0376 13.5 8 13.5C4.96243 13.5 2.5 11.0376 2.5 8C2.5 4.96243 4.96243 2.5 8 2.5C11.0376 2.5 13.5 4.96243 13.5 8ZM15 8C15 11.866 11.866 15 8 15C4.13401 15 1 11.866 1 8C1 4.13401 4.13401 1 8 1C11.866 1 15 4.13401 15 8ZM10.5699 7.3637C10.8628 7.07081 10.8628 6.59594 10.5699 6.30304C10.277 6.01015 9.80211 6.01015 9.50922 6.30305L7.37118 8.4411L6.79404 7.83291C6.50891 7.53245 6.0342 7.52001 5.73374 7.80514C5.43328 8.09026 5.42084 8.56497 5.70597 8.86543L6.81307 10.0321C6.95234 10.1789 7.14499 10.2631 7.34729 10.2658C7.54959 10.2684 7.74438 10.1892 7.88744 10.0462L10.5699 7.3637Z" fill="#3C3C3C"/>
</svg>
