<svg width="16" height="16" viewBox="0 0 16 16" fill="none" xmlns="http://www.w3.org/2000/svg">
<path d="M9.96967 6.71967C9.67678 7.01257 9.67678 7.48744 9.96967 7.78033C10.2626 8.07323 10.7374 8.07323 11.0303 7.78033L13.7803 5.03033C14.0732 4.73744 14.0732 4.26257 13.7803 3.96967L11.0303 1.21967C10.7374 0.926777 10.2626 0.926776 9.96967 1.21967C9.67678 1.51256 9.67678 1.98744 9.96967 2.28033L11.4393 3.75L2.75 3.75C2.33579 3.75 2 4.08579 2 4.5C2 4.91422 2.33579 5.25 2.75 5.25H11.4393L9.96967 6.71967Z" fill="#3C3C3C"/>
<path d="M4.56066 10.75L13.25 10.75C13.6642 10.75 14 11.0858 14 11.5C14 11.9142 13.6642 12.25 13.25 12.25L4.56066 12.25L6.03033 13.7197C6.32322 14.0126 6.32322 14.4874 6.03033 14.7803C5.73744 15.0732 5.26256 15.0732 4.96967 14.7803L2.21967 12.0303C1.92678 11.7374 1.92678 11.2626 2.21967 10.9697L4.96967 8.21967C5.26256 7.92678 5.73744 7.92678 6.03033 8.21967C6.32322 8.51257 6.32322 8.98744 6.03033 9.28033L4.56066 10.75Z" fill="#3C3C3C"/>
</svg>
