<svg width="16" height="16" viewBox="0 0 16 16" fill="none" xmlns="http://www.w3.org/2000/svg">
<path fill-rule="evenodd" clip-rule="evenodd" d="M8.68774 3.07556L12.6212 3.4689L13.0145 7.40232L7.91896 12.4979L3.5922 8.1711L8.68774 3.07556ZM14.0934 3.11611C14.0342 2.52413 13.5659 2.05589 12.9739 1.9967L8.71912 1.57121C8.34606 1.53391 7.97596 1.66602 7.71085 1.93113L2.35476 7.28722C1.86661 7.77537 1.86661 8.56683 2.35476 9.05498L7.03508 13.7353C7.52323 14.2235 8.31469 14.2235 8.80284 13.7353L14.1589 8.37921C14.424 8.1141 14.5562 7.744 14.5188 7.37094L14.0934 3.11611ZM10.276 5.81404C10.5549 6.09298 11.0072 6.09298 11.2861 5.81404C11.5651 5.5351 11.5651 5.08284 11.2861 4.8039C11.0072 4.52496 10.5549 4.52496 10.276 4.8039C9.99705 5.08284 9.99705 5.5351 10.276 5.81404Z" fill="#3C3C3C"/>
</svg>
