<svg width="16" height="16" viewBox="0 0 16 16" fill="none" xmlns="http://www.w3.org/2000/svg">
<path fill-rule="evenodd" clip-rule="evenodd" d="M7.50024 4.9516C7.50024 6.05617 6.60481 6.9516 5.50024 6.9516C4.39567 6.9516 3.50024 6.05617 3.50024 4.9516C3.50024 3.84703 4.39567 2.9516 5.50024 2.9516C6.60481 2.9516 7.50024 3.84703 7.50024 4.9516ZM9.00024 4.9516C9.00024 6.8846 7.43324 8.4516 5.50024 8.4516C3.56725 8.4516 2.00024 6.8846 2.00024 4.9516C2.00024 3.0186 3.56725 1.4516 5.50024 1.4516C7.43324 1.4516 9.00024 3.0186 9.00024 4.9516ZM10.5 7.5766C10.5 7.02431 10.9477 6.5766 11.5 6.5766C12.0523 6.5766 12.5 7.02431 12.5 7.5766C12.5 8.12888 12.0523 8.5766 11.5 8.5766C10.9477 8.5766 10.5 8.12888 10.5 7.5766ZM11.5 5.0766C10.1193 5.0766 9 6.19589 9 7.5766C9 8.95731 10.1193 10.0766 11.5 10.0766C12.8807 10.0766 14 8.95731 14 7.5766C14 6.19589 12.8807 5.0766 11.5 5.0766ZM9.92595 12.7849H13.1469C12.8815 12.4786 12.4897 12.2849 12.0526 12.2849H10.9474C10.6904 12.2849 10.4533 12.3506 10.2473 12.4649C10.1314 12.5292 10.0102 12.5766 9.8868 12.6078C9.90117 12.6663 9.91423 12.7254 9.92595 12.7849ZM9.26316 14.2849H14.4474C14.7526 14.2849 15 14.0375 15 13.7323C15 12.1045 13.6804 10.7849 12.0526 10.7849H10.9474C10.4294 10.7849 9.94256 10.9185 9.51957 11.1532C8.80109 10.2197 7.67254 9.61823 6.40351 9.61823H6.07018H4.92982C3.30204 9.61823 1.9054 10.6079 1.30883 12.0184C1.10997 12.4885 1 13.0054 1 13.548C1 13.548 1 13.548 1 13.548C1 13.955 1.3299 14.2849 1.73684 14.2849H8.55263H9.26316ZM8.37774 12.7849C8.05774 11.8168 7.14554 11.1182 6.07018 11.1182L4.92982 11.1182C4.1233 11.1182 3.40856 11.5112 2.9666 12.116C2.81927 12.3177 2.70226 12.5429 2.62226 12.7849L8.37774 12.7849Z" fill="#3C3C3C"/>
</svg>
