<svg width="16" height="16" viewBox="0 0 16 16" fill="none" xmlns="http://www.w3.org/2000/svg">
<path d="M1.75 2C1.33579 2 1 2.33579 1 2.75C1 3.16421 1.33579 3.5 1.75 3.5H2.75L2.75 6.25C2.75 6.66421 3.08579 7 3.5 7C3.91421 7 4.25 6.66421 4.25 6.25L4.25 3.5H5.25C5.66421 3.5 6 3.16421 6 2.75C6 2.33579 5.66421 2 5.25 2H1.75Z" fill="#3C3C3C"/>
<path d="M7.5 6.25C7.5 5.83579 7.83579 5.5 8.25 5.5H14.25C14.6642 5.5 15 5.83579 15 6.25C15 6.66421 14.6642 7 14.25 7H8.25C7.83579 7 7.5 6.66421 7.5 6.25Z" fill="#3C3C3C"/>
<path d="M1.75 9C1.33579 9 1 9.33579 1 9.75C1 10.1642 1.33579 10.5 1.75 10.5H14.25C14.6642 10.5 15 10.1642 15 9.75C15 9.33579 14.6642 9 14.25 9H1.75Z" fill="#3C3C3C"/>
<path d="M1.75 12.5C1.33579 12.5 1 12.8358 1 13.25C1 13.6642 1.33579 14 1.75 14H7.75C8.16421 14 8.5 13.6642 8.5 13.25C8.5 12.8358 8.16421 12.5 7.75 12.5H1.75Z" fill="#3C3C3C"/>
<path d="M8.25 2C7.83579 2 7.5 2.33579 7.5 2.75C7.5 3.16421 7.83579 3.5 8.25 3.5H14.25C14.6642 3.5 15 3.16421 15 2.75C15 2.33579 14.6642 2 14.25 2H8.25Z" fill="#3C3C3C"/>
</svg>
