<svg width="16" height="16" viewBox="0 0 16 16" fill="none" xmlns="http://www.w3.org/2000/svg">
<path fill-rule="evenodd" clip-rule="evenodd" d="M8.25673 1.43502C9.01673 0.566275 10.4475 1.1038 10.4475 2.25806V4.53923L12.9655 4.5392C13.2549 4.53663 13.5418 4.59566 13.8067 4.71264C14.073 4.83026 14.3111 5.00389 14.504 5.22225C14.697 5.44065 14.8401 5.69853 14.9227 5.97831C15.0052 6.25813 15.025 6.55254 14.9805 6.8409L14.9798 6.84538L14.1042 12.3033C14.1041 12.3041 14.1039 12.305 14.1038 12.3058C14.0294 12.7848 13.7822 13.2188 13.411 13.5293C13.0407 13.8391 12.5714 14.0057 12.0892 14.0015H3.02469C2.49278 14.0015 1.98028 13.7937 1.60056 13.42C1.22043 13.0459 1.00464 12.5359 1.00464 12.0016V7.62697C1.00464 7.09265 1.22043 6.5827 1.60056 6.2086C1.98028 5.83491 2.49278 5.62707 3.02469 5.62707H4.58941L8.25673 1.43502ZM4.17978 7.12707H3.02469C2.88293 7.12707 2.74934 7.18261 2.6527 7.27771C2.55647 7.37242 2.50464 7.49829 2.50464 7.62697V12.0016C2.50464 12.1303 2.55647 12.2561 2.6527 12.3508C2.74934 12.446 2.88293 12.5015 3.02469 12.5015H4.17978V7.12707ZM5.67978 12.5015H12.1012C12.23 12.5029 12.3533 12.4584 12.4486 12.3788C12.5435 12.2993 12.6038 12.1909 12.6217 12.0749L12.6224 12.0703L13.498 6.61225C13.4981 6.61167 13.4982 6.61109 13.4983 6.61051C13.5087 6.54116 13.5039 6.47036 13.484 6.40274C13.4638 6.33452 13.4286 6.27052 13.38 6.21546C13.3313 6.16037 13.2703 6.11551 13.2006 6.08476C13.131 6.05399 13.0548 6.03829 12.9776 6.03915L12.9692 6.03924L10.1975 6.03923C9.50718 6.03924 8.94753 5.47959 8.94753 4.78923V2.92352L5.67978 6.65883V12.5015Z" fill="#3C3C3C"/>
</svg>
