<svg width="16" height="16" viewBox="0 0 16 16" fill="none" xmlns="http://www.w3.org/2000/svg">
<path fill-rule="evenodd" clip-rule="evenodd" d="M8.75024 1.74878C8.75024 1.33457 8.41446 0.998779 8.00024 0.998779C7.58603 0.998779 7.25024 1.33457 7.25024 1.74878V2.99878C7.25024 3.41299 7.58603 3.74878 8.00024 3.74878C8.41446 3.74878 8.75024 3.41299 8.75024 2.99878V1.74878ZM7.99996 5.93066C6.84815 5.93066 5.91441 6.8644 5.91441 8.01621C5.91441 8.7872 6.33238 9.46144 6.95769 9.82318C7.18942 9.95724 7.33213 10.2047 7.33213 10.4724V11.227H8.66767V10.4725C8.66767 10.2047 8.81039 9.95729 9.04215 9.82324C9.6675 9.46151 10.0855 8.78723 10.0855 8.01621C10.0855 6.8644 9.15178 5.93066 7.99996 5.93066ZM4.41441 8.01621C4.41441 6.03597 6.01972 4.43066 7.99996 4.43066C9.98021 4.43066 11.5855 6.03597 11.5855 8.01621C11.5855 9.18272 11.0282 10.2184 10.1677 10.8724V11.977C10.1677 12.3912 9.83189 12.727 9.41768 12.727H6.58213C6.16791 12.727 5.83213 12.3912 5.83213 11.977V10.8723C4.97171 10.2183 4.41441 9.18266 4.41441 8.01621ZM5.88179 14.25C5.88179 13.8358 6.21758 13.5 6.63179 13.5H9.36795C9.78216 13.5 10.1179 13.8358 10.1179 14.25C10.1179 14.6642 9.78216 15 9.36795 15H6.63179C6.21758 15 5.88179 14.6642 5.88179 14.25ZM3.75 8.00171C3.75 7.5875 3.41421 7.25171 3 7.25171H1.75C1.33579 7.25171 1 7.5875 1 8.00171C1 8.41592 1.33579 8.75171 1.75 8.75171H3C3.41421 8.75171 3.75 8.41592 3.75 8.00171ZM14.2526 7.25171C14.6668 7.25171 15.0026 7.5875 15.0026 8.00171C15.0026 8.41592 14.6668 8.75171 14.2526 8.75171H13.0026C12.5884 8.75171 12.2526 8.41592 12.2526 8.00171C12.2526 7.5875 12.5884 7.25171 13.0026 7.25171H14.2526ZM2.95674 3.15473C3.24963 2.86184 3.7245 2.86184 4.0174 3.15473L4.90128 4.03861C5.19417 4.33151 5.19417 4.80638 4.90128 5.09927C4.60839 5.39217 4.13351 5.39217 3.84062 5.09927L2.95674 4.21539C2.66384 3.9225 2.66384 3.44762 2.95674 3.15473ZM11.9912 3.16791C12.2841 2.87502 12.759 2.87502 13.0519 3.16791C13.3448 3.46081 13.3448 3.93568 13.0519 4.22857L12.168 5.11246C11.8751 5.40535 11.4002 5.40535 11.1073 5.11246C10.8144 4.81956 10.8144 4.34469 11.1073 4.0518L11.9912 3.16791Z" fill="#3C3C3C"/>
</svg>
