<svg width="16" height="16" viewBox="0 0 16 16" fill="none" xmlns="http://www.w3.org/2000/svg">
<path fill-rule="evenodd" clip-rule="evenodd" d="M6.29463 1.77319C6.29463 1.35898 5.95885 1.02319 5.54463 1.02319C5.13042 1.02319 4.79463 1.35898 4.79463 1.77319V2.56421H3.49064C3.49054 2.56421 3.49044 2.56421 3.49035 2.56421H1.77786C1.36365 2.56421 1.02786 2.9 1.02786 3.31421C1.02786 3.72842 1.36365 4.06421 1.77786 4.06421H2.84145C2.84884 4.09988 2.85677 4.13665 2.86527 4.17445C2.97342 4.65514 3.17608 5.30935 3.55588 6.02149C3.77386 6.43022 4.0486 6.85475 4.39355 7.27425C3.756 7.78036 2.93702 8.24426 1.88313 8.59557C1.49017 8.72656 1.27781 9.1513 1.4088 9.54426C1.53978 9.93721 1.96453 10.1496 2.35748 10.0186C3.65632 9.58563 4.66982 8.99512 5.45904 8.34139C6.20269 8.95738 7.14546 9.51723 8.33845 9.94203L6.36387 13.8912C6.17863 14.2617 6.3288 14.7122 6.69928 14.8974C7.06977 15.0826 7.52027 14.9325 7.70552 14.562L8.69586 12.5813H12.5608L13.5512 14.562C13.7364 14.9325 14.1869 15.0826 14.5574 14.8974C14.9279 14.7122 15.078 14.2617 14.8928 13.8912L13.7009 11.5075C13.6974 11.5 13.6937 11.4926 13.6899 11.4853L11.2992 6.7039C11.1721 6.44981 10.9124 6.28931 10.6283 6.28931C10.3443 6.28931 10.0846 6.44981 9.95751 6.7039L9.01501 8.5889C7.97072 8.2384 7.15805 7.77716 6.52452 7.27425C6.86948 6.85475 7.14421 6.43022 7.36219 6.02149C7.74199 5.30935 7.94465 4.65514 8.0528 4.17445C8.06131 4.13665 8.06924 4.09988 8.07663 4.06421H9.31152C9.72573 4.06421 10.0615 3.72842 10.0615 3.31421C10.0615 2.9 9.72573 2.56421 9.31152 2.56421H7.42773H7.42744H6.29463V1.77319ZM5.45904 6.20575C5.69615 5.90284 5.88605 5.60178 6.03866 5.31562C6.28822 4.84768 6.44149 4.41258 6.53525 4.06421H5.5474L5.54463 4.06421L5.54186 4.06421H4.38283C4.47659 4.41258 4.62986 4.84768 4.87942 5.31562C5.03203 5.60178 5.22193 5.90284 5.45904 6.20575ZM11.8108 11.0813L10.6283 8.71636L9.44586 11.0813H11.8108Z" fill="#3C3C3C"/>
</svg>
