<svg width="16" height="16" viewBox="0 0 16 16" fill="none" xmlns="http://www.w3.org/2000/svg">
<path fill-rule="evenodd" clip-rule="evenodd" d="M13.5 8C13.5 11.0376 11.0376 13.5 8 13.5C4.96243 13.5 2.5 11.0376 2.5 8C2.5 4.96243 4.96243 2.5 8 2.5C11.0376 2.5 13.5 4.96243 13.5 8ZM15 8C15 11.866 11.866 15 8 15C4.13401 15 1 11.866 1 8C1 4.13401 4.13401 1 8 1C11.866 1 15 4.13401 15 8ZM6.50001 6.91667C6.50001 6.68144 6.57967 6.30719 6.80068 6.01161C6.99436 5.75257 7.33274 5.5 8.00001 5.5C8.66729 5.5 9.00567 5.75257 9.19935 6.01161C9.42035 6.30719 9.50001 6.68144 9.50001 6.91667C9.50001 7.20299 9.34514 7.57698 8.97 8.02855C8.60466 8.4683 8.09799 8.89992 7.56089 9.28782C7.02843 9.67238 6.49178 9.99567 6.08583 10.2237C5.88364 10.3373 5.71578 10.4262 5.59952 10.4861C5.54144 10.5161 5.49636 10.5388 5.46647 10.5537L5.43332 10.57L5.42582 10.5737L5.42465 10.5742L5.42444 10.5743C5.10929 10.7262 4.94097 11.0758 5.01881 11.4169C5.09666 11.758 5.40009 12 5.75001 12H10.25C10.6642 12 11 11.6642 11 11.25C11 10.8358 10.6642 10.5 10.25 10.5H8.44445C9.03077 10.0761 9.64681 9.56121 10.1238 8.98708C10.5924 8.42302 11 7.71368 11 6.91667C11 6.42967 10.8547 5.72059 10.4007 5.11339C9.91936 4.46965 9.13274 4 8.00001 4C6.86729 4 6.08067 4.46965 5.59935 5.11339C5.14535 5.72059 5.00001 6.42967 5.00001 6.91667C5.00001 7.33088 5.3358 7.66667 5.75001 7.66667C6.16423 7.66667 6.50001 7.33088 6.50001 6.91667Z" fill="#3C3C3C"/>
</svg>
