<svg width="16" height="16" viewBox="0 0 16 16" fill="none" xmlns="http://www.w3.org/2000/svg">
<path fill-rule="evenodd" clip-rule="evenodd" d="M1 3.25391C1 2.56355 1.55964 2.00391 2.25 2.00391H13.75C14.4404 2.00391 15 2.56355 15 3.25391V4.5C15 5.10433 14.5711 5.6085 14.0011 5.72476V12.7488C14.0011 13.4391 13.4415 13.9988 12.7511 13.9988H3.24884C2.55848 13.9988 1.99884 13.4391 1.99884 12.7488V5.72476C1.42886 5.60849 1 5.10433 1 4.5V3.25391ZM3.49884 5.75H12.5011V12.4988H3.49884V5.75ZM13.5 4.25H12.7511H3.24884H2.5V3.50391H13.5V4.25ZM8.96033 9.3566C9.25322 9.6495 9.7281 9.6495 10.021 9.3566C10.3139 9.06371 10.3139 8.58884 10.021 8.29594L8.53041 6.80536C8.38976 6.66471 8.19899 6.58569 8.00008 6.58569C7.80117 6.58569 7.6104 6.66471 7.46975 6.80536L5.97917 8.29594C5.68628 8.58884 5.68628 9.06371 5.97917 9.3566C6.27206 9.6495 6.74694 9.6495 7.03983 9.3566L7.25008 9.14635V10.9131C7.25008 11.3273 7.58587 11.6631 8.00008 11.6631C8.4143 11.6631 8.75008 11.3273 8.75008 10.9131V9.14635L8.96033 9.3566Z" fill="#3C3C3C"/>
</svg>
