<svg width="16" height="16" viewBox="0 0 16 16" fill="none" xmlns="http://www.w3.org/2000/svg">
<path fill-rule="evenodd" clip-rule="evenodd" d="M2.13354 1.75195C2.13354 1.33774 2.46933 1.00195 2.88354 1.00195H5.29584C5.71005 1.00195 6.04584 1.33774 6.04584 1.75195C6.04584 2.16617 5.71005 2.50195 5.29584 2.50195H4.7711V7.42059C4.7711 9.20983 6.22156 10.6603 8.01079 10.6603C9.80002 10.6603 11.2505 9.20982 11.2505 7.42059V2.50195H10.7226C10.3084 2.50195 9.97264 2.16617 9.97264 1.75195C9.97264 1.33774 10.3084 1.00195 10.7226 1.00195H13.1372C13.5514 1.00195 13.8872 1.33774 13.8872 1.75195C13.8872 2.16617 13.5514 2.50195 13.1372 2.50195H12.7505V7.42059C12.7505 10.0382 10.6285 12.1603 8.01079 12.1603C5.39313 12.1603 3.2711 10.0383 3.2711 7.42059V2.50195H2.88354C2.46933 2.50195 2.13354 2.16617 2.13354 1.75195ZM2.88354 13.5034C2.46933 13.5034 2.13354 13.8392 2.13354 14.2534C2.13354 14.6676 2.46933 15.0034 2.88354 15.0034H13.1138C13.528 15.0034 13.8638 14.6676 13.8638 14.2534C13.8638 13.8392 13.528 13.5034 13.1138 13.5034H2.88354Z" fill="#3C3C3C"/>
</svg>
