<svg width="16" height="16" viewBox="0 0 16 16" fill="none" xmlns="http://www.w3.org/2000/svg">
<path fill-rule="evenodd" clip-rule="evenodd" d="M4.75 3.25C4.75 2.83579 5.08579 2.5 5.5 2.5L14.25 2.5C14.6642 2.5 15 2.83579 15 3.25C15 3.66421 14.6642 4 14.25 4L5.5 4C5.08579 4 4.75 3.66421 4.75 3.25Z" fill="#3C3C3C"/>
<path fill-rule="evenodd" clip-rule="evenodd" d="M4.75 8C4.75 7.58579 5.08579 7.25 5.5 7.25L14.25 7.25C14.6642 7.25 15 7.58579 15 8C15 8.41421 14.6642 8.75 14.25 8.75L5.5 8.75C5.08579 8.75 4.75 8.41421 4.75 8Z" fill="#3C3C3C"/>
<path fill-rule="evenodd" clip-rule="evenodd" d="M4.75 12.75C4.75 12.3358 5.08579 12 5.5 12L14.25 12C14.6642 12 15 12.3358 15 12.75C15 13.1642 14.6642 13.5 14.25 13.5L5.5 13.5C5.08579 13.5 4.75 13.1642 4.75 12.75Z" fill="#3C3C3C"/>
<path d="M3.5 3.25C3.5 3.94036 2.94036 4.5 2.25 4.5C1.55964 4.5 1 3.94036 1 3.25C1 2.55964 1.55964 2 2.25 2C2.94036 2 3.5 2.55964 3.5 3.25Z" fill="#3C3C3C"/>
<path d="M3.5 8C3.5 8.69036 2.94036 9.25 2.25 9.25C1.55964 9.25 1 8.69036 1 8C1 7.30964 1.55964 6.75 2.25 6.75C2.94036 6.75 3.5 7.30964 3.5 8Z" fill="#3C3C3C"/>
<path d="M3.5 12.75C3.5 13.4404 2.94036 14 2.25 14C1.55964 14 1 13.4404 1 12.75C1 12.0596 1.55964 11.5 2.25 11.5C2.94036 11.5 3.5 12.0596 3.5 12.75Z" fill="#3C3C3C"/>
</svg>
