<svg width="16" height="16" viewBox="0 0 16 16" fill="none" xmlns="http://www.w3.org/2000/svg">
<path d="M11.3703 4.97279C11.0774 5.26568 10.6025 5.26568 10.3096 4.97279L8.75014 3.4133V10.7331C8.75014 11.1473 8.41436 11.4831 8.00014 11.4831C7.58593 11.4831 7.25014 11.1473 7.25014 10.7331V3.41333L5.69068 4.97279C5.39779 5.26568 4.92291 5.26568 4.63002 4.97279C4.33713 4.6799 4.33713 4.20502 4.63002 3.91213L7.23413 1.30802C7.65719 0.884956 8.34312 0.884955 8.76619 1.30802L11.3703 3.91213C11.6632 4.20502 11.6632 4.6799 11.3703 4.97279Z" fill="#3C3C3C"/>
<path d="M3.5 11.4007V13.4912H12.5V11.4007C12.5 10.9865 12.8358 10.6507 13.25 10.6507C13.6642 10.6507 14 10.9865 14 11.4007V13.7412C14 14.4316 13.4403 14.9912 12.75 14.9912H3.25C2.55964 14.9912 2 14.4316 2 13.7412V11.4007C2 10.9865 2.33579 10.6507 2.75 10.6507C3.16421 10.6507 3.5 10.9865 3.5 11.4007Z" fill="#3C3C3C"/>
</svg>
