<svg width="16" height="16" viewBox="0 0 16 16" fill="none" xmlns="http://www.w3.org/2000/svg">
<path fill-rule="evenodd" clip-rule="evenodd" d="M7.02205 2.50866C7.52249 1.88002 8.47753 1.88 8.97798 2.50864L10.76 4.74719L12.358 3.81909C13.3038 3.26973 14.4492 4.11433 14.204 5.18029L13.0444 10.2199V12.7529C13.0444 13.4433 12.4847 14.0029 11.7944 14.0029H4.20576C3.5154 14.0029 2.95576 13.4433 2.95576 12.7529V10.2199L1.79609 5.1803C1.5508 4.11435 2.69617 3.26973 3.64204 3.81907L5.24008 4.74719L7.02205 2.50866ZM4.45576 10.8847V12.5029H11.5444V10.8847H4.45576ZM11.6973 9.38474L12.6129 5.40568L11.3267 6.15271C10.7905 6.46412 10.1071 6.33542 9.72095 5.85033L8.00003 3.68857L6.27918 5.85031C5.89301 6.33541 5.2096 6.46412 4.67343 6.15272L3.38715 5.40567L4.30277 9.38474H11.6973Z" fill="#3C3C3C"/>
</svg>
