<svg width="16" height="16" viewBox="0 0 16 16" fill="none" xmlns="http://www.w3.org/2000/svg">
<path fill-rule="evenodd" clip-rule="evenodd" d="M7.99996 6.5C9.10453 6.5 9.99996 5.60457 9.99996 4.5C9.99996 3.39543 9.10453 2.5 7.99996 2.5C6.89539 2.5 5.99996 3.39543 5.99996 4.5C5.99996 5.60457 6.89539 6.5 7.99996 6.5ZM7.99996 8C9.93296 8 11.5 6.433 11.5 4.5C11.5 2.567 9.93296 1 7.99996 1C6.06697 1 4.49996 2.567 4.49996 4.5C4.49996 6.433 6.06697 8 7.99996 8Z" fill="#3C3C3C"/>
<path fill-rule="evenodd" clip-rule="evenodd" d="M10 10.5H6C4.61929 10.5 3.5 11.6193 3.5 13V13.5H12.5V13C12.5 11.6193 11.3807 10.5 10 10.5ZM6 9C3.79086 9 2 10.7909 2 13V14.25C2 14.6642 2.33579 15 2.75 15H13.25C13.6642 15 14 14.6642 14 14.25V13C14 10.7909 12.2091 9 10 9H6Z" fill="#3C3C3C"/>
</svg>
