<svg width="16" height="16" viewBox="0 0 16 16" fill="none" xmlns="http://www.w3.org/2000/svg">
<path fill-rule="evenodd" clip-rule="evenodd" d="M10.5 3.95348V3.5H2.5V12.5H10.5V11.2465C10.4991 11.2311 10.4986 11.2156 10.4986 11.2V4C10.4986 3.98438 10.4991 3.96887 10.5 3.95348ZM11.9986 8.71267L13.5 9.58849V6.4116L11.9986 7.28743V8.71267ZM13.8721 4.45799L12 5.55005V3C12 2.44772 11.5523 2 11 2H2C1.44772 2 1 2.44772 1 3V13C1 13.5523 1.44771 14 2 14H11C11.5523 14 12 13.5523 12 13V10.45L13.8721 11.5421C14.3721 11.8338 15 11.4731 15 10.8943V5.10583C15 4.52698 14.3721 4.16633 13.8721 4.45799Z" fill="#3C3C3C"/>
</svg>
