<svg width="16" height="16" viewBox="0 0 16 16" fill="none" xmlns="http://www.w3.org/2000/svg">
<path fill-rule="evenodd" clip-rule="evenodd" d="M2.5 12.5V3.5H13.5V12.5H2.5ZM1 3C1 2.44771 1.44772 2 2 2H14C14.5523 2 15 2.44772 15 3V13C15 13.5523 14.5523 14 14 14H2C1.44772 14 1 13.5523 1 13V3ZM11 8.64951C11.2321 8.51553 11.375 8.26794 11.375 7.99999C11.375 7.73204 11.2321 7.48445 11 7.35047L6.625 4.82456C6.39295 4.69059 6.10705 4.69059 5.875 4.82456C5.64295 4.95854 5.5 5.20613 5.5 5.47408V10.5259C5.5 10.7938 5.64295 11.0414 5.875 11.1754C6.10705 11.3094 6.39295 11.3094 6.625 11.1754L11 8.64951ZM7 6.77312L9.125 7.99999L7 9.22686V6.77312Z" fill="#3C3C3C"/>
</svg>
