<svg width="16" height="16" viewBox="0 0 16 16" fill="none" xmlns="http://www.w3.org/2000/svg">
<path fill-rule="evenodd" clip-rule="evenodd" d="M7.05607 1.566C7.46561 0.815658 8.54319 0.815953 8.95232 1.56652L14.8609 12.406C15.2532 13.1256 14.7323 14.0029 13.9127 14.0029H2.08775C1.26783 14.0029 0.746952 13.1251 1.13977 12.4054L7.05607 1.566ZM8.00381 2.96051L2.79548 12.5029H13.2054L8.00381 2.96051ZM8 5.49573C8.41421 5.49573 8.75 5.83151 8.75 6.24573V8.40184C8.75 8.81606 8.41421 9.15184 8 9.15184C7.58579 9.15184 7.25 8.81606 7.25 8.40184V6.24573C7.25 5.83151 7.58579 5.49573 8 5.49573ZM8.00001 11.636C8.44656 11.636 8.80855 11.274 8.80855 10.8275C8.80855 10.3809 8.44656 10.0189 8.00001 10.0189C7.55346 10.0189 7.19147 10.3809 7.19147 10.8275C7.19147 11.274 7.55346 11.636 8.00001 11.636Z" fill="#3C3C3C"/>
</svg>
