<svg width="16" height="16" viewBox="0 0 16 16" fill="none" xmlns="http://www.w3.org/2000/svg">
<path fill-rule="evenodd" clip-rule="evenodd" d="M8 5C6.61929 5 5.5 6.11929 5.5 7.5C5.5 8.88071 6.61929 10 8 10C9.38071 10 10.5 8.88071 10.5 7.5C10.5 6.11929 9.38071 5 8 5ZM7 7.5C7 6.94772 7.44772 6.5 8 6.5C8.55228 6.5 9 6.94772 9 7.5C9 8.05228 8.55228 8.5 8 8.5C7.44772 8.5 7 8.05228 7 7.5Z" fill="#3C3C3C"/>
<path fill-rule="evenodd" clip-rule="evenodd" d="M2 14H14C14.5523 14 15 13.5523 15 13V3C15 2.44772 14.5523 2 14 2H2C1.44772 2 1 2.44772 1 3V13C1 13.5523 1.44772 14 2 14ZM2.5 3.5V12.5H4.67071C5.08254 11.3348 6.19378 10.5 7.5 10.5H8.5C9.80622 10.5 10.9175 11.3348 11.3293 12.5H13.5V3.5H2.5ZM8.5 12C8.94425 12 9.34339 12.1931 9.61805 12.5H6.38195C6.65661 12.1931 7.05575 12 7.5 12H8.5Z" fill="#3C3C3C"/>
</svg>
