<svg width="16" height="16" viewBox="0 0 16 16" fill="none" xmlns="http://www.w3.org/2000/svg">
<path fill-rule="evenodd" clip-rule="evenodd" d="M5 8C5 7.58579 5.33579 7.25 5.75 7.25H10.25C10.6642 7.25 11 7.58579 11 8C11 8.41421 10.6642 8.75 10.25 8.75H5.75C5.33579 8.75 5 8.41421 5 8Z" fill="#3C3C3C"/>
<path fill-rule="evenodd" clip-rule="evenodd" d="M8 5C8.41421 5 8.75 5.33579 8.75 5.75V10.25C8.75 10.6642 8.41421 11 8 11C7.58579 11 7.25 10.6642 7.25 10.25V5.75C7.25 5.33579 7.58579 5 8 5Z" fill="#3C3C3C"/>
<path fill-rule="evenodd" clip-rule="evenodd" d="M5 2.75C3.64322 2.75 2.5 4.10465 2.5 5.91673C2.5 7.24588 2.94354 8.2273 3.79654 9.27536C4.43188 10.056 5.25257 10.8283 6.26725 11.7832C6.68368 12.1751 7.13279 12.5977 7.61518 13.0643L7.61623 13.0653L8.00198 13.4399L8.38424 13.0715C8.38452 13.0713 8.3848 13.071 8.38508 13.0707C8.87013 12.6006 9.32153 12.175 9.73989 11.7806C10.7511 10.8273 11.5694 10.0559 12.2033 9.2764C13.0565 8.22736 13.5 7.24587 13.5 5.91673C13.5 4.10465 12.3568 2.75 11 2.75C10.3124 2.75 9.84284 2.84153 9.48994 2.9937C9.14715 3.14152 8.86602 3.36733 8.58613 3.71793C8.44381 3.89619 8.2281 4 8 4C7.7719 4 7.55619 3.89619 7.41387 3.71793C7.13398 3.36733 6.85285 3.14152 6.51006 2.9937C6.15716 2.84153 5.6876 2.75 5 2.75ZM8.10334 13.5383L8.10315 13.5381L8.10334 13.5383ZM1 5.91673C1 3.62216 2.50678 1.25 5 1.25C5.8124 1.25 6.50222 1.35681 7.104 1.6163C7.44208 1.76208 7.73651 1.94918 8 2.17223C8.2635 1.94918 8.55792 1.76208 8.896 1.6163C9.49778 1.35681 10.1876 1.25 11 1.25C13.4932 1.25 15 3.62216 15 5.91673C15 7.67087 14.381 8.97604 13.367 10.2228C12.6665 11.0842 11.7389 11.9587 10.6902 12.9473C10.2856 13.3288 9.86286 13.7273 9.42825 14.1486L9.42668 14.1501L8.94101 14.6181C8.41098 15.1289 7.58629 15.1271 7.05838 14.6145L6.57232 14.1425C6.57215 14.1423 6.57197 14.1421 6.5718 14.142C6.13994 13.7243 5.71987 13.329 5.31755 12.9504C4.26584 11.9607 3.33547 11.0851 2.63315 10.2222C1.61896 8.9761 1 7.67085 1 5.91673Z" fill="#3C3C3C"/>
</svg>
