<svg width="16" height="16" viewBox="0 0 16 16" fill="none" xmlns="http://www.w3.org/2000/svg">
<path d="M5.75 6.5C6.16421 6.5 6.5 6.16421 6.5 5.75C6.5 5.33579 6.16421 5 5.75 5C5.33579 5 5 5.33579 5 5.75C5 6.16421 5.33579 6.5 5.75 6.5Z" fill="#3C3C3C"/>
<path d="M10.25 6.5C10.6642 6.5 11 6.16421 11 5.75C11 5.33579 10.6642 5 10.25 5C9.83579 5 9.5 5.33579 9.5 5.75C9.5 6.16421 9.83579 6.5 10.25 6.5Z" fill="#3C3C3C"/>
<path fill-rule="evenodd" clip-rule="evenodd" d="M10.9701 7.41558C11.1471 7.55795 11.25 7.77285 11.25 8C11.25 8.82245 11.0959 9.56835 10.6973 10.1516C10.2807 10.7611 9.65878 11.1033 8.92108 11.2112C8.21357 11.3148 7.53587 11.2123 6.91609 10.8858C6.30536 10.5641 5.79601 10.0491 5.37142 9.39679C5.23708 9.19039 5.21262 8.93118 5.306 8.7033C5.39937 8.47541 5.59867 8.30789 5.83922 8.25509L10.3392 7.26744C10.5611 7.21874 10.7931 7.27322 10.9701 7.41558ZM7.42446 9.44287C7.48823 9.48684 7.55184 9.5253 7.61516 9.55865C7.93288 9.72601 8.28643 9.78812 8.70392 9.72704C9.09122 9.67037 9.313 9.51871 9.45892 9.30521C9.52043 9.21521 9.57676 9.10176 9.62315 8.9603L7.42446 9.44287Z" fill="#3C3C3C"/>
<path fill-rule="evenodd" clip-rule="evenodd" d="M3.5 3.5V12.5H12.5V3.5H3.5ZM3 2C2.44772 2 2 2.44772 2 3V13C2 13.5523 2.44772 14 3 14H13C13.5523 14 14 13.5523 14 13V3C14 2.44772 13.5523 2 13 2H3Z" fill="#3C3C3C"/>
</svg>
