<svg width="16" height="16" viewBox="0 0 16 16" fill="none" xmlns="http://www.w3.org/2000/svg">
<path d="M3.5 9.5V2.5H8V3.67498L9.5 3.80621V2C9.5 1.44772 9.05228 1 8.5 1H3C2.44772 1 2 1.44772 2 2V10C2 10.5523 2.44772 11 3 11H5.34383L5.47507 9.5H3.5Z" fill="#3C3C3C"/>
<path fill-rule="evenodd" clip-rule="evenodd" d="M7.36356 5.12503L6.66631 13.0946L12.1454 13.5739L12.8426 5.60438L7.36356 5.12503ZM6.99619 3.58716C6.44601 3.53902 5.96098 3.94601 5.91284 4.49619L5.12844 13.4619C5.08031 14.0121 5.4873 14.4972 6.03748 14.5453L12.5127 15.1118C13.0629 15.1599 13.548 14.753 13.5961 14.2028L14.3805 5.23702C14.4286 4.68684 14.0216 4.2018 13.4715 4.15367L6.99619 3.58716Z" fill="#3C3C3C"/>
<path fill-rule="evenodd" clip-rule="evenodd" d="M7.64472 9.33949C8.00952 9.14327 8.4643 9.27993 8.66051 9.64472C8.92451 10.1355 9.33183 10.3675 9.72155 10.4016C10.1113 10.4357 10.5527 10.278 10.8979 9.84047C11.1545 9.51529 11.6261 9.45968 11.9513 9.71626C12.2764 9.97284 12.332 10.4444 12.0755 10.7696C11.4328 11.5841 10.5086 11.9762 9.59082 11.8959C8.67304 11.8156 7.83095 11.269 7.33949 10.3553C7.14327 9.99048 7.27993 9.5357 7.64472 9.33949Z" fill="#3C3C3C"/>
<path d="M8.61641 8.5909C9.02905 8.627 9.39282 8.32175 9.42893 7.90912C9.46503 7.49648 9.15978 7.1327 8.74715 7.0966C8.33451 7.0605 7.97073 7.36575 7.93463 7.77838C7.89853 8.19102 8.20378 8.5548 8.61641 8.5909Z" fill="#3C3C3C"/>
<path d="M11.1164 8.9034C11.529 8.9395 11.8928 8.63425 11.9289 8.22162C11.965 7.80898 11.6598 7.4452 11.2471 7.4091C10.8345 7.373 10.4707 7.67825 10.4346 8.09088C10.3985 8.50352 10.7038 8.8673 11.1164 8.9034Z" fill="#3C3C3C"/>
</svg>
