<svg width="24" height="24" viewBox="0 0 24 24" fill="none" xmlns="http://www.w3.org/2000/svg">
<path d="M0 12C0 5.37258 5.37258 0 12 0C18.6274 0 24 5.37258 24 12C24 18.6274 18.6274 24 12 24C5.37258 24 0 18.6274 0 12Z" fill="#E5DED6"/>
<path d="M6.84843 4.55148C7.07347 4.32644 7.3787 4.20001 7.69696 4.20001H17.3999C18.0626 4.20001 18.5999 4.73727 18.5999 5.40001V17.503C18.5999 17.8212 18.4735 18.1264 18.2484 18.3515L17.1514 19.4485C16.9263 19.6736 16.6211 19.8 16.3028 19.8H6.5999C5.93716 19.8 5.3999 19.2628 5.3999 18.6V6.49707C5.3999 6.17881 5.52633 5.87358 5.75137 5.64854L6.84843 4.55148Z" fill="#2A2620"/>
<path fill-rule="evenodd" clip-rule="evenodd" d="M7.8001 5.20001H17.4001C17.5106 5.20001 17.6001 5.28955 17.6001 5.40001V17.4C17.6001 17.5105 17.5106 17.6 17.4001 17.6H7.8001C7.68964 17.6 7.6001 17.5105 7.6001 17.4V5.40001C7.6001 5.28956 7.68964 5.20001 7.8001 5.20001ZM13.2002 8.30002H16.2002V7.30002H13.2002V8.30002ZM16.2002 11.9H13.2002V10.9H16.2002V11.9ZM13.2002 15.5H16.2002V14.5H13.2002V15.5ZM11.773 7.12285L10.0162 9.31287C9.92733 9.42369 9.79549 9.49147 9.65364 9.49926C9.51179 9.50706 9.37331 9.45414 9.27281 9.35373L8.29297 8.37481L8.99974 7.66737L9.5851 8.25217L10.9929 6.49713L11.773 7.12285ZM10.0162 12.6557L11.773 10.4657L10.9929 9.83997L9.5851 11.595L8.99974 11.0102L8.29297 11.7176L9.27281 12.6966C9.37331 12.797 9.51179 12.8499 9.65364 12.8421C9.79549 12.8343 9.92733 12.7665 10.0162 12.6557ZM11.773 14.0657L10.0162 16.2557C9.92733 16.3665 9.79549 16.4343 9.65364 16.4421C9.51179 16.4499 9.37331 16.397 9.27281 16.2966L8.29297 15.3176L8.99974 14.6102L9.5851 15.195L10.9929 13.44L11.773 14.0657Z" fill="white"/>
</svg>
