<svg width="24" height="24" viewBox="0 0 24 24" fill="none" xmlns="http://www.w3.org/2000/svg">
<path d="M0 12C0 5.37258 5.37258 0 12 0V0C18.6274 0 24 5.37258 24 12V12C24 18.6274 18.6274 24 12 24V24C5.37258 24 0 18.6274 0 12V12Z" fill="#E5DED6"/>
<path fill-rule="evenodd" clip-rule="evenodd" d="M9.62499 5.40002C9.62499 5.05485 9.34517 4.77502 8.99999 4.77502C8.84784 4.77502 8.70838 4.82939 8.6 4.91976V4.91874L8.59339 4.92535C8.56899 4.94626 8.54623 4.96903 8.52531 4.99343L7.51871 6.00002H6.59999C6.42707 6.00002 6.27125 6.07317 6.16175 6.1902L4.99012 7.36184C4.87311 7.47133 4.79999 7.62714 4.79999 7.80002V17.4C4.79999 17.7314 5.06862 18 5.39999 18H18.6C18.7822 18 18.9454 17.9188 19.0554 17.7907L20.1907 16.6554C20.3188 16.5454 20.4 16.3822 20.4 16.2V6.60002C20.4 6.26865 20.1314 6.00002 19.8 6.00002H18.025V5.40002C18.025 5.05485 17.7452 4.77502 17.4 4.77502C17.1933 4.77502 17.01 4.87537 16.8962 5.03L15.9262 6.00002H9.62499V5.40002Z" fill="#2A2620"/>
<path d="M6.60001 6.59998H19.8V15.9H6.60001V6.59998Z" fill="white"/>
<path fill-rule="evenodd" clip-rule="evenodd" d="M9 4.90002C9.27614 4.90002 9.5 5.12388 9.5 5.40002L9.5 7.80002C9.5 8.07617 9.27614 8.30002 9 8.30002C8.72386 8.30002 8.5 8.07617 8.5 7.80002L8.5 5.40002C8.5 5.12388 8.72386 4.90002 9 4.90002Z" fill="#2A2620"/>
<path fill-rule="evenodd" clip-rule="evenodd" d="M17.4 4.90002C17.6761 4.90002 17.9 5.12388 17.9 5.40002L17.9 7.80002C17.9 8.07617 17.6761 8.30002 17.4 8.30002C17.1239 8.30002 16.9 8.07617 16.9 7.80002L16.9 5.40002C16.9 5.12388 17.1239 4.90002 17.4 4.90002Z" fill="#2A2620"/>
<path fill-rule="evenodd" clip-rule="evenodd" d="M13.2 8C13.6332 8 14.0172 8.27896 14.151 8.69098L14.4654 9.65836H15.4825C15.9158 9.65836 16.2997 9.93732 16.4336 10.3493C16.5675 10.7614 16.4208 11.2127 16.0703 11.4674L15.2474 12.0652L15.5617 13.0326C15.6956 13.4446 15.5489 13.896 15.1985 14.1507C14.848 14.4053 14.3734 14.4053 14.0229 14.1507L13.2 13.5528L12.3771 14.1507C12.0266 14.4053 11.552 14.4053 11.2015 14.1507C10.851 13.896 10.7044 13.4446 10.8382 13.0326L11.1526 12.0652L10.3297 11.4674C9.97918 11.2127 9.83252 10.7614 9.9664 10.3493C10.1003 9.93732 10.4842 9.65836 10.9175 9.65836H11.9346L12.2489 8.69098C12.3828 8.27896 12.7668 8 13.2 8ZM13.2 9L13.7388 10.6584H15.4825L14.0718 11.6833L14.6107 13.3416L13.2 12.3167L11.7893 13.3416L12.3281 11.6833L10.9175 10.6584H12.6612L13.2 9Z" fill="#2A2620"/>
</svg>
