<svg width="24" height="24" viewBox="0 0 24 24" fill="none" xmlns="http://www.w3.org/2000/svg">
<path d="M0 12C0 5.37258 5.37258 0 12 0C18.6274 0 24 5.37258 24 12C24 18.6274 18.6274 24 12 24C5.37258 24 0 18.6274 0 12Z" fill="#E5DED6"/>
<path d="M17.3951 17.0692C17.3861 17.0774 17.3775 17.0861 17.3692 17.095C15.8476 18.7457 13.7025 19.95 11.4001 19.95C7.3408 19.95 4.0501 16.6593 4.0501 12.6C4.0501 10.2938 4.87416 8.95409 6.3458 7.18812C8.04174 5.15299 10.29 4.05004 12.6001 4.05004C16.6594 4.05004 19.9501 7.34074 19.9501 11.4C19.9501 13.7208 19.0298 15.5622 17.3951 17.0692Z" fill="#2A2620" stroke="#2A2620" stroke-width="0.9" stroke-linecap="round" stroke-linejoin="round"/>
<path fill-rule="evenodd" clip-rule="evenodd" d="M12.6 18.2001C16.3556 18.2001 19.4 15.1556 19.4 11.4001C19.4 7.64456 16.3556 4.6001 12.6 4.6001C8.84451 4.6001 5.80005 7.64456 5.80005 11.4001C5.80005 15.1556 8.84451 18.2001 12.6 18.2001ZM9.5999 10.839C10.2626 10.839 10.7999 10.3017 10.7999 9.63896C10.7999 8.97622 10.2626 8.43896 9.5999 8.43896C8.93716 8.43896 8.3999 8.97622 8.3999 9.63896C8.3999 10.3017 8.93716 10.839 9.5999 10.839ZM16.7999 9.63896C16.7999 10.3017 16.2626 10.839 15.5999 10.839C14.9372 10.839 14.3999 10.3017 14.3999 9.63896C14.3999 8.97622 14.9372 8.43896 15.5999 8.43896C16.2626 8.43896 16.7999 8.97622 16.7999 9.63896ZM9.24293 12.8872C9.07021 12.6718 8.75553 12.6371 8.54007 12.8098C8.32461 12.9826 8.28996 13.2972 8.46268 13.5127C9.43316 14.7233 10.9261 15.5 12.6 15.5C14.274 15.5 15.7669 14.7233 16.7374 13.5127C16.9101 13.2972 16.8754 12.9826 16.66 12.8098C16.4445 12.6371 16.1298 12.6718 15.9571 12.8872C15.1683 13.8713 13.9577 14.5 12.6 14.5C11.2423 14.5 10.0318 13.8713 9.24293 12.8872Z" fill="white"/>
</svg>
