<svg width="24" height="24" viewBox="0 0 24 24" fill="none" xmlns="http://www.w3.org/2000/svg">
<path d="M0 12C0 5.37258 5.37258 0 12 0C18.6274 0 24 5.37258 24 12C24 18.6274 18.6274 24 12 24C5.37258 24 0 18.6274 0 12Z" fill="#E5DED6"/>
<path d="M20.4001 11.4C20.4001 13.8596 19.4172 15.8171 17.7001 17.4C16.1172 19.1171 13.8597 20.4 11.4001 20.4C7.09228 20.4 3.6001 16.9079 3.6001 12.6C3.6001 10.1404 4.5001 8.70004 6.0001 6.90004C7.77076 4.77524 10.1405 3.60004 12.6001 3.60004C16.9079 3.60004 20.4001 7.09222 20.4001 11.4Z" fill="#2A2620"/>
<path fill-rule="evenodd" clip-rule="evenodd" d="M12.6 18.2001C16.3556 18.2001 19.4 15.1556 19.4 11.4001C19.4 7.64456 16.3556 4.6001 12.6 4.6001C8.84451 4.6001 5.80005 7.64456 5.80005 11.4001C5.80005 15.1556 8.84451 18.2001 12.6 18.2001ZM9.5999 10.839C10.2626 10.839 10.7999 10.3017 10.7999 9.63896C10.7999 8.97622 10.2626 8.43896 9.5999 8.43896C8.93716 8.43896 8.3999 8.97622 8.3999 9.63896C8.3999 10.3017 8.93716 10.839 9.5999 10.839ZM16.7999 9.63896C16.7999 10.3017 16.2626 10.839 15.5999 10.839C14.9372 10.839 14.3999 10.3017 14.3999 9.63896C14.3999 8.97622 14.9372 8.43896 15.5999 8.43896C16.2626 8.43896 16.7999 8.97622 16.7999 9.63896ZM9.24293 12.8872C9.07021 12.6718 8.75553 12.6371 8.54007 12.8098C8.32461 12.9826 8.28996 13.2972 8.46268 13.5127C9.43316 14.7233 10.9261 15.5 12.6 15.5C14.274 15.5 15.7669 14.7233 16.7374 13.5127C16.9101 13.2972 16.8754 12.9826 16.66 12.8098C16.4445 12.6371 16.1298 12.6718 15.9571 12.8872C15.1683 13.8713 13.9577 14.5 12.6 14.5C11.2423 14.5 10.0318 13.8713 9.24293 12.8872Z" fill="white"/>
</svg>
