<svg width="24" height="24" viewBox="0 0 24 24" fill="none" xmlns="http://www.w3.org/2000/svg">
<path d="M0 12C0 5.37258 5.37258 0 12 0V0C18.6274 0 24 5.37258 24 12V12C24 18.6274 18.6274 24 12 24V24C5.37258 24 0 18.6274 0 12V12Z" fill="#E5DED6"/>
<path d="M6.4602 7.30895C6.47503 7.29254 6.49035 7.27641 6.50617 7.26059C7.01213 6.75463 7.83245 6.75463 8.33841 7.26059L8.38145 7.30363C8.44397 7.12883 8.54523 6.96477 8.68522 6.82478C9.19118 6.31882 10.0115 6.31882 10.5175 6.82478L10.72 7.02732C10.8216 7.08166 10.9171 7.1506 11.0033 7.23414L11.021 7.25133C11.0826 7.09763 11.1773 6.95356 11.3053 6.8295C11.7982 6.3516 12.5975 6.3516 13.0904 6.8295L14.0841 7.79289C14.6453 7.60384 15.279 7.82116 15.5993 8.34151C15.6379 8.37212 15.6748 8.40514 15.7098 8.4405C15.8102 8.18964 15.9961 7.96904 16.2552 7.82403C16.8588 7.48618 17.6306 7.68656 17.9793 8.27157L19.8284 11.3557L19.8344 11.3661C20.356 12.3053 20.5355 13.2514 20.3417 14.1908C20.1491 15.1245 19.5959 16.0123 18.7255 16.8561C18.574 17.003 18.4118 17.1402 18.2396 17.2657C18.0356 17.529 17.8013 17.7883 17.538 18.0436C16.7973 18.7617 15.7996 19.2488 14.6419 19.2668C13.8939 19.8085 12.9727 20.1324 11.9379 20.0854C10.623 20.0256 9.17826 19.3696 7.71562 17.907L4.66496 14.8563C4.159 14.3504 4.159 13.53 4.66496 13.0241C4.69618 12.9929 4.7286 12.9636 4.76207 12.9362L5.06088 12.6374L4.88286 12.4594C4.37691 11.9534 4.37691 11.1331 4.88286 10.6271C4.90221 10.6078 4.92201 10.5892 4.94224 10.5713L5.27693 10.2366C4.81312 9.72819 4.82703 8.93973 5.31867 8.44809C5.33448 8.43228 5.3506 8.41697 5.367 8.40215L6.4602 7.30895Z" fill="#2A2620"/>
<path d="M7.19825 10.144C7.0813 10.0271 6.89167 10.0271 6.77471 10.144C6.65775 10.261 6.65775 10.4506 6.77471 10.5676L9.94044 13.7333L9.05656 14.6172L6.98155 12.5422C6.98115 12.5418 6.98075 12.5414 6.98035 12.541C6.86339 12.424 6.67376 12.424 6.5568 12.541C6.43985 12.658 6.43985 12.8476 6.5568 12.9645L9.60747 16.0152C10.946 17.3537 12.1684 17.8573 13.1707 17.9029C14.1701 17.9483 15.0403 17.543 15.6965 16.8868C16.5092 16.0741 16.9549 15.2897 17.1054 14.5369C17.2535 13.7962 17.1295 13.0204 16.6824 12.1862L14.7567 8.87326L14.7558 8.87168C14.6731 8.72844 14.4899 8.67936 14.3467 8.76206C14.2035 8.84476 14.1544 9.02793 14.2371 9.17117C14.2461 9.18672 14.2544 9.20266 14.262 9.21892L15.1793 11.1806C15.3078 11.4555 15.2204 11.7829 14.9719 11.9571C14.7234 12.1313 14.3858 12.1018 14.1712 11.8873L9.81311 7.52919C9.69615 7.41223 9.50652 7.41223 9.38956 7.52919C9.27261 7.64614 9.27261 7.83577 9.38957 7.95273C9.39298 7.95615 9.39636 7.9596 9.39968 7.96308L12.3374 10.9008L11.4536 11.7847L7.63406 7.965C7.5171 7.84804 7.32748 7.84804 7.21052 7.965C7.09356 8.08195 7.09356 8.27158 7.21052 8.38854L11.03 12.208L10.1461 13.0918L7.20199 10.1477C7.20074 10.1465 7.1995 10.1453 7.19825 10.144Z" fill="white"/>
<path fill-rule="evenodd" clip-rule="evenodd" d="M15.3505 6.54999L16.637 4.32178L17.7195 4.94678L16.4331 7.17499L15.3505 6.54999Z" fill="#2A2620"/>
<path fill-rule="evenodd" clip-rule="evenodd" d="M13.0296 6.16467L13.7979 3.29708L15.0053 3.6206L14.237 6.4882L13.0296 6.16467Z" fill="#2A2620"/>
<path fill-rule="evenodd" clip-rule="evenodd" d="M11.1226 6.1684L10.6231 4.30446L11.8305 3.98094L12.33 5.84487L11.1226 6.1684Z" fill="#2A2620"/>
</svg>
