<svg width="24" height="24" viewBox="0 0 24 24" fill="none" xmlns="http://www.w3.org/2000/svg">
<path d="M0 12C0 5.37258 5.37258 0 12 0V0C18.6274 0 24 5.37258 24 12V12C24 18.6274 18.6274 24 12 24V24C5.37258 24 0 18.6274 0 12V12Z" fill="#E5DED6"/>
<path fill-rule="evenodd" clip-rule="evenodd" d="M10.0483 6.75242C9.99846 6.82717 9.93862 6.90216 9.86908 6.97253C10.0741 7.18782 10.2 7.47921 10.2 7.8V9.6H10.8V9.00003C10.8 8.67924 10.9259 8.38785 11.1309 8.17256C11.0614 8.10219 11.0015 8.0272 10.9517 7.95245C10.7502 7.65025 10.65 7.27597 10.65 6.90003C10.65 6.02037 11.5547 5.27705 11.99 4.58C11.99 4.58 12.3357 4.56923 12.3456 4.55848C12.3781 4.52304 12.4123 4.49011 12.4478 4.45966L12.4628 4.44462V4.44698C12.9316 4.05846 13.6295 4.09563 14.0544 4.55848C14.2412 4.76194 14.55 5.16464 14.55 5.69999C14.55 6.07594 14.4498 6.45022 14.2483 6.75242C14.1985 6.82717 14.1386 6.90216 14.0691 6.97252C14.2741 7.18782 14.4 7.47921 14.4 7.8V9.6H15V9.00003C15 8.67924 15.1259 8.38785 15.3309 8.17256C15.2614 8.10219 15.2015 8.0272 15.1517 7.95245C14.9502 7.65025 14.85 7.27597 14.85 6.90003C14.85 6.07268 15.6822 5.2887 16.1363 4.65381C16.1363 4.65381 16.5377 4.56705 16.5456 4.55848C16.5763 4.52499 16.6085 4.49372 16.6419 4.46469L16.662 4.44462V4.44764C17.1308 4.05842 17.8293 4.09536 18.2544 4.55848C18.4412 4.76194 18.75 5.16464 18.75 5.69999C18.75 6.07594 18.6498 6.45022 18.4483 6.75242C18.3985 6.82717 18.3386 6.90216 18.2691 6.97252C18.4741 7.18782 18.6 7.47921 18.6 7.8V9.6H19.8C20.09 9.6 20.3319 9.80567 20.3878 10.0791C20.3958 10.1181 20.4 10.1586 20.4 10.2V17.4C20.4 17.4207 20.399 17.4412 20.3969 17.4613C20.3946 17.4838 20.3911 17.5058 20.3864 17.5274C20.3583 17.6575 20.288 17.7719 20.1905 17.8556L19.0555 18.9905C18.9455 19.1188 18.7822 19.2 18.6 19.2H5.4C5.06863 19.2 4.8 18.9314 4.8 18.6V11.4C4.8 11.2393 4.86322 11.0933 4.96614 10.9856C4.97995 10.9711 4.99447 10.9574 5.00965 10.9444L6.1441 9.80992C6.15493 9.79727 6.16628 9.78508 6.17811 9.77337C6.2865 9.66618 6.43552 9.6 6.6 9.6L6.6 9.00003C6.6 8.67924 6.72587 8.38785 6.93092 8.17256C6.86138 8.10219 6.80154 8.0272 6.7517 7.95245C6.55023 7.65025 6.45 7.27597 6.45 6.90003C6.45 6.02539 7.32655 5.34306 7.75212 4.64778C7.75212 4.64778 8.19277 4.50928 8.21681 4.48715L8.25931 4.44466V4.44988C8.72808 4.05828 9.42845 4.09448 9.85441 4.55848C10.0412 4.76194 10.35 5.16464 10.35 5.69999C10.35 6.07594 10.2498 6.45022 10.0483 6.75242ZM9.11381 6.58382C9.02639 6.20387 8.80003 5.91662 8.65168 5.75554C8.56976 5.6666 8.48925 5.59216 8.42156 5.53433C8.46806 5.35322 8.58289 5.19117 8.69809 5.06567C8.8629 4.88615 9.1371 4.88615 9.30191 5.06567C9.45127 5.22838 9.6 5.45252 9.6 5.69999C9.6 6.13868 9.39076 6.50406 9.11381 6.58382ZM17.5138 6.58382C17.7908 6.50406 18 6.13868 18 5.69999C18 5.45252 17.8513 5.22838 17.7019 5.06567C17.5371 4.88615 17.2629 4.88615 17.0981 5.06567C16.9829 5.19117 16.8681 5.35322 16.8216 5.53433C16.8892 5.59216 16.9698 5.6666 17.0517 5.75554C17.2 5.91662 17.4264 6.20387 17.5138 6.58382ZM13.3138 6.58383C13.5908 6.50406 13.8 6.13868 13.8 5.69999C13.8 5.45252 13.6513 5.22838 13.5019 5.06567C13.3371 4.88615 13.0629 4.88615 12.8981 5.06567C12.7829 5.19117 12.6681 5.35322 12.6216 5.53433C12.6892 5.59216 12.7698 5.6666 12.8517 5.75554C13 5.91662 13.2264 6.20387 13.3138 6.58383Z" fill="#2A2620"/>
<path fill-rule="evenodd" clip-rule="evenodd" d="M8.988 7.34998C9.23653 7.34998 9.438 7.55145 9.438 7.79998L9.438 10.2C9.438 10.4485 9.23653 10.65 8.988 10.65C8.73947 10.65 8.538 10.4485 8.538 10.2L8.538 7.79998C8.538 7.55145 8.73947 7.34998 8.988 7.34998Z" fill="white"/>
<path fill-rule="evenodd" clip-rule="evenodd" d="M8.988 6.34998C9.78881 6.34998 10.438 6.99916 10.438 7.79998L10.438 10.2C10.438 11.0008 9.78881 11.65 8.988 11.65C8.18719 11.65 7.538 11.0008 7.538 10.2L7.538 7.79998C7.538 6.99916 8.18719 6.34998 8.988 6.34998ZM9.438 7.79998C9.438 7.55145 9.23653 7.34998 8.988 7.34998C8.73947 7.34998 8.538 7.55145 8.538 7.79998L8.538 10.2C8.538 10.4485 8.73947 10.65 8.988 10.65C9.23653 10.65 9.438 10.4485 9.438 10.2L9.438 7.79998Z" fill="#2A2620"/>
<path fill-rule="evenodd" clip-rule="evenodd" d="M13.188 7.34998C13.4365 7.34998 13.638 7.55145 13.638 7.79998L13.638 10.2C13.638 10.4485 13.4365 10.65 13.188 10.65C12.9395 10.65 12.738 10.4485 12.738 10.2L12.738 7.79998C12.738 7.55145 12.9395 7.34998 13.188 7.34998Z" fill="white"/>
<path fill-rule="evenodd" clip-rule="evenodd" d="M13.188 6.34998C13.9888 6.34998 14.638 6.99916 14.638 7.79998L14.638 10.2C14.638 11.0008 13.9888 11.65 13.188 11.65C12.3872 11.65 11.738 11.0008 11.738 10.2L11.738 7.79998C11.738 6.99916 12.3872 6.34998 13.188 6.34998ZM13.638 7.79998C13.638 7.55145 13.4365 7.34998 13.188 7.34998C12.9395 7.34998 12.738 7.55145 12.738 7.79998L12.738 10.2C12.738 10.4485 12.9395 10.65 13.188 10.65C13.4365 10.65 13.638 10.4485 13.638 10.2L13.638 7.79998Z" fill="#2A2620"/>
<path fill-rule="evenodd" clip-rule="evenodd" d="M17.388 7.34998C17.6365 7.34998 17.838 7.55145 17.838 7.79998L17.838 10.2C17.838 10.4485 17.6365 10.65 17.388 10.65C17.1395 10.65 16.938 10.4485 16.938 10.2L16.938 7.79998C16.938 7.55145 17.1395 7.34998 17.388 7.34998Z" fill="white"/>
<path fill-rule="evenodd" clip-rule="evenodd" d="M17.388 6.34998C18.1888 6.34998 18.838 6.99916 18.838 7.79998L18.838 10.2C18.838 11.0008 18.1888 11.65 17.388 11.65C16.5872 11.65 15.938 11.0008 15.938 10.2L15.938 7.79998C15.938 6.99916 16.5872 6.34998 17.388 6.34998ZM17.838 7.79998C17.838 7.55145 17.6365 7.34998 17.388 7.34998C17.1395 7.34998 16.938 7.55145 16.938 7.79998L16.938 10.2C16.938 10.4485 17.1395 10.65 17.388 10.65C17.6365 10.65 17.838 10.4485 17.838 10.2L17.838 7.79998Z" fill="#2A2620"/>
<path d="M5.988 10.6C5.988 10.0477 6.43571 9.59998 6.988 9.59998H19.388C19.9403 9.59998 20.388 10.0477 20.388 10.6V17C20.388 17.5523 19.9403 18 19.388 18H6.988C6.43571 18 5.988 17.5523 5.988 17V10.6Z" fill="white"/>
<path fill-rule="evenodd" clip-rule="evenodd" d="M19.388 10.6H6.988V17L19.388 17L19.388 10.6ZM6.988 9.59998C6.43571 9.59998 5.988 10.0477 5.988 10.6V17C5.988 17.5523 6.43571 18 6.988 18H19.388C19.9403 18 20.388 17.5523 20.388 17V10.6C20.388 10.0477 19.9403 9.59998 19.388 9.59998H6.988Z" fill="#2A2620"/>
<path d="M9.588 5.69999C9.588 6.19704 9.31937 6.59999 8.988 6.59999C8.65663 6.59999 8.388 6.19704 8.388 5.69999C8.388 5.20293 8.988 4.79999 8.988 4.79999C8.988 4.79999 9.588 5.20293 9.588 5.69999Z" fill="white"/>
<path fill-rule="evenodd" clip-rule="evenodd" d="M9.54552 3.96981L8.988 4.79998L8.43048 3.96981L8.988 3.5954L9.54552 3.96981ZM8.988 4.79998C8.988 4.79998 9.588 5.20292 9.588 5.69998C9.588 6.19703 9.31937 6.59998 8.988 6.59998C8.65663 6.59998 8.388 6.19703 8.388 5.69998C8.388 5.20292 8.988 4.79998 8.988 4.79998ZM10.2443 6.89107C10.0165 7.23272 9.59207 7.59998 8.988 7.59998C8.38393 7.59998 7.95945 7.23272 7.73169 6.89107C7.49926 6.54243 7.388 6.11839 7.388 5.69998C7.388 5.06623 7.75295 4.60273 7.95243 4.38613C8.06863 4.25997 8.18172 4.16093 8.265 4.0935C8.3074 4.05917 8.34407 4.03143 8.37221 4.01086C8.38634 4.00054 8.39846 3.99192 8.40825 3.98508L8.42119 3.97612L8.4263 3.97263L8.42851 3.97114L8.43048 3.96981C8.43072 3.96965 8.43048 3.96981 8.988 4.79998C9.54552 3.96981 9.54528 3.96965 9.54552 3.96981L9.54647 3.97045L9.54749 3.97114L9.5497 3.97263L9.55481 3.97612L9.56775 3.98508C9.57754 3.99192 9.58966 4.00054 9.60379 4.01086C9.63193 4.03143 9.6686 4.05917 9.71101 4.0935C9.79428 4.16093 9.90737 4.25997 10.0236 4.38613C10.2231 4.60273 10.588 5.06623 10.588 5.69998C10.588 6.11839 10.4767 6.54243 10.2443 6.89107Z" fill="#2A2620"/>
<path d="M13.788 5.69999C13.788 6.19704 13.5194 6.59999 13.188 6.59999C12.8566 6.59999 12.588 6.19704 12.588 5.69999C12.588 5.20293 13.188 4.79999 13.188 4.79999C13.188 4.79999 13.788 5.20293 13.788 5.69999Z" fill="white"/>
<path fill-rule="evenodd" clip-rule="evenodd" d="M13.7455 3.96981L13.188 4.79998L12.6305 3.96981L13.188 3.5954L13.7455 3.96981ZM13.188 4.79998C13.188 4.79998 13.788 5.20292 13.788 5.69998C13.788 6.19703 13.5194 6.59998 13.188 6.59998C12.8566 6.59998 12.588 6.19703 12.588 5.69998C12.588 5.20292 13.188 4.79998 13.188 4.79998ZM14.4443 6.89107C14.2165 7.23272 13.7921 7.59998 13.188 7.59998C12.5839 7.59998 12.1595 7.23272 11.9317 6.89107C11.6993 6.54243 11.588 6.11839 11.588 5.69998C11.588 5.06623 11.9529 4.60273 12.1524 4.38613C12.2686 4.25997 12.3817 4.16093 12.465 4.0935C12.5074 4.05917 12.5441 4.03143 12.5722 4.01086C12.5863 4.00054 12.5985 3.99192 12.6082 3.98508L12.6212 3.97612L12.6263 3.97263L12.6285 3.97114L12.6305 3.96981C12.6307 3.96965 12.6305 3.96981 13.188 4.79998C13.7455 3.96981 13.7453 3.96965 13.7455 3.96981L13.7465 3.97045L13.7475 3.97114L13.7497 3.97263L13.7548 3.97612L13.7678 3.98508C13.7775 3.99192 13.7897 4.00054 13.8038 4.01086C13.8319 4.03143 13.8686 4.05917 13.911 4.0935C13.9943 4.16093 14.1074 4.25997 14.2236 4.38613C14.4231 4.60273 14.788 5.06623 14.788 5.69998C14.788 6.11839 14.6767 6.54243 14.4443 6.89107Z" fill="#2A2620"/>
<path d="M17.988 5.69999C17.988 6.19704 17.7194 6.59999 17.388 6.59999C17.0566 6.59999 16.788 6.19704 16.788 5.69999C16.788 5.20293 17.388 4.79999 17.388 4.79999C17.388 4.79999 17.988 5.20293 17.988 5.69999Z" fill="white"/>
<path fill-rule="evenodd" clip-rule="evenodd" d="M17.9455 3.96981L17.388 4.79998L16.8305 3.96981L17.388 3.5954L17.9455 3.96981ZM17.388 4.79998C17.388 4.79998 17.988 5.20292 17.988 5.69998C17.988 6.19703 17.7194 6.59998 17.388 6.59998C17.0566 6.59998 16.788 6.19703 16.788 5.69998C16.788 5.20292 17.388 4.79998 17.388 4.79998ZM18.6443 6.89107C18.4165 7.23272 17.9921 7.59998 17.388 7.59998C16.7839 7.59998 16.3595 7.23272 16.1317 6.89107C15.8993 6.54243 15.788 6.11839 15.788 5.69998C15.788 5.06623 16.1529 4.60273 16.3524 4.38613C16.4686 4.25997 16.5817 4.16093 16.665 4.0935C16.7074 4.05917 16.7441 4.03143 16.7722 4.01086C16.7863 4.00054 16.7985 3.99192 16.8082 3.98508L16.8212 3.97612L16.8263 3.97263L16.8285 3.97114L16.8305 3.96981C16.8307 3.96965 16.8305 3.96981 17.388 4.79998C17.9455 3.96981 17.9453 3.96965 17.9455 3.96981L17.9465 3.97045L17.9475 3.97114L17.9497 3.97263L17.9548 3.97612L17.9678 3.98508C17.9775 3.99192 17.9897 4.00054 18.0038 4.01086C18.0319 4.03143 18.0686 4.05917 18.111 4.0935C18.1943 4.16093 18.3074 4.25997 18.4236 4.38613C18.6231 4.60273 18.988 5.06623 18.988 5.69998C18.988 6.11839 18.8767 6.54243 18.6443 6.89107Z" fill="#2A2620"/>
<path fill-rule="evenodd" clip-rule="evenodd" d="M7.51383 13.3C7.36565 13.3 7.08751 13.1857 6.70127 12.6185L5.87473 13.1814C6.30571 13.8143 6.84479 14.3 7.51383 14.3C8.18286 14.3 8.72195 13.8143 9.15292 13.1814C9.53916 12.6143 9.8173 12.5 9.96547 12.5C10.1137 12.5 10.3918 12.6143 10.778 13.1814C11.209 13.8143 11.7481 14.3 12.4171 14.3C13.0862 14.3 13.6252 13.8143 14.0562 13.1814C14.4425 12.6143 14.7206 12.5 14.8688 12.5C15.0169 12.5 15.2951 12.6143 15.6813 13.1814C16.1123 13.8143 16.6514 14.3 17.3204 14.3C17.9895 14.3 18.5285 13.8143 18.9595 13.1814C19.1944 12.8365 19.3974 12.6496 19.5564 12.563C19.6949 12.4875 19.8001 12.4854 19.911 12.5274L20.265 11.5921C19.862 11.4396 19.4533 11.4803 19.0779 11.6849C18.7229 11.8784 18.412 12.2088 18.133 12.6185C17.7467 13.1857 17.4686 13.3 17.3204 13.3C17.1722 13.3 16.8941 13.1857 16.5079 12.6185C16.0769 11.9857 15.5378 11.5 14.8688 11.5C14.1997 11.5 13.6607 11.9857 13.2297 12.6185C12.8434 13.1857 12.5653 13.3 12.4171 13.3C12.2689 13.3 11.9908 13.1857 11.6046 12.6185C11.1736 11.9857 10.6345 11.5 9.96547 11.5C9.29644 11.5 8.75735 11.9857 8.32638 12.6185C7.94014 13.1857 7.662 13.3 7.51383 13.3Z" fill="#2A2620"/>
</svg>
