<svg width="24" height="24" viewBox="0 0 24 24" fill="none" xmlns="http://www.w3.org/2000/svg">
<path d="M0 12C0 5.37258 5.37258 0 12 0V0C18.6274 0 24 5.37258 24 12V12C24 18.6274 18.6274 24 12 24V24C5.37258 24 0 18.6274 0 12V12Z" fill="#E5DED6"/>
<path d="M4.31238 17.3203C4.31238 17.9735 4.8419 18.503 5.49509 18.503H8.04545C8.30605 18.503 8.55636 18.4013 8.74307 18.2195L19.3853 7.85734C19.5786 7.6691 19.6877 7.41071 19.6877 7.14087V6.67588C19.6877 6.02268 19.1581 5.49316 18.505 5.49316H6.57635C6.26267 5.49316 5.96184 5.61777 5.74004 5.83957L4.65879 6.92083C4.43699 7.14263 4.31238 7.44346 4.31238 7.75713V17.3203Z" fill="#2A2620"/>
<path d="M8.08548 8.89347C8.08548 8.44619 8.44808 8.08359 8.89536 8.08359C9.34264 8.08359 9.70523 8.44619 9.70523 8.89347C9.70523 9.34075 9.34264 9.70335 8.89536 9.70335C8.44808 9.70335 8.08548 9.34075 8.08548 8.89347Z" fill="white"/>
<path fill-rule="evenodd" clip-rule="evenodd" d="M6.08643 7.08453C6.08643 6.53225 6.53414 6.08453 7.08643 6.08453H18.0963C18.6486 6.08453 19.0963 6.53225 19.0963 7.08453V7.24609C19.0963 7.25961 19.0908 7.27256 19.0811 7.28198L15.4974 10.7571L14.7993 9.7358C14.5996 9.44364 14.1917 9.38689 13.9199 9.61345L10.7973 12.2156L9.5097 11.3572C9.19757 11.1491 8.77317 11.2752 8.6254 11.6201L7.35183 14.5917C7.09731 15.1856 7.53294 15.8462 8.17906 15.8462L10.2492 15.8462L9.35344 16.7149C9.34411 16.7239 9.33162 16.729 9.31863 16.729H7.08643C6.53414 16.729 6.08643 16.2812 6.08643 15.729V7.08453ZM8.89536 7.63359C8.19955 7.63359 7.63548 8.19766 7.63548 8.89347C7.63548 9.58928 8.19955 10.1533 8.89536 10.1533C9.59117 10.1533 10.1552 9.58928 10.1552 8.89347C10.1552 8.19766 9.59117 7.63359 8.89536 7.63359Z" fill="white"/>
<path d="M14.304 10.0744L15.0603 11.1809L10.868 15.2462H8.17906C7.96369 15.2462 7.81848 15.026 7.90332 14.8281L9.17688 11.8564L10.4645 12.7148C10.6856 12.8622 10.9773 12.8466 11.1814 12.6765L14.304 10.0744Z" fill="white"/>
<path d="M11.8557 17.4847C11.5407 17.7997 11.7638 18.3383 12.2092 18.3383H14.9378H17.9088C18.1286 18.3383 18.3393 18.2488 18.4947 18.0895L19.2522 17.3131C19.4075 17.1539 19.4948 16.9378 19.4948 16.7126V13.6673V11.0527C19.4948 10.6072 18.9563 10.3842 18.6413 10.6991L11.8557 17.4847Z" fill="#2A2620"/>
<path d="M18.9953 11.2153C18.9953 11.1707 18.9414 11.1484 18.9099 11.1799L17.0033 13.0865L17.879 14.838C18.1782 15.4364 17.7431 16.1405 17.074 16.1405H13.9493L13.3355 16.7543C13.304 16.7858 13.3264 16.8396 13.3709 16.8396H17.9953C18.5475 16.8396 18.9953 16.3919 18.9953 15.8396V11.2153Z" fill="white"/>
<path d="M14.5493 15.5405H17.074C17.2971 15.5405 17.4421 15.3058 17.3424 15.1063L16.5638 13.526L14.5493 15.5405Z" fill="white"/>
</svg>
