<svg width="24" height="24" viewBox="0 0 24 24" fill="none" xmlns="http://www.w3.org/2000/svg">
<path d="M0 12C0 5.37258 5.37258 0 12 0C18.6274 0 24 5.37258 24 12C24 18.6274 18.6274 24 12 24C5.37258 24 0 18.6274 0 12Z" fill="#E5DED6"/>
<path d="M20.5776 14.3332L14.7961 3.65269C14.3142 2.76249 13.3792 2.44913 12.5018 2.52893C11.0581 2.66021 10.1466 3.46218 9.50073 4.44927L3.41699 15.5798C2.65857 16.9791 3.67166 18.6805 5.26323 18.6805H17.3285C18.2821 18.6805 18.8749 18.1637 19.7352 17.4055C20.6571 16.593 21.1894 15.4633 20.5776 14.3332Z" fill="#2A2620"/>
<path d="M11.8064 4.12817C12.2606 3.29035 13.4631 3.29068 13.9167 4.12875L19.6982 14.8092C20.1311 15.6088 19.5521 16.5805 18.6429 16.5805H11.8821H10.0539H8.2258H7.07241C6.16295 16.5805 5.58404 15.6082 6.01742 14.8087L11.8064 4.12817Z" fill="white"/>
<path fill-rule="evenodd" clip-rule="evenodd" d="M13.3571 6.48047V11.6805H12.3571V6.48047H13.3571Z" fill="#2A2620"/>
<path d="M14.0571 13.8805C14.0571 14.5432 13.5198 15.0805 12.8571 15.0805C12.1944 15.0805 11.6571 14.5432 11.6571 13.8805C11.6571 13.2177 12.1944 12.6805 12.8571 12.6805C13.5198 12.6805 14.0571 13.2177 14.0571 13.8805Z" fill="#2A2620"/>
</svg>
