<svg width="24" height="24" viewBox="0 0 24 24" fill="none" xmlns="http://www.w3.org/2000/svg">
<path d="M0 12C0 5.37258 5.37258 0 12 0C18.6274 0 24 5.37258 24 12C24 18.6274 18.6274 24 12 24C5.37258 24 0 18.6274 0 12Z" fill="#E5DED6"/>
<path d="M9.8945 3.58614C10.5284 2.99564 11.2573 2.40002 12.2667 2.40002C13.6413 2.40002 14.7556 3.51434 14.7556 4.88891V5.51123H17.2444C17.9317 5.51123 18.4889 6.06839 18.4889 6.75567V9.24447H19.1112C20.4857 9.24447 21.6001 10.3588 21.6001 11.7334C21.6001 12.7427 21.0021 13.4979 20.4139 14.0861C19.8299 14.6702 19.2148 15.1882 18.4889 15.3838V16.8364C18.4889 17.1547 18.3624 17.4599 18.1374 17.6849L16.9737 18.8486C16.7486 19.0737 16.4434 19.2001 16.1252 19.2001H6.04443C5.35714 19.2001 4.79999 18.643 4.79999 17.9557V7.87495C4.79999 7.55669 4.92642 7.25147 5.15146 7.02642L6.31518 5.8627C6.54023 5.63766 6.84545 5.51123 7.16371 5.51123H8.61241C8.80149 4.77156 9.30809 4.13238 9.8945 3.58614Z" fill="#2A2620"/>
<path d="M9.7777 6.51109C10.33 6.51109 10.7777 6.06338 10.7777 5.51109V4.80003C10.7777 4.02683 11.4045 3.40002 12.1777 3.40002H12.3555C13.1287 3.40002 13.7555 4.02683 13.7555 4.80003V5.51109C13.7555 6.06338 14.2032 6.51109 14.7555 6.51109H17.2888C17.3992 6.51109 17.4888 6.60063 17.4888 6.71109V9.24449C17.4888 9.79677 17.9365 10.2445 18.4888 10.2445H19.1999C19.9731 10.2445 20.5999 10.8713 20.5999 11.6445V11.8223C20.5999 12.5955 19.9731 13.2223 19.1999 13.2223H18.4888C17.9365 13.2223 17.4888 13.67 17.4888 14.2223V16.7556C17.4888 16.866 17.3993 16.9556 17.2888 16.9556H7.24437C7.13392 16.9556 7.04437 16.866 7.04437 16.7556V6.71109C7.04437 6.60064 7.13391 6.51109 7.24437 6.51109H9.7777Z" fill="white"/>
<path d="M13.0778 10.9224V8.43347H12.0778V10.9224H9.58881V11.9224H12.0778V14.4112H13.0778V11.9224H15.5666V10.9224H13.0778Z" fill="#2A2620"/>
</svg>
