<svg width="24" height="24" viewBox="0 0 24 24" fill="none" xmlns="http://www.w3.org/2000/svg">
<path d="M0 12C0 5.37258 5.37258 0 12 0C18.6274 0 24 5.37258 24 12C24 18.6274 18.6274 24 12 24C5.37258 24 0 18.6274 0 12Z" fill="#E5DED6"/>
<path d="M3.6284 6.54376C3.04178 7.16629 2.50732 7.6184 2.50732 8.43066C2.50732 9.27316 3.08614 9.98047 3.86781 10.1766V17.1213C3.86781 17.4526 4.13644 17.7213 4.46781 17.7213H18.3322C18.6636 17.7213 19.0573 17.393 19.4393 17.011C19.8214 16.6289 20.1322 16.3969 20.1322 15.9213V13.3063C20.1647 13.2349 20.1926 13.1611 20.2156 13.0851C20.9547 12.8611 21.4927 12.1745 21.4927 11.3622C21.4927 10.3681 20.6868 9.56222 19.6927 9.56222C19.273 9.56222 18.8868 9.70591 18.5806 9.94678L17.5365 9.14914C17.6526 8.91111 17.7178 8.64367 17.7178 8.36101C17.7178 7.3669 16.9119 6.56101 15.9178 6.56101C15.1055 6.56101 14.5426 7.11816 13.969 7.66876C13.4626 8.15492 13.0322 8.61049 12.935 9.31121L11.9147 9.69433C11.6247 9.08915 11.0064 8.67123 10.2905 8.67123C9.75221 8.67123 9.2691 8.90751 8.93925 9.28202L7.17373 7.91242C7.25985 7.70214 7.30732 7.47195 7.30732 7.23066C7.30732 6.23655 6.50144 5.43066 5.50732 5.43066C4.69506 5.43066 4.21501 5.92123 3.6284 6.54376Z" fill="#2A2620"/>
<path fill-rule="evenodd" clip-rule="evenodd" d="M5.50703 8.03066C5.0652 8.03066 4.70703 7.67249 4.70703 7.23066C4.70703 6.78884 5.0652 6.43066 5.50703 6.43066C5.94886 6.43066 6.30703 6.78884 6.30703 7.23066C6.30703 7.67249 5.94886 8.03066 5.50703 8.03066ZM5.50703 9.03066C4.51292 9.03066 3.70703 8.22478 3.70703 7.23066C3.70703 6.23655 4.51321 5.43066 5.50732 5.43066C6.50144 5.43066 7.30732 6.23655 7.30732 7.23066C7.30732 8.22478 6.50114 9.03066 5.50703 9.03066Z" fill="#2A2620"/>
<path d="M5.50703 8.03066C5.0652 8.03066 4.70703 7.67249 4.70703 7.23066C4.70703 6.78884 5.0652 6.43066 5.50703 6.43066C5.94886 6.43066 6.30703 6.78884 6.30703 7.23066C6.30703 7.67249 5.94886 8.03066 5.50703 8.03066Z" fill="white"/>
<path d="M9.87259 11.1537C9.64324 11.013 9.49023 10.76 9.49023 10.4712C9.49023 10.0294 9.84841 9.6712 10.2902 9.6712C10.7321 9.6712 11.0902 10.0294 11.0902 10.4712C11.0902 10.8142 10.8743 11.1069 10.571 11.2206C10.6933 11.2051 10.8149 11.1754 10.933 11.131L15.9952 9.23015L18.897 11.447C18.8941 11.4191 18.8926 11.3908 18.8926 11.3622C18.8926 10.9204 19.2507 10.5622 19.6926 10.5622C20.1344 10.5622 20.4926 10.9204 20.4926 11.3622C20.4926 11.804 20.1344 12.1622 19.6926 12.1622C19.4743 12.1622 19.2764 12.0748 19.132 11.933V15.5212H6.06763V8.32007L9.38988 10.8973C9.53708 11.0115 9.70062 11.0974 9.87259 11.1537Z" fill="white"/>
<path d="M15.1174 8.36097C15.1174 8.8028 15.4756 9.16097 15.9174 9.16097C16.3593 9.16097 16.7174 8.8028 16.7174 8.36097C16.7174 7.91915 16.3593 7.56097 15.9174 7.56097C15.4756 7.56097 15.1174 7.91915 15.1174 8.36097Z" fill="white"/>
<path fill-rule="evenodd" clip-rule="evenodd" d="M5.50703 8.03066C5.0652 8.03066 4.70703 7.67249 4.70703 7.23066C4.70703 6.78884 5.0652 6.43066 5.50703 6.43066C5.94886 6.43066 6.30703 6.78884 6.30703 7.23066C6.30703 7.67249 5.94886 8.03066 5.50703 8.03066ZM5.50703 9.03066C4.51292 9.03066 3.70703 8.22478 3.70703 7.23066C3.70703 6.23655 4.51292 5.43066 5.50703 5.43066C6.50114 5.43066 7.30703 6.23655 7.30703 7.23066C7.30703 8.22478 6.50114 9.03066 5.50703 9.03066Z" fill="#2A2620"/>
<path fill-rule="evenodd" clip-rule="evenodd" d="M10.2902 11.2712C9.84841 11.2712 9.49023 10.913 9.49023 10.4712C9.49023 10.0294 9.84841 9.6712 10.2902 9.6712C10.7321 9.6712 11.0902 10.0294 11.0902 10.4712C11.0902 10.913 10.7321 11.2712 10.2902 11.2712ZM10.2902 12.2712C9.29612 12.2712 8.49023 11.4653 8.49023 10.4712C8.49023 9.47709 9.29612 8.6712 10.2902 8.6712C11.2843 8.6712 12.0902 9.47709 12.0902 10.4712C12.0902 11.4653 11.2843 12.2712 10.2902 12.2712Z" fill="#2A2620"/>
<path fill-rule="evenodd" clip-rule="evenodd" d="M15.9174 9.16097C15.4756 9.16097 15.1174 8.8028 15.1174 8.36097C15.1174 7.91915 15.4756 7.56097 15.9174 7.56097C16.3593 7.56097 16.7174 7.91915 16.7174 8.36097C16.7174 8.8028 16.3593 9.16097 15.9174 9.16097ZM15.9174 10.161C14.9233 10.161 14.1174 9.35509 14.1174 8.36097C14.1174 7.36686 14.9233 6.56097 15.9174 6.56097C16.9115 6.56097 17.7174 7.36686 17.7174 8.36097C17.7174 9.35509 16.9115 10.161 15.9174 10.161Z" fill="#2A2620"/>
<path fill-rule="evenodd" clip-rule="evenodd" d="M19.6926 12.1622C19.2508 12.1622 18.8926 11.804 18.8926 11.3622C18.8926 10.9204 19.2508 10.5622 19.6926 10.5622C20.1344 10.5622 20.4926 10.9204 20.4926 11.3622C20.4926 11.804 20.1344 12.1622 19.6926 12.1622ZM19.6926 13.1622C18.6985 13.1622 17.8926 12.3563 17.8926 11.3622C17.8926 10.3681 18.6985 9.56219 19.6926 9.56219C20.6867 9.56219 21.4926 10.3681 21.4926 11.3622C21.4926 12.3563 20.6867 13.1622 19.6926 13.1622Z" fill="#2A2620"/>
</svg>
