<svg width="24" height="24" viewBox="0 0 24 24" fill="none" xmlns="http://www.w3.org/2000/svg">
<path d="M0 12C0 5.37258 5.37258 0 12 0V0C18.6274 0 24 5.37258 24 12V12C24 18.6274 18.6274 24 12 24V24C5.37258 24 0 18.6274 0 12V12Z" fill="#E5DED6"/>
<path fill-rule="evenodd" clip-rule="evenodd" d="M20.4001 11.4C20.4001 13.8596 19.4172 15.8171 17.7001 17.4C16.1172 19.1171 13.8597 20.4 11.4001 20.4C7.09228 20.4 3.6001 16.9078 3.6001 12.6C3.6001 10.1404 4.5001 8.69998 6.0001 6.89998C7.77076 4.77518 10.1405 3.59998 12.6001 3.59998C16.9079 3.59998 20.4001 7.09215 20.4001 11.4Z" fill="#2A2620"/>
<path fill-rule="evenodd" clip-rule="evenodd" d="M12.6 18.2C16.3556 18.2 19.4 15.1555 19.4 11.4C19.4 7.64444 16.3556 4.59998 12.6 4.59998C8.84451 4.59998 5.80005 7.64444 5.80005 11.4C5.80005 15.1555 8.84451 18.2 12.6 18.2ZM9.59995 10.8C10.097 10.8 10.5 10.3971 10.5 9.9C10.5 9.40294 10.097 9 9.59995 9C9.10289 9 8.69995 9.40294 8.69995 9.9C8.69995 10.3971 9.10289 10.8 9.59995 10.8ZM16.4999 9.9C16.4999 10.3971 16.097 10.8 15.5999 10.8C15.1029 10.8 14.6999 10.3971 14.6999 9.9C14.6999 9.40294 15.1029 9 15.5999 9C16.097 9 16.4999 9.40294 16.4999 9.9ZM9 13.3C8.72386 13.3 8.5 13.5239 8.5 13.8C8.5 14.0762 8.72386 14.3 9 14.3H16.2C16.4761 14.3 16.7 14.0762 16.7 13.8C16.7 13.5239 16.4761 13.3 16.2 13.3H9Z" fill="white"/>
</svg>
