<svg width="24" height="24" viewBox="0 0 24 24" fill="none" xmlns="http://www.w3.org/2000/svg">
<path d="M0 12C0 5.37258 5.37258 0 12 0V0C18.6274 0 24 5.37258 24 12V12C24 18.6274 18.6274 24 12 24V24C5.37258 24 0 18.6274 0 12V12Z" fill="#E5DED6"/>
<path fill-rule="evenodd" clip-rule="evenodd" d="M19.1957 11.878C19.3694 11.6763 19.4232 11.3977 19.3371 11.1458L17.3042 5.20112C17.2212 4.95858 17.0202 4.7752 16.7711 4.71487C16.5219 4.65454 16.2592 4.72562 16.0745 4.90334C15.2691 5.67828 14.5231 5.97114 13.8083 6.06564C13.1026 6.15894 12.4053 6.06615 11.6001 5.95901L11.429 5.9363C10.5902 5.82563 9.62632 5.71292 8.64275 5.95395C8.05882 6.09705 7.49249 6.35723 6.94233 6.77425L6.78344 6.31583C6.57996 5.72878 5.9391 5.41782 5.35205 5.6213C4.76499 5.82478 4.45404 6.46564 4.65752 7.05269L9.5457 21.1556C9.74918 21.7427 10.39 22.0536 10.9771 21.8502C11.5641 21.6467 11.8751 21.0058 11.6716 20.4188L9.55236 14.3045C10.0436 13.7199 10.5629 13.4114 11.086 13.2443C11.8155 13.0112 12.6244 13.0283 13.5455 13.1118C13.7151 13.1271 13.891 13.1452 14.0713 13.1637C14.8149 13.2402 15.6336 13.3243 16.3937 13.2577C17.3935 13.1701 18.3825 12.8219 19.1957 11.878Z" fill="#2A2620"/>
<path d="M4.77567 6.07554L5.48619 4.72155L6.12123 5.91189L4.77567 6.07554Z" fill="#2A2620"/>
<path d="M12.5959 21.001L11.0855 21.8009L11.3582 20.4092L12.5959 21.001Z" fill="#2A2620"/>
<path d="M19.4107 12.0681L17.9986 12.8233L17.9003 11.9709L19.4107 12.0681Z" fill="#2A2620"/>
<path d="M17.7945 4.24379L19.8274 10.1885C17.206 13.2314 12.474 8.68389 9.63777 13.3842L7.53181 7.24333C10.8581 3.00024 14.1155 7.78364 17.7945 4.24379Z" fill="white"/>
<path fill-rule="evenodd" clip-rule="evenodd" d="M21.0102 9.78402C21.1537 10.2038 21.064 10.6682 20.7745 11.0043C19.8561 12.0704 18.7326 12.4599 17.6373 12.5558C16.8243 12.627 15.9426 12.536 15.1975 12.4591C15.0235 12.4411 14.8569 12.4239 14.7004 12.4097C13.7869 12.327 13.065 12.3203 12.4382 12.5206C11.8699 12.7021 11.2759 13.0889 10.708 14.03C10.4571 14.4458 9.98807 14.6786 9.50517 14.6271C9.02227 14.5756 8.61291 14.249 8.45537 13.7897L6.3494 7.64884C6.21204 7.24828 6.2868 6.80541 6.54805 6.47215C7.52473 5.22628 8.58077 4.54842 9.72374 4.26832C10.8093 4.0023 11.8598 4.13048 12.6944 4.2406C12.7451 4.24729 12.7951 4.25392 12.8444 4.26046C13.6709 4.37009 14.3053 4.45424 14.9428 4.36995C15.551 4.28955 16.1987 4.04463 16.9279 3.34304C17.2357 3.04684 17.6735 2.92837 18.0887 3.02892C18.5039 3.12946 18.8391 3.4351 18.9773 3.83933L21.0102 9.78402ZM17.7945 4.2438C17.442 4.58296 17.0934 4.84571 16.7482 5.04731C15.3599 5.85818 14.0272 5.6799 12.7221 5.50531C10.9648 5.27025 9.25759 5.04187 7.5318 7.24334L9.63777 13.3842C9.92668 12.9054 10.2353 12.5226 10.5593 12.2179C11.9883 10.8742 13.7175 11.0508 15.3837 11.2209C17.0487 11.3909 18.6507 11.5544 19.8274 10.1885L17.7945 4.2438Z" fill="#2A2620"/>
<path fill-rule="evenodd" clip-rule="evenodd" d="M6.79767 5.12995C6.99335 5.06213 7.20697 5.16578 7.2748 5.36146L12.163 19.4644C12.2308 19.6601 12.1272 19.8737 11.9315 19.9415C11.7358 20.0093 11.5222 19.9057 11.4543 19.71L6.56616 5.60708C6.49833 5.4114 6.60198 5.19778 6.79767 5.12995Z" fill="white"/>
<path fill-rule="evenodd" clip-rule="evenodd" d="M6.3883 3.94886C7.23627 3.65495 8.16195 4.1041 8.45587 4.95207L13.3441 19.055C13.638 19.903 13.1888 20.8287 12.3408 21.1226C11.4929 21.4165 10.5672 20.9673 10.2733 20.1194L5.38509 6.01643C5.09118 5.16846 5.54033 4.24278 6.3883 3.94886ZM7.2748 5.36144C7.20697 5.16576 6.99336 5.0621 6.79767 5.12993C6.60199 5.19776 6.49833 5.41138 6.56616 5.60706L11.4543 19.71C11.5222 19.9057 11.7358 20.0093 11.9315 19.9415C12.1272 19.8737 12.2308 19.6601 12.163 19.4644L7.2748 5.36144Z" fill="#2A2620"/>
<path fill-rule="evenodd" clip-rule="evenodd" d="M6.7158 4.89371C7.04194 4.78067 7.39797 4.95342 7.51102 5.27956L12.3992 19.3825C12.5122 19.7086 12.3395 20.0647 12.0133 20.1777C11.6872 20.2908 11.3312 20.118 11.2181 19.7919L6.32995 5.68893C6.2169 5.36278 6.38966 5.00675 6.7158 4.89371Z" fill="white"/>
</svg>
