<svg width="24" height="24" viewBox="0 0 24 24" fill="none" xmlns="http://www.w3.org/2000/svg">
<path d="M0 12C0 5.37258 5.37258 0 12 0V0C18.6274 0 24 5.37258 24 12V12C24 18.6274 18.6274 24 12 24V24C5.37258 24 0 18.6274 0 12V12Z" fill="#E5DED6"/>
<path d="M6.6 6H15.6V18H6.6V6Z" fill="#2A2620"/>
<path d="M6.6 6.6C6.6 6.26863 6.86863 6 7.2 6H15C15.3314 6 15.6 6.26863 15.6 6.6V17.4C15.6 17.7314 15.3314 18 15 18H7.2C6.86863 18 6.6 17.7314 6.6 17.4V6.6Z" fill="#2A2620"/>
<path fill-rule="evenodd" clip-rule="evenodd" d="M7.2 5.25H15C15.7456 5.25 16.35 5.85442 16.35 6.6V17.4C16.35 18.1456 15.7456 18.75 15 18.75H7.2C6.45441 18.75 5.85 18.1456 5.85 17.4V6.6C5.85 5.85442 6.45441 5.25 7.2 5.25ZM7.2 6C6.86863 6 6.6 6.26863 6.6 6.6V17.4C6.6 17.7314 6.86863 18 7.2 18H15C15.3314 18 15.6 17.7314 15.6 17.4V6.6C15.6 6.26863 15.3314 6 15 6H7.2Z" fill="#2A2620"/>
<path d="M17.099 17.2025L15.887 18.4146L15.887 17.1965L17.099 17.2025Z" fill="#2A2620"/>
<path d="M16.2 7.20001H16.8C17.1314 7.20001 17.4 7.46864 17.4 7.80001V9.00001C17.4 9.33138 17.1314 9.60001 16.8 9.60001H16.2V7.20001Z" fill="#2A2620"/>
<path fill-rule="evenodd" clip-rule="evenodd" d="M15.45 6.45001H16.8C17.5456 6.45001 18.15 7.05443 18.15 7.80001V9.00001C18.15 9.7456 17.5456 10.35 16.8 10.35H15.45V6.45001ZM16.8 9.60001C16.8518 9.60001 16.9021 9.59345 16.95 9.58111C17.2088 9.5145 17.4 9.27959 17.4 9.00001V7.80001C17.4 7.52044 17.2088 7.28552 16.95 7.21891C16.9021 7.20658 16.8518 7.20001 16.8 7.20001H16.2V9.60001H16.8Z" fill="#2A2620"/>
<path d="M16.2 10.8H16.8C17.1314 10.8 17.4 11.0686 17.4 11.4V12.6C17.4 12.9314 17.1314 13.2 16.8 13.2H16.2V10.8Z" fill="#2A2620"/>
<path fill-rule="evenodd" clip-rule="evenodd" d="M15.45 10.05H16.8C17.5456 10.05 18.15 10.6544 18.15 11.4V12.6C18.15 13.3456 17.5456 13.95 16.8 13.95H15.45V10.05ZM16.8 13.2C16.8518 13.2 16.9021 13.1934 16.95 13.1811C17.2088 13.1145 17.4 12.8796 17.4 12.6V11.4C17.4 11.1204 17.2088 10.8855 16.95 10.8189C16.9021 10.8066 16.8518 10.8 16.8 10.8H16.2V13.2H16.8Z" fill="#2A2620"/>
<path d="M16.2 14.4H16.8C17.1314 14.4 17.4 14.6687 17.4 15V16.2C17.4 16.5314 17.1314 16.8 16.8 16.8H16.2V14.4Z" fill="#2A2620"/>
<path fill-rule="evenodd" clip-rule="evenodd" d="M15.45 13.65H16.8C17.5456 13.65 18.15 14.2544 18.15 15V16.2C18.15 16.9456 17.5456 17.55 16.8 17.55H15.45V13.65ZM16.8 16.8C16.8518 16.8 16.9021 16.7935 16.95 16.7811C17.2088 16.7145 17.4 16.4796 17.4 16.2V15C17.4 14.7204 17.2088 14.4855 16.95 14.4189C16.9021 14.4066 16.8518 14.4 16.8 14.4H16.2V16.8H16.8Z" fill="#2A2620"/>
<path d="M19.038 15.8641L17.826 17.0761L17.826 15.858L19.038 15.8641Z" fill="#2A2620"/>
<path d="M6.21705 5.67419L7.29076 4.49475L7.42906 5.68024L6.21705 5.67419Z" fill="#2A2620"/>
<path d="M7.8 4.79999H16.8V16.8H7.8V4.79999Z" fill="#2A2620"/>
<path d="M7.8 5.39999C7.8 5.06862 8.06863 4.79999 8.4 4.79999H16.2C16.5314 4.79999 16.8 5.06862 16.8 5.39999V16.2C16.8 16.5314 16.5314 16.8 16.2 16.8H8.4C8.06863 16.8 7.8 16.5314 7.8 16.2V5.39999Z" fill="#2A2620"/>
<path fill-rule="evenodd" clip-rule="evenodd" d="M8.4 4.04999H16.2C16.9456 4.04999 17.55 4.6544 17.55 5.39999V16.2C17.55 16.9456 16.9456 17.55 16.2 17.55H8.4C7.65441 17.55 7.05 16.9456 7.05 16.2V5.39999C7.05 4.6544 7.65441 4.04999 8.4 4.04999ZM8.4 4.79999C8.06863 4.79999 7.8 5.06862 7.8 5.39999V16.2C7.8 16.5314 8.06863 16.8 8.4 16.8H16.2C16.5314 16.8 16.8 16.5314 16.8 16.2V5.39999C16.8 5.06862 16.5314 4.79999 16.2 4.79999H8.4Z" fill="#2A2620"/>
<path d="M17.4 6H18C18.3314 6 18.6 6.26863 18.6 6.6V7.8C18.6 8.13137 18.3314 8.4 18 8.4H17.4V6Z" fill="#2A2620"/>
<path fill-rule="evenodd" clip-rule="evenodd" d="M16.65 5.25H18C18.7456 5.25 19.35 5.85442 19.35 6.6V7.8C19.35 8.54558 18.7456 9.15 18 9.15H16.65V5.25ZM18 8.4C18.0518 8.4 18.1021 8.39344 18.15 8.3811C18.4088 8.31449 18.6 8.07958 18.6 7.8V6.6C18.6 6.32042 18.4088 6.08551 18.15 6.0189C18.1021 6.00656 18.0518 6 18 6H17.4V8.4H18Z" fill="#2A2620"/>
<path d="M17.4 9.59998H18C18.3314 9.59998 18.6 9.8686 18.6 10.2V11.4C18.6 11.7313 18.3314 12 18 12H17.4V9.59998Z" fill="#2A2620"/>
<path fill-rule="evenodd" clip-rule="evenodd" d="M16.65 8.84998H18C18.7456 8.84998 19.35 9.45439 19.35 10.2V11.4C19.35 12.1456 18.7456 12.75 18 12.75H16.65V8.84998ZM18 12C18.0518 12 18.1021 11.9934 18.15 11.9811C18.4088 11.9145 18.6 11.6796 18.6 11.4V10.2C18.6 9.9204 18.4088 9.68548 18.15 9.61888C18.1021 9.60654 18.0518 9.59998 18 9.59998H17.4V12H18Z" fill="#2A2620"/>
<path d="M17.4 13.2H18C18.3314 13.2 18.6 13.4686 18.6 13.8V15C18.6 15.3314 18.3314 15.6 18 15.6H17.4V13.2Z" fill="#2A2620"/>
<path fill-rule="evenodd" clip-rule="evenodd" d="M16.65 12.45H18C18.7456 12.45 19.35 13.0544 19.35 13.8V15C19.35 15.7456 18.7456 16.35 18 16.35H16.65V12.45ZM18 15.6C18.0518 15.6 18.1021 15.5934 18.15 15.5811C18.4088 15.5145 18.6 15.2796 18.6 15V13.8C18.6 13.5204 18.4088 13.2855 18.15 13.2189C18.1021 13.2066 18.0518 13.2 18 13.2H17.4V15.6H18Z" fill="#2A2620"/>
<path d="M7.8 5.79999C7.8 5.2477 8.24771 4.79999 8.8 4.79999H15.8C16.3523 4.79999 16.8 5.2477 16.8 5.79999V15.8C16.8 16.3523 16.3523 16.8 15.8 16.8H8.8C8.24771 16.8 7.8 16.3523 7.8 15.8V5.79999Z" fill="white"/>
<path fill-rule="evenodd" clip-rule="evenodd" d="M8.8 3.79999H15.8C16.9046 3.79999 17.8 4.69542 17.8 5.79999V15.8C17.8 16.9046 16.9046 17.8 15.8 17.8H8.8C7.69543 17.8 6.8 16.9046 6.8 15.8V5.79999C6.8 4.69542 7.69543 3.79999 8.8 3.79999ZM8.8 4.79999C8.24771 4.79999 7.8 5.2477 7.8 5.79999V15.8C7.8 16.3523 8.24771 16.8 8.8 16.8H15.8C16.3523 16.8 16.8 16.3523 16.8 15.8V5.79999C16.8 5.2477 16.3523 4.79999 15.8 4.79999H8.8Z" fill="#2A2620"/>
<path d="M17.4 6H17.6C18.1523 6 18.6 6.44772 18.6 7V7.4C18.6 7.95229 18.1523 8.4 17.6 8.4H17.4V6Z" fill="white"/>
<path d="M17.4 9.59998H17.6C18.1523 9.59998 18.6 10.0477 18.6 10.6V11C18.6 11.5523 18.1523 12 17.6 12H17.4V9.59998Z" fill="white"/>
<path d="M17.4 13.2H17.6C18.1523 13.2 18.6 13.6477 18.6 14.2V14.6C18.6 15.1523 18.1523 15.6 17.6 15.6H17.4V13.2Z" fill="white"/>
<path d="M14.1 8.39998C14.1 9.39409 13.2941 10.2 12.3 10.2C11.3059 10.2 10.5 9.39409 10.5 8.39998C10.5 7.40586 11.3059 6.59998 12.3 6.59998C13.2941 6.59998 14.1 7.40586 14.1 8.39998Z" fill="#2A2620"/>
<path d="M9.3 13.8C9.3 12.1431 10.6431 10.8 12.3 10.8V10.8C13.9569 10.8 15.3 12.1431 15.3 13.8V16.8H9.3V13.8Z" fill="#2A2620"/>
</svg>
