<svg width="24" height="24" viewBox="0 0 24 24" fill="none" xmlns="http://www.w3.org/2000/svg">
<path d="M0 12C0 5.37258 5.37258 0 12 0V0C18.6274 0 24 5.37258 24 12V12C24 18.6274 18.6274 24 12 24V24C5.37258 24 0 18.6274 0 12V12Z" fill="#E5DED6"/>
<path fill-rule="evenodd" clip-rule="evenodd" d="M13.4048 3.28033L14.5884 4.74829L16.4065 4.25817C17.1304 4.06304 17.8494 4.5868 17.888 5.33734L17.9849 7.22244L19.7432 7.89738C20.4432 8.1661 20.7178 9.01357 20.309 9.64351L19.2823 11.2257L20.309 12.8079C20.6238 13.2929 20.5334 13.9068 20.1557 14.2863L20.1628 14.2869L17.9325 16.249L17.888 17.1141C17.8694 17.4757 17.6928 17.7848 17.4338 17.986L17.4352 17.9872C17.3893 18.0069 16.7011 18.6956 16.221 19.1878L16.2181 19.187C15.9459 19.4749 15.4726 19.5497 14.9915 19.4258L13.5934 18.9372L13.4048 19.1711C13.3828 19.1984 13.3599 19.2244 13.3361 19.2492L12.4053 20.4036C11.9341 20.9881 11.0453 20.9881 10.5741 20.4036L9.39052 18.9357L7.57239 19.4258C6.84852 19.6209 6.12948 19.0972 6.0909 18.3466L5.99398 16.4615L4.23575 15.7866C3.53571 15.5179 3.37744 14.7669 3.77195 14.2048L4.78641 12.6227L4.00674 11.5003C3.51222 10.8575 3.40912 10.4497 3.57076 10.1686L3.56935 10.1674L4.6322 8.40517L4.63623 8.40973C4.76526 8.18462 4.96964 7.99934 5.23525 7.89738L6.03135 7.59178L7.175 4.95238C7.391 4.41954 7.99348 4.09859 8.58547 4.25817L10.39 4.74829L11.5736 3.28033C12.0448 2.69587 12.9336 2.69586 13.4048 3.28033Z" fill="#2A2620"/>
<path d="M12.26 3.96932C12.3602 3.84535 12.5492 3.84535 12.6494 3.96932L14.0894 5.75068C14.1517 5.8277 14.2535 5.86078 14.3491 5.83507L16.5611 5.24031C16.7151 5.19892 16.868 5.31002 16.8762 5.46921L16.9941 7.75676C16.9992 7.85567 17.0621 7.94227 17.1546 7.97769L19.2938 8.79672C19.4426 8.85371 19.501 9.03346 19.4141 9.16708L18.1649 11.087C18.1109 11.1701 18.1109 11.2771 18.1649 11.3601L19.4141 13.2801C19.501 13.4137 19.4426 13.5935 19.2938 13.6505L17.1546 14.4695C17.0621 14.5049 16.9992 14.5915 16.9941 14.6904L16.8762 16.978C16.868 17.1372 16.7151 17.2483 16.5611 17.2069L14.3491 16.6121C14.2535 16.5864 14.1517 16.6195 14.0894 16.6965L12.6494 18.4779C12.5492 18.6018 12.3602 18.6018 12.26 18.4779L10.82 16.6965C10.7578 16.6195 10.6559 16.5864 10.5603 16.6121L8.34828 17.2069C8.19434 17.2483 8.04144 17.1372 8.03323 16.978L7.91532 14.6904C7.91023 14.5915 7.8473 14.5049 7.75481 14.4695L5.61566 13.6505C5.46679 13.5935 5.40839 13.4137 5.49532 13.2801L6.74452 11.3601C6.79853 11.2771 6.79853 11.1701 6.74452 11.087L5.49532 9.16708C5.40839 9.03346 5.46679 8.85371 5.61566 8.79672L7.75481 7.97769C7.8473 7.94227 7.91023 7.85567 7.91532 7.75676L8.03323 5.46921C8.04144 5.31002 8.19434 5.19892 8.34828 5.24031L10.5603 5.83507C10.6559 5.86078 10.7578 5.8277 10.82 5.75068L12.26 3.96932Z" fill="white"/>
<path fill-rule="evenodd" clip-rule="evenodd" d="M10.3802 10.7003C11.2094 10.7003 11.8817 10.028 11.8817 9.19878C11.8817 8.36952 11.2094 7.69727 10.3802 7.69727C9.55091 7.69727 8.87866 8.36952 8.87866 9.19878C8.87866 10.028 9.55091 10.7003 10.3802 10.7003ZM10.3802 9.69929C10.6566 9.69929 10.8807 9.4752 10.8807 9.19878C10.8807 8.92236 10.6566 8.69828 10.3802 8.69828C10.1038 8.69828 9.87967 8.92236 9.87967 9.19878C9.87967 9.4752 10.1038 9.69929 10.3802 9.69929Z" fill="#2A2620"/>
<path d="M8.97169 14.1478L15.3357 7.78382L16.0428 8.49093L9.6788 14.8549L8.97169 14.1478Z" fill="#2A2620"/>
<path fill-rule="evenodd" clip-rule="evenodd" d="M16.1287 13.4457C16.1287 14.275 15.4564 14.9472 14.6271 14.9472C13.7979 14.9472 13.1256 14.275 13.1256 13.4457C13.1256 12.6164 13.7979 11.9442 14.6271 11.9442C15.4564 11.9442 16.1287 12.6164 16.1287 13.4457ZM15.1277 13.4457C15.1277 13.7221 14.9036 13.9462 14.6271 13.9462C14.3507 13.9462 14.1266 13.7221 14.1266 13.4457C14.1266 13.1693 14.3507 12.9452 14.6271 12.9452C14.9036 12.9452 15.1277 13.1693 15.1277 13.4457Z" fill="#2A2620"/>
</svg>
