<svg width="24" height="24" viewBox="0 0 24 24" fill="none" xmlns="http://www.w3.org/2000/svg">
<path d="M0 12C0 5.37258 5.37258 0 12 0C18.6274 0 24 5.37258 24 12C24 18.6274 18.6274 24 12 24C5.37258 24 0 18.6274 0 12Z" fill="#E5DED6"/>
<path d="M5.39995 18.15C4.98574 18.15 4.64995 17.8142 4.64995 17.4V7.69708C4.64995 7.49817 4.72897 7.3074 4.86962 7.16675L5.96668 6.06969C6.10733 5.92904 6.29809 5.85002 6.49701 5.85002H18.6C19.0142 5.85002 19.35 6.18581 19.35 6.60002V16.303C19.35 16.5019 19.2709 16.6926 19.1303 16.8333L18.0332 17.9304C17.8926 18.071 17.7018 18.15 17.5029 18.15H5.39995Z" fill="#2A2620" stroke="#2A2620" stroke-width="0.9" stroke-linejoin="round"/>
<path d="M6.3999 16.2V7.08827L11.7659 12.4542C12.1954 12.8838 12.8919 12.8838 13.3215 12.4542L18.7999 6.97585V16.2C18.7999 16.3105 18.7104 16.4 18.5999 16.4H6.5999C6.48945 16.4 6.3999 16.3105 6.3999 16.2Z" fill="white"/>
<path d="M7.12587 6.40002H17.9615L12.6144 11.7471C12.5753 11.7862 12.512 11.7862 12.473 11.7471L7.12587 6.40002Z" fill="white"/>
</svg>
