<svg width="24" height="24" viewBox="0 0 24 24" fill="none" xmlns="http://www.w3.org/2000/svg">
<path d="M0 12C0 5.37258 5.37258 0 12 0C18.6274 0 24 5.37258 24 12C24 18.6274 18.6274 24 12 24C5.37258 24 0 18.6274 0 12Z" fill="#E5DED6"/>
<path d="M4.19995 17.4C4.19995 18.0628 4.73721 18.6 5.39995 18.6H17.5029C17.8212 18.6 18.1264 18.4736 18.3514 18.2486L19.4485 17.1515C19.6735 16.9265 19.8 16.6212 19.8 16.303V6.60002C19.8 5.93728 19.2627 5.40002 18.6 5.40002H6.49701C6.17875 5.40002 5.87352 5.52645 5.64848 5.7515L4.55142 6.84855C4.32638 7.0736 4.19995 7.37882 4.19995 7.69708V17.4Z" fill="#2A2620"/>
<path d="M6.3999 16.2V7.08827L11.7659 12.4542C12.1954 12.8838 12.8919 12.8838 13.3215 12.4542L18.7999 6.97585V16.2C18.7999 16.3105 18.7104 16.4 18.5999 16.4H6.5999C6.48945 16.4 6.3999 16.3105 6.3999 16.2Z" fill="white"/>
<path d="M7.12587 6.40002H17.9615L12.6144 11.7471C12.5753 11.7862 12.512 11.7862 12.473 11.7471L7.12587 6.40002Z" fill="white"/>
</svg>
