<svg width="24" height="24" viewBox="0 0 24 24" fill="none" xmlns="http://www.w3.org/2000/svg">
<path d="M0 12C0 5.37258 5.37258 0 12 0C18.6274 0 24 5.37258 24 12C24 18.6274 18.6274 24 12 24C5.37258 24 0 18.6274 0 12Z" fill="#E5DED6"/>
<path d="M12.6001 11.4C13.0972 11.4 13.5001 10.9971 13.5001 10.5C13.5001 10.003 13.0972 9.60001 12.6001 9.60001C12.103 9.60001 11.7001 10.003 11.7001 10.5C11.7001 10.9971 12.103 11.4 12.6001 11.4Z" fill="#2A2620"/>
<path d="M16.5001 10.5C16.5001 10.9971 16.0972 11.4 15.6001 11.4C15.103 11.4 14.7001 10.9971 14.7001 10.5C14.7001 10.003 15.103 9.60001 15.6001 9.60001C16.0972 9.60001 16.5001 10.003 16.5001 10.5Z" fill="#2A2620"/>
<path d="M9.6001 11.4C10.0972 11.4 10.5001 10.9971 10.5001 10.5C10.5001 10.003 10.0972 9.60001 9.6001 9.60001C9.10304 9.60001 8.7001 10.003 8.7001 10.5C8.7001 10.9971 9.10304 11.4 9.6001 11.4Z" fill="#2A2620"/>
<path fill-rule="evenodd" clip-rule="evenodd" d="M17.89 16.6793C17.6649 16.9043 17.3597 17.0308 17.0415 17.0308H11.7231L8.43299 20.0025C8.04712 20.351 7.43082 20.0772 7.43082 19.5572V17.0308H6.00005C5.33731 17.0308 4.80005 16.4935 4.80005 15.8308V7.55859C4.80005 7.24033 4.92648 6.9351 5.15152 6.71006L6.11012 5.75147C6.33516 5.52642 6.64038 5.39999 6.95864 5.39999H18C18.6628 5.39999 19.2 5.93725 19.2 6.59999V14.8722C19.2 15.1904 19.0736 15.4957 18.8486 15.7207L17.89 16.6793ZM9.40002 15.3692C9.40002 14.8169 8.95231 14.3692 8.40002 14.3692H7.10772C6.99726 14.3692 6.90771 14.2797 6.90771 14.1692V6.59999C6.90771 6.48954 6.99726 6.39999 7.10772 6.39999H18C18.1105 6.39999 18.2 6.48953 18.2 6.59999V14.1692C18.2 14.2797 18.1105 14.3692 18 14.3692H13.3846C13.1397 14.3692 12.9033 14.4591 12.7203 14.6218L9.40002 17.5731V15.3692Z" fill="#2A2620"/>
<path fill-rule="evenodd" clip-rule="evenodd" d="M8.40002 14.3692C8.95231 14.3692 9.40002 14.8169 9.40002 15.3692V17.5732L12.7203 14.6218C12.9033 14.4591 13.1397 14.3692 13.3846 14.3692H18C18.1105 14.3692 18.2 14.2797 18.2 14.1692V6.59999C18.2 6.48954 18.1105 6.39999 18 6.39999H7.10772C6.99726 6.39999 6.90771 6.48954 6.90771 6.59999V14.1692C6.90771 14.2797 6.99726 14.3692 7.10772 14.3692H8.40002ZM13.5001 10.5C13.5001 10.9971 13.0972 11.4 12.6001 11.4C12.103 11.4 11.7001 10.9971 11.7001 10.5C11.7001 10.003 12.103 9.60001 12.6001 9.60001C13.0972 9.60001 13.5001 10.003 13.5001 10.5ZM15.6001 11.4C16.0972 11.4 16.5001 10.9971 16.5001 10.5C16.5001 10.003 16.0972 9.60001 15.6001 9.60001C15.103 9.60001 14.7001 10.003 14.7001 10.5C14.7001 10.9971 15.103 11.4 15.6001 11.4ZM10.5001 10.5C10.5001 10.9971 10.0972 11.4 9.6001 11.4C9.10304 11.4 8.7001 10.9971 8.7001 10.5C8.7001 10.003 9.10304 9.60001 9.6001 9.60001C10.0972 9.60001 10.5001 10.003 10.5001 10.5Z" fill="white"/>
</svg>
