<svg width="24" height="24" viewBox="0 0 24 24" fill="none" xmlns="http://www.w3.org/2000/svg">
<path d="M0 12C0 5.37258 5.37258 0 12 0C18.6274 0 24 5.37258 24 12C24 18.6274 18.6274 24 12 24C5.37258 24 0 18.6274 0 12Z" fill="#E5DED6"/>
<path d="M14.2569 2.79581L14.7608 3.79615C14.6719 3.62039 14.488 3.51321 14.2912 3.52248C14.094 3.53176 13.9208 3.65613 13.849 3.83995L13.0978 5.76243C13.0461 5.89464 13.0531 6.04258 13.1169 6.16934L13.7325 7.39145C13.8474 7.61954 14.1157 7.72438 14.3548 7.6346L15.4651 7.21774C15.2977 7.28057 15.1766 7.42797 15.1475 7.60434C15.1184 7.7807 15.1856 7.95921 15.3239 8.07253C15.751 8.42262 16.1094 8.85319 16.3759 9.34074C16.4621 9.49833 16.6261 9.59761 16.8057 9.60082C16.9853 9.60404 17.1528 9.51069 17.2445 9.35628L16.6508 10.3556C16.5204 10.5751 16.5764 10.8577 16.7807 11.011L17.6542 11.666C17.5126 11.5598 17.3254 11.5364 17.162 11.6045C16.9985 11.6726 16.8833 11.822 16.859 11.9973C16.5686 14.0892 14.772 15.7 12.6 15.7C14.9749 15.7 16.9 13.7748 16.9 11.4C16.9 11.3933 16.9 11.3866 16.9 11.3799C16.8999 11.3678 16.8998 11.3558 16.8997 11.3438C16.8977 11.1887 16.8238 11.0433 16.6997 10.9502L16.5873 10.8659C16.4755 10.7821 16.3338 10.7488 16.1964 10.7742L16.2044 10.7728C16.3462 10.7466 16.4697 10.6604 16.5434 10.5365L16.6202 10.4072C16.6955 10.2805 16.711 10.1269 16.6626 9.98767C16.3223 9.00876 15.6391 8.19183 14.7573 7.67954C14.6275 7.60418 14.4708 7.59105 14.3304 7.64378L14.1326 7.71804C13.999 7.7682 13.8932 7.87307 13.8418 8.00623L13.8489 7.98781C13.8997 7.8561 13.8924 7.70905 13.8289 7.58298L13.7577 7.44149C13.6877 7.30254 13.557 7.20409 13.4041 7.17515C13.1433 7.12577 12.8744 7.10001 12.6 7.10001C12.6528 7.10001 12.7053 7.10095 12.7576 7.10283C12.9342 7.10918 13.1011 7.0218 13.1965 6.873C13.2919 6.72419 13.3016 6.53608 13.2221 6.37823L13.0166 5.97016L13.4761 4.79416C13.5343 4.64517 13.5177 4.47733 13.4315 4.34261C13.3452 4.20789 13.1998 4.12257 13.0401 4.11307C12.9407 4.10715 12.8408 4.10322 12.7404 4.10133C12.9426 4.10513 13.1427 4.11715 13.3404 4.13704C13.5636 4.1595 13.7745 4.03051 13.8561 3.82153L14.2569 2.79581ZM19.2541 11.7279L18.0539 11.9658L17.8754 11.8319C17.989 11.9171 18.1334 11.95 18.2726 11.9224L20.2972 11.5212C20.4908 11.4828 20.6437 11.3342 20.6875 11.1418C20.7313 10.9493 20.6579 10.7491 20.5 10.6307L19.7646 10.0791L20.234 9.28864C20.3348 9.11897 20.3264 8.90589 20.2125 8.74474C20.0986 8.58358 19.9005 8.50449 19.707 8.54285L18.7242 8.7376C18.8787 8.70684 19.0096 8.60509 19.0776 8.46298C19.1457 8.32073 19.1426 8.15473 19.0694 8.01507C18.585 7.09113 17.9088 6.28412 17.0938 5.64668C16.9693 5.54933 16.8061 5.51655 16.6537 5.55829C16.5013 5.60002 16.3776 5.71136 16.32 5.85856L15.8446 7.07522L15.6358 7.15361C15.7687 7.10371 15.8741 6.99969 15.9258 6.86749L16.677 4.94496C16.7488 4.76114 16.7058 4.55227 16.5672 4.4118C16.4286 4.27132 16.2203 4.22552 16.0355 4.2949L17.085 3.90086L16.6979 4.89161C16.6149 5.10387 16.686 5.34537 16.8707 5.47885C17.8599 6.19363 18.6628 7.15004 19.1927 8.26089C19.2911 8.46721 19.5169 8.5805 19.7412 8.53607L20.8067 8.32491L19.9939 9.69309C19.8635 9.91266 19.9195 10.1952 20.1238 10.3485L21.3969 11.3033L20.2819 11.5243C20.0605 11.5681 19.8959 11.7549 19.8803 11.9801C19.7393 14.0109 18.8513 15.6587 17.3612 17.0324C17.3512 17.0416 17.3417 17.0511 17.3325 17.0611C15.8176 18.7044 13.6851 19.9 11.4001 19.9C7.36842 19.9 4.1001 16.6317 4.1001 12.6C4.1001 10.3108 4.91572 8.98228 6.38421 7.2201C7.31302 6.10553 8.40756 5.27272 9.58639 4.74914C7.0583 5.89649 5.30005 8.44292 5.30005 11.4C5.30005 15.4317 8.56837 18.7 12.6 18.7C16.3348 18.7 19.4138 15.8959 19.8477 12.2779C19.8668 12.1189 19.8086 11.9604 19.6911 11.8516C19.5737 11.7428 19.4112 11.6968 19.2541 11.7279ZM17.3497 9.17913L17.4637 8.98739L17.6821 8.94411C17.543 8.97178 17.4222 9.05721 17.3497 9.17913ZM12.6001 4.10001C12.6001 4.10001 12.6001 4.10001 12.6 4.10001H12.6001ZM14.9745 4.22037C15.0903 4.44619 15.3572 4.5496 15.5951 4.46026L15.1748 4.61807L14.9745 4.22037ZM14.2962 11.1255C14.0811 11.1653 13.9168 11.3403 13.8907 11.5575C13.8133 12.201 13.2646 12.7 12.6 12.7C11.8821 12.7 11.3 12.118 11.3 11.4C11.3 10.682 11.8821 10.1 12.6 10.1C12.6221 10.1 12.644 10.1006 12.6658 10.1016C12.8813 10.1123 13.0793 9.98347 13.157 9.78214L13.1698 9.74875C13.0877 9.96247 13.1612 10.2047 13.3483 10.3367C13.5312 10.4658 13.6792 10.6406 13.7756 10.844C13.8726 11.0486 14.0952 11.1625 14.3179 11.1215L14.2962 11.1255Z" fill="#2A2620" stroke="#2A2620" stroke-linecap="round" stroke-linejoin="round"/>
<path d="M15.2353 5.12947C15.4756 5.23059 15.7089 5.34513 15.9342 5.47214L15.4601 6.68552L14.5678 7.02056C14.3836 6.93771 14.1934 6.86613 13.9978 6.8067L13.5635 5.94441L14.0299 4.7506C14.288 4.80582 14.5406 4.87568 14.7868 4.95927L14.9303 5.24399L15.2353 5.12947Z" fill="white"/>
<path d="M12.4697 5.99591L12.7756 6.60316C12.7173 6.60106 12.6588 6.60001 12.6 6.60001C9.94908 6.60001 7.80005 8.74904 7.80005 11.4C7.80005 14.051 9.94908 16.2 12.6 16.2C15.025 16.2 17.03 14.4018 17.3542 12.066L17.9323 12.4996L19.3513 12.2184C18.9471 15.588 16.0786 18.2 12.6 18.2C8.84451 18.2 5.80005 15.1555 5.80005 11.4C5.80005 7.64447 8.84451 4.60001 12.6 4.60001C12.7378 4.60001 12.8746 4.6041 13.0104 4.61218L12.4697 5.99591Z" fill="white"/>
<path d="M16.4 11.4C16.4 11.3834 16.3999 11.3668 16.3997 11.3502L16.2873 11.2659L14.3871 11.6172C14.2799 12.5089 13.5207 13.2 12.6 13.2C11.6059 13.2 10.8 12.3941 10.8 11.4C10.8 10.4059 11.6059 9.60001 12.6 9.60001C12.6304 9.60001 12.6605 9.60076 12.6905 9.60224L13.3824 7.80788L13.3112 7.66643C13.0808 7.62282 12.8431 7.60001 12.6 7.60001C10.5014 7.60001 8.80005 9.30132 8.80005 11.4C8.80005 13.4987 10.5014 15.2 12.6 15.2C14.6987 15.2 16.4 13.4987 16.4 11.4Z" fill="white"/>
<path d="M16.1135 10.2811L16.1903 10.1518C15.8898 9.28738 15.2859 8.5649 14.5061 8.11188L14.3083 8.18614L13.6365 9.92819C13.8891 10.1064 14.0938 10.3479 14.2274 10.6297L16.1135 10.2811Z" fill="white"/>
<path d="M15.6408 7.68583C16.1172 8.0763 16.5171 8.55662 16.8146 9.1009L17.1477 8.54028L18.6266 8.24722C18.1754 7.38664 17.5453 6.6346 16.7858 6.04053L16.2292 7.46491L15.6408 7.68583Z" fill="white"/>
<path d="M18.1754 11.4319L17.0806 10.6109L17.7795 9.43449L19.8042 9.03326L19.249 9.96784C19.249 9.96778 19.249 9.96791 19.249 9.96784L19.1054 10.2097L19.323 10.3729C19.323 10.3728 19.323 10.3729 19.323 10.3729L20.2 11.0307L19.3969 11.1899C19.3969 11.1899 19.3969 11.1899 19.3969 11.1899L18.1754 11.4319Z" fill="white"/>
<path d="M13.5635 5.94441L14.3147 4.02188L14.9303 5.24399L16.2113 4.76299L15.4601 6.68552L14.1791 7.16651L13.5635 5.94441Z" fill="white"/>
</svg>
