<svg width="24" height="24" viewBox="0 0 24 24" fill="none" xmlns="http://www.w3.org/2000/svg">
<path d="M0 12C0 5.37258 5.37258 0 12 0C18.6274 0 24 5.37258 24 12C24 18.6274 18.6274 24 12 24C5.37258 24 0 18.6274 0 12Z" fill="#E5DED6"/>
<path d="M12.6 15.2C14.6987 15.2 16.4 13.4987 16.4 11.4C16.4 9.30129 14.6987 7.59998 12.6 7.59998C10.5014 7.59998 8.80005 9.30129 8.80005 11.4C8.80005 13.4987 10.5014 15.2 12.6 15.2Z" fill="white"/>
<path fill-rule="evenodd" clip-rule="evenodd" d="M19.4 11.4C19.4 15.1555 16.3556 18.2 12.6 18.2C8.84451 18.2 5.80005 15.1555 5.80005 11.4C5.80005 7.64444 8.84451 4.59998 12.6 4.59998C16.3556 4.59998 19.4 7.64444 19.4 11.4ZM12.6 16.2C15.251 16.2 17.4 14.0509 17.4 11.4C17.4 8.74901 15.251 6.59998 12.6 6.59998C9.94908 6.59998 7.80005 8.74901 7.80005 11.4C7.80005 14.0509 9.94908 16.2 12.6 16.2Z" fill="white"/>
<path d="M16.6619 7.30703L18.3428 6.10907L18.1892 7.46881L19.5246 7.76731L17.8437 8.96527L16.5083 8.66677L16.6619 7.30703Z" fill="white"/>
<path fill-rule="evenodd" clip-rule="evenodd" d="M20.4001 11.4C20.4001 13.8596 19.4172 15.8171 17.7001 17.4C16.1172 19.1171 13.8597 20.4 11.4001 20.4C7.09228 20.4 3.6001 16.9078 3.6001 12.6C3.6001 10.1404 4.5001 8.69998 6.0001 6.89998C7.77076 4.77518 10.1405 3.59998 12.6001 3.59998C14.5019 3.59998 16.2448 4.28063 17.5984 5.41163L19.5881 3.99353L19.2837 6.68877L21.9307 7.28046L19.9241 8.71061C20.232 9.54896 20.4001 10.4548 20.4001 11.4ZM19.0747 9.31592C19.286 9.97268 19.4 10.673 19.4 11.4C19.4 15.1555 16.3556 18.2 12.6 18.2C8.84451 18.2 5.80005 15.1555 5.80005 11.4C5.80005 7.64444 8.84451 4.59998 12.6 4.59998C14.1635 4.59998 15.6038 5.12763 16.7524 6.01457L15.7183 6.75155L15.6151 7.66489C14.7911 6.99885 13.7421 6.59998 12.6 6.59998C9.94908 6.59998 7.80005 8.74901 7.80005 11.4C7.80005 14.0509 9.94908 16.2 12.6 16.2C15.251 16.2 17.4 14.0509 17.4 11.4C17.4 10.851 17.3079 10.3235 17.1382 9.83224L18.0609 10.0385L19.0747 9.31592ZM19.5246 7.76731L18.1892 7.46881L18.3415 6.12014L18.3428 6.10907L16.6619 7.30703L16.5083 8.66677L17.8437 8.96527L19.5246 7.76731ZM15.9747 9.6513C16.2465 10.1747 16.4 10.7694 16.4 11.4C16.4 13.4987 14.6987 15.2 12.6 15.2C10.5014 15.2 8.80005 13.4987 8.80005 11.4C8.80005 9.30129 10.5014 7.59998 12.6 7.59998C13.7087 7.59998 14.7065 8.07474 15.4011 8.83205L13.7531 10.0177C13.4408 9.75691 13.0387 9.59998 12.6 9.59998C11.6059 9.59998 10.8 10.4059 10.8 11.4C10.8 12.3941 11.6059 13.2 12.6 13.2C13.5942 13.2 14.4 12.3941 14.4 11.4C14.4 11.2069 14.3696 11.0209 14.3134 10.8465L15.9747 9.6513Z" fill="#2A2620"/>
</svg>
