<svg width="24" height="24" viewBox="0 0 24 24" fill="none" xmlns="http://www.w3.org/2000/svg">
<path d="M0 12C0 5.37258 5.37258 0 12 0C18.6274 0 24 5.37258 24 12C24 18.6274 18.6274 24 12 24C5.37258 24 0 18.6274 0 12Z" fill="#E5DED6"/>
<path fill-rule="evenodd" clip-rule="evenodd" d="M14.1992 1.56973L15.4194 3.99216L17.9587 3.03874L17.1636 5.07358C18.22 5.83696 19.0776 6.85846 19.644 8.04561L21.8091 7.61655L20.4238 9.94847L22.5937 11.5758L20.3791 12.0147C20.2282 14.1888 19.2716 15.9513 17.7001 17.4C16.1172 19.1171 13.8597 20.4 11.4001 20.4C7.09228 20.4 3.6001 16.9078 3.6001 12.6C3.6001 10.1404 4.5001 8.70001 6.0001 6.90001C7.77076 4.77521 10.1405 3.60001 12.6001 3.60001C12.8669 3.60001 13.1305 3.6134 13.3904 3.63955L14.1992 1.56973Z" fill="#2A2620"/>
<path d="M15.2353 5.12947C15.4756 5.23059 15.7089 5.34513 15.9342 5.47214L15.4601 6.68552L14.5678 7.02056C14.3836 6.93771 14.1934 6.86613 13.9978 6.8067L13.5635 5.94441L14.0299 4.7506C14.288 4.80582 14.5406 4.87568 14.7868 4.95927L14.9303 5.24399L15.2353 5.12947Z" fill="white"/>
<path d="M12.4697 5.99591L12.7756 6.60316C12.7173 6.60106 12.6588 6.60001 12.6 6.60001C9.94908 6.60001 7.80005 8.74904 7.80005 11.4C7.80005 14.051 9.94908 16.2 12.6 16.2C15.025 16.2 17.03 14.4018 17.3542 12.066L17.9323 12.4996L19.3513 12.2184C18.9471 15.588 16.0786 18.2 12.6 18.2C8.84451 18.2 5.80005 15.1555 5.80005 11.4C5.80005 7.64447 8.84451 4.60001 12.6 4.60001C12.7378 4.60001 12.8746 4.6041 13.0104 4.61218L12.4697 5.99591Z" fill="white"/>
<path d="M16.4 11.4C16.4 11.3834 16.3999 11.3668 16.3997 11.3502L16.2873 11.2659L14.3871 11.6172C14.2799 12.5089 13.5207 13.2 12.6 13.2C11.6059 13.2 10.8 12.3941 10.8 11.4C10.8 10.4059 11.6059 9.60001 12.6 9.60001C12.6304 9.60001 12.6605 9.60076 12.6905 9.60224L13.3824 7.80788L13.3112 7.66643C13.0808 7.62282 12.8431 7.60001 12.6 7.60001C10.5014 7.60001 8.80005 9.30132 8.80005 11.4C8.80005 13.4987 10.5014 15.2 12.6 15.2C14.6987 15.2 16.4 13.4987 16.4 11.4Z" fill="white"/>
<path d="M16.1135 10.2811L16.1903 10.1518C15.8898 9.28738 15.2859 8.5649 14.5061 8.11188L14.3083 8.18614L13.6365 9.92819C13.8891 10.1064 14.0938 10.3479 14.2274 10.6297L16.1135 10.2811Z" fill="white"/>
<path d="M15.6408 7.68583C16.1172 8.0763 16.5171 8.55662 16.8146 9.1009L17.1477 8.54028L18.6266 8.24722C18.1754 7.38664 17.5453 6.6346 16.7858 6.04053L16.2292 7.46491L15.6408 7.68583Z" fill="white"/>
<path d="M18.1754 11.4319L17.0806 10.6109L17.7795 9.43449L19.8042 9.03326L19.249 9.96784C19.249 9.96778 19.249 9.96791 19.249 9.96784L19.1054 10.2097L19.323 10.3729C19.323 10.3728 19.323 10.3729 19.323 10.3729L20.2 11.0307L19.3969 11.1899C19.3969 11.1899 19.3969 11.1899 19.3969 11.1899L18.1754 11.4319Z" fill="white"/>
<path d="M13.5635 5.94441L14.3147 4.02188L14.9303 5.24399L16.2113 4.76299L15.4601 6.68552L14.1791 7.16651L13.5635 5.94441Z" fill="white"/>
</svg>
