<svg width="24" height="24" viewBox="0 0 24 24" fill="none" xmlns="http://www.w3.org/2000/svg">
<path d="M0 12C0 5.37258 5.37258 0 12 0V0C18.6274 0 24 5.37258 24 12V12C24 18.6274 18.6274 24 12 24V24C5.37258 24 0 18.6274 0 12V12Z" fill="#E5DED6"/>
<path fill-rule="evenodd" clip-rule="evenodd" d="M9.55313 5.06082C9.22632 4.87214 8.82368 4.87214 8.49688 5.06082L5.76938 6.63554C5.66649 6.69494 5.57605 6.7702 5.5004 6.85723L5.4961 6.69141L4.26348 8.09071C4.06013 8.28723 3.94125 8.56028 3.94125 8.85026V11.9997C3.94125 12.3771 4.14257 12.7258 4.46938 12.9144L7.19688 14.4892C7.29761 14.5473 7.40555 14.5876 7.51625 14.6099V17.5247C7.51625 17.9021 7.71757 18.2508 8.04438 18.4394L10.7719 20.0142C11.0987 20.2028 11.5013 20.2028 11.8281 20.0142L14.5556 18.4394C14.6655 18.376 14.7612 18.2945 14.8398 18.1998L15.9996 17.0401L15.999 17.0401C16.2403 16.8414 16.3838 16.5433 16.3838 16.2247V13.923L18.1306 12.9144C18.246 12.8478 18.3457 12.7613 18.4265 12.6606L19.5632 11.5238C19.811 11.3252 19.9588 11.023 19.9588 10.6997V7.55028C19.9588 7.17292 19.7574 6.82423 19.4306 6.63554L16.7031 5.06082C16.3763 4.87214 15.9737 4.87214 15.6469 5.06082L12.9194 6.63554C12.7925 6.70878 12.6846 6.80611 12.6 6.91987C12.5154 6.80611 12.4075 6.70878 12.2806 6.63554L9.55313 5.06082Z" fill="#2A2620"/>
<path d="M15.675 5.4137C15.9844 5.23507 16.3656 5.23507 16.675 5.4137L19.0525 6.78635C19.3619 6.96498 19.5525 7.29511 19.5525 7.65237V10.3977C19.5525 10.7549 19.3619 11.0851 19.0525 11.2637L16.675 12.6363C16.3656 12.815 15.9844 12.815 15.675 12.6363L13.2975 11.2637C12.9881 11.0851 12.7975 10.7549 12.7975 10.3977V7.65237C12.7975 7.29511 12.9881 6.96498 13.2975 6.78635L15.675 5.4137Z" fill="white"/>
<path fill-rule="evenodd" clip-rule="evenodd" d="M15.425 4.98069C15.8891 4.71274 16.4609 4.71274 16.925 4.98069L19.3025 6.35334C19.7666 6.62129 20.0525 7.11648 20.0525 7.65237V10.3977C20.0525 10.9336 19.7666 11.4288 19.3025 11.6967L16.925 13.0694C16.4609 13.3373 15.8891 13.3373 15.425 13.0694L13.0475 11.6967C12.5834 11.4288 12.2975 10.9336 12.2975 10.3977V7.65237C12.2975 7.11647 12.5834 6.62128 13.0475 6.35334L15.425 4.98069ZM16.425 5.84671C16.2703 5.7574 16.0797 5.7574 15.925 5.84671L13.5475 7.21936C13.3928 7.30868 13.2975 7.47374 13.2975 7.65237V10.3977C13.2975 10.5763 13.3928 10.7414 13.5475 10.8307L15.925 12.2033C16.0797 12.2927 16.2703 12.2927 16.425 12.2033L18.8025 10.8307C18.9572 10.7414 19.0525 10.5763 19.0525 10.3977V7.65237C19.0525 7.47374 18.9572 7.30868 18.8025 7.21936L16.425 5.84671Z" fill="#2A2620"/>
<path d="M8.525 5.4137C8.8344 5.23507 9.2156 5.23507 9.525 5.4137L11.9025 6.78635C12.2119 6.96498 12.4025 7.29511 12.4025 7.65237L12.4025 10.3977C12.4025 10.7549 12.2119 11.0851 11.9025 11.2637L9.525 12.6363C9.2156 12.815 8.8344 12.815 8.525 12.6363L6.1475 11.2637C5.8381 11.0851 5.6475 10.7549 5.6475 10.3977L5.6475 7.65237C5.6475 7.29511 5.8381 6.96498 6.1475 6.78635L8.525 5.4137Z" fill="white"/>
<path fill-rule="evenodd" clip-rule="evenodd" d="M8.275 4.98069C8.7391 4.71274 9.3109 4.71274 9.775 4.98069L12.1525 6.35334C12.6166 6.62129 12.9025 7.11648 12.9025 7.65237L12.9025 10.3977C12.9025 10.9336 12.6166 11.4288 12.1525 11.6967L9.775 13.0694C9.3109 13.3373 8.7391 13.3373 8.275 13.0694L5.8975 11.6967C5.4334 11.4288 5.1475 10.9336 5.1475 10.3977L5.1475 7.65237C5.1475 7.11647 5.4334 6.62128 5.8975 6.35334L8.275 4.98069ZM9.275 5.84671C9.1203 5.7574 8.9297 5.7574 8.775 5.84671L6.3975 7.21936C6.2428 7.30868 6.1475 7.47374 6.1475 7.65237L6.1475 10.3977C6.1475 10.5763 6.2428 10.7414 6.3975 10.8307L8.775 12.2033C8.9297 12.2927 9.1203 12.2927 9.275 12.2033L11.6525 10.8307C11.8072 10.7414 11.9025 10.5763 11.9025 10.3977L11.9025 7.65237C11.9025 7.47374 11.8072 7.30868 11.6525 7.21936L9.275 5.84671Z" fill="#2A2620"/>
<path d="M12.1 10.9387C12.4094 10.7601 12.7906 10.7601 13.1 10.9387L15.4775 12.3114C15.7869 12.49 15.9775 12.8201 15.9775 13.1774V15.9227C15.9775 16.28 15.7869 16.6101 15.4775 16.7887L13.1 18.1614C12.7906 18.34 12.4094 18.34 12.1 18.1614L9.72251 16.7887C9.41311 16.6101 9.22251 16.28 9.22251 15.9227V13.1774C9.22251 12.8201 9.41311 12.49 9.72251 12.3114L12.1 10.9387Z" fill="white"/>
<path fill-rule="evenodd" clip-rule="evenodd" d="M11.85 10.5057C12.3141 10.2378 12.8859 10.2378 13.35 10.5057L15.7275 11.8784C16.1916 12.1463 16.4775 12.6415 16.4775 13.1774V15.9227C16.4775 16.4586 16.1916 16.9538 15.7275 17.2217L13.35 18.5944C12.8859 18.8623 12.3141 18.8623 11.85 18.5944L9.47251 17.2217C9.00841 16.9538 8.72251 16.4586 8.72251 15.9227V13.1774C8.72251 12.6415 9.00841 12.1463 9.47251 11.8784L11.85 10.5057ZM12.85 11.3717C12.6953 11.2824 12.5047 11.2824 12.35 11.3717L9.97251 12.7444C9.81781 12.8337 9.72251 12.9988 9.72251 13.1774V15.9227C9.72251 16.1013 9.81781 16.2664 9.97251 16.3557L12.35 17.7284C12.5047 17.8177 12.6953 17.8177 12.85 17.7284L15.2275 16.3557C15.3822 16.2664 15.4775 16.1013 15.4775 15.9227V13.1774C15.4775 12.9988 15.3822 12.8337 15.2275 12.7444L12.85 11.3717Z" fill="#2A2620"/>
<path d="M17.18 8.40002C17.18 8.95231 16.7323 9.40002 16.18 9.40002C15.6277 9.40002 15.18 8.95231 15.18 8.40002C15.18 7.84774 15.6277 7.40002 16.18 7.40002C16.7323 7.40002 17.18 7.84774 17.18 8.40002Z" fill="#2A2620"/>
<path fill-rule="evenodd" clip-rule="evenodd" d="M16.18 7.65002C15.7658 7.65002 15.43 7.98581 15.43 8.40002C15.43 8.81424 15.7658 9.15002 16.18 9.15002C16.5942 9.15002 16.93 8.81424 16.93 8.40002C16.93 7.98581 16.5942 7.65002 16.18 7.65002ZM14.93 8.40002C14.93 7.70967 15.4896 7.15002 16.18 7.15002C16.8703 7.15002 17.43 7.70967 17.43 8.40002C17.43 9.09038 16.8703 9.65002 16.18 9.65002C15.4896 9.65002 14.93 9.09038 14.93 8.40002Z" fill="#2A2620"/>
<path d="M13.6 13.925C13.6 14.4773 13.1523 14.925 12.6 14.925C12.0477 14.925 11.6 14.4773 11.6 13.925C11.6 13.3728 12.0477 12.925 12.6 12.925C13.1523 12.925 13.6 13.3728 13.6 13.925Z" fill="#2A2620"/>
<path fill-rule="evenodd" clip-rule="evenodd" d="M12.6 13.175C12.1858 13.175 11.85 13.5108 11.85 13.925C11.85 14.3393 12.1858 14.675 12.6 14.675C13.0142 14.675 13.35 14.3393 13.35 13.925C13.35 13.5108 13.0142 13.175 12.6 13.175ZM11.35 13.925C11.35 13.2347 11.9097 12.675 12.6 12.675C13.2904 12.675 13.85 13.2347 13.85 13.925C13.85 14.6154 13.2904 15.175 12.6 15.175C11.9097 15.175 11.35 14.6154 11.35 13.925Z" fill="#2A2620"/>
<path d="M10.03 8.40002C10.03 8.95231 9.58228 9.40002 9.03 9.40002C8.47771 9.40002 8.03 8.95231 8.03 8.40002C8.03 7.84774 8.47771 7.40002 9.03 7.40002C9.58228 7.40002 10.03 7.84774 10.03 8.40002Z" fill="#2A2620"/>
<path fill-rule="evenodd" clip-rule="evenodd" d="M9.03 7.65002C8.61579 7.65002 8.28 7.98581 8.28 8.40002C8.28 8.81424 8.61579 9.15002 9.03 9.15002C9.44421 9.15002 9.78 8.81424 9.78 8.40002C9.78 7.98581 9.44421 7.65002 9.03 7.65002ZM7.78 8.40002C7.78 7.70967 8.33964 7.15002 9.03 7.15002C9.72035 7.15002 10.28 7.70967 10.28 8.40002C10.28 9.09038 9.72035 9.65002 9.03 9.65002C8.33964 9.65002 7.78 9.09038 7.78 8.40002Z" fill="#2A2620"/>
<path d="M16.18 9.80005C15.0754 9.80005 14.18 10.6477 14.18 11.6933L16.2184 12.8L18.18 11.6933C18.18 10.6477 17.2846 9.80005 16.18 9.80005Z" fill="#2A2620"/>
<path d="M9.03 9.80005C7.92543 9.80005 7.03 10.6477 7.03 11.6933L8.99154 12.8L11.03 11.6933C11.03 10.6477 10.1346 9.80005 9.03 9.80005Z" fill="#2A2620"/>
<path d="M12.6 15.3C11.4954 15.3 10.6 16.1909 10.6 17.2898L12.6 18.3L14.6 17.2898C14.6 16.1909 13.7046 15.3 12.6 15.3Z" fill="#2A2620"/>
</svg>
