<svg width="24" height="24" viewBox="0 0 24 24" fill="none" xmlns="http://www.w3.org/2000/svg">
<path d="M0 12C0 5.37258 5.37258 0 12 0C18.6274 0 24 5.37258 24 12C24 18.6274 18.6274 24 12 24C5.37258 24 0 18.6274 0 12Z" fill="#E5DED6"/>
<path fill-rule="evenodd" clip-rule="evenodd" d="M16.5672 11.6244C16.6881 11.5048 16.8503 11.3452 17.0198 11.1784C17.2251 10.9764 17.4412 10.7638 17.6081 10.5985C17.619 10.5876 17.6295 10.5764 17.6396 10.5648C17.7237 10.4842 17.8044 10.3992 17.8812 10.3095C19.235 8.72947 18.9771 6.17863 18.8094 5.17851C18.7668 4.92447 18.5553 4.74318 18.2977 4.74006C17.2837 4.72778 14.7235 4.86411 13.3697 6.44413C13.3324 6.48769 13.2963 6.53199 13.2614 6.57698C13.198 5.90306 13.0154 5.22631 12.6349 4.63433C11.5101 2.88398 8.99258 2.39872 7.98643 2.27218C7.79404 2.24799 7.61364 2.32738 7.50338 2.47298L6.43641 3.60832C6.37235 3.66861 6.3228 3.7461 6.29453 3.83646C5.99165 4.80425 5.38724 7.29582 6.51211 9.04617C7.63279 10.79 10.1357 11.2782 11.1493 11.4069C11.1517 11.4808 11.1549 11.5534 11.1588 11.6244H7.65176C7.50227 11.6244 7.36476 11.6792 7.26135 11.7697V11.7671L6.02645 13.002C5.92137 13.1105 5.8616 13.2597 5.87519 13.4239C5.98783 14.7854 6.48742 15.3636 6.96233 15.9132C7.36211 16.3759 7.7444 16.8184 7.86367 17.6908C7.87091 17.7438 7.88381 17.7953 7.90173 17.8444V20.4243C7.90173 20.7557 8.17036 21.0243 8.50173 21.0243H15.5017C15.6844 21.0243 15.848 20.9427 15.9581 20.8139L17.0911 19.6808C17.22 19.5708 17.3017 19.4071 17.3017 19.2243C17.3017 19.2243 17.1825 17.5169 17.3017 16.6445C17.421 15.7721 17.8414 15.176 18.2411 14.7133C18.7161 14.1636 19.2156 13.5854 19.3283 12.224C19.3556 11.8937 19.0831 11.6244 18.7517 11.6244H16.5672ZM8.1658 3.72535C9.31079 4.02795 10.7382 4.63335 11.5099 5.83429C11.8763 6.40433 12.0592 7.05299 12.1289 7.70203C12.1551 7.66906 12.182 7.63647 12.2096 7.60429C12.2321 7.57805 12.2549 7.55221 12.278 7.52677C12.2789 7.51203 12.2797 7.49727 12.2804 7.48249C12.3235 6.62437 12.1976 5.80352 11.7937 5.17497C11.3898 4.54642 10.6954 4.09093 9.8969 3.77365C9.30597 3.53885 8.7141 3.40216 8.262 3.32421C8.22962 3.44709 8.19688 3.58159 8.1658 3.72535ZM17.9404 7.11164C17.8602 6.75733 17.7669 6.45905 17.6936 6.24917C17.6212 6.04189 17.4309 5.90587 17.2114 5.90141C17.0097 5.89732 16.7327 5.89862 16.408 5.91838C16.9518 5.80254 17.474 5.75815 17.8808 5.7445C17.9263 6.1206 17.9608 6.59949 17.9404 7.11164ZM11.2635 12.6244H8.13789C8.1521 12.6954 8.16771 12.7619 8.18444 12.8243H11.2995C11.2946 12.8067 11.2905 12.7886 11.2873 12.7701C11.2796 12.7249 11.2716 12.6762 11.2635 12.6244ZM16.1017 18.8244H16.2776C16.2703 18.6704 16.2629 18.4872 16.2574 18.2894C16.2481 17.9537 16.2432 17.5458 16.2586 17.1584C16.2074 17.3173 16.1668 17.493 16.1398 17.6908C16.1326 17.7438 16.1197 17.7953 16.1017 17.8445V18.8244ZM18.0939 13.1846C18.0114 12.9729 17.7978 12.8243 17.5517 12.8243H14.8598C15.0113 12.7659 15.1612 12.6996 15.3079 12.6244H18.2656C18.2198 12.8532 18.1595 13.0349 18.0939 13.1846Z" fill="#2A2620"/>
<path fill-rule="evenodd" clip-rule="evenodd" d="M8.47839 7.30559C8.07445 6.67705 7.94857 5.8562 7.99168 4.99808C8.02357 4.36301 8.14512 3.76785 8.26202 3.32422C8.71412 3.40217 9.30599 3.53886 9.89692 3.77366C10.6954 4.09093 11.3898 4.54643 11.7937 5.17498C12.1977 5.80353 12.3235 6.62438 12.2804 7.4825C12.26 7.88927 12.2028 8.27968 12.1336 8.62438L9.58301 4.69924L8.74449 5.24411L11.165 8.96906C10.9102 8.89934 10.6426 8.81317 10.3752 8.70691C9.57671 8.38964 8.88233 7.93414 8.47839 7.30559ZM15.0512 10.7875C15.8856 10.5825 16.6358 10.2263 17.1219 9.65887C17.608 9.09148 17.845 8.29557 17.9197 7.43962C17.9749 6.80616 17.9359 6.19996 17.8808 5.74451C17.4223 5.75989 16.8173 5.81433 16.1998 5.96609C15.3654 6.17116 14.6153 6.52739 14.1292 7.09477C13.643 7.66216 13.4061 8.45807 13.3314 9.31402C13.2984 9.69249 13.299 10.0612 13.3166 10.3939L16.1735 6.89476L16.9481 7.5272L14.1543 10.9491C14.4391 10.9146 14.7436 10.8632 15.0512 10.7875ZM8.13791 12.6244C8.19768 12.9233 8.28225 13.1417 8.37115 13.3136C8.50847 13.5791 8.67741 13.7798 8.91905 14.0595C8.93908 14.0827 8.96058 14.1073 8.98331 14.1333L8.98347 14.1335C9.36718 14.5727 10.1018 15.4134 10.1018 16.6445V18.8244H16.2777C16.2704 18.6704 16.2629 18.4872 16.2574 18.2894C16.2425 17.7543 16.239 17.0352 16.311 16.509C16.468 15.3605 17.0286 14.5872 17.4845 14.0595C17.7261 13.7798 17.8951 13.5791 18.0324 13.3136C18.1213 13.1417 18.2058 12.9233 18.2656 12.6244H8.13791Z" fill="white"/>
</svg>
