<svg width="24" height="24" viewBox="0 0 24 24" fill="none" xmlns="http://www.w3.org/2000/svg">
<path d="M0 12C0 5.37258 5.37258 0 12 0C18.6274 0 24 5.37258 24 12C24 18.6274 18.6274 24 12 24C5.37258 24 0 18.6274 0 12Z" fill="#E5DED6"/>
<path d="M14.5771 16.761C14.5771 15.9861 15.2014 15.1898 15.7618 14.4749C15.9448 14.2414 16.121 14.0166 16.2665 13.8041C16.8451 12.9585 17.1811 11.8298 17.1811 10.7479C17.1811 7.75836 14.6162 5.33484 11.4523 5.33484C8.28837 5.33484 5.72351 7.75836 5.72351 10.7479C5.72351 11.9349 6.1279 12.9118 6.81361 13.8041C7.01374 14.0645 7.26349 14.3353 7.51877 14.6121C8.16578 15.3135 8.8483 16.0534 8.8483 16.761V19.6568C8.848 19.6661 8.84829 19.6754 8.84829 19.6847C8.84829 20.5475 10.1307 21.2471 11.7127 21.2471C13.2946 21.2471 14.5771 20.5475 14.5771 19.6847C14.5771 19.6754 14.5769 19.6661 14.5766 19.6568L14.5771 16.761Z" fill="#2A2620"/>
<path fill-rule="evenodd" clip-rule="evenodd" d="M6.81361 13.8041C7.01374 14.0645 7.26349 14.3353 7.51877 14.6121C8.16578 15.3135 8.8483 16.0534 8.8483 16.761V19.6568C8.8481 19.663 8.84816 19.6692 8.84823 19.6754C8.84826 19.6785 8.84829 19.6816 8.84829 19.6847C8.84829 20.5475 10.1307 21.2471 11.7127 21.2471C13.2946 21.2471 14.5771 20.5475 14.5771 19.6847C14.5771 19.6754 14.5769 19.6661 14.5766 19.6568L14.5771 16.761C14.5771 15.9861 15.2014 15.1898 15.7618 14.4749C15.9448 14.2414 16.121 14.0166 16.2665 13.8041C16.8451 12.9585 17.1811 11.8298 17.1811 10.7479C17.1811 7.75836 14.6162 5.33484 11.4523 5.33484C8.28837 5.33484 5.72351 7.75836 5.72351 10.7479C5.72351 11.9349 6.1279 12.9118 6.81361 13.8041ZM13.5771 16.761L13.5766 19.6564C13.5605 19.6871 13.4942 19.7834 13.2593 19.9115C12.9142 20.0997 12.3693 20.2471 11.7127 20.2471C11.056 20.2471 10.5111 20.0997 10.1661 19.9115C9.9289 19.7822 9.86363 19.6853 9.8483 19.6555V16.761C9.8483 16.0986 9.53638 15.5285 9.24675 15.1127C8.95573 14.6949 8.58413 14.2921 8.27609 13.9582L8.25382 13.934C7.99069 13.6488 7.77392 13.4126 7.60652 13.1948C7.03078 12.4456 6.72351 11.6777 6.72351 10.7479C6.72351 8.3633 8.78649 6.33484 11.4523 6.33484C14.1181 6.33484 16.1811 8.3633 16.1811 10.7479C16.1811 11.642 15.8985 12.5711 15.4412 13.2394C15.3176 13.42 15.1629 13.618 14.9748 13.858L14.9569 13.8808C14.6884 14.2232 14.3572 14.6456 14.0968 15.0893C13.8334 15.5381 13.5771 16.1143 13.5771 16.761C13.5771 16.761 13.5771 16.7609 13.5771 16.761ZM9.84412 19.646C9.84414 19.646 9.84431 19.6465 9.84457 19.6474L9.84412 19.646ZM13.5812 19.646C13.5813 19.646 13.5811 19.6465 13.5808 19.6474L13.5812 19.646Z" fill="#2A2620"/>
<path fill-rule="evenodd" clip-rule="evenodd" d="M16.7328 13.4333C16.1724 14.1482 15.5481 14.9445 15.5481 15.7193V18.6152H15.5477C15.548 18.6244 15.5481 18.6338 15.5481 18.6431C15.5481 19.506 14.2657 20.2055 12.6837 20.2055C11.1018 20.2055 9.81934 19.506 9.81934 18.6431C9.81934 18.6338 9.81949 18.6244 9.81978 18.6152H9.81937V15.7193C9.81937 15.0118 9.13686 14.2719 8.48984 13.5704C8.23456 13.2937 7.98481 13.0229 7.78468 12.7625C7.09897 11.8702 6.69458 10.8933 6.69458 9.70626C6.69458 6.71674 9.25944 4.29321 12.4234 4.29321C15.5873 4.29321 18.1521 6.71674 18.1521 9.70626C18.1521 10.7882 17.8162 11.9169 17.2375 12.7625C17.0921 12.975 16.9159 13.1998 16.7328 13.4333Z" fill="white"/>
<path fill-rule="evenodd" clip-rule="evenodd" d="M11.5063 3.28351V1.80005L12.5063 1.80005V3.28351H11.5063Z" fill="#2A2620"/>
<path fill-rule="evenodd" clip-rule="evenodd" d="M6.24336 5.39773L5.1944 4.34876L5.9015 3.64166L6.95047 4.69062L6.24336 5.39773Z" fill="#2A2620"/>
<path fill-rule="evenodd" clip-rule="evenodd" d="M17.7692 5.39773L18.8182 4.34876L18.1111 3.64166L17.0621 4.69062L17.7692 5.39773Z" fill="#2A2620"/>
<path fill-rule="evenodd" clip-rule="evenodd" d="M4.48346 10.2119H3V9.21185H4.48346V10.2119Z" fill="#2A2620"/>
<path fill-rule="evenodd" clip-rule="evenodd" d="M21.0125 10.2119H19.5291V9.21185H21.0125V10.2119Z" fill="#2A2620"/>
<path fill-rule="evenodd" clip-rule="evenodd" d="M12.7895 9.10813C12.7391 9.06595 12.6532 9.02281 12.4998 9.02276C12.3202 9.02272 12.1882 9.1172 12.1272 9.29659C12.0619 9.48814 12.069 9.83236 12.3573 10.2665C12.3949 10.3231 12.4446 10.3814 12.5044 10.4387C12.5594 10.3758 12.6151 10.3077 12.6725 10.2345C12.909 9.93299 12.9734 9.57993 12.9185 9.34113C12.8923 9.22709 12.8432 9.15308 12.7895 9.10813ZM13.4282 10.8912C13.4387 10.8779 13.4491 10.8647 13.4593 10.8517C13.8586 10.3427 14.0238 9.68576 13.8931 9.11708C13.8265 8.82739 13.6789 8.5483 13.431 8.34104C13.1799 8.13102 12.8593 8.02286 12.5001 8.02276C11.8727 8.02259 11.3732 8.40837 11.1805 8.97425C10.992 9.52798 11.1088 10.194 11.5242 10.8197C11.5527 10.8626 11.5834 10.9047 11.6161 10.946C11.4156 10.9481 11.1579 10.8925 10.8186 10.7248L10.3703 10.5033L9.92732 11.3999L10.3756 11.6214C11.1253 11.9918 11.7661 12.0326 12.3195 11.8091C12.4146 11.7707 12.5042 11.7255 12.5888 11.6753C12.7059 11.7273 12.8262 11.7715 12.9479 11.8067C13.5303 11.9752 14.2486 11.9646 14.8219 11.4936L15.2082 11.1762L14.5733 10.4035L14.187 10.721C13.9939 10.8797 13.73 10.9374 13.4282 10.8912Z" fill="#2A2620"/>
<path d="M14.2303 17.0841C14.4152 17.1849 14.5444 17.266 14.5781 17.311C14.5768 17.3128 14.5752 17.3147 14.5735 17.3166H15.5481L15.5481 17.311C15.5481 16.4481 14.2657 15.7486 12.6837 15.7486C11.1018 15.7486 9.81935 16.4481 9.81935 17.311L9.81936 17.3166H10.8014C10.7998 17.3147 10.7983 17.3128 10.7969 17.311C10.8306 17.266 10.9523 17.1849 11.1372 17.0841C11.4822 16.8959 12.0271 16.7486 12.6837 16.7486C13.3403 16.7486 13.8853 16.8959 14.2303 17.0841Z" fill="#2A2620"/>
<path fill-rule="evenodd" clip-rule="evenodd" d="M14.5522 18.6045L14.5518 18.6058L14.5522 18.6045ZM14.5293 18.6431C14.4955 18.5982 14.4151 18.5171 14.2302 18.4162C13.8852 18.228 13.3403 18.0807 12.6837 18.0807C12.027 18.0807 11.4821 18.228 11.1371 18.4162C10.9522 18.5171 10.8718 18.5982 10.838 18.6431C10.8718 18.6881 10.9522 18.7692 11.1371 18.87C11.4821 19.0582 12.027 19.2055 12.6837 19.2055C13.3403 19.2055 13.8852 19.0582 14.2302 18.87C14.4151 18.7692 14.4955 18.6881 14.5293 18.6431ZM10.8151 18.6045L10.8155 18.6058L10.8151 18.6045ZM10.8151 18.6818L10.8155 18.6804L10.8151 18.6818ZM14.5518 18.6804L14.5522 18.6818L14.5518 18.6804ZM12.6837 20.2055C14.2656 20.2055 15.548 19.506 15.548 18.6431C15.548 17.7802 14.2656 17.0807 12.6837 17.0807C11.1017 17.0807 9.81928 17.7802 9.81928 18.6431C9.81928 19.506 11.1017 20.2055 12.6837 20.2055Z" fill="#2A2620"/>
<path d="M17.1521 9.70626C17.1521 10.6004 16.8696 11.5295 16.4123 12.1977C16.2866 12.3814 16.1288 12.5829 15.9371 12.8275C15.7537 13.0614 15.543 13.3302 15.3494 13.6095C14.9849 14.1355 14.5481 14.8779 14.5481 15.7193V17.6152H14.5469V18.6152H15.5481V15.7193C15.5481 14.9445 16.1724 14.1482 16.7328 13.4333C16.9159 13.1998 17.0921 12.975 17.2375 12.7625C17.8162 11.9169 18.1521 10.7882 18.1521 9.70626C18.1521 6.71674 15.5873 4.29321 12.4234 4.29321C9.25944 4.29321 6.69458 6.71674 6.69458 9.70626C6.69458 10.8933 7.09897 11.8702 7.78468 12.7625C7.98481 13.0229 8.23456 13.2937 8.48984 13.5704C9.13686 14.2719 9.81937 15.0118 9.81937 15.7193V18.6152H10.8186L10.8194 15.7193C10.8194 14.8268 10.2466 14.0658 9.83332 13.5733C9.63451 13.3364 9.41778 13.1015 9.22322 12.8906L9.1368 12.7968C8.91111 12.5516 8.72391 12.3436 8.57759 12.1531C8.00185 11.404 7.69458 10.6361 7.69458 9.70626C7.69458 7.32167 9.75756 5.29321 12.4234 5.29321C15.0892 5.29321 17.1521 7.32167 17.1521 9.70626Z" fill="#2A2620"/>
</svg>
