<svg width="24" height="24" viewBox="0 0 24 24" fill="none" xmlns="http://www.w3.org/2000/svg">
<path d="M0 12C0 5.37258 5.37258 0 12 0C18.6274 0 24 5.37258 24 12C24 18.6274 18.6274 24 12 24C5.37258 24 0 18.6274 0 12Z" fill="#E5DED6"/>
<path d="M17.483 17.483C19.2617 16.0534 20.4001 13.8597 20.4001 11.4001C20.4001 7.09228 16.9079 3.6001 12.6001 3.6001C10.1405 3.6001 7.94682 4.73853 6.5172 6.5172C5.1001 8.1001 3.6001 10.1405 3.6001 12.6001C3.6001 16.9079 7.09228 20.4001 11.4001 20.4001C13.8597 20.4001 15.6001 18.9001 17.483 17.483Z" fill="#2A2620"/>
<path d="M19.4 11.4001C19.4 15.1556 16.3556 18.2001 12.6 18.2001C8.84451 18.2001 5.80005 15.1556 5.80005 11.4001C5.80005 7.64456 8.84451 4.6001 12.6 4.6001C16.3556 4.6001 19.4 7.64456 19.4 11.4001Z" fill="white"/>
<path fill-rule="evenodd" clip-rule="evenodd" d="M13.1001 15.7999V10.5999H12.1001V15.7999H13.1001Z" fill="#2A2620"/>
<path d="M13.8001 8.39995C13.8001 7.73721 13.2629 7.19995 12.6001 7.19995C11.9374 7.19995 11.4001 7.73721 11.4001 8.39995C11.4001 9.06269 11.9374 9.59995 12.6001 9.59995C13.2629 9.59995 13.8001 9.06269 13.8001 8.39995Z" fill="#2A2620"/>
</svg>
