<svg width="24" height="24" viewBox="0 0 24 24" fill="none" xmlns="http://www.w3.org/2000/svg">
<path d="M0 12C0 5.37258 5.37258 0 12 0C18.6274 0 24 5.37258 24 12C24 18.6274 18.6274 24 12 24C5.37258 24 0 18.6274 0 12Z" fill="#E5DED6"/>
<path d="M11.6816 14.5414L16.4636 8.57999L15.6836 7.95427L11.2505 13.4807L9.35326 11.5853L8.64648 12.2927L10.9382 14.5823C11.0387 14.6827 11.1772 14.7356 11.319 14.7278C11.4609 14.72 11.5927 14.6523 11.6816 14.5414Z" fill="#2A2620"/>
<path fill-rule="evenodd" clip-rule="evenodd" d="M17.2928 17.0143C18.0977 16.2723 18.7289 15.4417 19.1566 14.5072H19.8C20.4588 14.5072 20.8252 14.2495 21.6094 13.4766C22.003 13.0886 22.4714 12.5781 22.4714 11.9572V10.9286C22.4714 10.0449 21.755 9.3286 20.8714 9.3286H19.4865C18.5818 6.35988 15.8217 4.20001 12.5571 4.20001C10.2732 4.20001 8.07271 5.29127 6.42852 7.2643C5.83201 7.98012 5.33768 8.6347 4.96742 9.3286H4.24282C3.55108 9.3286 2.86487 9.9468 2.41797 10.4244C2.00792 10.8284 1.69287 11.4179 1.69287 12V13.1143C1.69287 13.8836 2.31647 14.5072 3.08573 14.5072H4.46548C5.31692 17.5601 8.11829 19.8 11.4428 19.8C13.7267 19.8 15.823 18.6088 17.2928 17.0143ZM12.5571 17.6857C15.5739 17.6857 18.091 15.5458 18.6731 12.701C18.6829 12.6533 18.6921 12.6053 18.7008 12.5572C18.7659 12.1956 18.7999 11.8232 18.7999 11.4429C18.7999 11.0625 18.7659 10.6902 18.7008 10.3286C18.1754 7.41242 15.6246 5.20001 12.5571 5.20001C9.54021 5.20001 7.02316 7.33995 6.44104 10.1847C6.43127 10.2325 6.42204 10.2804 6.41336 10.3286C6.34822 10.6902 6.31421 11.0625 6.31421 11.4429C6.31421 11.8232 6.34822 12.1956 6.41337 12.5572C6.9388 15.4733 9.48957 17.6857 12.5571 17.6857ZM5.31421 11.4429C5.31421 11.8218 5.34331 12.1939 5.3994 12.5572H4.24282C3.91145 12.5572 3.64282 12.2885 3.64282 11.9572V10.9286C3.64282 10.5972 3.91145 10.3286 4.24282 10.3286H5.39939C5.34331 10.6918 5.31421 11.0639 5.31421 11.4429ZM19.7999 11.4429C19.7999 11.8218 19.7708 12.1939 19.7147 12.5572H20.8714C21.2028 12.5572 21.4714 12.2885 21.4714 11.9572V10.9286C21.4714 10.5972 21.2028 10.3286 20.8714 10.3286H19.7147C19.7708 10.6918 19.7999 11.0639 19.7999 11.4429Z" fill="#2A2620"/>
<path fill-rule="evenodd" clip-rule="evenodd" d="M12.5571 17.6857C15.5739 17.6857 18.091 15.5458 18.6731 12.701C18.6829 12.6533 18.6921 12.6053 18.7008 12.5572C18.7659 12.1956 18.7999 11.8232 18.7999 11.4429C18.7999 11.0625 18.7659 10.6902 18.7008 10.3286C18.1754 7.41242 15.6246 5.20001 12.5571 5.20001C9.54021 5.20001 7.02316 7.33995 6.44104 10.1847C6.43127 10.2325 6.42204 10.2804 6.41336 10.3286C6.34822 10.6902 6.31421 11.0625 6.31421 11.4429C6.31421 11.8232 6.34822 12.1956 6.41337 12.5572C6.9388 15.4733 9.48957 17.6857 12.5571 17.6857ZM11.6816 14.5414L16.4636 8.57999L15.6836 7.95427L11.2505 13.4807L9.35326 11.5853L8.64648 12.2927L10.9382 14.5823C11.0387 14.6827 11.1772 14.7356 11.319 14.7278C11.4609 14.72 11.5927 14.6523 11.6816 14.5414Z" fill="white"/>
<path d="M5.31421 11.4429C5.31421 11.8218 5.34331 12.1939 5.3994 12.5572H4.24282C3.91145 12.5572 3.64282 12.2885 3.64282 11.9572V10.9286C3.64282 10.5972 3.91145 10.3286 4.24282 10.3286H5.39939C5.34331 10.6918 5.31421 11.0639 5.31421 11.4429Z" fill="white"/>
<path d="M19.7147 12.5572C19.7708 12.1939 19.7999 11.8218 19.7999 11.4429C19.7999 11.0639 19.7708 10.6918 19.7147 10.3286H20.8714C21.2028 10.3286 21.4714 10.5972 21.4714 10.9286V11.9572C21.4714 12.2885 21.2028 12.5572 20.8714 12.5572H19.7147Z" fill="white"/>
</svg>
