<svg width="24" height="24" viewBox="0 0 24 24" fill="none" xmlns="http://www.w3.org/2000/svg">
<path d="M0 12C0 5.37258 5.37258 0 12 0V0C18.6274 0 24 5.37258 24 12V12C24 18.6274 18.6274 24 12 24V24C5.37258 24 0 18.6274 0 12V12Z" fill="#E5DED6"/>
<path fill-rule="evenodd" clip-rule="evenodd" d="M12 19.8L11.5923 20.4295L11.5899 20.428L11.5853 20.425L11.5697 20.4147C11.5566 20.406 11.5378 20.3936 11.514 20.3776C11.4662 20.3454 11.3977 20.2987 11.3115 20.2382C11.1391 20.1173 10.8953 19.941 10.6038 19.7156C10.022 19.2659 9.2441 18.616 8.46346 17.8167C6.93608 16.2529 5.25 13.9674 5.25 11.4C5.25 7.6721 8.27208 4.65002 12 4.65002C15.7279 4.65002 18.75 7.6721 18.75 11.4C18.75 13.9674 17.0639 16.2529 15.5365 17.8167C14.7559 18.616 13.978 19.2659 13.3962 19.7156C13.1047 19.941 12.8609 20.1173 12.6885 20.2382C12.6023 20.2987 12.5338 20.3454 12.486 20.3776C12.4622 20.3936 12.4435 20.406 12.4303 20.4147L12.4147 20.425L12.4101 20.428L12.4077 20.4295L12 19.8ZM12 19.8C11.5923 20.4295 11.5925 20.4297 11.5923 20.4295L12 20.6936L12.4077 20.4295C12.4075 20.4297 12.4077 20.4295 12 19.8Z" fill="#2A2620"/>
<path d="M6.70517 7.22139L7.48462 6.16945L7.69025 7.12106L6.70517 7.22139Z" fill="#2A2620"/>
<path d="M19.2 10.2C19.2 14.7137 13.2 18.6 13.2 18.6C13.2 18.6 7.2 14.7137 7.2 10.2C7.2 6.8863 9.88629 4.20001 13.2 4.20001C16.5137 4.20001 19.2 6.8863 19.2 10.2Z" fill="white"/>
<path fill-rule="evenodd" clip-rule="evenodd" d="M12.6564 19.4393L13.2 18.6L13.7436 19.4393L13.2 19.7915L12.6564 19.4393ZM13.2 18.6C13.2 18.6 7.2 14.7137 7.2 10.2C7.2 6.8863 9.88629 4.20001 13.2 4.20001C16.5137 4.20001 19.2 6.8863 19.2 10.2C19.2 14.7137 13.2 18.6 13.2 18.6ZM13.7441 19.439C13.7439 19.4392 13.7436 19.4393 13.2 18.6C12.6564 19.4393 12.6561 19.4392 12.6559 19.439L12.6552 19.4386L12.6535 19.4375L12.6485 19.4342L12.632 19.4234C12.6183 19.4143 12.5989 19.4015 12.5744 19.385C12.5254 19.352 12.4556 19.3044 12.3679 19.2429C12.1928 19.12 11.9458 18.9414 11.6509 18.7134C11.0627 18.2587 10.2755 17.6011 9.48461 16.7914C7.94811 15.2182 6.2 12.8709 6.2 10.2C6.2 6.33402 9.33401 3.20001 13.2 3.20001C17.066 3.20001 20.2 6.33402 20.2 10.2C20.2 12.8709 18.4519 15.2182 16.9154 16.7914C16.1245 17.6011 15.3373 18.2587 14.7491 18.7134C14.4542 18.9414 14.2072 19.12 14.0321 19.2429C13.9444 19.3044 13.8746 19.352 13.8256 19.385C13.8011 19.4015 13.7817 19.4143 13.768 19.4234L13.7515 19.4342L13.7465 19.4375L13.7448 19.4386L13.7441 19.439Z" fill="#2A2620"/>
<path d="M15 10.2C15 11.1941 14.1941 12 13.2 12C12.2059 12 11.4 11.1941 11.4 10.2C11.4 9.20591 12.2059 8.40002 13.2 8.40002C14.1941 8.40002 15 9.20591 15 10.2Z" fill="#2A2620"/>
</svg>
