<svg width="24" height="24" viewBox="0 0 24 24" fill="none" xmlns="http://www.w3.org/2000/svg">
<path d="M0 12C0 5.37258 5.37258 0 12 0C18.6274 0 24 5.37258 24 12C24 18.6274 18.6274 24 12 24C5.37258 24 0 18.6274 0 12Z" fill="#E5DED6"/>
<path d="M7.69696 4.19995C7.3787 4.19995 7.07347 4.32638 6.84843 4.55142L5.75137 5.64848C5.52633 5.87352 5.3999 6.17875 5.3999 6.49701V18.6C5.3999 19.2627 5.93716 19.8 6.5999 19.8H16.3029C16.6212 19.8 16.9264 19.6735 17.1514 19.4485L18.2484 18.3515C18.4735 18.1264 18.5999 17.8212 18.5999 17.503V17.4218C18.6 17.4145 18.6001 17.4072 18.6001 17.4V5.39995C18.6001 4.73721 18.0628 4.19995 17.4001 4.19995H7.69696Z" fill="#2A2620"/>
<path fill-rule="evenodd" clip-rule="evenodd" d="M17.4001 5.19995H7.8001C7.68964 5.19995 7.6001 5.28949 7.6001 5.39995V17.4C7.6001 17.5104 7.68964 17.6 7.8001 17.6H17.4001C17.5106 17.6 17.6001 17.5104 17.6001 17.4V5.39995C17.6001 5.28949 17.5106 5.19995 17.4001 5.19995ZM9.9 8.69999C10.3971 8.69999 10.8 8.29705 10.8 7.79999C10.8 7.30294 10.3971 6.89999 9.9 6.89999C9.40294 6.89999 9 7.30294 9 7.79999C9 8.29705 9.40294 8.69999 9.9 8.69999ZM12 8.30003H16.2V7.30003H12V8.30003ZM12 11.9H16.2V10.9H12V11.9ZM16.2 15.5H12V14.5H16.2V15.5ZM9.9 12.3C10.3971 12.3 10.8 11.897 10.8 11.4C10.8 10.9029 10.3971 10.5 9.9 10.5C9.40294 10.5 9 10.9029 9 11.4C9 11.897 9.40294 12.3 9.9 12.3ZM10.8 15C10.8 15.497 10.3971 15.9 9.9 15.9C9.40294 15.9 9 15.497 9 15C9 14.5029 9.40294 14.1 9.9 14.1C10.3971 14.1 10.8 14.5029 10.8 15Z" fill="white"/>
</svg>
