<svg width="24" height="24" viewBox="0 0 24 24" fill="none" xmlns="http://www.w3.org/2000/svg">
<path d="M0 12C0 5.37258 5.37258 0 12 0C18.6274 0 24 5.37258 24 12C24 18.6274 18.6274 24 12 24C5.37258 24 0 18.6274 0 12Z" fill="#E5DED6"/>
<path d="M7.69696 4.19995C7.3787 4.19995 7.07347 4.32638 6.84843 4.55142L5.75137 5.64848C5.52633 5.87352 5.3999 6.17875 5.3999 6.49701V18.6C5.3999 19.2627 5.93716 19.7999 6.5999 19.7999H16.3029C16.6211 19.7999 16.9264 19.6735 17.1514 19.4485L18.2484 18.3514C18.4735 18.1264 18.5999 17.8212 18.5999 17.5029V17.4218C18.6 17.4145 18.6001 17.4072 18.6001 17.4V5.39995C18.6001 4.75785 18.0958 4.23356 17.4617 4.20151C17.4413 4.20048 17.4207 4.19995 17.4001 4.19995C17.4 4.19995 17.4002 4.19995 17.4001 4.19995H7.69696Z" fill="#2A2620"/>
<path fill-rule="evenodd" clip-rule="evenodd" d="M17.4001 5.19995H7.8001C7.68964 5.19995 7.6001 5.28949 7.6001 5.39995V17.4C7.6001 17.5104 7.68964 17.6 7.8001 17.6H17.4001C17.5106 17.6 17.6001 17.5104 17.6001 17.4V5.39995C17.6001 5.28949 17.5106 5.19995 17.4001 5.19995ZM10.7 7.79996C10.7 7.61057 10.5929 7.43744 10.4236 7.35275C10.2542 7.26805 10.0515 7.28633 9.89995 7.39996L8.69995 8.29996L9.29995 9.09996L9.69995 8.79996V14.2H8.99995V15.2H11.4V14.2H10.7V7.79996ZM15.5 7.79996C15.5 7.61057 15.3929 7.43744 15.2236 7.35275C15.0542 7.26805 14.8515 7.28633 14.7 7.39996L13.5 8.29996L14.1 9.09996L14.5 8.79996V14.2H13.8V15.2H16.2V14.2H15.5V7.79996ZM13.2 12.3C13.2 12.6313 12.9313 12.9 12.6 12.9C12.2686 12.9 12 12.6313 12 12.3C12 11.9686 12.2686 11.7 12.6 11.7C12.9313 11.7 13.2 11.9686 13.2 12.3ZM12.6 11.1C12.9313 11.1 13.2 10.8314 13.2 10.5C13.2 10.1686 12.9313 9.9 12.6 9.9C12.2686 9.9 12 10.1686 12 10.5C12 10.8314 12.2686 11.1 12.6 11.1Z" fill="white"/>
</svg>
