<svg width="24" height="24" viewBox="0 0 24 24" fill="none" xmlns="http://www.w3.org/2000/svg">
<path d="M0 12C0 5.37258 5.37258 0 12 0V0C18.6274 0 24 5.37258 24 12V12C24 18.6274 18.6274 24 12 24V24C5.37258 24 0 18.6274 0 12V12Z" fill="#E5DED6"/>
<path d="M16.9051 6.40974L18.2701 6.11959C19.0181 5.9606 19.7534 6.43807 19.9124 7.18607L21.3134 13.7773C21.4266 14.3099 21.2171 14.8361 20.817 15.1523L19.1984 16.7709C19.0053 17.0151 18.7291 17.1959 18.4007 17.2657L7.11442 19.6647C6.36643 19.8236 5.63117 19.3462 5.47218 18.5982L4.07118 12.007C3.95577 11.464 4.17572 10.9278 4.59106 10.6138L6.16793 9.0369C6.36173 8.78081 6.64503 8.59058 6.98382 8.51857L7.18894 8.47497L8.0961 6.3602C8.26004 5.97804 8.50314 5.66265 8.79548 5.4204L10.317 3.89888C11.1992 2.83414 12.8542 2.66088 13.9387 3.66456L16.9051 6.40974Z" fill="#2A2620"/>
<path d="M12.4586 5.26393C12.2956 5.1131 12.0324 5.16905 11.9449 5.37313L10.958 7.67384L9.67516 7.94651L10.9602 4.95074C11.3396 4.06639 12.4801 3.82397 13.1863 4.47757L15.5788 6.69165L14.296 6.96432L12.4586 5.26393Z" fill="white"/>
<path d="M18.7358 7.20019L6.99798 9.69513L8.49494 16.7378L20.2327 14.2429L18.7358 7.20019Z" fill="white"/>
</svg>
