<svg width="24" height="24" viewBox="0 0 24 24" fill="none" xmlns="http://www.w3.org/2000/svg">
<path d="M0 12C0 5.37258 5.37258 0 12 0C18.6274 0 24 5.37258 24 12C24 18.6274 18.6274 24 12 24C5.37258 24 0 18.6274 0 12Z" fill="#E5DED6"/>
<path d="M9.82861 13.6714H10.8286V9.2143H9.82861V13.6714Z" fill="#2A2620"/>
<path d="M13.0571 8.10001H12.0571V14.7857H13.0571V8.10001Z" fill="#2A2620"/>
<path d="M14.2856 13.6714H15.2856V9.2143H14.2856V13.6714Z" fill="#2A2620"/>
<path fill-rule="evenodd" clip-rule="evenodd" d="M19.1566 14.5072C18.7289 15.4417 18.0977 16.2723 17.2928 17.0143C15.823 18.6088 13.7267 19.8 11.4428 19.8C8.11829 19.8 5.31692 17.5601 4.46548 14.5072H3.08573C2.31647 14.5072 1.69287 13.8836 1.69287 13.1143V12C1.69287 11.4179 2.00792 10.8284 2.41797 10.4244C2.40441 10.4388 2.43152 10.4099 2.41797 10.4244C2.86487 9.9468 3.55108 9.3286 4.24282 9.3286H4.96742C5.33768 8.6347 5.83201 7.98012 6.42852 7.2643C8.07271 5.29127 10.2732 4.20001 12.5571 4.20001C15.8217 4.20001 18.5818 6.35988 19.4865 9.3286H20.8714C21.755 9.3286 22.4714 10.0449 22.4714 10.9286V11.9572C22.4714 12.5781 22.003 13.0886 21.6094 13.4766C20.8252 14.2495 20.4588 14.5072 19.8 14.5072H19.1566ZM18.6731 12.701C18.091 15.5458 15.5739 17.6857 12.5571 17.6857C9.48957 17.6857 6.9388 15.4733 6.41337 12.5572C6.34822 12.1956 6.31421 11.8232 6.31421 11.4429C6.31421 11.0625 6.34822 10.6902 6.41336 10.3286C6.42204 10.2804 6.43127 10.2325 6.44104 10.1847C7.02316 7.33995 9.54021 5.20001 12.5571 5.20001C15.6246 5.20001 18.1754 7.41242 18.7008 10.3286C18.7659 10.6902 18.7999 11.0625 18.7999 11.4429C18.7999 11.8232 18.7659 12.1956 18.7008 12.5572C18.6921 12.6053 18.6829 12.6533 18.6731 12.701ZM5.3994 12.5572C5.34331 12.1939 5.31421 11.8218 5.31421 11.4429C5.31421 11.0639 5.34331 10.6918 5.39939 10.3286H4.24282C3.91145 10.3286 3.64282 10.5972 3.64282 10.9286V11.9572C3.64282 12.2885 3.91145 12.5572 4.24282 12.5572H5.3994ZM19.7147 12.5572C19.7708 12.1939 19.7999 11.8218 19.7999 11.4429C19.7999 11.0639 19.7708 10.6918 19.7147 10.3286H20.8714C21.2028 10.3286 21.4714 10.5972 21.4714 10.9286V11.9572C21.4714 12.2885 21.2028 12.5572 20.8714 12.5572H19.7147Z" fill="#2A2620"/>
<path fill-rule="evenodd" clip-rule="evenodd" d="M12.5571 17.6857C15.5739 17.6857 18.091 15.5458 18.6731 12.701C18.6829 12.6533 18.6921 12.6053 18.7008 12.5572C18.7659 12.1956 18.7999 11.8232 18.7999 11.4429C18.7999 11.0625 18.7659 10.6902 18.7008 10.3286C18.1754 7.41242 15.6246 5.20001 12.5571 5.20001C9.54021 5.20001 7.02316 7.33995 6.44104 10.1847C6.43127 10.2325 6.42204 10.2804 6.41336 10.3286C6.34822 10.6902 6.31421 11.0625 6.31421 11.4429C6.31421 11.8232 6.34822 12.1956 6.41337 12.5572C6.9388 15.4733 9.48957 17.6857 12.5571 17.6857ZM9.82861 9.2143H10.8286V13.6714H9.82861V9.2143ZM13.0571 14.7857H12.0571V8.10001H13.0571V14.7857ZM14.2856 9.2143H15.2856V13.6714H14.2856V9.2143Z" fill="white"/>
<path d="M5.31421 11.4429C5.31421 11.8218 5.34331 12.1939 5.3994 12.5572H4.24282C3.91145 12.5572 3.64282 12.2885 3.64282 11.9572V10.9286C3.64282 10.5972 3.91145 10.3286 4.24282 10.3286H5.39939C5.34331 10.6918 5.31421 11.0639 5.31421 11.4429Z" fill="white"/>
<path d="M19.7999 11.4429C19.7999 11.8218 19.7708 12.1939 19.7147 12.5572H20.8714C21.2028 12.5572 21.4714 12.2885 21.4714 11.9572V10.9286C21.4714 10.5972 21.2028 10.3286 20.8714 10.3286H19.7147C19.7708 10.6918 19.7999 11.0639 19.7999 11.4429Z" fill="white"/>
</svg>
