<svg width="24" height="24" viewBox="0 0 24 24" fill="none" xmlns="http://www.w3.org/2000/svg">
<path d="M0 12C0 5.37258 5.37258 0 12 0C18.6274 0 24 5.37258 24 12C24 18.6274 18.6274 24 12 24C5.37258 24 0 18.6274 0 12Z" fill="#E5DED6"/>
<path d="M18.1499 10.5H16.3499V12.3H18.1499V10.5Z" fill="#2A2620"/>
<path d="M16.3499 15.3V13.5H18.1499V15.3H16.3499Z" fill="#2A2620"/>
<path d="M10.95 10.5H12.75V12.3H10.95V10.5Z" fill="#2A2620"/>
<path d="M10.95 13.5V15.3H12.75V13.5H10.95Z" fill="#2A2620"/>
<path d="M7.94995 10.5H9.74995V12.3H7.94995V10.5Z" fill="#2A2620"/>
<path d="M10.95 7.5V9.3H12.75V7.5H10.95Z" fill="#2A2620"/>
<path d="M7.94995 7.5H9.74995V9.3H7.94995V7.5Z" fill="#2A2620"/>
<path d="M7.94995 13.5V15.3H9.74995V13.5H7.94995Z" fill="#2A2620"/>
<path fill-rule="evenodd" clip-rule="evenodd" d="M6.04715 4.79999C5.72889 4.79999 5.42367 4.92642 5.19863 5.15146L4.70157 5.64852C4.47653 5.87356 4.3501 6.17878 4.3501 6.49704V18C4.3501 18.6627 4.88736 19.2 5.5501 19.2H18.553C18.8713 19.2 19.1765 19.0736 19.4016 18.8485L19.8986 18.3515C20.1237 18.1264 20.2501 17.8212 20.2501 17.5029V16.8081L20.2501 16.8V8.99999C20.2501 8.33725 19.7129 7.79999 19.0501 7.79999H15.6143C15.4497 7.79999 15.2929 7.83312 15.1501 7.89307V5.99999C15.1501 5.33725 14.6128 4.79999 13.9501 4.79999H6.04715ZM15.6143 8.79999H19.0499C19.1603 8.79999 19.2501 8.88953 19.2501 8.99999V9.61658C19.25 9.61657 19.2502 9.6166 19.2501 9.61658L19.2499 16.8C19.2499 16.9104 19.1603 17 19.0499 17H15.6141C15.5036 17 15.4141 16.9104 15.4141 16.8V8.99999C15.4141 8.88953 15.5038 8.79999 15.6143 8.79999ZM6.7498 5.79999H13.9498C14.0603 5.79999 14.1498 5.88953 14.1498 5.99999V16.8C14.1498 16.9104 14.0603 17 13.9498 17H6.7498C6.63935 17 6.5498 16.9104 6.5498 16.8V5.99999C6.5498 5.88953 6.63935 5.79999 6.7498 5.79999Z" fill="#2A2620"/>
<path fill-rule="evenodd" clip-rule="evenodd" d="M6.7498 5.79999H13.9498C14.0603 5.79999 14.1498 5.88953 14.1498 5.99999V16.8C14.1498 16.9104 14.0603 17 13.9498 17H6.7498C6.63935 17 6.5498 16.9104 6.5498 16.8V5.99999C6.5498 5.88953 6.63935 5.79999 6.7498 5.79999ZM10.95 10.5H12.75V12.3H10.95V10.5ZM10.95 13.5V15.3H12.75V13.5H10.95ZM7.94995 10.5H9.74995V12.3H7.94995V10.5ZM10.95 7.5V9.3H12.75V7.5H10.95ZM7.94995 7.5H9.74995V9.3H7.94995V7.5ZM7.94995 13.5V15.3H9.74995V13.5H7.94995Z" fill="white"/>
<path fill-rule="evenodd" clip-rule="evenodd" d="M15.6141 8.79999H19.0499C19.1603 8.79999 19.2499 8.88953 19.2499 8.99999V16.8C19.2499 16.9104 19.1603 17 19.0499 17H15.6141C15.5036 17 15.4141 16.9104 15.4141 16.8V8.99999C15.4141 8.88953 15.5036 8.79999 15.6141 8.79999ZM16.3499 10.5H18.1499V12.3H16.3499V10.5ZM16.3499 13.5V15.3H18.1499V13.5H16.3499Z" fill="white"/>
</svg>
