<svg width="24" height="24" viewBox="0 0 24 24" fill="none" xmlns="http://www.w3.org/2000/svg">
<path d="M0 12C0 5.37258 5.37258 0 12 0C18.6274 0 24 5.37258 24 12C24 18.6274 18.6274 24 12 24C5.37258 24 0 18.6274 0 12Z" fill="#E5DED6"/>
<path fill-rule="evenodd" clip-rule="evenodd" d="M10.7177 3.9375C12.5022 3.9375 14.017 5.09253 14.555 6.6958C14.5956 6.6449 14.6378 6.59363 14.6812 6.54163C15.3381 5.75317 16.2176 5.31702 17.1302 5.31702C18.7289 5.31702 20.0247 6.61304 20.0247 8.21155C20.0247 9.12415 19.66 9.85071 19.0228 10.4377L19.0178 10.4432C20.3708 11.113 21.3482 12.5273 21.5106 14.2068C21.5412 14.5236 21.4081 14.8297 21.183 15.0546L21.1067 15.1307C20.8817 15.356 20.5764 15.4823 20.2582 15.4823H16.6995C16.779 15.8324 16.8328 16.1935 16.8583 16.5634C16.8801 16.8809 16.7488 17.187 16.5237 17.4119L16.1372 17.7986C15.9122 18.0234 15.6069 18.1501 15.2887 18.1501H4.40106C4.06982 18.1501 3.79828 17.8806 3.82904 17.5507C4.0105 15.6064 5.0542 13.9259 6.30627 12.7046C6.45441 12.5409 6.63001 12.371 6.82813 12.2014L6.87463 12.1619C7.06067 12.0055 7.26556 11.8499 7.48584 11.7004C7.29358 11.5378 7.11652 11.358 6.9574 11.1628L6.95282 11.157C6.38721 10.4612 6.04828 9.57349 6.04828 8.60669C6.04828 7.33081 6.5152 6.58337 7.2934 5.64954C8.21204 4.54724 9.44159 3.9375 10.7177 3.9375ZM13.9583 10.4436C14.0388 10.3363 14.1137 10.2261 14.1829 10.1129C14.3505 10.4 14.5662 10.656 14.8188 10.8691C14.5153 11.0757 14.2521 11.2976 14.0485 11.5089L14.0306 11.4968L14.0163 11.4873C13.8149 11.3522 13.6056 11.2299 13.3893 11.1211L13.3566 11.1046L13.3635 11.0973C13.4384 11.0281 13.5106 10.9578 13.58 10.886C13.6902 10.7721 13.7933 10.6545 13.889 10.5333L13.9583 10.4436Z" fill="#2A2620"/>
<path d="M13.2004 11.0736C14.0672 10.3461 14.6183 9.25463 14.6183 8.03444C14.6183 5.84417 12.8427 4.0686 10.6524 4.0686C8.46216 4.0686 6.6866 5.84417 6.6866 8.03444C6.6866 9.31263 7.29129 10.4496 8.23021 11.1749C6.28266 12.2177 4.94202 14.4026 4.94202 16.9291H16.099C16.4237 16.9291 16.6896 16.6651 16.6626 16.3415C16.4661 13.9841 15.0989 11.9956 13.2004 11.0736Z" fill="white"/>
<path fill-rule="evenodd" clip-rule="evenodd" d="M12.1717 11.7337C11.701 11.9254 11.186 12.031 10.6464 12.031C8.41144 12.031 6.59964 10.2192 6.59964 7.98427C6.59964 5.7493 8.41144 3.9375 10.6464 3.9375C12.8814 3.9375 14.6932 5.7493 14.6932 7.98427C14.6932 9.22939 14.1308 10.3432 13.2463 11.0855C15.1835 12.0263 16.5786 14.0554 16.7791 16.4609C16.8067 16.7911 16.5354 17.0605 16.204 17.0605H4.81934C4.81934 16.7205 4.84313 16.3865 4.88901 16.0605C5.19097 13.9146 6.44948 12.1126 8.17472 11.1888C8.50519 11.444 8.87625 11.6493 9.27655 11.7933C7.57535 12.4064 6.23346 14.0114 5.89956 16.0605H15.7231C15.376 13.9382 13.9551 12.2962 12.1717 11.7337ZM13.6932 7.98427C13.6932 9.66695 12.3291 11.031 10.6464 11.031C8.96372 11.031 7.59964 9.66695 7.59964 7.98427C7.59964 6.30158 8.96372 4.9375 10.6464 4.9375C12.3291 4.9375 13.6932 6.30158 13.6932 7.98427Z" fill="#2A2620"/>
</svg>
