<svg width="24" height="24" viewBox="0 0 24 24" fill="none" xmlns="http://www.w3.org/2000/svg">
<path d="M0 12C0 5.37258 5.37258 0 12 0V0C18.6274 0 24 5.37258 24 12V12C24 18.6274 18.6274 24 12 24V24C5.37258 24 0 18.6274 0 12V12Z" fill="#E5DED6"/>
<path fill-rule="evenodd" clip-rule="evenodd" d="M7.10651 5.59006C8.56878 3.99793 10.6679 3 13 3C17.4183 3 21 6.58172 21 11C21 13.9328 19.3765 15.9282 17.4296 17.8752V17.8703C15.9659 19.4855 13.8514 20.5 11.5 20.5C7.08172 20.5 3.5 16.9183 3.5 12.5C3.5 9.54513 5.14748 7.54915 7.10651 5.59006Z" fill="#2A2620"/>
<path d="M17.5698 15.9679C18.9102 14.7343 19.75 12.9652 19.75 11C19.75 7.27208 16.7279 4.25 13 4.25C9.27208 4.25 6.25 7.27208 6.25 11C6.25 12.9652 7.08984 14.7343 8.4302 15.9679C8.99568 14.6982 10.0748 13.7076 11.4036 13.2603C10.3687 12.6946 9.66667 11.5959 9.66667 10.3333C9.66667 8.49238 11.1591 7 13 7C14.841 7 16.3333 8.49238 16.3333 10.3333C16.3333 11.5959 15.6313 12.6946 14.5964 13.2603C15.9252 13.7076 17.0043 14.6982 17.5698 15.9679Z" fill="white"/>
</svg>
