<svg width="24" height="24" viewBox="0 0 24 24" fill="none" xmlns="http://www.w3.org/2000/svg">
<path d="M0 12C0 5.37258 5.37258 0 12 0C18.6274 0 24 5.37258 24 12C24 18.6274 18.6274 24 12 24C5.37258 24 0 18.6274 0 12Z" fill="#E5DED6"/>
<path d="M17.483 17.483C19.2617 16.0534 20.4001 13.8597 20.4001 11.4001C20.4001 7.09228 16.9079 3.6001 12.6001 3.6001C10.1405 3.6001 7.94682 4.73853 6.5172 6.5172C5.1001 8.1001 3.6001 10.1405 3.6001 12.6001C3.6001 16.9079 7.09228 20.4001 11.4001 20.4001C13.8597 20.4001 15.6001 18.9001 17.483 17.483Z" fill="#2A2620"/>
<path d="M19.4 11.4001C19.4 15.1556 16.3556 18.2001 12.6 18.2001C8.84451 18.2001 5.80005 15.1556 5.80005 11.4001C5.80005 7.64456 8.84451 4.6001 12.6 4.6001C16.3556 4.6001 19.4 7.64456 19.4 11.4001Z" fill="white"/>
<path d="M11.9756 13.1361V13.0902C11.9806 12.6033 12.0316 12.2158 12.1285 11.9277C12.2254 11.6396 12.3631 11.4064 12.5415 11.2279C12.72 11.0495 12.9341 10.885 13.184 10.7346C13.3344 10.6428 13.4695 10.5345 13.5893 10.4096C13.7091 10.2821 13.8035 10.1355 13.8723 9.96978C13.9437 9.80407 13.9794 9.62052 13.9794 9.41911C13.9794 9.16927 13.9207 8.95258 13.8035 8.76902C13.6862 8.58546 13.5294 8.44397 13.3331 8.34454C13.1368 8.24512 12.9188 8.1954 12.6792 8.1954C12.4701 8.1954 12.2687 8.23874 12.075 8.32542C11.8812 8.4121 11.7193 8.5485 11.5893 8.7346C11.4593 8.92071 11.3841 9.16417 11.3637 9.465H10.4C10.4204 9.03161 10.5326 8.66067 10.7365 8.35219C10.943 8.04372 11.2146 7.8079 11.5511 7.64474C11.8901 7.48157 12.2662 7.39999 12.6792 7.39999C13.1279 7.39999 13.5179 7.48922 13.8494 7.66768C14.1833 7.84614 14.4408 8.09088 14.6218 8.40191C14.8054 8.71293 14.8972 9.0673 14.8972 9.465C14.8972 9.74544 14.8538 9.9991 14.7671 10.226C14.683 10.4529 14.5606 10.6556 14.4 10.834C14.242 11.0125 14.0508 11.1705 13.8264 11.3082C13.6021 11.4484 13.4223 11.5963 13.2872 11.7518C13.1521 11.9048 13.0539 12.0871 12.9928 12.2987C12.9316 12.5103 12.8984 12.7741 12.8933 13.0902V13.1361H11.9756ZM12.465 15.4C12.2764 15.4 12.1145 15.3324 11.9794 15.1973C11.8443 15.0622 11.7767 14.9003 11.7767 14.7117C11.7767 14.523 11.8443 14.3611 11.9794 14.226C12.1145 14.0909 12.2764 14.0233 12.465 14.0233C12.6537 14.0233 12.8156 14.0909 12.9507 14.226C13.0858 14.3611 13.1534 14.523 13.1534 14.7117C13.1534 14.8366 13.1215 14.9513 13.0578 15.0558C12.9966 15.1604 12.9137 15.2445 12.8092 15.3082C12.7072 15.3694 12.5925 15.4 12.465 15.4Z" fill="#2A2620"/>
</svg>
