<svg width="24" height="24" viewBox="0 0 24 24" fill="none" xmlns="http://www.w3.org/2000/svg">
<path d="M0 12C0 5.37258 5.37258 0 12 0C18.6274 0 24 5.37258 24 12C24 18.6274 18.6274 24 12 24C5.37258 24 0 18.6274 0 12Z" fill="#E5DED6"/>
<path fill-rule="evenodd" clip-rule="evenodd" d="M14.6407 4.97266C14.7694 4.70069 14.8414 4.39665 14.8414 4.07579C14.8414 2.91638 13.9015 1.9765 12.7421 1.9765C12.0989 1.9765 11.5232 2.26579 11.1381 2.72136L10.0081 3.8514C9.55347 4.23647 9.26486 4.81153 9.26486 5.454C9.26486 5.58687 9.27721 5.71685 9.30081 5.84287C9.08534 6.01529 8.88309 6.20354 8.69583 6.40586L7.61607 7.48562C6.531 8.49231 5.85197 9.9306 5.85196 11.5275L5.85188 13.5944L4.08879 18.296C3.9417 18.6882 4.23167 19.1067 4.65059 19.1067H9.53998C9.92061 20.0572 10.8503 20.7286 11.9368 20.7286C13.0233 20.7286 14.1568 20.0572 14.6344 19.1067H18.0776C18.3044 19.1067 18.4933 18.9841 18.5957 18.8094L19.7232 17.6819C19.9999 17.5654 20.1621 17.2486 20.0595 16.9395L18.2543 11.5H18.2336V10.6308C18.2374 10.5873 18.2406 10.5437 18.2434 10.5C18.2507 10.384 18.2543 10.267 18.2543 10.1492C18.2543 7.77206 16.7496 5.74638 14.6407 4.97266ZM13.6403 4.70977C13.348 4.66187 13.048 4.63696 12.7421 4.63696C12.4363 4.63696 12.1362 4.66187 11.8439 4.70977C11.8281 4.68738 11.8131 4.66437 11.7989 4.64078C11.6998 4.47567 11.6428 4.28238 11.6428 4.07579C11.6428 3.82757 11.7251 3.59856 11.8639 3.41455C12.0645 3.14849 12.3832 2.9765 12.7421 2.9765C13.3492 2.9765 13.8414 3.46867 13.8414 4.07579C13.8414 4.3119 13.767 4.53062 13.6403 4.70977ZM6.54821 16.7285L7.87962 12.7164L17.6042 12.7164L18.9359 16.7285H6.54821ZM13.9423 5.79837C13.5601 5.69316 13.1576 5.63696 12.742 5.63696C10.25 5.63696 8.22976 7.65716 8.22976 10.1492C8.22976 10.2779 8.23513 10.4052 8.24561 10.5308L8.24908 10.5723V11.7164L17.2335 11.7164L17.2336 10.5876L17.2373 10.5446C17.2486 10.4145 17.2543 10.2826 17.2543 10.1492C17.2543 8.07276 15.8517 6.32393 13.9423 5.79837C13.9423 5.79836 13.9423 5.79837 13.9423 5.79837ZM11.0925 17.6875C11.0922 17.7011 11.092 17.7148 11.092 17.7286C11.092 18.6398 11.8308 19.3786 12.742 19.3786C13.6533 19.3786 14.392 18.6398 14.392 17.7286C14.392 17.7148 14.3919 17.7011 14.3915 17.6875H11.0925Z" fill="#2A2620"/>
<path d="M13.6403 4.70977C13.348 4.66187 13.048 4.63696 12.7421 4.63696C12.4363 4.63696 12.1362 4.66187 11.8439 4.70977C11.7173 4.53062 11.6428 4.3119 11.6428 4.07579C11.6428 3.82757 11.7251 3.59856 11.8639 3.41455C12.0645 3.14849 12.3832 2.9765 12.7421 2.9765C13.3492 2.9765 13.8414 3.46867 13.8414 4.07579C13.8414 4.3119 13.767 4.53062 13.6403 4.70977Z" fill="white"/>
<path d="M17.2372 10.5446L17.2335 10.5876V11.7164L8.24908 11.7164V10.5723L8.24561 10.5308C8.23513 10.4052 8.22976 10.2779 8.22976 10.1492C8.22976 7.65716 10.25 5.63696 12.742 5.63696C15.234 5.63696 17.2542 7.65716 17.2542 10.1492C17.2542 10.2826 17.2485 10.4145 17.2372 10.5446Z" fill="white"/>
<path d="M7.87962 12.7164L6.5481 16.7285H18.9357L17.6042 12.7164L7.87962 12.7164Z" fill="white"/>
<path d="M11.092 17.7286C11.092 17.7148 11.0922 17.7011 11.0925 17.6875H14.3915C14.3919 17.7011 14.392 17.7148 14.392 17.7286C14.392 18.6398 13.6533 19.3786 12.742 19.3786C11.8308 19.3786 11.092 18.6398 11.092 17.7286Z" fill="white"/>
</svg>
