<svg width="24" height="24" viewBox="0 0 24 24" fill="none" xmlns="http://www.w3.org/2000/svg">
<path d="M0 12C0 5.37258 5.37258 0 12 0C18.6274 0 24 5.37258 24 12C24 18.6274 18.6274 24 12 24C5.37258 24 0 18.6274 0 12Z" fill="#E5DED6"/>
<path fill-rule="evenodd" clip-rule="evenodd" d="M12.628 2.69995C13.2325 2.70731 13.8108 2.95079 14.2388 3.37877L14.4618 3.60172C14.6527 3.79267 14.9117 3.89995 15.1818 3.89995C15.5951 3.89995 15.9509 4.14621 16.1104 4.5H17.3999C18.0626 4.5 18.5999 5.03726 18.5999 5.7V17.8029C18.5999 18.1212 18.4735 18.4264 18.2484 18.6515L17.1514 19.7485C16.9263 19.9736 16.6211 20.1 16.3028 20.1H6.5999C5.93716 20.1 5.3999 19.5627 5.3999 18.9V6.79706C5.3999 6.4788 5.52633 6.17357 5.75137 5.94853L6.84843 4.85147C7.07347 4.62643 7.3787 4.5 7.69696 4.5H8.48946C8.64903 4.14621 9.00482 3.89995 9.41814 3.89995C9.68819 3.89995 9.94718 3.79267 10.1381 3.60172L10.2399 3.49995C10.7521 2.98772 11.4469 2.69995 12.1713 2.69995H12.628ZM9 5.5H7.8001C7.68964 5.5 7.6001 5.58954 7.6001 5.7V17.7C7.6001 17.8105 7.68964 17.9 7.8001 17.9H17.4001C17.5106 17.9 17.6001 17.8105 17.6001 17.7V5.7C17.6001 5.58954 17.5106 5.5 17.4001 5.5H16.2V6.29995H9V5.5Z" fill="#2A2620"/>
<path d="M9 5.5H7.8001C7.68964 5.5 7.6001 5.58954 7.6001 5.7V17.7C7.6001 17.8105 7.68964 17.9 7.8001 17.9H17.4001C17.5106 17.9 17.6001 17.8105 17.6001 17.7V5.7C17.6001 5.58954 17.5106 5.5 17.4001 5.5H16.2V6.29995H9V5.5Z" fill="white"/>
<path d="M11.4453 4.30882L11.6683 4.08588C11.9154 3.83877 12.2505 3.69995 12.6 3.69995C12.9495 3.69995 13.2846 3.83877 13.5317 4.08588L13.7547 4.30882C14.1332 4.68732 14.6465 4.89995 15.1818 4.89995C15.1861 4.89995 15.1886 4.90097 15.1886 4.90097C15.1886 4.90097 15.1923 4.90292 15.1947 4.90529C15.197 4.90767 15.199 4.91139 15.199 4.91139C15.199 4.91139 15.2 4.91382 15.2 4.91818V5.29995H10V4.91818C10 4.91382 10.001 4.91139 10.001 4.91139C10.001 4.91139 10.003 4.90767 10.0053 4.90529C10.0077 4.90292 10.0114 4.90097 10.0114 4.90097C10.0114 4.90097 10.0139 4.89995 10.0182 4.89995C10.5535 4.89995 11.0668 4.68732 11.4453 4.30882Z" fill="white"/>
<path d="M12.6 8L13.7755 10.382L16.4042 10.7639L14.5021 12.618L14.9511 15.2361L12.6 14L10.2488 15.2361L10.6979 12.618L8.79575 10.7639L11.4244 10.382L12.6 8Z" fill="#2A2620"/>
</svg>
