<svg width="24" height="24" viewBox="0 0 24 24" fill="none" xmlns="http://www.w3.org/2000/svg">
<path d="M0 12C0 5.37258 5.37258 0 12 0C18.6274 0 24 5.37258 24 12C24 18.6274 18.6274 24 12 24C5.37258 24 0 18.6274 0 12Z" fill="#E5DED6"/>
<path fill-rule="evenodd" clip-rule="evenodd" d="M16.6927 8.43068C16.6927 8.5927 16.7141 8.74973 16.7543 8.89908L16.2606 9.28202C15.9308 8.9075 15.4477 8.6712 14.9094 8.6712C14.1935 8.6712 13.7149 9.08036 13.124 9.6712L11.017 8.84263C11.0595 8.68933 11.0822 8.5278 11.0822 8.36097C11.0822 7.36686 10.2763 6.56097 9.28218 6.56097C8.8335 6.56097 8.42316 6.72432 8.10795 6.99586L8.10186 7.00195C8.03821 7.05728 7.97848 7.117 7.92315 7.18066L6.9009 8.20291C6.52186 8.53291 6.28228 9.01898 6.28228 9.56101C6.28228 9.6219 6.2853 9.68208 6.29121 9.74142C6.05424 9.62659 5.78828 9.56219 5.50728 9.56219C5.0451 9.56219 4.62361 9.73638 4.30487 10.0227V10.0205L4.27825 10.0471C4.2486 10.0748 4.21989 10.1035 4.19216 10.1332L3.0771 11.2482C2.72644 11.5767 2.50732 12.0439 2.50732 12.5622C2.50732 13.4047 3.08615 14.112 3.86782 14.3082V17.1213C3.86782 17.4527 4.13644 17.7213 4.46782 17.7213H18.3322C18.5086 17.7213 18.6673 17.6452 18.777 17.524L19.937 16.364C19.9501 16.352 19.9628 16.3394 19.9748 16.3262L19.9887 16.3123H19.9871C20.0774 16.2073 20.132 16.0707 20.132 15.9213V9.27344C21.0564 8.51562 21.4926 8.04287 21.4926 7.23066C21.4926 6.23655 20.6867 5.43066 19.6926 5.43066C19.1782 5.43066 18.7143 5.64639 18.3863 5.9923L17.2511 7.12743C17.2301 7.14748 17.2095 7.16804 17.1895 7.18908L17.1875 7.19116C16.8809 7.51394 16.6927 7.95033 16.6927 8.43068ZM19.132 8.9417C18.9571 8.88442 18.794 8.80107 18.6473 8.69623L16.6911 10.2137C16.7031 10.2978 16.7094 10.3838 16.7094 10.4712C16.7094 11.4653 15.9035 12.2712 14.9094 12.2712C13.9935 12.2712 13.2373 11.5871 13.124 10.702L10.4764 9.70783C10.1586 9.98978 9.7404 10.161 9.28218 10.161C8.93543 10.161 8.61159 10.063 8.33686 9.89308L7.20364 10.7588C7.27074 10.9474 7.30728 11.1506 7.30728 11.3622C7.30728 12.1607 6.78738 12.8377 6.06763 13.0733V15.5213H19.132V8.9417ZM15.7094 10.4712C15.7094 10.913 15.3512 11.2712 14.9094 11.2712C14.4675 11.2712 14.1094 10.913 14.1094 10.4712C14.1094 10.0294 14.4675 9.6712 14.9094 9.6712C15.3512 9.6712 15.7094 10.0294 15.7094 10.4712ZM19.6926 8.03066C20.1344 8.03066 20.4926 7.67249 20.4926 7.23066C20.4926 6.78884 20.1344 6.43066 19.6926 6.43066C19.2507 6.43066 18.8926 6.78884 18.8926 7.23066C18.8926 7.67249 19.2507 8.03066 19.6926 8.03066ZM10.0822 8.36097C10.0822 8.8028 9.72401 9.16097 9.28218 9.16097C8.84035 9.16097 8.48218 8.8028 8.48218 8.36097C8.48218 7.91915 8.84035 7.56097 9.28218 7.56097C9.72401 7.56097 10.0822 7.91915 10.0822 8.36097ZM5.50728 12.1622C5.9491 12.1622 6.30728 11.804 6.30728 11.3622C6.30728 10.9204 5.9491 10.5622 5.50728 10.5622C5.06545 10.5622 4.70728 10.9204 4.70728 11.3622C4.70728 11.804 5.06545 12.1622 5.50728 12.1622Z" fill="#2A2620"/>
<path d="M15.7094 10.4712C15.7094 10.913 15.3512 11.2712 14.9094 11.2712C14.4675 11.2712 14.1094 10.913 14.1094 10.4712C14.1094 10.0294 14.4675 9.6712 14.9094 9.6712C15.3512 9.6712 15.7094 10.0294 15.7094 10.4712Z" fill="white"/>
<path d="M20.4926 7.23066C20.4926 7.67249 20.1344 8.03066 19.6926 8.03066C19.2508 8.03066 18.8926 7.67249 18.8926 7.23066C18.8926 6.78884 19.2508 6.43066 19.6926 6.43066C20.1344 6.43066 20.4926 6.78884 20.4926 7.23066Z" fill="white"/>
<path d="M10.0822 8.36097C10.0822 8.8028 9.72401 9.16097 9.28218 9.16097C8.84035 9.16097 8.48218 8.8028 8.48218 8.36097C8.48218 7.91915 8.84035 7.56097 9.28218 7.56097C9.72401 7.56097 10.0822 7.91915 10.0822 8.36097Z" fill="white"/>
<path d="M6.30728 11.3622C6.30728 11.804 5.9491 12.1622 5.50728 12.1622C5.06545 12.1622 4.70728 11.804 4.70728 11.3622C4.70728 10.9204 5.06545 10.5622 5.50728 10.5622C5.9491 10.5622 6.30728 10.9204 6.30728 11.3622Z" fill="white"/>
<path d="M18.6473 8.69623C18.794 8.80107 18.9571 8.88442 19.132 8.9417V15.5213H6.06763V13.0733C6.78738 12.8377 7.30728 12.1607 7.30728 11.3622C7.30728 11.1506 7.27074 10.9474 7.20364 10.7588L8.33686 9.89308C8.61159 10.063 8.93543 10.161 9.28218 10.161C9.7404 10.161 10.1586 9.98978 10.4764 9.70783L13.124 10.702C13.2373 11.5871 13.9935 12.2712 14.9094 12.2712C15.9035 12.2712 16.7094 11.4653 16.7094 10.4712C16.7094 10.3838 16.7031 10.2978 16.6911 10.2137L18.6473 8.69623Z" fill="white"/>
</svg>
