<svg width="24" height="24" viewBox="0 0 24 24" fill="none" xmlns="http://www.w3.org/2000/svg">
<path d="M0 12C0 5.37258 5.37258 0 12 0C18.6274 0 24 5.37258 24 12C24 18.6274 18.6274 24 12 24C5.37258 24 0 18.6274 0 12Z" fill="#E5DED6"/>
<path fill-rule="evenodd" clip-rule="evenodd" d="M15.2206 10.1298C14.8529 9.76222 14.2569 9.76222 13.8893 10.1298C13.5217 10.4975 13.5217 11.0935 13.8893 11.4611C14.2569 11.8287 14.8529 11.8287 15.2206 11.4611C15.5882 11.0935 15.5882 10.4975 15.2206 10.1298ZM13.1822 9.42273C13.9403 8.66459 15.1695 8.66459 15.9277 9.42273C16.6858 10.1809 16.6858 11.4101 15.9277 12.1682C15.1695 12.9264 13.9403 12.9264 13.1822 12.1682C12.424 11.4101 12.424 10.1809 13.1822 9.42273Z" fill="#2A2620"/>
<path fill-rule="evenodd" clip-rule="evenodd" d="M15.5046 18.9914L15.246 18.7327C14.8531 19.1789 14.4319 19.6352 13.9805 20.1012C13.8148 20.2723 13.5791 20.3381 13.3603 20.297L11.6539 20.3477C11.429 20.4038 11.1806 20.3454 11.0057 20.1705L8.03573 17.2005L6.49559 18.7407L5.78848 18.0336L7.32863 16.4934L3.23785 12.4026C2.96972 12.1345 2.97532 11.6934 3.24768 11.4296C4.11066 10.5937 4.93986 9.86143 5.73416 9.22089L3.91795 7.40468C3.64982 7.13655 3.64821 6.69802 3.93691 6.45217C4.98234 5.56193 6.02777 5.15407 7.0732 5.22861L8.53131 5.22861C9.35592 5.16998 10.1805 5.41148 11.0051 5.95311C12.8662 5.1688 14.379 4.95262 15.5114 4.96769L16.7869 4.92976C18.3794 4.81671 19.3962 5.16356 19.7758 5.32684C19.8894 5.37571 19.9749 5.46126 20.0238 5.57484C20.3232 6.27075 21.2397 9.10916 18.8067 13.7108C20.0286 15.4647 19.8928 17.2185 18.3993 18.9724C18.2584 19.1378 18.0544 19.2079 17.8553 19.1872L16.0486 19.1872C16.0037 19.1919 15.9584 19.1919 15.9133 19.1872H15.8949L15.8968 19.1853C15.7541 19.1669 15.6149 19.1017 15.5046 18.9914ZM17.8848 18.0152C18.4189 17.2995 18.6315 16.6574 18.6315 16.0784C18.6315 15.6544 18.5174 15.1965 18.2466 14.7006C18.065 15.0018 17.8695 15.3099 17.659 15.6244C17.3846 16.0344 17.0849 16.4556 16.7576 16.8879L17.8848 18.0152ZM18.1399 5.94698C17.9669 5.92784 17.7772 5.91434 17.5711 5.90953C17.5188 5.90831 17.4654 5.90764 17.411 5.90759L18.1399 5.94698ZM8.46265 8.59318L6.83618 6.96672C7.5519 6.43262 8.19394 6.22003 8.77293 6.22003C9.35192 6.22003 9.99396 6.43262 10.7097 6.96672L10.4509 7.22549C9.81694 7.61673 9.15391 8.06975 8.46265 8.59318Z" fill="#2A2620"/>
<path d="M4.72801 14.8516L2.60669 16.9729L3.3138 17.6801L5.43512 15.5587L4.72801 14.8516Z" fill="#2A2620"/>
<path d="M8.97065 19.0943L6.84933 21.2156L7.55644 21.9227L9.67776 19.8014L8.97065 19.0943Z" fill="#2A2620"/>
<path d="M8.46265 8.59318L6.83618 6.96672C7.5519 6.43262 8.19394 6.22003 8.77293 6.22003C9.35192 6.22003 9.99396 6.43262 10.7097 6.96672L10.4509 7.22549C9.81694 7.61673 9.15392 8.06975 8.46265 8.59318Z" fill="white"/>
<path d="M16.7576 16.8879C17.336 16.1239 17.8285 15.3945 18.2466 14.7006C18.5175 15.1965 18.6315 15.6544 18.6315 16.0784C18.6315 16.6574 18.4189 17.2994 17.8848 18.0151L16.7576 16.8879Z" fill="white"/>
<path d="M13.8893 10.1298C14.2569 9.76222 14.8529 9.76222 15.2206 10.1298C15.5882 10.4975 15.5882 11.0935 15.2206 11.4611C14.8529 11.8287 14.2569 11.8287 13.8893 11.4611C13.5217 11.0935 13.5217 10.4975 13.8893 10.1298Z" fill="white"/>
<path fill-rule="evenodd" clip-rule="evenodd" d="M13.4845 19.174C16.6971 15.805 18.2317 13.0279 18.924 10.9202L14.4303 6.42651C12.3226 7.11885 9.54554 8.65342 6.17651 11.866L13.4845 19.174ZM15.9277 9.42273C15.1695 8.66459 13.9403 8.66459 13.1822 9.42273C12.424 10.1809 12.424 11.4101 13.1822 12.1682C13.9403 12.9264 15.1695 12.9264 15.9277 12.1682C16.6858 11.4101 16.6858 10.1809 15.9277 9.42273Z" fill="white"/>
<path d="M19.1813 6.16927C18.8642 6.06062 18.2766 5.91099 17.4326 5.90765C17.223 5.90682 16.9976 5.91502 16.7566 5.9351C16.3873 5.96588 15.9813 6.02459 15.5396 6.12155L19.229 9.81098C19.6439 7.92018 19.3582 6.6857 19.1813 6.16927Z" fill="white"/>
</svg>
