<svg width="24" height="24" viewBox="0 0 24 24" fill="none" xmlns="http://www.w3.org/2000/svg">
<path d="M0 12C0 5.37258 5.37258 0 12 0C18.6274 0 24 5.37258 24 12C24 18.6274 18.6274 24 12 24C5.37258 24 0 18.6274 0 12Z" fill="#E5DED6"/>
<path fill-rule="evenodd" clip-rule="evenodd" d="M4.02104 9.70055L2.78858 10.8744L2.79057 10.8745C2.5265 11.1374 2.36951 11.4993 2.36951 11.8876V12.313C2.36951 12.9041 2.73341 13.4342 3.28503 13.6467L7.8603 15.4089C8.55228 15.6754 9.28274 15.3674 9.61677 14.7835L9.00083 17.4521C8.80003 18.3221 9.46077 19.1527 10.3536 19.1527C10.7394 19.1527 11.0947 18.9938 11.3494 18.7318L12.5432 17.4797L12.5381 17.4798C12.7304 17.3016 12.8717 17.0664 12.934 16.7963L13.4584 14.5242C13.7035 15.2705 14.5418 15.7125 15.3302 15.4089L19.9055 13.6467C20.1902 13.537 20.425 13.3427 20.5855 13.099L21.4489 12.1884C21.8176 11.9414 22.0475 11.5234 22.0475 11.0668V10.5931C22.0475 10.0347 21.7037 9.53395 21.1827 9.33326L16.537 7.54395C15.9373 7.31299 15.3071 7.53876 14.9635 8.00352L15.2139 6.91834C15.4084 6.07592 14.7686 5.27164 13.904 5.27164C13.4912 5.27164 13.1144 5.45954 12.8653 5.76245L12.8657 5.74417L11.6132 6.93765L11.6197 6.93781C11.4568 7.11181 11.3373 7.32907 11.2808 7.57413L11.0245 8.68428C10.9487 7.80226 10.0411 7.21785 9.19442 7.54395L4.54875 9.33326C4.34121 9.41319 4.1618 9.54073 4.02104 9.70055ZM10.6629 13.7817C10.6629 13.7817 10.6629 13.7817 10.6629 13.7817V13.7817ZM10.9975 12.3319C10.9975 12.3319 10.9976 12.3319 10.9975 12.3319V12.3319ZM10.3812 11.4714L10.7553 9.85068C10.7061 9.91561 10.651 9.97612 10.5906 10.0314L9.52704 11.153L10.1025 11.3428C10.2016 11.3755 10.2948 11.4189 10.3812 11.4714ZM8.71117 11.6736L7.41766 12.1003L8.8217 12.5634C9.25385 12.706 9.58257 13.0412 9.72525 13.4549C9.79938 13.4493 9.87086 13.4297 9.93645 13.3985L10.1884 12.3068C10.1158 12.1908 10.004 12.1001 9.86759 12.0551L8.71117 11.6736ZM9.72391 9.65215L9.86759 9.60476C10.1135 9.52364 10.2796 9.29391 10.2796 9.03496V8.80374C10.2796 8.38255 9.85703 8.09245 9.46398 8.24384L8.28548 8.69774C8.92169 8.6569 9.51504 9.0532 9.72391 9.65215ZM3.69593 11.2465C3.69593 11.2465 3.69593 11.2465 3.69593 11.2465V11.2465ZM11.9583 16.9855C12.0788 16.9035 12.1686 16.7777 12.2032 16.6276L13.5264 10.8949C13.4844 10.8069 13.4513 10.7143 13.4279 10.6183L11.9583 16.9855ZM13.9697 8.97406C13.8961 9.02815 13.8276 9.08922 13.7653 9.15647L13.9864 8.19861C14.1338 7.55971 13.8166 6.94204 13.2841 6.65899L13.3249 6.48232C13.3871 6.21266 13.6273 6.02164 13.904 6.02164C14.2862 6.02164 14.5691 6.37722 14.4831 6.74966L13.9697 8.97406ZM14.7809 9.49059C14.7809 9.49057 14.7809 9.4906 14.7809 9.49059V9.49059ZM14.1466 11.5425L13.8382 12.8788C13.8898 12.8303 13.9452 12.7854 14.0041 12.7448L14.9548 11.838C14.9563 11.836 14.9577 11.8339 14.9592 11.8319L14.3688 11.6371C14.2913 11.6116 14.217 11.5798 14.1466 11.5425ZM14.7652 13.2688C14.7652 13.2688 14.7652 13.2688 14.7652 13.2688V13.2688ZM20.8042 11.6686C20.7268 11.1685 20.3879 10.7397 19.9055 10.5539L15.4518 8.83853V8.80374C15.4518 8.38255 15.8744 8.09245 16.2674 8.24384L20.9131 10.0331C21.1447 10.1223 21.2975 10.3449 21.2975 10.5931V11.0668C21.2975 11.3149 21.1447 11.5375 20.9131 11.6267L20.8042 11.6686ZM15.4781 13.0336C15.4781 13.0336 15.4781 13.0336 15.4781 13.0336V13.0336ZM15.7439 12.1099L15.7729 12.1003L15.7651 12.0977C15.7579 12.1016 15.7509 12.1057 15.7439 12.1099ZM18.9094 11.0277L19.708 11.3366C19.6801 11.3206 19.6508 11.3066 19.6201 11.2948L18.9184 11.0246L18.9094 11.0277Z" fill="#2A2620"/>
<path d="M9.46398 13.416C9.85702 13.5673 10.2796 13.2772 10.2796 12.8561V12.6248C10.2796 12.3659 10.1135 12.1362 9.86759 12.055L8.04303 11.4532L6.35147 10.8637C6.33709 10.8587 6.32745 10.8451 6.32745 10.8299C6.32745 10.8146 6.33709 10.8011 6.35147 10.7961L8.04303 10.2066L9.86759 9.60473C10.1135 9.52361 10.2796 9.29388 10.2796 9.03493V8.80371C10.2796 8.38252 9.85703 8.09242 9.46398 8.24381L4.81831 10.0331C4.58673 10.1223 4.43396 10.3449 4.43396 10.593V11.0667C4.43396 11.3149 4.58673 11.5375 4.81831 11.6267L9.46398 13.416ZM11.6241 17.0883C11.9008 17.0883 12.141 16.8973 12.2032 16.6276L14.4831 6.74963C14.5691 6.37719 14.2862 6.02161 13.904 6.02161C13.6273 6.02161 13.3871 6.21263 13.3249 6.48229L11.0449 16.3602C10.959 16.7327 11.2418 17.0883 11.6241 17.0883ZM15.4518 12.8561C15.4518 13.2772 15.8744 13.5673 16.2674 13.416L20.9131 11.6267C21.1447 11.5375 21.2975 11.3149 21.2975 11.0667V10.593C21.2975 10.3449 21.1447 10.1223 20.9131 10.0331L16.2674 8.24381C15.8744 8.09242 15.4518 8.38252 15.4518 8.80371V9.03493C15.4518 9.29388 15.6179 9.52361 15.8638 9.60473L17.6884 10.2066L19.3799 10.7961C19.3943 10.8011 19.404 10.8146 19.404 10.8299C19.404 10.8451 19.3943 10.8587 19.3799 10.8637L17.6884 11.4532L15.8638 12.055C15.6179 12.1362 15.4518 12.3659 15.4518 12.6248V12.8561Z" fill="white"/>
</svg>
