<svg width="24" height="24" viewBox="0 0 24 24" fill="none" xmlns="http://www.w3.org/2000/svg">
<path d="M0 12C0 5.37258 5.37258 0 12 0C18.6274 0 24 5.37258 24 12C24 18.6274 18.6274 24 12 24C5.37258 24 0 18.6274 0 12Z" fill="#E5DED6"/>
<path d="M11.8644 3.59998C11.4367 3.59998 11.1234 3.83497 10.826 4.13452L10.2342 4.73111L9.56123 5.41838L8.78439 5.11673C8.38731 4.9579 7.93379 5.05099 7.63138 5.35339L6.57544 6.40934C6.54751 6.43727 6.52137 6.46648 6.49704 6.49682C6.4667 6.52115 6.43749 6.54729 6.40956 6.57521L5.35362 7.63116C5.05121 7.93356 4.95812 8.38709 5.11695 8.78417L5.46756 9.66067C5.07786 9.82877 4.95555 9.91907 4.53555 10.3486L3.9151 10.9977C3.6001 11.3127 3.6001 11.4365 3.6001 11.8641V13.3575C3.6001 13.7851 3.85497 14.1717 4.24805 14.3401L5.51663 14.8838C5.5522 14.9757 5.58986 15.0664 5.62954 15.1561L5.11695 16.4376C4.95812 16.8347 5.05121 17.2882 5.35362 17.5906L6.40956 18.6466C6.71197 18.949 7.1655 19.0421 7.56258 18.8832L8.84411 18.3706C8.93374 18.4103 9.02448 18.4479 9.11627 18.4834L9.65995 19.752C9.82841 20.1451 10.2149 20.4 10.6426 20.4H12.1359C12.5636 20.4 12.8401 20.1995 13.1646 19.8559L13.5656 19.4359L14.4628 18.5768L15.216 18.8832C15.6131 19.042 16.0666 18.9489 16.369 18.6465L17.4249 17.5906C17.4529 17.5627 17.479 17.5334 17.5033 17.5031C17.5337 17.4788 17.5629 17.4526 17.5908 17.4247L18.6468 16.3688C18.9492 16.0664 19.0422 15.6128 18.8834 15.2157L18.5912 14.4579L19.2021 13.8422L19.7653 13.2934C19.7653 13.2934 20.0686 12.9955 20.1806 12.8352C20.3034 12.6593 20.4002 12.3594 20.4002 12.1357V10.6423C20.4002 10.2147 20.1453 9.82814 19.7522 9.65968L18.4837 9.11604C18.4482 9.02422 18.4105 8.93345 18.3709 8.84379L18.8834 7.56238C19.0422 7.1653 18.9492 6.71177 18.6468 6.40937L17.5908 5.35342C17.2884 5.05102 16.8349 4.95793 16.4378 5.11676L15.1565 5.62929C15.0667 5.58959 14.9759 5.55192 14.884 5.51634L14.3404 4.24793C14.1719 3.85484 13.7854 3.59998 13.3577 3.59998H11.8644Z" fill="#2A2620"/>
<path fill-rule="evenodd" clip-rule="evenodd" d="M5.84725 12.2377C5.80647 12.2202 5.78003 12.1801 5.78003 12.1357V10.6424C5.78003 10.598 5.80647 10.5579 5.84725 10.5405L7.29699 9.91914C7.42585 9.86391 7.52561 9.75711 7.57194 9.62478C7.638 9.4361 7.71435 9.25226 7.80032 9.07394C7.86125 8.94755 7.86628 8.80138 7.81417 8.6711L7.22835 7.20656C7.21188 7.16537 7.22153 7.11832 7.2529 7.08695L8.30885 6.031C8.34022 5.99963 8.38727 5.98997 8.42847 6.00645L9.89298 6.59225C10.0233 6.64436 10.1694 6.63934 10.2958 6.5784C10.4742 6.49241 10.6581 6.41604 10.8468 6.34997C10.9791 6.30364 11.0859 6.20388 11.1412 6.07501L11.7624 4.62545C11.7799 4.58467 11.82 4.55823 11.8643 4.55823H13.3577C13.402 4.55823 13.4421 4.58467 13.4596 4.62545L14.0809 6.07501C14.1361 6.20388 14.2429 6.30364 14.3752 6.34997C14.564 6.41604 14.7479 6.49242 14.9262 6.57842C15.0526 6.63936 15.1988 6.64439 15.3291 6.59228L16.7936 6.00648C16.8348 5.99 16.8818 5.99966 16.9132 6.03103L17.9691 7.08698C18.0005 7.11835 18.0102 7.1654 17.9937 7.20659L17.4079 8.67115C17.3558 8.80142 17.3608 8.94759 17.4217 9.07398C17.5077 9.2523 17.584 9.43614 17.6501 9.62481C17.6964 9.75715 17.7962 9.86395 17.925 9.91918L19.3747 10.5405C19.4155 10.5579 19.4419 10.598 19.4419 10.6424V12.1357C19.4419 12.1801 19.4155 12.2202 19.3747 12.2377L17.925 12.859C17.7962 12.9142 17.6964 13.021 17.6501 13.1533C17.584 13.342 17.5077 13.5259 17.4217 13.7042C17.3608 13.8306 17.3557 13.9768 17.4078 14.107L17.9937 15.5717C18.0102 15.6129 18.0005 15.6599 17.9691 15.6913L16.9132 16.7472C16.8818 16.7786 16.8348 16.7883 16.7936 16.7718L15.3289 16.1859C15.1986 16.1338 15.0525 16.1388 14.9261 16.1998C14.7478 16.2857 14.564 16.3621 14.3753 16.4281C14.243 16.4745 14.1362 16.5742 14.0809 16.7031L13.4596 18.1528C13.4421 18.1936 13.402 18.22 13.3577 18.22H11.8643C11.82 18.22 11.7799 18.1936 11.7624 18.1528L11.1411 16.7031C11.0859 16.5742 10.9791 16.4745 10.8467 16.4281C10.6581 16.3621 10.4743 16.2857 10.296 16.1998C10.1696 16.1389 10.0234 16.1338 9.89315 16.186L8.42847 16.7718C8.38727 16.7883 8.34022 16.7786 8.30885 16.7473L7.25291 15.6913C7.22153 15.66 7.21188 15.6129 7.22835 15.5717L7.8142 14.1071C7.86631 13.9768 7.86129 13.8306 7.80035 13.7043C7.71437 13.5259 7.63801 13.342 7.57194 13.1533C7.52561 13.021 7.42585 12.9142 7.29699 12.859L5.84725 12.2377Z" fill="white"/>
<path d="M9.66724 9.44543V9.86178H10.6672V9.44543H16.2762V8.44543H10.6672V8.02905H9.66724V8.44543H8.94531V9.44543H9.66724Z" fill="#2A2620"/>
<path d="M9.66724 14.3327V14.7491H10.6672V14.3327H16.2762V13.3327H10.6672V12.9164H9.66724V13.3327H8.94531V14.3327H9.66724Z" fill="#2A2620"/>
<path d="M14.4019 11.8891V12.3055H15.4019V11.8891H16.2762V10.8891H15.4019V10.4727H14.4019V10.8891H8.94531V11.8891H14.4019Z" fill="#2A2620"/>
</svg>
