<svg width="24" height="24" viewBox="0 0 24 24" fill="none" xmlns="http://www.w3.org/2000/svg">
<path d="M0 12C0 5.37258 5.37258 0 12 0C18.6274 0 24 5.37258 24 12C24 18.6274 18.6274 24 12 24C5.37258 24 0 18.6274 0 12Z" fill="#E5DED6"/>
<path fill-rule="evenodd" clip-rule="evenodd" d="M10.5503 2.6172C10.7338 2.45129 10.9717 2.40828 11.1825 2.46492C11.4371 2.51478 11.6668 2.69553 11.7406 3.00612L12.7655 6.80377L13.3011 8.67847L18.4708 10.0869C19.1851 10.2815 19.1827 11.2956 18.4674 11.4868L18.4476 11.4921L13.6607 13.1145C13.6407 13.1213 13.6211 13.1289 13.602 13.1374L11.7481 18.8614C11.7392 18.8891 11.729 18.9156 11.7176 18.941L11.5955 19.3787C11.561 19.5023 11.4922 19.6137 11.397 19.6999L10.323 20.6727C9.94899 21.0115 9.34934 20.8393 9.2121 20.3537L7.52199 14.3741C7.45817 14.1483 7.28545 13.9695 7.06199 13.8979L1.97995 12.2694C1.22874 12.0287 1.24245 10.961 1.9996 10.7397L4.21423 10.0922L7.57571 9.05609C7.68565 8.96903 7.76861 8.84959 7.81073 8.71149L9.27941 3.89616C9.31532 3.7784 9.38254 3.6726 9.47387 3.59005L10.5503 2.6172ZM5.21021 10.7827L9.43018 9.55985C9.58713 9.51437 9.72118 9.41828 9.81433 9.29049C9.84966 9.24202 9.87911 9.18899 9.90169 9.13243C9.9059 9.12188 9.90987 9.11122 9.9136 9.10044C9.9215 9.07756 9.9283 9.05417 9.93394 9.03031L11.0531 4.29688L12.3379 9.05762C12.3981 9.31675 12.5958 9.52277 12.8536 9.59299L17.2247 10.7839L13.3234 11.8267C13.264 11.8426 13.2076 11.8657 13.1553 11.8951C12.9983 11.9834 12.8777 12.1283 12.8209 12.3037L11.0763 17.6903L9.5743 12.3761C9.50578 12.1337 9.31636 11.9442 9.07397 11.8757L5.21021 10.7827Z" fill="#2A2620"/>
<path d="M9.93394 9.03031L11.0531 4.29688L12.3379 9.05762C12.3981 9.31675 12.5958 9.52277 12.8536 9.59299L17.2247 10.7839L13.3234 11.8267C13.0858 11.8902 12.8966 12.0698 12.8209 12.3037L11.0763 17.6903L9.57429 12.3761C9.50577 12.1337 9.31635 11.9442 9.07396 11.8757L5.21021 10.7827L9.43017 9.55985C9.68129 9.48708 9.87378 9.28474 9.93394 9.03031Z" fill="white"/>
<path d="M18.4388 14.1601C18.3511 13.9997 18.1829 13.9 18.0001 13.9C17.8173 13.9 17.6491 13.9997 17.5614 14.1601L16.7832 15.5831L15.3602 16.3613C15.1998 16.449 15.1001 16.6173 15.1001 16.8C15.1001 16.9828 15.1998 17.151 15.3602 17.2387L16.7832 18.017L17.5614 19.4399C17.6491 19.6003 17.8173 19.7 18.0001 19.7C18.1829 19.7 18.3511 19.6003 18.4388 19.4399L19.217 18.017L20.64 17.2387C20.8004 17.151 20.9001 16.9828 20.9001 16.8C20.9001 16.6173 20.8004 16.449 20.64 16.3613L19.217 15.5831L18.4388 14.1601Z" fill="#2A2620"/>
<path d="M17.2387 3.36005C17.151 3.1997 16.9828 3.09998 16.8 3.09998C16.6172 3.09998 16.449 3.1997 16.3613 3.36005L15.7952 4.39517L14.7601 4.9613C14.5997 5.049 14.5 5.21721 14.5 5.39998C14.5 5.58275 14.5997 5.75095 14.7601 5.83865L15.7952 6.40478L16.3613 7.4399C16.449 7.60025 16.6172 7.69998 16.8 7.69998C16.9828 7.69998 17.151 7.60025 17.2387 7.4399L17.8048 6.40478L18.8399 5.83865C19.0003 5.75095 19.1 5.58275 19.1 5.39998C19.1 5.21721 19.0003 5.049 18.8399 4.9613L17.8048 4.39517L17.2387 3.36005Z" fill="#2A2620"/>
</svg>
