<svg width="24" height="24" viewBox="0 0 24 24" fill="none" xmlns="http://www.w3.org/2000/svg">
<path d="M0 12C0 5.37258 5.37258 0 12 0C18.6274 0 24 5.37258 24 12C24 18.6274 18.6274 24 12 24C5.37258 24 0 18.6274 0 12Z" fill="#E5DED6"/>
<path d="M14.0595 4.03953C13.6101 3.12906 12.6109 3.13128 11.8234 3.86408L11.2219 4.46565C11.2219 4.46565 10.7953 4.82658 10.4624 5.43953L9.37978 7.63326L6.30019 8.08075C5.59877 8.18267 5.46876 8.58907 5.02032 9.03751L4.49806 9.56524C4.10703 9.93438 3.39611 10.6836 4.22128 11.5702L6.93653 14.2169C6.97777 14.2571 6.99659 14.3151 6.98685 14.3718L6.34587 18.109C6.17424 19.1098 7.2246 19.8729 8.12329 19.4004L11.4795 17.6359C11.5305 17.6091 11.5914 17.6091 11.6424 17.6359L14.9986 19.4004C16.2094 19.8438 16.8516 18.9017 17.3031 18.3891C17.6887 17.9514 18.3237 17.5704 18.176 16.709L17.535 12.9718C17.5308 12.947 17.532 12.922 17.5381 12.8983L18.9006 11.5702C18.9637 11.5087 19.0183 11.4433 19.0647 11.3749L20.3006 10.1702C21.0277 9.46151 20.6265 8.22675 19.6217 8.08075L15.8693 7.5355C15.8123 7.52721 15.763 7.49141 15.7376 7.43976L14.0595 4.03953Z" fill="#2A2620"/>
<path d="M12.8711 4.31148C12.9077 4.23716 13.0137 4.23716 13.0504 4.31148L14.8415 7.94055C15.0017 8.26521 15.3114 8.49024 15.6697 8.5423L19.6746 9.12425C19.7566 9.13617 19.7894 9.23696 19.73 9.29482L16.8321 12.1197C16.5728 12.3724 16.4545 12.7365 16.5157 13.0933L17.1998 17.082C17.2138 17.1637 17.1281 17.226 17.0547 17.1875L13.4726 15.3042C13.1522 15.1358 12.7693 15.1358 12.4489 15.3042L8.86676 17.1875C8.79339 17.226 8.70765 17.1637 8.72166 17.082L9.40578 13.0933C9.46699 12.7365 9.34868 12.3724 9.08943 12.1197L6.19144 9.29482C6.13209 9.23696 6.16484 9.13617 6.24686 9.12425L10.2518 8.5423C10.6101 8.49024 10.9198 8.26521 11.08 7.94055L12.8711 4.31148Z" fill="white"/>
</svg>
