<svg width="24" height="24" viewBox="0 0 24 24" fill="none" xmlns="http://www.w3.org/2000/svg">
<path d="M0 12C0 5.37258 5.37258 0 12 0V0C18.6274 0 24 5.37258 24 12V12C24 18.6274 18.6274 24 12 24V24C5.37258 24 0 18.6274 0 12V12Z" fill="#E5DED6"/>
<path fill-rule="evenodd" clip-rule="evenodd" d="M9.62499 5.40002C9.62499 5.05485 9.34517 4.77502 8.99999 4.77502C8.79704 4.77502 8.61669 4.87175 8.50251 5.02163L7.52411 6.00002H6.59999C6.42708 6.00002 6.27125 6.07317 6.16176 6.1902L4.99011 7.36184C4.87311 7.47133 4.79999 7.62714 4.79999 7.80002V17.4C4.79999 17.7314 5.06862 18 5.39999 18H18.6C18.7822 18 18.9454 17.9188 19.0554 17.7907L20.1907 16.6554C20.3188 16.5454 20.4 16.3822 20.4 16.2V6.60002C20.4 6.26865 20.1314 6.00002 19.8 6.00002H18.025V5.40002C18.025 5.05485 17.7452 4.77502 17.4 4.77502C17.2054 4.77502 17.0316 4.86393 16.917 5.00332L15.9203 6.00002H9.62499V5.40002Z" fill="#2A2620"/>
<path d="M7.20001 9H19.8V16.2H7.20001V9Z" fill="white"/>
<path fill-rule="evenodd" clip-rule="evenodd" d="M9 4.90002C9.27614 4.90002 9.5 5.12388 9.5 5.40002L9.5 7.80002C9.5 8.07617 9.27614 8.30002 9 8.30002C8.72386 8.30002 8.5 8.07617 8.5 7.80002L8.5 5.40002C8.5 5.12388 8.72386 4.90002 9 4.90002Z" fill="#2A2620"/>
<path fill-rule="evenodd" clip-rule="evenodd" d="M17.4 4.90002C17.6761 4.90002 17.9 5.12388 17.9 5.40002L17.9 7.80002C17.9 8.07617 17.6761 8.30002 17.4 8.30002C17.1239 8.30002 16.9 8.07617 16.9 7.80002L16.9 5.40002C16.9 5.12388 17.1239 4.90002 17.4 4.90002Z" fill="#2A2620"/>
<path d="M8.39999 10.2H11.4V13.2H8.39999V10.2Z" fill="#2A2620"/>
</svg>
