<svg width="24" height="24" viewBox="0 0 24 24" fill="none" xmlns="http://www.w3.org/2000/svg">
<path d="M0 12C0 5.37258 5.37258 0 12 0C18.6274 0 24 5.37258 24 12C24 18.6274 18.6274 24 12 24C5.37258 24 0 18.6274 0 12Z" fill="#E5DED6"/>
<path d="M11.4 20.4C7.09222 20.4 3.60004 16.9079 3.60004 12.6C3.60004 10.1404 4.50004 8.70004 6.00004 6.90004C6.9722 5.73344 8.12496 4.85309 9.37403 4.29633C10.3572 3.84913 11.4495 3.60004 12.6 3.60004C16.9079 3.60004 20.4 7.09222 20.4 11.4C20.4 13.8596 19.4171 15.8171 17.7 17.4C16.1171 19.1171 13.8596 20.4 11.4 20.4Z" fill="#2A2620"/>
<path d="M19.4 11.4C19.4 15.1556 16.3556 18.2 12.6 18.2C8.84451 18.2 5.80005 15.1556 5.80005 11.4C5.80005 7.6445 8.84451 4.60004 12.6 4.60004C16.3556 4.60004 19.4 7.6445 19.4 11.4Z" fill="white"/>
<path fill-rule="evenodd" clip-rule="evenodd" d="M16.7529 8.3228L11.6271 14.7128C11.5382 14.8236 11.4063 14.8914 11.2645 14.8992C11.1226 14.907 10.9842 14.8541 10.8837 14.7537L8.44287 12.3152L9.14965 11.6077L11.196 13.6521L15.9728 7.69708L16.7529 8.3228Z" fill="#2A2620"/>
</svg>
