<svg width="24" height="24" viewBox="0 0 24 24" fill="none" xmlns="http://www.w3.org/2000/svg">
<path d="M0 12C0 5.37258 5.37258 0 12 0C18.6274 0 24 5.37258 24 12C24 18.6274 18.6274 24 12 24C5.37258 24 0 18.6274 0 12Z" fill="#E5DED6"/>
<path d="M17.4829 17.4829C19.2616 16.0533 20.4 13.8596 20.4 11.4C20.4 7.09222 16.9079 3.60004 12.6 3.60004C10.1404 3.60004 7.94676 4.73846 6.51714 6.51714C5.10004 8.10004 3.60004 10.1404 3.60004 12.6C3.60004 16.9079 7.09222 20.4 11.4 20.4C13.8596 20.4 15.6 18.9 17.4829 17.4829Z" fill="#2A2620"/>
<path d="M17.395 17.0692C17.3861 17.0774 17.3774 17.0861 17.3692 17.095C15.8475 18.7457 13.7025 19.95 11.4 19.95C7.34074 19.95 4.05004 16.6593 4.05004 12.6C4.05004 10.2938 4.8741 8.95409 6.34574 7.18812C8.04168 5.15299 10.29 4.05004 12.6 4.05004C16.6593 4.05004 19.95 7.34074 19.95 11.4C19.95 13.7208 19.0298 15.5622 17.395 17.0692Z" fill="#2A2620" stroke="#2A2620" stroke-width="0.9" stroke-linecap="round" stroke-linejoin="round"/>
<circle cx="12.6" cy="11.4" r="7.3" fill="white" stroke="#2A2620" stroke-linecap="round" stroke-linejoin="round"/>
<path d="M16.05 8.39996L11.237 14.4L9.14996 12.3148" stroke="#2A2620" stroke-linecap="square" stroke-linejoin="round"/>
</svg>
