<svg width="24" height="24" viewBox="0 0 24 24" fill="none" xmlns="http://www.w3.org/2000/svg">
<path d="M0 12C0 5.37258 5.37258 0 12 0C18.6274 0 24 5.37258 24 12C24 18.6274 18.6274 24 12 24C5.37258 24 0 18.6274 0 12Z" fill="#E5DED6"/>
<path d="M17.3323 17.0611C17.3415 17.0512 17.3511 17.0416 17.361 17.0324C18.9866 15.5339 19.8999 13.7054 19.8999 11.4C19.8999 11.3361 19.8991 11.2724 19.8975 11.2088M17.3323 17.0611L19.8974 11.2053C19.8974 11.2065 19.8974 11.2077 19.8975 11.2088M17.3323 17.0611C15.8174 18.7044 13.6849 19.9 11.3999 19.9C7.36824 19.9 4.09991 16.6317 4.09991 12.6C4.09991 10.3108 4.91554 8.98231 6.38403 7.22013C7.31556 6.10228 8.41381 5.26786 9.59661 4.74456C7.11862 5.86447 5.37793 8.32732 5.30248 11.2053C5.29894 11.3402 5.35003 11.4707 5.44415 11.5673C5.53827 11.6639 5.66743 11.7184 5.80231 11.7184H5.84867C5.70569 11.7184 5.56955 11.7797 5.47466 11.8866C5.37977 11.9936 5.3352 12.136 5.35223 12.278C5.76527 15.7213 8.57371 18.427 12.0637 18.6806C12.2023 18.6907 12.3388 18.6427 12.4405 18.5481C12.5422 18.4535 12.6 18.3208 12.6 18.1819C12.6 18.3208 12.6578 18.4535 12.7595 18.5481C12.8612 18.6427 12.9977 18.6907 13.1362 18.6806C16.6262 18.427 19.4346 15.7213 19.8476 12.278C19.8647 12.136 19.8201 11.9936 19.7252 11.8866C19.6303 11.7797 19.4942 11.7184 19.3512 11.7184H19.3976C19.5324 11.7184 19.6616 11.6639 19.7557 11.5673M17.3323 17.0611L19.7557 11.5673M19.8975 11.2088C19.9 11.3424 19.849 11.4715 19.7557 11.5673M19.8975 11.2088L19.7557 11.5673M14.9564 9.96101C15.0063 9.78642 14.9576 9.5985 14.8292 9.4701C14.7008 9.3417 14.5129 9.293 14.3383 9.34289L15.2036 9.09564L14.9564 9.96101ZM14.3464 12.0959L14.113 12.9129L10.2957 14.0036L11.3864 10.1863L12.2032 9.95291C12.033 10.0016 11.9012 10.1368 11.8568 10.3082C11.8123 10.4797 11.8619 10.6619 11.9872 10.7872L13.5121 12.3121C13.6374 12.4373 13.8196 12.487 13.9911 12.4425C14.1626 12.3981 14.2978 12.2662 14.3464 12.0959ZM12.4405 4.25199C12.3445 4.16273 12.2175 4.11494 12.0871 4.1183C12.2576 4.10615 12.4286 4.10004 12.5999 4.10004C14.4472 4.10004 16.1342 4.78616 17.42 5.91747C16.2598 4.89672 14.7729 4.23841 13.1362 4.11946C12.9977 4.10939 12.8612 4.1574 12.7595 4.252C12.6578 4.34659 12.6 4.47924 12.6 4.61814C12.6 4.47923 12.5422 4.34659 12.4405 4.25199Z" fill="#2A2620" stroke="#2A2620" stroke-linecap="round" stroke-linejoin="round"/>
<path d="M13.8657 11.9585L14.4756 9.82362L12.3408 10.4336L13.8657 11.9585Z" fill="white"/>
<path fill-rule="evenodd" clip-rule="evenodd" d="M19.3976 11.2184H18.0131V12.2184H19.3512C18.9665 15.4251 16.3501 17.9457 13.1 18.1819V16.813H12.1V18.1819C8.84982 17.9457 6.23334 15.4252 5.84867 12.2184H7.18696V11.2184H5.80231C5.89418 7.71391 8.63749 4.86971 12.1 4.6181V5.98701H13.1V4.61811C16.5624 4.86977 19.3057 7.71394 19.3976 11.2184ZM14.5174 13.3173L15.9316 8.3676L10.9819 9.78181L9.56769 14.7316L14.5174 13.3173Z" fill="white"/>
</svg>
