<svg width="24" height="24" viewBox="0 0 24 24" fill="none" xmlns="http://www.w3.org/2000/svg">
<path d="M0 12C0 5.37258 5.37258 0 12 0C18.6274 0 24 5.37258 24 12C24 18.6274 18.6274 24 12 24C5.37258 24 0 18.6274 0 12Z" fill="#E5DED6"/>
<path d="M17.6999 17.4C19.417 15.8171 20.3999 13.8596 20.3999 11.4C20.3999 11.332 20.399 11.2642 20.3973 11.1965" fill="#2A2620"/>
<path fill-rule="evenodd" clip-rule="evenodd" d="M15.9316 8.36763L10.9819 9.78184L9.56769 14.7316L14.5174 13.3174L15.9316 8.36763ZM13.8657 11.9585L14.4756 9.82365L12.3408 10.4336L13.8657 11.9585Z" fill="#2A2620"/>
<path fill-rule="evenodd" clip-rule="evenodd" d="M20.3973 11.1965L20.3972 11.1922C20.343 9.12088 19.4813 7.25059 18.1153 5.8846C16.7038 4.47308 14.7538 3.60004 12.5999 3.60004C12.4195 3.60004 12.2395 3.60636 12.0602 3.61892C12.0493 3.61969 12.0385 3.62047 12.0276 3.62128C11.9887 3.62417 11.9498 3.62736 11.9109 3.63084C11.046 3.7083 10.1983 3.93101 9.39067 4.28888L9.38579 4.29104C8.13215 4.84751 6.97516 5.72974 5.99991 6.90004C4.49991 8.70004 3.59991 10.1404 3.59991 12.6C3.59991 16.9079 7.09209 20.4 11.3999 20.4C13.8595 20.4 16.117 19.1171 17.6999 17.4M19.3975 11.2184C19.3901 10.9361 19.3655 10.6581 19.3247 10.3853C19.318 10.3407 19.3109 10.2962 19.3034 10.2518C19.3015 10.2407 19.2996 10.2296 19.2976 10.2184C19.0715 8.92796 18.4816 7.76268 17.6374 6.83227C17.5964 6.78712 17.5549 6.74252 17.5127 6.69849C17.3008 6.47713 17.0741 6.27007 16.8342 6.0789C16.0465 5.45126 15.1163 4.99487 14.1 4.76604C14.0569 4.75635 14.0137 4.74706 13.9704 4.73819C13.8595 4.7155 13.7476 4.69551 13.6349 4.67829C13.4587 4.65139 13.2803 4.63125 13.1 4.61814V5.98704H12.1V4.61872C11.7591 4.64349 11.4251 4.69282 11.1 4.76601C10.6512 4.86705 10.2192 5.01247 9.80881 5.19741C9.80662 5.1984 9.80444 5.19939 9.80225 5.20037C7.87133 6.0731 6.42091 7.8214 5.95727 9.93898C5.93703 10.0314 5.91866 10.1246 5.90222 10.2184C5.84512 10.5444 5.81122 10.8783 5.80231 11.2184H7.18696V12.2184H5.84867C5.88774 12.5441 5.94983 12.8627 6.03327 13.1726C6.03739 13.1879 6.04156 13.2032 6.04578 13.2184C6.69298 15.5562 8.55742 17.3883 10.914 17.9894C10.9757 18.0051 11.0377 18.02 11.1 18.0341C11.2556 18.0691 11.4132 18.0988 11.5727 18.123C11.7464 18.1493 11.9222 18.169 12.1 18.1819V16.813H13.1V18.1819C13.2834 18.1686 13.4648 18.148 13.6438 18.1204C13.7871 18.0983 13.9288 18.0718 14.069 18.0409C14.0793 18.0387 14.0896 18.0364 14.1 18.034C16.487 17.4966 18.3988 15.7039 19.1054 13.3857C19.1223 13.3302 19.1386 13.2745 19.1541 13.2184C19.2438 12.8942 19.3102 12.5602 19.3512 12.2184H18.0131V11.2184H19.3975Z" fill="#2A2620"/>
<path d="M13.8657 11.9585L14.4756 9.82362L12.3408 10.4336L13.8657 11.9585Z" fill="white"/>
<path fill-rule="evenodd" clip-rule="evenodd" d="M19.3976 11.2184H18.0131V12.2184H19.3512C18.9665 15.4251 16.3501 17.9457 13.1 18.1819V16.813H12.1V18.1819C8.84982 17.9457 6.23334 15.4252 5.84867 12.2184H7.18696V11.2184H5.80231C5.89418 7.71391 8.63749 4.86971 12.1 4.6181V5.98701H13.1V4.61811C16.5624 4.86977 19.3057 7.71394 19.3976 11.2184ZM14.5174 13.3173L15.9316 8.3676L10.9819 9.78181L9.56769 14.7316L14.5174 13.3173Z" fill="white"/>
</svg>
