<svg width="24" height="24" viewBox="0 0 24 24" fill="none" xmlns="http://www.w3.org/2000/svg">
<path d="M0 12C0 5.37258 5.37258 0 12 0C18.6274 0 24 5.37258 24 12C24 18.6274 18.6274 24 12 24C5.37258 24 0 18.6274 0 12Z" fill="#E5DED6"/>
<path fill-rule="evenodd" clip-rule="evenodd" d="M6.84855 4.55145C7.0736 4.32641 7.37882 4.19998 7.69708 4.19998H17.4C18.0628 4.19998 18.6 4.73724 18.6 5.39998V17.5029C18.6 17.8212 18.4736 18.1264 18.2486 18.3515L17.1515 19.4485C16.9265 19.6736 16.6213 19.8 16.303 19.8H6.60002C5.93728 19.8 5.40002 19.2627 5.40002 18.6V6.49704C5.40002 6.17878 5.52645 5.87355 5.7515 5.64851L6.84855 4.55145Z" fill="#2A2620"/>
<path d="M6.59998 5.39998C6.59998 4.73724 7.13723 4.19998 7.79998 4.19998H17.4C18.0627 4.19998 18.6 4.73724 18.6 5.39998V17.4C18.6 18.0627 18.0627 18.6 17.4 18.6H7.79998C7.13723 18.6 6.59998 18.0627 6.59998 17.4V5.39998Z" fill="white"/>
<path fill-rule="evenodd" clip-rule="evenodd" d="M7.79998 4.19995C7.13723 4.19995 6.59998 4.73721 6.59998 5.39995V17.4C6.59998 18.0627 7.13723 18.6 7.79998 18.6H17.4C18.0627 18.6 18.6 18.0627 18.6 17.4V5.39995C18.6 4.73721 18.0627 4.19995 17.4 4.19995H7.79998ZM17.4 5.19995H7.79998C7.68952 5.19995 7.59998 5.28949 7.59998 5.39995V8.35095L17.6 8.35095V5.39995C17.6 5.28949 17.5104 5.19995 17.4 5.19995ZM7.59998 17.4V9.35095L10.6644 9.35095L10.6644 17.6H7.79998C7.68952 17.6 7.59998 17.5104 7.59998 17.4ZM11.6644 17.6H17.4C17.5104 17.6 17.6 17.5104 17.6 17.4V9.35095L11.6644 9.35095L11.6644 17.6Z" fill="#2A2620"/>
</svg>
