<svg width="24" height="24" viewBox="0 0 24 24" fill="none" xmlns="http://www.w3.org/2000/svg">
<path d="M0 12C0 5.37258 5.37258 0 12 0C18.6274 0 24 5.37258 24 12C24 18.6274 18.6274 24 12 24C5.37258 24 0 18.6274 0 12Z" fill="#E5DED6"/>
<path d="M6.84843 4.55142C7.07347 4.32638 7.3787 4.19995 7.69696 4.19995H17.3999C18.0626 4.19995 18.5999 4.73721 18.5999 5.39995V17.5029C18.5999 17.8212 18.4735 18.1264 18.2484 18.3514L17.1514 19.4485C16.9264 19.6735 16.6211 19.8 16.3029 19.8H6.5999C5.93716 19.8 5.3999 19.2627 5.3999 18.6V6.49701C5.3999 6.17875 5.52633 5.87352 5.75137 5.64848L6.84843 4.55142Z" fill="#2A2620"/>
<path fill-rule="evenodd" clip-rule="evenodd" d="M7.8001 5.19995H17.4001C17.5106 5.19995 17.6001 5.28949 17.6001 5.39995V17.4C17.6001 17.5104 17.5106 17.6 17.4001 17.6H7.8001C7.68964 17.6 7.6001 17.5104 7.6001 17.4V5.39995C7.6001 5.28949 7.68964 5.19995 7.8001 5.19995ZM16.2 7.69998H9V6.69998H16.2V7.69998ZM9 10.1H16.2V9.10001H9V10.1ZM16.2 12.5H9V11.5H16.2V12.5ZM9 14.9H13.2V13.9H9V14.9Z" fill="white"/>
</svg>
