<svg width="24" height="24" viewBox="0 0 24 24" fill="none" xmlns="http://www.w3.org/2000/svg">
<path d="M0 12C0 5.37258 5.37258 0 12 0C18.6274 0 24 5.37258 24 12C24 18.6274 18.6274 24 12 24C5.37258 24 0 18.6274 0 12Z" fill="#E5DED6"/>
<path d="M4.82116 7.72683C4.91627 7.71956 5.01608 7.73541 5.11409 7.77974L7.71528 8.9563C7.76404 8.93228 7.81006 8.90136 7.85184 8.8637L12.195 4.94903C12.2725 4.8792 12.3626 4.83355 12.4565 4.8111C12.6791 4.71507 12.9479 4.7602 13.1268 4.94599L16.8682 8.83302L20.3636 7.62753C20.8092 7.47385 21.2499 7.87039 21.1439 8.32966L19.4096 15.8448C19.4046 15.8664 19.3985 15.8874 19.3914 15.9079C19.3488 16.034 19.2665 16.1395 19.1607 16.2116L17.9225 17.4498C17.8124 17.6032 17.6329 17.7 17.4349 17.7H5.1839C4.9045 17.7 4.66209 17.5072 4.59926 17.2349L2.86605 9.72433C2.80429 9.45671 2.92809 9.21054 3.13021 9.08196L4.36941 7.89284C4.49306 7.77417 4.65774 7.71697 4.82116 7.72683Z" fill="#2A2620"/>
<path d="M19.9599 9.00994L18.5048 15.3156H6.89016L5.43823 9.02391L7.35864 9.89254C7.97177 10.1699 8.6929 10.0339 9.16296 9.55237L12.6924 5.93677L16.1654 9.54484C16.6326 10.0302 17.3538 10.171 17.9692 9.89679L19.9599 9.00994Z" fill="white"/>
<path fill-rule="evenodd" clip-rule="evenodd" d="M6.15771 13.3551H19.469V14.3551H6.15771V13.3551Z" fill="#2A2620"/>
<rect x="10.9614" y="10.0624" width="2.4" height="2.4" transform="rotate(-45 10.9614 10.0624)" fill="#2A2620"/>
</svg>
