<svg width="24" height="24" viewBox="0 0 24 24" fill="none" xmlns="http://www.w3.org/2000/svg">
<path d="M0 12C0 5.37258 5.37258 0 12 0V0C18.6274 0 24 5.37258 24 12V12C24 18.6274 18.6274 24 12 24V24C5.37258 24 0 18.6274 0 12V12Z" fill="#E5DED6"/>
<path fill-rule="evenodd" clip-rule="evenodd" d="M8.57413 8.965C8.62107 8.42858 9.09397 8.03176 9.6304 8.07869L16.5041 8.68006C17.0406 8.727 17.4374 9.1999 17.3905 9.73633L16.5538 19.2998C16.5068 19.8362 16.0339 20.233 15.4975 20.1861L8.62375 19.5847C8.08732 19.5378 7.69051 19.0649 7.73744 18.5285L8.57413 8.965Z" fill="#2A2620"/>
<path d="M6 5.79999C6 5.2477 6.44772 4.79999 7 4.79999H13.1C13.6523 4.79999 14.1 5.2477 14.1 5.79999V14.3C14.1 14.8523 13.6523 15.3 13.1 15.3H7C6.44772 15.3 6 14.8523 6 14.3V5.79999Z" fill="#2A2620"/>
<path d="M10.1477 7.79773C10.1766 7.46762 10.4676 7.22342 10.7977 7.25231L17.6715 7.85368C18.0016 7.88256 18.2458 8.17358 18.2169 8.50369L17.3802 18.0672C17.3513 18.3973 17.0603 18.6415 16.7302 18.6126L9.85644 18.0112C9.52633 17.9823 9.28213 17.6913 9.31101 17.3612L10.1477 7.79773Z" fill="#2A2620"/>
<path d="M10.1128 8.19621C10.161 7.64603 10.646 7.23903 11.1962 7.28717L17.273 7.81882C17.8232 7.86695 18.2302 8.35199 18.182 8.90217L17.4151 17.6687C17.3669 18.2189 16.8819 18.6259 16.3317 18.5777L10.2549 18.0461C9.70473 17.9979 9.29774 17.5129 9.34587 16.9627L10.1128 8.19621Z" fill="white"/>
<path fill-rule="evenodd" clip-rule="evenodd" d="M9.61475 8.15262C9.68695 7.32734 10.4145 6.71686 11.2398 6.78906L17.3166 7.32071C18.1418 7.39291 18.7523 8.12046 18.6801 8.94573L17.9132 17.7122C17.8409 18.5375 17.1134 19.148 16.2881 19.0758L10.2113 18.5442C9.38606 18.472 8.77558 17.7444 8.84778 16.9191L9.61475 8.15262ZM11.1526 7.78525C10.8775 7.76119 10.635 7.96468 10.6109 8.23977L9.84397 17.0063C9.81991 17.2814 10.0234 17.5239 10.2985 17.548L16.3753 18.0796C16.6504 18.1037 16.8929 17.9002 16.917 17.6251L17.6839 8.85858C17.708 8.58349 17.5045 8.34097 17.2294 8.3169L11.1526 7.78525Z" fill="#2A2620"/>
<path fill-rule="evenodd" clip-rule="evenodd" d="M11.7927 13.2712C12.0345 13.1379 12.3386 13.2258 12.4719 13.4677C13.0352 14.4893 14.4216 14.6842 15.2447 13.8573C15.4395 13.6616 15.7561 13.6609 15.9518 13.8557C16.1475 14.0506 16.1482 14.3671 15.9534 14.5628C14.66 15.8621 12.4814 15.556 11.5962 13.9505C11.4629 13.7087 11.5508 13.4045 11.7927 13.2712Z" fill="#2A2620"/>
<path d="M12.5977 12.1744C12.9278 12.2033 13.2188 11.9591 13.2477 11.629C13.2766 11.2989 13.0324 11.0079 12.7023 10.979C12.3722 10.9501 12.0812 11.1943 12.0523 11.5244C12.0234 11.8545 12.2676 12.1455 12.5977 12.1744Z" fill="#2A2620"/>
<path d="M15.2977 12.4744C15.6278 12.5033 15.9188 12.2591 15.9477 11.929C15.9766 11.5989 15.7324 11.3079 15.4023 11.279C15.0722 11.2501 14.7812 11.4943 14.7523 11.8244C14.7234 12.1545 14.9676 12.4456 15.2977 12.4744Z" fill="#2A2620"/>
<path d="M17.4671 18.6519L16.254 19.9202L16.254 18.7021L17.4671 18.6519Z" fill="#2A2620"/>
</svg>
