<svg xmlns="http://www.w3.org/2000/svg" width="16" height="16" fill="none" viewBox="0 0 16 16"><path fill="currentColor" fill-rule="evenodd" d="M5.75 1a.75.75 0 0 1 .75.75V2h3v-.25a.75.75 0 1 1 1.5 0V2h2a1 1 0 0 1 1 1v10a1 1 0 0 1-1 1H3a1 1 0 0 1-1-1V3a1 1 0 0 1 1-1h2v-.25A.75.75 0 0 1 5.75 1m3.793 2.5a.75.75 0 0 0 1.415 0H12.5v9h-9v-9h1.543a.75.75 0 0 0 1.414 0zM8 5.25a.75.75 0 0 1 .75.75v1.25H10a.75.75 0 0 1 0 1.5H8.75V10a.75.75 0 0 1-1.5 0V8.75H6a.75.75 0 0 1 0-1.5h1.25V6A.75.75 0 0 1 8 5.25"/></svg>