<svg xmlns="http://www.w3.org/2000/svg" width="24" height="24" fill="none" viewBox="0 0 24 24"><path fill="currentColor" fill-rule="evenodd" d="M7.753 2.5a.75.75 0 0 1 .75.75V4H15.5v-.75a.75.75 0 0 1 1.5 0V4h1.5A1.5 1.5 0 0 1 20 5.5v13a1.5 1.5 0 0 1-1.5 1.5h-13A1.5 1.5 0 0 1 4 18.5v-13A1.5 1.5 0 0 1 5.5 4h1.503v-.75a.75.75 0 0 1 .75-.75m7.747 3v.75a.75.75 0 0 0 1.5 0V5.5h1.5v13h-13v-13h1.503v.75a.75.75 0 0 0 1.5 0V5.5zM12 8a.75.75 0 0 1 .75.75v2.5h2.5a.75.75 0 0 1 0 1.5h-2.5v2.5a.75.75 0 0 1-1.5 0v-2.5h-2.5a.75.75 0 0 1 0-1.5h2.5v-2.5A.75.75 0 0 1 12 8"/></svg>