<svg xmlns="http://www.w3.org/2000/svg" width="32" height="32" viewBox="0 0 32 32"><path fill-rule="evenodd" d="M16.01 6C10.47 6 5.98 10.49 5.98 16.029c0 2.74 1.1 5.225 2.883 7.035.81-1.823 2.155-3.327 3.828-4.212a5.091 5.091 0 1 1 6.483-.053c.356.18.709.389 1.05.621a1 1 0 0 1-1.125 1.654c-1.089-.742-2.191-1.083-2.956-1.083-2.478 0-4.712 1.753-5.663 4.406a9.982 9.982 0 0 0 5.53 1.66 1 1 0 1 1 0 2c-6.644 0-12.03-5.385-12.03-12.028C3.98 9.385 9.367 4 16.01 4s12.028 5.385 12.028 12.029a1 1 0 1 1-2 0C26.038 10.49 21.548 6 16.01 6m-.11 5.81a3.091 3.091 0 1 0 0 6.181 3.091 3.091 0 0 0 0-6.182"/><path d="M24 19a1 1 0 0 1 1 1v3h3a1 1 0 1 1 0 2h-3v3a1 1 0 1 1-2 0v-3h-3a1 1 0 1 1 0-2h3v-3a1 1 0 0 1 1-1"/></svg>