<svg xmlns="http://www.w3.org/2000/svg" width="16" height="16" fill="none" viewBox="0 0 16 16"><path fill="currentColor" fill-rule="evenodd" d="M7.984 2.502a5.482 5.482 0 0 0-3.778 9.454c.429-.907 1.098-1.67 1.926-2.16a3.016 3.016 0 1 1 3.877-.13c.2.101.396.217.586.347a.75.75 0 1 1-.844 1.24c-.562-.383-1.116-.548-1.476-.548-1.202 0-2.315.834-2.822 2.143a5.458 5.458 0 0 0 2.531.618.75.75 0 0 1 0 1.5 6.982 6.982 0 1 1 6.982-6.982.75.75 0 0 1-1.5 0 5.482 5.482 0 0 0-5.482-5.482m4.717 7.553a.75.75 0 0 1 .75.75v1.125h1.125a.75.75 0 1 1 0 1.5h-1.125v1.125a.75.75 0 0 1-1.5 0V13.43h-1.125a.75.75 0 0 1 0-1.5h1.125v-1.125a.75.75 0 0 1 .75-.75M7.993 5.906a1.516 1.516 0 1 0 0 3.033 1.516 1.516 0 0 0 0-3.033"/></svg>