<svg xmlns="http://www.w3.org/2000/svg" width="24" height="24" viewBox="0 0 24 24"><path fill-rule="evenodd" d="M12.01 4.51a7.507 7.507 0 0 0-5.35 12.772c.606-1.364 1.612-2.489 2.864-3.151a3.813 3.813 0 1 1 4.858-.04c.266.135.53.29.785.464a.75.75 0 0 1-.844 1.24c-.815-.555-1.64-.81-2.212-.81-1.855 0-3.526 1.311-4.238 3.297a7.473 7.473 0 0 0 4.138 1.242.75.75 0 0 1 0 1.5 9.007 9.007 0 1 1 9.007-9.007.75.75 0 1 1-1.5 0A7.507 7.507 0 0 0 12.01 4.51m-.081 4.349a2.313 2.313 0 1 0 0 4.626 2.313 2.313 0 0 0 0-4.626"/><path d="M18.248 14.5a.75.75 0 0 1 .75.75v2.25h2.25a.75.75 0 1 1 0 1.5h-2.25v2.25a.75.75 0 1 1-1.5 0V19h-2.25a.75.75 0 0 1 0-1.5h2.25v-2.25a.75.75 0 0 1 .75-.75"/></svg>