<svg xmlns="http://www.w3.org/2000/svg" width="32" height="32" viewBox="0 0 32 32"><path fill-rule="evenodd" d="M16 26c5.523 0 10-4.477 10-10S21.523 6 16 6 6 10.477 6 16s4.477 10 10 10m0 2c6.627 0 12-5.373 12-12S22.627 4 16 4 4 9.373 4 16s5.373 12 12 12m4.151-18.29a1.818 1.818 0 0 1 2.139 2.139l-1.503 7.513a1.82 1.82 0 0 1-1.425 1.425l-7.513 1.503a1.818 1.818 0 0 1-2.139-2.138l1.503-7.513a1.82 1.82 0 0 1 1.425-1.426zm.124 2.015L13.15 13.15l-1.425 7.126 7.125-1.426zM16 17.385a1.386 1.386 0 1 0 0-2.77 1.386 1.386 0 0 0 0 2.77"/></svg>