<svg xmlns="http://www.w3.org/2000/svg" width="16" height="16" viewBox="0 0 16 16"><path fill-rule="evenodd" d="M6.084 2A4.2 4.2 0 0 1 9.01 3.283c.034.032.063.063.082.083l.003.004a1 1 0 0 0 .071.07 3.44 3.44 0 0 0 3.2.963l.019-.004q.18-.04.358-.101.276-.094.535-.233a.411.411 0 0 1 .6.433 4.2 4.2 0 0 1-.357 1.11 4.26 4.26 0 0 1-3.616 2.407h-.329a3.6 3.6 0 0 1-.825-.1 3.44 3.44 0 0 0-3.13.952l-.001.001-.072.075-.026.028a3 3 0 0 0-.193.231l1.435 3.939a.556.556 0 1 1-1.045.38L3.467 7.335l-1.13-3.101-.003-.01-.3-.824a.556.556 0 0 1 1.045-.38l.03.084A4.22 4.22 0 0 1 5.748 2h.337M9.84 5.646a5 5 0 0 0 1.493.328c-.424.316-.93.504-1.46.54H9.58a2 2 0 0 1-.539-.07 5 5 0 0 0-1.267-.088h-.008a4.94 4.94 0 0 0-2.693 1.002L3.977 4.354A2.72 2.72 0 0 1 5.78 3.5h.28a2.7 2.7 0 0 1 1.872.826l.057.056.008.008.003.004h.001l.004.005c.018.019.058.062.11.11a4.9 4.9 0 0 0 1.724 1.137m-6.1-.984.002-.004z"/></svg>