<svg xmlns="http://www.w3.org/2000/svg" width="24" height="24" viewBox="0 0 24 24"><path fill-rule="evenodd" d="M9.499 4a5.67 5.67 0 0 1 3.94 1.727c.046.043.085.085.11.112l.005.005a1 1 0 0 0 .095.095 4.63 4.63 0 0 0 5.535.84.553.553 0 0 1 .808.583 6 6 0 0 1-.196.784l-.002.007a5.74 5.74 0 0 1-5.15 3.943H14.2a4.8 4.8 0 0 1-1.11-.134 4.63 4.63 0 0 0-4.605 1.732l1.93 5.302a.748.748 0 0 1-1.407.512l-3.167-8.696-1.387-3.805-.003-.013-.404-1.11a.748.748 0 1 1 1.406-.512l.042.114A5.7 5.7 0 0 1 9.046 4zm7.82 4.833q.253-.015.505-.051a4.24 4.24 0 0 1-3.21 1.814h-.41a3.3 3.3 0 0 1-.825-.106 6.4 6.4 0 0 0-1.578-.109h-.007a6.13 6.13 0 0 0-3.888 1.713L6.071 7.06A4.18 4.18 0 0 1 9.073 5.5h.4a4.17 4.17 0 0 1 2.887 1.27l.065.064.005.004.023.025.005.005.005.005c.025.027.072.078.131.132a6.13 6.13 0 0 0 4.718 1.828zm-4.894-2 .002.002z"/></svg>