<svg xmlns="http://www.w3.org/2000/svg" width="32" height="32" viewBox="0 0 32 32"><path d="M6.493 7.264a.75.75 0 0 1 .962.448l6.293 17.281a.75.75 0 1 1-1.41.513L6.045 8.226a.75.75 0 0 1 .448-.962"/><path fill-rule="evenodd" d="M17.829 8.151a7.06 7.06 0 0 0-4.906-2.15L12.907 6h-.549l-.039.001a7.08 7.08 0 0 0-5.173 2.706c-.044.056-.129.131-.223.215-.214.19-.477.424-.423.578L10 19c.056.16.344.102.612.048.15-.03.294-.06.388-.048.176.02.231-.137.292-.31a2 2 0 0 1 .078-.195l.03-.05q.15-.236.323-.454l.025-.031a5.77 5.77 0 0 1 5.647-2.045c.453.11.918.165 1.384.166h.59a7.14 7.14 0 0 0 6.313-4.73l.01-.03a7 7 0 0 0 .297-1.134.69.69 0 0 0-1.006-.726 6 6 0 0 1-.97.415 6 6 0 0 1-1.464.278 5.77 5.77 0 0 1-4.494-1.775 1 1 0 0 1-.082-.083l-.006-.007c-.032-.033-.08-.085-.138-.138m-1.143 1.686c-.077-.07-.137-.136-.168-.168l-.006-.007-.006-.007a2 2 0 0 0-.115-.114A5.06 5.06 0 0 0 12.89 8h-.493A5.08 5.08 0 0 0 8.77 9.877l2.205 5.986a7.77 7.77 0 0 1 4.797-2.048h.01a8 8 0 0 1 2.082.156c.3.073.609.11.918.11h.506A5.14 5.14 0 0 0 23 12.124q-.164.016-.332.027h-.009a7.77 7.77 0 0 1-5.974-2.313m2.098 4.245-.003 2v-.69m.002-1.31h-.002v1.034m.003-1.034h-.001"/></svg>