<svg xmlns="http://www.w3.org/2000/svg" width="24" height="24" viewBox="0 0 24 24"><path fill-rule="evenodd" d="M8.975 9.502a1.733 1.733 0 1 1 2.451-2.451l1.622 1.622a.75.75 0 1 1-1.06 1.06l-1.623-1.622a.233.233 0 0 0-.33.33.75.75 0 0 1-1.06 1.06m4.914.974a1.733 1.733 0 0 1 3.018-1.705l2.053 3.532.012.021c.61 1.133.83 2.294.597 3.458-.23 1.152-.888 2.224-1.885 3.222-.967.967-2.314 1.598-3.881 1.486a.75.75 0 0 1 .106-1.496c1.076.077 2.011-.348 2.714-1.05.856-.857 1.32-1.677 1.475-2.456.153-.765.027-1.57-.44-2.442L15.61 9.523l-.001-.001a.233.233 0 0 0-.404.233q.015.025.027.052l1.44 3.013a.75.75 0 0 1-1.354.646z"/><path fill-rule="evenodd" d="M4.09 10.114a1.734 1.734 0 0 1 2.385-2.386q.081-.112.182-.214a1.733 1.733 0 0 1 2.451 0l2.276 2.276a1.733 1.733 0 0 1 3.205-.556l.001.001 2.053 3.532.012.021c.61 1.132.829 2.294.596 3.458-.23 1.151-.887 2.224-1.885 3.222-.939.939-2.238 1.562-3.751 1.494-1.51-.07-3.126-.821-4.726-2.421l-3.245-3.245a1.733 1.733 0 0 1 .178-2.606 1.733 1.733 0 0 1 .268-2.576m1.177 1.242a.233.233 0 0 0-.33.33l1.158 1.159a.75.75 0 0 1-1.06 1.06.233.233 0 0 0-.33.33L7.95 17.48c1.413 1.413 2.694 1.936 3.733 1.983 1.036.047 1.939-.372 2.622-1.056.857-.856 1.32-1.676 1.476-2.456.152-.764.026-1.57-.441-2.441l-2.048-3.523v-.002a.233.233 0 1 0-.405.234l.03.057.976 2.086a.75.75 0 0 1-1.21.848L8.048 8.575a.233.233 0 1 0-.33.33.75.75 0 0 1-1.06 1.06L5.73 9.04a.233.233 0 1 0-.33.33l.927.927a.75.75 0 0 1-1.06 1.06"/><path fill-rule="evenodd" d="M5.035 12.845a.75.75 0 0 1 1.06 0l1.739 1.738a.75.75 0 0 1-1.061 1.061l-1.738-1.738a.75.75 0 0 1 0-1.06m.232-2.55a.75.75 0 0 1 1.06 0l2.666 2.665a.75.75 0 0 1-1.061 1.06l-2.665-2.665a.75.75 0 0 1 0-1.06m1.39-1.391a.75.75 0 0 1 1.06 0l2.666 2.665a.75.75 0 0 1-1.06 1.06L6.656 9.967a.75.75 0 0 1 0-1.061m8.694-2.781a.75.75 0 0 1-.274-1.025l.25-.433a.75.75 0 1 1 1.299.75l-.25.433a.75.75 0 0 1-1.024.275m-3.075-.069a.75.75 0 0 1-.53-.919l.387-1.449a.75.75 0 1 1 1.45.389l-.389 1.449a.75.75 0 0 1-.918.53M9.31 5.444a.75.75 0 0 1-.918-.53l-.13-.483a.75.75 0 1 1 1.45-.388l.13.483a.75.75 0 0 1-.531.918"/></svg>