<svg xmlns="http://www.w3.org/2000/svg" width="16" height="16" viewBox="0 0 16 16"><path fill-rule="evenodd" d="m2.821 5.562.032-.042c.653-.807 1.462-1.134 2.323-1.04.79.086 1.528.517 2.146.987.359.273.706.582 1.03.893a1.6 1.6 0 0 1 .35-.56c.318-.333.75-.505 1.22-.554.39-.041.747.096 1.023.255.285.164.558.395.807.653.5.518.978 1.222 1.345 1.983.366.76.643 1.622.696 2.458.054.836-.115 1.723-.737 2.409-.99 1.09-2.23 1.762-3.567 1.892-1.342.131-2.71-.289-3.94-1.25-1.12-.877-2.352-2.035-3.04-3.39-.348-.689-.567-1.449-.542-2.26.025-.816.296-1.635.854-2.434m1.214.882c-.395.573-.554 1.106-.569 1.598-.015.505.12 1.017.382 1.535.536 1.057 1.556 2.05 2.626 2.888.963.753 1.955 1.028 2.87.938.916-.09 1.826-.553 2.6-1.407.26-.286.39-.717.352-1.306-.037-.589-.24-1.26-.55-1.901-.309-.641-.7-1.208-1.073-1.593a2.3 2.3 0 0 0-.477-.396.5.5 0 0 0-.136-.06c-.196.023-.26.081-.273.096-.013.013-.046.054-.05.176-.008.28.158.779.622 1.338A.75.75 0 0 1 9.31 9.412c-.312-.253-.696-.65-1.083-1.051l-.254-.262c-.497-.51-1.025-1.031-1.56-1.438-.547-.417-1.018-.648-1.4-.69-.304-.033-.623.044-.978.473m8.315-.819a.75.75 0 0 1-.274-1.025l.75-1.299a.75.75 0 1 1 1.299.75l-.75 1.3a.75.75 0 0 1-1.024.274M9.276 4.306a.75.75 0 0 1-.53-.919l.387-1.449a.75.75 0 1 1 1.45.389l-.389 1.449a.75.75 0 0 1-.918.53m-3-.112a.75.75 0 0 1-.919-.53l-.13-.483a.75.75 0 0 1 1.45-.388l.129.483a.75.75 0 0 1-.53.918"/></svg>