<svg xmlns="http://www.w3.org/2000/svg" width="32" height="32" viewBox="0 0 32 32"><path fill-rule="evenodd" d="M12.139 11.766a2.27 2.27 0 0 1 0-3.28 2.445 2.445 0 0 1 3.382 0l2.271 2.202a.963.963 0 0 1 0 1.392 1.04 1.04 0 0 1-1.435 0l-2.272-2.202a.37.37 0 0 0-.51 0 .343.343 0 0 0 0 .496.963.963 0 0 1 0 1.392 1.04 1.04 0 0 1-1.436 0m6.886 1.33c-.63-1.103-.233-2.497.898-3.13 1.144-.64 2.606-.26 3.267.848l2.874 4.794.016.028c.85 1.531 1.156 3.1.832 4.67-.32 1.555-1.236 3.006-2.63 4.357-1.347 1.306-3.223 2.158-5.407 2.007-.559-.038-.98-.51-.94-1.052s.525-.95 1.085-.912c1.517.105 2.836-.475 3.826-1.435 1.202-1.166 1.855-2.284 2.075-3.35.216-1.048.036-2.148-.621-3.338l-2.867-4.781-.001-.003a.37.37 0 0 0-.494-.128.345.345 0 0 0-.132.479l.037.067 2.015 4.09a.97.97 0 0 1-.479 1.313 1.03 1.03 0 0 1-1.354-.464z"/><path fill-rule="evenodd" d="M5.321 12.629a2.27 2.27 0 0 1 .328-2.885 2.45 2.45 0 0 1 2.975-.317q.119-.165.27-.312a2.446 2.446 0 0 1 3.383 0l3.233 3.135c.107-.67.515-1.29 1.168-1.655 1.144-.64 2.606-.26 3.267.848v.001l2.874 4.793.017.028c.85 1.531 1.155 3.1.831 4.67-.32 1.556-1.236 3.006-2.63 4.357-1.308 1.269-3.117 2.11-5.225 2.017-2.104-.092-4.358-1.108-6.594-3.275L4.676 19.63a2.27 2.27 0 0 1 0-3.28q.13-.125.275-.23a2.27 2.27 0 0 1 .05-3.23q.151-.147.32-.261m1.626 1.653a.37.37 0 0 0-.51 0 .343.343 0 0 0 0 .495l1.621 1.573a.963.963 0 0 1 0 1.392 1.04 1.04 0 0 1-1.436 0 .37.37 0 0 0-.51 0 .343.343 0 0 0 0 .496l4.542 4.404c1.983 1.922 3.784 2.636 5.25 2.7 1.461.065 2.735-.509 3.697-1.442 1.202-1.165 1.855-2.284 2.075-3.35.216-1.048.037-2.148-.62-3.338l-2.867-4.781-.002-.003a.37.37 0 0 0-.494-.128.345.345 0 0 0-.132.479l.04.075 1.367 2.832a.97.97 0 0 1-.337 1.223 1.04 1.04 0 0 1-1.301-.11l-6.49-6.292a.37.37 0 0 0-.51 0 .343.343 0 0 0 0 .496.963.963 0 0 1 0 1.392 1.04 1.04 0 0 1-1.436 0l-1.298-1.258a.37.37 0 0 0-.511 0 .343.343 0 0 0 0 .495l1.298 1.258a.963.963 0 0 1 0 1.392 1.04 1.04 0 0 1-1.436 0"/><path fill-rule="evenodd" d="M6.622 16.35a1.04 1.04 0 0 1 1.436 0l2.434 2.36a.963.963 0 0 1 0 1.392 1.04 1.04 0 0 1-1.436 0l-2.434-2.36a.964.964 0 0 1 0-1.392m.325-3.46a1.04 1.04 0 0 1 1.436 0l3.731 3.617a.963.963 0 0 1 0 1.393 1.04 1.04 0 0 1-1.436 0l-3.731-3.618a.963.963 0 0 1 0-1.392m1.947-1.887a1.04 1.04 0 0 1 1.436 0l3.731 3.617a.963.963 0 0 1 0 1.392 1.04 1.04 0 0 1-1.436 0l-3.731-3.617a.963.963 0 0 1 0-1.392m10.654-2.185a1 1 0 0 1-.366-1.366l1-1.732a1 1 0 0 1 1.732 1l-1 1.732a1 1 0 0 1-1.366.366m-3.514-.827a1 1 0 0 1-.707-1.225l.518-1.931a1 1 0 0 1 1.931.517l-.517 1.932a1 1 0 0 1-1.225.707m-2.964-.482a1 1 0 0 1-1.225-.707l-.26-.966a1 1 0 0 1 1.933-.518l.258.966a1 1 0 0 1-.707 1.225"/></svg>