<svg xmlns="http://www.w3.org/2000/svg" width="16" height="16" viewBox="0 0 16 16"><path fill-rule="evenodd" d="M5.5 4.75a.75.75 0 0 1 .75.75v5.833c0 .348.086.627.186.793a.5.5 0 0 0 .098.124H8a.75.75 0 0 1 0 1.5H6.5c-.643 0-1.097-.43-1.35-.852-.262-.437-.4-.992-.4-1.565V5.5a.75.75 0 0 1 .75-.75m1.048 7.509-.006-.003z"/><path fill-rule="evenodd" d="M3.5 2.5v2h4v-2zM3 1a1 1 0 0 0-1 1v3a1 1 0 0 0 1 1h5a1 1 0 0 0 1-1V2a1 1 0 0 0-1-1z"/><path d="M8 12a1 1 0 0 1 1-1h4a1 1 0 0 1 1 1v2a1 1 0 0 1-1 1H9a1 1 0 0 1-1-1z"/></svg>