<svg xmlns="http://www.w3.org/2000/svg" width="24" height="24" viewBox="0 0 24 24"><path fill-rule="evenodd" d="M3.03 11.25a9.116 9.116 0 0 0 0 1.5 9.002 9.002 0 0 0 9.72 8.22 9.002 9.002 0 0 0 8.22-9.72 9.002 9.002 0 0 0-9.72-8.22 9.002 9.002 0 0 0-8.22 8.22Zm1.507 1.5a7.503 7.503 0 0 0 6.713 6.713V12.75zm6.713-1.5H4.537a7.502 7.502 0 0 1 6.713-6.713zm1.5 1.5v6.713a7.503 7.503 0 0 0 6.713-6.713zm6.713-1.5H12.75V4.537a7.503 7.503 0 0 1 6.713 6.713"/><path fill-rule="evenodd" d="M5.75 16.148a4.503 4.503 0 0 0 0-8.296A7.46 7.46 0 0 0 4.5 12c0 1.535.46 2.96 1.25 4.148m-.562-10.03A8.965 8.965 0 0 0 3 12c0 2.249.825 4.305 2.188 5.882a6.002 6.002 0 0 0 0-11.764Zm13.062 10.03a4.503 4.503 0 0 1 0-8.295A7.459 7.459 0 0 1 19.5 12a7.46 7.46 0 0 1-1.25 4.148m.562-10.03A8.965 8.965 0 0 1 21 12a8.965 8.965 0 0 1-2.188 5.882 6.002 6.002 0 0 1 0-11.764"/></svg>