<svg xmlns="http://www.w3.org/2000/svg" width="16" height="16" viewBox="0 0 16 16"><path fill-rule="evenodd" d="M7.25 14.96a7.092 7.092 0 0 0 1.5 0 7.003 7.003 0 0 0 6.21-7.71 7.003 7.003 0 0 0-7.71-6.21 7.003 7.003 0 0 0-6.21 7.71 7.003 7.003 0 0 0 6.21 6.21m1.5-1.51a5.503 5.503 0 0 0 4.7-4.7h-4.7zm-1.5-4.7v4.7a5.503 5.503 0 0 1-4.7-4.7zm1.5-1.5h4.7a5.503 5.503 0 0 0-4.7-4.7zm-1.5-4.7v4.7h-4.7a5.503 5.503 0 0 1 4.7-4.7"/><path fill-rule="evenodd" d="M12.86 5.422A3.737 3.737 0 0 0 11.833 8c0 .997.39 1.905 1.027 2.578.409-.769.64-1.646.64-2.578 0-.933-.231-1.81-.64-2.578m.344-2.103a5.25 5.25 0 0 0 0 9.362A6.974 6.974 0 0 0 15 8c0-1.8-.68-3.441-1.796-4.681ZM3.14 5.422A3.737 3.737 0 0 1 4.167 8a3.74 3.74 0 0 1-1.027 2.578A5.472 5.472 0 0 1 2.5 8c0-.932.231-1.81.64-2.578m-.344-2.103a5.25 5.25 0 0 1 0 9.362A6.974 6.974 0 0 1 1 8.001c0-1.8.68-3.442 1.796-4.682Z"/></svg>