<svg xmlns="http://www.w3.org/2000/svg" width="32" height="32" viewBox="0 0 32 32"><path fill-rule="evenodd" d="M16 4c-.337 0-.67.014-1 .041C9.17 4.522 4.522 9.171 4.041 15a12.16 12.16 0 0 0 0 2C4.522 22.83 9.171 27.478 15 27.959a12.16 12.16 0 0 0 2 0c5.83-.481 10.478-5.13 10.959-10.959a12.16 12.16 0 0 0 0-2C27.478 9.17 22.829 4.522 17 4.041A12.16 12.16 0 0 0 16 4m-1 2.05A10.003 10.003 0 0 0 6.05 15H15V6.05ZM17 15V6.05A10.003 10.003 0 0 1 25.95 15zm-2 2H6.05A10.003 10.003 0 0 0 15 25.95zm2 8.95V17h8.95A10.003 10.003 0 0 1 17 25.95"/><path fill-rule="evenodd" d="M10.917 16.025a7.001 7.001 0 0 0-4.084-6.366l.834-1.818a9.001 9.001 0 0 1 5.25 8.184 9.001 9.001 0 0 1-5.25 8.183l-.834-1.818a7.001 7.001 0 0 0 4.084-6.365"/><path fill-rule="evenodd" d="M7.875 21.831A6.994 6.994 0 0 0 11 16c0-2.43-1.24-4.575-3.125-5.831A9.947 9.947 0 0 0 6 16c0 2.177.694 4.19 1.875 5.831M7.377 7.655A11.96 11.96 0 0 0 4 16a11.96 11.96 0 0 0 3.377 8.345 9.003 9.003 0 0 0 0-16.69m16.748 14.176A6.994 6.994 0 0 1 21 16.001a6.996 6.996 0 0 1 3.125-5.832A9.947 9.947 0 0 1 26 16c0 2.177-.694 4.19-1.875 5.831m.498-14.176A11.96 11.96 0 0 1 28 16a11.96 11.96 0 0 1-3.377 8.345 9.003 9.003 0 0 1 0-16.69"/></svg>