<svg xmlns="http://www.w3.org/2000/svg" width="24" height="24" fill="none" viewBox="0 0 24 24"><path fill="currentColor" d="M13.75 5.75a1.75 1.75 0 1 1-3.5 0 1.75 1.75 0 0 1 3.5 0m0 6.25a1.75 1.75 0 1 1-3.5 0 1.75 1.75 0 0 1 3.5 0m0 6.25a1.75 1.75 0 1 1-3.5 0 1.75 1.75 0 0 1 3.5 0M7.5 5.75a1.75 1.75 0 1 1-3.5 0 1.75 1.75 0 0 1 3.5 0m0 6.25A1.75 1.75 0 1 1 4 12a1.75 1.75 0 0 1 3.5 0m0 6.25a1.75 1.75 0 1 1-3.5 0 1.75 1.75 0 0 1 3.5 0M20 5.75a1.75 1.75 0 1 1-3.5 0 1.75 1.75 0 0 1 3.5 0M20 12a1.75 1.75 0 1 1-3.5 0 1.75 1.75 0 0 1 3.5 0m0 6.25a1.75 1.75 0 1 1-3.5 0 1.75 1.75 0 0 1 3.5 0"/></svg>