<svg xmlns="http://www.w3.org/2000/svg" width="16" height="16" viewBox="0 0 16 16"><path d="M4.4 3.2a1.2 1.2 0 1 1-2.4 0 1.2 1.2 0 0 1 2.4 0m0 4.8A1.2 1.2 0 1 1 2 8a1.2 1.2 0 0 1 2.4 0m0 4.8a1.2 1.2 0 1 1-2.4 0 1.2 1.2 0 0 1 2.4 0m4.8-9.6a1.2 1.2 0 1 1-2.4 0 1.2 1.2 0 0 1 2.4 0m0 4.8a1.2 1.2 0 1 1-2.4 0 1.2 1.2 0 0 1 2.4 0m0 4.8a1.2 1.2 0 1 1-2.4 0 1.2 1.2 0 0 1 2.4 0M14 3.2a1.2 1.2 0 1 1-2.4 0 1.2 1.2 0 0 1 2.4 0M14 8a1.2 1.2 0 1 1-2.4 0A1.2 1.2 0 0 1 14 8m0 4.8a1.2 1.2 0 1 1-2.4 0 1.2 1.2 0 0 1 2.4 0"/></svg>