<svg xmlns="http://www.w3.org/2000/svg" width="16" height="16" viewBox="0 0 16 16"><path fill-rule="evenodd" d="M12 3a.75.75 0 1 0 0-1.5.75.75 0 0 0 0 1.5M4.75 5a.75.75 0 0 0-1.5 0v1H2a1 1 0 0 0-1 1v6a1 1 0 0 0 1 1h12a1 1 0 0 0 1-1V7a1 1 0 0 0-1-1h-1.25V5a.75.75 0 0 0-1.5 0v1h-2.5V5a.75.75 0 0 0-1.5 0v1h-2.5zM2.5 12.5v-.857c.175.068.364.107.566.107.731 0 1.282-.51 1.677-1.066.147-.206.268-.323.353-.383a.4.4 0 0 1 .098-.05l.004-.001H5.2l.014.004a.4.4 0 0 1 .084.047c.086.06.206.177.353.383.396.557.947 1.066 1.678 1.066.73 0 1.282-.51 1.677-1.066.147-.206.267-.323.353-.383a.4.4 0 0 1 .098-.05h.002l.002-.001h.003l.014.004a.4.4 0 0 1 .084.047c.086.06.206.177.353.383.396.557.946 1.066 1.677 1.066s1.282-.51 1.678-1.066q.131-.181.229-.277V12.5zm.111-2.684A1 1 0 0 0 2.5 9.69V7.5h11v1.267a1.7 1.7 0 0 0-.518.172c-.369.192-.675.512-.934.877a1.6 1.6 0 0 1-.353.383.4.4 0 0 1-.098.05l-.004.001h-.003l-.014-.004a.4.4 0 0 1-.084-.047 1.6 1.6 0 0 1-.353-.383c-.396-.557-.946-1.066-1.677-1.066s-1.282.51-1.678 1.066a1.6 1.6 0 0 1-.353.383.4.4 0 0 1-.098.05h-.002l-.001.001h-.004l-.014-.004a.4.4 0 0 1-.084-.047 1.6 1.6 0 0 1-.353-.383C6.48 9.259 5.93 8.75 5.198 8.75s-1.282.51-1.677 1.066a1.6 1.6 0 0 1-.354.383.4.4 0 0 1-.098.05l-.003.001h-.003l-.015-.004a.4.4 0 0 1-.083-.047 1.6 1.6 0 0 1-.354-.383M8.75 2.25a.75.75 0 1 1-1.5 0 .75.75 0 0 1 1.5 0M4 3a.75.75 0 1 0 0-1.5A.75.75 0 0 0 4 3"/></svg>