<svg xmlns="http://www.w3.org/2000/svg" width="32" height="32" viewBox="0 0 32 32"><path fill-rule="evenodd" d="M23 6a1 1 0 1 0 0-2 1 1 0 0 0 0 2M10 9a1 1 0 0 0-2 0v3H5a1 1 0 0 0-1 1v12a1 1 0 0 0 1 1h22a1 1 0 0 0 1-1V13a1 1 0 0 0-1-1h-3V9a1 1 0 1 0-2 0v3h-5V9a1 1 0 1 0-2 0v3h-5zm13 5H6v4.191c.523.726.855.809.954.809.11 0 .5-.1 1.117-1.046C8.757 16.9 9.669 16 10.863 16s2.105.9 2.792 1.954C14.27 18.9 14.662 19 14.77 19s.5-.1 1.116-1.046C16.574 16.9 17.487 16 18.68 16s2.105.9 2.792 1.954C22.088 18.9 22.478 19 22.588 19s.5-.1 1.116-1.046c.45-.691.966-1.27 1.572-1.616q.35-.2.724-.283V14zM6 24v-3.203c.296.13.614.203.954.203 1.193 0 2.106-.9 2.792-1.954C10.362 18.1 10.753 18 10.863 18s.5.1 1.116 1.046C12.666 20.1 13.578 21 14.771 21s2.105-.9 2.792-1.954C18.18 18.1 18.57 18 18.68 18s.5.1 1.116 1.046C20.483 20.1 21.395 21 22.588 21s2.105-.9 2.792-1.954c.235-.361.444-.607.62-.77V24zM17 5a1 1 0 1 1-2 0 1 1 0 0 1 2 0M9 6a1 1 0 1 0 0-2 1 1 0 0 0 0 2"/></svg>