<svg xmlns="http://www.w3.org/2000/svg" width="24" height="24" viewBox="0 0 24 24"><path fill-rule="evenodd" d="M17 6.5a1 1 0 1 0 0-2 1 1 0 0 0 0 2m-9.25 2a.75.75 0 0 0-1.5 0V11H5a1 1 0 0 0-1 1v3.833l-.124.083q.06.09.124.179V19a1 1 0 0 0 1 1h14a1 1 0 0 0 1-1v-7a1 1 0 0 0-1-1h-1.25V8.5a.75.75 0 0 0-1.5 0V11h-3.5V8.5a.75.75 0 0 0-1.5 0V11h-3.5zm-2.25 10v-1.283q.16.032.332.033c.843 0 1.483-.622 1.957-1.334.414-.622.662-.666.708-.666s.294.044.708.666c.475.712 1.114 1.334 1.957 1.334s1.482-.622 1.957-1.334c.414-.622.662-.666.708-.666s.294.044.708.666c.474.712 1.114 1.334 1.957 1.334.842 0 1.482-.622 1.956-1.334l.052-.076v2.66zm12.797-4.517a2 2 0 0 1 .203-.099V12.5h-13v3.05c.189.181.303.2.332.2.046 0 .295-.044.709-.666.474-.712 1.114-1.334 1.956-1.334.843 0 1.483.622 1.957 1.334.414.622.662.666.708.666s.294-.044.708-.666c.475-.712 1.114-1.334 1.957-1.334.842 0 1.482.622 1.957 1.334.414.622.662.666.708.666s.294-.044.708-.666c.311-.467.67-.864 1.097-1.101M13 5.5a1 1 0 1 1-2 0 1 1 0 0 1 2 0m-6 1a1 1 0 1 0 0-2 1 1 0 0 0 0 2"/></svg>