<svg xmlns="http://www.w3.org/2000/svg" width="16" height="16" viewBox="0 0 16 16"><path fill-rule="evenodd" d="M7.697 3.111c1.226-1.226 3.073-1.422 4.547-.664a.75.75 0 0 1 .187 1.197l-1.856 1.857.399.399 1.856-1.857a.75.75 0 0 1 1.198.188c.758 1.474.562 3.321-.664 4.547-.994.994-2.399 1.311-3.679.991L5.2 14.255a.75.75 0 0 1-1.061 0l-1.92-1.92a.75.75 0 0 1 0-1.06l4.486-4.486c-.32-1.28-.002-2.684.992-3.678m2.758.389a2.32 2.32 0 0 0-1.698.672c-.667.667-.845 1.667-.5 2.555a.75.75 0 0 1-.17.801l-4.276 4.277.858.859 4.277-4.277a.75.75 0 0 1 .802-.169c.888.345 1.888.166 2.555-.5a2.32 2.32 0 0 0 .672-1.698l-1.47 1.471a.75.75 0 0 1-1.062 0l-1.46-1.46a.75.75 0 0 1 0-1.06z"/></svg>