<svg xmlns="http://www.w3.org/2000/svg" width="32" height="32" viewBox="0 0 32 32"><path fill-rule="evenodd" d="M17.025 7.56a5.9 5.9 0 0 1 6.716-1.152 1 1 0 0 1 .276 1.61l-3.008 3.008.895.896 3.009-3.01a1 1 0 0 1 1.61.277 5.902 5.902 0 0 1-6.75 8.27l-9.13 9.13a1 1 0 0 1-1.414 0L6.34 23.7a1 1 0 0 1 0-1.414l9.13-9.13a5.9 5.9 0 0 1 1.554-5.596m4.345.276a3.9 3.9 0 0 0-3.83 5.256 1 1 0 0 1-.23 1.055l-8.847 8.847 1.473 1.473 8.847-8.847a1 1 0 0 1 1.055-.23 3.9 3.9 0 0 0 5.256-3.83l-2.483 2.483a1 1 0 0 1-1.414 0l-2.31-2.31a1 1 0 0 1 0-1.414z"/></svg>