<svg xmlns="http://www.w3.org/2000/svg" width="24" height="24" viewBox="0 0 24 24"><path fill-rule="evenodd" d="M12.51 5.43a4.44 4.44 0 0 1 5.052-.868.75.75 0 0 1 .207 1.207l-2.266 2.266.678.678 2.266-2.266a.75.75 0 0 1 1.207.207 4.44 4.44 0 0 1-5.078 6.22l-6.872 6.872a.75.75 0 0 1-1.06 0L4.47 17.573a.75.75 0 0 1 0-1.061l6.872-6.872a4.44 4.44 0 0 1 1.168-4.21m3.274.202a2.938 2.938 0 0 0-2.89 3.959.75.75 0 0 1-.173.791l-6.66 6.66 1.112 1.113 6.66-6.66a.75.75 0 0 1 .791-.173 2.94 2.94 0 0 0 3.96-2.89l-1.873 1.872a.75.75 0 0 1-1.06 0l-1.74-1.739a.75.75 0 0 1 0-1.06z"/></svg>