<svg xmlns="http://www.w3.org/2000/svg" width="16" height="16" viewBox="0 0 16 16"><path fill-rule="evenodd" d="M13.863 1.746a.75.75 0 0 0-1.32-.488l-.8.933a.75.75 0 0 0-.18.488v.697L8.177 6.762a1.25 1.25 0 1 0 1.06 1.06l3.328-3.326h.815a.75.75 0 0 0 .488-.18l.933-.8a.75.75 0 0 0-.488-1.32h-.45zM8 2.496a5.504 5.504 0 1 0 5.28 3.945.75.75 0 1 1 1.44-.424A7.004 7.004 0 1 1 9.983 1.28a.75.75 0 0 1-.425 1.438A5.5 5.5 0 0 0 8 2.496m0 3.003a2.501 2.501 0 1 0 2.488 2.239.75.75 0 0 1 1.492-.156Q12 7.79 12 8a4.001 4.001 0 1 1-3.6-3.981.75.75 0 1 1-.148 1.492A3 3 0 0 0 8 5.5"/></svg>