<svg xmlns="http://www.w3.org/2000/svg" width="32" height="32" viewBox="0 0 32 32"><path fill-rule="evenodd" d="M25.6 5a1 1 0 0 0-1.76-.65l-1.6 1.866a1 1 0 0 0-.24.65v1.72l-4.707 4.706a3 3 0 1 0 1.414 1.414L23.415 10h1.72a1 1 0 0 0 .65-.24l1.867-1.6A1 1 0 0 0 27 6.4h-1.4zM6 16c0-5.523 4.477-10 10-10 1.285 0 2.51.242 3.636.681a1 1 0 0 0 .728-1.863A11.973 11.973 0 0 0 16 4C9.373 4 4 9.373 4 16s5.373 12 12 12 12-5.373 12-12c0-1.538-.29-3.01-.818-4.364a1 1 0 0 0-1.863.728A9.972 9.972 0 0 1 26 16c0 5.523-4.477 10-10 10S6 21.523 6 16m4.5 0a5.5 5.5 0 0 1 6.347-5.435 1 1 0 1 0 .306-1.977 7.5 7.5 0 1 0 6.26 6.26 1 1 0 1 0-1.978.305A5.5 5.5 0 1 1 10.5 16m5.5 1a1 1 0 1 0 0-2 1 1 0 0 0 0 2"/></svg>