<svg xmlns="http://www.w3.org/2000/svg" width="32" height="32" fill="none" viewBox="0 0 32 32"><path fill="currentColor" fill-rule="evenodd" d="M4.024 10.522A4.54 4.54 0 0 1 8.564 6h10.331c.362 0 .709.103 1.01.286.3.181.542.434.72.721a.997.997 0 0 1 .06.11l2.8 6.123 1.33.518A5 5 0 0 1 28 18.417V21a2 2 0 0 1-2 2h-1.035a3.501 3.501 0 0 1-6.93 0h-4.07a3.501 3.501 0 0 1-6.93 0H6a2 2 0 0 1-2-2v-4.58l.024-5.898m14.311 10.482A3.5 3.5 0 0 1 24.663 21H26v-2.583a3 3 0 0 0-1.91-2.796l-1.533-.597h-4.236a3 3 0 0 1-2.76-1.822L13.34 8H8.564a2.54 2.54 0 0 0-2.54 2.53L6 16.424V21h1.337a3.5 3.5 0 0 1 6.328.004.997.997 0 0 1 .085-.004h4.5c.029 0 .057.001.085.004M15.515 8l1.886 4.417a1 1 0 0 0 .92.607h2.867L18.9 8.026A.167.167 0 0 0 18.874 8h-3.36M9 22.5a1.5 1.5 0 1 0 3 0 1.5 1.5 0 0 0-3 0M21.5 24a1.5 1.5 0 1 1 0-3 1.5 1.5 0 0 1 0 3"/></svg>