<svg xmlns="http://www.w3.org/2000/svg" width="24" height="24" viewBox="0 0 24 24"><path fill-rule="evenodd" d="M3.018 8.392A3.405 3.405 0 0 1 6.423 5h7.748c.272 0 .532.077.758.214.225.136.407.326.54.541a1 1 0 0 1 .044.083l2.101 4.592.998.389A3.75 3.75 0 0 1 21 14.312V16a1.5 1.5 0 0 1-1.5 1.5h-1.708a2.5 2.5 0 0 1-4.584 0h-2.416a2.5 2.5 0 0 1-4.584 0H4.5A1.5 1.5 0 0 1 3 16v-3.333zM13.05 16a2.5 2.5 0 0 1 4.9 0h1.55v-1.688a2.25 2.25 0 0 0-1.433-2.096l-1.15-.448H13.74a2.25 2.25 0 0 1-2.069-1.366L10.005 6.5H6.423c-1.05 0-1.901.848-1.905 1.898L4.5 12.67V16h1.55a2.5 2.5 0 0 1 4.9 0zm-1.414-9.5 1.415 3.313a.75.75 0 0 0 .69.455h2.15L14.175 6.52l-.02-.02zM7.5 16.5a1 1 0 1 0 2 0 1 1 0 0 0-2 0m8 1a1 1 0 1 1 0-2 1 1 0 0 1 0 2"/></svg>