<svg xmlns="http://www.w3.org/2000/svg" width="16" height="16" viewBox="0 0 16 16"><path fill-rule="evenodd" d="M1.017 4.743a2.76 2.76 0 0 1 2.761-2.739h5.87c.244 0 .477.072.676.196a1.431 1.431 0 0 1 .508.562l1.564 3.52.88.354a2.75 2.75 0 0 1 1.726 2.552v2.43c0 .69-.56 1.25-1.25 1.25h-1.285a2.17 2.17 0 0 1-3.817 0H6.786a2.17 2.17 0 0 1-3.817 0h-.716c-.69 0-1.25-.56-1.25-1.25V8.152l.014-3.408m7.422 6.626a2.171 2.171 0 0 1 4.24 0h.822V9.188c0-.51-.31-.97-.784-1.16l-1.028-.413H9.072a1.5 1.5 0 0 1-1.386-.925l-1.32-3.186H3.777a1.26 1.26 0 0 0-1.26 1.246l-.014 3.405v3.215h.255a2.171 2.171 0 0 1 4.24 0h1.44m-.45-7.865 1.083 2.611h1.609l-1.16-2.61H7.989Zm-3.111 7.66a.67.67 0 1 0 0 1.34.67.67 0 0 0 0-1.34m5.01.67a.67.67 0 1 1 1.341 0 .67.67 0 0 1-1.34 0"/></svg>