<svg xmlns="http://www.w3.org/2000/svg" width="32" height="32" viewBox="0 0 32 32"><path fill-rule="evenodd" d="M12.775 6.186c.43-.06.94-.1 1.41-.128A34.91 34.91 0 0 1 15.997 6h.005c.668.002 1.84.043 2.745.197a9.17 9.17 0 0 1 1.336-.756 16.82 16.82 0 0 1 2.276-.867c.786-.237 1.598-.419 2.319-.488.36-.035.722-.043 1.06-.008.326.034.696.117 1.026.315.69.414.97 1.23 1.1 1.857.146.699.177 1.528.123 2.367-.093 1.458-.457 3.134-1.108 4.416.632 1.391 1.12 3.236 1.12 4.717C28 23.93 22.294 28 16 28 9.716 28 4 24.073 4 17.75c0-1.547.56-3.38 1.128-4.7-.658-1.287-1.034-2.987-1.133-4.46-.056-.843-.027-1.678.121-2.379a3.74 3.74 0 0 1 .356-1.013c.17-.309.427-.635.82-.837.622-.32 1.379-.343 2.04-.278.693.069 1.444.252 2.16.49 1.196.395 2.443.993 3.282 1.613m-6.526-.065a.527.527 0 0 0-.022.037 1.79 1.79 0 0 0-.154.469c-.098.46-.131 1.098-.082 1.829.1 1.482.516 3.075 1.104 4.013a1 1 0 0 1 .055.96C6.577 14.636 6 16.432 6 17.75 6 22.585 10.394 26 16 26c5.596 0 10-3.541 10-8.25 0-1.284-.51-3.093-1.134-4.286a1 1 0 0 1 .039-.995c.587-.937.993-2.508 1.087-3.98.047-.725.013-1.364-.084-1.833-.08-.383-.173-.522-.193-.555a.986.986 0 0 0-.186-.034 3.402 3.402 0 0 0-.659.01c-.55.053-1.227.2-1.933.412-.702.212-1.403.48-1.999.76-.614.29-1.047.563-1.266.761a1 1 0 0 1-.926.227c-.643-.169-1.934-.234-2.747-.237-.384 0-1.042.017-1.698.055-.683.04-1.276.1-1.573.169a1 1 0 0 1-.9-.234c-.51-.463-1.685-1.095-2.965-1.52-.625-.206-1.225-.347-1.728-.396-.477-.048-.757-.002-.886.047m.014-.02.002-.001-.002.001"/><path fill-rule="evenodd" d="M14.076 21.617A1 1 0 0 1 15 21h2a1 1 0 0 1 .707 1.707l-1 1a1 1 0 0 1-1.414 0l-1-1a1 1 0 0 1-.217-1.09M8 19a1 1 0 0 1-1 1H5.667a1 1 0 1 1 0-2H7a1 1 0 0 1 1 1m8-4a1 1 0 0 1-1-1V8a1 1 0 1 1 2 0v6a1 1 0 0 1-1 1m3-1a1 1 0 0 1-1-1V7.5a1 1 0 1 1 2 0V13a1 1 0 0 1-1 1m-6 0a1 1 0 0 1-1-1V8a1 1 0 1 1 2 0v5a1 1 0 0 1-1 1m14.667 5a1 1 0 0 1-1 1H25a1 1 0 1 1 0-2h1.667a1 1 0 0 1 1 1"/><path d="M12.5 18.25a1.25 1.25 0 1 1-2.5 0 1.25 1.25 0 0 1 2.5 0m9.5 0a1.25 1.25 0 1 1-2.5 0 1.25 1.25 0 0 1 2.5 0"/></svg>