<svg xmlns="http://www.w3.org/2000/svg" width="24" height="24" viewBox="0 0 24 24"><path fill-rule="evenodd" d="M17.104 4.892c-1.001.406-1.91 1.026-2.358 1.42a.75.75 0 0 1-.681.165c-.504-.129-1.388-.17-2.015-.172-.611.001-1.613.058-2.134.176a.75.75 0 0 1-.662-.168c-.44-.388-1.368-.998-2.385-1.403-1.037-.412-1.931-.516-2.495-.258l-.014.025a1.4 1.4 0 0 0-.111.366c-.068.363-.08.865-.03 1.438.106 1.163.455 2.406.911 3.112.143.221.16.501.043.737a6.8 6.8 0 0 0-.673 2.92c0 3.636 3.223 6.25 7.55 6.25 4.308 0 7.45-2.698 7.45-6.25 0-1.015-.204-2.049-.66-2.894a.75.75 0 0 1 .03-.763c.456-.706.805-1.95.91-3.112.052-.573.039-1.075-.029-1.438a1.4 1.4 0 0 0-.125-.39c-.608-.282-1.507-.174-2.522.239m2.51-.256.002.001zm-15.228 0-.002.001zm12.153-1.134c1.128-.458 2.58-.781 3.797-.173.308.155.506.411.633.652s.206.516.257.788c.101.543.107 1.193.048 1.847-.102 1.136-.416 2.442-.924 3.412.462 1.023.65 2.16.65 3.222 0 4.615-4.069 7.75-8.95 7.75C7.192 21 3 17.983 3 13.25c0-1.12.244-2.239.657-3.21-.512-.97-.828-2.283-.931-3.424-.059-.654-.053-1.304.048-1.847.05-.272.13-.546.257-.788.127-.241.325-.497.633-.652 1.176-.588 2.633-.26 3.759.187.995.396 1.924.96 2.534 1.433.68-.104 1.564-.143 2.093-.144h.003c.515.002 1.33.027 1.996.138a11 11 0 0 1 2.49-1.44"/><path fill-rule="evenodd" d="M10.532 16.533A.75.75 0 0 1 11.25 16h1.5a.75.75 0 0 1 .416 1.374l-.75.5a.75.75 0 0 1-.832 0l-.75-.5a.75.75 0 0 1-.302-.841"/><path d="M9 14a1 1 0 1 1-2 0 1 1 0 0 1 2 0m8 0a1 1 0 1 1-2 0 1 1 0 0 1 2 0"/><path fill-rule="evenodd" d="M5.75 14.75a.75.75 0 0 1-.75.75H4A.75.75 0 0 1 4 14h1a.75.75 0 0 1 .75.75M12 12a.75.75 0 0 1-.75-.75V6a.75.75 0 0 1 1.5 0v5.25A.75.75 0 0 1 12 12m2.75-1a.75.75 0 0 1-.75-.75V5.5a.75.75 0 0 1 1.5 0v4.75a.75.75 0 0 1-.75.75m-5.5 0a.75.75 0 0 1-.75-.75V5.5a.75.75 0 0 1 1.5 0v4.75a.75.75 0 0 1-.75.75m11.5 3.75a.75.75 0 0 1-.75.75h-1a.75.75 0 0 1 0-1.5h1a.75.75 0 0 1 .75.75"/></svg>