<svg xmlns="http://www.w3.org/2000/svg" width="16" height="16" viewBox="0 0 16 16"><path fill-rule="evenodd" d="M8 3.215a7 7 0 0 0-1.159.109 7.428 7.428 0 0 0-1.693-1.008c-.851-.353-1.971-.576-3.027-.048a1.276 1.276 0 0 0-.54.543 2.279 2.279 0 0 0-.217.609c-.088.408-.107.888-.08 1.363.046.786.23 1.708.575 2.424a5.73 5.73 0 0 0-.424 2.174c0 3.482 3.1 5.597 6.566 5.597 3.473 0 6.566-2.192 6.566-5.597 0-.768-.18-1.51-.488-2.19.341-.715.522-1.628.567-2.408a5.207 5.207 0 0 0-.08-1.363 2.276 2.276 0 0 0-.216-.61 1.276 1.276 0 0 0-.54-.542c-1.056-.528-2.176-.304-3.028.048-.676.28-1.27.677-1.685 1.002a6.054 6.054 0 0 0-1.094-.103H8m-5.17.521c.017-.077.035-.131.049-.167.477-.198 1.06-.13 1.695.133a6.04 6.04 0 0 1 1.568.99.75.75 0 0 0 .661.169A5.8 5.8 0 0 1 8 4.715c.374.001.746.049 1.108.141a.75.75 0 0 0 .681-.164 6.04 6.04 0 0 1 1.568-.99c.635-.263 1.218-.331 1.695-.132.014.035.031.09.048.166.05.233.072.569.049.96-.047.806-.262 1.632-.545 2.07a.75.75 0 0 0-.03.762c.318.59.493 1.22.493 1.853 0 2.3-2.116 4.097-5.066 4.097-2.958 0-5.066-1.733-5.066-4.097 0-.683.158-1.314.435-1.878a.75.75 0 0 0-.043-.738c-.283-.437-.499-1.263-.545-2.068a3.767 3.767 0 0 1 .049-.96Zm10.2-.214.001.003-.002-.003M2.9 3.525a.02.02 0 0 1 .001-.003l-.001.003m2.162 6.063a.588.588 0 1 0 0-1.176.588.588 0 0 0 0 1.176M11.528 9a.588.588 0 1 1-1.176 0 .588.588 0 0 1 1.175 0m-4.115 1.763a.588.588 0 0 0-.415 1.004l.587.588c.23.23.602.23.832 0l.587-.588a.588.588 0 0 0-.415-1.004H7.413"/></svg>