<svg xmlns="http://www.w3.org/2000/svg" width="16" height="16" viewBox="0 0 16 16"><path fill-rule="evenodd" d="M13.882 5.5A5.12 5.12 0 0 0 10.5 2.118V5.5zm-3.842-.011h.002zm.471.469v.002zm4.972.34c.083-.267.032-.472-.069-.883a6.616 6.616 0 0 0-4.829-4.83c-.411-.1-.617-.15-.883-.068a1.147 1.147 0 0 0-.558.437C9 1.193 9 1.46 9 1.994V5.4c0 .56 0 .84.109 1.054a1 1 0 0 0 .437.437C9.76 7 10.04 7 10.6 7h3.405c.535 0 .802 0 1.04-.144.181-.11.375-.357.438-.558"/><path fill-rule="evenodd" d="M7.989 9.511a1.5 1.5 0 0 1-1.5-1.5V2.73a5.489 5.489 0 1 0 6.782 6.782H7.988m5.388-1.5c.537 0 .806 0 1.043.142.181.109.373.35.438.552.085.263.036.473-.062.893A6.989 6.989 0 1 1 6.4 1.204c.421-.097.631-.146.894-.061.201.065.443.257.552.438.142.237.142.506.142 1.043V8.01h5.388"/></svg>