<svg xmlns="http://www.w3.org/2000/svg" width="24" height="24" viewBox="0 0 24 24"><path fill-rule="evenodd" d="M19.6 9.5c.203 0 .359 0 .493-.003.123-.003.204-.008.261-.014a2.446 2.446 0 0 0-.024-.108 13.576 13.576 0 0 0-.093-.353 7.517 7.517 0 0 0-5.259-5.259 13.374 13.374 0 0 0-.461-.117 3.362 3.362 0 0 0-.014.26c-.003.135-.003.29-.003.494v4.2a12.265 12.265 0 0 0 .017.883l.02.002c.175.014.418.015.863.015h4.2m2.207.422c.119-.407.038-.703-.123-1.295a9.017 9.017 0 0 0-6.312-6.311c-.591-.161-.887-.242-1.294-.123-.304.09-.69.385-.856.654C13 3.21 13 3.606 13 4.4v4.2c0 .84 0 1.26.164 1.581a1.5 1.5 0 0 0 .655.656c.32.163.74.163 1.581.163h4.2c.794 0 1.191 0 1.552-.222.27-.166.566-.552.655-.856"/><path fill-rule="evenodd" d="M12 13.5a1.5 1.5 0 0 1-1.5-1.5V5.4c0-.203 0-.359-.003-.493a3.403 3.403 0 0 0-.014-.261 13.374 13.374 0 0 0-.461.117 7.5 7.5 0 1 0 9.215 9.215c.042-.154.07-.26.093-.353.011-.047.02-.082.024-.108a3.402 3.402 0 0 0-.26-.014 23.34 23.34 0 0 0-.494-.003zm6.6-1.5c.794 0 1.191 0 1.552.222.27.166.566.552.655.856.119.407.038.703-.123 1.295A9 9 0 1 1 9.628 3.316c.591-.161.887-.242 1.294-.123.304.09.69.385.856.654C12 4.21 12 4.606 12 5.4V12z"/></svg>