<svg xmlns="http://www.w3.org/2000/svg" width="32" height="32" viewBox="0 0 32 32"><path fill-rule="evenodd" d="M26.8 12c.271 0 .478 0 .657-.004.164-.004.273-.01.348-.018a3.323 3.323 0 0 0-.032-.145 18.33 18.33 0 0 0-.124-.47 10.023 10.023 0 0 0-7.012-7.012 18.118 18.118 0 0 0-.47-.124 3.29 3.29 0 0 0-.145-.033 4.603 4.603 0 0 0-.018.349C20 4.722 20 4.929 20 5.2v5.6c0 .593.002.918.02 1.15l.003.027.026.002c.233.02.558.021 1.151.021zm2.942.562c.16-.542.052-.937-.163-1.725a12.023 12.023 0 0 0-8.416-8.416c-.788-.215-1.183-.322-1.725-.163-.406.119-.92.512-1.142.872C18 3.612 18 4.141 18 5.2v5.6c0 1.12 0 1.68.218 2.108a2 2 0 0 0 .874.874C19.52 14 20.08 14 21.2 14h5.6c1.059 0 1.588 0 2.07-.296.36-.221.753-.736.872-1.142"/><path fill-rule="evenodd" d="M16 18a2 2 0 0 1-2-2V7.2c0-.271 0-.478-.004-.657a4.537 4.537 0 0 0-.018-.349 3.34 3.34 0 0 0-.145.033c-.123.03-.265.068-.47.124C9.118 7.508 6 11.392 6 16c0 5.523 4.477 10 10 10 4.608 0 8.492-3.118 9.65-7.363.055-.204.094-.347.123-.47.016-.063.026-.11.032-.145a4.535 4.535 0 0 0-.348-.018C25.279 18 25.072 18 24.8 18zm8.8-2c1.059 0 1.588 0 2.07.296.36.221.753.736.872 1.142.16.542.052.937-.163 1.725C26.19 24.256 21.532 28 16 28 9.373 28 4 22.627 4 16c0-5.533 3.744-10.19 8.837-11.579.788-.215 1.183-.322 1.725-.163.406.119.92.512 1.142.872C16 5.612 16 6.141 16 7.2V16z"/></svg>