<svg xmlns="http://www.w3.org/2000/svg" width="16" height="16" fill="none" viewBox="0 0 16 16"><path fill="currentColor" fill-rule="evenodd" d="M10.947 5.902c.892.508 1.877.764 2.99.764a.75.75 0 0 0 .75-.75c0-.561-.23-1.16-.556-1.705a7.018 7.018 0 0 0-1.394-1.638C11.575 1.556 9.924.72 8.009.72a.75.75 0 0 0-.735.602l-.096.456c-.223 1.054-.495 2.346-.92 3.617-.428 1.283-.987 2.464-1.74 3.315a2.145 2.145 0 0 0-2.192.207c-.748.536-1.18 1.495-1.18 2.483 0 .95.367 1.864 1.026 2.541a3.493 3.493 0 0 0 2.503 1.063 3.493 3.493 0 0 0 2.778-1.383 3.493 3.493 0 0 0 2.779 1.382c.943 0 1.843-.384 2.503-1.062a3.642 3.642 0 0 0 1.026-2.54c0-.989-.432-1.948-1.18-2.484a2.145 2.145 0 0 0-1.496-.402 8.466 8.466 0 0 0-.138-2.612m-1.7-.5c.324.915.466 1.883.327 3.142a2.145 2.145 0 0 0-1.69.371 2.539 2.539 0 0 0-.43.394 2.539 2.539 0 0 0-.432-.393 2.25 2.25 0 0 0-.58-.302c.53-.858.928-1.815 1.24-2.744.27-.809.482-1.626.656-2.376.382.673.688 1.28.91 1.907M2.646 11.4c0-.587.261-1.055.555-1.266a.649.649 0 0 1 .416-.133c.139.007.336.065.582.266a.75.75 0 0 0 .952 0c.245-.201.442-.259.58-.266a.647.647 0 0 1 .417.133c.294.211.555.679.555 1.265 0 .565-.218 1.102-.6 1.495a1.993 1.993 0 0 1-1.428.609 1.993 1.993 0 0 1-1.428-.61 2.142 2.142 0 0 1-.601-1.494m5.557 0c0-.587.262-1.055.556-1.266A.647.647 0 0 1 9.175 10c.139.007.336.065.581.266a.75.75 0 0 0 .953 0c.245-.201.442-.259.58-.266a.647.647 0 0 1 .417.133c.294.211.555.679.555 1.265 0 .565-.218 1.102-.6 1.495a1.993 1.993 0 0 1-1.429.609 1.993 1.993 0 0 1-1.427-.61 2.142 2.142 0 0 1-.602-1.494m2.913-7.187c-.55-.428-1.079-1.012-1.61-1.77a6.12 6.12 0 0 1 2.243 1.26 5.525 5.525 0 0 1 1.14 1.356 4.335 4.335 0 0 1-1.773-.846"/></svg>