<svg xmlns="http://www.w3.org/2000/svg" width="32" height="32" viewBox="0 0 32 32"><path fill-rule="evenodd" d="M20.51 10.878C22.373 12.29 24.46 13 26.917 13a1 1 0 0 0 1-1c0-.92-.382-1.935-.953-2.887-.582-.973-1.414-1.968-2.438-2.864C22.483 4.46 19.59 3 16.25 3c-.042 0-.084.003-.125.008a.998.998 0 0 0-1.103.782c-.133.621-.26 1.291-.395 1.996-.315 1.65-.666 3.49-1.207 5.339-.727 2.484-1.748 4.783-3.32 6.372-1.413-.75-2.87-.617-4.023.171C4.787 18.55 4 20.162 4 21.867c0 1.634.664 3.196 1.839 4.345A6.311 6.311 0 0 0 10.25 28a6.31 6.31 0 0 0 4.411-1.788A6.126 6.126 0 0 0 16 24.27c.312.72.764 1.38 1.339 1.942A6.31 6.31 0 0 0 21.75 28a6.31 6.31 0 0 0 4.411-1.788A6.076 6.076 0 0 0 28 21.867c0-1.705-.786-3.317-2.076-4.199-1.02-.697-2.278-.882-3.532-.396-.271-1.85-1.015-4.184-1.882-6.394m-1.969.458c.829 2.08 1.49 4.131 1.788 5.719a3.706 3.706 0 0 0-2.753.613c-.678.464-1.217 1.13-1.576 1.905-.359-.775-.898-1.441-1.576-1.905-.44-.3-.923-.505-1.43-.603 1.072-1.639 1.805-3.532 2.345-5.378.489-1.668.84-3.383 1.133-4.897a50.837 50.837 0 0 1 2.069 4.546M6 21.866c0-1.128.526-2.083 1.205-2.546.605-.414 1.44-.52 2.429.254a1 1 0 0 0 1.232 0c.989-.773 1.824-.668 2.43-.254.678.463 1.204 1.418 1.204 2.547a4.077 4.077 0 0 1-1.237 2.915A4.311 4.311 0 0 1 10.25 26a4.311 4.311 0 0 1-3.013-1.218A4.076 4.076 0 0 1 6 21.867m11.5 0c0-1.128.526-2.083 1.205-2.546.605-.414 1.44-.52 2.429.254a1 1 0 0 0 1.232 0c.989-.773 1.824-.668 2.43-.254.678.463 1.204 1.418 1.204 2.547a4.077 4.077 0 0 1-1.237 2.915A4.311 4.311 0 0 1 21.75 26a4.311 4.311 0 0 1-3.013-1.218 4.077 4.077 0 0 1-1.237-2.915m4.125-12.654c-1.205-.938-2.34-2.264-3.482-4.021 1.973.399 3.716 1.382 5.066 2.563.881.771 1.574 1.61 2.04 2.387.167.279.299.54.4.779-1.51-.199-2.814-.767-4.024-1.708"/></svg>