<svg xmlns="http://www.w3.org/2000/svg" width="24" height="24" viewBox="0 0 24 24"><path fill-rule="evenodd" d="m13.538 4.073-.1-.176c1.472.301 2.773 1.036 3.781 1.919.661.578 1.18 1.206 1.53 1.79.125.209.224.404.3.584-1.132-.15-2.11-.575-3.017-1.28-.863-.672-1.677-1.608-2.494-2.837m2.132 4.42C16.945 9.33 18.363 9.75 20 9.75a.75.75 0 0 0 .75-.75c0-.69-.287-1.452-.714-2.166-.437-.729-1.061-1.476-1.83-2.147C16.676 3.346 14.507 2.25 12 2.25a.75.75 0 0 0-.735.599c-.107.499-.205 1.028-.308 1.579-.22 1.174-.457 2.445-.83 3.73-.53 1.821-1.295 3.509-2.541 4.702a3.039 3.039 0 0 0-1.269-.357 2.804 2.804 0 0 0-1.746.516C3.592 13.7 3 14.946 3 16.257c0 1.259.5 2.465 1.392 3.354A4.754 4.754 0 0 0 12 18.375a4.754 4.754 0 0 0 7.608 1.236A4.74 4.74 0 0 0 21 16.257c0-1.311-.592-2.556-1.571-3.238a2.798 2.798 0 0 0-2.504-.375c-.182-1.226-.67-2.71-1.255-4.15m-1.693-.158c.673 1.556 1.204 3.083 1.42 4.257a2.798 2.798 0 0 0-2.325.427A3.517 3.517 0 0 0 12 14.244a3.517 3.517 0 0 0-1.071-1.224 2.865 2.865 0 0 0-1.13-.476c.826-1.214 1.373-2.606 1.768-3.967.347-1.192.592-2.424.8-3.524.529.955 1.1 2.103 1.61 3.283M4.5 16.257c0-.892.408-1.644.929-2.008a1.3 1.3 0 0 1 .816-.248c.287.014.64.13 1.037.447a.75.75 0 0 0 .936 0c.397-.317.75-.433 1.037-.447a1.3 1.3 0 0 1 .816.248c.521.364.929 1.116.929 2.008a3.24 3.24 0 0 1-.951 2.293 3.254 3.254 0 0 1-4.598 0 3.24 3.24 0 0 1-.951-2.293m8.5 0c0-.892.408-1.644.929-2.008a1.3 1.3 0 0 1 .816-.248c.287.014.64.13 1.037.447a.75.75 0 0 0 .936 0c.397-.317.75-.433 1.037-.447a1.3 1.3 0 0 1 .816.248c.521.364.929 1.116.929 2.008a3.24 3.24 0 0 1-.951 2.293 3.254 3.254 0 0 1-4.598 0A3.24 3.24 0 0 1 13 16.257"/></svg>