<svg xmlns="http://www.w3.org/2000/svg" width="32" height="32" fill="none" viewBox="0 0 32 32"><path fill="currentColor" fill-rule="evenodd" d="M5 6a1 1 0 0 1 1 1v18a1 1 0 1 1-2 0V7a1 1 0 0 1 1-1m23 10.003a1 1 0 0 0-1-1H10a1 1 0 1 0 0 2h17a1 1 0 0 0 1-1"/><path fill="currentColor" fill-rule="evenodd" d="M17.707 8.293a1 1 0 0 0-1.414 0l-7 7a1 1 0 1 0 1.414 1.414l7-7a1 1 0 0 0 0-1.414"/><path fill="currentColor" fill-rule="evenodd" d="M9.293 15.293a1 1 0 0 0 0 1.414l7 7a1 1 0 0 0 1.414-1.414l-7-7a1 1 0 0 0-1.414 0"/></svg>