<svg xmlns="http://www.w3.org/2000/svg" width="32" height="32" fill="none" viewBox="0 0 32 32"><path fill="currentColor" fill-rule="evenodd" d="M6 16c0-5.523 4.477-10 10-10s10 4.477 10 10c0 2.515-.927 4.81-2.459 6.568a1 1 0 0 0 .047 1.364L25.656 26H16c-5.523 0-10-4.477-10-10M16 4C9.373 4 4 9.373 4 16s5.373 12 12 12h12.07a1 1 0 0 0 .707-1.707l-3.14-3.14A11.95 11.95 0 0 0 28 16c0-6.627-5.373-12-12-12m6.726 9.545a1 1 0 0 0-1.452-1.376l-7.008 7.397-3.559-3.559a1 1 0 1 0-1.414 1.414l4.286 4.286a1 1 0 0 0 1.433-.02l7.714-8.142"/></svg>