<svg xmlns="http://www.w3.org/2000/svg" width="32" height="32" viewBox="0 0 32 32"><path d="M8.02 21.297V10.703H6.398c0 1.309-.42 1.808-2.399 1.808v1.495h2.243v7.29H8.02m10.412.001v-1.605h-5.25c.187-.966.514-1.355 1.683-2.025l1.526-.873c1.309-.747 2.072-1.947 2.072-3.24 0-1.87-1.324-3.037-3.458-3.037-2.259 0-3.708 1.48-3.708 3.785h1.854c0-1.433.67-2.228 1.854-2.228.919 0 1.558.639 1.558 1.574 0 .857-.452 1.526-1.324 2.01l-1.558.856c-1.838 1.013-2.617 2.446-2.617 4.783h7.368m5.908.186c2.149 0 3.66-1.324 3.66-3.224 0-1.324-.81-2.321-2.056-2.54 1.168-.373 1.791-1.168 1.791-2.29 0-1.744-1.386-2.912-3.458-2.912-2.197 0-3.599 1.293-3.599 3.318h1.76c0-1.153.702-1.839 1.839-1.839.966 0 1.636.592 1.636 1.434 0 1.043-.561 1.557-1.698 1.557h-.764v1.543h.748c1.324 0 1.994.592 1.994 1.744 0 1.013-.748 1.698-1.854 1.698-1.34 0-2.103-.794-2.103-2.212h-1.823c0 2.353 1.45 3.723 3.926 3.723"/></svg>