<svg xmlns="http://www.w3.org/2000/svg" width="16" height="16" viewBox="0 0 16 16"><path d="M3.344 11.09V4.91H2.4c0 .764-.245 1.054-1.399 1.054v.873H2.31v4.253h1.035m6.074 0v-.936H6.356c.11-.564.3-.79.982-1.182l.89-.509c.764-.436 1.209-1.135 1.209-1.89 0-1.09-.773-1.772-2.017-1.772-1.318 0-2.163.864-2.163 2.209h1.081c0-.837.39-1.3 1.082-1.3.536 0 .908.373.908.918 0 .5-.263.89-.772 1.172l-.909.5c-1.072.59-1.527 1.427-1.527 2.79h4.3m3.445.109c1.253 0 2.135-.773 2.135-1.881 0-.773-.473-1.354-1.2-1.482.682-.218 1.045-.681 1.045-1.335 0-1.018-.808-1.7-2.017-1.7-1.281 0-2.099.755-2.099 1.936h1.027c0-.673.409-1.072 1.072-1.072.564 0 .954.345.954.836 0 .608-.327.908-.99.908h-.445v.9h.436c.772 0 1.163.345 1.163 1.018 0 .59-.436.99-1.082.99-.781 0-1.226-.463-1.226-1.29h-1.063c0 1.372.845 2.172 2.29 2.172"/></svg>