<svg xmlns="http://www.w3.org/2000/svg" width="24" height="24" viewBox="0 0 24 24"><path d="M6.014 15.972V8.028H4.8c0 .981-.315 1.355-1.799 1.355v1.122h1.682v5.467h1.332m7.809 0V14.77H9.887c.14-.724.385-1.016 1.261-1.519l1.146-.654c.98-.56 1.553-1.46 1.553-2.43 0-1.402-.993-2.279-2.593-2.279-1.694 0-2.781 1.11-2.781 2.84h1.39c0-1.075.503-1.671 1.39-1.671.69 0 1.169.479 1.169 1.18 0 .642-.339 1.145-.993 1.507l-1.168.643c-1.38.759-1.963 1.834-1.963 3.586h5.526m4.43.14c1.613 0 2.746-.993 2.746-2.419 0-.993-.608-1.74-1.542-1.904.876-.28 1.343-.876 1.343-1.718 0-1.308-1.04-2.185-2.593-2.185-1.648 0-2.7.97-2.7 2.489h1.321c0-.865.526-1.379 1.379-1.379.724 0 1.226.444 1.226 1.075 0 .783-.42 1.169-1.273 1.169h-.573v1.156h.561c.993 0 1.496.444 1.496 1.309 0 .76-.561 1.273-1.39 1.273-1.005 0-1.578-.595-1.578-1.659H15.31c0 1.765 1.087 2.793 2.944 2.793"/></svg>