<svg xmlns="http://www.w3.org/2000/svg" width="16" height="16" viewBox="0 0 16 16"><path fill-rule="evenodd" d="M3.5 3.5H8v3.26c0 .69.56 1.25 1.25 1.25h3.25v4.49h-9zm6 3.01V3.906l2.604 2.604H9.499M2 3v10a1 1 0 0 0 1 1h10a1 1 0 0 0 1-1V6.7a1 1 0 0 0-.293-.707l-3.7-3.7A1 1 0 0 0 9.3 2H3a1 1 0 0 0-1 1m4.702 6.89C6.634 9.325 6.206 9 5.64 9c-.647 0-1.14.456-1.14 1.257 0 .798.485 1.257 1.14 1.257.627 0 1.006-.417 1.062-.868l-.523-.002c-.05.262-.255.412-.53.412-.372 0-.625-.276-.625-.8 0-.508.249-.798.628-.798.283 0 .487.163.527.432h.523M8.4 9.737h.496C8.89 9.301 8.531 9 7.986 9c-.537 0-.93.296-.927.74-.002.362.253.568.666.668l.267.066c.266.065.414.141.416.306-.002.18-.171.301-.434.301-.269 0-.463-.124-.48-.369h-.5c.013.53.392.803.986.803.597 0 .948-.286.95-.734-.002-.407-.309-.623-.734-.719l-.22-.052c-.212-.05-.39-.128-.387-.304 0-.158.14-.273.393-.273.247 0 .4.112.418.304m.745-.704h.575l.591 1.86h.023l.592-1.86h.574l-.844 2.447H9.99l-.845-2.447"/></svg>