<svg xmlns="http://www.w3.org/2000/svg" width="32" height="32" viewBox="0 0 32 32"><path fill-rule="evenodd" d="M8 24h16V14h-4a2 2 0 0 1-2-2V8H8zM20 8.828 23.172 12H20zM24 26H8a2 2 0 0 1-2-2V8a2 2 0 0 1 2-2h11.172a2 2 0 0 1 1.414.586l4.828 4.828A2 2 0 0 1 26 12.828V24a2 2 0 0 1-2 2m-10.41-7.018c-.127-1.05-.921-1.653-1.973-1.653-1.2 0-2.117.848-2.117 2.334 0 1.483.901 2.335 2.117 2.335 1.165 0 1.868-.775 1.973-1.611l-.972-.005c-.091.486-.473.766-.985.766-.69 0-1.159-.513-1.159-1.485 0-.945.462-1.484 1.165-1.484.526 0 .906.304.979.803zm3.154-.284h.92c-.013-.81-.678-1.369-1.69-1.369-.997 0-1.726.55-1.722 1.376-.002.67.47 1.054 1.238 1.238l.495.124c.495.12.77.262.772.568-.002.333-.317.56-.805.56-.5 0-.86-.231-.89-.686h-.93c.024.983.728 1.491 1.83 1.491 1.11 0 1.762-.53 1.765-1.362-.003-.757-.573-1.159-1.363-1.336l-.408-.098c-.395-.09-.726-.237-.719-.563 0-.293.26-.508.73-.508.46 0 .741.208.777.565m1.383-1.307h1.067l1.098 3.453h.042l1.101-3.453H22.5l-1.566 4.545h-1.239z"/></svg>