<svg xmlns="http://www.w3.org/2000/svg" width="24" height="24" viewBox="0 0 24 24"><path fill-rule="evenodd" d="M5.5 18.5h13v-8.497h-2.994a1.5 1.5 0 0 1-1.5-1.5V5.5H5.5zM15.506 5.628l2.875 2.875h-2.875zM18.5 20h-13A1.5 1.5 0 0 1 4 18.5v-13A1.5 1.5 0 0 1 5.5 4h9.878a1.5 1.5 0 0 1 1.061.44l3.122 3.12A1.5 1.5 0 0 1 20 8.622V18.5a1.5 1.5 0 0 1-1.5 1.5m-8.354-5.321c-.098-.808-.709-1.272-1.518-1.272-.923 0-1.628.652-1.628 1.796 0 1.14.693 1.795 1.628 1.795.896 0 1.438-.595 1.518-1.239l-.748-.003c-.07.373-.363.589-.758.589-.53 0-.89-.395-.89-1.142 0-.727.354-1.142.895-1.142.405 0 .697.234.753.618zm2.426-.219h.708c-.01-.623-.522-1.053-1.3-1.053-.767 0-1.328.423-1.325 1.058-.002.516.362.811.953.953l.38.095c.38.092.593.202.594.437-.002.256-.244.43-.62.43-.383 0-.66-.177-.684-.527h-.715c.019.756.56 1.147 1.408 1.147.854 0 1.355-.408 1.357-1.048-.002-.582-.44-.891-1.048-1.027l-.314-.076c-.304-.07-.558-.182-.553-.433 0-.226.2-.391.562-.391.353 0 .57.16.597.435m1.064-1.005h.82l.846 2.656h.032l.847-2.656H17l-1.205 3.496h-.953z"/></svg>