<svg xmlns="http://www.w3.org/2000/svg" width="24" height="24" viewBox="0 0 24 24"><path fill-rule="evenodd" d="M3.753 19.497a.75.75 0 0 0 0 1.5h16.494a.75.75 0 1 0 0-1.5zm9.163-5.498a.75.75 0 0 0 0 1.5h7.33a.75.75 0 0 0 0-1.5zM3.753 3.003a.75.75 0 1 0 0 1.5h16.494a.75.75 0 0 0 0-1.5zm8.642 6.248a.75.75 0 0 1 .75-.75h7.102a.75.75 0 0 1 0 1.5h-7.102a.75.75 0 0 1-.75-.75m-.79 2.747a.75.75 0 0 1-.75.75H5.89l2.311 1.85a.75.75 0 0 1-.937 1.17l-3.762-3.01a.972.972 0 0 1 0-1.518l3.762-3.01a.75.75 0 1 1 .937 1.17l-2.309 1.848h4.963a.75.75 0 0 1 .75.75"/></svg>