<svg xmlns="http://www.w3.org/2000/svg" width="16" height="16" viewBox="0 0 16 16"><g clip-path="url(#a)"><path fill-rule="evenodd" d="M1.744 13.506a.75.75 0 1 0 0 1.5h12.512a.75.75 0 0 0 0-1.5zm6.951-4.17a.75.75 0 1 0 0 1.5h5.56a.75.75 0 1 0 0-1.5zM1.745.993a.75.75 0 1 0 0 1.5h12.51a.75.75 0 0 0 0-1.5zm6.374 4.92a.75.75 0 0 1 .75-.75h5.387a.75.75 0 0 1 0 1.5H8.869a.75.75 0 0 1-.75-.75M7.88 8a.75.75 0 0 1-.75.75H3.88l1.35 1.08a.75.75 0 1 1-.937 1.172L1.492 8.759a.972.972 0 0 1 0-1.519l2.802-2.242a.75.75 0 1 1 .937 1.172L3.883 7.249H7.13a.75.75 0 0 1 .75.75"/></g><defs><clipPath id="a"><path fill="var(--hop-RichIcon-placeholder-fill, #fff)" d="M0 0h16v16H0z"/></clipPath></defs></svg>