<svg xmlns="http://www.w3.org/2000/svg" width="16" height="16" viewBox="0 0 16 16"><path fill-rule="evenodd" d="M7.25 8.5v-4h1.5v4z"/><path d="M3 3a1 1 0 0 1 1-1h8a1 1 0 0 1 1 1v2a1 1 0 0 1-1 1H4a1 1 0 0 1-1-1z"/><path fill-rule="evenodd" d="M2.5 11.5v1h3v-1zM2 10a1 1 0 0 0-1 1v2a1 1 0 0 0 1 1h4a1 1 0 0 0 1-1v-2a1 1 0 0 0-1-1zm8.5 1.5v1h3v-1zM10 10a1 1 0 0 0-1 1v2a1 1 0 0 0 1 1h4a1 1 0 0 0 1-1v-2a1 1 0 0 0-1-1zM3.25 9c0-.966.784-1.75 1.75-1.75h6c.966 0 1.75.784 1.75 1.75v1h-1.5V9a.25.25 0 0 0-.25-.25H5a.25.25 0 0 0-.25.25v1h-1.5z"/></svg>