<svg xmlns="http://www.w3.org/2000/svg" width="24" height="24" viewBox="0 0 24 24"><path fill-rule="evenodd" d="M11.25 12.75v-3h1.5v3z"/><path d="M5 6a1 1 0 0 1 1-1h12a1 1 0 0 1 1 1v3a1 1 0 0 1-1 1H6a1 1 0 0 1-1-1z"/><path fill-rule="evenodd" d="M4.5 15.5v2h5v-2zM4 14a1 1 0 0 0-1 1v3a1 1 0 0 0 1 1h6a1 1 0 0 0 1-1v-3a1 1 0 0 0-1-1zm10.5 1.5v2h5v-2zM14 14a1 1 0 0 0-1 1v3a1 1 0 0 0 1 1h6a1 1 0 0 0 1-1v-3a1 1 0 0 0-1-1zm-8.25-1c0-.966.784-1.75 1.75-1.75h9c.966 0 1.75.784 1.75 1.75v1h-1.5v-1a.25.25 0 0 0-.25-.25h-9a.25.25 0 0 0-.25.25v1h-1.5z"/></svg>