<svg xmlns="http://www.w3.org/2000/svg" width="16" height="16" viewBox="0 0 16 16"><path fill-rule="evenodd" d="M8.75 6.25v5.5h-1.5v-5.5z"/><path fill-rule="evenodd" d="M4.5 3.5v2h7v-2zM4 2a1 1 0 0 0-1 1v3a1 1 0 0 0 1 1h8a1 1 0 0 0 1-1V3a1 1 0 0 0-1-1z"/><path d="M1 12a1 1 0 0 1 1-1h2a1 1 0 0 1 1 1v1a1 1 0 0 1-1 1H2a1 1 0 0 1-1-1zm10 0a1 1 0 0 1 1-1h2a1 1 0 0 1 1 1v1a1 1 0 0 1-1 1h-2a1 1 0 0 1-1-1zm-5 0a1 1 0 0 1 1-1h2a1 1 0 0 1 1 1v1a1 1 0 0 1-1 1H7a1 1 0 0 1-1-1z"/><path fill-rule="evenodd" d="M2.25 10c0-.966.784-1.75 1.75-1.75h8c.966 0 1.75.784 1.75 1.75v2h-1.5v-2a.25.25 0 0 0-.25-.25H4a.25.25 0 0 0-.25.25v2h-1.5z"/></svg>