<svg xmlns="http://www.w3.org/2000/svg" width="24" height="24" viewBox="0 0 24 24"><path fill-rule="evenodd" d="M12.75 10.25v7.5h-1.5v-7.5z"/><path fill-rule="evenodd" d="M7 6.5v3h10v-3zM6.5 5a1 1 0 0 0-1 1v4a1 1 0 0 0 1 1h11a1 1 0 0 0 1-1V6a1 1 0 0 0-1-1z"/><path d="M3 16a1 1 0 0 1 1-1h3a1 1 0 0 1 1 1v2a1 1 0 0 1-1 1H4a1 1 0 0 1-1-1zm13 0a1 1 0 0 1 1-1h3a1 1 0 0 1 1 1v2a1 1 0 0 1-1 1h-3a1 1 0 0 1-1-1zm-6.5 0a1 1 0 0 1 1-1h3a1 1 0 0 1 1 1v2a1 1 0 0 1-1 1h-3a1 1 0 0 1-1-1z"/><path fill-rule="evenodd" d="M4.75 14c0-.966.784-1.75 1.75-1.75h11c.966 0 1.75.784 1.75 1.75v3h-1.5v-3a.25.25 0 0 0-.25-.25h-11a.25.25 0 0 0-.25.25v3h-1.5z"/></svg>