<svg xmlns="http://www.w3.org/2000/svg" width="32" height="32" viewBox="0 0 32 32"><path fill-rule="evenodd" d="M26 16c0 5.523-4.477 10-10 10S6 21.523 6 16 10.477 6 16 6s10 4.477 10 10m2 0c0 6.627-5.373 12-12 12S4 22.627 4 16 9.373 4 16 4s12 5.373 12 12m-13.134-2.836c0-.416.09-.66.174-.8a.823.823 0 0 1 .323-.307c.286-.158.607-.16.637-.16.442 0 .682.096.808.173a.64.64 0 0 1 .245.267 1 1 0 0 0 1.788-.896 2.64 2.64 0 0 0-.987-1.075 3.032 3.032 0 0 0-.854-.354V9a1 1 0 1 0-2 0v1.051a3.2 3.2 0 0 0-.6.253 2.822 2.822 0 0 0-1.08 1.039c-.295.496-.454 1.104-.454 1.821 0 .73.174 1.345.486 1.843.31.494.722.817 1.112 1.025a3.513 3.513 0 0 0 1.477.399h.052l.042.003a2.027 2.027 0 0 1 .782.222 1.3 1.3 0 0 1 .506.46c.128.205.248.528.248 1.048 0 .533-.115.863-.238 1.07a1.196 1.196 0 0 1-.466.445 1.948 1.948 0 0 1-.867.218c-.968 0-1.278-.357-1.403-.556a1.169 1.169 0 0 1-.167-.495l-.001-.011v-.004a1 1 0 0 0-2 .016h1c-1 0-1 .001-1 .002v.024a1.82 1.82 0 0 0 .009.152 3.17 3.17 0 0 0 .465 1.379c.4.637 1.073 1.18 2.097 1.395v1.2a1 1 0 0 0 2 0v-1.238c.259-.069.544-.173.83-.33.441-.242.89-.615 1.223-1.177.334-.562.518-1.256.518-2.09 0-.846-.2-1.548-.554-2.11a3.3 3.3 0 0 0-1.262-1.164 4.027 4.027 0 0 0-1.73-.458h-.014l-.027-.002a1.512 1.512 0 0 1-.582-.165.91.91 0 0 1-.355-.321c-.088-.14-.181-.376-.181-.78M16 15.35l.001-.918-.001 1zm-.001 1.082v-.137z"/></svg>