<svg xmlns="http://www.w3.org/2000/svg" width="16" height="16" viewBox="0 0 16 16"><path fill-rule="evenodd" d="M13.5 8a5.5 5.5 0 1 1-11 0 5.5 5.5 0 0 1 11 0M15 8A7 7 0 1 1 1 8a7 7 0 0 1 14 0M7.505 6.582c0-.148.036-.208.05-.228a.268.268 0 0 1 .112-.085.88.88 0 0 1 .333-.07c.251 0 .376.047.427.074.046.024.058.044.061.05a.75.75 0 1 0 1.295-.757c-.202-.345-.54-.628-1.033-.77V4.5a.75.75 0 0 0-1.5 0v.322a2.09 2.09 0 0 0-.222.09c-.24.112-.504.295-.706.588a1.868 1.868 0 0 0-.317 1.082c0 .43.121.8.34 1.099.211.29.483.467.722.576a2.389 2.389 0 0 0 .896.208h.031l.022.002a1.261 1.261 0 0 1 .423.102.546.546 0 0 1 .221.166c.04.054.09.152.09.347 0 .206-.05.31-.087.363a.474.474 0 0 1-.196.154c-.206.097-.44.1-.467.1-.557 0-.686-.177-.707-.206a.25.25 0 0 1-.044-.1.75.75 0 0 0-1.499.03h.75c-.75 0-.75.001-.75.002v.019a1.094 1.094 0 0 0 .007.102 1.749 1.749 0 0 0 .325.833c.251.342.634.61 1.168.737v.384a.75.75 0 0 0 1.5 0v-.41c.115-.034.235-.077.356-.134a1.97 1.97 0 0 0 .79-.657c.23-.331.354-.74.354-1.217 0-.488-.137-.902-.38-1.233a2.04 2.04 0 0 0-.81-.645 2.726 2.726 0 0 0-1.02-.237h-.025l-.007-.001h-.013a.92.92 0 0 1-.307-.074.329.329 0 0 1-.133-.097c-.015-.021-.05-.076-.05-.213M8 7.655v-.69.75zm0 .81V8.39v.077"/></svg>