<svg xmlns="http://www.w3.org/2000/svg" width="24" height="24" viewBox="0 0 24 24"><path fill-rule="evenodd" d="M19.5 12a7.5 7.5 0 1 1-15 0 7.5 7.5 0 0 1 15 0m1.5 0a9 9 0 1 1-18 0 9 9 0 0 1 18 0m-9.67-1.918c0-.2.049-.282.068-.31a.36.36 0 0 1 .151-.114A1.2 1.2 0 0 1 12 9.562c.34 0 .509.065.578.101.062.033.078.06.083.068a1.015 1.015 0 1 0 1.752-1.024c-.274-.467-.732-.85-1.398-1.042v-.4a1.015 1.015 0 1 0-2.03 0V7.7q-.148.05-.3.12c-.324.153-.681.4-.956.796-.28.404-.428.898-.428 1.465 0 .581.164 1.083.46 1.486.286.392.653.632.976.78a3.2 3.2 0 0 0 1.213.281l.03.001h.012l.015.001h.014a1.8 1.8 0 0 1 .573.14c.141.063.238.14.3.224.053.072.12.205.12.47 0 .278-.068.418-.117.49a.64.64 0 0 1-.265.208 1.6 1.6 0 0 1-.632.135c-.754 0-.929-.24-.957-.277v-.001a.34.34 0 0 1-.058-.135 1.015 1.015 0 0 0-2.03.041h1.016c-1.015 0-1.015 0-1.015.002v.026a2 2 0 0 0 .01.137q.01.118.05.292c.056.229.167.532.39.836.339.463.857.824 1.58.997v.52a1.015 1.015 0 0 0 2.029 0v-.556q.234-.067.481-.18a2.66 2.66 0 0 0 1.069-.89c.31-.448.48-1 .48-1.646 0-.66-.187-1.22-.514-1.668a2.76 2.76 0 0 0-1.096-.873 3.7 3.7 0 0 0-1.381-.321h-.033l-.01-.001h-.018a1.3 1.3 0 0 1-.415-.1.45.45 0 0 1-.18-.132c-.021-.028-.067-.102-.067-.287m.67 1.452V10.6v1.008zm0 1.096v-.104z"/></svg>