<svg xmlns="http://www.w3.org/2000/svg" width="24" height="24" fill="none" viewBox="0 0 24 24"><path fill="currentColor" fill-rule="evenodd" d="M16.651 4.446a1.5 1.5 0 0 0-2.121 0L5.556 13.42a.747.747 0 0 0-.177.282.756.756 0 0 0-.033.088l-1.279 4.276c-.342 1.143.724 2.209 1.867 1.867l4.276-1.28a.757.757 0 0 0 .096-.035.746.746 0 0 0 .273-.175l8.974-8.974a1.5 1.5 0 0 0 0-2.12l-2.902-2.903M7.147 13.95l8.444-8.443 2.902 2.902-8.444 8.443-2.902-2.902Zm-1.643 4.546.92-3.072 2.152 2.153-3.072.918"/></svg>