<svg xmlns="http://www.w3.org/2000/svg" width="16" height="16" viewBox="0 0 16 16"><path fill-rule="evenodd" d="M4.42 9.76a12 12 0 0 1-1.75-1.727 12 12 0 0 1 1.75-1.728c1.037-.823 2.286-1.486 3.59-1.486 1.318 0 2.578.675 3.618 1.507a12.3 12.3 0 0 1 1.764 1.755c-.648.963-2.456 3.165-5.381 3.165-1.305 0-2.554-.663-3.59-1.486m3.59-6.44c-1.796 0-3.373.897-4.522 1.81a13.7 13.7 0 0 0-2.263 2.31.976.976 0 0 0 0 1.187 13.7 13.7 0 0 0 2.262 2.309c1.149.913 2.726 1.81 4.523 1.81 4.177 0 6.443-3.493 6.862-4.198a.97.97 0 0 0-.062-1.088 13.6 13.6 0 0 0-2.246-2.304C11.413 4.233 9.824 3.32 8.011 3.32m-.958 4.713a.947.947 0 1 1 1.894 0 .947.947 0 0 1-1.894 0M8 5.586a2.447 2.447 0 1 0 0 4.894 2.447 2.447 0 0 0 0-4.894"/></svg>