<svg xmlns="http://www.w3.org/2000/svg" width="24" height="24" viewBox="0 0 24 24"><path fill-rule="evenodd" d="M7.043 14.415A16.387 16.387 0 0 1 4.638 12a16.384 16.384 0 0 1 2.405-2.415C8.439 8.46 10.168 7.517 12 7.517c1.846 0 3.586.958 4.988 2.092a16.411 16.411 0 0 1 2.414 2.441c-.34.527-1.033 1.48-2.073 2.369-1.28 1.094-3.052 2.064-5.329 2.064-1.832 0-3.56-.944-4.957-2.068M12 6.017c-2.332 0-4.39 1.186-5.898 2.4a17.773 17.773 0 0 0-2.905 2.991.98.98 0 0 0 0 1.184 17.77 17.77 0 0 0 2.905 2.992c1.507 1.213 3.566 2.399 5.898 2.399 2.734 0 4.84-1.172 6.304-2.424a12.513 12.513 0 0 0 2.576-3.047.98.98 0 0 0-.063-1.085 17.762 17.762 0 0 0-2.885-2.983C16.42 7.22 14.348 6.017 12 6.017M10.493 12a1.49 1.49 0 1 1 2.982 0 1.49 1.49 0 0 1-2.982 0m1.491-2.99a2.99 2.99 0 1 0 0 5.98 2.99 2.99 0 0 0 0-5.98"/></svg>