<svg xmlns="http://www.w3.org/2000/svg" width="32" height="32" fill="none" viewBox="0 0 32 32"><path fill="currentColor" fill-rule="evenodd" d="M9.357 19.125A21.745 21.745 0 0 1 6.26 16a21.75 21.75 0 0 1 3.096-3.125c1.862-1.517 4.182-2.804 6.643-2.804 2.478 0 4.813 1.305 6.68 2.834a21.767 21.767 0 0 1 3.113 3.162 14.843 14.843 0 0 1-2.663 3.063c-1.7 1.475-4.07 2.799-7.13 2.799-2.461 0-4.781-1.287-6.643-2.804M16 8.07c-3.136 0-5.9 1.62-7.906 3.254A23.5 23.5 0 0 0 4.3 15.263a1.226 1.226 0 0 0 0 1.473c.389.522 1.77 2.291 3.794 3.94 2.006 1.634 4.77 3.253 7.906 3.253 3.679 0 6.497-1.601 8.44-3.288 1.937-1.682 3.05-3.485 3.354-4.012a1.22 1.22 0 0 0-.079-1.345 23.484 23.484 0 0 0-3.768-3.926C21.937 9.712 19.157 8.07 16 8.07M14.012 16a1.967 1.967 0 1 1 3.934 0 1.967 1.967 0 0 1-3.934 0m1.967-3.968a3.967 3.967 0 1 0 0 7.934 3.967 3.967 0 0 0 0-7.934"/></svg>