<svg xmlns="http://www.w3.org/2000/svg" width="16" height="16" viewBox="0 0 16 16"><path fill-rule="evenodd" d="M2.253 1.19a.75.75 0 0 0-1.056 1.063L3.82 4.876q-.171.127-.332.254a13.7 13.7 0 0 0-2.262 2.31.976.976 0 0 0 0 1.187 13.7 13.7 0 0 0 2.262 2.309c1.149.913 2.726 1.81 4.523 1.81 1.15 0 2.154-.264 3.016-.662l2.717 2.717a.75.75 0 0 0 1.062-1.057l-.002-.002L2.255 1.193zm2.168 5.115q.23-.183.474-.354l.94.94a2.447 2.447 0 0 0 3.307 3.307l.732.732a5.6 5.6 0 0 1-1.863.316c-1.305 0-2.554-.663-3.59-1.486A12 12 0 0 1 2.67 8.033a12 12 0 0 1 1.75-1.728m3.5 2.672a.95.95 0 0 1-.866-.866z"/><path d="m6.12 3.643 1.23 1.231q.327-.054.66-.055c1.317 0 2.577.675 3.617 1.507a12.3 12.3 0 0 1 1.764 1.755c-.257.383-.697.96-1.317 1.517l1.062 1.062a9.7 9.7 0 0 0 1.736-2.114.97.97 0 0 0-.062-1.087 13.6 13.6 0 0 0-2.246-2.304c-1.151-.922-2.74-1.835-4.553-1.835-.664 0-1.298.123-1.891.324"/><path d="M10.445 7.968a2.447 2.447 0 0 0-2.381-2.381z"/></svg>