<svg xmlns="http://www.w3.org/2000/svg" width="24" height="24" viewBox="0 0 24 24"><path fill-rule="evenodd" d="M3.866 2.873a.75.75 0 0 0-.879 1.194l3.817 3.818q-.368.262-.702.531a17.8 17.8 0 0 0-2.905 2.992.98.98 0 0 0 0 1.184 17.8 17.8 0 0 0 2.905 2.992c1.507 1.213 3.566 2.399 5.898 2.399 1.529 0 2.86-.367 3.994-.908l3.932 3.932a.75.75 0 0 0 1.195-.879zm3.177 6.712q.402-.325.84-.622l1.522 1.522a2.99 2.99 0 0 0 4.094 4.094l1.357 1.357a7.7 7.7 0 0 1-2.856.547c-1.832 0-3.56-.944-4.957-2.068A16.4 16.4 0 0 1 4.638 12a16.4 16.4 0 0 1 2.405-2.415M10.493 12q0-.196.049-.378l1.82 1.82q-.18.048-.378.049a1.49 1.49 0 0 1-1.49-1.49"/><path d="M18.5 15.387a12.5 12.5 0 0 0 2.38-2.875.98.98 0 0 0-.063-1.085 17.8 17.8 0 0 0-2.885-2.984C16.42 7.22 14.348 6.017 12 6.017a7.6 7.6 0 0 0-2.446.423l1.215 1.214A5.7 5.7 0 0 1 12 7.517c1.846 0 3.586.958 4.988 2.092a16.4 16.4 0 0 1 2.414 2.44 11.2 11.2 0 0 1-1.964 2.275z"/><path d="M14.971 11.857a2.99 2.99 0 0 0-2.844-2.844z"/></svg>