<svg xmlns="http://www.w3.org/2000/svg" width="32" height="32" fill="none" viewBox="0 0 32 32"><path fill="currentColor" fill-rule="evenodd" d="M5.345 3.964A1 1 0 0 0 4.037 5.47l5.077 5.077c-.358.255-.7.516-1.02.778A23.496 23.496 0 0 0 4.3 15.264a1.226 1.226 0 0 0 0 1.473c.39.52 1.77 2.29 3.794 3.939 2.006 1.634 4.77 3.253 7.906 3.253 2.026 0 3.79-.486 5.292-1.204l5.27 5.27a1 1 0 0 0 1.507-1.308L5.345 3.964m4.012 8.911c.38-.31.779-.61 1.194-.89l2.007 2.006a3.967 3.967 0 0 0 5.43 5.43l1.787 1.787a10.137 10.137 0 0 1-3.775.72c-2.461 0-4.781-1.287-6.643-2.803A21.745 21.745 0 0 1 6.26 16a21.75 21.75 0 0 1 3.096-3.125M14.012 16c0-.17.022-.335.062-.493l2.398 2.398A1.97 1.97 0 0 1 14.012 16"/><path fill="currentColor" d="M24.658 20.448c1.803-1.624 2.844-3.312 3.136-3.82a1.22 1.22 0 0 0-.079-1.344 23.489 23.489 0 0 0-3.767-3.926C21.938 9.712 19.158 8.07 16 8.07a9.98 9.98 0 0 0-3.18.54l1.627 1.626A7.553 7.553 0 0 1 16 10.07c2.478 0 4.813 1.305 6.68 2.834a21.767 21.767 0 0 1 3.113 3.162c-.43.664-1.283 1.84-2.551 2.965l1.416 1.416"/><path fill="currentColor" d="M19.937 15.727a3.968 3.968 0 0 0-3.684-3.684z"/></svg>