<svg xmlns="http://www.w3.org/2000/svg" width="16" height="16" viewBox="0 0 16 16"><path fill-rule="evenodd" d="M2.253 1.19a.75.75 0 0 0-1.056 1.063L3.82 4.876c-.114.084-.225.17-.332.254a13.649 13.649 0 0 0-2.262 2.31.976.976 0 0 0 0 1.187 13.647 13.647 0 0 0 2.262 2.309c1.149.913 2.726 1.81 4.523 1.81 1.15 0 2.154-.264 3.016-.662l2.717 2.717a.75.75 0 0 0 1.062-1.057l-.002-.002L2.255 1.193l-.003-.003M4.42 6.305c.153-.122.312-.24.474-.354l.94.94a2.447 2.447 0 0 0 3.307 3.307l.732.732a5.612 5.612 0 0 1-1.863.316c-1.305 0-2.554-.663-3.59-1.486a12.16 12.16 0 0 1-1.75-1.727 12.16 12.16 0 0 1 1.75-1.728m3.5 2.672a.947.947 0 0 1-.866-.866z"/><path d="m6.12 3.643 1.23 1.231c.218-.036.438-.055.66-.055 1.317 0 2.577.675 3.617 1.507a12.28 12.28 0 0 1 1.764 1.755c-.257.383-.697.96-1.317 1.517l1.062 1.062a9.698 9.698 0 0 0 1.736-2.114.972.972 0 0 0-.062-1.087 13.644 13.644 0 0 0-2.246-2.304c-1.151-.922-2.74-1.835-4.553-1.835-.664 0-1.298.123-1.891.324"/><path d="M10.445 7.968a2.447 2.447 0 0 0-2.381-2.381l2.381 2.38"/></svg>