<svg xmlns="http://www.w3.org/2000/svg" width="16" height="16" viewBox="0 0 16 16"><path fill-rule="evenodd" d="M9.22 11a1.5 1.5 0 0 0-1.024.404L6 13.455V12.5A1.5 1.5 0 0 0 4.5 11a2 2 0 0 1-2-2V5.5a2 2 0 0 1 2-2h7a2 2 0 0 1 2 2V9a2 2 0 0 1-2 2zm2.28 1.5H9.22l-2.977 2.781c-.643.601-1.743.176-1.743-.674V12.5A3.5 3.5 0 0 1 1 9V5.5A3.5 3.5 0 0 1 4.5 2h7A3.5 3.5 0 0 1 15 5.5V9a3.5 3.5 0 0 1-3.5 3.5m-.437-4.375a.875.875 0 1 1 0-1.75.875.875 0 0 1 0 1.75M7.169 7.25a.875.875 0 1 0 1.75 0 .875.875 0 0 0-1.75 0m-2.231.875a.875.875 0 1 1 0-1.75.875.875 0 0 1 0 1.75"/></svg>