<svg xmlns="http://www.w3.org/2000/svg" width="32" height="32" viewBox="0 0 32 32"><path fill-rule="evenodd" d="M18.091 22a2 2 0 0 0-1.365.538L12 26.954V24a2 2 0 0 0-2-2 4 4 0 0 1-4-4v-6a4 4 0 0 1 4-4h12a4 4 0 0 1 4 4v6a4 4 0 0 1-4 4zM22 24h-3.909l-5.104 4.768c-1.102 1.03-2.987.3-2.987-1.156V24a6 6 0 0 1-6-6v-6a6 6 0 0 1 6-6h12a6 6 0 0 1 6 6v6a6 6 0 0 1-6 6m-.75-7.5a1.5 1.5 0 1 1 0-3 1.5 1.5 0 0 1 0 3M14.575 15a1.5 1.5 0 1 0 3 0 1.5 1.5 0 0 0-3 0m-3.825 1.5a1.5 1.5 0 1 1 0-3 1.5 1.5 0 0 1 0 3"/></svg>