<svg xmlns="http://www.w3.org/2000/svg" width="24" height="24" viewBox="0 0 24 24"><path fill-rule="evenodd" d="M5.5 4A1.5 1.5 0 0 0 4 5.5v13A1.5 1.5 0 0 0 5.5 20h6.75a.75.75 0 0 0 0-1.5H5.5v-13h7.998v3.505a1.5 1.5 0 0 0 1.5 1.5H18.5v3.75a.75.75 0 0 0 1.5 0V9.41a1.5 1.5 0 0 0-.44-1.06l-3.91-3.912-.53.53.53-.53A1.5 1.5 0 0 0 14.59 4zm12.594 5.005-3.096-3.096v3.096h3.096M7 16.25a.75.75 0 0 1 .75-.75h3.5a.75.75 0 0 1 0 1.5h-3.5a.75.75 0 0 1-.75-.75m.75-7.75a.75.75 0 0 0 0 1.5h3.5a.75.75 0 0 0 0-1.5zM7 12.764a.75.75 0 0 1 .75-.75h8.5a.75.75 0 0 1 0 1.5h-8.5a.75.75 0 0 1-.75-.75m13.78 4.266a.75.75 0 1 0-1.06-1.06l-3.22 3.22-.97-.97a.75.75 0 1 0-1.06 1.06l1.5 1.5a.75.75 0 0 0 1.06 0z"/></svg>