<svg xmlns="http://www.w3.org/2000/svg" width="32" height="32" fill="none" viewBox="0 0 32 32"><path fill="currentColor" fill-rule="evenodd" d="M8 6a2 2 0 0 0-2 2v16a2 2 0 0 0 2 2h9a1 1 0 1 0 0-2H8V8h10v4a2 2 0 0 0 2 2h4v5.003a1 1 0 1 0 2 0v-6.189a2 2 0 0 0-.586-1.414l-.6.6.6-.6L20.6 6.586l-.6.6.6-.6A2 2 0 0 0 19.186 6zm12 2.814V12h3.186zM9.75 21a1 1 0 0 1 1-1H15a1 1 0 1 1 0 2h-4.25a1 1 0 0 1-1-1m1-5a1 1 0 1 0 0 2h10.5a1 1 0 1 0 0-2zm-1-3a1 1 0 0 1 1-1H15a1 1 0 1 1 0 2h-4.25a1 1 0 0 1-1-1m9.543 11.293a1 1 0 0 0 0 1.414l2 2a1 1 0 0 0 1.414 0l5-5a1 1 0 0 0-1.414-1.414L22 25.586l-1.293-1.293a1 1 0 0 0-1.414 0"/></svg>