<svg xmlns="http://www.w3.org/2000/svg" width="16" height="16" viewBox="0 0 16 16"><path fill-rule="evenodd" d="M3.504 3.496v9.003h6.252a.75.75 0 1 1 0 1.5H3.254c-.69 0-1.25-.56-1.25-1.25V3.246c0-.69.56-1.25 1.25-1.25h6.045c.331 0 .65.132.884.366L13.64 5.82c.234.235.366.553.366.884v3.044a.75.75 0 1 1-1.5 0V8.01H9.253c-.69 0-1.25-.56-1.25-1.25V3.496zm5.999.307 2.706 2.707H9.503zm5.639 8.971a.75.75 0 0 0-1.064-1.057l-1.457 1.465-.264-.265a.75.75 0 0 0-1.063 1.057l.795.8a.75.75 0 0 0 1.064 0z"/></svg>