<svg xmlns="http://www.w3.org/2000/svg" width="16" height="16" fill="none" viewBox="0 0 16 16"><path fill="currentColor" fill-rule="evenodd" d="M7.25 5.25a.75.75 0 0 0 1.5 0V4.5h4.5a.75.75 0 0 0 0-1.5h-4.5v-.75a.75.75 0 0 0-1.5 0V3h-4.5a.75.75 0 0 0 0 1.5h4.5zm-4.5 6.25a.75.75 0 0 0 0 1.5H4v.75a.75.75 0 0 0 1.5 0V13h7.75a.75.75 0 0 0 0-1.5H5.5v-.75a.75.75 0 0 0-1.5 0v.75zM2 8a.75.75 0 0 1 .75-.75h7.75V6.5a.75.75 0 0 1 1.5 0v.75h1.25a.75.75 0 0 1 0 1.5H12v.75a.75.75 0 0 1-1.5 0v-.75H2.75A.75.75 0 0 1 2 8"/></svg>