<svg xmlns="http://www.w3.org/2000/svg" width="24" height="24" viewBox="0 0 24 24"><path fill-rule="evenodd" d="M11.25 8.25a.75.75 0 0 0 1.5 0V6.5h7.502a.75.75 0 0 0 0-1.5H12.75V3.25a.75.75 0 0 0-1.5 0V5H3.748a.75.75 0 0 0 0 1.5h7.502zm-7.502 3a.75.75 0 0 0 0 1.5H16.5v1.75a.75.75 0 0 0 1.5 0v-1.75h2.251a.75.75 0 0 0 0-1.5H18V9.5a.75.75 0 0 0-1.5 0v1.75zm-.75 7a.75.75 0 0 1 .75-.75H6v-1.75a.75.75 0 0 1 1.5 0v1.75h12.752a.75.75 0 0 1 0 1.5H7.5v1.75a.75.75 0 0 1-1.5 0V19H3.748a.75.75 0 0 1-.75-.75"/></svg>