<svg xmlns="http://www.w3.org/2000/svg" width="32" height="32" fill="none" viewBox="0 0 32 32"><path fill="currentColor" fill-rule="evenodd" d="M26 16c0 5.523-4.477 10-10 10S6 21.523 6 16 10.477 6 16 6s10 4.477 10 10m2 0c0 6.627-5.373 12-12 12S4 22.627 4 16 9.373 4 16 4s12 5.373 12 12M12.666 9.998a1 1 0 0 0-1 1v4.162a1 1 0 0 0 1.309.951c1.546-.503 3.062-.586 4.123-.27.519.155.884.39 1.119.673.225.272.384.652.384 1.215 0 .582-.15.97-.339 1.242a2.065 2.065 0 0 1-.788.656 3.951 3.951 0 0 1-1.474.374c-1.078 0-2.03-.609-2.594-1.23a1 1 0 1 0-1.481 1.344c.811.895 2.264 1.887 4.075 1.887.249 0 1.323-.059 2.375-.59a4.06 4.06 0 0 0 1.532-1.304c.436-.63.694-1.421.694-2.379 0-.977-.29-1.823-.845-2.491-.545-.658-1.288-1.075-2.086-1.313-1.196-.357-2.61-.343-4.005-.06v-1.867h5.936a1 1 0 1 0 0-2h-6.935"/></svg>