<svg xmlns="http://www.w3.org/2000/svg" width="24" height="24" viewBox="0 0 24 24"><path fill-rule="evenodd" d="M19.5 12a7.5 7.5 0 1 1-15 0 7.5 7.5 0 0 1 15 0m1.5 0a9 9 0 1 1-18 0 9 9 0 0 1 18 0M9 7a.75.75 0 0 0-.75.75v3.537a.75.75 0 0 0 .987.711c1.29-.43 2.56-.503 3.455-.23.439.134.757.341.965.598.203.25.343.6.343 1.103 0 .517-.132.87-.3 1.12a1.8 1.8 0 0 1-.684.586 3.3 3.3 0 0 1-1.24.325h-.011c-.916 0-1.724-.53-2.203-1.071a.75.75 0 0 0-1.124.994c.66.746 1.846 1.577 3.326 1.577.202 0 1.082-.05 1.94-.493.44-.227.895-.569 1.24-1.08.348-.517.556-1.166.556-1.958 0-.804-.233-1.498-.677-2.046-.438-.541-1.038-.89-1.692-1.09-1.005-.306-2.203-.287-3.381-.03V8.5h4.75a.75.75 0 1 0-.001-1.5z"/></svg>