<svg xmlns="http://www.w3.org/2000/svg" width="16" height="16" fill="none" viewBox="0 0 16 16"><path fill="currentColor" fill-rule="evenodd" d="M13.5 8a5.5 5.5 0 1 1-11 0 5.5 5.5 0 0 1 11 0M15 8A7 7 0 1 1 1 8a7 7 0 0 1 14 0M6 4a.75.75 0 0 0-.75.75v2.705a.75.75 0 0 0 .995.709c.927-.32 1.816-.366 2.42-.175.292.093.491.23.618.393.122.156.217.386.217.742 0 .68-.309.98-.631 1.152a2.13 2.13 0 0 1-.746.219 1.272 1.272 0 0 1-.08.005c-.593 0-1.139-.36-1.473-.75a.75.75 0 1 0-1.14.975C5.938 11.319 6.866 12 8.043 12c.17 0 .858-.04 1.533-.402.73-.39 1.424-1.155 1.424-2.474 0-.645-.18-1.212-.536-1.666-.351-.45-.831-.736-1.347-.899-.716-.226-1.546-.232-2.367-.078l.001-.981H10A.75.75 0 1 0 10 4z"/></svg>