<svg xmlns="http://www.w3.org/2000/svg" width="16" height="16" viewBox="0 0 16 16"><path fill-rule="evenodd" d="M2.074 2.359a.75.75 0 0 1 .952.466l.143.413a4.299 4.299 0 0 1 1.583-.86c.854-.247 1.685-.187 2.414-.099l.456.058c1.295.17 2.309.301 3.428-.496.635-.454 1.693-.293 2.001.607l1.482 4.332c.139.407.07.912-.294 1.262-.77.744-1.671.98-2.545 1.023-.619.03-1.29-.039-1.901-.101-.204-.021-.4-.041-.587-.057-.796-.066-1.485-.065-2.1.145-.518.176-1.036.518-1.522 1.21l1.357 3.746a.75.75 0 0 1-1.41.51l-1.488-4.107-2.435-7.1a.75.75 0 0 1 .466-.952m1.631 2.444 1.31 3.82a4.245 4.245 0 0 1 1.607-.991c.924-.315 1.873-.29 2.71-.22.252.021.49.046.717.069.572.058 1.076.11 1.572.086.573-.028 1.037-.158 1.432-.476l-1.331-3.894c-1.558 1.006-3.085.796-4.302.629-.15-.02-.295-.04-.434-.057-.694-.084-1.27-.109-1.817.05-.453.13-.94.404-1.464.984"/></svg>