<svg xmlns="http://www.w3.org/2000/svg" width="24" height="24" viewBox="0 0 24 24"><path fill-rule="evenodd" d="M4.018 4.037a.75.75 0 0 1 .953.466l.34.991c.775-.733 1.572-1.179 2.397-1.42 1.122-.33 2.221-.258 3.224-.138q.345.042.674.086c1.769.232 3.272.429 4.9-.7.782-.541 2.06-.338 2.427.739l2.021 5.91c.167.488.085 1.09-.35 1.504-1.004.956-2.18 1.262-3.346 1.316-.828.037-1.72-.054-2.557-.14q-.442-.046-.853-.081c-1.112-.092-2.117-.094-3.031.218-.813.278-1.611.826-2.34 1.917l1.936 5.347a.75.75 0 0 1-1.41.511l-2.066-5.705L3.552 4.99a.75.75 0 0 1 .466-.953M5.859 7.09l2.032 5.924c.738-.825 1.56-1.345 2.44-1.646 1.222-.418 2.488-.39 3.64-.294q.514.044.988.094c.797.082 1.522.156 2.23.123.92-.042 1.687-.266 2.337-.862l-2.012-5.884a.1.1 0 0 0-.027-.012.16.16 0 0 0-.126.021c-2.133 1.478-4.223 1.192-5.97.954q-.326-.046-.637-.083c-.963-.116-1.808-.153-2.624.087-.718.21-1.474.655-2.27 1.578"/></svg>