<svg xmlns="http://www.w3.org/2000/svg" width="32" height="32" viewBox="0 0 32 32"><path fill-rule="evenodd" d="M5.44 5.309a1 1 0 0 1 1.271.621l.454 1.322c1.033-.977 2.096-1.572 3.196-1.894 1.496-.44 2.961-.343 4.299-.183.305.036.604.076.898.114 2.358.31 4.362.572 6.534-.932 1.043-.723 2.745-.452 3.236.984l2.694 7.88c.223.65.113 1.454-.466 2.006-1.34 1.274-2.907 1.683-4.462 1.754-1.104.05-2.294-.071-3.41-.185-.39-.04-.772-.08-1.137-.11-1.482-.123-2.822-.125-4.041.292-1.084.37-2.148 1.1-3.12 2.556l2.582 7.129a1 1 0 0 1-1.88.681l-2.75-7.59-.005-.017L4.819 6.579a1 1 0 0 1 .622-1.27M7.897 9.38l2.709 7.898c.983-1.1 2.08-1.792 3.254-2.193 1.628-.558 3.316-.52 4.853-.393.457.038.894.083 1.316.126 1.064.108 2.03.207 2.975.164 1.226-.056 2.249-.355 3.115-1.15l-2.683-7.845v-.001a.101.101 0 0 0-.035-.015.21.21 0 0 0-.169.029c-2.843 1.97-5.63 1.589-7.958 1.271-.291-.04-.575-.078-.851-.111-1.284-.154-2.41-.204-3.498.116-.958.28-1.966.873-3.028 2.104"/></svg>