<svg xmlns="http://www.w3.org/2000/svg" width="32" height="32" viewBox="0 0 32 32"><path fill-rule="evenodd" d="M11 6v8a5 5 0 0 0 10 0V6zm-1-2a1 1 0 0 0-1 1v3H7a2 2 0 0 0-2 2v3a4 4 0 0 0 4 4h.674A7.01 7.01 0 0 0 15 20.93V23h-1a4 4 0 0 0-4 4 1 1 0 0 0 1 1h10a1 1 0 0 0 1-1 4 4 0 0 0-4-4h-1v-2.07A7.01 7.01 0 0 0 22.326 17H23a4 4 0 0 0 4-4v-3a2 2 0 0 0-2-2h-2V5a1 1 0 0 0-1-1zm13 6v4q0 .51-.07 1H23a2 2 0 0 0 2-2v-3zM9 14v-4H7v3a2 2 0 0 0 2 2h.07A7 7 0 0 1 9 14m5 11a2 2 0 0 0-1.732 1h7.465A2 2 0 0 0 18 25z"/></svg>