<svg xmlns="http://www.w3.org/2000/svg" width="24" height="24" viewBox="0 0 24 24"><path fill-rule="evenodd" d="M8 7.5V11a3.5 3.5 0 0 0 3.5 3.5h1A3.5 3.5 0 0 0 16 11V4.5H8zm-1.5 0v3.371A2.25 2.25 0 0 1 5.5 9V7.75a.25.25 0 0 1 .25-.25zm0-1.5h-.75A1.75 1.75 0 0 0 4 7.75V9a3.75 3.75 0 0 0 2.768 3.62 5 5 0 0 0 4.482 3.374V17H9.995A2.995 2.995 0 0 0 7 19.995c0 .55.447.998.998.998h8.004a1 1 0 0 0 .998-.998A2.995 2.995 0 0 0 14.005 17H12.75v-1.006a5 5 0 0 0 4.482-3.374A3.75 3.75 0 0 0 20 9V7.75A1.75 1.75 0 0 0 18.25 6h-.75V4a1 1 0 0 0-1-1h-9a1 1 0 0 0-1 1zm11 4.871V7.5h.75a.25.25 0 0 1 .25.25V9c0 .78-.397 1.467-1 1.871M14.005 18.5h-4.01c-.65 0-1.203.414-1.409.993h6.828a1.495 1.495 0 0 0-1.409-.993"/></svg>