<svg xmlns="http://www.w3.org/2000/svg" width="16" height="16" viewBox="0 0 16 16"><path fill-rule="evenodd" d="M5.25 2.5v5.25a2.75 2.75 0 0 0 5.5 0V2.5zM4.75 1a1 1 0 0 0-1 1v2h-.707a1.75 1.75 0 0 0-1.749 1.823l.008.184a3.646 3.646 0 0 0 2.78 3.39 4.26 4.26 0 0 0 3.168 2.537V13.5h-1.5a.75.75 0 0 0 0 1.5h4.5a.75.75 0 0 0 0-1.5h-1.5v-1.566a4.26 4.26 0 0 0 3.167-2.532 3.646 3.646 0 0 0 2.781-3.39l.008-.19A1.75 1.75 0 0 0 12.958 4h-.708V2a1 1 0 0 0-1-1zm-1 6.638V5.5h-.707a.25.25 0 0 0-.25.26l.007.185c.03.708.4 1.324.95 1.693m9.45-1.69c-.03.71-.4 1.325-.95 1.694V5.5h.707a.25.25 0 0 1 .25.26z"/></svg>