<svg xmlns="http://www.w3.org/2000/svg" width="16" height="16" viewBox="0 0 16 16"><path fill-rule="evenodd" d="M7.142 12.639 3.349 8.792c.196-1.445.676-2.859 1.659-3.827.788-.777 1.857-1.227 2.996-1.465l-.014.014 4.449 4.513.085-.085c-.248 1.18-.717 2.29-1.532 3.093-.982.968-2.403 1.428-3.85 1.604m-2.027.08L3.24 10.818c.013.723.075 1.34.129 1.747.407.06 1.023.13 1.746.154m7.516-9.285c.077.589.173 1.612.113 2.765L9.867 3.282a15.6 15.6 0 0 1 2.764.152M1.825 8.895c.188-1.681.73-3.618 2.13-4.998s3.344-1.895 5.028-2.059c1.698-.165 3.25.016 3.987.13a1.345 1.345 0 0 1 1.131 1.148c.104.738.262 2.292.073 3.988-.187 1.682-.729 3.618-2.129 4.999s-3.344 1.895-5.028 2.058c-1.699.165-3.25-.016-3.987-.13a1.345 1.345 0 0 1-1.132-1.147c-.103-.739-.262-2.293-.073-3.989m3.25-.47a.75.75 0 0 1 1.06.008l.2.203.361-.356-.2-.203a.75.75 0 1 1 1.068-1.053l.2.203.36-.355-.199-.203a.75.75 0 0 1 1.068-1.053l1.409 1.429a.75.75 0 0 1-1.068 1.053l-.156-.158-.36.355.155.158a.75.75 0 1 1-1.068 1.053l-.156-.158-.36.356.155.158a.75.75 0 0 1-1.068 1.053L5.067 9.486a.75.75 0 0 1 .008-1.06"/></svg>