<svg xmlns="http://www.w3.org/2000/svg" width="32" height="32" viewBox="0 0 32 32"><path fill-rule="evenodd" d="m13.94 24.09.134-.133-6.177-6.177c.285-2.605 1.093-5.255 2.911-7.048 1.46-1.439 3.463-2.219 5.546-2.599l7.446 7.552.103-.102c-.398 2.14-1.21 4.203-2.71 5.682-1.857 1.83-4.592 2.594-7.253 2.826m-2.484.077L7.768 20.48a27 27 0 0 0 .249 3.391c.724.112 1.963.266 3.44.297m12.528-16.04c.138.985.34 2.92.204 5.103L18.885 7.85a26.3 26.3 0 0 1 5.099.277m-18.11 9.785c.27-2.888 1.143-6.25 3.53-8.604S15.165 6.13 18.056 5.9c2.916-.232 5.516.128 6.534.3.69.116 1.224.658 1.33 1.349.158 1.02.48 3.625.207 6.537-.27 2.887-1.143 6.25-3.53 8.603-2.388 2.354-5.762 3.179-8.653 3.409-2.915.231-5.515-.128-6.534-.3a1.62 1.62 0 0 1-1.33-1.35c-.157-1.02-.48-3.625-.207-6.536m5.16-.937a1 1 0 0 1 1.414.01l.599.607 1.134-1.118-.599-.608a1 1 0 1 1 1.425-1.404l.598.607 1.134-1.118-.599-.607a1 1 0 1 1 1.424-1.404l2.523 2.559a1 1 0 1 1-1.424 1.404l-.52-.527-1.133 1.118.52.527a1 1 0 0 1-1.425 1.404l-.52-.527-1.134 1.118.52.527a1 1 0 0 1-1.424 1.404l-2.523-2.558a1 1 0 0 1 .01-1.415"/></svg>