<svg xmlns="http://www.w3.org/2000/svg" width="24" height="24" viewBox="0 0 24 24"><path fill-rule="evenodd" d="m10.265 18.623.048-.004c2.17-.186 4.413-.807 5.936-2.309 1.247-1.23 1.91-2.949 2.229-4.72l-.073.071L12.38 5.55c-1.732.303-3.41.94-4.628 2.141-1.512 1.49-2.166 3.7-2.388 5.852l4.991 4.991zm-1.885.057-3.11-3.11a21.5 21.5 0 0 0 .208 2.86 22 22 0 0 0 2.902.25M18.522 5.57c.113.795.288 2.416.169 4.244l-4.41-4.473c1.83-.093 3.448.104 4.24.229M3.865 13.444c.231-2.307.943-4.959 2.832-6.822 1.89-1.863 4.552-2.537 6.862-2.735 2.327-.2 4.422.074 5.309.22a1.35 1.35 0 0 1 1.122 1.138c.133.888.377 2.988.144 5.311-.23 2.307-.942 4.96-2.832 6.822s-4.551 2.537-6.861 2.735c-2.327.2-4.423-.074-5.309-.219a1.35 1.35 0 0 1-1.123-1.139c-.132-.888-.376-2.987-.144-5.31m4.154-.61a.75.75 0 0 1 1.06.007l.528.535 1.005-.99-.528-.536a.75.75 0 0 1 1.068-1.053l.528.535 1.004-.99-.528-.535a.75.75 0 0 1 1.069-1.053l2.043 2.073A.75.75 0 1 1 14.2 11.88l-.463-.47-1.004.99.463.47a.75.75 0 0 1-1.068 1.053l-.463-.47-1.005.991.463.47a.75.75 0 0 1-1.068 1.053l-2.044-2.073a.75.75 0 0 1 .008-1.06"/></svg>