<svg xmlns="http://www.w3.org/2000/svg" width="32" height="32" viewBox="0 0 32 32"><path fill-rule="evenodd" d="M26 24v-6c0-5.523-4.477-10-10-10S6 12.477 6 18v6zM16 6C9.373 6 4 11.373 4 18v6a2 2 0 0 0 2 2h20a2 2 0 0 0 2-2v-6c0-6.627-5.373-12-12-12"/><path d="M17 11a1 1 0 1 1-2 0 1 1 0 0 1 2 0m-6 3a1 1 0 1 1-2 0 1 1 0 0 1 2 0m-1 5a1 1 0 1 1-2 0 1 1 0 0 1 2 0m14 0a1 1 0 1 1-2 0 1 1 0 0 1 2 0m-1-5a1 1 0 1 1-2 0 1 1 0 0 1 2 0"/><path fill-rule="evenodd" d="M19.274 13.038a1 1 0 0 1 .688 1.236L18.243 20.3a1 1 0 1 1-1.923-.549l1.718-6.024a1 1 0 0 1 1.236-.688"/><path fill-rule="evenodd" d="M11 26h-1v-1a6 6 0 0 1 12 0v1h-1zm8.874-2a4.002 4.002 0 0 0-7.748 0z"/></svg>