<svg xmlns="http://www.w3.org/2000/svg" width="16" height="16" fill="none" viewBox="0 0 16 16"><path fill="currentColor" fill-rule="evenodd" d="M13.5 9v3.5H11v-.02a2.998 2.998 0 0 0-1.415-2.548l.361-.903a.75.75 0 1 0-1.392-.558l-.405 1.013A3 3 0 0 0 5 12.5H2.5V9a5.5 5.5 0 1 1 11 0m-7 3.5h3v-.02a1.5 1.5 0 1 0-3 .02M1 9a7 7 0 0 1 14 0v4a1 1 0 0 1-1 1H2a1 1 0 0 1-1-1zm7-3a.75.75 0 1 0 0-1.5A.75.75 0 0 0 8 6m3.5.75a.75.75 0 1 1-1.5 0 .75.75 0 0 1 1.5 0m-6.25.75a.75.75 0 1 0 0-1.5.75.75 0 0 0 0 1.5M5 9.25a.75.75 0 1 1-1.5 0 .75.75 0 0 1 1.5 0m6.75.75a.75.75 0 1 0 0-1.5.75.75 0 0 0 0 1.5"/></svg>