<svg xmlns="http://www.w3.org/2000/svg" width="24" height="24" fill="none" viewBox="0 0 24 24"><path fill="currentColor" fill-rule="evenodd" d="M19.5 14v3.5h-3.062a4.507 4.507 0 0 0-2.874-3.47l.658-2.326a.75.75 0 0 0-1.444-.408l-.694 2.455L12 13.75a4.501 4.501 0 0 0-4.438 3.75H4.5V14a7.5 7.5 0 1 1 15 0m-3.75 5h3.75a1.5 1.5 0 0 0 1.5-1.5V14a9 9 0 1 0-18 0v3.5A1.5 1.5 0 0 0 4.5 19h3.75zM12 15.25c1.398 0 2.573.956 2.906 2.25H9.095A3.001 3.001 0 0 1 12 15.25m0-5.75A.75.75 0 1 0 12 8a.75.75 0 0 0 0 1.5m-3.5 1.25a.75.75 0 1 1-1.5 0 .75.75 0 0 1 1.5 0M6.75 15.5a.75.75 0 1 0 0-1.5.75.75 0 0 0 0 1.5M18 14.75a.75.75 0 1 1-1.5 0 .75.75 0 0 1 1.5 0m-1.5-3.25a.75.75 0 1 0 0-1.5.75.75 0 0 0 0 1.5"/></svg>