<svg xmlns="http://www.w3.org/2000/svg" width="24" height="24" viewBox="0 0 24 24"><path fill-rule="evenodd" d="M8.333 5.674c-.17.297-.081.83.463 1.125.075.04.29.105.674.155a12 12 0 0 0 1.38.086l-.11-.165a11 11 0 0 0-.69-.931c-.245-.292-.414-.437-.489-.477-.544-.295-1.058-.09-1.228.207m8.172 2.023h2.37a1.5 1.5 0 0 1 1.5 1.5v1.677a1.5 1.5 0 0 1-1.272 1.483v6.141a1.5 1.5 0 0 1-1.5 1.5H6.397a1.5 1.5 0 0 1-1.5-1.5v-6.141a1.5 1.5 0 0 1-1.27-1.483V9.197a1.5 1.5 0 0 1 1.5-1.5h2.37C6.76 7 6.47 5.906 7.013 4.96c.665-1.158 2.176-1.4 3.295-.793.34.185.661.522.916.826.27.321.54.695.775 1.043.235-.348.504-.722.775-1.043.255-.304.575-.64.916-.826 1.119-.607 2.63-.365 3.295.793.544.947.254 2.04-.481 2.739m-3.755 4.677h4.854V18.5H12.75zm-6.354 0h4.854V18.5H6.396zm11.23-1.5h1.248V9.197H5.126v1.677h12.5M15.204 6.8c.544-.295.634-.828.463-1.125-.17-.296-.684-.502-1.228-.207-.075.04-.244.185-.49.477a11 11 0 0 0-.799 1.096l.202-.005a12 12 0 0 0 1.177-.081c.385-.05.6-.114.675-.155"/></svg>