<svg xmlns="http://www.w3.org/2000/svg" width="16" height="16" viewBox="0 0 16 16"><path fill-rule="evenodd" d="M5.553 3.864c.035.101.12.212.26.288a1 1 0 0 0 .107.033q.117.03.3.053c.165.022.35.036.542.046a7 7 0 0 0-.324-.424 3 3 0 0 0-.205-.22 1 1 0 0 0-.084-.072.57.57 0 0 0-.39-.064c-.106.024-.166.076-.197.13-.03.053-.044.13-.01.23M8 3.412a8 8 0 0 1 .388-.504c.184-.22.435-.488.716-.64.883-.48 2.106-.301 2.652.65.358.623.273 1.313-.077 1.849h1.278c.69 0 1.25.56 1.25 1.25V7.29a1.25 1.25 0 0 1-.91 1.203v4.254c0 .69-.559 1.25-1.25 1.25H3.953c-.69 0-1.25-.56-1.25-1.25V8.494a1.25 1.25 0 0 1-.91-1.203V6.017c0-.69.56-1.25 1.25-1.25h1.279c-.35-.536-.435-1.226-.077-1.85.546-.95 1.77-1.128 2.651-.65.282.153.533.422.717.64.133.159.265.332.388.505M3.293 7.041v-.774h9.414v.774zm.91 1.5v3.957H7.25V8.54zm4.547 0v3.957h3.048V8.54zm1.437-4.389a.54.54 0 0 0 .26-.288c.035-.1.021-.177-.01-.23-.03-.054-.09-.106-.196-.13a.57.57 0 0 0-.39.064 1 1 0 0 0-.085.071 3 3 0 0 0-.204.22 7 7 0 0 0-.324.425c.191-.01.377-.024.542-.046q.183-.024.3-.053a1 1 0 0 0 .107-.033"/></svg>