<svg xmlns="http://www.w3.org/2000/svg" width="32" height="32" fill="none" viewBox="0 0 32 32"><path fill="currentColor" fill-rule="evenodd" d="M11.76 8.137c-.188.347-.084.951.495 1.283.065.037.298.115.752.177.414.056.9.087 1.378.1l.105.003-.058-.09c-.261-.41-.542-.819-.806-1.15-.29-.364-.477-.527-.542-.564-.579-.332-1.135-.105-1.324.241m4.24.246a15.7 15.7 0 0 1 .841-1.185c.302-.378.693-.815 1.119-1.059 1.383-.792 3.217-.461 4.015 1.004.626 1.15.337 2.492-.486 3.399h2.761c.966 0 1.75.783 1.75 1.75v2.458a1.75 1.75 0 0 1-1.5 1.732v7.768A1.75 1.75 0 0 1 22.75 26H9.25a1.75 1.75 0 0 1-1.75-1.75v-7.768A1.75 1.75 0 0 1 6 14.75v-2.458c0-.967.783-1.75 1.75-1.75h2.76c-.822-.907-1.111-2.249-.485-3.399.797-1.465 2.631-1.796 4.015-1.004.426.244.817.68 1.119 1.06.292.366.582.786.84 1.184M8 14.5v-1.958h16V14.5zm1.5 2V24H15v-7.5zm7.5 0V24h5.5v-7.5zm2.745-7.08c.579-.332.683-.936.494-1.283-.188-.346-.745-.573-1.323-.241-.066.037-.252.2-.542.563-.264.332-.545.741-.807 1.15l-.057.091.105-.003c.478-.013.964-.044 1.378-.1.454-.062.687-.14.752-.177"/></svg>