<svg xmlns="http://www.w3.org/2000/svg" width="32" height="32" viewBox="0 0 32 32"><path fill-rule="evenodd" d="M22 8.5a1.5 1.5 0 1 0 3 0 1.5 1.5 0 0 0-3 0M23.5 5a3.5 3.5 0 0 0-1.777 6.516L20.453 16a3.49 3.49 0 0 0-1.987.651l-3.704-2.88a3.5 3.5 0 1 0-5.035 1.748l-1.102 4.483a3.5 3.5 0 1 0 1.901.644l1.144-4.65a3.482 3.482 0 0 0 1.864-.647l3.704 2.88a3.5 3.5 0 1 0 5.14-1.684l1.288-4.549A3.5 3.5 0 0 0 23.5 5M19 19.5a1.5 1.5 0 1 0 3 0 1.5 1.5 0 0 0-3 0M8.5 25a1.5 1.5 0 1 1 0-3 1.5 1.5 0 0 1 0 3M10 12.5a1.5 1.5 0 1 0 3 0 1.5 1.5 0 0 0-3 0"/></svg>