<svg xmlns="http://www.w3.org/2000/svg" width="24" height="24" viewBox="0 0 24 24"><path fill-rule="evenodd" d="M16.5 6.5a1 1 0 1 0 2 0 1 1 0 0 0-2 0m1-2.5a2.5 2.5 0 0 0-1.306 4.632l-.843 3.372c-.508.03-.974.211-1.356.5l-3.118-2.228a2.5 2.5 0 1 0-3.683 1.356l-.843 3.372a2.5 2.5 0 1 0 1.455.364l.843-3.372c.508-.03.974-.211 1.356-.5l3.118 2.228a2.5 2.5 0 1 0 3.683-1.356l.843-3.372A2.5 2.5 0 0 0 17.5 4m-3 10.5a1 1 0 1 0 2 0 1 1 0 0 0-2 0m-8 4a1 1 0 1 1 0-2 1 1 0 0 1 0 2m1-9a1 1 0 1 0 2 0 1 1 0 0 0-2 0"/></svg>