<svg xmlns="http://www.w3.org/2000/svg" width="16" height="16" fill="none" viewBox="0 0 16 16"><path fill="currentColor" fill-rule="evenodd" d="M3.5 6V3.5H6V6zM2 3a1 1 0 0 1 1-1h3.5a1 1 0 0 1 1 1v3.5a1 1 0 0 1-1 1H3a1 1 0 0 1-1-1zm8 3V3.5h2.5V6zM8.5 3a1 1 0 0 1 1-1H13a1 1 0 0 1 1 1v3.5a1 1 0 0 1-1 1H9.5a1 1 0 0 1-1-1zm-5 7v2.5H6V10zM3 8.5a1 1 0 0 0-1 1V13a1 1 0 0 0 1 1h3.5a1 1 0 0 0 1-1V9.5a1 1 0 0 0-1-1zm7 4V10h2.5v2.5zm-1.5-3a1 1 0 0 1 1-1H13a1 1 0 0 1 1 1V13a1 1 0 0 1-1 1H9.5a1 1 0 0 1-1-1z"/></svg>