<svg xmlns="http://www.w3.org/2000/svg" width="24" height="24" fill="none" viewBox="0 0 24 24"><path fill="currentColor" fill-rule="evenodd" d="M5.5 5.5H10V10H5.5zM4 5.5A1.5 1.5 0 0 1 5.5 4H10a1.5 1.5 0 0 1 1.5 1.5V10a1.5 1.5 0 0 1-1.5 1.5H5.5A1.5 1.5 0 0 1 4 10zM5.5 14H10v4.5H5.5zM4 14a1.5 1.5 0 0 1 1.5-1.5H10a1.5 1.5 0 0 1 1.5 1.5v4.5A1.5 1.5 0 0 1 10 20H5.5A1.5 1.5 0 0 1 4 18.5zm14.5-8.5H14V10h4.5zM14 4a1.5 1.5 0 0 0-1.5 1.5V10a1.5 1.5 0 0 0 1.5 1.5h4.5A1.5 1.5 0 0 0 20 10V5.5A1.5 1.5 0 0 0 18.5 4zm0 10h4.5v4.5H14zm-1.5 0a1.5 1.5 0 0 1 1.5-1.5h4.5A1.5 1.5 0 0 1 20 14v4.5a1.5 1.5 0 0 1-1.5 1.5H14a1.5 1.5 0 0 1-1.5-1.5z"/></svg>