<svg xmlns="http://www.w3.org/2000/svg" width="32" height="32" viewBox="0 0 32 32"><path fill-rule="evenodd" d="M11.5 5.923a2 2 0 0 0-2 0L5.304 8.345a2 2 0 0 0-1 1.732v4.846a2 2 0 0 0 1 1.732L9.5 19.077q.148.086.304.143v4.553a2 2 0 0 0 1 1.732L15 27.928a2 2 0 0 0 2 0l4.196-2.423a2 2 0 0 0 1-1.732V19.22q.156-.057.304-.143l4.196-2.422a2 2 0 0 0 1-1.732v-4.846a2 2 0 0 0-1-1.732L22.5 5.923a2 2 0 0 0-2 0l-4.196 2.422a2 2 0 0 0-.304.216 2 2 0 0 0-.304-.216zm-5.196 4.154L10.5 7.655l4.196 2.422v4.846l-1.403.81c-.29-.868-.871-1.625-1.679-1.994a2.5 2.5 0 1 0-2.228 0c-.808.369-1.39 1.126-1.679 1.994l-1.403-.81zM10.5 15.5c.329 0 .905.386.99 1.274l-.99.571-.99-.571c.085-.888.661-1.274.99-1.274m11-7.845-4.196 2.422v4.846l1.403.81c.29-.868.871-1.625 1.679-1.994a2.5 2.5 0 1 1 2.228 0c.808.369 1.39 1.126 1.679 1.994l1.403-.81v-4.846zm0 9.69-.99-.571c.085-.888.661-1.274.99-1.274s.905.386.99 1.274zm-5.5-.84-4.196 2.423v4.845l1.403.81c.29-.867.871-1.625 1.679-1.994a2.5 2.5 0 1 1 2.228 0c.808.37 1.39 1.127 1.679 1.994l1.403-.81v-4.845zm0 9.69-.99-.57c.085-.888.661-1.274.99-1.274s.905.386.99 1.274zM21 11.5a.5.5 0 1 1 1 0 .5.5 0 0 1-1 0m-5.5 8.85a.5.5 0 1 1 1 0 .5.5 0 0 1-1 0M10 11.5a.5.5 0 1 1 1 0 .5.5 0 0 1-1 0"/></svg>