<svg xmlns="http://www.w3.org/2000/svg" width="16" height="16" viewBox="0 0 16 16"><path fill-rule="evenodd" d="M11.875 9.36a1.75 1.75 0 0 1-1.75 0L8.094 8.189a1.75 1.75 0 0 1-.875-1.515V4.327c0-.625.333-1.203.875-1.515l2.031-1.173a1.75 1.75 0 0 1 1.75 0l2.031 1.173c.541.312.875.89.875 1.515v2.346a1.75 1.75 0 0 1-.875 1.515zm-1-1.298a.25.25 0 0 0 .25 0l2.031-1.173a.25.25 0 0 0 .125-.216V4.327a.25.25 0 0 0-.125-.216l-2.031-1.173a.25.25 0 0 0-.25 0L8.844 4.111a.25.25 0 0 0-.125.216v2.346a.25.25 0 0 0 .125.216z"/><path fill-rule="evenodd" d="M5.875 9.36a1.75 1.75 0 0 1-1.75 0L2.094 8.189a1.75 1.75 0 0 1-.875-1.515V4.327c0-.625.333-1.203.875-1.515l2.031-1.173a1.75 1.75 0 0 1 1.75 0l2.031 1.173c.542.312.875.89.875 1.515v2.346a1.75 1.75 0 0 1-.875 1.515zm-1-1.298a.25.25 0 0 0 .25 0l2.031-1.173a.25.25 0 0 0 .125-.216V4.327a.25.25 0 0 0-.125-.216L5.125 2.938a.25.25 0 0 0-.25 0L2.844 4.111a.25.25 0 0 0-.125.216v2.346a.25.25 0 0 0 .125.216z"/><path fill-rule="evenodd" d="M8.875 14.658a1.75 1.75 0 0 1-1.75 0l-2.031-1.173a1.75 1.75 0 0 1-.875-1.515V9.625c0-.626.333-1.203.875-1.516l2.031-1.173a1.75 1.75 0 0 1 1.75 0l2.031 1.173c.541.313.875.89.875 1.516v2.345a1.75 1.75 0 0 1-.875 1.515zm-1-1.299a.25.25 0 0 0 .25 0l2.031-1.173a.25.25 0 0 0 .125-.216V9.625a.25.25 0 0 0-.125-.217L8.125 8.235a.25.25 0 0 0-.25 0L5.844 9.408a.25.25 0 0 0-.125.217v2.345c0 .09.048.172.125.216z"/></svg>