<svg xmlns="http://www.w3.org/2000/svg" width="32" height="32" viewBox="0 0 32 32"><path fill-rule="evenodd" d="M13.992 7.46C14.162 6.681 14.948 6 16 6s1.838.681 2.008 1.458l.233 1.065 1.04-.323c.955-.296 1.99.076 2.464.831.452.72.293 1.627-.404 2.191l-.96.778.96.777c.698.565.856 1.472.404 2.192-.474.755-1.509 1.127-2.463.83l-1.041-.322-.233 1.064C17.838 17.318 17.052 18 16 18s-1.838-.682-2.008-1.459l-.232-1.065-1.04.323c-.956.297-1.99-.076-2.465-.83-.452-.72-.293-1.627.404-2.192l.96-.777-.96-.777c-.697-.565-.855-1.47-.404-2.19.474-.756 1.51-1.128 2.464-.832l1.041.323zM16 4c-1.551 0-2.953.834-3.626 2.113-1.478-.111-2.988.543-3.812 1.856-.822 1.308-.708 2.866.111 4.031-.819 1.165-.933 2.723-.112 4.032.825 1.313 2.335 1.967 3.813 1.855C13.047 19.167 14.45 20 16 20c1.552 0 2.953-.834 3.627-2.112 1.477.111 2.988-.543 3.812-1.856.822-1.309.708-2.867-.112-4.032.82-1.165.934-2.724.112-4.032-.825-1.314-2.335-1.968-3.813-1.856C18.953 4.833 17.552 4 16 4m-1 8a1 1 0 1 1 2 0 1 1 0 0 1-2 0m1-3a3 3 0 1 0 0 6 3 3 0 0 0 0-6M6.046 19.981c-.114-1.058.767-1.9 1.776-1.827 3.541.256 6.651 2.18 8.178 4.962 1.526-2.782 4.637-4.706 8.178-4.962 1.01-.072 1.89.77 1.776 1.827C25.458 24.584 21.088 28 16 28s-9.458-3.416-9.954-8.019m8.857 5.955c-3.565-.416-6.277-2.836-6.807-5.747 3.575.419 6.272 2.831 6.807 5.747m2.194 0c3.566-.416 6.277-2.836 6.807-5.747-3.575.419-6.273 2.831-6.807 5.747"/></svg>