<svg xmlns="http://www.w3.org/2000/svg" width="16" height="16" viewBox="0 0 16 16"><path fill-rule="evenodd" d="M7.24 3.033c.058-.263.34-.533.76-.533s.702.27.76.533l.174.798.78-.242c.38-.118.776.037.947.31.154.246.109.56-.148.768l-.72.583.72.583c.257.208.302.522.148.768-.171.273-.567.428-.946.31l-.78-.242-.175.798C8.702 7.73 8.42 8 8 8s-.702-.27-.76-.533l-.174-.798-.78.242c-.38.118-.775-.037-.947-.31-.154-.246-.108-.56.148-.768l.72-.583-.72-.583c-.256-.208-.302-.522-.148-.768.172-.273.567-.428.946-.31l.781.242zM8 1c-.806 0-1.55.405-1.954 1.05-.772-.006-1.54.357-1.977 1.051a2.05 2.05 0 0 0-.03 2.15 2.05 2.05 0 0 0 .03 2.148c.436.695 1.205 1.057 1.977 1.05C6.45 9.096 7.194 9.5 8 9.5s1.55-.405 1.954-1.05c.772.006 1.541-.357 1.977-1.051a2.05 2.05 0 0 0 .03-2.149 2.05 2.05 0 0 0-.03-2.149c-.436-.694-1.205-1.057-1.977-1.05C9.55 1.404 8.806 1 8 1m0 5.25a1 1 0 1 0 0-2 1 1 0 0 0 0 2m-5.664 4.64c-.185-.946.627-1.7 1.51-1.585C5.59 9.534 7.13 10.48 8 11.837c.87-1.357 2.41-2.303 4.154-2.532.883-.116 1.695.64 1.51 1.585-.486 2.473-2.9 4.235-5.664 4.235-2.765 0-5.178-1.762-5.664-4.235m4.802 2.66c-1.66-.29-2.912-1.399-3.277-2.726 1.67.293 2.909 1.396 3.277 2.727m1.724 0c1.66-.29 2.912-1.399 3.277-2.726-1.67.293-2.909 1.396-3.277 2.727"/></svg>