<svg xmlns="http://www.w3.org/2000/svg" width="24" height="24" viewBox="0 0 24 24"><path fill-rule="evenodd" d="M10.6 5.514c.118-.537.664-1.014 1.4-1.014s1.282.477 1.4 1.014l.174.798.78-.242c.668-.207 1.39.054 1.72.578.312.498.203 1.126-.282 1.519l-.72.583.72.583c.485.393.594 1.02.281 1.518-.329.525-1.05.786-1.719.579l-.78-.242-.175.798C13.282 12.523 12.737 13 12 13s-1.282-.477-1.4-1.014l-.174-.798-.78.242c-.668.207-1.39-.054-1.72-.579-.312-.498-.203-1.125.282-1.518l.72-.583-.72-.583c-.485-.392-.594-1.02-.281-1.518.33-.524 1.05-.786 1.719-.579l.78.243zM12 3c-1.112 0-2.12.593-2.61 1.508-1.061-.072-2.141.4-2.733 1.344a2.61 2.61 0 0 0 .066 2.898 2.61 2.61 0 0 0-.066 2.899c.592.943 1.672 1.415 2.732 1.344.492.914 1.499 1.507 2.611 1.507s2.12-.593 2.61-1.507c1.061.072 2.142-.4 2.734-1.344a2.61 2.61 0 0 0-.067-2.9 2.61 2.61 0 0 0 .067-2.898c-.593-.944-1.673-1.416-2.733-1.344C14.119 3.593 13.112 3 12 3m-.75 5.75a.75.75 0 1 1 1.5 0 .75.75 0 0 1-1.5 0M12 6.5a2.25 2.25 0 1 0 0 4.5 2.25 2.25 0 0 0 0-4.5m-8.7 7.589c-.11-.904.646-1.626 1.51-1.556 3.169.257 5.919 2.035 7.19 4.565 1.271-2.53 4.021-4.308 7.19-4.565.864-.07 1.62.652 1.51 1.556C20.217 18.05 16.432 21 12 21s-8.218-2.95-8.7-6.911m7.892 5.373c-3.383-.321-5.976-2.634-6.385-5.424 3.392.324 5.972 2.63 6.385 5.424m1.616 0c3.383-.321 5.976-2.634 6.385-5.424-3.393.324-5.972 2.63-6.385 5.424"/></svg>