<svg xmlns="http://www.w3.org/2000/svg" width="32" height="32" viewBox="0 0 32 32"><path fill-rule="evenodd" d="M26 16c0 5.523-4.477 10-10 10S6 21.523 6 16 10.477 6 16 6s10 4.477 10 10m2 0c0 6.627-5.373 12-12 12S4 22.627 4 16 9.373 4 16 4s12 5.373 12 12m-16.75-1.5a1.25 1.25 0 1 0 0-2.5 1.25 1.25 0 0 0 0 2.5M22 13.25a1.25 1.25 0 1 1-2.5 0 1.25 1.25 0 0 1 2.5 0M9.987 16.837a1 1 0 0 0-1.974.326C8.653 21.033 11.975 24 16 24s7.346-2.967 7.987-6.837a1 1 0 0 0-1.974-.326C21.527 19.777 19.01 22 16 22s-5.527-2.222-6.013-5.163"/></svg>