<svg xmlns="http://www.w3.org/2000/svg" width="24" height="24" viewBox="0 0 24 24"><path fill-rule="evenodd" d="M11.999 4.993a2.25 2.25 0 0 0-.75 4.372v1.63h-4a2.75 2.75 0 0 0-2.75 2.75v.89a2.25 2.25 0 1 0 1.5-.002v-.888c0-.69.56-1.25 1.25-1.25h4v2.138a2.25 2.25 0 1 0 1.5.002v-2.14h3.993c.69 0 1.25.56 1.25 1.25v.891a2.25 2.25 0 1 0 1.5-.004v-.887a2.75 2.75 0 0 0-2.75-2.75H12.75v-1.63A2.25 2.25 0 0 0 12 4.993m-.75 2.25a.75.75 0 1 1 1.5 0 .75.75 0 0 1-1.5 0m-6.747 9.513a.75.75 0 0 1 .748-.75h.002a.75.75 0 1 1-.75.75m6.745 0a.75.75 0 1 1 1.5 0 .75.75 0 0 1-1.5 0m7.501-.75a.75.75 0 1 0 0 1.5.75.75 0 0 0 0-1.5"/></svg>