<svg xmlns="http://www.w3.org/2000/svg" width="32" height="32" viewBox="0 0 32 32"><path fill-rule="evenodd" d="M15.987 6a2.998 2.998 0 0 0-1 5.826v3.148H8.995a3 3 0 0 0-3 3v2.185a3 3 0 1 0 2-.002v-2.183a1 1 0 0 1 1-1h5.992v3.183a3 3 0 1 0 2 .002v-3.185h5.984a1 1 0 0 1 1 1v2.187a3 3 0 0 0 1.008 5.823 2.998 2.998 0 0 0 .992-5.829v-2.181a3 3 0 0 0-3-3h-5.984v-3.149a3 3 0 0 0-1-5.825m-.998 2.998a.998.998 0 1 1 1.996 0 .998.998 0 0 1-1.996 0M6 22.985a.998.998 0 1 1 1.996 0 .998.998 0 0 1-1.996 0m8.986 0a.998.998 0 1 1 1.997 0 .998.998 0 0 1-1.997 0m9.993-.998a.998.998 0 1 0 0 1.997.998.998 0 0 0 0-1.997"/></svg>