<svg xmlns="http://www.w3.org/2000/svg" width="32" height="32" viewBox="0 0 32 32"><path fill-rule="evenodd" d="M26 5a1 1 0 0 1-1 1h-1.714c.653 2.968.376 5.162-.827 6.885-.943 1.35-2.389 2.296-4.052 3.118 1.65.82 3.092 1.765 4.036 3.11 1.208 1.723 1.495 3.916.842 6.887H25a1 1 0 1 1 0 2H7a1 1 0 1 1 0-2h1.716c-.655-2.968-.378-5.162.826-6.885.943-1.35 2.39-2.296 4.053-3.118-1.651-.82-3.093-1.765-4.037-3.11C8.35 11.164 8.063 8.97 8.716 6H7a1 1 0 0 1 0-2h18a1 1 0 0 1 1 1M10.77 26h10.462c.718-2.914.384-4.583-.427-5.738-.889-1.268-2.484-2.147-4.806-3.171-2.338 1.024-3.933 1.903-4.817 3.17-.806 1.154-1.134 2.822-.413 5.739m0-20h10.462c.72 2.917.393 4.586-.413 5.74-.884 1.265-2.478 2.145-4.816 3.17-2.322-1.025-3.918-1.904-4.807-3.172-.811-1.155-1.146-2.824-.426-5.738"/></svg>