<svg xmlns="http://www.w3.org/2000/svg" width="24" height="24" viewBox="0 0 24 24"><path fill-rule="evenodd" d="M5.25 3a.75.75 0 0 0 0 1.5h1.302c-.498 2.382-.315 4.046.58 5.303.492.69 1.157 1.197 1.9 1.625.346.199.719.386 1.111.57q-.587.269-1.103.562c-.748.428-1.417.934-1.91 1.625-.9 1.26-1.079 2.926-.578 5.315H5.25a.75.75 0 0 0 0 1.5h13.5a.75.75 0 0 0 0-1.5h-1.302c.498-2.382.315-4.046-.58-5.303-.492-.69-1.157-1.197-1.9-1.625-.346-.199-.72-.386-1.111-.57q.587-.269 1.103-.562c.747-.428 1.417-.934 1.91-1.625.9-1.26 1.079-2.926.578-5.315h1.302a.75.75 0 0 0 0-1.5zm10.662 1.5H8.088c-.549 2.394-.304 3.632.266 4.433.32.449.785.826 1.426 1.195.618.355 1.354.679 2.221 1.055.865-.372 1.598-.693 2.214-1.045.647-.37 1.114-.747 1.435-1.195.57-.8.814-2.038.262-4.443m-3.913 8.317c-.865.372-1.598.693-2.214 1.046-.647.37-1.115.746-1.435 1.194-.571.8-.814 2.039-.262 4.443h7.824c.549-2.394.304-3.633-.267-4.433-.319-.449-.784-.826-1.425-1.195-.619-.355-1.354-.679-2.221-1.055"/></svg>