<svg xmlns="http://www.w3.org/2000/svg" width="16" height="16" viewBox="0 0 16 16"><path fill-rule="evenodd" d="M13.25 2.5a.75.75 0 0 0 0-1.5H2.75a.75.75 0 0 0 0 1.5h.866c-.35 1.699-.298 3.016.386 4.041.425.637 1.053 1.092 1.816 1.457-.77.365-1.402.822-1.827 1.462-.68 1.026-.725 2.344-.375 4.04H2.75a.75.75 0 0 0 0 1.5h10.5a.75.75 0 0 0 0-1.5h-.866c.35-1.699.298-3.016-.386-4.041-.424-.637-1.052-1.092-1.816-1.457.77-.365 1.402-.822 1.827-1.462.68-1.026.726-2.344.375-4.04zM8 7.216c1.557-.479 2.364-.91 2.76-1.506.352-.531.48-1.366.144-2.96H5.097c-.334 1.591-.202 2.427.153 2.959.398.597 1.207 1.028 2.75 1.507m0 1.568c-1.557.479-2.364.91-2.759 1.506-.352.531-.48 1.366-.145 2.96h5.808c.333-1.591.201-2.427-.153-2.959C10.352 9.694 9.543 9.263 8 8.784"/></svg>