<svg xmlns="http://www.w3.org/2000/svg" width="32" height="32" viewBox="0 0 32 32"><path fill-rule="evenodd" d="M4.75 5.75a1 1 0 0 1 1-1h20.5a1 1 0 1 1 0 2H5.75a1 1 0 0 1-1-1m11.389 13.667a1 1 0 0 1 1-1h9.111a1 1 0 1 1 0 2h-9.111a1 1 0 0 1-1-1m1.285-7.834a1 1 0 1 0 0 2h8.826a1 1 0 1 0 0-2zM4.75 26.25a1 1 0 0 1 1-1h20.5a1 1 0 1 1 0 2H5.75a1 1 0 0 1-1-1m4.256-13.428a1 1 0 0 1 1.25-1.561l4.728 3.784a1.22 1.22 0 0 1 0 1.908l-4.729 3.785a1 1 0 1 1-1.25-1.562L11.726 17H5.75a1 1 0 1 1 0-2h5.978z"/></svg>