<svg xmlns="http://www.w3.org/2000/svg" width="16" height="16" viewBox="0 0 16 16"><g clip-path="url(#a)"><path fill-rule="evenodd" d="M1.744.994a.75.75 0 0 0 0 1.5h12.512a.75.75 0 0 0 0-1.5zm6.951 8.341a.75.75 0 1 0 0 1.5h5.56a.75.75 0 0 0 0-1.5zm-.576-3.42a.75.75 0 0 1 .75-.75h5.387a.75.75 0 0 1 0 1.5H8.869a.75.75 0 0 1-.75-.75m-6.375 7.59a.75.75 0 0 0 0 1.5h12.512a.75.75 0 1 0 0-1.5zM.994 8a.75.75 0 0 1 .75-.75h3.25l-1.35-1.08a.75.75 0 1 1 .937-1.172L7.383 7.24a.972.972 0 0 1 0 1.518L4.58 11a.75.75 0 1 1-.937-1.17l1.349-1.08H1.744A.75.75 0 0 1 .994 8"/></g><defs><clipPath id="a"><path fill="var(--hop-RichIcon-placeholder-fill, #fff)" d="M0 0h16v16H0z"/></clipPath></defs></svg>