<svg xmlns="http://www.w3.org/2000/svg" width="24" height="24" viewBox="0 0 24 24"><path fill-rule="evenodd" d="M3.753 3.004a.75.75 0 1 0 0 1.5h16.494a.75.75 0 0 0 0-1.5zm9.163 10.995a.75.75 0 0 0 0 1.5h7.33a.75.75 0 1 0 0-1.5zm-.52-4.748a.75.75 0 0 1 .75-.75h7.1a.75.75 0 0 1 0 1.5h-7.1a.75.75 0 0 1-.75-.75M3.752 19.497a.75.75 0 0 0 0 1.5h16.494a.75.75 0 0 0 0-1.5zM3.003 12a.75.75 0 0 1 .75-.75h4.965L6.407 9.4a.75.75 0 0 1 .937-1.17l3.762 3.01a.972.972 0 0 1 0 1.518L7.344 15.77a.75.75 0 0 1-.937-1.171l2.309-1.848H3.753a.75.75 0 0 1-.75-.75"/></svg>