<svg xmlns="http://www.w3.org/2000/svg" width="16" height="16" viewBox="0 0 16 16"><path fill-rule="evenodd" d="M1.75 1a.75.75 0 0 0 0 1.5h12.512a.75.75 0 0 0 0-1.5zM8.7 9.341a.75.75 0 0 0 0 1.5h5.562a.75.75 0 0 0 0-1.5zm-.575-3.42a.75.75 0 0 1 .75-.75h5.387a.75.75 0 0 1 0 1.5H8.875a.75.75 0 0 1-.75-.75M1.75 13.51a.75.75 0 0 0 0 1.5h12.512a.75.75 0 0 0 0-1.5zM1 8.007a.75.75 0 0 1 .75-.75H5l-1.35-1.08a.75.75 0 0 1 .937-1.172l2.802 2.242a.972.972 0 0 1 0 1.518l-2.802 2.242a.75.75 0 0 1-.937-1.17l1.349-1.08H1.75a.75.75 0 0 1-.75-.75"/></svg>