<svg xmlns="http://www.w3.org/2000/svg" width="24" height="24" viewBox="0 0 24 24"><path d="M8 8.25a.75.75 0 0 1 .75-.75h4a.75.75 0 0 1 0 1.5h-4A.75.75 0 0 1 8 8.25m7.25.75a.75.75 0 1 0 0-1.5.75.75 0 0 0 0 1.5M8 11.75a.75.75 0 0 1 .75-.75h4a.75.75 0 0 1 0 1.5h-4a.75.75 0 0 1-.75-.75m7.25.75a.75.75 0 1 0 0-1.5.75.75 0 0 0 0 1.5"/><path fill-rule="evenodd" d="M6.5 3A1.5 1.5 0 0 0 5 4.5v15.363c0 1.232 1.73 1.509 2.114.337l.068-.207c.311-.95 1.664-.927 1.942.034l.055.188c.28.967 1.665.917 1.875-.067.218-1.02 1.674-1.02 1.892 0 .21.984 1.596 1.034 1.875.067l.055-.188c.278-.961 1.63-.985 1.942-.034l.068.207c.384 1.172 2.114.895 2.114-.337V4.5A1.5 1.5 0 0 0 17.5 3zm11 1.5h-11v13.89c1.046-.9 2.74-.78 3.618.337.955-1.126 2.809-1.126 3.764 0 .879-1.116 2.572-1.237 3.618-.336z"/></svg>