<svg xmlns="http://www.w3.org/2000/svg" width="32" height="32" viewBox="0 0 32 32"><path d="M9.75 11a1 1 0 0 1 1-1h7a1 1 0 1 1 0 2h-7a1 1 0 0 1-1-1m11.5 1a1 1 0 1 0 0-2 1 1 0 0 0 0 2m1 3a1 1 0 1 1-2 0 1 1 0 0 1 2 0m-1 5a1 1 0 1 0 0-2 1 1 0 0 0 0 2m-11.5-5a1 1 0 0 1 1-1h7a1 1 0 1 1 0 2h-7a1 1 0 0 1-1-1m1 3a1 1 0 1 0 0 2h7a1 1 0 1 0 0-2z"/><path fill-rule="evenodd" d="M8 4a2 2 0 0 0-2 2v20.462c0 1.737 2.403 2.19 3.035.571l.099-.253c.497-1.272 2.31-1.238 2.759.052l.08.233c.456 1.308 2.332 1.228 2.673-.114.358-1.402 2.35-1.402 2.707 0 .342 1.342 2.218 1.422 2.673.114l.081-.233c.45-1.29 2.262-1.324 2.76-.052l.098.253C23.598 28.651 26 28.2 26 26.462V6a2 2 0 0 0-2-2zm16 2H8v18.895c1.44-1.51 4.023-1.384 5.286.33 1.315-1.768 4.113-1.768 5.428 0 1.263-1.715 3.846-1.84 5.286-.33z"/></svg>