<svg xmlns="http://www.w3.org/2000/svg" width="16" height="16" viewBox="0 0 16 16"><path d="M11 8.25a.75.75 0 1 1-1.5 0 .75.75 0 0 1 1.5 0M5.75 7.5a.75.75 0 0 0 0 1.5h2a.75.75 0 0 0 0-1.5zM11 5.25a.75.75 0 1 1-1.5 0 .75.75 0 0 1 1.5 0M5.75 4.5a.75.75 0 0 0 0 1.5h2a.75.75 0 0 0 0-1.5z"/><path fill-rule="evenodd" d="M3 1a1 1 0 0 0-1 1v11.998c0 .88 1.053 1.33 1.69.725l1.12-1.067a1 1 0 0 1 1.38 0l1.12 1.068a1 1 0 0 0 1.38 0l1.12-1.068a1 1 0 0 1 1.38 0l1.12 1.067c.637.606 1.69.154 1.69-.725V2a1 1 0 0 0-1-1zm.5 1.5v10.332l.277-.263a2.5 2.5 0 0 1 3.447 0l.776.74.776-.74a2.5 2.5 0 0 1 3.447 0l.277.263V2.5z"/></svg>