<svg xmlns="http://www.w3.org/2000/svg" width="16" height="16" viewBox="0 0 16 16"><path fill-rule="evenodd" d="M15 8A7 7 0 1 0 1 8a7 7 0 0 0 14 0m-9.983.75c.078 1.711.42 3.238.93 4.354A5.5 5.5 0 0 1 2.55 8.75zm1.502 0c.073 1.461.357 2.719.738 3.609.224.522.452.849.629 1.023q.074.072.114.098a1 1 0 0 0 .114-.098c.177-.174.405-.5.629-1.023.381-.89.665-2.148.738-3.609zm2.962-1.5H6.52c.073-1.461.357-2.719.738-3.609.224-.522.452-.849.629-1.023A1 1 0 0 1 8 2.52a1 1 0 0 1 .114.098c.177.174.405.5.629 1.023.381.89.665 2.148.738 3.609m1.502 1.5c-.078 1.711-.42 3.238-.93 4.354A5.5 5.5 0 0 0 13.45 8.75zm2.466-1.5h-2.466c-.078-1.711-.42-3.238-.93-4.354A5.5 5.5 0 0 1 13.45 7.25m-8.432 0H2.551a5.5 5.5 0 0 1 3.396-4.354c-.51 1.116-.852 2.643-.93 4.354"/></svg>