<svg xmlns="http://www.w3.org/2000/svg" width="24" height="24" viewBox="0 0 24 24"><path fill-rule="evenodd" d="M21 12a9 9 0 1 0-18 0 9 9 0 0 0 18 0m-8.477 7.206c-.285.271-.459.294-.523.294s-.238-.023-.523-.294c-.292-.278-.624-.751-.935-1.451-.552-1.244-.948-2.993-1.027-5.005h4.97c-.08 2.012-.475 3.761-1.027 5.005-.311.7-.643 1.173-.935 1.451m1.962-7.956h-4.97c.08-2.012.475-3.761 1.027-5.005.311-.7.643-1.173.935-1.451.285-.271.459-.294.523-.294s.238.023.523.294c.292.278.624.751.935 1.451.552 1.244.948 2.993 1.027 5.005m1.501 1.5c-.094 2.569-.668 4.832-1.519 6.335a7.51 7.51 0 0 0 4.996-6.335zm3.477-1.5h-3.477c-.094-2.569-.668-4.832-1.519-6.335a7.51 7.51 0 0 1 4.996 6.335m-11.45 0c.095-2.569.669-4.832 1.52-6.335a7.51 7.51 0 0 0-4.996 6.335zm-3.476 1.5a7.51 7.51 0 0 0 4.996 6.335c-.851-1.503-1.425-3.766-1.52-6.335z"/></svg>