<svg xmlns="http://www.w3.org/2000/svg" width="32" height="32" viewBox="0 0 32 32"><path fill-rule="evenodd" d="M24.5 11a3.5 3.5 0 0 1-3.355-2.5H9.25a3.25 3.25 0 1 0 0 6.5h3.395a3.502 3.502 0 0 1 6.71 0h3.395a5.25 5.25 0 1 1 0 10.5H10.855A3.502 3.502 0 0 1 4 24.5a3.5 3.5 0 0 1 6.855-1H22.75a3.25 3.25 0 0 0 0-6.5h-3.395a3.502 3.502 0 0 1-6.71 0H9.25a5.25 5.25 0 1 1 0-10.5h11.895A3.502 3.502 0 0 1 28 7.5a3.5 3.5 0 0 1-3.5 3.5m0-2a1.5 1.5 0 1 0 0-3 1.5 1.5 0 0 0 0 3M9 24.5a1.5 1.5 0 1 0-3 0 1.5 1.5 0 0 0 3 0m8.5-8.5a1.5 1.5 0 1 1-3 0 1.5 1.5 0 0 1 3 0"/></svg>