<svg xmlns="http://www.w3.org/2000/svg" width="24" height="24" fill="none" viewBox="0 0 24 24"><path fill="currentColor" fill-rule="evenodd" d="M12 4.5a4.25 4.25 0 0 0-1.912 8.047.75.75 0 0 1 .412.67v1.806h3v-1.807a.75.75 0 0 1 .412-.67A4.25 4.25 0 0 0 12 4.5M6.25 8.75A5.75 5.75 0 1 1 15 13.656v2.117a.75.75 0 0 1-.75.75h-4.5a.75.75 0 0 1-.75-.75v-2.117A5.747 5.747 0 0 1 6.25 8.75M9 18a.75.75 0 0 1 .75-.75h4.5a.75.75 0 0 1 0 1.5h-4.5A.75.75 0 0 1 9 18m1.75 1.5a.75.75 0 0 0 0 1.5h2.5a.75.75 0 0 0 0-1.5z"/></svg>