<svg xmlns="http://www.w3.org/2000/svg" width="16" height="16" viewBox="0 0 16 16"><path fill-rule="evenodd" d="M8 2.504a2.873 2.873 0 0 0-1.349 5.41.75.75 0 0 1 .397.662v.921h1.904v-.92a.75.75 0 0 1 .397-.662A2.873 2.873 0 0 0 8 2.504M3.627 5.377a4.373 4.373 0 1 1 6.825 3.622v1.248a.75.75 0 0 1-.75.75H6.298a.75.75 0 0 1-.75-.75V8.999a4.37 4.37 0 0 1-1.921-3.622m1.921 6.886a.75.75 0 0 1 .75-.75h3.404a.75.75 0 1 1 0 1.5H6.298a.75.75 0 0 1-.75-.75m1.318 1.219a.75.75 0 0 0 0 1.5h2.269a.75.75 0 1 0 0-1.5z"/></svg>