<svg xmlns="http://www.w3.org/2000/svg" width="32" height="32" fill="none" viewBox="0 0 32 32"><path fill="currentColor" fill-rule="evenodd" d="M24.392 7.608a5.475 5.475 0 0 0-7.743 0l-1.356 1.356a1 1 0 0 0 1.414 1.414l1.356-1.356a3.475 3.475 0 1 1 4.915 4.915l-2.863 2.862a3.262 3.262 0 0 1-4.613 0l-.151-.15a1 1 0 0 0-1.414 1.414l.15.15a5.262 5.262 0 0 0 7.442 0l2.863-2.862a5.475 5.475 0 0 0 0-7.743M7.608 24.392a5.475 5.475 0 0 0 7.743 0l1.356-1.356a1 1 0 0 0-1.414-1.415l-1.356 1.357a3.475 3.475 0 0 1-4.914-4.915l2.862-2.863a3.262 3.262 0 0 1 4.613 0l.151.151a1 1 0 0 0 1.414-1.414l-.15-.15a5.262 5.262 0 0 0-7.442 0l-2.863 2.862a5.475 5.475 0 0 0 0 7.743Z"/></svg>