<svg xmlns="http://www.w3.org/2000/svg" width="24" height="24" viewBox="0 0 24 24"><path fill-rule="evenodd" d="M18.704 5.296a4.345 4.345 0 0 0-6.145 0l-1.09 1.09a.75.75 0 1 0 1.061 1.06l1.09-1.09a2.845 2.845 0 0 1 4.023 4.024l-2.3 2.3a2.674 2.674 0 0 1-3.781 0l-.121-.121a.75.75 0 0 0-1.06 1.06l.12.121a4.174 4.174 0 0 0 5.903 0l2.3-2.3a4.345 4.345 0 0 0 0-6.144M5.296 18.704a4.345 4.345 0 0 0 6.145 0l1.09-1.09a.75.75 0 0 0-1.061-1.06l-1.09 1.09a2.845 2.845 0 0 1-4.023-4.024l2.3-2.3a2.674 2.674 0 0 1 3.781 0l.121.12a.75.75 0 1 0 1.06-1.06l-.12-.12a4.174 4.174 0 0 0-5.903 0l-2.3 2.299a4.345 4.345 0 0 0 0 6.145"/></svg>