<svg xmlns="http://www.w3.org/2000/svg" width="16" height="16" viewBox="0 0 16 16"><path fill-rule="evenodd" d="M13.024 2.976a3.367 3.367 0 0 0-4.761 0l-.793.793a.75.75 0 0 0 1.06 1.06l.793-.793a1.867 1.867 0 1 1 2.64 2.64L10.29 8.352c-.681.68-1.784.68-2.465 0l-.088-.088a.75.75 0 0 0-1.06 1.06l.088.089a3.242 3.242 0 0 0 4.585 0l1.674-1.675a3.367 3.367 0 0 0 0-4.761M2.976 13.024a3.367 3.367 0 0 0 4.761 0l.793-.793a.75.75 0 1 0-1.06-1.06l-.793.793a1.867 1.867 0 0 1-2.64-2.64L5.71 7.648c.68-.68 1.783-.68 2.464 0l.088.088a.75.75 0 0 0 1.06-1.06l-.088-.089a3.242 3.242 0 0 0-4.585 0L2.976 8.263a3.367 3.367 0 0 0 0 4.761Z"/></svg>