<svg xmlns="http://www.w3.org/2000/svg" width="24" height="24" viewBox="0 0 24 24"><path fill-rule="evenodd" d="M15 10.5a3 3 0 1 1-6 0 3 3 0 0 1 6 0m-1.5 0a1.5 1.5 0 1 1-3 0 1.5 1.5 0 0 1 3 0"/><path fill-rule="evenodd" d="M19.5 10.455c0 4.835-4.798 8.867-6.719 10.288a1.3 1.3 0 0 1-1.562 0C9.299 19.323 4.5 15.29 4.5 10.455 4.5 6.338 8.134 3 12 3s7.5 3.338 7.5 7.455m-1.5 0c0 1.927-.965 3.815-2.308 5.484-1.275 1.585-2.771 2.825-3.692 3.515-.92-.69-2.417-1.93-3.692-3.515C6.965 14.27 6 12.382 6 10.455 6 7.21 8.918 4.5 12 4.5s6 2.71 6 5.955"/></svg>