<svg xmlns="http://www.w3.org/2000/svg" width="16" height="16" viewBox="0 0 16 16"><path fill-rule="evenodd" d="M10.5 7a2.5 2.5 0 1 1-5 0 2.5 2.5 0 0 1 5 0M9 7a1 1 0 1 1-2 0 1 1 0 0 1 2 0"/><path fill-rule="evenodd" d="M14 6.833c0 3.832-4.044 6.998-5.492 8.009a.88.88 0 0 1-1.016 0C6.044 13.83 2 10.665 2 6.833 2 3.612 4.686 1 8 1s6 2.612 6 5.833m-1.5 0c0 1.395-.748 2.804-1.844 4.089-.91 1.065-1.95 1.916-2.656 2.438-.706-.521-1.746-1.373-2.656-2.438C4.248 9.637 3.5 8.228 3.5 6.833 3.5 4.48 5.475 2.5 8 2.5s4.5 1.98 4.5 4.333"/></svg>