<svg xmlns="http://www.w3.org/2000/svg" width="32" height="32" fill="none" viewBox="0 0 32 32"><path fill="currentColor" fill-rule="evenodd" d="M6 8a2 2 0 0 1 2-2h11.186a2 2 0 0 1 1.414.586l-.6.6.6-.6 4.814 4.814-.6.6.6-.6A2 2 0 0 1 26 12.814V16a1 1 0 1 1-2 0v-2h-4a2 2 0 0 1-2-2V8H8v16h9a1 1 0 1 1 0 2H8a2 2 0 0 1-2-2zm14 4V8.814L23.186 12zm-9.25 8a1 1 0 1 0 0 2H15a1 1 0 1 0 0-2zm-1-3a1 1 0 0 1 1-1h10.5a1 1 0 1 1 0 2h-10.5a1 1 0 0 1-1-1m1-5a1 1 0 1 0 0 2H15a1 1 0 1 0 0-2zM19 23.222a1.5 1.5 0 0 1 1.316-1.49v-.24a3.194 3.194 0 1 1 6.387 0v.24a1.5 1.5 0 0 1 1.316 1.49V26.5a1.5 1.5 0 0 1-1.5 1.5H20.5a1.5 1.5 0 0 1-1.5-1.5zm2 .5V26h5.02v-2.278zm1.316-2.23a1.194 1.194 0 0 1 2.387 0v.23h-2.387z"/></svg>