<svg xmlns="http://www.w3.org/2000/svg" width="32" height="32" viewBox="0 0 32 32"><path fill-rule="evenodd" d="M21 4a1 1 0 0 1 1 1v1h2a2 2 0 0 1 2 2v8a1 1 0 1 1-2 0v-2H8v10h8a1 1 0 1 1 0 2H8a2 2 0 0 1-2-2V8a2 2 0 0 1 2-2h2V5a1 1 0 1 1 2 0v1h8V5a1 1 0 0 1 1-1M10 8v1a1 1 0 1 0 2 0V8h8v1a1 1 0 1 0 2 0V8h2v4H8V8z"/><path fill-rule="evenodd" d="M23.5 18.5a3.25 3.25 0 0 0-3.25 3.25v.02A1.5 1.5 0 0 0 19 23.25v3.25a1.5 1.5 0 0 0 1.5 1.5h6a1.5 1.5 0 0 0 1.5-1.5v-3.25a1.5 1.5 0 0 0-1.25-1.48v-.02a3.25 3.25 0 0 0-3.25-3.25m1.25 3.25a1.25 1.25 0 1 0-2.5 0zM21 26v-2.25h5V26z"/></svg>