<svg xmlns="http://www.w3.org/2000/svg" width="32" height="32" fill="none" viewBox="0 0 32 32"><path fill="currentColor" fill-rule="evenodd" d="M16 4a6.5 6.5 0 0 0-6.5 6.5v1.918H8a2 2 0 0 0-2 2V26a2 2 0 0 0 2 2h16a2 2 0 0 0 2-2V14.418a2 2 0 0 0-2-2h-1.5V10.5A6.5 6.5 0 0 0 16 4m4.5 8.418V10.5a4.5 4.5 0 1 0-9 0v1.918zm-12.5 2h16V26H8zm8.793 5.557c.383-.25.636-.675.636-1.158 0-.768-.64-1.391-1.429-1.391s-1.428.623-1.428 1.391c0 .483.252.909.636 1.158l-1.325 1.935c-.316.462.024 1.081.595 1.081h3.045c.57 0 .91-.619.594-1.081l-1.325-1.935"/></svg>