<svg xmlns="http://www.w3.org/2000/svg" width="16" height="16" fill="none" viewBox="0 0 16 16"><path fill="currentColor" fill-rule="evenodd" d="M3.504 12.5V3.495h4.499V6.76c0 .69.56 1.25 1.25 1.25h3.254v1.233a.75.75 0 0 0 1.5 0V6.704c0-.331-.132-.65-.366-.884l-3.458-3.458a1.25 1.25 0 0 0-.884-.366H3.254c-.69 0-1.25.56-1.25 1.25v9.503c0 .69.56 1.25 1.25 1.25h5.995a.75.75 0 0 0 0-1.5H3.504Zm8.705-5.99L9.503 3.803V6.51zm-1.206 5.99a.5.5 0 0 1 .5-.5h.02a1.5 1.5 0 0 1 2.96 0h.02a.5.5 0 0 1 .5.5v2a.5.5 0 0 1-.5.5h-3a.5.5 0 0 1-.5-.5zm2.435-.5a.5.5 0 0 0-.869 0h.868m-1.435 1v1h2v-1z"/></svg>