<svg xmlns="http://www.w3.org/2000/svg" width="24" height="24" fill="none" viewBox="0 0 24 24"><path fill="currentColor" fill-rule="evenodd" d="M4 5.5A1.5 1.5 0 0 1 5.5 4h9.09a1.5 1.5 0 0 1 1.06.44l-.53.53.53-.53 3.91 3.91A1.5 1.5 0 0 1 20 9.41v2.836a.75.75 0 0 1-1.5 0v-1.741h-3.502a1.5 1.5 0 0 1-1.5-1.5V5.5H5.5v13h6.75a.75.75 0 0 1 0 1.5H5.5A1.5 1.5 0 0 1 4 18.5zm10.998.409 3.096 3.096h-3.096V5.909m5.885 10.662v.306a1.25 1.25 0 0 1 1.125 1.244v2.657c0 .69-.56 1.25-1.25 1.25h-5c-.69 0-1.25-.56-1.25-1.25v-2.657a1.25 1.25 0 0 1 1.125-1.244v-.306a2.625 2.625 0 0 1 5.25 0m-4.875 3.957v-2.157h4.5v2.157h-4.5m2.25-5.082c-.621 0-1.125.503-1.125 1.124v.301h2.25v-.3c0-.622-.504-1.126-1.125-1.126M7.75 15.5a.75.75 0 0 0 0 1.5h3.5a.75.75 0 0 0 0-1.5zM7 12.764a.75.75 0 0 1 .75-.75h8.5a.75.75 0 0 1 0 1.5h-8.5a.75.75 0 0 1-.75-.75M7.75 8.5a.75.75 0 0 0 0 1.5h3.5a.75.75 0 0 0 0-1.5z"/></svg>