<svg xmlns="http://www.w3.org/2000/svg" width="24" height="24" viewBox="0 0 24 24"><path fill-rule="evenodd" d="M16.25 3a.75.75 0 0 1 .75.75V4h1.5A1.5 1.5 0 0 1 20 5.5v6.25a.75.75 0 0 1-1.5 0V9.5h-13v9h6.25a.75.75 0 0 1 0 1.5H5.5A1.5 1.5 0 0 1 4 18.5v-13A1.5 1.5 0 0 1 5.5 4H7v-.25a.75.75 0 0 1 1.5 0V4h7v-.25a.75.75 0 0 1 .75-.75M7 5.5v.75a.75.75 0 0 0 1.5 0V5.5h7v.75a.75.75 0 0 0 1.5 0V5.5h1.5V8h-13V5.5z"/><path fill-rule="evenodd" d="M14.5 18c0-.605.43-1.11 1-1.225v-.025a2.75 2.75 0 1 1 5.5 0v.025c.57.116 1 .62 1 1.225v2.75c0 .69-.56 1.25-1.25 1.25h-5c-.69 0-1.25-.56-1.25-1.25zm1.5 2.5v-2.25h4.5v2.25zm2.25-5c.69 0 1.25.56 1.25 1.25H17c0-.69.56-1.25 1.25-1.25"/></svg>