<svg xmlns="http://www.w3.org/2000/svg" width="16" height="16" viewBox="0 0 16 16"><path fill-rule="evenodd" d="M10.25 1a.75.75 0 0 1 .75.75V2h2a1 1 0 0 1 1 1v5.5a.75.75 0 0 1-1.5 0V7h-9v5.5h5.25a.75.75 0 0 1 0 1.5H3a1 1 0 0 1-1-1V3a1 1 0 0 1 1-1h2v-.25a.75.75 0 0 1 1.5 0V2h3v-.25a.75.75 0 0 1 .75-.75M5.043 3.5a.75.75 0 0 0 1.414 0h3.086a.75.75 0 0 0 1.414 0H12.5v2h-9v-2zM11.5 12h.02a1.5 1.5 0 0 1 2.96 0h.02a.5.5 0 0 1 .5.5v2a.5.5 0 0 1-.5.5h-3a.5.5 0 0 1-.5-.5v-2a.5.5 0 0 1 .5-.5m.5 2v-1h2v1zm1-2.25a.5.5 0 0 1 .433.25h-.866a.5.5 0 0 1 .433-.25"/></svg>