<svg xmlns="http://www.w3.org/2000/svg" width="16" height="16" viewBox="0 0 16 16"><path fill-rule="evenodd" d="M9.006 3.506v2.988a1.006 1.006 0 1 1-2.012 0V3.506a1.006 1.006 0 0 1 2.012 0m-3.512 0a2.506 2.506 0 0 1 5.012 0v2.988a2.506 2.506 0 0 1-5.012 0V3.506m-.754 3.79a.75.75 0 0 0-1.48.241c.365 2.248 2 3.768 3.993 4.073v1.89h-.836a.75.75 0 0 0 0 1.5h3.166a.75.75 0 0 0 0-1.5h-.83v-1.889c1.99-.296 3.63-1.77 3.988-4.08a.75.75 0 0 0-1.482-.229C10.975 9.141 9.604 10.167 8 10.167c-1.586 0-2.968-1.075-3.26-2.87"/></svg>