<svg xmlns="http://www.w3.org/2000/svg" width="16" height="16" viewBox="0 0 16 16"><path d="M2.249 1.19a.75.75 0 0 0-1.052 1.066l4.297 4.298A2.506 2.506 0 0 0 7.94 8.999l1.033 1.034a3.519 3.519 0 0 1-.973.134c-1.586 0-2.968-1.075-3.26-2.87a.75.75 0 0 0-1.48.24c.365 2.247 2 3.768 3.993 4.073v1.89h-.836a.75.75 0 0 0 0 1.5h3.166a.75.75 0 0 0 0-1.5h-.83v-1.889a4.808 4.808 0 0 0 1.378-.42l3.613 3.612a.75.75 0 0 0 1.066-1.052L2.25 1.19Zm9.755 8.34a5.14 5.14 0 0 0 .737-1.999.75.75 0 0 0-1.482-.229c-.065.42-.187.797-.354 1.129l1.099 1.099m-1.815-1.815c.202-.361.317-.778.317-1.221V3.506a2.506 2.506 0 0 0-4.973-.446l1.46 1.46V3.506a1.006 1.006 0 0 1 2.013 0v3.026z"/></svg>