<svg xmlns="http://www.w3.org/2000/svg" width="24" height="24" viewBox="0 0 24 24"><path fill-rule="evenodd" d="M3.866 2.873a.75.75 0 0 0-.879 1.194L8.5 9.58v1.92a3.5 3.5 0 0 0 5.056 3.136l.982.982A5.226 5.226 0 0 1 12 16.25c-2.692 0-4.75-1.969-4.75-4.25a.75.75 0 0 0-1.5 0c0 2.999 2.454 5.37 5.5 5.709v1.79h-2.5a.75.75 0 0 0 0 1.5h6.5a.75.75 0 0 0 0-1.5h-2.5v-1.79a6.63 6.63 0 0 0 2.878-1l4.298 4.298a.75.75 0 0 0 1.195-.879L3.866 2.873ZM10 11.5v-.42l2.383 2.383A2 2 0 0 1 10 11.5"/><path d="M17.641 14.527A5.45 5.45 0 0 0 18.25 12a.75.75 0 0 0-1.5 0c0 .487-.087.954-.248 1.388l1.14 1.139m-2.232-2.232a3.53 3.53 0 0 0 .09-.795v-5a3.5 3.5 0 0 0-6.862-.976L10 6.886V6.5a2 2 0 1 1 4 0v4.386z"/></svg>