<svg xmlns="http://www.w3.org/2000/svg" width="32" height="32" viewBox="0 0 32 32"><path fill-rule="evenodd" d="M5.374 3.986A1 1 0 0 0 4.037 5.47L11 12.433V14a5 5 0 0 0 6.375 4.808l1.57 1.57A7.166 7.166 0 0 1 16 21a7 7 0 0 1-7-7 1 1 0 1 0-2 0 9 9 0 0 0 8 8.945V26h-3a1 1 0 1 0 0 2h8a1 1 0 1 0 0-2h-3v-3.053a9.052 9.052 0 0 0 3.433-1.08l6.13 6.128a1 1 0 0 0 1.483-1.337L5.374 3.986Zm10.157 12.978a3.002 3.002 0 0 1-2.495-2.495l2.495 2.495"/><path d="M23.403 19.187C24.41 17.74 25 15.963 25 14a1 1 0 1 0-2 0c0 1.4-.38 2.675-1.041 3.742zm-2.937-2.937A4.98 4.98 0 0 0 21 14V8a5 5 0 0 0-9.88-1.096L13 8.784V8a3 3 0 1 1 6 0v6c0 .242-.029.476-.082.701z"/></svg>