<svg xmlns="http://www.w3.org/2000/svg" width="32" height="32" viewBox="0 0 32 32"><path fill-rule="evenodd" d="M16.707 5.293a1 1 0 0 0-1.414 0l-3 3a1 1 0 0 0 1.414 1.414L15 8.414V15H8.414l1.293-1.293a1 1 0 0 0-1.414-1.414l-3 3a1 1 0 0 0 0 1.414l3 3a1 1 0 0 0 1.414-1.414L8.414 17H15v6.586l-1.293-1.293a1 1 0 1 0-1.414 1.414l3 3a1 1 0 0 0 1.414 0l3-3a1 1 0 1 0-1.414-1.414L17 23.586V17h6.586l-1.293 1.293a1 1 0 0 0 1.414 1.414l3-3a1 1 0 0 0 0-1.414l-3-3a1 1 0 0 0-1.414 1.414L23.586 15H17V8.414l1.293 1.293a1 1 0 1 0 1.414-1.414l-3-3"/></svg>