<svg xmlns="http://www.w3.org/2000/svg" width="16" height="16" fill="none" viewBox="0 0 16 16"><path fill="currentColor" fill-rule="evenodd" d="M8.354 1.646a.5.5 0 0 0-.708 0l-1.8 1.8a.5.5 0 1 0 .708.708l.946-.947V7.5H3.207l.947-.946a.5.5 0 1 0-.707-.708l-1.8 1.8a.5.5 0 0 0 0 .708l1.8 1.8a.5.5 0 0 0 .707-.708L3.207 8.5H7.5v4.293l-.946-.946a.5.5 0 0 0-.708.707l1.8 1.8a.5.5 0 0 0 .708 0l1.8-1.8a.5.5 0 0 0-.708-.707l-.946.946V8.5h4.293l-.946.946a.5.5 0 0 0 .707.707l1.8-1.8a.5.5 0 0 0 0-.707l-1.8-1.8a.5.5 0 0 0-.707.708l.946.946H8.5V3.207l.946.947a.5.5 0 0 0 .708-.707l-1.8-1.8"/></svg>