<svg xmlns="http://www.w3.org/2000/svg" width="16" height="16" fill="none" viewBox="0 0 16 16"><path fill="#3B57FF" d="M13 5a2 2 0 1 0 0-4 2 2 0 0 0 0 4"/><path fill="currentColor" fill-rule="evenodd" d="M4.442 6.112c0-2 1.6-3.607 3.558-3.607v-1.5c-2.802 0-5.058 2.295-5.058 5.107 0 3.63-.721 4.87-1.024 5.295-.16.225-.338.646-.105 1.08.228.422.665.513.933.513h2.478C5.57 14.178 6.713 15 8 15c1.287 0 2.43-.822 2.776-2h2.478c.243 0 .707-.075.934-.527.224-.446.015-.86-.124-1.055-.301-.42-1.006-1.695-1.006-5.306h-1.5c0 2.81.406 4.428.838 5.388H3.587c.436-.947.855-2.55.855-5.388M9.105 13h-2.21c.245.297.635.5 1.105.5s.86-.203 1.105-.5"/></svg>