<svg xmlns="http://www.w3.org/2000/svg" width="32" height="32" viewBox="0 0 32 32"><path fill-rule="evenodd" d="M15.996 4a1 1 0 0 1 1 1v2a1 1 0 1 1-2 0V5a1 1 0 0 1 1-1m-4.044 12.088a4.044 4.044 0 1 1 6.452 3.25c-.489.363-.886.964-.886 1.696v.627h-3.044v-.627c0-.733-.396-1.333-.886-1.696a4.04 4.04 0 0 1-1.636-3.25m4.044-6.045a6.044 6.044 0 0 0-3.6 10.9.24.24 0 0 1 .07.076l.008.017v.625a2 2 0 0 0 2 2h3.044a2 2 0 0 0 2-2v-.625l.008-.017a.3.3 0 0 1 .07-.075 6.044 6.044 0 0 0-3.6-10.9M13.474 26a1 1 0 1 0 0 2h5.044a1 1 0 1 0 0-2zM7 16.992a1 1 0 1 0 0-2H5a1 1 0 1 0 0 2zm20.99-1a1 1 0 0 1-1 1h-2a1 1 0 1 1 0-2h2a1 1 0 0 1 1 1M8.506 7.97a1 1 0 0 0-1.414 1.414l1.414 1.414a1 1 0 0 0 1.415-1.414z"/><path fill="#3B57FF" d="M25 11a4 4 0 1 0 0-8 4 4 0 0 0 0 8"/></svg>