<svg xmlns="http://www.w3.org/2000/svg" width="32" height="32" viewBox="0 0 32 32"><path fill-rule="evenodd" d="M16 6C10.477 6 6 10.477 6 16s4.477 10 10 10h9.656l-2.068-2.068a1 1 0 0 1-.047-1.364A9.957 9.957 0 0 0 26 16c0-.998-.146-1.961-.417-2.869a1 1 0 0 1 1.916-.572A12 12 0 0 1 28 16c0 2.68-.88 5.155-2.363 7.152l3.14 3.14A1 1 0 0 1 28.07 28H16C9.373 28 4 22.627 4 16S9.373 4 16 4c1.133 0 2.23.157 3.272.452a1 1 0 1 1-.544 1.924A10.007 10.007 0 0 0 16 6"/><path fill="#3B57FF" d="M25 11a4 4 0 1 0 0-8 4 4 0 0 0 0 8"/></svg>