<svg xmlns="http://www.w3.org/2000/svg" width="24" height="24" viewBox="0 0 24 24"><path fill-rule="evenodd" d="M11.25 8.25a.75.75 0 0 0 1.5 0V6.5h1.5a.75.75 0 0 0 0-1.5h-1.5V3.25a.75.75 0 0 0-1.5 0V5H3.748a.75.75 0 0 0 0 1.5h7.502zm-7.502 3a.75.75 0 0 0 0 1.5h12.755v1.75a.75.75 0 0 0 1.5 0v-1.75h2.25a.75.75 0 0 0 0-1.5h-2.25V9.5a.75.75 0 0 0-1.5 0v1.75H3.748m-.75 7a.75.75 0 0 1 .75-.75H5v-1.75a.75.75 0 0 1 1.5 0v1.75h13.752a.75.75 0 0 1 0 1.5H6.5v1.75a.75.75 0 0 1-1.5 0V19H3.748a.75.75 0 0 1-.75-.75"/><path fill="#3B57FF" d="M19 8a3 3 0 1 0 0-6 3 3 0 0 0 0 6"/></svg>