<svg xmlns="http://www.w3.org/2000/svg" width="32" height="32" viewBox="0 0 32 32"><path fill="var(--hop-Icon-primary-icon, #3B57FF)" d="M25 11a4 4 0 1 0 0-8 4 4 0 0 0 0 8"/><path fill-rule="evenodd" d="M9.2 12.888C9.2 9.073 12.257 6 16 6a1 1 0 1 0 0-2c-4.87 0-8.8 3.99-8.8 8.888 0 3.71-.413 6.068-.88 7.572-.459 1.479-.977 2.156-1.253 2.505-.248.312-.453.869-.13 1.418.292.492.807.617 1.146.617h6.043a4.002 4.002 0 0 0 7.748 0h6.043c.301 0 .863-.1 1.154-.649.313-.587.03-1.13-.18-1.384-.493-.596-2.091-2.732-2.091-10.079a1 1 0 1 0-2 0c0 5.623.903 8.54 1.73 10.112H7.432c.265-.491.543-1.125.799-1.947.542-1.746.97-4.315.97-8.165M17.734 25h-3.465a2 2 0 0 0 3.465 0"/></svg>