<svg xmlns="http://www.w3.org/2000/svg" width="24" height="24" viewBox="0 0 24 24"><path fill="#3B57FF" d="M19 8a3 3 0 1 0 0-6 3 3 0 0 0 0 6"/><path fill-rule="evenodd" d="M7.207 9.359c0-2.69 2.154-4.857 4.793-4.857a.75.75 0 0 0 0-1.5c-3.484 0-6.293 2.854-6.293 6.357 0 4.95-1.036 6.517-1.43 7.036-.18.238-.356.669-.113 1.105.229.41.657.506.932.506H8.48a3.568 3.568 0 0 0 7.042 0h3.383c.25 0 .708-.08.934-.525.231-.454.014-.875-.142-1.077-.391-.508-1.402-2.123-1.402-7.045a.75.75 0 1 0-1.5 0c0 3.924.617 6.003 1.204 7.147H5.976c.59-1.124 1.23-3.177 1.23-7.147M12 19.502a2.068 2.068 0 0 1-1.927-1.317h3.854c-.3.77-1.05 1.317-1.927 1.317"/></svg>