<svg xmlns="http://www.w3.org/2000/svg" width="24" height="24" fill="none" viewBox="0 0 24 24"><path fill="currentColor" fill-rule="evenodd" d="M16.235 7.828a.75.75 0 0 1-.423 1.37H5.126v1.676h13.748v-.838a.75.75 0 0 1 1.5 0v.838a1.5 1.5 0 0 1-1.27 1.483v6.141a1.5 1.5 0 0 1-1.5 1.5H6.396a1.5 1.5 0 0 1-1.5-1.5v-6.141a1.5 1.5 0 0 1-1.27-1.483V9.197a1.5 1.5 0 0 1 1.5-1.5h2.37C6.76 7 6.47 5.906 7.013 4.96c.665-1.158 2.176-1.4 3.295-.793.34.185.661.522.916.826.27.321.54.695.775 1.043a12.7 12.7 0 0 1 .775-1.044c.255-.303.575-.64.916-.825a.772.772 0 0 1 1.033.293.728.728 0 0 1-.285 1.008c-.075.04-.244.185-.49.477a11.439 11.439 0 0 0-.799 1.096l.202-.005c.406-.01.822-.035 1.177-.082.385-.05.6-.113.675-.154a.772.772 0 0 1 1.033.293.729.729 0 0 1-.002.736M8.333 5.674c-.17.297-.081.83.463 1.125.075.04.29.105.674.155a12.073 12.073 0 0 0 1.38.086l-.11-.165a11.26 11.26 0 0 0-.69-.931c-.245-.292-.414-.437-.489-.477-.544-.295-1.058-.09-1.228.207m4.417 6.7h4.854v6.124H12.75v-6.124m-6.354 0h4.854v6.124H6.396v-6.124"/><path fill="#3B57FF" d="M19 8a3 3 0 1 0 0-6 3 3 0 0 0 0 6"/></svg>