<svg xmlns="http://www.w3.org/2000/svg" width="24" height="24" viewBox="0 0 24 24"><path fill-rule="evenodd" d="M11.948 4.5a7.5 7.5 0 0 0 0 15h7.241l-1.55-1.551a.75.75 0 0 1-.036-1.023A7.468 7.468 0 0 0 19.448 12a7.51 7.51 0 0 0-.262-1.972.75.75 0 1 1 1.447-.393c.205.754.315 1.547.315 2.365 0 2.01-.66 3.866-1.773 5.364l2.355 2.356A.75.75 0 0 1 21 21h-9.052a9 9 0 1 1 2.461-17.659.75.75 0 1 1-.41 1.443 7.506 7.506 0 0 0-2.052-.284"/><path fill="#3B57FF" d="M19 8a3 3 0 1 0 0-6 3 3 0 0 0 0 6"/></svg>