<svg xmlns="http://www.w3.org/2000/svg" width="16" height="16" viewBox="0 0 16 16"><path fill-rule="evenodd" d="M8 .999a.75.75 0 0 1 .75.75v1.25a.75.75 0 1 1-1.5 0v-1.25A.75.75 0 0 1 8 .999M5.914 8.016a2.086 2.086 0 1 1 3.128 1.807.75.75 0 0 0-.374.65v.754H7.332v-.755a.75.75 0 0 0-.374-.649 2.08 2.08 0 0 1-1.044-1.807M8 4.431a3.586 3.586 0 0 0-2.168 6.441v1.105c0 .414.336.75.75.75h2.836a.75.75 0 0 0 .75-.75v-1.105A3.586 3.586 0 0 0 8 4.43M6.632 13.5a.75.75 0 0 0 0 1.5h2.736a.75.75 0 0 0 0-1.5zM3 7.252a.75.75 0 0 1 0 1.5H1.75a.75.75 0 0 1 0-1.5zm12.003.75a.75.75 0 0 0-.75-.75h-1.25a.75.75 0 0 0 0 1.5h1.25a.75.75 0 0 0 .75-.75M4.017 3.155a.75.75 0 0 0-1.06 1.06l.884.884A.75.75 0 1 0 4.9 4.04z"/><path fill="#3B57FF" d="M13.246 4.974a2 2 0 1 0 0-4 2 2 0 0 0 0 4"/></svg>