<svg xmlns="http://www.w3.org/2000/svg" width="16" height="16" viewBox="0 0 16 16"><path fill-rule="evenodd" d="M5.553 3.864c.035.101.12.212.26.288a.733.733 0 0 0 .107.033c.078.02.178.037.3.053.165.022.35.036.542.046a6.752 6.752 0 0 0-.324-.424 2.657 2.657 0 0 0-.205-.22.703.703 0 0 0-.084-.072.57.57 0 0 0-.39-.064c-.106.024-.166.076-.197.13-.03.053-.044.13-.01.23M8 3.412a7.9 7.9 0 0 1 .388-.504c.184-.22.435-.488.717-.64a.772.772 0 0 1 1.032.292c.207.36.079.81-.286 1.008-.005.004-.033.023-.084.071a2.657 2.657 0 0 0-.205.22 7.213 7.213 0 0 0-.324.425 7.13 7.13 0 0 0 .542-.046 2.78 2.78 0 0 0 .3-.053.73.73 0 0 0 .107-.033.772.772 0 0 1 1.033.293.73.73 0 0 1 .069.573.75.75 0 0 1-.56 1.249H3.293v.774h9.414v-.387a.75.75 0 0 1 1.5 0v.637a1.25 1.25 0 0 1-.91 1.203v4.254c0 .69-.559 1.25-1.25 1.25H3.953c-.69 0-1.25-.56-1.25-1.25V8.494a1.25 1.25 0 0 1-.91-1.203V6.017c0-.69.56-1.25 1.25-1.25h1.279c-.35-.536-.435-1.226-.077-1.85.546-.95 1.77-1.128 2.651-.65.282.153.533.422.717.64.133.159.265.332.388.505M4.202 8.541v3.957H7.25V8.54H4.202m4.548 0v3.957h3.048V8.54z"/><path fill="#3B57FF" d="M13 5a2 2 0 1 0 0-4 2 2 0 0 0 0 4"/></svg>