<svg xmlns="http://www.w3.org/2000/svg" width="24" height="24" viewBox="0 0 24 24"><path fill-rule="evenodd" d="M12.001 3.008a.75.75 0 0 1 .75.75v1.57a.75.75 0 0 1-1.5 0v-1.57a.75.75 0 0 1 .75-.75m-3.032 9.064a3.032 3.032 0 1 1 4.837 2.436c-.366.272-.664.723-.664 1.272v.47H10.86v-.47c0-.55-.297-1-.664-1.272a3.03 3.03 0 0 1-1.227-2.436m3.032-4.533a4.532 4.532 0 0 0-2.7 8.173.2.2 0 0 1 .053.057l.006.012v.469a1.5 1.5 0 0 0 1.5 1.5h2.282a1.5 1.5 0 0 0 1.5-1.5v-.468l.006-.013a.2.2 0 0 1 .052-.057A4.532 4.532 0 0 0 12 7.54m-1.89 11.963a.75.75 0 1 0 0 1.5h3.782a.75.75 0 0 0 0-1.5zM5.327 11.25a.75.75 0 0 1 0 1.5h-1.57a.75.75 0 0 1 0-1.5zm15.667.75a.75.75 0 0 0-.75-.75h-1.57a.75.75 0 0 0 0 1.5h1.57a.75.75 0 0 0 .75-.75M6.385 5.984a.75.75 0 0 0-1.06 1.06l1.11 1.11a.75.75 0 0 0 1.06-1.06z"/><path fill="#3B57FF" d="M19 8a3 3 0 1 0 0-6 3 3 0 0 0 0 6"/></svg>