<svg xmlns="http://www.w3.org/2000/svg" width="32" height="32" viewBox="0 0 32 32"><path fill-rule="evenodd" d="M16 8.383a16 16 0 0 1 .841-1.185c.302-.378.693-.815 1.119-1.059a.974.974 0 0 1 1.345.381c.264.486.09 1.101-.39 1.376-.064.037-.251.2-.54.563a14 14 0 0 0-.808 1.15l-.057.091.105-.003c.478-.013.964-.044 1.378-.1.454-.062.687-.14.752-.177a.974.974 0 0 1 1.346.381c.164.303.159.656.015.945a.998.998 0 0 1-.606 1.796H8V14.5h16v-.98a1 1 0 0 1 2 0v1.23a1.75 1.75 0 0 1-1.5 1.732v7.768A1.75 1.75 0 0 1 22.75 26H9.25a1.75 1.75 0 0 1-1.75-1.75v-7.768A1.75 1.75 0 0 1 6 14.75v-2.458c0-.967.783-1.75 1.75-1.75h2.76c-.822-.907-1.111-2.248-.485-3.399.797-1.465 2.631-1.796 4.015-1.004.426.244.817.68 1.119 1.06.292.366.582.786.84 1.184m-4.24-.246c-.188.347-.084.951.495 1.283.065.037.298.115.752.177.414.056.9.087 1.378.1l.105.003-.058-.09c-.261-.41-.542-.819-.806-1.15-.29-.364-.477-.527-.542-.564-.579-.332-1.135-.105-1.324.241M9.5 16.5V24H15v-7.5zm7.5 0V24h5.5v-7.5z"/><path fill="#3B57FF" d="M25 11a4 4 0 1 0 0-8 4 4 0 0 0 0 8"/></svg>