<svg xmlns="http://www.w3.org/2000/svg" width="16" height="16" viewBox="0 0 16 16"><path d="M7.46 5.223a.75.75 0 0 1 1.061 0l2.19 2.19a.75.75 0 0 1 .06 1.129l-2.246 2.246a.75.75 0 0 1-1.06-1.061l.973-.973H5.75a.75.75 0 0 1 0-1.5h2.68l-.97-.97a.75.75 0 0 1 0-1.06"/><path fill-rule="evenodd" d="M6.5 1.75a.75.75 0 0 0-1.5 0V2H3a1 1 0 0 0-1 1v10a1 1 0 0 0 1 1h10a1 1 0 0 0 1-1V3a1 1 0 0 0-1-1h-2v-.25a.75.75 0 1 0-1.5 0V2h-3zM10.25 4a.75.75 0 0 1-.707-.5H6.457a.75.75 0 0 1-1.414 0H3.5v9h9v-9h-1.542a.75.75 0 0 1-.708.5"/></svg>