<svg xmlns="http://www.w3.org/2000/svg" width="24" height="24" viewBox="0 0 24 24"><path fill-rule="evenodd" d="M7.753 2.5a.75.75 0 0 1 .75.75V4H15.5v-.75a.75.75 0 0 1 1.5 0V4h1.5A1.5 1.5 0 0 1 20 5.5v13a1.5 1.5 0 0 1-1.5 1.5h-13A1.5 1.5 0 0 1 4 18.5v-13A1.5 1.5 0 0 1 5.5 4h1.503v-.75a.75.75 0 0 1 .75-.75m7.747 3v.75a.75.75 0 0 0 1.5 0V5.5h1.5v13h-13v-13h1.503v.75a.75.75 0 0 0 1.5 0V5.5z"/><path d="M12.226 9.212a.82.82 0 0 1 1.098 0l2.45 2.279a.7.7 0 0 1 .226.515 1 1 0 0 1-.002.123.7.7 0 0 1-.226.475l-2.347 2.183a.82.82 0 0 1-1.098 0 .69.69 0 0 1 0-1.022l1.034-.961H8.756a.75.75 0 0 1 0-1.5h4.62l-1.15-1.07a.69.69 0 0 1 0-1.022"/></svg>