<svg xmlns="http://www.w3.org/2000/svg" width="24" height="24" viewBox="0 0 24 24"><path fill-rule="evenodd" d="M5.5 18.5h13v-8.497h-2.994a1.5 1.5 0 0 1-1.5-1.5V5.5H5.5zM15.506 5.628l2.875 2.875h-2.875zM18.5 20h-13A1.5 1.5 0 0 1 4 18.5v-13A1.5 1.5 0 0 1 5.5 4h9.878a1.5 1.5 0 0 1 1.061.44l3.122 3.12A1.5 1.5 0 0 1 20 8.622V18.5a1.5 1.5 0 0 1-1.5 1.5M7.75 15.5a.75.75 0 0 0 0 1.5h8.5a.75.75 0 0 0 0-1.5zM7 12.764a.75.75 0 0 1 .75-.75h8.5a.75.75 0 0 1 0 1.5h-8.5a.75.75 0 0 1-.75-.75M7.75 8.5a.75.75 0 0 0 0 1.5h3.5a.75.75 0 0 0 0-1.5z"/></svg>