<svg xmlns="http://www.w3.org/2000/svg" width="32" height="32" viewBox="0 0 32 32"><path fill-rule="evenodd" d="M9.2 12.888C9.2 9.073 12.257 6 16 6c3.745 0 6.8 3.073 6.8 6.888 0 5.623.903 8.54 1.73 10.112H7.432c.265-.491.543-1.125.799-1.947.542-1.746.97-4.315.97-8.165M12.127 25H6.083c-.34 0-.854-.125-1.145-.617-.324-.55-.119-1.106.129-1.418.276-.35.794-1.026 1.254-2.505.466-1.504.88-3.863.88-7.572C7.2 7.99 11.13 4 16 4s8.799 3.99 8.799 8.888c0 7.347 1.598 9.483 2.091 10.079.21.253.493.797.18 1.384-.29.548-.853.649-1.154.649h-6.043a4.002 4.002 0 0 1-7.748 0m2.142 0a2 2 0 0 0 3.465 0z"/></svg>