<svg xmlns="http://www.w3.org/2000/svg" width="32" height="32" viewBox="0 0 32 32"><path fill-rule="evenodd" d="M10.327 3.756a1 1 0 0 1 1 1V6h9.31V4.756a1 1 0 1 1 2 0V6H26a2 2 0 0 1 2 2v16a2 2 0 0 1-2 2H6a2 2 0 0 1-2-2V8a2 2 0 0 1 2-2h3.327V4.756a1 1 0 0 1 1-1M20.637 8v.756a1 1 0 1 0 2 0V8H26v16H6V8h3.327v.756a1 1 0 1 0 2 0V8zm-8.131 3.86a1 1 0 0 1 .494.862V21a1 1 0 1 1-2 0v-6.572l-1.468.822a1 1 0 0 1-.977-1.745l2.956-1.656a1 1 0 0 1 .995.01M23 12.721a1 1 0 0 0-1.489-.873l-2.956 1.656a1 1 0 0 0 .977 1.745L21 14.428V21a1 1 0 1 0 2 0zm-5.818 1.97a1.183 1.183 0 1 1-2.365 0 1.183 1.183 0 0 1 2.365 0M16 20.607a1.183 1.183 0 1 0 0-2.366 1.183 1.183 0 0 0 0 2.366"/></svg>