<svg xmlns="http://www.w3.org/2000/svg" width="16" height="16" viewBox="0 0 16 16"><path fill-rule="evenodd" d="M4.997.75a.75.75 0 0 1 .75.75V2h4.995v-.5a.75.75 0 0 1 1.5 0V2h2.005a1 1 0 0 1 1 1v10a1 1 0 0 1-1 1h-12a1 1 0 0 1-1-1V3a1 1 0 0 1 1-1h2v-.5a.75.75 0 0 1 .75-.75m5.745 2.75V4a.75.75 0 0 0 1.5 0v-.5h1.505v9h-11v-9h1.5V4a.75.75 0 0 0 1.5 0v-.5zM6.479 5.696c.23.135.37.38.37.647v4.314a.75.75 0 0 1-1.5 0V7.623l-.231.13a.75.75 0 1 1-.733-1.31l1.348-.754a.75.75 0 0 1 .746.007m5.763.647a.75.75 0 0 0-1.117-.654l-1.348.755a.75.75 0 1 0 .733 1.308l.232-.13v3.035a.75.75 0 1 0 1.5 0zM8.796 7.421a.54.54 0 1 1-1.079 0 .54.54 0 0 1 1.079 0m-.54 2.697a.54.54 0 1 0 0-1.079.54.54 0 0 0 0 1.079"/></svg>