<svg xmlns="http://www.w3.org/2000/svg" width="24" height="24" viewBox="0 0 24 24"><path fill-rule="evenodd" d="M7.753 3.001a.75.75 0 0 1 .75.75V5H15.5V3.751a.75.75 0 0 1 1.5 0V5h2.5A1.5 1.5 0 0 1 21 6.5v11a1.5 1.5 0 0 1-1.5 1.5h-15A1.5 1.5 0 0 1 3 17.5v-11A1.5 1.5 0 0 1 4.5 5h2.503V3.751a.75.75 0 0 1 .75-.75M15.5 6.5v.251a.75.75 0 0 0 1.5 0V6.5h2.5v11h-15v-11h2.503v.251a.75.75 0 0 0 1.5 0V6.5zM9.335 9.136a.75.75 0 0 1 .37.648v5.467a.75.75 0 0 1-1.5 0v-4.188l-.836.468a.75.75 0 1 1-.733-1.308L8.59 9.129a.75.75 0 0 1 .746.007m7.886.648a.75.75 0 0 0-1.117-.655l-1.953 1.094a.75.75 0 0 0 .733 1.308l.837-.468v4.188a.75.75 0 0 0 1.5 0zm-4.703 1.301a.781.781 0 1 1-1.562 0 .781.781 0 0 1 1.562 0m-.781 3.906a.781.781 0 1 0 0-1.562.781.781 0 0 0 0 1.562"/></svg>