<svg xmlns="http://www.w3.org/2000/svg" width="32" height="32" fill="none" viewBox="0 0 32 32"><path fill="currentColor" fill-rule="evenodd" d="M26 16c0 5.523-4.477 10-10 10S6 21.523 6 16 10.477 6 16 6s10 4.477 10 10m2 0c0 6.627-5.373 12-12 12S4 22.627 4 16 9.373 4 16 4s12 5.373 12 12m-16.75-1.5a1.25 1.25 0 1 0 0-2.5 1.25 1.25 0 0 0 0 2.5M22 13.25a1.25 1.25 0 1 1-2.5 0 1.25 1.25 0 0 1 2.5 0M9 16a1 1 0 0 0-.987 1.163C8.653 21.033 11.975 24 16 24s7.347-2.967 7.987-6.837A1 1 0 0 0 23 16zm7 6c-2.598 0-4.829-1.656-5.703-4h11.406c-.874 2.344-3.105 4-5.703 4"/></svg>