<svg xmlns="http://www.w3.org/2000/svg" width="16" height="16" viewBox="0 0 16 16"><path fill-rule="evenodd" d="M4.75 3.25a.75.75 0 0 1 .75-.75h8.75a.75.75 0 0 1 0 1.5H5.5a.75.75 0 0 1-.75-.75m0 4.75a.75.75 0 0 1 .75-.75h8.75a.75.75 0 0 1 0 1.5H5.5A.75.75 0 0 1 4.75 8m0 4.75A.75.75 0 0 1 5.5 12h8.75a.75.75 0 0 1 0 1.5H5.5a.75.75 0 0 1-.75-.75M2.13 1.99c.208 0 .376.168.376.375v2.254a.375.375 0 0 1-.75 0V2.365c0-.207.168-.375.375-.375m-.297 5.384a.466.466 0 0 0-.08.25.375.375 0 0 1-.75 0c0-.185.052-.454.22-.688.183-.253.484-.438.906-.438.423 0 .723.185.906.438.168.234.22.503.22.688 0 .311-.152.581-.316.786a2.764 2.764 0 0 1-.331.342h.273a.375.375 0 1 1 0 .75H1.379a.375.375 0 0 1-.168-.71m0 0 .002-.001.01-.006a3.405 3.405 0 0 0 .202-.11c.133-.078.307-.188.48-.317a2.52 2.52 0 0 0 .449-.416c.118-.147.153-.253.153-.318a.466.466 0 0 0-.08-.25c-.043-.06-.118-.126-.297-.126-.178 0-.253.066-.296.126m.142 4.382H1.38a.375.375 0 0 1 0-.75h1.5a.376.376 0 0 1 .266.64l-.33.33c.093.066.184.152.26.265.115.174.18.39.18.643 0 .248-.06.46-.169.634a1.002 1.002 0 0 1-.392.356 1.278 1.278 0 0 1-.565.136c-.485 0-.798-.19-.97-.448a.95.95 0 0 1-.157-.467v-.022l.375-.001h-.375a.375.375 0 0 1 .75-.01.202.202 0 0 0 .031.084c.016.023.079.114.345.114a.531.531 0 0 0 .222-.052.252.252 0 0 0 .102-.09.428.428 0 0 0 .053-.234.394.394 0 0 0-.055-.226.285.285 0 0 0-.114-.096.553.553 0 0 0-.202-.054h-.01.003"/></svg>