<svg xmlns="http://www.w3.org/2000/svg" width="32" height="32" fill="none" viewBox="0 0 32 32"><path fill="currentColor" fill-rule="evenodd" d="M9.498 8a1 1 0 0 1 1-1H27a1 1 0 0 1 0 2H10.498a1 1 0 0 1-1-1m0 8a1 1 0 0 1 1-1H27a1 1 0 0 1 0 2H10.498a1 1 0 0 1-1-1m0 8a1 1 0 0 1 1-1H27a1 1 0 0 1 0 2H10.498a1 1 0 0 1-1-1M4 21.555a.75.75 0 0 1 .75-.75h2.966a.75.75 0 0 1 .526 1.284l-1.43 1.41A.75.75 0 0 1 5.76 22.43l.127-.125H4.75a.75.75 0 0 1-.75-.75"/><path fill="currentColor" fill-rule="evenodd" d="M5.543 22.964a.75.75 0 0 1 .75-.75c1.209 0 2.207.968 2.207 2.186 0 1.217-.998 2.185-2.207 2.185a2.204 2.204 0 0 1-2.12-1.58.75.75 0 1 1 1.44-.419.704.704 0 0 0 .68.5A.697.697 0 0 0 7 24.4a.696.696 0 0 0-.707-.686.75.75 0 0 1-.75-.75M6 5.333c.368 0 .667.299.667.667v4a.667.667 0 0 1-1.334 0V6c0-.368.299-.667.667-.667m-.526 9.557a.826.826 0 0 0-.14.443.667.667 0 0 1-1.334 0c0-.329.093-.807.392-1.223.324-.45.858-.777 1.608-.777.75 0 1.284.328 1.608.777.299.416.392.894.392 1.223 0 .552-.271 1.031-.563 1.396-.174.217-.376.42-.585.604h.481a.667.667 0 1 1 0 1.334H4.667a.667.667 0 0 1-.299-1.263l.004-.002.019-.01.076-.04a9.078 9.078 0 0 0 1.133-.719c.31-.233.595-.486.796-.737.209-.26.27-.448.27-.563a.825.825 0 0 0-.14-.444c-.077-.106-.21-.222-.526-.222-.316 0-.45.116-.526.223m-1.106 2.514.299.596-.299-.596"/></svg>