<svg xmlns="http://www.w3.org/2000/svg" width="24" height="24" viewBox="0 0 24 24"><path fill-rule="evenodd" d="M7.005 6.252a.75.75 0 0 1 .75-.75h12.499a.75.75 0 0 1 0 1.5H7.755a.75.75 0 0 1-.75-.75m0 5.748a.75.75 0 0 1 .75-.75h12.499a.75.75 0 0 1 0 1.5H7.755a.75.75 0 0 1-.75-.75m0 5.746a.75.75 0 0 1 .75-.75h12.499a.75.75 0 0 1 0 1.5H7.755a.75.75 0 0 1-.75-.75M4.5 4a.5.5 0 0 1 .5.5v3a.5.5 0 0 1-1 0v-3a.5.5 0 0 1 .5-.5m-.394 7.167A.619.619 0 0 0 4 11.5a.5.5 0 0 1-1 0c0-.247.07-.606.294-.917.243-.337.643-.583 1.206-.583s.963.246 1.206.583c.224.311.294.67.294.917 0 .414-.203.773-.422 1.047-.13.163-.282.315-.439.453H5.5a.5.5 0 0 1 0 1h-2a.5.5 0 0 1-.224-.947l.003-.002.014-.007a4.473 4.473 0 0 0 .268-.148c.176-.103.41-.248.64-.421.232-.175.445-.364.596-.553.156-.195.203-.336.203-.422a.619.619 0 0 0-.106-.333C4.837 11.087 4.737 11 4.5 11c-.237 0-.337.088-.394.167M3 16.455a.5.5 0 0 1 .5-.5h2.11a.5.5 0 0 1 .354.853l-1.018 1.018a.5.5 0 1 1-.707-.707l.164-.164H3.5a.5.5 0 0 1-.5-.5"/><path fill-rule="evenodd" d="M4.098 17.472a.5.5 0 0 1 .5-.5 1.536 1.536 0 1 1-1.477 1.96.5.5 0 1 1 .961-.275.537.537 0 1 0 .516-.685.5.5 0 0 1-.5-.5"/></svg>