<svg xmlns="http://www.w3.org/2000/svg" width="32" height="32" viewBox="0 0 32 32"><path fill-rule="evenodd" d="M7 18a2 2 0 0 1 2-2h14a2 2 0 0 1 2 2v3h-2v-3H9v3H7z"/><path fill-rule="evenodd" d="M14.5 22v2h3v-2zm-1-2a1 1 0 0 0-1 1v4a1 1 0 0 0 1 1h5a1 1 0 0 0 1-1v-4a1 1 0 0 0-1-1zM6 22v2h3v-2zm-1-2a1 1 0 0 0-1 1v4a1 1 0 0 0 1 1h5a1 1 0 0 0 1-1v-4a1 1 0 0 0-1-1zm18 2v2h3v-2zm-1-2a1 1 0 0 0-1 1v4a1 1 0 0 0 1 1h5a1 1 0 0 0 1-1v-4a1 1 0 0 0-1-1zM10 8v4h12V8zM9 6a1 1 0 0 0-1 1v6a1 1 0 0 0 1 1h14a1 1 0 0 0 1-1V7a1 1 0 0 0-1-1z"/><path fill-rule="evenodd" d="M17 13v9h-2v-9z"/></svg>