<svg xmlns="http://www.w3.org/2000/svg" width="16" height="16" viewBox="0 0 16 16"><path fill-rule="evenodd" d="M8.75 6.25v4.5h-1.5v-4.5z"/><path fill-rule="evenodd" d="M4.5 3.5v2h7v-2zM4 2a1 1 0 0 0-1 1v3a1 1 0 0 0 1 1h8a1 1 0 0 0 1-1V3a1 1 0 0 0-1-1zm-1.5 9.5v1h1v-1zM2 10a1 1 0 0 0-1 1v2a1 1 0 0 0 1 1h2a1 1 0 0 0 1-1v-2a1 1 0 0 0-1-1zm10.5 1.5v1h1v-1zM12 10a1 1 0 0 0-1 1v2a1 1 0 0 0 1 1h2a1 1 0 0 0 1-1v-2a1 1 0 0 0-1-1zm-4.5 1.5v1h1v-1zM7 10a1 1 0 0 0-1 1v2a1 1 0 0 0 1 1h2a1 1 0 0 0 1-1v-2a1 1 0 0 0-1-1z"/><path fill-rule="evenodd" d="M2.25 9.5c0-.966.784-1.75 1.75-1.75h8c.966 0 1.75.784 1.75 1.75v1h-1.5v-1a.25.25 0 0 0-.25-.25H4a.25.25 0 0 0-.25.25v1h-1.5z"/></svg>