<svg xmlns="http://www.w3.org/2000/svg" width="24" height="24" viewBox="0 0 24 24"><path fill-rule="evenodd" d="M12.75 10.25v5.5h-1.5v-5.5z"/><path fill-rule="evenodd" d="M7 6.5v3h10v-3zM6.5 5a1 1 0 0 0-1 1v4a1 1 0 0 0 1 1h11a1 1 0 0 0 1-1V6a1 1 0 0 0-1-1zm-2 11.5v1h2v-1zM4 15a1 1 0 0 0-1 1v2a1 1 0 0 0 1 1h3a1 1 0 0 0 1-1v-2a1 1 0 0 0-1-1zm13.5 1.5v1h2v-1zM17 15a1 1 0 0 0-1 1v2a1 1 0 0 0 1 1h3a1 1 0 0 0 1-1v-2a1 1 0 0 0-1-1zm-6 1.5v1h2v-1zm-.5-1.5a1 1 0 0 0-1 1v2a1 1 0 0 0 1 1h3a1 1 0 0 0 1-1v-2a1 1 0 0 0-1-1z"/><path fill-rule="evenodd" d="M4.75 14c0-.966.784-1.75 1.75-1.75h11c.966 0 1.75.784 1.75 1.75v2h-1.5v-2a.25.25 0 0 0-.25-.25h-11a.25.25 0 0 0-.25.25v2h-1.5z"/></svg>