<svg xmlns="http://www.w3.org/2000/svg" width="24" height="24" viewBox="0 0 24 24"><path fill-rule="evenodd" d="M4.5 6.5h9v11h-9zm9 12.5h-9A1.5 1.5 0 0 1 3 17.5v-11A1.5 1.5 0 0 1 4.5 5h9A1.5 1.5 0 0 1 15 6.5V9h4.5a1.5 1.5 0 0 1 1.5 1.5v7a1.5 1.5 0 0 1-1.5 1.5zm1.5-1.5h4.5v-7H15zM6.5 9a.5.5 0 0 1 .5-.5h.5A.5.5 0 0 1 8 9v.5a.5.5 0 0 1-.5.5H7a.5.5 0 0 1-.5-.5zm.5 5.5a.5.5 0 0 0-.5.5v.5a.5.5 0 0 0 .5.5h.5a.5.5 0 0 0 .5-.5V15a.5.5 0 0 0-.5-.5zM6.5 12a.5.5 0 0 1 .5-.5h.5a.5.5 0 0 1 .5.5v.5a.5.5 0 0 1-.5.5H7a.5.5 0 0 1-.5-.5zm4-3.5a.5.5 0 0 0-.5.5v.5a.5.5 0 0 0 .5.5h.5a.5.5 0 0 0 .5-.5V9a.5.5 0 0 0-.5-.5zM10 15a.5.5 0 0 1 .5-.5h.5a.5.5 0 0 1 .5.5v.5a.5.5 0 0 1-.5.5h-.5a.5.5 0 0 1-.5-.5zm.5-3.5a.5.5 0 0 0-.5.5v.5a.5.5 0 0 0 .5.5h.5a.5.5 0 0 0 .5-.5V12a.5.5 0 0 0-.5-.5zm6 1a.5.5 0 0 1 .5-.5h.5a.5.5 0 0 1 .5.5v.5a.5.5 0 0 1-.5.5H17a.5.5 0 0 1-.5-.5zm.5 2a.5.5 0 0 0-.5.5v.5a.5.5 0 0 0 .5.5h.5a.5.5 0 0 0 .5-.5V15a.5.5 0 0 0-.5-.5z"/></svg>