<svg xmlns="http://www.w3.org/2000/svg" width="32" height="32" viewBox="0 0 32 32"><path fill-rule="evenodd" d="M8 24h16V14h-4a2 2 0 0 1-2-2V8H8zM20 8.828 23.172 12H20zM24 26H8a2 2 0 0 1-2-2V8a2 2 0 0 1 2-2h11.172a2 2 0 0 1 1.414.586l4.828 4.828A2 2 0 0 1 26 12.828V24a2 2 0 0 1-2 2m-13.961-4h.987v-1.514h.83c1.074 0 1.7-.641 1.7-1.574 0-.928-.614-1.583-1.675-1.583H10.04V22m.987-2.306v-1.557h.666c.57 0 .846.31.846.775 0 .463-.276.782-.841.782h-.67M15.852 22c1.424 0 2.286-.88 2.286-2.34 0-1.455-.862-2.33-2.272-2.33h-1.67V22h1.656m-.668-.846v-2.979h.63c.875 0 1.338.447 1.338 1.485 0 1.042-.463 1.494-1.34 1.494h-.628m4.673.846h-.988v-4.67h3.093v.813h-2.105v1.113h1.9v.814h-1.9V22"/></svg>