<svg xmlns="http://www.w3.org/2000/svg" width="16" height="16" viewBox="0 0 16 16"><path fill-rule="evenodd" d="M3.5 3.5H8v3.26c0 .69.56 1.25 1.25 1.25h3.25v4.49h-9zm6 3.01V3.906l2.604 2.604H9.499M2 3v10a1 1 0 0 0 1 1h10a1 1 0 0 0 1-1V6.7a1 1 0 0 0-.293-.707l-3.7-3.7A1 1 0 0 0 9.3 2H3a1 1 0 0 0-1 1m2.798 8.515h.531V10.7h.447c.579 0 .915-.345.915-.848 0-.5-.33-.852-.901-.852h-.992v2.515m.531-1.242v-.838h.359c.307 0 .456.167.456.417 0 .25-.15.422-.454.422h-.36m2.6 1.242c.765 0 1.23-.474 1.23-1.26C9.159 9.472 8.694 9 7.936 9h-.9v2.515h.892m-.36-.456V9.456h.338c.472 0 .721.24.721.8s-.25.803-.722.803h-.338m2.515.456h-.531V9h1.665v.438h-1.134v.6h1.023v.438h-1.023v1.039"/></svg>