<svg xmlns="http://www.w3.org/2000/svg" width="24" height="24" viewBox="0 0 24 24"><path fill-rule="evenodd" d="M5.5 18.5h13v-8.497h-2.994a1.5 1.5 0 0 1-1.5-1.5V5.5H5.5zM15.506 5.628l2.875 2.875h-2.875zM18.5 20h-13A1.5 1.5 0 0 1 4 18.5v-13A1.5 1.5 0 0 1 5.5 4h9.878a1.5 1.5 0 0 1 1.061.44l3.122 3.12A1.5 1.5 0 0 1 20 8.622V18.5a1.5 1.5 0 0 1-1.5 1.5M7.414 17h.76v-1.165h.638c.827 0 1.307-.493 1.307-1.21 0-.714-.472-1.218-1.287-1.218H7.414zm.76-1.774v-1.198h.512c.439 0 .65.239.65.597 0 .356-.211.601-.646.601zM11.886 17c1.095 0 1.758-.677 1.758-1.8 0-1.12-.663-1.793-1.747-1.793h-1.284V17zm-.514-.65v-2.292h.485c.673 0 1.03.344 1.03 1.142 0 .802-.357 1.15-1.032 1.15zm3.595.65h-.76v-3.593h2.379v.626h-1.62v.857h1.462v.626h-1.461z"/></svg>