<svg xmlns="http://www.w3.org/2000/svg" width="16" height="16" viewBox="0 0 16 16"><path fill-rule="evenodd" d="M8 1q-.38 0-.75.04a7.001 7.001 0 0 0-4.201 11.908l.001.002.002.001q.264.266.557.5A6.97 6.97 0 0 0 8 15q.38 0 .75-.04a6.97 6.97 0 0 0 4.198-2.008l.002-.002.002-.002q.264-.266.5-.557A7.001 7.001 0 0 0 8 1m-.75 1.55a5.5 5.5 0 0 0-3.633 8.773L7.25 7.689zm0 7.26-2.573 2.573A5.46 5.46 0 0 0 7.25 13.45zm1.5 3.64a5.46 5.46 0 0 0 2.573-1.067L8.75 9.811zm0-5.76V2.55a5.5 5.5 0 0 1 3.633 8.773z"/></svg>