<svg xmlns="http://www.w3.org/2000/svg" width="32" height="32" viewBox="0 0 32 32"><path fill-rule="evenodd" d="M16 4q-.505 0-1 .041C8.84 4.55 4 9.71 4 16a11.95 11.95 0 0 0 3.515 8.485q.354.354.736.678A11.95 11.95 0 0 0 16 28q.505 0 1-.041a11.95 11.95 0 0 0 7.485-3.474q.354-.354.678-.736A11.95 11.95 0 0 0 28 16c0-6.29-4.84-11.45-11-11.959A12 12 0 0 0 16 4m-1 2.05c-5.053.5-9 4.764-9 9.95 0 2.402.845 4.604 2.257 6.329L15 15.586zm0 12.364-5.329 5.329A9.95 9.95 0 0 0 15 25.951zm2 7.537a9.95 9.95 0 0 0 5.329-2.208L17 18.414zm0-10.365V6.049c5.053.502 9 4.766 9 9.951a9.95 9.95 0 0 1-2.257 6.329z"/></svg>