<svg xmlns="http://www.w3.org/2000/svg" width="16" height="16" fill="none" viewBox="0 0 16 16"><path fill="currentColor" fill-rule="evenodd" d="M8 1a7.001 7.001 0 0 0-4.951 11.948l.001.002.002.001A6.968 6.968 0 0 0 8 15a6.968 6.968 0 0 0 4.948-2.048l.002-.002.002-.002A6.971 6.971 0 0 0 15 8a7.001 7.001 0 0 0-7-7m-.75 1.55a5.501 5.501 0 0 0-3.633 8.773L7.25 7.689V2.551Zm0 7.26-2.573 2.573A5.464 5.464 0 0 0 7.25 13.45V9.811m1.5 3.64a5.464 5.464 0 0 0 2.573-1.067L8.75 9.811v3.638m0-5.76V2.55a5.501 5.501 0 0 1 3.633 8.773z"/></svg>