<svg xmlns="http://www.w3.org/2000/svg" width="24" height="24" viewBox="0 0 24 24"><path d="M17.434 5.62a.5.5 0 0 0-.166-.718l-.637-.36a.5.5 0 0 0-.656.152l-9.468 13.68a.5.5 0 0 0 .171.723l.67.367a.5.5 0 0 0 .653-.155l9.433-13.688Zm-9.647 6.316c2.383 0 3.788-1.702 3.788-3.617S10.17 4.702 7.787 4.702 4 6.404 4 8.32s1.404 3.617 3.787 3.617Zm0-1.787c-1.149 0-1.766-.809-1.766-1.83s.617-1.83 1.766-1.83c1.15 0 1.766.809 1.766 1.83s-.617 1.83-1.766 1.83m8.426 9.255c2.383 0 3.787-1.702 3.787-3.617s-1.404-3.617-3.787-3.617-3.788 1.702-3.788 3.617 1.405 3.617 3.788 3.617m0-1.787c-1.15 0-1.766-.809-1.766-1.83s.617-1.83 1.766-1.83 1.766.809 1.766 1.83-.617 1.83-1.766 1.83"/></svg>