<svg xmlns="http://www.w3.org/2000/svg" width="16" height="16" fill="none" viewBox="0 0 16 16"><path fill="currentColor" d="M12 3.338a.5.5 0 0 0-.165-.72l-.257-.145a.5.5 0 0 0-.657.152L3.978 12.657a.5.5 0 0 0 .17.723l.281.153a.5.5 0 0 0 .652-.154l6.92-10.041ZM4.858 7.952c1.784 0 2.835-1.274 2.835-2.708 0-1.433-1.051-2.708-2.835-2.708S2.02 3.811 2.02 5.244c0 1.434 1.052 2.708 2.836 2.708m0-1.338c-.86 0-1.322-.605-1.322-1.37 0-.764.462-1.37 1.322-1.37.86 0 1.322.606 1.322 1.37 0 .765-.462 1.37-1.322 1.37m6.308 6.93c1.784 0 2.835-1.275 2.835-2.709 0-1.433-1.051-2.708-2.835-2.708s-2.836 1.275-2.836 2.708c0 1.434 1.052 2.708 2.836 2.708m0-1.339c-.86 0-1.323-.605-1.323-1.37 0-.764.462-1.37 1.323-1.37.86 0 1.322.606 1.322 1.37 0 .765-.462 1.37-1.322 1.37"/></svg>