<svg xmlns="http://www.w3.org/2000/svg" width="24" height="24" viewBox="0 0 24 24"><path fill-rule="evenodd" d="m8.613 9.724 1.768-1.38-2.14-2.738-.94.734a1.5 1.5 0 0 0-.563.982l-.006.044-.008.044c-.388 1.983.269 4.719 2.183 7.169 1.841 2.357 4.226 3.654 6.207 3.837l.09.008.09.02c.423.092.877.001 1.242-.284l.94-.734-2.139-2.738-1.659 1.296-.893-.567c-.776-.492-1.5-1.197-2.264-2.177-.687-.878-1.174-1.68-1.49-2.47zm1.81.489 1.275-.996a1 1 0 0 0 .172-1.403L9.116 4.288a1 1 0 0 0-1.404-.172L6.378 5.158a3 3 0 0 0-1.126 1.964c-.49 2.501.354 5.668 2.473 8.38 2.041 2.613 4.777 4.179 7.25 4.408a3 3 0 0 0 2.485-.568l1.334-1.042a1 1 0 0 0 .172-1.404l-2.754-3.526a1 1 0 0 0-1.404-.172l-1.22.953c-.582-.37-1.183-.936-1.885-1.834-.628-.804-1.03-1.482-1.28-2.104"/></svg>