<svg xmlns="http://www.w3.org/2000/svg" width="32" height="32" viewBox="0 0 32 32"><path fill-rule="evenodd" d="m11.217 12.895 2.786-2.177-3.298-4.222-2.44 1.907a.87.87 0 0 0-.335.633l-.01.13-.027.126c-.637 2.9.318 6.944 3.135 10.549s6.509 5.51 9.477 5.594l.13.004.127.022a.87.87 0 0 0 .696-.172l2.44-1.907-3.298-4.221-2.74 2.141-1.071-.718c-.997-.67-1.95-1.613-2.973-2.921-.996-1.275-1.683-2.418-2.118-3.535zm2.134.599L15.8 11.58c.385-.3.45-.86.147-1.248L11.55 4.704a.89.89 0 0 0-1.247-.16L7.166 6.996a2.64 2.64 0 0 0-1.008 1.9c-.777 3.539.414 8.116 3.476 12.035s7.215 6.182 10.837 6.284a2.64 2.64 0 0 0 2.087-.518l3.137-2.451a.89.89 0 0 0 .147-1.248l-4.398-5.629a.89.89 0 0 0-1.246-.159l-2.43 1.899c-.788-.528-1.607-1.317-2.558-2.535-.925-1.184-1.506-2.173-1.86-3.08"/></svg>