<svg xmlns="http://www.w3.org/2000/svg" width="16" height="16" viewBox="0 0 16 16"><path fill-rule="evenodd" d="M4.101 3.996c-.91 4.365 2.317 8.495 6.773 8.669l1.14-.891-1.113-1.425c-.656.506-1.642.727-2.55.264-1.498-.764-2.49-2.035-2.87-3.672-.23-.993.224-1.897.873-2.411L5.242 3.106zm.611-2.38L3.028 2.932a.95.95 0 0 0-.343.525C1.4 8.892 5.47 14.101 11.055 14.17a.95.95 0 0 0 .592-.206l1.684-1.316a1 1 0 0 0 .173-1.404l-1.729-2.212a1 1 0 0 0-1.404-.173l-.381.298c-.275.215-.647.278-.958.12-1.102-.563-1.81-1.468-2.089-2.675-.079-.34.072-.685.348-.9l.381-.298A1 1 0 0 0 7.844 4L6.116 1.788a1 1 0 0 0-1.404-.172"/></svg>