<svg xmlns="http://www.w3.org/2000/svg" width="16" height="16" viewBox="0 0 16 16"><path fill-rule="evenodd" d="m6.853 6.748 3.156-3.156 2.388 2.388-3.156 3.156a.75.75 0 0 0-.213.636 3.316 3.316 0 0 1-.467 2.222L6.3 9.734a.779.779 0 0 0-.034-.034L3.994 7.428a3.316 3.316 0 0 1 2.223-.468.75.75 0 0 0 .636-.212m-2.16 3.499L2.696 8.251c-.469-.468-.532-1.32.089-1.806a4.806 4.806 0 0 1 3.257-1.009l3.082-3.082a1.25 1.25 0 0 1 1.768 0l2.742 2.742a1.25 1.25 0 0 1 0 1.767l-3.083 3.083a4.806 4.806 0 0 1-1.009 3.257l-.535-.419.535.419c-.485.62-1.337.557-1.806.089l-1.984-1.984-2.435 2.435a.75.75 0 1 1-1.06-1.06l2.434-2.436"/></svg>