<svg xmlns="http://www.w3.org/2000/svg" width="32" height="32" viewBox="0 0 32 32"><path fill-rule="evenodd" d="m13.944 13.698 5.478-5.479 4.371 4.372-5.478 5.478a1 1 0 0 0-.283.848 5.82 5.82 0 0 1-1 4.17L13 19.054l-.01-.011-.012-.01-4.052-4.053a5.82 5.82 0 0 1 4.17-1 1 1 0 0 0 .849-.283m-3.077 6.052-3.77-3.77c-.572-.572-.618-1.567.065-2.158a7.8 7.8 0 0 1 5.706-1.877l5.493-5.493a1.5 1.5 0 0 1 2.121 0l5.079 5.078a1.5 1.5 0 0 1 0 2.122l-5.494 5.493a7.8 7.8 0 0 1-1.877 5.705c-.591.683-1.586.637-2.158.065l-3.75-3.75-4.27 4.268A1 1 0 0 1 6.6 24.019z"/></svg>