<svg xmlns="http://www.w3.org/2000/svg" width="24" height="24" viewBox="0 0 24 24"><path fill-rule="evenodd" d="m10.315 10.062 4.46-4.46 3.607 3.608-4.46 4.46a.75.75 0 0 0-.212.636 4.748 4.748 0 0 1-.856 3.46L6.22 11.13a4.748 4.748 0 0 1 3.46-.855.75.75 0 0 0 .636-.213m5.344-5.697a1.25 1.25 0 0 0-1.768 0L9.509 8.747a6.24 6.24 0 0 0-4.504 1.428c-.585.488-.54 1.323-.065 1.797l3.014 3.014L4.47 18.47a.75.75 0 1 0 1.06 1.06l3.484-3.483 2.998 2.997c.474.475 1.309.52 1.797-.065a6.24 6.24 0 0 0 1.428-4.503l4.382-4.382a1.25 1.25 0 0 0 0-1.768l-3.96-3.96"/></svg>