<svg xmlns="http://www.w3.org/2000/svg" width="32" height="32" viewBox="0 0 32 32"><path fill-rule="evenodd" d="M9 11V6a1 1 0 0 1 1-1h12a1 1 0 0 1 1 1v5h.2c1.733 0 2.8 1.65 2.8 3.222v5.556C26 21.35 24.933 23 23.2 23H23v3a1 1 0 0 1-1 1H10a1 1 0 0 1-1-1v-3h-.2C7.067 23 6 21.35 6 19.778v-5.556C6 12.65 7.067 11 8.8 11zm2 0V7h10v4zm-2.2 2c-.255 0-.8.34-.8 1.222v5.556C8 20.66 8.545 21 8.8 21H9v-3a1 1 0 0 1 1-1h12a1 1 0 0 1 1 1v3h.2c.255 0 .8-.34.8-1.222v-5.556c0-.882-.545-1.222-.8-1.222zm2.2 6v6h10v-6z"/></svg>