<svg xmlns="http://www.w3.org/2000/svg" width="16" height="16" viewBox="0 0 16 16"><path fill-rule="evenodd" d="M5 3a1 1 0 0 1 1-1h4a1 1 0 0 1 1 1v1.75h1c.565 0 1.02.307 1.307.69.287.384.443.879.443 1.393v3.334c0 .514-.156 1.01-.443 1.393s-.742.69-1.307.69h-1V13a1 1 0 0 1-1 1H6a1 1 0 0 1-1-1v-.75H4c-.565 0-1.02-.307-1.307-.69a2.33 2.33 0 0 1-.443-1.393V6.833c0-.514.156-1.01.443-1.392.287-.384.742-.691 1.307-.691h1zm1.5 1.5v-1h3v1zM3.893 6.34a.84.84 0 0 0-.143.493v3.334a.83.83 0 0 0 .143.492.3.3 0 0 0 .086.083l.017.007.004.001h1V9a1 1 0 0 1 1-1h4a1 1 0 0 1 1 1v1.75h1.004l.017-.008a.3.3 0 0 0 .086-.083.84.84 0 0 0 .143-.492V6.833a.84.84 0 0 0-.143-.492.3.3 0 0 0-.086-.083l-.017-.007L12 6.25H3.996l-.017.008a.3.3 0 0 0-.086.083M6.5 9.5v3h3v-3z"/></svg>