<svg xmlns="http://www.w3.org/2000/svg" width="24" height="24" viewBox="0 0 24 24"><path fill-rule="evenodd" d="M7 5a1 1 0 0 1 1-1h8a1 1 0 0 1 1 1v3.25h.6c1.345 0 2.15 1.309 2.15 2.528v4.444c0 1.22-.805 2.528-2.15 2.528H17V19a1 1 0 0 1-1 1H8a1 1 0 0 1-1-1v-1.25h-.6c-1.344 0-2.15-1.309-2.15-2.528v-4.444c0-1.22.806-2.528 2.15-2.528H7zm1.5 3V5.5h7V8zM6.4 9.75c-.202 0-.65.283-.65 1.028v4.444c0 .745.448 1.028.65 1.028H7V13a1 1 0 0 1 1-1h8a1 1 0 0 1 1 1v3.25h.6c.202 0 .65-.283.65-1.028v-4.444c0-.745-.448-1.028-.65-1.028zm2.1 3.75v5h7v-5z"/></svg>