<svg xmlns="http://www.w3.org/2000/svg" width="16" height="16" viewBox="0 0 16 16"><path fill-rule="evenodd" d="M1 8a7 7 0 1 1 14 0A7 7 0 0 1 1 8m7-5.5a5.5 5.5 0 0 0-3.817 9.46 5.8 5.8 0 0 1 1.326-1.723q.277-.24.578-.426a3 3 0 1 1 3.826 0q.301.186.578.426a5.8 5.8 0 0 1 1.326 1.723A5.5 5.5 0 0 0 8 2.5m2.587 10.355c-.295-.627-.668-1.129-1.078-1.484-.493-.427-1.013-.621-1.509-.621s-1.016.194-1.509.62c-.41.356-.783.858-1.078 1.485A5.5 5.5 0 0 0 8 13.5c.935 0 1.816-.233 2.587-.645M8 6a1.5 1.5 0 1 0 0 3 1.5 1.5 0 0 0 0-3"/></svg>