<svg xmlns="http://www.w3.org/2000/svg" width="32" height="32" viewBox="0 0 32 32"><path fill-rule="evenodd" d="M4 16C4 9.373 9.373 4 16 4s12 5.373 12 12-5.373 12-12 12S4 22.627 4 16M16 6C10.477 6 6 10.477 6 16a9.97 9.97 0 0 0 2.84 6.982 8.85 8.85 0 0 1 2.24-3.08 8 8 0 0 1 1.652-1.118 5 5 0 1 1 6.537 0 8 8 0 0 1 1.652 1.117 8.9 8.9 0 0 1 2.239 3.08A9.97 9.97 0 0 0 26 16c0-5.523-4.477-10-10-10m5.543 18.324c-.413-1.162-1.086-2.169-1.941-2.919C18.551 20.483 17.284 20 16 20s-2.55.483-3.602 1.405c-.855.75-1.528 1.757-1.941 2.92A9.95 9.95 0 0 0 16 26a9.95 9.95 0 0 0 5.543-1.676M16 12a3 3 0 1 0 0 6 3 3 0 0 0 0-6"/></svg>