<svg xmlns="http://www.w3.org/2000/svg" width="24" height="24" viewBox="0 0 24 24"><path fill-rule="evenodd" d="M3 12a9 9 0 1 1 18 0 9 9 0 0 1-18 0m9-7.5a7.5 7.5 0 0 0-5.477 12.624c.532-.958 1.216-1.777 2.02-2.396q.484-.373 1.01-.637a3.75 3.75 0 1 1 4.895 0q.526.265 1.01.636c.804.62 1.487 1.44 2.019 2.397A7.5 7.5 0 0 0 12 4.5m4.315 13.635c-.466-.927-1.076-1.683-1.772-2.219C13.749 15.305 12.873 15 12 15c-.872 0-1.748.305-2.542.916-.697.536-1.307 1.292-1.773 2.22A7.47 7.47 0 0 0 12 19.5a7.47 7.47 0 0 0 4.315-1.365M12 9a2.25 2.25 0 1 0 0 4.5A2.25 2.25 0 0 0 12 9"/></svg>