<svg xmlns="http://www.w3.org/2000/svg" width="16" height="16" viewBox="0 0 16 16"><path fill-rule="evenodd" d="M8 1a.75.75 0 0 0 0 1.5 5.5 5.5 0 0 1 0 11A.75.75 0 0 0 8 15 7 7 0 1 0 8 1M5.586 3.055a.75.75 0 0 0-.66-1.348A7.022 7.022 0 0 0 2.75 3.37a.75.75 0 1 0 1.124.993 5.522 5.522 0 0 1 1.712-1.306M2.599 6.95a.75.75 0 1 0-1.473-.284 7.033 7.033 0 0 0 0 2.666.75.75 0 0 0 1.473-.284 5.533 5.533 0 0 1 0-2.098m1.275 4.687a.75.75 0 0 0-1.124.993 7.022 7.022 0 0 0 2.177 1.66.75.75 0 0 0 .659-1.347 5.523 5.523 0 0 1-1.712-1.306m6.944-4.828a.75.75 0 1 0-1.09-1.03L7.07 8.598l-.784-.875a.75.75 0 1 0-1.118 1l1.147 1.28a1 1 0 0 0 1.472.02l3.031-3.212"/></svg>