<svg xmlns="http://www.w3.org/2000/svg" width="24" height="24" viewBox="0 0 24 24"><path fill-rule="evenodd" d="M12 3a.75.75 0 0 0 0 1.5 7.5 7.5 0 0 1 0 15 .75.75 0 0 0 0 1.5 9 9 0 1 0 0-18M9.5 4.927A.75.75 0 1 0 9 3.512a9 9 0 0 0-3.75 2.535.75.75 0 1 0 1.125.992A7.5 7.5 0 0 1 9.5 4.927M4.927 9.5A.75.75 0 1 0 3.512 9 9 9 0 0 0 3 12c0 1.05.18 2.06.512 3a.75.75 0 1 0 1.415-.5A7.5 7.5 0 0 1 4.5 12c0-.878.15-1.72.427-2.5m1.448 7.46a.75.75 0 0 0-1.125.993A9 9 0 0 0 9 20.488a.75.75 0 0 0 .5-1.415 7.5 7.5 0 0 1-3.125-2.112m10.17-7.445a.75.75 0 0 0-1.09-1.03l-5.103 5.407-1.793-2.002a.75.75 0 1 0-1.118 1l1.793 2.003a1.5 1.5 0 0 0 2.209.029z"/></svg>