<svg xmlns="http://www.w3.org/2000/svg" width="32" height="32" fill="none" viewBox="0 0 32 32"><path fill="currentColor" fill-rule="evenodd" d="M16 4a1 1 0 1 0 0 2c5.523 0 10 4.477 10 10s-4.477 10-10 10a1 1 0 1 0 0 2c6.627 0 12-5.373 12-12S22.627 4 16 4m-3.333 2.569A1 1 0 0 0 12 4.683a12.016 12.016 0 0 0-5 3.38 1 1 0 0 0 1.5 1.323 10.015 10.015 0 0 1 4.167-2.817m-6.098 6.098A1 1 0 1 0 4.683 12 11.982 11.982 0 0 0 4 16c0 1.4.24 2.747.683 4a1 1 0 1 0 1.886-.667A9.982 9.982 0 0 1 6 16c0-1.17.2-2.292.569-3.333m1.93 9.947A1 1 0 1 0 7 23.938a12.016 12.016 0 0 0 5 3.379 1 1 0 0 0 .667-1.886A10.015 10.015 0 0 1 8.5 22.614m13.718-9.417a1 1 0 1 0-1.434-1.394l-7.05 7.244-2.498-2.705a1 1 0 0 0-1.47 1.357l2.498 2.705a2 2 0 0 0 2.903.038l7.05-7.244"/></svg>