<svg xmlns="http://www.w3.org/2000/svg" width="32" height="32" viewBox="0 0 32 32"><path fill-rule="evenodd" d="M15.382 7.672a1 1 0 0 1 .569.902v14.852a1 1 0 0 1-1.629.777l-4.975-4.02H5.5a1 1 0 0 1-1-1v-6.366a1 1 0 0 1 1-1h3.847l4.975-4.02a1 1 0 0 1 1.06-.125m-1.431 2.996-3.622 2.927a1 1 0 0 1-.629.222H6.5v4.365h3.2a1 1 0 0 1 .629.223l3.622 2.927zm8.771-2.878a1 1 0 0 1 1.414.007A11.66 11.66 0 0 1 27.5 16c0 3.075-1.209 6.026-3.364 8.203a1 1 0 1 1-1.421-1.406A9.66 9.66 0 0 0 25.5 16a9.66 9.66 0 0 0-2.785-6.797 1 1 0 0 1 .007-1.414m-3.707 3.744a1 1 0 0 1 1.414.007 6.33 6.33 0 0 1 1.827 4.454 6.33 6.33 0 0 1-1.827 4.453 1 1 0 1 1-1.421-1.407 4.33 4.33 0 0 0 1.248-3.046c0-1.145-.45-2.24-1.248-3.047a1 1 0 0 1 .007-1.414"/></svg>