<svg xmlns="http://www.w3.org/2000/svg" width="24" height="24" viewBox="0 0 24 24"><path fill-rule="evenodd" d="M11.309 5.316A.75.75 0 0 1 11.75 6v12a.75.75 0 0 1-1.246.563L6.828 15.32H4a.75.75 0 0 1-.75-.75V9.43A.75.75 0 0 1 4 8.68h2.828l3.676-3.242a.75.75 0 0 1 .805-.12M10.25 7.661l-2.643 2.33a.75.75 0 0 1-.496.188H4.75v3.642h2.361a.75.75 0 0 1 .496.188l2.643 2.33zm6.476-2.167a.75.75 0 0 1 1.06-.048C19.674 7.172 20.75 9.528 20.75 12s-1.076 4.828-2.964 6.554a.75.75 0 0 1-1.012-1.108C18.369 15.99 19.25 14.028 19.25 12s-.881-3.99-2.476-5.446a.75.75 0 0 1-.048-1.06m-3.28 2.996a.75.75 0 0 1 1.06-.048c1.018.93 1.604 2.207 1.604 3.554s-.586 2.623-1.604 3.553a.75.75 0 0 1-1.012-1.107c.724-.661 1.116-1.543 1.116-2.446s-.392-1.785-1.116-2.447a.75.75 0 0 1-.048-1.06"/></svg>