<svg xmlns="http://www.w3.org/2000/svg" width="16" height="16" viewBox="0 0 16 16"><path fill-rule="evenodd" d="M7.874 2.711a.75.75 0 0 1 .435.681v9.216a.75.75 0 0 1-1.236.57l-2.878-2.453H2a.75.75 0 0 1-.75-.75v-3.95a.75.75 0 0 1 .75-.75h2.195l2.878-2.454a.75.75 0 0 1 .8-.11M6.809 5.017 4.957 6.596a.75.75 0 0 1-.486.18H2.75v2.449h1.72a.75.75 0 0 1 .487.179l1.852 1.579zm4.849-2.055a.75.75 0 0 1 1.06.016A7.2 7.2 0 0 1 14.74 8c0 1.88-.724 3.686-2.02 5.022a.75.75 0 0 1-1.077-1.044A5.7 5.7 0 0 0 13.24 8a5.7 5.7 0 0 0-1.597-3.978.75.75 0 0 1 .016-1.06m-2.18 2.247a.75.75 0 0 1 1.06.016 3.98 3.98 0 0 1 1.116 2.772 3.98 3.98 0 0 1-1.116 2.772.75.75 0 0 1-1.076-1.044 2.48 2.48 0 0 0 .692-1.728c0-.652-.251-1.273-.692-1.728a.75.75 0 0 1 .016-1.06"/></svg>