<svg xmlns="http://www.w3.org/2000/svg" width="24" height="24" fill="none" viewBox="0 0 24 24"><path fill="currentColor" fill-rule="evenodd" d="M18.25 2a.75.75 0 0 1 .75.75V5h2.25a.75.75 0 0 1 0 1.5H19v2.25a.75.75 0 0 1-1.5 0V6.5h-2.25a.75.75 0 0 1 0-1.5h2.25V2.75a.75.75 0 0 1 .75-.75M4.5 12A7.5 7.5 0 0 1 12 4.5.75.75 0 0 0 12 3a9 9 0 1 0 9 9 .75.75 0 0 0-1.5 0 7.5 7.5 0 0 1-15 0M8 11a1 1 0 1 0 0-2 1 1 0 0 0 0 2m9-1a1 1 0 1 1-2 0 1 1 0 0 1 2 0m-9.51 2.628a.75.75 0 0 0-1.48.245C6.49 15.775 8.981 18 12 18c3.018 0 5.51-2.225 5.99-5.127a.75.75 0 1 0-1.48-.245C16.145 14.833 14.257 16.5 12 16.5c-2.257 0-4.145-1.667-4.51-3.872"/></svg>