<svg xmlns="http://www.w3.org/2000/svg" width="16" height="16" viewBox="0 0 16 16"><path fill-rule="evenodd" d="M12.742 1.011a.75.75 0 0 1 .75.75v.75h.75a.75.75 0 0 1 0 1.5h-.75v.75a.75.75 0 0 1-1.5 0v-.75h-.75a.75.75 0 0 1 0-1.5h.75v-.75a.75.75 0 0 1 .75-.75M7.998 13.5a5.494 5.494 0 0 1 0-10.989.75.75 0 1 0 0-1.5 6.994 6.994 0 1 0 6.994 6.995.75.75 0 0 0-1.5 0A5.494 5.494 0 0 1 7.998 13.5M5.159 7.022a.852.852 0 1 0 0-1.703.852.852 0 0 0 0 1.703m5.677 0a.852.852 0 1 0 0-1.703.852.852 0 0 0 0 1.703m-5.807.813a.75.75 0 0 1 .869.607c.16.908 1.014 1.652 2.1 1.652s1.939-.744 2.1-1.652a.75.75 0 1 1 1.477.262c-.296 1.67-1.81 2.89-3.577 2.89s-3.281-1.22-3.577-2.89a.75.75 0 0 1 .608-.87"/></svg>