<svg xmlns="http://www.w3.org/2000/svg" width="16" height="16" viewBox="0 0 16 16"><path fill-rule="evenodd" d="M12.336 3.116a.75.75 0 1 1 1.06-1.061l1.272 1.271a1.083 1.083 0 0 1 0 1.532L13.397 6.13a.75.75 0 0 1-1.06-1.06l.226-.227h-7.15A1.917 1.917 0 0 0 3.497 6.76v1.1a.75.75 0 0 1-1.5 0v-1.1a3.417 3.417 0 0 1 3.416-3.417h7.15zm1.66 6.318a3.417 3.417 0 0 1-3.418 3.416h-7.14l.226.227a.75.75 0 0 1-1.06 1.06l-1.272-1.27a1.083 1.083 0 0 1 0-1.533l1.271-1.27a.75.75 0 1 1 1.061 1.06l-.226.226h7.14a1.917 1.917 0 0 0 1.917-1.916v-1.1a.75.75 0 0 1 1.5 0z"/></svg>