<svg xmlns="http://www.w3.org/2000/svg" width="32" height="32" viewBox="0 0 32 32"><path fill-rule="evenodd" d="M23.667 7.694a1 1 0 1 1 1.44-1.388l2.39 2.48a1.333 1.333 0 0 1 0 1.85l-2.39 2.48a1 1 0 1 1-1.44-1.389l.98-1.016H9.667c-.92 0-1.667.746-1.667 1.666v2.626a1 1 0 0 1-2 0v-2.626a3.667 3.667 0 0 1 3.667-3.666h14.98l-.98-1.017M26 19.623a3.667 3.667 0 0 1-3.667 3.666H7.39l.994 1.01a1 1 0 0 1-1.425 1.403l-2.44-2.477a1.333 1.333 0 0 1 0-1.871l2.44-2.477a1 1 0 1 1 1.425 1.404l-.994 1.008h14.944c.92 0 1.667-.746 1.667-1.666V17a1 1 0 1 1 2 0v2.623"/></svg>