<svg xmlns="http://www.w3.org/2000/svg" width="24" height="24" fill="none" viewBox="0 0 24 24"><path fill="currentColor" fill-rule="evenodd" d="M17.818 6.282a.75.75 0 0 1 1.06-1.06l1.808 1.807a1.083 1.083 0 0 1 0 1.533l-1.808 1.807a.75.75 0 0 1-1.06-1.06l.763-.764H7.417A1.917 1.917 0 0 0 5.5 10.462v.788a.75.75 0 0 1-1.5 0v-.788a3.417 3.417 0 0 1 3.417-3.417H18.58l-.763-.763m1.853 7.263a3.417 3.417 0 0 1-3.416 3.417H5.427l.763.763a.75.75 0 0 1-1.06 1.06l-1.808-1.807a1.083 1.083 0 0 1 0-1.532l1.807-1.808a.75.75 0 1 1 1.061 1.06l-.763.764h10.828a1.917 1.917 0 0 0 1.916-1.917v-.79a.75.75 0 0 1 1.5 0v.79"/></svg>