<svg xmlns="http://www.w3.org/2000/svg" width="32" height="32" fill="none" viewBox="0 0 32 32"><path fill="currentColor" fill-rule="evenodd" d="M6.287 14.017C7.193 9.44 11.203 6 16 6c3.45 0 6.49 1.777 8.266 4.479h-3.318a1 1 0 0 0-.996 1.003 1 1 0 0 0 .996 1.004h5.516a1.25 1.25 0 0 0 1.246-1.255V5.678a1 1 0 0 0-.997-1.003 1 1 0 0 0-.997 1.003v3.38C23.563 6 20.016 4 16 4 10.22 4 5.411 8.143 4.325 13.628a1 1 0 0 0 1.962.389M16.005 26c4.797 0 8.807-3.44 9.713-8.017a1 1 0 1 1 1.962.389C26.594 23.857 21.785 28 16.005 28c-4.015 0-7.561-2-9.716-5.056v3.39a1 1 0 0 1-.997 1.003 1 1 0 0 1-.996-1.003v-5.565a1.25 1.25 0 0 1 1.246-1.255h5.526a1 1 0 0 1 .997 1.004 1 1 0 0 1-.997 1.003H7.74C9.515 24.223 12.556 26 16.005 26"/></svg>