<svg xmlns="http://www.w3.org/2000/svg" width="16" height="16" viewBox="0 0 16 16"><path fill-rule="evenodd" d="M2.675 6.91c.497-2.513 2.699-4.4 5.33-4.4 1.77 0 3.344.851 4.338 2.174h-1.53a.75.75 0 0 0-.748.753.75.75 0 0 0 .748.753h3.021a1 1 0 0 0 .997-1.004V2.144a.75.75 0 0 0-.748-.753.75.75 0 0 0-.747.753v1.378a6.9 6.9 0 0 0-5.33-2.512c-3.37 0-6.17 2.414-6.803 5.609a.75.75 0 0 0 1.472.291m5.333 6.58c2.632 0 4.834-1.887 5.332-4.4a.75.75 0 0 1 1.471.291c-.632 3.195-3.434 5.61-6.803 5.61a6.9 6.9 0 0 1-5.33-2.513v1.385a.75.75 0 0 1-.747.752.75.75 0 0 1-.747-.752v-3.05A1 1 0 0 1 2.18 9.81h3.028a.75.75 0 0 1 .747.753.75.75 0 0 1-.747.753H3.67a5.41 5.41 0 0 0 4.337 2.175"/></svg>