<svg xmlns="http://www.w3.org/2000/svg" width="24" height="24" fill="none" viewBox="0 0 24 24"><path fill="currentColor" fill-rule="evenodd" d="M4.719 10.513c.68-3.43 3.685-6.01 7.281-6.01a7.404 7.404 0 0 1 6.196 3.358h-2.487a.75.75 0 0 0-.747.752.75.75 0 0 0 .748.753h4.072a1 1 0 0 0 .997-1.004v-4.1a.75.75 0 0 0-.748-.753.75.75 0 0 0-.747.752v2.533C17.668 4.502 15.01 3.004 12 3.004c-4.333 0-7.938 3.105-8.753 7.218a.75.75 0 1 0 1.472.291m7.285 8.983c3.596 0 6.602-2.578 7.281-6.01a.75.75 0 0 1 1.471.292c-.814 4.113-4.419 7.218-8.752 7.218a8.897 8.897 0 0 1-7.284-3.79v2.54a.75.75 0 0 1-.747.753.75.75 0 0 1-.748-.752v-4.11a1 1 0 0 1 .997-1.003h4.08a.75.75 0 0 1 .748.753.75.75 0 0 1-.747.752H5.808a7.404 7.404 0 0 0 6.196 3.357"/></svg>