<svg xmlns="http://www.w3.org/2000/svg" width="24" height="24" viewBox="0 0 24 24"><path fill-rule="evenodd" d="M10.316 6.186a1.68 1.68 0 1 1 3.359 0 1.68 1.68 0 0 1-3.36 0m1.68-3.18a3.18 3.18 0 1 0-.001 6.36 3.18 3.18 0 0 0 0-6.36M7.151 18.193a.652.652 0 1 0 0 1.303.652.652 0 0 0 0-1.303M5 18.845a2.152 2.152 0 1 1 4.303 0 2.152 2.152 0 0 1-4.303 0m6.997-.652a.652.652 0 1 0 0 1.303.652.652 0 0 0 0-1.303m-2.151.652a2.152 2.152 0 1 1 4.303 0 2.152 2.152 0 0 1-4.303 0m7.001-.652a.652.652 0 1 0 0 1.303.652.652 0 0 0 0-1.303m-2.151.652a2.152 2.152 0 1 1 4.303 0 2.152 2.152 0 0 1-4.303 0m-4.951-7.841a3.25 3.25 0 0 0-3.25 3.25v1.012a.75.75 0 0 0 1.5 0v-1.012c0-.967.783-1.75 1.75-1.75h4.517c.967 0 1.75.783 1.75 1.75v1.012a.75.75 0 0 0 1.5 0v-1.012a3.25 3.25 0 0 0-3.25-3.25z"/></svg>