<svg xmlns="http://www.w3.org/2000/svg" width="32" height="32" viewBox="0 0 32 32"><path fill-rule="evenodd" d="M12.67 10.006a7.002 7.002 0 1 1 9.324 9.324 9.2 9.2 0 0 0-.128-1.888c1.074-.674 1.876-1.734 2.117-3.006a1 1 0 0 0-1.966-.372 2.47 2.47 0 0 1-.764 1.34 9.03 9.03 0 0 0-4.611-4.637 1 1 0 1 0-1.615-.538 9 9 0 0 0-2.357-.223m-2.284.38a9 9 0 1 1 11.229 11.229 9 9 0 1 1-11.229-11.229M20 19a7 7 0 1 1-14 0 7 7 0 0 1 14 0m-11.186.267a1 1 0 0 1 1.169.797c.219 1.159 1.41 2.186 3.017 2.186s2.798-1.027 3.017-2.186a1 1 0 0 1 1.966.372c-.425 2.247-2.57 3.814-4.983 3.814-2.414 0-4.558-1.567-4.983-3.814a1 1 0 0 1 .797-1.169M10 17a1 1 0 1 0 0-2 1 1 0 0 0 0 2m7-1a1 1 0 1 1-2 0 1 1 0 0 1 2 0m5-5a1 1 0 1 0 0-2 1 1 0 0 0 0 2"/></svg>