<svg xmlns="http://www.w3.org/2000/svg" width="24" height="24" viewBox="0 0 24 24"><path fill-rule="evenodd" d="M14.5 4.5a5 5 0 0 0-4.772 3.504 6.5 6.5 0 0 1 5.595 3.605c.657-.236 1.09-.733 1.19-1.252a.75.75 0 0 1 1.473.287c-.219 1.123-1.076 1.985-2.155 2.376q.142.607.165 1.252A5.002 5.002 0 0 0 14.5 4.5m0-1.5a6.5 6.5 0 0 0-6.358 5.142 6.5 6.5 0 1 0 7.716 7.716A6.5 6.5 0 0 0 14.5 3m-5 16.5a5 5 0 1 0 0-10 5 5 0 0 0 0 10m-2.014-4.143a.75.75 0 0 0-1.472.287c.303 1.555 1.82 2.606 3.486 2.606s3.183-1.051 3.486-2.607a.75.75 0 0 0-1.472-.287c-.14.716-.917 1.394-2.014 1.394s-1.874-.678-2.014-1.393M8 12.75a.75.75 0 1 1-1.5 0 .75.75 0 0 1 1.5 0m3.75.75a.75.75 0 1 0 0-1.5.75.75 0 0 0 0 1.5M13 7.75a.75.75 0 1 1-1.5 0 .75.75 0 0 1 1.5 0m3.75.75a.75.75 0 1 0 0-1.5.75.75 0 0 0 0 1.5"/></svg>