<svg xmlns="http://www.w3.org/2000/svg" width="32" height="32" viewBox="0 0 32 32"><path fill-rule="evenodd" d="M13.493 8.5a2.5 2.5 0 1 1 5 0 2.5 2.5 0 0 1-5 0m2.5-4.5a4.5 4.5 0 1 0 0 9 4.5 4.5 0 0 0 0-9M8.87 24.26a.87.87 0 1 0 0 1.74.87.87 0 0 0 0-1.74M6 25.13a2.87 2.87 0 1 1 5.74 0 2.87 2.87 0 0 1-5.74 0m9.997-.87a.87.87 0 1 0 0 1.74.87.87 0 0 0 0-1.74m-2.87.87a2.87 2.87 0 1 1 5.74 0 2.87 2.87 0 0 1-5.74 0m9.997-.87a.87.87 0 1 0 0 1.74.87.87 0 0 0 0-1.74m-2.87.87a2.87 2.87 0 1 1 5.74 0 2.87 2.87 0 0 1-5.74 0M13.366 15a5.355 5.355 0 0 0-5.355 5.355 1 1 0 1 0 2 0A3.355 3.355 0 0 1 13.366 17h5.279A3.355 3.355 0 0 1 22 20.355a1 1 0 1 0 2 0A5.355 5.355 0 0 0 18.645 15z"/></svg>