<svg xmlns="http://www.w3.org/2000/svg" width="16" height="16" viewBox="0 0 16 16"><path fill-rule="evenodd" d="M6.212 5.004A3.752 3.752 0 0 1 13.5 6.25a3.75 3.75 0 0 1-2.504 3.538 5 5 0 0 0-.248-1.359 2.35 2.35 0 0 0 1.418-1.74.625.625 0 0 0-1.231-.218 1.11 1.11 0 0 1-.726.829 5 5 0 0 0-3.997-2.296m-1.606.193A5.252 5.252 0 0 1 15 6.25a5.25 5.25 0 0 1-4.197 5.144 5 5 0 1 1-6.197-6.197M9.5 10a3.5 3.5 0 1 1-7 0 3.5 3.5 0 0 1 7 0m-5.36-.115c.34-.06.665.166.725.506.087.489.552.904 1.16.904s1.073-.415 1.16-.904a.625.625 0 0 1 1.23.218c-.198 1.123-1.214 1.936-2.39 1.936-1.175 0-2.191-.813-2.39-1.936a.625.625 0 0 1 .506-.724m.485-.635a.625.625 0 1 0 0-1.25.625.625 0 0 0 0 1.25M8 8.625a.625.625 0 1 1-1.25 0 .625.625 0 0 1 1.25 0m.75-4a.625.625 0 1 1-1.25 0 .625.625 0 0 1 1.25 0m2.625.625a.625.625 0 1 0 0-1.25.625.625 0 0 0 0 1.25"/></svg>