<svg xmlns="http://www.w3.org/2000/svg" width="16" height="16" viewBox="0 0 16 16"><path fill-rule="evenodd" d="M8 2.503a5.482 5.482 0 0 0-3.778 9.454c.428-.907 1.097-1.67 1.926-2.16a3.016 3.016 0 1 1 3.877-.13c.2.102.396.218.586.347a.75.75 0 1 1-.844 1.24c-.563-.383-1.117-.547-1.476-.547-1.203 0-2.316.833-2.822 2.142A5.458 5.458 0 0 0 8 13.467a.75.75 0 0 1 0 1.5 6.982 6.982 0 1 1 6.982-6.982.75.75 0 0 1-1.5 0A5.482 5.482 0 0 0 8 2.503m.01 3.405a1.516 1.516 0 1 0 0 3.032 1.516 1.516 0 0 0 0-3.032"/><path d="M15.08 11.363a.75.75 0 0 1 0 1.061l-.795.796.795.795a.75.75 0 0 1-1.06 1.06l-.796-.795-.796.796a.75.75 0 1 1-1.06-1.06l.795-.796-.795-.796a.75.75 0 0 1 1.06-1.06l.796.795.795-.796a.75.75 0 0 1 1.061 0"/></svg>