<svg xmlns="http://www.w3.org/2000/svg" width="32" height="32" fill="none" viewBox="0 0 32 32"><path fill="currentColor" d="M19.512 12.441a1 1 0 0 1 0 1.414l-2.098 2.098 2.145 2.145a1 1 0 0 1-1.414 1.414L16 17.367l-2.145 2.145a1 1 0 1 1-1.414-1.414l2.145-2.145-2.098-2.098a1 1 0 0 1 1.414-1.414L16 14.54l2.098-2.098a1 1 0 0 1 1.414 0"/><path fill="currentColor" fill-rule="evenodd" d="M11 4a1 1 0 0 1 1 1v1h8V5a1 1 0 1 1 2 0v1h2a2 2 0 0 1 2 2v16a2 2 0 0 1-2 2H8a2 2 0 0 1-2-2V8a2 2 0 0 1 2-2h2V5a1 1 0 0 1 1-1m9 4v1a1 1 0 1 0 2 0V8h2v16H8V8h2v1a1 1 0 1 0 2 0V8z"/></svg>