<svg xmlns="http://www.w3.org/2000/svg" width="16" height="16" viewBox="0 0 16 16"><path d="M9.945 6.227a.75.75 0 0 1 0 1.06l-.884.885.883.883a.75.75 0 0 1-1.06 1.061L8 9.232l-.884.884a.75.75 0 1 1-1.06-1.06l.883-.884-.884-.884a.75.75 0 1 1 1.061-1.06L8 7.11l.884-.884a.75.75 0 0 1 1.06 0"/><path fill-rule="evenodd" d="M9.5 2h-3v-.25a.75.75 0 0 0-1.5 0V2H3a1 1 0 0 0-1 1v10a1 1 0 0 0 1 1h10a1 1 0 0 0 1-1V3a1 1 0 0 0-1-1h-2v-.25a.75.75 0 1 0-1.5 0zm-6 1.5v9h9v-9h-1.542a.75.75 0 0 1-1.415 0H6.457a.75.75 0 0 1-1.414 0z"/></svg>