<svg xmlns="http://www.w3.org/2000/svg" width="24" height="24" viewBox="0 0 24 24"><path fill-rule="evenodd" d="M12.01 4.51a7.507 7.507 0 0 0-5.35 12.772c.606-1.364 1.612-2.489 2.864-3.151a3.813 3.813 0 1 1 4.858-.04q.4.203.785.464a.75.75 0 1 1-.844 1.24c-.815-.555-1.64-.81-2.212-.81-1.855 0-3.526 1.311-4.239 3.297a7.47 7.47 0 0 0 4.139 1.242.75.75 0 0 1 0 1.5 9.007 9.007 0 1 1 9.007-9.007.75.75 0 0 1-1.5 0A7.507 7.507 0 0 0 12.01 4.51m-.081 4.349a2.313 2.313 0 1 0 0 4.626 2.313 2.313 0 0 0 0-4.626"/><path d="M21.153 15.841a.75.75 0 0 1 0 1.06l-1.591 1.592 1.591 1.59a.75.75 0 0 1-1.06 1.061l-1.592-1.59-1.59 1.59a.75.75 0 1 1-1.061-1.06l1.59-1.591-1.59-1.591a.75.75 0 1 1 1.06-1.06l1.591 1.59 1.591-1.591a.75.75 0 0 1 1.061 0"/></svg>