<svg xmlns="http://www.w3.org/2000/svg" width="24" height="24" fill="none" viewBox="0 0 24 24"><path fill="currentColor" d="M14.634 9.33a.75.75 0 0 1 0 1.062l-1.573 1.573 1.608 1.608a.75.75 0 1 1-1.06 1.061L12 13.026l-1.608 1.608a.75.75 0 0 1-1.061-1.06l1.608-1.609-1.573-1.573a.75.75 0 0 1 1.06-1.061L12 10.904l1.573-1.573a.75.75 0 0 1 1.061 0"/><path fill="currentColor" fill-rule="evenodd" d="M15.5 4H8.503v-.75a.75.75 0 0 0-1.5 0V4H5.5A1.5 1.5 0 0 0 4 5.5v13A1.5 1.5 0 0 0 5.5 20h13a1.5 1.5 0 0 0 1.5-1.5v-13A1.5 1.5 0 0 0 18.5 4H17v-.75a.75.75 0 0 0-1.5 0zm0 1.5H8.503v.75a.75.75 0 0 1-1.5 0V5.5H5.5v13h13v-13H17v.75a.75.75 0 0 1-1.5 0z"/></svg>