<svg xmlns="http://www.w3.org/2000/svg" width="24" height="24" fill="none" viewBox="0 0 24 24"><path fill="currentColor" fill-rule="evenodd" d="M5.5 18.5h13v-8.497h-2.994a1.5 1.5 0 0 1-1.5-1.5V5.5H5.5zM15.506 5.628l2.875 2.875h-2.875zM18.5 20h-13A1.5 1.5 0 0 1 4 18.5v-13A1.5 1.5 0 0 1 5.5 4h9.878a1.5 1.5 0 0 1 1.061.44l3.122 3.12A1.5 1.5 0 0 1 20 8.622V18.5a1.5 1.5 0 0 1-1.5 1.5m-1.718-7.217a.75.75 0 0 0-1.064-1.057l-2.95 2.972-1.954-1.679a.75.75 0 0 0-1.028.048L7.21 15.734a.75.75 0 1 0 1.08 1.042l2.083-2.158 1.946 1.672a.75.75 0 0 0 1.02-.04z"/></svg>