<svg xmlns="http://www.w3.org/2000/svg" width="32" height="32" viewBox="0 0 32 32"><path fill-rule="evenodd" d="M16.897 10.557a1 1 0 0 0-1.794 0l-1.237 2.506-2.765.402a1 1 0 0 0-.554 1.706l2 1.95-.472 2.755a1 1 0 0 0 1.451 1.054L16 19.63l2.474 1.3a1 1 0 0 0 1.45-1.054l-.472-2.754 2.001-1.951a1 1 0 0 0-.554-1.706l-2.765-.402zm-1.47 3.863L16 13.26l.573 1.16a1 1 0 0 0 .753.547l1.28.186-.926.903a1 1 0 0 0-.288.886l.219 1.275-1.146-.602a1 1 0 0 0-.93 0l-1.146.602.219-1.275a1 1 0 0 0-.288-.886l-.926-.903 1.28-.186a1 1 0 0 0 .753-.547"/><path fill-rule="evenodd" d="M21 4a1 1 0 0 1 1 1v1h2a2 2 0 0 1 2 2v16a2 2 0 0 1-2 2H8a2 2 0 0 1-2-2V8a2 2 0 0 1 2-2h2V5a1 1 0 1 1 2 0v1h8V5a1 1 0 0 1 1-1M10 8v1a1 1 0 1 0 2 0V8h8v1a1 1 0 1 0 2 0V8h2v16H8V8z"/></svg>