<svg xmlns="http://www.w3.org/2000/svg" width="16" height="16" viewBox="0 0 16 16"><path fill-rule="evenodd" d="M8 4.5a.75.75 0 0 1 .672.418l.708 1.433 1.58.23a.75.75 0 0 1 .417 1.279l-1.145 1.115.27 1.575a.75.75 0 0 1-1.088.79L8 10.598l-1.414.744a.75.75 0 0 1-1.089-.79l.27-1.576L4.623 7.86a.75.75 0 0 1 .416-1.28l1.581-.229.707-1.433A.75.75 0 0 1 8 4.5m0 2.445-.21.423a.75.75 0 0 1-.564.41l-.468.069.339.33a.75.75 0 0 1 .216.663l-.08.466.418-.22a.75.75 0 0 1 .698 0l.418.22-.08-.466a.75.75 0 0 1 .216-.664l.338-.33-.467-.067a.75.75 0 0 1-.565-.41z"/><path fill-rule="evenodd" d="M6.5 1.75a.75.75 0 0 0-1.5 0V2H3a1 1 0 0 0-1 1v10a1 1 0 0 0 1 1h10a1 1 0 0 0 1-1V3a1 1 0 0 0-1-1h-2v-.25a.75.75 0 0 0-1.5 0V2h-3zM5.043 3.5a.75.75 0 0 0 1.414 0h3.086a.75.75 0 0 0 1.414 0H12.5v9h-9v-9z"/></svg>