<svg xmlns="http://www.w3.org/2000/svg" width="24" height="24" viewBox="0 0 24 24"><path fill-rule="evenodd" d="M12 7.5a.75.75 0 0 1 .673.418l1 2.028 2.24.326a.75.75 0 0 1 .415 1.279l-1.62 1.579.382 2.23a.75.75 0 0 1-1.088.79L12 15.097 9.998 16.15a.75.75 0 0 1-1.088-.79l.382-2.23-1.62-1.579a.75.75 0 0 1 .416-1.28l2.238-.325 1.002-2.028A.75.75 0 0 1 12 7.5m0 2.445-.503 1.019a.75.75 0 0 1-.565.41l-1.124.164.813.793a.75.75 0 0 1 .216.664l-.192 1.12 1.006-.529a.75.75 0 0 1 .698 0l1.006.53-.192-1.121a.75.75 0 0 1 .216-.664l.814-.793-1.125-.164a.75.75 0 0 1-.565-.41z"/><path fill-rule="evenodd" d="M8.5 3.75a.75.75 0 0 0-1.5 0V4H5.5A1.5 1.5 0 0 0 4 5.5v13A1.5 1.5 0 0 0 5.5 20h13a1.5 1.5 0 0 0 1.5-1.5v-13A1.5 1.5 0 0 0 18.5 4H17v-.25a.75.75 0 0 0-1.5 0V4h-7zM7 5.5v.75a.75.75 0 0 0 1.5 0V5.5h7v.75a.75.75 0 0 0 1.5 0V5.5h1.5v13h-13v-13z"/></svg>