<svg xmlns="http://www.w3.org/2000/svg" width="32" height="32" viewBox="0 0 32 32"><path fill-rule="evenodd" d="M9.862 4.988a2 2 0 0 1 2-1.988h8.092a2 2 0 0 1 2 2H25a1 1 0 0 1 1 1v21.333a1 1 0 0 1-1 1H6.802a1 1 0 0 1-1-1V6a1 1 0 0 1 1-1h3.06zM21.939 7.47l.003-.47H24v19.333H7.802V7H9.85l-.003.459a1 1 0 0 0 1 1.006H20.94a1 1 0 0 0 1-.994M19.954 5h-8.092l-.01 1.465h8.093zm-3.057 6.224a1 1 0 0 0-1.794 0l-1.237 2.506-2.765.402a1 1 0 0 0-.554 1.706l2 1.95-.472 2.755a1 1 0 0 0 1.451 1.054l2.474-1.3 2.474 1.3a1 1 0 0 0 1.45-1.054l-.472-2.755 2.001-1.95a1 1 0 0 0-.554-1.706l-2.765-.402zm-1.47 3.862.573-1.16.573 1.16a1 1 0 0 0 .753.548l1.28.186-.926.903a1 1 0 0 0-.288.885l.219 1.276-1.146-.603a1 1 0 0 0-.93 0l-1.146.603.219-1.276a1 1 0 0 0-.288-.885l-.926-.903 1.28-.186a1 1 0 0 0 .753-.548"/></svg>