<svg xmlns="http://www.w3.org/2000/svg" width="16" height="16" viewBox="0 0 16 16"><path fill-rule="evenodd" d="M3.499 3.503h.88a.75.75 0 0 0 .704.494h5.826a.75.75 0 0 0 .705-.494h.889v9.998H3.499zm9.254-1.5h-1.105A1.75 1.75 0 0 0 9.915.497H6.089a1.75 1.75 0 0 0-1.733 1.506H3.249c-.69 0-1.25.56-1.25 1.25v10.498c0 .69.56 1.25 1.25 1.25h9.504c.69 0 1.25-.56 1.25-1.25V3.253c0-.69-.56-1.25-1.25-1.25m-6.664-.006a.25.25 0 0 0-.25.249l-.001.251h4.325l.002-.248a.25.25 0 0 0-.25-.252zm2.625 3.387a.75.75 0 0 0-1.345 0L6.59 6.962l-1.74.252a.75.75 0 0 0-.417 1.28l1.26 1.227-.297 1.734a.75.75 0 0 0 1.088.79l1.556-.818 1.557.818a.75.75 0 0 0 1.088-.79L10.39 9.72l1.26-1.227a.75.75 0 0 0-.416-1.28l-1.74-.252zM7.761 7.98l.28-.568.28.568a.75.75 0 0 0 .565.41l.627.091-.453.442a.75.75 0 0 0-.216.664l.107.625-.56-.295a.75.75 0 0 0-.699 0l-.56.295.107-.625a.75.75 0 0 0-.216-.664L6.57 8.48l.626-.09a.75.75 0 0 0 .565-.411"/></svg>