<svg xmlns="http://www.w3.org/2000/svg" width="24" height="24" viewBox="0 0 24 24"><path fill-rule="evenodd" d="M6.754 5.504h1.028v.128a.75.75 0 0 0 .75.755h6.93a.75.75 0 0 0 .75-.746v-.137h1.038a.25.25 0 0 1 .25.25v13.491a.25.25 0 0 1-.25.25H6.754a.25.25 0 0 1-.25-.25V5.754a.25.25 0 0 1 .25-.25m10.496-1.5h-1.048a1.75 1.75 0 0 0-1.732-1.497H9.54c-.88 0-1.61.65-1.732 1.497H6.754a1.75 1.75 0 0 0-1.75 1.75v13.491c0 .967.784 1.75 1.75 1.75H17.25a1.75 1.75 0 0 0 1.75-1.75V5.754a1.75 1.75 0 0 0-1.75-1.75m-7.71.003a.25.25 0 0 0-.25.249l-.004.63h5.43l.004-.627a.25.25 0 0 0-.25-.252zm3.183 4.304a.75.75 0 0 0-1.345 0l-.959 1.943-2.144.312a.75.75 0 0 0-.416 1.279l1.552 1.512-.367 2.136a.75.75 0 0 0 1.088.79l1.919-1.008 1.918 1.009a.75.75 0 0 0 1.088-.79l-.367-2.137 1.552-1.512a.75.75 0 0 0-.415-1.28l-2.145-.311zm-1.133 2.96.46-.934.462.934a.75.75 0 0 0 .564.41l1.031.15-.746.727a.75.75 0 0 0-.216.664l.177 1.027-.922-.485a.75.75 0 0 0-.698 0l-.922.485.176-1.027a.75.75 0 0 0-.216-.664l-.746-.727 1.03-.15a.75.75 0 0 0 .566-.41"/></svg>