<svg xmlns="http://www.w3.org/2000/svg" width="16" height="16" fill="none" viewBox="0 0 16 16"><path fill="currentColor" fill-rule="evenodd" d="M11.062 3.59c-1.152.236-2.314.676-2.936 1.298-.417.416-1.078 1.44-1.674 2.449-.287.487-.545.944-.73 1.28l-.033.059.812.812.006.005.005.006.812.812.06-.033c.335-.185.792-.443 1.279-.73 1.009-.596 2.033-1.257 2.45-1.674.621-.622 1.06-1.784 1.298-2.936A9.217 9.217 0 0 0 12.6 3.4l-.094.003a9.217 9.217 0 0 0-1.445.187m-5.613 6.967-.003-.003-.003-.003c-.237-.234-.693-.264-1.021.064-.065.065-.187.236-.337.523a7.798 7.798 0 0 0-.53 1.307 7.805 7.805 0 0 0 1.307-.53c.287-.15.458-.272.523-.337.328-.328.298-.784.064-1.021M3.36 9.555a2.34 2.34 0 0 1 .436-.343l-2.164-.927a.75.75 0 0 1-.234-1.22l1.877-1.877a1.25 1.25 0 0 1 .884-.366h2.11c.279-.4.553-.753.795-.995.945-.945 2.475-1.456 3.694-1.707.63-.13 1.223-.2 1.69-.217a4.47 4.47 0 0 1 .635.014c.09.01.193.027.293.055.075.022.259.08.415.236.156.156.214.34.236.415.028.1.045.202.055.293.02.185.023.403.014.635a10.698 10.698 0 0 1-.217 1.69c-.251 1.219-.762 2.749-1.707 3.694-.242.242-.595.516-.995.795v2.11c0 .332-.131.65-.366.884l-1.877 1.877a.75.75 0 0 1-1.22-.235l-.927-2.163c-.095.156-.21.303-.343.436-.231.232-.57.438-.888.605a9.292 9.292 0 0 1-1.086.476 6.752 6.752 0 0 1-1.063.305c-.158.028-.333.05-.501.044-.121-.005-.447-.025-.699-.277-.252-.252-.273-.578-.277-.699a2.38 2.38 0 0 1 .044-.5c.059-.323.171-.699.305-1.064.135-.368.3-.75.476-1.086.167-.319.373-.657.605-.888m4.788 2.015a54.705 54.705 0 0 0 1.53-.881v1.048l-1.021 1.02-.51-1.187M4.263 6.321h1.048l-.15.252a54.7 54.7 0 0 0-.73 1.277l-1.188-.509zm4.142-.346a1.145 1.145 0 1 1 1.619 1.62 1.145 1.145 0 0 1-1.62-1.62M2.96 12.57c-.02 0-.015-.003.005 0zm.47.463c.002.02 0 .025 0 .007v-.006"/></svg>