<svg xmlns="http://www.w3.org/2000/svg" width="24" height="24" viewBox="0 0 24 24"><path fill-rule="evenodd" d="M15.667 7.058c-1.371.23-2.842.75-3.755 1.663-.63.629-1.308 1.548-1.844 2.337-.232.342-.432.653-.583.893l3.3 3.3c.259-.139.604-.329.985-.554.83-.492 1.773-1.122 2.384-1.734.901-.9 1.383-2.398 1.573-3.816a10 10 0 0 0 .086-1.799 5 5 0 0 0-.037-.407q-.15-.017-.37-.022a9.6 9.6 0 0 0-1.74.14m2.063-.34v.002zm-5.79 9.808.354 3.516a.75.75 0 0 0 1.277.455l2.699-2.7a1.5 1.5 0 0 0 .436-1.148l-.12-2.061a9 9 0 0 0 .629-.564c1.25-1.25 1.794-3.147 1.999-4.677.105-.781.127-1.51.097-2.079a5 5 0 0 0-.087-.755 2 2 0 0 0-.09-.32 1.1 1.1 0 0 0-.237-.386 1.1 1.1 0 0 0-.392-.24 2 2 0 0 0-.323-.082 5 5 0 0 0-.742-.066 11 11 0 0 0-2.022.16c-1.491.25-3.329.843-4.567 2.081-.193.193-.387.406-.578.63L8.225 8.17a1.5 1.5 0 0 0-1.149.436l-2.699 2.7a.75.75 0 0 0 .455 1.276l3.516.355zm1.514.068.174 1.724 1.581-1.58-.066-1.124q-.317.2-.608.373c-.422.25-.803.459-1.082.607M8.137 9.666l1.028.06q-.18.256-.339.49a34 34 0 0 0-.766 1.183l-1.504-.152zm5.541 1.53a.5.5 0 1 0 .707-.708.5.5 0 0 0-.707.708m-1.06 1.06a2 2 0 1 0 2.828-2.828 2 2 0 0 0-2.828 2.828m-4.301 5.009-.028.023q-.031.024-.092.062-.122.078-.325.17a5.5 5.5 0 0 1-.796.278 5.4 5.4 0 0 1 .279-.796q.091-.202.169-.325.038-.06.062-.091.022-.029.024-.029c.302-.302.655-.223.792-.085.138.137.217.49-.085.793m1.06 1.06c-.828.829-3.426 1.406-3.83 1.002s.173-3.002 1.002-3.83c.828-.829 2.133-.867 2.914-.086s.743 2.086-.086 2.914"/></svg>