<svg xmlns="http://www.w3.org/2000/svg" width="32" height="32" fill="none" viewBox="0 0 32 32"><path fill="currentColor" fill-rule="evenodd" d="M21.4 8.827c-1.93.367-4.04 1.156-5.4 2.516-.925.925-1.945 2.28-2.751 3.436-.371.533-.69 1.013-.924 1.374l4.522 4.522c.36-.234.841-.553 1.374-.924 1.157-.806 2.51-1.826 3.436-2.751 1.36-1.36 2.149-3.47 2.516-5.4a13.1 13.1 0 0 0 .247-2.45 5.775 5.775 0 0 0-.027-.543 5.748 5.748 0 0 0-.544-.027c-.638-.004-1.5.066-2.45.247M15.763 22.42l.66 4.62a1 1 0 0 0 1.697.566l3.912-3.912a2 2 0 0 0 .577-1.595l-.272-3c.259-.229.506-.458.733-.686 1.77-1.769 2.667-4.337 3.067-6.439.203-1.066.287-2.058.282-2.838a6.597 6.597 0 0 0-.08-1.046 2.741 2.741 0 0 0-.114-.454A1.44 1.44 0 0 0 25.9 7.1a1.438 1.438 0 0 0-.537-.327 2.73 2.73 0 0 0-.454-.115 6.6 6.6 0 0 0-1.046-.079c-.78-.005-1.772.08-2.838.282-2.102.4-4.67 1.298-6.44 3.067-.227.227-.456.474-.685.733l-3-.272a2 2 0 0 0-1.595.577L5.393 14.88a1 1 0 0 0 .566 1.697l4.62.66 5.185 5.185m4.702-1.82a53.316 53.316 0 0 1-2.61 1.805l-.068.042.333 2.33 2.498-2.497-.153-1.68m-9.747-8.22 1.68.153a53.681 53.681 0 0 0-1.805 2.61l-.042.068-2.33-.333 2.497-2.497m7.402 2.498a1 1 0 1 0 1.415-1.415 1 1 0 0 0-1.415 1.415m-1.414 1.414a3 3 0 1 0 4.243-4.243 3 3 0 0 0-4.243 4.243m-5.785 7.2c-.056.055-.258.207-.675.385a7.28 7.28 0 0 1-1.582.457 7.664 7.664 0 0 1 .457-1.582c.178-.417.33-.62.385-.675.542-.54 1.23-.441 1.543-.128.313.313.413 1.002-.128 1.543m1.414 1.414c-1.243 1.242-4.922 1.892-5.528 1.285-.606-.606.043-4.285 1.285-5.528 1.243-1.242 3.2-1.3 4.371-.128 1.172 1.171 1.114 3.128-.128 4.37"/></svg>