<svg xmlns="http://www.w3.org/2000/svg" width="24" height="24" viewBox="0 0 24 24"><path fill-rule="evenodd" d="M15.667 7.058c-1.371.23-2.842.75-3.755 1.663-.63.629-1.308 1.548-1.844 2.337-.232.342-.432.653-.583.893l3.3 3.3c.259-.139.604-.329.985-.554.83-.492 1.773-1.122 2.384-1.734.901-.9 1.383-2.398 1.573-3.816a10.01 10.01 0 0 0 .086-1.799 4.7 4.7 0 0 0-.037-.407c-.1-.01-.223-.02-.37-.022a9.545 9.545 0 0 0-1.74.14m2.063-.34v.002a.055.055 0 0 1 0-.003m-5.79 9.808.354 3.516a.75.75 0 0 0 1.277.455l2.699-2.7a1.5 1.5 0 0 0 .436-1.148l-.12-2.061a8.48 8.48 0 0 0 .629-.564c1.25-1.25 1.794-3.147 1.999-4.677.105-.781.127-1.51.097-2.079a5.31 5.31 0 0 0-.087-.755 2.158 2.158 0 0 0-.09-.32 1.071 1.071 0 0 0-.237-.386 1.055 1.055 0 0 0-.392-.24 2.03 2.03 0 0 0-.323-.082 4.942 4.942 0 0 0-.742-.066 11.033 11.033 0 0 0-2.022.16c-1.491.25-3.329.843-4.567 2.081-.193.193-.387.406-.578.63l-2.047-.121a1.5 1.5 0 0 0-1.149.436l-2.699 2.7a.75.75 0 0 0 .455 1.276l3.516.355 3.59 3.59m1.514.068.174 1.724 1.581-1.58-.066-1.124a26.435 26.435 0 0 1-1.69.98M8.137 9.666l1.028.06A33.455 33.455 0 0 0 8.061 11.4l-1.504-.152 1.58-1.581m5.541 1.53a.5.5 0 1 0 .707-.708.5.5 0 0 0-.707.708m-1.06 1.06a2 2 0 1 0 2.828-2.828 2 2 0 0 0-2.828 2.828m-4.301 5.009-.028.023a1.082 1.082 0 0 1-.092.062c-.081.051-.19.109-.325.17a5.456 5.456 0 0 1-.796.278 5.41 5.41 0 0 1 .279-.796 2.69 2.69 0 0 1 .169-.325 1.216 1.216 0 0 1 .086-.12c.302-.302.655-.223.792-.085.138.137.217.49-.085.793m1.06 1.06c-.828.829-3.426 1.406-3.83 1.002-.404-.404.173-3.002 1.002-3.83.828-.829 2.133-.867 2.914-.086.781.781.743 2.086-.086 2.914"/></svg>