<svg xmlns="http://www.w3.org/2000/svg" width="24" height="24" viewBox="0 0 24 24"><path fill-rule="evenodd" d="M12.37 2.971c.911-1.042 2.629-.397 2.629.988v3.547h3.552a2.45 2.45 0 0 1 1.85.82 2.4 2.4 0 0 1 .571 1.942l-.002.013-1.156 6.688a2.4 2.4 0 0 1-.83 1.463 2.44 2.44 0 0 1-1.59.568H5.427a2.44 2.44 0 0 1-1.712-.699A2.4 2.4 0 0 1 3 16.6v-5.775c0-.64.259-1.252.715-1.701a2.44 2.44 0 0 1 1.712-.7H7.6zM7.191 9.925H5.427a.94.94 0 0 0-.66.268.9.9 0 0 0-.267.632V16.6c0 .235.095.462.267.632a.94.94 0 0 0 .66.268h1.765zm1.5 7.575h8.714a.94.94 0 0 0 .615-.218.9.9 0 0 0 .312-.549l.002-.013 1.156-6.686a.88.88 0 0 0-.215-.714.95.95 0 0 0-.714-.314H15a1.5 1.5 0 0 1-1.5-1.5V3.96L8.69 9.457z"/></svg>