<svg xmlns="http://www.w3.org/2000/svg" width="16" height="16" viewBox="0 0 16 16"><path fill-rule="evenodd" d="M3.5 12.5v-9h9v9zM2 3a1 1 0 0 1 1-1h10a1 1 0 0 1 1 1v10a1 1 0 0 1-1 1H3a1 1 0 0 1-1-1zm5.298 3.497c0-.167.042-.242.068-.277a.4.4 0 0 1 .177-.129C7.743 6.003 7.973 6 8 6c.315 0 .487.056.572.099.08.039.106.077.116.092a.75.75 0 1 0 1.274-.79C9.64 4.879 9.01 4.5 8 4.5h-.002c-.076 0-.567 0-1.064.22a1.93 1.93 0 0 0-.777.612 1.93 1.93 0 0 0-.36 1.165c0 .469.141.867.385 1.181.236.304.535.488.796.6a2.8 2.8 0 0 0 .984.216h.036l.031.002a1.7 1.7 0 0 1 .55.125q.209.091.305.217c.056.073.116.19.116.41 0 .23-.06.353-.112.424a.66.66 0 0 1-.275.205A1.7 1.7 0 0 1 8 10c-.593 0-.814-.199-.899-.299a.6.6 0 0 1-.112-.206.75.75 0 0 0-1.481.234l.715-.102-.715.103v.008l.003.011a1 1 0 0 0 .02.1q.02.087.068.215c.063.169.173.389.358.607.393.464 1.047.829 2.043.829h.002c.085 0 .65 0 1.22-.252.296-.132.623-.345.875-.688.258-.351.403-.792.403-1.313 0-.533-.16-.978-.431-1.329-.264-.34-.6-.547-.898-.675a3.2 3.2 0 0 0-1.13-.248h-.035l-.023-.002A1.3 1.3 0 0 1 7.57 6.9a.5.5 0 0 1-.203-.14c-.028-.037-.07-.107-.07-.262m-.306 3.018V9.51l-.002-.006-.001-.008v-.002.002m.003.02-.742.108.742-.107M8 7.684v-.69.747zm0 .81v-.112z"/></svg>