<svg xmlns="http://www.w3.org/2000/svg" width="32" height="32" viewBox="0 0 32 32"><path fill-rule="evenodd" d="M24 8H8v16h16zM8 6a2 2 0 0 0-2 2v16a2 2 0 0 0 2 2h16a2 2 0 0 0 2-2V8a2 2 0 0 0-2-2z"/><path fill-rule="evenodd" d="M14.807 12.336c-.1.157-.198.415-.198.846 0 .42.102.67.206.827.108.162.26.282.44.372a1.9 1.9 0 0 0 .75.192h.018a3 3 0 0 1 .166.008c.102.008.242.022.407.05.326.054.776.164 1.236.395.465.232.958.595 1.334 1.158.379.569.599 1.284.599 2.154 0 .858-.203 1.567-.56 2.135a3.3 3.3 0 0 1-1.293 1.172c-.886.458-1.777.458-1.91.458H16c-1.685 0-2.704-.654-3.254-1.478a3.1 3.1 0 0 1-.51-1.517v-.054l-.001-.006v-.004l.947-.001h-.947a.947.947 0 1 1 1.896 0q.002.04.02.125c.025.114.076.262.172.406.155.233.544.635 1.677.635.058 0 .571-.003 1.042-.247.222-.114.416-.273.56-.5.142-.224.268-.572.268-1.124 0-.538-.132-.88-.28-1.103a1.53 1.53 0 0 0-.605-.515 2.5 2.5 0 0 0-.985-.252h-.022l-.036-.001-.11-.006a3.8 3.8 0 0 1-1.425-.385 3 3 0 0 1-1.168-1.016c-.334-.502-.525-1.127-.525-1.878 0-.737.175-1.356.49-1.857a2.9 2.9 0 0 1 1.135-1.03c.77-.398 1.541-.398 1.659-.398H16c.783 0 1.423.164 1.932.458a2.7 2.7 0 0 1 1.038 1.067.947.947 0 0 1-1.673.89.8.8 0 0 0-.313-.317c-.168-.097-.467-.204-.984-.204-.043 0-.436.003-.791.187a1 1 0 0 0-.402.358M16 14.573l-.001.872v.076zm0 1.712-.001.183z"/></svg>