<svg xmlns="http://www.w3.org/2000/svg" width="24" height="24" viewBox="0 0 24 24"><path fill-rule="evenodd" d="M5.5 5.5h13v13h-13zM4 5.5A1.5 1.5 0 0 1 5.5 4h13A1.5 1.5 0 0 1 20 5.5v13a1.5 1.5 0 0 1-1.5 1.5h-13A1.5 1.5 0 0 1 4 18.5zm6.898 4.269c0-.342.079-.546.157-.67a.8.8 0 0 1 .319-.284c.28-.145.592-.148.626-.148.41 0 .646.085.78.162a.6.6 0 0 1 .247.251.75.75 0 0 0 1.324-.705 2.1 2.1 0 0 0-.821-.845c-.403-.233-.91-.363-1.53-.363h-.002c-.093 0-.703 0-1.313.316a2.3 2.3 0 0 0-.899.815c-.25.397-.388.887-.388 1.47 0 .595.151 1.09.416 1.487.261.393.604.645.925.805a3 3 0 0 0 1.215.31H12a1.4 1.4 0 0 1 .225.025c.16.027.362.079.555.175.19.095.357.226.478.408.119.177.223.447.223.874 0 .436-.1.711-.213.89s-.267.305-.443.395a1.94 1.94 0 0 1-.825.195c-.897 0-1.205-.318-1.328-.502a.96.96 0 0 1-.153-.434.75.75 0 0 0-1.5.013h.75l-.75.001v.02a1 1 0 0 0 .008.122 2.46 2.46 0 0 0 .397 1.11c.435.652 1.242 1.17 2.576 1.17h.002c.105 0 .81 0 1.512-.362.365-.188.74-.481 1.023-.929.284-.45.444-1.01.444-1.69 0-.689-.174-1.255-.474-1.705a2.7 2.7 0 0 0-1.056-.918 3.5 3.5 0 0 0-1.433-.357h-.014l-.03-.002a1.6 1.6 0 0 1-.564-.15.9.9 0 0 1-.348-.296c-.083-.124-.164-.322-.164-.654M12 11.56v-.69.75zm0 .81v-.146z"/></svg>