<svg xmlns="http://www.w3.org/2000/svg" width="24" height="24" viewBox="0 0 24 24"><path fill-rule="evenodd" d="M11.083 3a.75.75 0 0 0-.689.455l-.763 1.78q-.38.132-.74.306l-1.798-.72a.75.75 0 0 0-.809.167L4.988 6.284a.75.75 0 0 0-.166.81l.72 1.797q-.174.36-.308.74l-1.78.763a.75.75 0 0 0-.454.69v1.833c0 .3.179.57.455.689l1.78.763q.132.38.306.74l-.719 1.798a.75.75 0 0 0 .166.809l1.296 1.296a.75.75 0 0 0 .81.166l1.797-.72q.36.174.74.308l.763 1.78a.75.75 0 0 0 .69.454h1.833a.75.75 0 0 0 .69-.455l.762-1.78q.38-.132.74-.306l1.798.72a.75.75 0 0 0 .809-.167l1.296-1.296a.75.75 0 0 0 .166-.81l-.719-1.797q.174-.36.307-.74l1.78-.763a.75.75 0 0 0 .454-.69v-1.833a.75.75 0 0 0-.454-.69l-1.78-.762-.067-.184a.684.684 0 0 0-.825-.399c-.456.123-.676.642-.52 1.089q.044.13.083.26a.75.75 0 0 0 .424.479l1.64.702v.844l-1.64.702a.75.75 0 0 0-.424.478 5.6 5.6 0 0 1-.46 1.109.75.75 0 0 0-.038.638l.663 1.656-.597.597-1.656-.663a.75.75 0 0 0-.638.038q-.525.288-1.109.46a.75.75 0 0 0-.477.424l-.703 1.639h-.844l-.702-1.639a.75.75 0 0 0-.478-.424 5.6 5.6 0 0 1-1.109-.46.75.75 0 0 0-.638-.038l-1.656.663-.597-.597.663-1.656a.75.75 0 0 0-.038-.638q-.288-.525-.46-1.109a.75.75 0 0 0-.424-.478L4.5 12.422v-.844l1.639-.703a.75.75 0 0 0 .424-.477q.172-.584.46-1.11a.75.75 0 0 0 .038-.637l-.663-1.656.597-.597 1.656.663a.75.75 0 0 0 .638-.039q.525-.286 1.109-.46a.75.75 0 0 0 .478-.423l.702-1.639h.844l.702 1.639a.75.75 0 0 0 .478.424q.132.04.261.083c.447.156.966-.063 1.089-.52.091-.34-.07-.7-.399-.824l-.184-.068-.763-1.78a.75.75 0 0 0-.69-.454zM12 8.133a3.867 3.867 0 1 0 0 7.734 3.867 3.867 0 0 0 0-7.734M9.633 12a2.367 2.367 0 1 1 4.734 0 2.367 2.367 0 0 1-4.734 0"/><path fill="var(--hop-Icon-primary-icon, #3B57FF)" d="M19 8a3 3 0 1 0 0-6 3 3 0 0 0 0 6"/></svg>