<svg xmlns="http://www.w3.org/2000/svg" width="32" height="32" viewBox="0 0 32 32"><path fill-rule="evenodd" d="M14.778 4a1 1 0 0 0-.92.606L12.843 6.98a10 10 0 0 0-.987.409L9.458 6.43a1 1 0 0 0-1.079.222L6.651 8.379a1 1 0 0 0-.222 1.078l.96 2.398q-.233.48-.41.986L4.606 13.86a1 1 0 0 0-.606.919v2.444a1 1 0 0 0 .606.92l2.373 1.016q.178.508.41.987l-.96 2.398a1 1 0 0 0 .222 1.078l1.728 1.729a1 1 0 0 0 1.079.22l2.397-.958q.48.23.987.409l1.017 2.373a1 1 0 0 0 .919.606h2.444a1 1 0 0 0 .92-.606l1.017-2.373a10 10 0 0 0 .986-.41l2.398.96a1 1 0 0 0 1.078-.222l1.729-1.728a1 1 0 0 0 .221-1.078l-.959-2.398q.23-.48.41-.987l2.372-1.017a1 1 0 0 0 .606-.919v-2.444a1 1 0 0 0-.606-.92l-2.373-1.017-.09-.245c-.166-.437-.646-.653-1.099-.532-.609.164-.901.856-.694 1.452q.06.171.112.348a1 1 0 0 0 .565.637l2.185.936v1.126l-2.185.936a1 1 0 0 0-.565.637 7.5 7.5 0 0 1-.613 1.479 1 1 0 0 0-.051.85l.883 2.208-.796.796-2.208-.883a1 1 0 0 0-.85.05q-.7.383-1.479.614a1 1 0 0 0-.637.565L16.563 26h-1.126l-.936-2.185a1 1 0 0 0-.637-.566 7.5 7.5 0 0 1-1.478-.612 1 1 0 0 0-.851-.051l-2.208.883-.796-.796.883-2.208a1 1 0 0 0-.05-.85 7.5 7.5 0 0 1-.613-1.479 1 1 0 0 0-.566-.637L6 16.563v-1.126l2.185-.936a1 1 0 0 0 .566-.637 7.5 7.5 0 0 1 .612-1.479 1 1 0 0 0 .051-.85l-.883-2.208.796-.796 2.208.883a1 1 0 0 0 .85-.05q.7-.384 1.479-.614a1 1 0 0 0 .637-.565L15.437 6h1.126l.936 2.185a1 1 0 0 0 .637.565q.177.052.349.112c.595.207 1.287-.085 1.451-.694.122-.453-.094-.932-.532-1.1l-.246-.09-1.017-2.372A1 1 0 0 0 17.223 4zM16 10.844a5.156 5.156 0 1 0 0 10.312 5.156 5.156 0 0 0 0-10.312M12.845 16a3.156 3.156 0 1 1 6.31 0 3.156 3.156 0 0 1-6.31 0"/><path fill="#3B57FF" d="M25 11a4 4 0 1 0 0-8 4 4 0 0 0 0 8"/></svg>