<svg xmlns="http://www.w3.org/2000/svg" width="16" height="16" viewBox="0 0 16 16"><path fill-rule="evenodd" d="M7.306 1a.75.75 0 0 0-.69.455L6.07 2.73q-.22.081-.431.18L4.35 2.393a.75.75 0 0 0-.81.166l-.981.982a.75.75 0 0 0-.166.809l.515 1.288q-.098.21-.179.43l-1.275.547a.75.75 0 0 0-.454.69v1.388c0 .3.178.572.454.69l1.275.546q.081.22.179.43l-.515 1.29a.75.75 0 0 0 .166.808l.982.982a.75.75 0 0 0 .809.166l1.288-.515q.21.098.43.179l.547 1.275a.75.75 0 0 0 .69.454h1.388a.75.75 0 0 0 .69-.454l.546-1.275q.22-.081.431-.179l1.288.515a.75.75 0 0 0 .81-.166l.981-.982a.75.75 0 0 0 .166-.809l-.515-1.288q.098-.21.179-.43l1.275-.547a.75.75 0 0 0 .454-.69V7.306a.75.75 0 0 0-.454-.69L13.27 6.07a.68.68 0 0 0-.858-.344l-.071.027a.76.76 0 0 0-.43 1.003l.033.082a.75.75 0 0 0 .424.477L13.5 7.8v.4l-1.13.485a.75.75 0 0 0-.425.477 4 4 0 0 1-.333.804.75.75 0 0 0-.038.638l.457 1.143-.283.283-1.143-.457a.75.75 0 0 0-.638.038q-.38.208-.804.333a.75.75 0 0 0-.477.424L8.2 13.5h-.4l-.485-1.13a.75.75 0 0 0-.477-.425 4 4 0 0 1-.805-.333.75.75 0 0 0-.638-.038l-1.142.457-.283-.283.457-1.143a.75.75 0 0 0-.038-.638 4 4 0 0 1-.333-.804.75.75 0 0 0-.424-.477L2.5 8.2v-.4l1.13-.485a.75.75 0 0 0 .425-.477 4 4 0 0 1 .333-.804.75.75 0 0 0 .038-.638L3.97 4.253l.283-.283 1.142.457a.75.75 0 0 0 .638-.038 4 4 0 0 1 .805-.333.75.75 0 0 0 .477-.424L7.8 2.5h.4l.485 1.13a.75.75 0 0 0 .477.425l.082.034a.76.76 0 0 0 1.003-.43l.027-.072a.68.68 0 0 0-.344-.858l-.546-1.275A.75.75 0 0 0 8.694 1zM6.86 8a1.14 1.14 0 1 1 2.28 0 1.14 1.14 0 0 1-2.28 0M8 5.36a2.64 2.64 0 1 0 0 5.28 2.64 2.64 0 0 0 0-5.28"/><path fill="#E57723" d="M13 5a2 2 0 1 0 0-4 2 2 0 0 0 0 4"/></svg>