<svg xmlns="http://www.w3.org/2000/svg" width="24" height="24" viewBox="0 0 24 24"><path fill-rule="evenodd" d="M10.407 3.467a.75.75 0 0 1 .689-.454h1.833c.3 0 .572.178.69.454l.763 1.78q.38.133.74.307l1.798-.72a.75.75 0 0 1 .808.167l1.297 1.296a.75.75 0 0 1 .166.809l-.72 1.798q.174.36.308.74l1.78.763a.75.75 0 0 1 .454.689v1.833a.75.75 0 0 1-.455.69l-1.78.762q-.132.381-.306.74l.719 1.799a.75.75 0 0 1-.166.809l-1.296 1.296a.75.75 0 0 1-.81.166l-1.798-.72a7 7 0 0 1-.74.308l-.762 1.78a.75.75 0 0 1-.69.454h-1.833a.75.75 0 0 1-.69-.455l-.762-1.78a7 7 0 0 1-.74-.306l-1.798.719a.75.75 0 0 1-.809-.166l-1.296-1.296a.75.75 0 0 1-.166-.81l.719-1.798a7 7 0 0 1-.307-.74l-1.78-.762a.75.75 0 0 1-.454-.69v-1.833c0-.3.178-.571.454-.69l1.78-.762q.133-.38.307-.74l-.72-1.798a.75.75 0 0 1 .167-.81l1.296-1.295a.75.75 0 0 1 .809-.167l1.798.72q.36-.174.74-.307zm1.184 1.046-.703 1.638a.75.75 0 0 1-.477.425q-.584.172-1.11.46a.75.75 0 0 1-.637.037l-1.656-.662-.597.597.662 1.656a.75.75 0 0 1-.038.638q-.286.525-.46 1.109a.75.75 0 0 1-.424.477l-1.638.703v.844l1.638.702a.75.75 0 0 1 .425.478q.172.584.46 1.109a.75.75 0 0 1 .037.638l-.662 1.655.597.598 1.656-.663a.75.75 0 0 1 .638.038q.525.287 1.109.46a.75.75 0 0 1 .477.424l.703 1.639h.844l.702-1.639a.75.75 0 0 1 .478-.424 5.6 5.6 0 0 0 1.109-.46.75.75 0 0 1 .638-.038l1.655.663.598-.597-.663-1.656a.75.75 0 0 1 .038-.638q.287-.525.46-1.11a.75.75 0 0 1 .424-.477l1.639-.702v-.844l-1.639-.703a.75.75 0 0 1-.424-.477 5.6 5.6 0 0 0-.46-1.11.75.75 0 0 1-.038-.637l.662-1.656-.597-.597-1.655.662a.75.75 0 0 1-.638-.038q-.525-.286-1.11-.46a.75.75 0 0 1-.477-.424l-.702-1.638zm.422 5.133a2.367 2.367 0 1 0 0 4.733 2.367 2.367 0 0 0 0-4.733m-3.867 2.367a3.867 3.867 0 1 1 7.733 0 3.867 3.867 0 0 1-7.733 0"/></svg>