<svg xmlns="http://www.w3.org/2000/svg" width="32" height="32" viewBox="0 0 32 32"><path fill-rule="evenodd" d="M13.859 4.606A1 1 0 0 1 14.778 4h2.444a1 1 0 0 1 .92.606l1.016 2.373c.338.118.668.255.987.41l2.398-.96a1 1 0 0 1 1.078.222l1.729 1.728a1 1 0 0 1 .221 1.079l-.959 2.397c.154.32.29.649.41.986l2.372 1.018a1 1 0 0 1 .606.919v2.444a1 1 0 0 1-.606.92l-2.373 1.016a9.484 9.484 0 0 1-.409.987l.959 2.398a1 1 0 0 1-.221 1.078l-1.729 1.728a1 1 0 0 1-1.078.222l-2.398-.96a9.48 9.48 0 0 1-.986.41l-1.017 2.373a1 1 0 0 1-.92.606h-2.444a1 1 0 0 1-.92-.606l-1.016-2.373a9.487 9.487 0 0 1-.987-.41l-2.397.96a1 1 0 0 1-1.079-.222l-1.728-1.728a1 1 0 0 1-.222-1.078l.96-2.398a9.506 9.506 0 0 1-.41-.987l-2.373-1.017A1 1 0 0 1 4 17.222v-2.444a1 1 0 0 1 .606-.92l2.373-1.017c.119-.337.255-.667.41-.986l-.96-2.398a1 1 0 0 1 .222-1.078l1.728-1.728a1 1 0 0 1 1.079-.222l2.397.959c.32-.154.649-.29.987-.41l1.017-2.372M15.437 6l-.936 2.185a1 1 0 0 1-.637.565 7.501 7.501 0 0 0-1.479.613 1 1 0 0 1-.85.051l-2.208-.883-.796.796.883 2.208a1 1 0 0 1-.05.85c-.255.466-.461.96-.613 1.479a1 1 0 0 1-.566.637L6 15.437v1.126l2.185.936a1 1 0 0 1 .566.637 7.5 7.5 0 0 0 .613 1.479 1 1 0 0 1 .05.85l-.883 2.208.796.796 2.208-.883a1 1 0 0 1 .85.05 7.51 7.51 0 0 0 1.479.614 1 1 0 0 1 .637.565L15.437 26h1.126l.936-2.185a1 1 0 0 1 .637-.566 7.509 7.509 0 0 0 1.479-.612 1 1 0 0 1 .85-.051l2.208.883.796-.796-.883-2.208a1 1 0 0 1 .05-.85 7.51 7.51 0 0 0 .614-1.479 1 1 0 0 1 .565-.637L26 16.563v-1.126l-2.185-.936a1 1 0 0 1-.565-.637 7.501 7.501 0 0 0-.613-1.479 1 1 0 0 1-.051-.85l.883-2.208-.796-.796-2.207.883a1 1 0 0 1-.851-.05 7.503 7.503 0 0 0-1.479-.614 1 1 0 0 1-.637-.565L16.563 6zM16 12.844a3.156 3.156 0 1 0 0 6.312 3.156 3.156 0 0 0 0-6.312M10.845 16a5.156 5.156 0 1 1 10.31 0 5.156 5.156 0 0 1-10.31 0"/></svg>