<svg xmlns="http://www.w3.org/2000/svg" width="24" height="24" viewBox="0 0 24 24"><path fill-rule="evenodd" d="M12.693 8.46a2.96 2.96 0 1 1-5.919 0 2.96 2.96 0 0 1 5.92 0m1.5 0a4.46 4.46 0 1 1-8.919 0 4.46 4.46 0 0 1 8.92 0M8 15.553h3.467a2.5 2.5 0 0 1 2.5 2.5v.446H5.5v-.446a2.5 2.5 0 0 1 2.5-2.5m-4 2.5a4 4 0 0 1 4-4h3.467a4 4 0 0 1 4 4v1.196a.75.75 0 0 1-.75.75H4.75a.75.75 0 0 1-.75-.75zm9.615-5.498a4.851 4.851 0 0 0-.406-8.425 4.303 4.303 0 1 1 .406 8.425M19.25 20h-2.502a.75.75 0 0 0 .47-.696v-1.567a4 4 0 0 0-2.437-3.683H16a4 4 0 0 1 4 4v1.196a.75.75 0 0 1-.75.75"/></svg>