<svg xmlns="http://www.w3.org/2000/svg" width="16" height="16" viewBox="0 0 16 16"><path fill-rule="evenodd" d="M8.11 5.344a1.844 1.844 0 1 1-3.69 0 1.844 1.844 0 0 1 3.69 0m1.5 0a3.344 3.344 0 1 1-6.69 0 3.344 3.344 0 0 1 6.69 0m-2.8 4.197a3.755 3.755 0 0 1 3.754 3.755.704.704 0 0 1-.704.704H2.668a.704.704 0 0 1-.704-.704A3.755 3.755 0 0 1 5.72 9.54h1.09m-1.09 1.5h1.09c.965 0 1.788.606 2.11 1.459H3.609a2.256 2.256 0 0 1 2.11-1.46m2.882-2.536a3.346 3.346 0 0 0 0-6.32 3.344 3.344 0 1 1 0 6.32M13.296 14H11.1a.704.704 0 0 0 .704-.704A3.756 3.756 0 0 0 8.602 9.58c.18-.027.365-.04.553-.04h1.09A3.755 3.755 0 0 1 14 13.296a.704.704 0 0 1-.704.704"/></svg>