<svg xmlns="http://www.w3.org/2000/svg" width="32" height="32" fill="none" viewBox="0 0 32 32"><path fill="currentColor" fill-rule="evenodd" d="M16.741 11.574a3.574 3.574 0 1 1-7.148 0 3.574 3.574 0 0 1 7.148 0m2 0a5.574 5.574 0 1 1-11.148 0 5.574 5.574 0 0 1 11.148 0M10 20.568h6.334a2 2 0 0 1 2 2V24H8v-1.432a2 2 0 0 1 2-2m-4 2a4 4 0 0 1 4-4h6.334a4 4 0 0 1 4 4v2.682a.75.75 0 0 1-.75.75H6.75a.75.75 0 0 1-.75-.75zm12.018-5.873a6.064 6.064 0 0 0-.507-10.532 5.378 5.378 0 1 1 .507 10.532M25.25 26h-3.167a.75.75 0 0 0 .438-.682v-3.146a4 4 0 0 0-2.262-3.604H22a4 4 0 0 1 4 4v2.682a.75.75 0 0 1-.75.75"/></svg>