<svg xmlns="http://www.w3.org/2000/svg" width="24" height="24" viewBox="0 0 24 24"><path fill-rule="evenodd" d="M12 17.5a5.5 5.5 0 1 0 0-11 5.5 5.5 0 0 0 0 11m0 1.5a7 7 0 0 0 6.71-5H20a2 2 0 1 0 0-4h-1.29a7.003 7.003 0 0 0-13.42 0H4a2 2 0 1 0 0 4h1.29c.86 2.892 3.539 5 6.71 5m8-6.5h-1.018a7 7 0 0 0 0-1H20a.5.5 0 0 1 0 1m-16-1h1.018a7 7 0 0 0 0 1H4a.5.5 0 0 1 0-1m8.75-1.75a.75.75 0 0 0-1.5 0v4.5a.75.75 0 0 0 1.5 0zm-3.5.25a.75.75 0 0 1 .75.75v2.5a.75.75 0 0 1-1.5 0v-2.5a.75.75 0 0 1 .75-.75m6.25.75a.75.75 0 0 0-1.5 0v2.5a.75.75 0 0 0 1.5 0z"/></svg>