<svg xmlns="http://www.w3.org/2000/svg" width="32" height="32" viewBox="0 0 32 32"><path fill-rule="evenodd" d="M16 24a8 8 0 1 0 0-16 8 8 0 0 0 0 16m0 2c4.478 0 8.268-2.943 9.542-7H27a3 3 0 1 0 0-6h-1.458C24.269 8.944 20.479 6 16 6s-8.268 2.943-9.542 7H5a3 3 0 1 0 0 6h1.458c1.274 4.057 5.064 7 9.542 7m11-9h-1.05a10 10 0 0 0 0-2H27a1 1 0 1 1 0 2M5 15h1.05a10 10 0 0 0 0 2H5a1 1 0 1 1 0-2m12-2a1 1 0 1 0-2 0v6a1 1 0 1 0 2 0zm-5 0a1 1 0 0 1 1 1v4a1 1 0 1 1-2 0v-4a1 1 0 0 1 1-1m9 1a1 1 0 1 0-2 0v4a1 1 0 1 0 2 0z"/></svg>