<svg xmlns="http://www.w3.org/2000/svg" width="32" height="32" fill="none" viewBox="0 0 32 32"><path fill="currentColor" fill-rule="evenodd" d="M12.5 4a1 1 0 0 1 .956.705l1.891 6.135 5.059 2.246a1 1 0 0 1 0 1.828l-5.059 2.246-1.891 6.135a1 1 0 0 1-1.912 0L9.653 17.16l-5.059-2.246a1 1 0 0 1 0-1.828l5.059-2.246 1.891-6.135A1 1 0 0 1 12.5 4m0 4.394-1.07 3.47a1 1 0 0 1-.55.62L7.464 14l3.416 1.517a1 1 0 0 1 .55.62l1.07 3.47 1.07-3.47a1 1 0 0 1 .55-.62L17.536 14l-3.416-1.517a1 1 0 0 1-.55-.62l-1.07-3.47M18 9a1 1 0 0 1 1-1h2a1 1 0 1 1 0 2h-2a1 1 0 0 1-1-1m7-1a1 1 0 1 0 0 2h2a1 1 0 1 0 0-2zm-2-4a1 1 0 0 1 1 1v2a1 1 0 1 1-2 0V5a1 1 0 0 1 1-1m1 7a1 1 0 1 0-2 0v2a1 1 0 1 0 2 0zm-8 12a1 1 0 0 1 1-1h2a1 1 0 1 1 0 2h-2a1 1 0 0 1-1-1m7-1a1 1 0 1 0 0 2h2a1 1 0 1 0 0-2zm-2-4a1 1 0 0 1 1 1v2a1 1 0 1 1-2 0v-2a1 1 0 0 1 1-1m1 7a1 1 0 1 0-2 0v2a1 1 0 1 0 2 0z"/></svg>