<svg xmlns="http://www.w3.org/2000/svg" width="16" height="16" viewBox="0 0 16 16"><path fill-rule="evenodd" d="M5.518.998c.329 0 .62.215.716.53l.913 2.958 2.425 1.077a.75.75 0 0 1 0 1.37L7.147 8.012l-.913 2.958a.75.75 0 0 1-1.433 0l-.912-2.958-2.426-1.077a.75.75 0 0 1 0-1.371L3.89 4.486l.91-2.959a.75.75 0 0 1 .717-.529m0 3.296-.297.96a.75.75 0 0 1-.412.464l-1.193.53 1.193.53a.75.75 0 0 1 .412.465l.297.96.296-.96a.75.75 0 0 1 .412-.465l1.193-.53-1.193-.53a.75.75 0 0 1-.412-.464zM9.5 3.748a.75.75 0 0 1 .75-.75h1.25v-1.25a.75.75 0 0 1 1.5 0v1.25h1.25a.75.75 0 0 1 0 1.5H13v1.25a.75.75 0 0 1-1.5 0v-1.25h-1.25a.75.75 0 0 1-.75-.75M8 12.25a.75.75 0 0 1 .75-.75H10v-1.25a.75.75 0 0 1 1.5 0v1.25h1.25a.75.75 0 0 1 0 1.5H11.5v1.25a.75.75 0 1 1-1.5 0V13H8.75a.75.75 0 0 1-.75-.75"/></svg>