<svg xmlns="http://www.w3.org/2000/svg" width="24" height="24" viewBox="0 0 24 24"><path fill-rule="evenodd" d="M17 3a.75.75 0 0 1 .75.75v1.5a.75.75 0 0 1-1.5 0v-1.5A.75.75 0 0 1 17 3m-7.996.002a.75.75 0 0 1 .72.542l1.325 4.602 3.527 1.678a.75.75 0 0 1 0 1.355l-3.527 1.678-1.324 4.602a.75.75 0 0 1-1.442 0L6.96 12.857l-3.527-1.678a.75.75 0 0 1 0-1.355L6.96 8.146l1.324-4.602a.75.75 0 0 1 .72-.542m0 3.461-.697 2.423a.75.75 0 0 1-.399.47L5.5 10.502l2.408 1.146a.75.75 0 0 1 .399.47l.697 2.422.697-2.423a.75.75 0 0 1 .399-.47l2.408-1.145L10.1 9.356a.75.75 0 0 1-.399-.47zM17.75 8.75a.75.75 0 0 0-1.5 0v1.5a.75.75 0 0 0 1.5 0zM13 7a.75.75 0 0 1 .75-.75h1.5a.75.75 0 0 1 0 1.5h-1.5A.75.75 0 0 1 13 7m5.75-.75a.75.75 0 0 0 0 1.5h1.5a.75.75 0 0 0 0-1.5zM15 13a.75.75 0 0 1 .75.75v1.5a.75.75 0 0 1-1.5 0v-1.5A.75.75 0 0 1 15 13m.75 5.75a.75.75 0 0 0-1.5 0v1.5a.75.75 0 0 0 1.5 0zM11 17a.75.75 0 0 1 .75-.75h1.5a.75.75 0 0 1 0 1.5h-1.5A.75.75 0 0 1 11 17m5.75-.75a.75.75 0 0 0 0 1.5h1.5a.75.75 0 0 0 0-1.5z"/></svg>