<svg xmlns="http://www.w3.org/2000/svg" width="16" height="16" viewBox="0 0 16 16"><path fill-rule="evenodd" d="M2.499 2.497c.001.332.043.804.171 1.326.188.762.54 1.55 1.134 2.136C5.075 7.212 6.522 7.308 7.25 7.228a5.4 5.4 0 0 0-.164-1.3c-.182-.737-.532-1.515-1.138-2.112-.6-.593-1.388-.948-2.14-1.14A5.7 5.7 0 0 0 2.5 2.498m1.679-1.274c.92.234 1.976.69 2.824 1.525.86.848 1.314 1.906 1.54 2.82.079.317.132.625.165.912q.138-.167.294-.325c.848-.86 1.906-1.315 2.82-1.54.906-.225 1.743-.243 2.216-.17.407.064.736.36.84.761.22.85.367 3.207-1.597 5.2-.842.854-1.916 1.308-2.846 1.537a7.3 7.3 0 0 1-1.684.215v2.09a.75.75 0 0 1-1.5 0V8.734c-1.105.082-2.917-.146-4.499-1.706-.854-.842-1.309-1.916-1.537-2.846-.227-.923-.252-1.786-.177-2.279.07-.458.428-.804.876-.87.501-.074 1.354-.04 2.265.191m5.898 9.263a6 6 0 0 1-1.326.172 5.7 5.7 0 0 1 .18-1.31c.191-.752.546-1.539 1.139-2.14.597-.606 1.375-.955 2.113-1.138a5.4 5.4 0 0 1 1.299-.163c.08.727-.016 2.174-1.269 3.445-.585.594-1.373.947-2.136 1.134"/></svg>