<svg xmlns="http://www.w3.org/2000/svg" width="24" height="24" viewBox="0 0 24 24"><path fill-rule="evenodd" d="M5.501 4.5c-.009.4.035 1.009.201 1.686.22.898.638 1.835 1.348 2.535 1.568 1.546 3.364 1.608 4.198 1.492a6.3 6.3 0 0 0-.191-1.641c-.216-.87-.63-1.795-1.352-2.508-.717-.706-1.651-1.126-2.537-1.352A6.6 6.6 0 0 0 5.5 4.501M7.537 3.26c1.054.268 2.258.788 3.22 1.737.979.964 1.497 2.168 1.756 3.215.12.483.187.948.218 1.361q.23-.3.511-.576c.963-.95 2.167-1.47 3.22-1.737 1.045-.266 2.018-.303 2.58-.22.468.07.843.43.915.909.084.553.058 1.538-.202 2.596-.262 1.066-.781 2.288-1.751 3.245-1.869 1.842-4.016 2.054-5.254 1.933v4.528a.75.75 0 0 1-1.5 0v-8.528c-1.238.12-3.385-.091-5.253-1.933-.97-.957-1.49-2.179-1.752-3.245-.26-1.058-.286-2.043-.202-2.596a1.08 1.08 0 0 1 .915-.909c.562-.083 1.535-.046 2.58.22m5.213 10.83q0 .065.002.124c.834.116 2.63.054 4.199-1.492.709-.7 1.126-1.637 1.347-2.535a6.7 6.7 0 0 0 .2-1.685 6.6 6.6 0 0 0-1.666.211c-.886.226-1.82.646-2.537 1.352-.723.713-1.136 1.637-1.352 2.508a6.5 6.5 0 0 0-.193 1.5z"/></svg>