<svg xmlns="http://www.w3.org/2000/svg" width="32" height="32" viewBox="0 0 32 32"><path fill-rule="evenodd" d="M7.002 6.001a9.2 9.2 0 0 0 .278 2.367c.305 1.243.883 2.542 1.868 3.513 2.19 2.159 4.703 2.23 5.848 2.063.02-.524-.03-1.36-.264-2.302-.297-1.204-.87-2.486-1.874-3.475-.994-.98-2.289-1.561-3.515-1.873a9 9 0 0 0-2.34-.293m2.834-1.645c1.45.368 3.104 1.083 4.426 2.387 1.344 1.324 2.056 2.979 2.412 4.419.353 1.427.38 2.739.266 3.465l-.003.022.003.01q.355-.478.798-.916c1.322-1.304 2.976-2.019 4.426-2.387 1.438-.366 2.774-.416 3.544-.302.631.093 1.136.58 1.234 1.224.115.758.078 2.112-.28 3.568-.36 1.466-1.073 3.145-2.405 4.459-2.588 2.55-5.564 2.826-7.257 2.652V27a1 1 0 1 1-2 0V15.957c-1.693.174-4.67-.102-7.256-2.652-1.333-1.314-2.046-2.993-2.407-4.46-.357-1.455-.394-2.81-.279-3.567a1.46 1.46 0 0 1 1.234-1.224c.77-.114 2.107-.064 3.544.302M17 20.742q0 .108.004.202c1.145.167 3.658.096 5.848-2.063.985-.971 1.563-2.27 1.868-3.513a9.2 9.2 0 0 0 .278-2.367 9 9 0 0 0-2.341.293c-1.226.312-2.521.893-3.515 1.874-1.003.988-1.576 2.27-1.874 3.474A9 9 0 0 0 17 20.72z"/></svg>