<svg xmlns="http://www.w3.org/2000/svg" width="16" height="16" viewBox="0 0 16 16"><path fill-rule="evenodd" d="M6.88 1.698c.458-.929 1.782-.929 2.24 0l1.4 2.834 3.127.455c1.025.149 1.434 1.409.692 2.132l-2.262 2.206.534 3.114c.175 1.021-.897 1.8-1.814 1.318L8 12.287l-2.797 1.47c-.917.482-1.989-.297-1.814-1.318l.534-3.114L1.66 7.119c-.741-.723-.332-1.983.693-2.132l3.127-.455zM8 2.816 6.767 5.314a1.25 1.25 0 0 1-.94.684l-2.757.4 1.994 1.944c.295.287.43.701.36 1.107l-.47 2.745 2.464-1.296a1.25 1.25 0 0 1 1.164 0l2.465 1.296-.471-2.745a1.25 1.25 0 0 1 .36-1.107l1.994-1.944-2.756-.4a1.25 1.25 0 0 1-.941-.684z"/></svg>