<svg xmlns="http://www.w3.org/2000/svg" width="32" height="32" viewBox="0 0 32 32"><path fill-rule="evenodd" d="M14.207 5.374c.733-1.486 2.853-1.486 3.586 0l2.398 4.858 5.36.779c1.64.238 2.296 2.254 1.109 3.411l-3.88 3.781.916 5.34c.28 1.633-1.434 2.879-2.901 2.108L16 23.13l-4.795 2.52c-1.467.772-3.182-.474-2.902-2.108l.916-5.339-3.879-3.78c-1.187-1.158-.532-3.174 1.109-3.412l5.36-.78 2.398-4.857m4.19 5.743L16 6.26l-2.397 4.857a2 2 0 0 1-1.506 1.094l-5.36.78 3.878 3.78a2 2 0 0 1 .575 1.77l-.915 5.34 4.794-2.521a2 2 0 0 1 1.862 0l4.794 2.52-.915-5.339a2 2 0 0 1 .575-1.77l3.879-3.78-5.36-.78a2 2 0 0 1-1.507-1.094"/></svg>