<svg xmlns="http://www.w3.org/2000/svg" width="24" height="24" fill="none" viewBox="0 0 24 24"><path fill="currentColor" fill-rule="evenodd" d="M10.655 4.03c.55-1.114 2.14-1.114 2.69 0l1.798 3.644 4.02.584c1.23.179 1.722 1.69.832 2.559l-2.91 2.835.687 4.005c.21 1.225-1.076 2.16-2.176 1.58L12 17.348l-3.596 1.89c-1.1.58-2.387-.355-2.176-1.58l.686-4.005-2.909-2.835c-.89-.868-.399-2.38.832-2.559l4.02-.584 1.798-3.643M12 4.696l-1.798 3.643a1.5 1.5 0 0 1-1.13.82l-4.02.585 2.91 2.835a1.5 1.5 0 0 1 .43 1.328l-.686 4.004 3.596-1.89a1.5 1.5 0 0 1 1.396 0l3.596 1.89-.687-4.004a1.5 1.5 0 0 1 .432-1.328l2.909-2.835-4.02-.585a1.5 1.5 0 0 1-1.13-.82L12 4.695"/></svg>