<svg xmlns="http://www.w3.org/2000/svg" width="24" height="24" viewBox="0 0 24 24"><path fill-rule="evenodd" d="M12.138 4.502c-2.384 0-4.101 1.62-4.101 3.374 0 1.739 1.688 3.346 4.04 3.374h6.173a.75.75 0 0 1 0 1.5h-2.342c.953.86 1.555 2.033 1.555 3.374 0 2.801-2.627 4.874-5.601 4.874-1.456 0-2.811-.487-3.825-1.31v.56a.75.75 0 0 1-1.5 0v-2.75a.75.75 0 0 1 1.442-.287c.532 1.279 2.025 2.287 3.883 2.287 2.384 0 4.1-1.62 4.1-3.374s-1.716-3.374-4.1-3.374H5.75a.75.75 0 1 1 0-1.5h2.34c-.953-.86-1.554-2.033-1.554-3.374 0-2.801 2.626-4.874 5.6-4.874 1.457 0 2.812.487 3.826 1.31v-.56a.75.75 0 0 1 1.5 0v2.75a.75.75 0 0 1-1.443.287c-.532-1.279-2.024-2.287-3.882-2.287"/></svg>