<svg xmlns="http://www.w3.org/2000/svg" width="16" height="16" fill="none" viewBox="0 0 16 16"><path fill="currentColor" fill-rule="evenodd" d="M8.105 2.501c-1.735 0-2.926 1.173-2.926 2.375 0 1.199 1.185 2.369 2.912 2.375l5.16.003a.75.75 0 1 1-.001 1.5l-1.85-.001a3.53 3.53 0 0 1 .922 2.373c0 2.25-2.1 3.874-4.426 3.874a4.849 4.849 0 0 1-2.717-.813v.063a.75.75 0 1 1-1.5 0v-2.083a.75.75 0 0 1 1.443-.288c.37.892 1.428 1.621 2.774 1.621 1.735 0 2.926-1.172 2.926-2.374 0-1.202-1.191-2.375-2.926-2.375h-.007l-5.14-.003a.75.75 0 1 1 .001-1.5H4.6a3.532 3.532 0 0 1-.92-2.372c0-2.25 2.1-3.875 4.425-3.875 1.006 0 1.956.297 2.717.814V1.75a.75.75 0 0 1 1.5 0v2.084a.75.75 0 0 1-1.443.288C10.509 3.23 9.451 2.5 8.105 2.5"/></svg>