<svg xmlns="http://www.w3.org/2000/svg" width="32" height="32" viewBox="0 0 32 32"><path fill-rule="evenodd" d="M16.183 6c-3.17 0-5.457 2.16-5.457 4.5 0 2.323 2.253 4.468 5.387 4.5h8.932a1 1 0 0 1 0 2h-3.843c1.27 1.146 2.071 2.712 2.071 4.5 0 3.734-3.495 6.5-7.457 6.5-1.937 0-3.74-.65-5.09-1.745V27a1 1 0 1 1-2 0v-3.667a1 1 0 0 1 1.924-.383c.708 1.706 2.694 3.05 5.166 3.05 3.17 0 5.457-2.16 5.457-4.5 0-2.341-2.287-4.5-5.457-4.5h-8.86a1 1 0 0 1 0-2h3.84c-1.269-1.147-2.07-2.713-2.07-4.5 0-3.734 3.495-6.5 7.457-6.5 1.938 0 3.74.649 5.09 1.745V5a1 1 0 0 1 2 0v3.667a1 1 0 0 1-1.924.383C20.642 7.343 18.656 6 16.183 6"/></svg>