<svg xmlns="http://www.w3.org/2000/svg" width="16" height="16" fill="none" viewBox="0 0 16 16"><path fill="currentColor" fill-rule="evenodd" d="M7.5 4.952a2 2 0 1 1-4 0 2 2 0 0 1 4 0m1.5 0a3.5 3.5 0 1 1-7 0 3.5 3.5 0 0 1 7 0m1.5 2.625a1 1 0 1 1 2 0 1 1 0 0 1-2 0m1-2.5a2.5 2.5 0 1 0 0 5 2.5 2.5 0 0 0 0-5m-1.574 7.708h3.22a1.444 1.444 0 0 0-1.093-.5h-1.106c-.257 0-.494.066-.7.18a1.5 1.5 0 0 1-.36.143c.014.058.027.117.039.177m-.663 1.5h5.184a.553.553 0 0 0 .553-.553 2.947 2.947 0 0 0-2.947-2.947h-1.106c-.518 0-1.004.133-1.427.368a3.923 3.923 0 0 0-3.116-1.535H4.93A3.93 3.93 0 0 0 1 13.548c0 .407.33.737.737.737zm-.885-1.5a2.43 2.43 0 0 0-2.308-1.667H4.93a2.427 2.427 0 0 0-2.308 1.667z"/></svg>