<svg xmlns="http://www.w3.org/2000/svg" width="24" height="24" fill="none" viewBox="0 0 24 24"><path fill="currentColor" fill-rule="evenodd" d="M6.605 7.441a1.95 1.95 0 0 1 1.958-1.943 1.95 1.95 0 0 1 1.958 1.943 1.95 1.95 0 0 1-1.958 1.944A1.95 1.95 0 0 1 6.605 7.44m1.958-3.443A3.45 3.45 0 0 0 5.105 7.44a3.45 3.45 0 0 0 3.458 3.444 3.45 3.45 0 0 0 3.458-3.444 3.45 3.45 0 0 0-3.458-3.443M7 14.098h3.114c.726 0 1.38.309 1.836.803.05.164.155.312.31.412.225.375.354.815.354 1.284v.9h-1.378l-.063.003H4.5v-.903a2.5 2.5 0 0 1 2.5-2.5m3.114-1.5c1 0 1.914.366 2.615.972a2.16 2.16 0 0 1 .761-.258c.433-.07 1.01-.064 1.728-.057l.529.004h1.008a4.25 4.25 0 0 1 4.25 4.25v.238c0 .69-.56 1.25-1.25 1.25h-6.328a.769.769 0 0 1-.063.003H4a1 1 0 0 1-1-1v-1.403a4 4 0 0 1 4-4h3.114m4 4c0-.647-.153-1.258-.426-1.798l.04-.007c.296-.048.702-.044 1.398-.038h.005l.61.004h1.014a2.75 2.75 0 0 1 2.75 2.738h-5.39v-.9m.111-7.328c0-.836.683-1.52 1.533-1.52.85 0 1.533.684 1.533 1.52s-.683 1.52-1.533 1.52c-.85 0-1.533-.684-1.533-1.52m1.533-3.02a3.026 3.026 0 0 0-3.033 3.02 3.026 3.026 0 0 0 3.033 3.02 3.026 3.026 0 0 0 3.033-3.02 3.026 3.026 0 0 0-3.033-3.02"/></svg>