<svg xmlns="http://www.w3.org/2000/svg" width="32" height="32" fill="none" viewBox="0 0 32 32"><path fill="currentColor" fill-rule="evenodd" d="M8.982 10a3 3 0 1 1 6 0 3 3 0 0 1-6 0m3-5a5 5 0 1 0 0 10 5 5 0 0 0 0-10M6 22.5A3.5 3.5 0 0 1 9.5 19h4.964a3.5 3.5 0 0 1 3.5 3.5V24H6zM19.23 26h6.87c1.06 0 1.92-.86 1.92-1.92a5.6 5.6 0 0 0-5.6-5.6h-.726c-1.067 0-1.896.01-2.512.103-.237.036-.47.089-.693.17A5.485 5.485 0 0 0 14.464 17H9.5A5.5 5.5 0 0 0 4 22.5V25a1 1 0 0 0 1 1zm2.464-5.52c-1.008 0-1.651.012-2.088.064.231.608.358 1.267.358 1.956V24h6.055a3.6 3.6 0 0 0-3.6-3.52h-.725M18.99 13a2 2 0 1 1 4 0 2 2 0 0 1-4 0m2-4a4 4 0 1 0 0 8 4 4 0 0 0 0-8"/></svg>