<svg xmlns="http://www.w3.org/2000/svg" width="32" height="32" viewBox="0 0 32 32"><path fill-rule="evenodd" d="M26 16c0 5.523-4.477 10-10 10S6 21.523 6 16 10.477 6 16 6s10 4.477 10 10m2 0c0 6.627-5.373 12-12 12S4 22.627 4 16 9.373 4 16 4s12 5.373 12 12m-15.334-4.002h4.254l-1.627 1.628a1 1 0 0 0 .7 1.707h.011q.02 0 .068.004a3.1 3.1 0 0 1 1.148.307c.298.15.566.357.761.65.192.287.353.715.353 1.373 0 .672-.155 1.107-.336 1.394a1.8 1.8 0 0 1-.709.636 3 3 0 0 1-1.289.305c-1.376 0-1.877-.492-2.086-.805a1.56 1.56 0 0 1-.249-.711 1 1 0 0 0-2 .015h1l-1 .001v.027a2 2 0 0 0 .012.174 3.56 3.56 0 0 0 .574 1.603c.624.937 1.79 1.696 3.749 1.696h.003c.151 0 1.181 0 2.204-.529a3.8 3.8 0 0 0 1.483-1.345c.41-.65.644-1.466.644-2.46 0-1.01-.255-1.832-.689-2.483a3.93 3.93 0 0 0-1.681-1.402l2.078-2.078a1 1 0 0 0-.708-1.707h-6.668a1 1 0 1 0 0 2"/></svg>