<svg xmlns="http://www.w3.org/2000/svg" width="24" height="24" viewBox="0 0 24 24"><path fill-rule="evenodd" d="M19.5 12a7.5 7.5 0 1 1-15 0 7.5 7.5 0 0 1 15 0m1.5 0a9 9 0 1 1-18 0 9 9 0 0 1 18 0M9.25 8.5h3.727l-1.515 1.561a.75.75 0 0 0 .534 1.272h.01l.057.004a2.56 2.56 0 0 1 .968.267c.254.13.487.316.66.582.17.263.309.65.309 1.23 0 .592-.133.983-.294 1.247a1.57 1.57 0 0 1-.617.57A2.482 2.482 0 0 1 12 15.5c-1.147 0-1.585-.423-1.777-.72a1.461 1.461 0 0 1-.223-.664.75.75 0 0 0-1.5.01v.021a1.535 1.535 0 0 0 .009.138 2.958 2.958 0 0 0 .456 1.31C9.46 16.36 10.396 17 12 17h.002c.123 0 .962 0 1.792-.442a3.07 3.07 0 0 0 1.191-1.112c.326-.533.515-1.204.515-2.03 0-.834-.204-1.51-.55-2.045a3.185 3.185 0 0 0-1.231-1.1 3.725 3.725 0 0 0-.255-.12l1.824-1.879A.75.75 0 0 0 14.75 7h-5.5a.75.75 0 0 0 0 1.5m0 5.625-.75.001z"/></svg>