<svg xmlns="http://www.w3.org/2000/svg" width="16" height="16" viewBox="0 0 16 16"><path fill-rule="evenodd" d="M13.5 8a5.5 5.5 0 1 1-11 0 5.5 5.5 0 0 1 11 0M15 8A7 7 0 1 1 1 8a7 7 0 0 1 14 0M5.8 5.2h2.982L7.569 6.449a.6.6 0 0 0 .427 1.018h.008l.047.002c.043.004.11.01.191.024.166.029.378.085.583.19.203.105.39.253.528.466.136.21.247.519.247.984 0 .473-.106.787-.235.998-.13.211-.304.355-.494.456A2 2 0 0 1 8 10.8c-.917 0-1.268-.339-1.421-.576a1.2 1.2 0 0 1-.179-.531.6.6 0 0 0-1.2.008v.016a1 1 0 0 0 .007.111 2.4 2.4 0 0 0 .364 1.048C5.968 11.489 6.717 12 8 12h.001c.099 0 .77 0 1.434-.354.344-.182.692-.463.953-.889s.412-.963.412-1.624c0-.668-.164-1.209-.44-1.636a2.55 2.55 0 0 0-.985-.88 3 3 0 0 0-.204-.096l1.46-1.503A.6.6 0 0 0 10.2 4H5.8a.6.6 0 0 0 0 1.2m0 4.5h-.6z"/></svg>