<svg xmlns="http://www.w3.org/2000/svg" width="16" height="16" fill="none" viewBox="0 0 16 16"><path fill="currentColor" fill-rule="evenodd" d="M13.5 8a5.5 5.5 0 1 1-11 0 5.5 5.5 0 0 1 11 0M15 8A7 7 0 1 1 1 8a7 7 0 0 1 14 0M5.8 5.2h2.982L7.569 6.449a.6.6 0 0 0 .427 1.018h.008a2.022 2.022 0 0 1 .238.027c.166.028.378.084.583.19.203.104.39.252.528.465.136.21.247.519.247.984 0 .473-.106.787-.235.998-.13.211-.304.355-.494.456A1.987 1.987 0 0 1 8 10.8c-.917 0-1.268-.339-1.421-.576a1.167 1.167 0 0 1-.179-.531.6.6 0 0 0-1.2.008v.016a1.241 1.241 0 0 0 .007.111 2.367 2.367 0 0 0 .364 1.048C5.968 11.489 6.717 12 8 12h.001c.099 0 .77 0 1.434-.354.344-.182.692-.463.953-.889s.412-.963.412-1.624c0-.668-.164-1.209-.44-1.636a2.547 2.547 0 0 0-.985-.88 2.971 2.971 0 0 0-.204-.096l1.46-1.503A.6.6 0 0 0 10.2 4H5.8a.6.6 0 0 0 0 1.2m0 4.5h-.6z"/></svg>