<svg xmlns="http://www.w3.org/2000/svg" width="32" height="32" fill="none" viewBox="0 0 32 32"><path fill="currentColor" fill-rule="evenodd" d="M26 16c0 5.523-4.477 10-10 10S6 21.523 6 16 10.477 6 16 6s10 4.477 10 10m2 0c0 6.627-5.373 12-12 12S4 22.627 4 16 9.373 4 16 4s12 5.373 12 12m-15.334-4.002h4.254l-1.627 1.628a1 1 0 0 0 .7 1.707h.011a3.094 3.094 0 0 1 .352.038c.248.041.562.122.864.273.298.15.566.357.761.65.192.287.353.715.353 1.373 0 .672-.155 1.107-.336 1.394a1.788 1.788 0 0 1-.709.636 3.02 3.02 0 0 1-1.289.305c-1.376 0-1.877-.492-2.086-.805a1.558 1.558 0 0 1-.249-.711 1 1 0 0 0-2 .015h1l-1 .001v.027a1.835 1.835 0 0 0 .012.174 3.558 3.558 0 0 0 .574 1.603c.624.937 1.79 1.696 3.749 1.696h.003c.151 0 1.181 0 2.204-.529a3.782 3.782 0 0 0 1.483-1.345c.41-.65.644-1.466.644-2.46 0-1.01-.255-1.832-.689-2.483a3.926 3.926 0 0 0-1.681-1.402l2.078-2.078a1 1 0 0 0-.708-1.707h-6.668a1 1 0 1 0 0 2"/></svg>