<svg xmlns="http://www.w3.org/2000/svg" width="32" height="32" fill="none" viewBox="0 0 32 32"><path fill="currentColor" fill-rule="evenodd" d="M16.493 27.371c1.215 1.39 3.505.531 3.505-1.316V21h4.736a3.233 3.233 0 0 0 2.467-1.094 3.189 3.189 0 0 0 .762-2.588l-.004-.024-1.54-8.59a3.191 3.191 0 0 0-1.108-1.947A3.257 3.257 0 0 0 23.191 6H7.236c-.853 0-1.674.333-2.282.932A3.182 3.182 0 0 0 4 9.2v7.7c0 .854.345 1.67.953 2.268.608.599 1.43.932 2.282.932h2.9zm-6.904-9.27H7.235c-.332 0-.648-.131-.879-.358A1.183 1.183 0 0 1 6 16.9V9.2c0-.313.126-.616.356-.843.23-.227.547-.357.88-.357h2.353v10.1m2-10.1h11.619c.302-.004.594.1.82.29a1.192 1.192 0 0 1 .42.756l1.54 8.586a1.164 1.164 0 0 1-.286.95 1.234 1.234 0 0 1-.426.31c-.165.073-.344.11-.526.108h-4.752a2 2 0 0 0-2 2v5.054l-6.41-7.33V8"/></svg>