<svg xmlns="http://www.w3.org/2000/svg" width="32" height="32" viewBox="0 0 32 32"><path fill-rule="evenodd" d="M16.493 4.629c1.215-1.39 3.505-.531 3.505 1.316V11h4.736a3.24 3.24 0 0 1 2.467 1.095 3.19 3.19 0 0 1 .762 2.588l-.004.024-1.54 8.59a3.2 3.2 0 0 1-1.108 1.947 3.26 3.26 0 0 1-2.12.757H7.236a3.25 3.25 0 0 1-2.282-.932A3.18 3.18 0 0 1 4 22.8v-7.7c0-.854.345-1.67.953-2.268a3.25 3.25 0 0 1 2.282-.932h2.9zm-6.904 9.27H7.235c-.332 0-.648.131-.879.358S6 14.787 6 15.1v7.7c0 .313.126.616.356.843s.547.357.88.357h2.353zm2 10.1h11.619c.302.004.594-.1.82-.29s.372-.45.416-.731l.004-.025 1.54-8.586a1.16 1.16 0 0 0-.286-.95 1.2 1.2 0 0 0-.426-.31 1.3 1.3 0 0 0-.526-.108h-4.752a2 2 0 0 1-2-2V5.945l-6.41 7.33z"/></svg>