<svg xmlns="http://www.w3.org/2000/svg" width="16" height="16" viewBox="0 0 16 16"><path fill-rule="evenodd" d="M8.257 1.435c.76-.869 2.19-.331 2.19.823V4.54h2.519a2.038 2.038 0 0 1 1.538.683 1.995 1.995 0 0 1 .476 1.619v.004l-.876 5.458v.003a1.995 1.995 0 0 1-.693 1.223c-.37.31-.84.477-1.322.473H3.025A2.03 2.03 0 0 1 1.6 13.42a1.99 1.99 0 0 1-.596-1.418V7.627c0-.534.215-1.044.596-1.418a2.03 2.03 0 0 1 1.424-.582h1.564l3.668-4.192ZM4.18 7.127H3.025a.53.53 0 0 0-.372.15.49.49 0 0 0-.148.35v4.375a.49.49 0 0 0 .148.349.53.53 0 0 0 .372.15H4.18V7.128m1.5 5.375h6.42a.533.533 0 0 0 .348-.123.496.496 0 0 0 .173-.304v-.005l.876-5.458v-.001a.482.482 0 0 0-.118-.396.519.519 0 0 0-.402-.176h-2.78c-.69 0-1.25-.56-1.25-1.25V2.924L5.68 6.659v5.843"/></svg>