<svg xmlns="http://www.w3.org/2000/svg" width="16" height="16" fill="none" viewBox="0 0 16 16"><path fill="currentColor" fill-rule="evenodd" d="M8.256 14.567c.76.869 2.19.332 2.19-.823v-2.281h2.519a2.038 2.038 0 0 0 1.538-.683 1.993 1.993 0 0 0 .477-1.619v-.004l-.876-5.458v-.003a1.995 1.995 0 0 0-.694-1.223c-.37-.31-.84-.476-1.322-.472H3.024a2.03 2.03 0 0 0-1.424.581 1.99 1.99 0 0 0-.596 1.419v4.374c0 .535.216 1.045.596 1.419.38.373.892.581 1.424.581h1.565zM4.179 8.875H3.024a.53.53 0 0 1-.372-.15.49.49 0 0 1-.148-.35V4.001a.49.49 0 0 1 .148-.35.53.53 0 0 1 .372-.15h1.155zm1.5-5.374h6.422a.532.532 0 0 1 .347.123.492.492 0 0 1 .173.303v.005l.876 5.458v.002a.48.48 0 0 1-.118.395.518.518 0 0 1-.402.176h-2.78c-.69 0-1.25.56-1.25 1.25v1.866L5.679 9.343V3.501"/></svg>