<svg xmlns="http://www.w3.org/2000/svg" width="32" height="32" fill="none" viewBox="0 0 32 32"><path fill="currentColor" fill-rule="evenodd" d="M16.493 4.629c1.215-1.39 3.505-.531 3.505 1.316V11h4.736a3.236 3.236 0 0 1 2.467 1.095 3.189 3.189 0 0 1 .762 2.588l-.004.024-1.54 8.59a3.191 3.191 0 0 1-1.108 1.947 3.257 3.257 0 0 1-2.12.757H7.236a3.254 3.254 0 0 1-2.282-.932A3.182 3.182 0 0 1 4 22.8v-7.7c0-.854.345-1.67.953-2.268a3.254 3.254 0 0 1 2.282-.932h2.9l6.358-7.271m-6.904 9.27H7.235c-.332 0-.648.131-.879.358-.23.226-.356.53-.356.843v7.7c0 .313.126.616.356.843.23.227.547.357.88.357h2.353V13.9m2 10.1h11.619c.302.004.594-.1.82-.29.226-.189.372-.45.416-.731l.004-.025 1.54-8.586a1.164 1.164 0 0 0-.286-.95 1.234 1.234 0 0 0-.426-.31A1.266 1.266 0 0 0 24.75 13h-4.752a2 2 0 0 1-2-2V5.945l-6.41 7.33V24"/></svg>