<svg xmlns="http://www.w3.org/2000/svg" width="24" height="24" viewBox="0 0 24 24"><path fill-rule="evenodd" d="M12.37 21.031c.911 1.043 2.629.398 2.629-.987v-3.548h3.552a2.45 2.45 0 0 0 1.85-.82 2.392 2.392 0 0 0 .571-1.942l-.002-.013-1.156-6.688a2.393 2.393 0 0 0-.83-1.463 2.443 2.443 0 0 0-1.59-.567H5.427c-.64 0-1.256.25-1.712.698A2.387 2.387 0 0 0 3 7.403v5.775c0 .64.259 1.252.715 1.7a2.44 2.44 0 0 0 1.712.7H7.6l4.768 5.453M7.19 14.078H5.427a.94.94 0 0 1-.66-.268.887.887 0 0 1-.267-.633V7.404a.89.89 0 0 1 .267-.633.94.94 0 0 1 .66-.267h1.765v7.575m1.5-7.575h8.714a.943.943 0 0 1 .615.218c.17.141.28.337.312.548l.002.014 1.156 6.686a.875.875 0 0 1-.215.713.948.948 0 0 1-.714.314H15a1.5 1.5 0 0 0-1.5 1.5v3.548l-4.81-5.499V6.503"/></svg>