<svg xmlns="http://www.w3.org/2000/svg" width="32" height="32" viewBox="0 0 32 32"><path fill-rule="evenodd" d="M16.996 5a1 1 0 0 0-2 0v2a1 1 0 1 0 2 0zm-1 7.044a4.044 4.044 0 0 0-2.408 7.294c.49.363.886.963.886 1.696V22h3.044v-.966c0-.732.397-1.333.886-1.696a4.044 4.044 0 0 0-2.408-7.294m-6.044 4.044a6.044 6.044 0 1 1 9.644 4.856.3.3 0 0 0-.07.076l-.008.016V22.5a1.5 1.5 0 0 1-1.5 1.5h-4.044a1.5 1.5 0 0 1-1.5-1.5v-1.464l-.007-.017a.3.3 0 0 0-.07-.076 6.04 6.04 0 0 1-2.445-4.855M12.474 27a1 1 0 0 1 1-1h5.044a1 1 0 1 1 0 2h-5.044a1 1 0 0 1-1-1M8 15.992a1 1 0 0 1-1 1H5a1 1 0 1 1 0-2h2a1 1 0 0 1 1 1m18.99 1a1 1 0 1 0 0-2h-2a1 1 0 1 0 0 2zM7.092 7.97a1 1 0 0 1 1.414 0L9.92 9.383a1 1 0 0 1-1.414 1.414L7.092 9.383a1 1 0 0 1 0-1.414m16.394 0A1 1 0 1 1 24.9 9.383l-1.414 1.414a1 1 0 0 1-1.414-1.414z"/></svg>