<svg xmlns="http://www.w3.org/2000/svg" width="16" height="16" viewBox="0 0 16 16"><path fill-rule="evenodd" d="M8.75 1.749a.75.75 0 1 0-1.5 0v1.25a.75.75 0 0 0 1.5 0zM8 5.93a2.086 2.086 0 0 0-1.042 3.892.75.75 0 0 1 .374.65v.754h1.336v-.755a.75.75 0 0 1 .374-.649A2.084 2.084 0 0 0 8 5.931M4.414 8.016a3.586 3.586 0 1 1 5.754 2.856v1.105a.75.75 0 0 1-.75.75H6.582a.75.75 0 0 1-.75-.75v-1.105a3.58 3.58 0 0 1-1.418-2.856m1.468 6.234a.75.75 0 0 1 .75-.75h2.736a.75.75 0 0 1 0 1.5H6.632a.75.75 0 0 1-.75-.75M3.75 8.002a.75.75 0 0 0-.75-.75H1.75a.75.75 0 0 0 0 1.5H3a.75.75 0 0 0 .75-.75m10.503-.75a.75.75 0 0 1 0 1.5h-1.25a.75.75 0 0 1 0-1.5h1.25M2.957 3.155a.75.75 0 0 1 1.06 0l.884.884a.75.75 0 0 1-1.06 1.06l-.884-.884a.75.75 0 0 1 0-1.06m9.034.013a.75.75 0 0 1 1.06 1.06l-.883.884a.75.75 0 0 1-1.06-1.06l.883-.884"/></svg>