<svg xmlns="http://www.w3.org/2000/svg" width="32" height="32" viewBox="0 0 32 32"><path fill-rule="evenodd" d="M12.954 5.74a1 1 0 1 0-2 0v1.539H5.748a1 1 0 1 0 0 2h1.946q.031.171.076.366c.174.776.501 1.833 1.115 2.984.384.72.877 1.47 1.507 2.207-1.097.91-2.528 1.746-4.396 2.37a1 1 0 0 0 .632 1.896c2.195-.731 3.886-1.738 5.185-2.847 1.278 1.09 2.934 2.082 5.076 2.81l-3.374 6.748a1 1 0 0 0 1.789.894L17 23.313h6.66l1.697 3.394a1 1 0 1 0 1.788-.894l-1.964-3.93-.017-.034-3.94-7.879a1 1 0 0 0-1.789 0l-1.65 3.301a1 1 0 0 0-.155-.066c-1.869-.623-3.3-1.459-4.397-2.369a12.3 12.3 0 0 0 1.507-2.207 12 12 0 0 0 1.192-3.35h2.228a1 1 0 1 0 0-2h-5.207zm.935 3.539H9.737c.148.629.418 1.48.913 2.409.297.556.676 1.144 1.163 1.731.487-.587.867-1.175 1.163-1.731.495-.928.766-1.78.913-2.41m8.771 12.034-2.33-4.66-2.329 4.66z"/></svg>