<svg xmlns="http://www.w3.org/2000/svg" width="24" height="24" viewBox="0 0 24 24"><path fill-rule="evenodd" d="M9.492 3.75a.75.75 0 0 0-1.5 0v1.292h-4.24a.75.75 0 0 0 0 1.5h1.607c.023.17.06.393.119.657.316 1.406 1.107 2.78 2.038 3.87-.853.708-2.074 1.436-3.526 1.92a.778.778 0 0 0 .491 1.476c1.706-.569 3.13-1.43 4.14-2.293 1.003.858 2.461 1.714 4.154 2.283l-2.73 5.46a.75.75 0 1 0 1.342.67l1.38-2.759h5.421l1.38 2.759a.75.75 0 1 0 1.341-.67l-4.761-9.523a.75.75 0 0 0-1.342 0l-1.339 2.678a.8.8 0 0 0-.17-.08c-1.452-.485-2.72-1.213-3.572-1.92.93-1.09 1.722-2.465 2.038-3.871.059-.264.096-.487.119-.657h1.85a.75.75 0 0 0 0-1.5h-4.24zM6.994 6.857a7 7 0 0 1-.063-.315h3.378a6 6 0 0 1-.063.315c-.252 1.122-.896 2.23-1.626 3.11-.73-.88-1.374-1.988-1.626-3.11m8.483 5.547 1.961 3.922h-3.922z"/></svg>