<svg xmlns="http://www.w3.org/2000/svg" width="16" height="16" viewBox="0 0 16 16"><path fill-rule="evenodd" d="M6.295 1.773a.75.75 0 1 0-1.5 0v.791H1.778a.75.75 0 0 0 0 1.5H2.84l.024.11c.108.481.311 1.135.69 1.847.219.41.494.834.839 1.253-.638.506-1.457.97-2.51 1.322a.75.75 0 0 0 .473 1.423c1.3-.433 2.313-1.024 3.102-1.678.744.616 1.686 1.176 2.88 1.601l-1.975 3.95a.75.75 0 1 0 1.342.67l.99-1.98h3.865l.99 1.98a.75.75 0 1 0 1.342-.67L13.7 11.507l-.011-.023-2.39-4.781a.75.75 0 0 0-1.342 0l-.943 1.885c-1.044-.35-1.857-.812-2.49-1.315.344-.42.62-.844.837-1.253a7.4 7.4 0 0 0 .715-1.957h1.235a.75.75 0 0 0 0-1.5H6.295zm-.836 4.433a6.1 6.1 0 0 0 1.076-2.142H4.382a6.1 6.1 0 0 0 1.076 2.142m6.352 4.875-1.183-2.365-1.182 2.365z"/></svg>