<svg xmlns="http://www.w3.org/2000/svg" width="24" height="24" viewBox="0 0 24 24"><path fill-rule="evenodd" d="M19.5 12a7.5 7.5 0 1 1-15 0 7.5 7.5 0 0 1 15 0m1.5 0a9 9 0 1 1-18 0 9 9 0 0 1 18 0m-11-1.417c0-.356.11-.905.415-1.34.277-.398.739-.743 1.585-.743s1.308.345 1.585.742c.305.436.415.985.415 1.341 0 .47-.233 1.017-.702 1.621-.462.595-1.095 1.17-1.757 1.682a19 19 0 0 1-2.582 1.67l-.041.021-.01.005-.001.001A.75.75 0 0 0 9.25 17h5.5a.75.75 0 0 0 0-1.5h-2.868q.286-.203.577-.427c.713-.552 1.455-1.216 2.024-1.949.562-.724 1.017-1.594 1.017-2.54 0-.588-.165-1.457-.685-2.201C14.267 7.599 13.354 7 12 7s-2.267.6-2.815 1.383c-.52.744-.685 1.613-.685 2.2a.75.75 0 0 0 1.5 0m-1.093 5 .343.667-.274-.531z"/></svg>