<svg xmlns="http://www.w3.org/2000/svg" width="32" height="32" fill="none" viewBox="0 0 32 32"><path fill="currentColor" fill-rule="evenodd" d="M26 16c0 5.523-4.477 10-10 10S6 21.523 6 16 10.477 6 16 6s10 4.477 10 10m2 0c0 6.627-5.373 12-12 12S4 22.627 4 16 9.373 4 16 4s12 5.373 12 12m-14.334-1.667c0-.396.127-1.011.479-1.5.314-.436.847-.834 1.855-.834s1.54.398 1.856.835a2.73 2.73 0 0 1 .478 1.5c0 .505-.26 1.12-.823 1.823-.551.69-1.312 1.36-2.111 1.96a23.263 23.263 0 0 1-3.118 1.957l-.05.026-.011.005-.002.001a1 1 0 0 0 .447 1.895h6.668a1 1 0 1 0 0-2h-3.121c.128-.092.258-.187.387-.284.868-.65 1.774-1.438 2.473-2.31.687-.86 1.26-1.912 1.26-3.074 0-.716-.206-1.767-.854-2.668C18.793 10.713 17.659 10 16 10c-1.66 0-2.793.714-3.479 1.666-.648.901-.855 1.952-.855 2.668a1 1 0 1 0 2 0"/></svg>