<svg xmlns="http://www.w3.org/2000/svg" width="16" height="16" viewBox="0 0 16 16"><path fill-rule="evenodd" d="M13.5 8a5.5 5.5 0 1 1-11 0 5.5 5.5 0 0 1 11 0M15 8A7 7 0 1 1 1 8a7 7 0 0 1 14 0M6.5 6.917c0-.236.08-.61.3-.905.194-.26.533-.512 1.2-.512.667 0 1.006.253 1.2.512.22.295.3.67.3.905 0 .286-.155.66-.53 1.112-.365.44-.872.87-1.41 1.259a15.703 15.703 0 0 1-2.094 1.266l-.033.016-.007.004h-.001A.75.75 0 0 0 5.75 12h4.5a.75.75 0 0 0 0-1.5H8.444c.587-.424 1.203-.939 1.68-1.513.468-.564.876-1.273.876-2.07 0-.487-.145-1.196-.6-1.804C9.92 4.47 9.134 4 8 4s-1.92.47-2.4 1.113A3.107 3.107 0 0 0 5 6.917a.75.75 0 0 0 1.5 0"/></svg>