<svg xmlns="http://www.w3.org/2000/svg" width="24" height="24" viewBox="0 0 24 24"><path fill-rule="evenodd" d="M2.909 5.245c0-.69.56-1.25 1.25-1.25h15.69c.69 0 1.25.56 1.25 1.25v2.226a1.25 1.25 0 0 1-1.089 1.24v10.037c0 .69-.56 1.25-1.25 1.25H5.247c-.69 0-1.25-.56-1.25-1.25V8.711A1.25 1.25 0 0 1 2.91 7.47zm1.5.25v1.726h15.19V5.495zm1.088 3.226v9.777H18.51V8.721zm7.995 5.017a.75.75 0 0 0 1.06-1.061l-2.018-2.018a.75.75 0 0 0-1.06 0l-2.019 2.018a.75.75 0 0 0 1.06 1.06l.739-.738v3.034a.75.75 0 0 0 1.5 0V13z"/></svg>