<svg xmlns="http://www.w3.org/2000/svg" width="32" height="32" viewBox="0 0 32 32"><path fill-rule="evenodd" d="M4.643 7.5a1.5 1.5 0 0 1 1.5-1.5h19.714a1.5 1.5 0 0 1 1.5 1.5v3.004a1.5 1.5 0 0 1-1.35 1.492V24.5a1.5 1.5 0 0 1-1.5 1.5H7.493a1.5 1.5 0 0 1-1.5-1.5V11.996a1.5 1.5 0 0 1-1.351-1.492V7.5m2 .5v2.004h18.714V8H6.643Zm1.35 4.004V24h16.013V12.004H7.994Zm9.805 6.206a1 1 0 0 0 1.415-1.415l-2.506-2.505a1 1 0 0 0-1.414 0l-2.505 2.506a1 1 0 1 0 1.414 1.414l.798-.798v3.598a1 1 0 1 0 2 0v-3.598l.798.798"/></svg>