<svg xmlns="http://www.w3.org/2000/svg" width="16" height="16" fill="none" viewBox="0 0 16 16"><path fill="currentColor" fill-rule="evenodd" d="M4.75 3.25a.75.75 0 0 1 .75-.75h8.75a.75.75 0 0 1 0 1.5H5.5a.75.75 0 0 1-.75-.75m0 4.75a.75.75 0 0 1 .75-.75h8.75a.75.75 0 0 1 0 1.5H5.5A.75.75 0 0 1 4.75 8m0 4.75A.75.75 0 0 1 5.5 12h8.75a.75.75 0 0 1 0 1.5H5.5a.75.75 0 0 1-.75-.75"/><path fill="currentColor" d="M3.5 3.25a1.25 1.25 0 1 1-2.5 0 1.25 1.25 0 0 1 2.5 0M3.5 8A1.25 1.25 0 1 1 1 8a1.25 1.25 0 0 1 2.5 0m0 4.75a1.25 1.25 0 1 1-2.5 0 1.25 1.25 0 0 1 2.5 0"/></svg>