<svg xmlns="http://www.w3.org/2000/svg" width="24" height="24" fill="none" viewBox="0 0 24 24"><path fill="currentColor" fill-rule="evenodd" d="M7.005 6.252a.75.75 0 0 1 .75-.75h12.499a.75.75 0 0 1 0 1.5H7.755a.75.75 0 0 1-.75-.75m0 5.748a.75.75 0 0 1 .75-.75h12.499a.75.75 0 0 1 0 1.5H7.755a.75.75 0 0 1-.75-.75m0 5.746a.75.75 0 0 1 .75-.75h12.499a.75.75 0 0 1 0 1.5H7.755a.75.75 0 0 1-.75-.75"/><path fill="currentColor" d="M5.5 6.252a1.25 1.25 0 1 1-2.5 0 1.25 1.25 0 0 1 2.5 0M5.5 12A1.25 1.25 0 1 1 3 12a1.25 1.25 0 0 1 2.5 0m0 5.746a1.25 1.25 0 1 1-2.5 0 1.25 1.25 0 0 1 2.5 0"/></svg>