<svg xmlns="http://www.w3.org/2000/svg" width="32" height="32" viewBox="0 0 32 32"><path fill-rule="evenodd" d="M14.826 4.554a1.5 1.5 0 0 1 2.348 0l3.931 4.94 4.22-2.451c1.13-.657 2.5.345 2.217 1.621l-2.535 11.448V24.5a1.5 1.5 0 0 1-1.5 1.5H8.503a1.5 1.5 0 0 1-1.5-1.5v-4.387L4.46 8.666c-.283-1.276 1.087-2.28 2.218-1.623l4.218 2.45 3.931-4.939M9.003 21.003V24h14.004v-2.997zm14.201-2 2.139-9.658-3.607 2.095a1.5 1.5 0 0 1-1.927-.363L16 6.29l-3.81 4.786a1.5 1.5 0 0 1-1.926.363L6.659 9.346l2.146 9.657h14.4"/></svg>