<svg xmlns="http://www.w3.org/2000/svg" width="16" height="16" viewBox="0 0 16 16"><path fill-rule="evenodd" d="M7.022 2.509a1.25 1.25 0 0 1 1.956 0l1.782 2.238 1.598-.928c.946-.55 2.091.295 1.846 1.361l-1.16 5.04v2.533c0 .69-.56 1.25-1.25 1.25H4.206c-.69 0-1.25-.56-1.25-1.25V10.22l-1.16-5.04c-.245-1.066.9-1.91 1.846-1.36l1.598.927L7.022 2.51m-2.566 8.376v1.618h7.088v-1.618zm7.241-1.5.916-3.98-1.286.748A1.25 1.25 0 0 1 9.72 5.85L8 3.69 6.28 5.85a1.25 1.25 0 0 1-1.607.303l-1.286-.747.916 3.979h7.394"/></svg>