<svg xmlns="http://www.w3.org/2000/svg" width="24" height="24" viewBox="0 0 24 24"><path fill-rule="evenodd" d="M11.022 4.472a1.25 1.25 0 0 1 1.956 0l2.749 3.452 2.77-1.609c.95-.551 2.099.303 1.844 1.372l-1.828 7.654v3.415c0 .69-.56 1.25-1.25 1.25H6.744c-.69 0-1.25-.56-1.25-1.25V15.34L3.661 7.688c-.256-1.069.893-1.924 1.843-1.372l2.77 1.608zm-4.028 11.53v2.504h10.02v-2.503zm10.177-1.5 1.575-6.597-2.453 1.425a1.25 1.25 0 0 1-1.605-.302L12 5.65 9.313 9.027a1.25 1.25 0 0 1-1.606.303L5.255 7.906l1.581 6.597z"/></svg>