<svg xmlns="http://www.w3.org/2000/svg" width="16" height="16" viewBox="0 0 16 16"><path fill-rule="evenodd" d="M2.04 1.156a.75.75 0 0 0-.877 1.193l.043.043A.996.996 0 0 0 1 3v10a1 1 0 0 0 1 1h9a1 1 0 0 0 .985-.829l1.792 1.792a.749.749 0 0 0 1.194-.877L2.04 1.156Zm11.758 10.343.074.043A.75.75 0 0 0 15 10.894V5.106a.75.75 0 0 0-1.128-.648L12 5.55V3a1 1 0 0 0-1-1H4.299l1.5 1.5H10.5v.454a.717.717 0 0 0-.001.046v4.2l3.299 3.299M2.5 12.5V3.686l8 8v.814zm9.499-3.787 1.501.876V6.412l-1.501.876v1.425"/></svg>