<svg xmlns="http://www.w3.org/2000/svg" width="24" height="24" viewBox="0 0 24 24"><path fill-rule="evenodd" d="M8.246 5.5c-2.027 0-3.742 2.017-3.742 4.25 0 1.316.586 2.596 1.768 4.068 1.188 1.48 2.904 3.065 5.04 5.001l.018.018.63.612c.024.02.063.021.092-.002l.628-.604.016-.015c2.135-1.94 3.851-3.528 5.04-5.01 1.181-1.472 1.768-2.752 1.768-4.068 0-2.23-1.727-4.25-3.758-4.25-1.205 0-2.411.59-3.175 1.486a.75.75 0 0 1-1.142 0C10.666 6.09 9.453 5.5 8.246 5.5M3.004 9.75C3.004 6.901 5.192 4 8.246 4c1.384 0 2.74.552 3.754 1.436C13.01 4.552 14.36 4 15.746 4c3.052 0 5.258 2.898 5.258 5.75 0 1.803-.816 3.409-2.099 5.008-1.274 1.588-3.083 3.255-5.193 5.173l-.633.61-.017.016a1.575 1.575 0 0 1-2.134-.02l-.634-.615c-2.11-1.913-3.917-3.578-5.192-5.165-1.282-1.598-2.098-3.204-2.098-5.007M8.25 12a.75.75 0 0 1 .75-.75h2.25V9a.75.75 0 0 1 1.5 0v2.25H15a.75.75 0 0 1 0 1.5h-2.25V15a.75.75 0 0 1-1.5 0v-2.25H9a.75.75 0 0 1-.75-.75"/></svg>