<svg xmlns="http://www.w3.org/2000/svg" width="16" height="16" viewBox="0 0 16 16"><path fill-rule="evenodd" d="M5 8a.75.75 0 0 1 .75-.75h4.5a.75.75 0 0 1 0 1.5h-4.5A.75.75 0 0 1 5 8"/><path fill-rule="evenodd" d="M8 5a.75.75 0 0 1 .75.75v4.5a.75.75 0 0 1-1.5 0v-4.5A.75.75 0 0 1 8 5"/><path fill-rule="evenodd" d="M5 2.75c-1.357 0-2.5 1.355-2.5 3.167 0 1.329.444 2.31 1.297 3.358.635.781 1.456 1.553 2.47 2.508.417.392.866.815 1.348 1.281l.001.001.386.375.382-.368.001-.001c.485-.47.937-.896 1.355-1.29 1.011-.954 1.83-1.725 2.463-2.505.854-1.049 1.297-2.03 1.297-3.36 0-1.811-1.143-3.166-2.5-3.166-.688 0-1.157.092-1.51.244-.343.148-.624.373-.904.724a.75.75 0 0 1-1.172 0c-.28-.35-.561-.576-.904-.724-.353-.152-.822-.244-1.51-.244M1 5.917C1 3.622 2.507 1.25 5 1.25c.812 0 1.502.107 2.104.366.338.146.633.333.896.556a3.6 3.6 0 0 1 .896-.556c.602-.26 1.292-.366 2.104-.366 2.493 0 4 2.372 4 4.667 0 1.754-.619 3.059-1.633 4.306-.7.861-1.628 1.736-2.677 2.724q-.608.571-1.262 1.202l-.001.001-.486.468c-.53.51-1.355.51-1.883-.004l-.486-.472q-.65-.625-1.254-1.192c-1.052-.99-1.983-1.865-2.685-2.728C1.62 8.976 1 7.671 1 5.917"/></svg>