<svg xmlns="http://www.w3.org/2000/svg" width="32" height="32" viewBox="0 0 32 32"><path fill-rule="evenodd" d="M11.05 7C8.203 7 6 9.175 6 12c0 1.765.791 3.57 2.371 5.63 1.583 2.063 3.872 4.273 6.706 6.842l.001.001.857.78q.036.033.068.068a1 1 0 0 1 .067-.067l.852-.77.001-.001c2.834-2.575 5.123-4.787 6.705-6.85S26 13.764 26 12c0-2.825-2.203-5-5.05-5-1.728 0-3.24.534-4.189 1.648a1 1 0 0 1-1.522 0C14.289 7.534 12.778 7 11.05 7M4 12c0-3.951 3.12-7 7.05-7 1.758 0 3.56.456 4.95 1.602C17.39 5.456 19.192 5 20.95 5 24.88 5 28 8.049 28 12c0 2.393-1.079 4.625-2.785 6.85-1.703 2.221-4.116 4.541-6.947 7.114l-.003.002-.824.745c-.383.398-.894.63-1.442.629a2 2 0 0 1-1.44-.634l-.826-.752v-.001c-2.832-2.567-5.244-4.884-6.948-7.105C5.079 16.625 4 14.393 4 12m7 4a1 1 0 0 1 1-1h3v-3a1 1 0 1 1 2 0v3h3a1 1 0 1 1 0 2h-3v3a1 1 0 1 1-2 0v-3h-3a1 1 0 0 1-1-1"/></svg>