<svg xmlns="http://www.w3.org/2000/svg" width="16" height="16" viewBox="0 0 16 16"><path d="M3.5 9.5v-7H8v1.175l1.5.131V2a1 1 0 0 0-1-1H3a1 1 0 0 0-1 1v8a1 1 0 0 0 1 1h2.344l.131-1.5z"/><path fill-rule="evenodd" d="m7.364 5.125-.698 7.97 5.48.479.697-7.97zm-.368-1.538a1 1 0 0 0-1.083.91l-.785 8.965a1 1 0 0 0 .91 1.083l6.475.567a1 1 0 0 0 1.083-.91l.784-8.965a1 1 0 0 0-.909-1.083z"/><path fill-rule="evenodd" d="M7.645 9.34a.75.75 0 0 1 1.016.305c.264.49.67.723 1.06.757s.832-.124 1.177-.562a.75.75 0 0 1 1.178.93c-.643.814-1.567 1.206-2.485 1.126s-1.76-.627-2.252-1.54a.75.75 0 0 1 .306-1.017"/><path d="M8.616 8.59a.75.75 0 1 0 .131-1.493.75.75 0 0 0-.13 1.494m2.499.312a.75.75 0 1 0 .131-1.494.75.75 0 0 0-.13 1.494"/></svg>