<svg xmlns="http://www.w3.org/2000/svg" width="16" height="16" viewBox="0 0 16 16"><path d="M5.75 6.5a.75.75 0 1 0 0-1.5.75.75 0 0 0 0 1.5m4.5 0a.75.75 0 1 0 0-1.5.75.75 0 0 0 0 1.5"/><path fill-rule="evenodd" d="M10.97 7.416a.75.75 0 0 1 .28.584c0 .822-.154 1.568-.553 2.152-.416.61-1.038.951-1.776 1.06a3.2 3.2 0 0 1-2.005-.326c-.61-.322-1.12-.837-1.545-1.49a.75.75 0 0 1 .468-1.14l4.5-.989a.75.75 0 0 1 .631.149M7.424 9.443q.096.066.191.116c.318.167.671.23 1.089.168.387-.057.609-.208.755-.422q.093-.133.164-.345z"/><path fill-rule="evenodd" d="M3.5 3.5v9h9v-9zM3 2a1 1 0 0 0-1 1v10a1 1 0 0 0 1 1h10a1 1 0 0 0 1-1V3a1 1 0 0 0-1-1z"/></svg>