<svg xmlns="http://www.w3.org/2000/svg" width="32" height="32" viewBox="0 0 32 32"><path d="M8 4a2 2 0 0 0-2 2v15.5a2 2 0 0 0 2 2h3.644l.175-2H8V6h11v2.525l2 .175V6a2 2 0 0 0-2-2z"/><path fill-rule="evenodd" d="M11.917 8.909a2 2 0 0 1 2.166-1.818L25.54 8.093a2 2 0 0 1 1.818 2.167L25.963 26.2a2 2 0 0 1-2.166 1.817L12.34 27.015a2 2 0 0 1-1.818-2.167zm13.448 1.177L13.91 9.083l-1.395 15.94 11.457 1.002z"/><path fill-rule="evenodd" d="M15.472 18.15a1 1 0 0 1 1.377.322 2.75 2.75 0 0 0 4.384.383 1 1 0 1 1 1.489 1.335c-2.114 2.358-5.9 2.027-7.571-.662a1 1 0 0 1 .321-1.377"/><path d="M16.822 16.08a1 1 0 1 0 .174-1.993 1 1 0 0 0-.174 1.992m4.5.501a1 1 0 1 0 .174-1.993 1 1 0 0 0-.174 1.992"/></svg>