<svg xmlns="http://www.w3.org/2000/svg" width="24" height="24" viewBox="0 0 24 24"><path d="M6.5 15.5v-11H14v1.937l1.5.132V4a1 1 0 0 0-1-1H6a1 1 0 0 0-1 1v12a1 1 0 0 0 1 1h2.038l.13-1.5z"/><path fill-rule="evenodd" d="m10.364 7.625-.96 10.958 7.97.697.96-10.958zm-.368-1.538a1 1 0 0 0-1.083.91L7.867 18.95a1 1 0 0 0 .909 1.083l8.966.784a1 1 0 0 0 1.083-.909l1.046-11.954a1 1 0 0 0-.91-1.083z"/><path fill-rule="evenodd" d="M11.068 14.387a.75.75 0 0 1 1.045.181c.737 1.047 2.434 1.195 3.341.292a.75.75 0 1 1 1.058 1.064c-1.567 1.558-4.353 1.314-5.625-.492a.75.75 0 0 1 .181-1.045"/><path d="M12.116 12.56a.75.75 0 1 0 .131-1.495.75.75 0 0 0-.13 1.495m3.499.5a.75.75 0 1 0 .131-1.495.75.75 0 0 0-.13 1.495"/></svg>