<svg xmlns="http://www.w3.org/2000/svg" width="32" height="32" viewBox="0 0 32 32"><path d="M11 14.5a1.5 1.5 0 1 0 0-3 1.5 1.5 0 0 0 0 3m8.5 0a1.5 1.5 0 1 0 0-3 1.5 1.5 0 0 0 0 3"/><path fill-rule="evenodd" d="M14.75 12.5 17 17h-4.5zM16 10a1 1 0 0 1 1-1h5.5a1 1 0 1 1 0 2H17a1 1 0 0 1-1-1m-4.02-.196a1 1 0 0 1-.784 1.177l-5 1a1 1 0 0 1-.392-1.962l5-1a1 1 0 0 1 1.177.785m9.904 7.423a1 1 0 0 1 .365.773c0 1.312-.275 2.477-.954 3.37-.695.916-1.713 1.414-2.915 1.572-2.418.318-4.426-.68-5.941-2.776a1 1 0 0 1 .616-1.567l8-1.58a1 1 0 0 1 .829.208m-6.673 2.985c.867.664 1.828.89 2.907.747.798-.105 1.28-.398 1.585-.798.172-.227.316-.526.413-.918z"/><path fill-rule="evenodd" d="M8 8v16h16V8zM7 6a1 1 0 0 0-1 1v18a1 1 0 0 0 1 1h18a1 1 0 0 0 1-1V7a1 1 0 0 0-1-1z"/></svg>