<svg width="32" height="32" viewBox="0 0 32 32" fill="none" xmlns="http://www.w3.org/2000/svg">
<path fill-rule="evenodd" clip-rule="evenodd" d="M16 26C21.5228 26 26 21.5228 26 16C26 10.4772 21.5228 6 16 6C10.4772 6 6 10.4772 6 16C6 21.5228 10.4772 26 16 26ZM16 28C22.6274 28 28 22.6274 28 16C28 9.37258 22.6274 4 16 4C9.37258 4 4 9.37258 4 16C4 22.6274 9.37258 28 16 28ZM9 16C9 15.4477 9.44772 15 10 15H15V10C15 9.44772 15.4477 9 16 9C16.5523 9 17 9.44772 17 10V15H22C22.5523 15 23 15.4477 23 16C23 16.5523 22.5523 17 22 17H17V22C17 22.5523 16.5523 23 16 23C15.4477 23 15 22.5523 15 22V17H10C9.44772 17 9 16.5523 9 16Z" fill="#3C3C3C"/>
</svg>
