<svg width="32" height="32" viewBox="0 0 32 32" fill="none" xmlns="http://www.w3.org/2000/svg">
<path fill-rule="evenodd" clip-rule="evenodd" d="M11 4C11.5523 4 12 4.44772 12 5V6H20V5C20 4.44772 20.4477 4 21 4C21.5523 4 22 4.44772 22 5V6H24C25.1046 6 26 6.89543 26 8V24C26 25.1046 25.1046 26 24 26H8C6.89543 26 6 25.1046 6 24V8C6 6.89543 6.89543 6 8 6H10V5C10 4.44772 10.4477 4 11 4ZM20 8V9C20 9.55228 20.4477 10 21 10C21.5523 10 22 9.55228 22 9V8H24V24H8V8H10V9C10 9.55228 10.4477 10 11 10C11.5523 10 12 9.55228 12 9V8H20ZM15.9669 11C16.5192 11 16.9669 11.4477 16.9669 12V14.9669H20C20.5523 14.9669 21 15.4147 21 15.9669C21 16.5192 20.5523 16.9669 20 16.9669H16.9669V20C16.9669 20.5523 16.5192 21 15.9669 21C15.4146 21 14.9669 20.5523 14.9669 20V16.9669H12C11.4477 16.9669 11 16.5192 11 15.9669C11 15.4147 11.4477 14.9669 12 14.9669H14.9669V12C14.9669 11.4477 15.4146 11 15.9669 11Z" fill="#3C3C3C"/>
</svg>
