<svg width="32" height="32" viewBox="0 0 32 32" fill="none" xmlns="http://www.w3.org/2000/svg">
<path fill-rule="evenodd" clip-rule="evenodd" d="M16.0095 6C10.4708 6 5.98083 10.49 5.98083 16.0287C5.98083 18.7696 7.08045 21.2538 8.86259 23.064C9.67346 21.2407 11.0178 19.7372 12.6908 18.8524C11.5427 17.9189 10.8092 16.4952 10.8092 14.9002C10.8092 12.0885 13.0885 9.80916 15.9002 9.80916C18.7119 9.80916 20.9913 12.0885 20.9913 14.9002C20.9913 16.4656 20.2848 17.866 19.1733 18.7998C19.53 18.9799 19.8826 19.1876 20.2244 19.4201C20.681 19.7309 20.7993 20.3529 20.4886 20.8095C20.1779 21.2661 19.5558 21.3843 19.0992 21.0736C18.0101 20.3325 16.9078 19.9913 16.143 19.9913C13.665 19.9913 11.4314 21.7439 10.4803 24.3967C12.0654 25.4462 13.9661 26.0574 16.0095 26.0574C16.5618 26.0574 17.0095 26.5051 17.0095 27.0574C17.0095 27.6096 16.5618 28.0574 16.0095 28.0574C9.36626 28.0574 3.98083 22.6719 3.98083 16.0287C3.98083 9.38542 9.36626 4 16.0095 4C22.6528 4 28.0382 9.38542 28.0382 16.0287C28.0382 16.581 27.5905 17.0287 27.0382 17.0287C26.4859 17.0287 26.0382 16.581 26.0382 16.0287C26.0382 10.49 21.5482 6 16.0095 6ZM15.9002 11.8092C14.1931 11.8092 12.8092 13.1931 12.8092 14.9002C12.8092 16.6073 14.1931 17.9912 15.9002 17.9912C17.6074 17.9912 18.9913 16.6073 18.9913 14.9002C18.9913 13.1931 17.6074 11.8092 15.9002 11.8092Z" fill="#3C3C3C"/>
<path d="M24 19C24.5523 19 25 19.4477 25 20V23H28C28.5523 23 29 23.4477 29 24C29 24.5523 28.5523 25 28 25H25V28C25 28.5523 24.5523 29 24 29C23.4477 29 23 28.5523 23 28V25H20C19.4477 25 19 24.5523 19 24C19 23.4477 19.4477 23 20 23H23V20C23 19.4477 23.4477 19 24 19Z" fill="#3C3C3C"/>
</svg>
