<svg width="32" height="32" viewBox="0 0 32 32" fill="none" xmlns="http://www.w3.org/2000/svg">
<path fill-rule="evenodd" clip-rule="evenodd" d="M16 26C21.5228 26 26 21.5228 26 16C26 10.4772 21.5228 6 16 6C10.4772 6 6 10.4772 6 16C6 21.5228 10.4772 26 16 26ZM16 28C22.6274 28 28 22.6274 28 16C28 9.37258 22.6274 4 16 4C9.37258 4 4 9.37258 4 16C4 22.6274 9.37258 28 16 28ZM20.1511 9.71013C21.4229 9.45578 22.5442 10.5771 22.2898 11.8489L20.7873 19.3616C20.6434 20.0811 20.081 20.6435 19.3616 20.7874L11.8493 22.2903C10.5775 22.5447 9.45613 21.4235 9.71042 20.1517L11.2126 12.6386C11.3565 11.919 11.9189 11.3566 12.6384 11.2127L20.1511 9.71013ZM20.275 11.725L13.1499 13.15L11.7253 20.2755L18.85 18.8501L20.275 11.725ZM15.9999 17.3855C16.7652 17.3855 17.3856 16.7651 17.3856 15.9999C17.3856 15.2346 16.7652 14.6143 15.9999 14.6143C15.2347 14.6143 14.6143 15.2346 14.6143 15.9999C14.6143 16.7651 15.2347 17.3855 15.9999 17.3855Z" fill="#3C3C3C"/>
</svg>
