<svg width="32" height="32" viewBox="0 0 32 32" fill="none" xmlns="http://www.w3.org/2000/svg">
<path d="M6.49339 7.26393C6.88259 7.12221 7.313 7.32283 7.45473 7.71203L13.7476 24.9931C13.8894 25.3823 13.6887 25.8127 13.2995 25.9544C12.9103 26.0962 12.4799 25.8955 12.3382 25.5063L6.04529 8.22528C5.90356 7.83607 6.10418 7.40566 6.49339 7.26393Z" fill="#3C3C3C"/>
<path fill-rule="evenodd" clip-rule="evenodd" d="M17.8289 8.15098C16.5401 6.81759 14.778 6.04471 12.9234 6.0002L12.9069 6H12.3582C12.3451 6 12.332 6.00037 12.319 6.00112C11.314 6.05842 10.3328 6.32938 9.44091 6.7959C8.54897 7.26242 7.76677 7.91378 7.1465 8.70653C7.10225 8.76308 7.01738 8.8385 6.92307 8.9223C6.70893 9.11259 6.44616 9.34608 6.50004 9.49996L9.99996 18.9999C10.0558 19.1592 10.3436 19.1015 10.6119 19.0477C10.762 19.0176 10.9061 18.9888 10.9999 18.9999C11.1757 19.0206 11.2312 18.8625 11.2919 18.6894C11.3112 18.6344 11.331 18.578 11.3554 18.5252C11.3601 18.515 11.365 18.505 11.3701 18.4951C11.3791 18.4775 11.3888 18.4605 11.3993 18.4442C11.5002 18.2875 11.6084 18.1361 11.7235 17.9906C11.7317 17.9802 11.7399 17.9699 11.7481 17.9596C12.1875 17.4117 12.7244 16.9472 13.3334 16.5907C14.1142 16.1335 14.9916 15.8666 15.8947 15.8114C16.3973 15.7833 16.9014 15.8181 17.3953 15.915C17.8484 16.0245 18.3128 16.0804 18.779 16.0815L18.7806 16.0815H19.3293C19.3427 16.0815 19.356 16.0811 19.3694 16.0804C20.9752 15.9867 22.5025 15.3539 23.7039 14.2843C24.6035 13.4834 25.2809 12.4728 25.6816 11.3506C25.6851 11.3408 25.6885 11.3311 25.692 11.3213C25.7317 11.2085 25.7686 11.0946 25.8027 10.9797C25.8797 10.7201 25.9421 10.4554 25.9894 10.1866C26.0352 9.92643 25.9282 9.66295 25.714 9.50833C25.4998 9.3537 25.216 9.33514 24.9835 9.46055C24.695 9.61611 24.3948 9.74682 24.0863 9.85173C24.0622 9.85992 24.0381 9.86794 24.0139 9.87581C24.0137 9.87589 24.0141 9.87574 24.0139 9.87581C23.5409 10.0297 23.0482 10.1236 22.5489 10.1537C21.725 10.1997 20.9008 10.0684 20.132 9.76846C19.3627 9.4684 18.6669 9.00661 18.0916 8.41435C18.0799 8.40227 18.0677 8.39063 18.0552 8.37945C18.0336 8.36026 18.0133 8.3392 17.9728 8.29598L17.9667 8.28943C17.9354 8.25596 17.887 8.20406 17.8289 8.15098ZM16.6856 9.83715C16.6094 9.76627 16.5489 9.70144 16.5181 9.66851C16.516 9.66629 16.5141 9.66421 16.5123 9.66229L16.5055 9.65498C16.4897 9.6381 16.4838 9.63193 16.4786 9.6266C16.4777 9.62565 16.477 9.62492 16.4764 9.62439C16.4471 9.59743 16.4185 9.5696 16.3908 9.54093C15.4707 8.58894 14.2138 8.03564 12.8902 8H12.3977C11.6889 8.04535 10.9974 8.23884 10.3679 8.56812C9.75112 8.8907 9.20751 9.33645 8.77054 9.87747L10.9758 15.8632C11.3861 15.484 11.8375 15.1489 12.3229 14.8647C13.3745 14.249 14.5563 13.8895 15.7727 13.8151L15.7831 13.8145C16.4519 13.7771 17.1228 13.8234 17.7801 13.9523C17.8086 13.9579 17.837 13.9641 17.8652 13.971C18.1656 14.0436 18.4736 14.0807 18.7827 14.0815H19.2889C20.432 14.0068 21.5179 13.5527 22.374 12.7905C22.6038 12.5859 22.8134 12.3624 23.0012 12.123C22.8908 12.1344 22.7801 12.1434 22.6692 12.1501L22.6605 12.1506C21.5508 12.2126 20.4406 12.0356 19.4051 11.6317C18.3818 11.2325 17.4549 10.6208 16.6856 9.83715ZM18.7838 14.0815C18.7836 14.0815 18.784 14.0815 18.7838 14.0815L18.7806 16.0815V15.3916M18.7827 14.0815H18.7806V15.1165M18.7838 14.0815L18.7827 14.0815L18.7838 14.0815Z" fill="#3C3C3C"/>
</svg>
