<svg width="32" height="32" viewBox="0 0 32 32" fill="none" xmlns="http://www.w3.org/2000/svg">
<path fill-rule="evenodd" clip-rule="evenodd" d="M12.1385 11.7657C11.2043 10.8601 11.2043 9.39178 12.1385 8.48616C13.0726 7.58053 14.5871 7.58053 15.5212 8.48616L17.7925 10.6881C18.189 11.0726 18.189 11.6959 17.7925 12.0803C17.396 12.4647 16.7531 12.4647 16.3566 12.0803L14.0853 9.87829C13.9442 9.74153 13.7155 9.74153 13.5744 9.87829C13.4333 10.0151 13.4333 10.2368 13.5744 10.3736C13.9709 10.758 13.9709 11.3813 13.5744 11.7657C13.1779 12.1501 12.535 12.1501 12.1385 11.7657ZM19.0252 13.096C18.3958 11.9926 18.7918 10.5992 19.9229 9.96612C21.0665 9.32597 22.5288 9.70551 23.1897 10.8138C23.1899 10.8142 23.1901 10.8146 23.1904 10.8149L26.0641 15.6081C26.0696 15.6173 26.075 15.6266 26.0803 15.636C26.9307 17.1673 27.2359 18.7364 26.912 20.3066C26.5912 21.8615 25.6755 23.312 24.2819 24.663C22.935 25.9688 21.0588 26.8211 18.8753 26.6702C18.316 26.6316 17.8949 26.1606 17.9347 25.6183C17.9746 25.076 18.4604 24.6678 19.0197 24.7064C20.5369 24.8113 21.856 24.2306 22.8459 23.2709C24.0481 22.1054 24.7007 20.9869 24.9207 19.9204C25.1367 18.8732 24.9573 17.7729 24.2998 16.5831L21.4332 11.8018L21.4317 11.7993C21.3319 11.6318 21.111 11.5744 20.9382 11.6711C20.7655 11.7678 20.7063 11.982 20.806 12.1495C20.8192 12.1717 20.8315 12.1944 20.8429 12.2175L22.8578 16.3077C23.0995 16.7982 22.8852 17.3859 22.3791 17.6202C21.8731 17.8545 21.267 17.6467 21.0253 17.1561L19.0252 13.096Z" fill="#3C3C3C"/>
<path fill-rule="evenodd" clip-rule="evenodd" d="M5.32139 12.6285C4.73202 11.7315 4.84125 10.5275 5.64907 9.74436C6.45689 8.96119 7.69876 8.85529 8.62396 9.42668C8.70301 9.31725 8.79294 9.21296 8.89375 9.11522C9.82788 8.2096 11.3424 8.2096 12.2765 9.11522L15.51 12.2501C15.6171 11.5798 16.0251 10.9607 16.6782 10.5952C17.8217 9.9551 19.2838 10.3345 19.9448 11.4425C19.9451 11.443 19.9454 11.4435 19.9457 11.444L22.8194 16.2371C22.8249 16.2464 22.8303 16.2557 22.8356 16.2651C23.686 17.7964 23.9912 19.3654 23.6673 20.9356C23.3465 22.4906 22.4307 23.9411 21.0372 25.2921C19.7286 26.5608 17.9195 27.4024 15.8117 27.3095C13.7084 27.2169 11.4538 26.2012 9.21822 24.0338L4.67566 19.6299C3.74154 18.7242 3.74154 17.2559 4.67566 16.3503C4.76274 16.2659 4.85486 16.1893 4.95108 16.1207C4.0663 15.2118 4.08265 13.7795 5.00013 12.8901C5.10094 12.7923 5.20852 12.7051 5.32139 12.6285ZM6.94694 14.2822C6.80587 14.1454 6.57715 14.1454 6.43608 14.2822C6.29501 14.419 6.29501 14.6407 6.43608 14.7775L8.05842 16.3503C8.45495 16.7347 8.45495 17.358 8.05842 17.7425C7.6619 18.1269 7.019 18.1269 6.62247 17.7425C6.4814 17.6057 6.25268 17.6057 6.11161 17.7425C5.97054 17.8792 5.97054 18.101 6.11161 18.2377L10.6542 22.6417C12.6367 24.5637 14.438 25.2782 15.9039 25.3428C17.3651 25.4072 18.6385 24.8333 19.6012 23.9C20.8034 22.7345 21.4559 21.6159 21.6759 20.5495C21.892 19.5023 21.7126 18.402 21.0551 17.2122L18.1885 12.4309L18.187 12.4284C18.0872 12.2609 17.8663 12.2035 17.6935 12.3002C17.5208 12.3969 17.4616 12.6111 17.5613 12.7786C17.5759 12.8031 17.5894 12.8282 17.6018 12.8538L18.9677 15.6857C19.1765 16.1186 19.0344 16.6344 18.6308 16.9087C18.2271 17.1831 17.6785 17.1367 17.3299 16.7987L10.8406 10.5074C10.6995 10.3706 10.4708 10.3706 10.3297 10.5074C10.1886 10.6441 10.1886 10.8659 10.3297 11.0026C10.7262 11.3871 10.7262 12.0103 10.3297 12.3948C9.93318 12.7792 9.29028 12.7792 8.89376 12.3948L7.59588 11.1365C7.45481 10.9997 7.22609 10.9997 7.08502 11.1365C6.94395 11.2733 6.94395 11.495 7.08502 11.6318L8.38289 12.8901C8.77942 13.2745 8.77942 13.8978 8.38289 14.2822C7.98637 14.6666 7.34347 14.6666 6.94694 14.2822Z" fill="#3C3C3C"/>
<path fill-rule="evenodd" clip-rule="evenodd" d="M6.62246 16.3501C7.01898 15.9657 7.6619 15.9659 8.05842 16.3503L10.4919 18.7094C10.8885 19.0938 10.8885 19.7171 10.4919 20.1015C10.0954 20.4859 9.4525 20.4859 9.05597 20.1015L6.62247 17.7425C6.22595 17.358 6.22593 16.7345 6.62246 16.3501Z" fill="#3C3C3C"/>
<path fill-rule="evenodd" clip-rule="evenodd" d="M6.94694 12.8899C7.34346 12.5055 7.98637 12.5056 8.38289 12.8901L12.1143 16.5074C12.5108 16.8919 12.5108 17.5152 12.1143 17.8996C11.7178 18.284 11.0749 18.284 10.6783 17.8996L6.94694 14.2822C6.55042 13.8978 6.55041 13.2743 6.94694 12.8899Z" fill="#3C3C3C"/>
<path fill-rule="evenodd" clip-rule="evenodd" d="M8.89379 11.0027C9.29032 10.6182 9.93318 10.6182 10.3297 11.0026L14.0611 14.6202C14.4577 15.0047 14.4577 15.6279 14.0611 16.0124C13.6646 16.3968 13.0217 16.3968 12.6252 16.0124L8.89376 12.3948C8.49723 12.0103 8.49726 11.3871 8.89379 11.0027Z" fill="#3C3C3C"/>
<path fill-rule="evenodd" clip-rule="evenodd" d="M19.5482 8.81787C19.0699 8.54173 18.906 7.93014 19.1821 7.45185L20.1821 5.7198C20.4583 5.2415 21.0699 5.07763 21.5482 5.35377C22.0265 5.62991 22.1903 6.2415 21.9142 6.71979L20.9142 8.45185C20.6381 8.93014 20.0265 9.09401 19.5482 8.81787Z" fill="#3C3C3C"/>
<path fill-rule="evenodd" clip-rule="evenodd" d="M16.0341 7.99118C15.5006 7.84824 15.184 7.2999 15.327 6.76644L15.8446 4.83458C15.9876 4.30112 16.5359 3.98454 17.0694 4.12748C17.6028 4.27042 17.9194 4.81876 17.7765 5.35222L17.2588 7.28407C17.1159 7.81754 16.5675 8.13412 16.0341 7.99118Z" fill="#3C3C3C"/>
<path fill-rule="evenodd" clip-rule="evenodd" d="M13.0694 7.50882C12.5359 7.65176 11.9876 7.33518 11.8446 6.80171L11.5858 5.83579C11.4429 5.30232 11.7594 4.75398 12.2929 4.61104C12.8264 4.4681 13.3747 4.78468 13.5176 5.31815L13.7765 6.28407C13.9194 6.81754 13.6028 7.36588 13.0694 7.50882Z" fill="#3C3C3C"/>
</svg>
