<svg width="32" height="32" viewBox="0 0 32 32" fill="none" xmlns="http://www.w3.org/2000/svg">
<path d="M20.6872 6C21.2395 6 21.6872 6.44772 21.6872 7L21.6872 22.5657L24.2928 19.9601C24.6834 19.5696 25.3165 19.5696 25.7071 19.9601C26.0976 20.3506 26.0976 20.9838 25.7071 21.3743L21.4042 25.6772C21.3721 25.7101 21.3379 25.7408 21.3017 25.769C21.2455 25.8129 21.1858 25.8499 21.1236 25.88C20.9917 25.9441 20.8436 25.98 20.6872 25.98C20.5613 25.98 20.4408 25.9568 20.3299 25.9143C20.2023 25.8656 20.0828 25.7899 19.98 25.6871L15.6672 21.3744C15.2767 20.9839 15.2767 20.3507 15.6672 19.9602C16.0577 19.5697 16.6909 19.5697 17.0814 19.9602L19.6872 22.5659L19.6872 7C19.6872 6.44772 20.1349 6 20.6872 6Z" fill="#3C3C3C"/>
<path d="M11.3128 25.9801C10.7605 25.9801 10.3128 25.5323 10.3128 24.9801L10.3128 9.41435L7.70716 12.02C7.31664 12.4105 6.68347 12.4105 6.29295 12.02C5.90243 11.6294 5.90243 10.9963 6.29296 10.6057L10.5951 6.30367C10.6287 6.269 10.6649 6.23676 10.7032 6.20724C10.7526 6.16917 10.8047 6.13635 10.8588 6.10877C10.995 6.03922 11.1493 6 11.3128 6C11.4544 6 11.5891 6.02942 11.7112 6.08249C11.8233 6.13112 11.9283 6.20127 12.02 6.29293L16.3328 10.6056C16.7233 10.9962 16.7233 11.6293 16.3328 12.0199C15.9422 12.4104 15.3091 12.4104 14.9185 12.0199L12.3128 9.41417L12.3128 24.9801C12.3128 25.5323 11.8651 25.9801 11.3128 25.9801Z" fill="#3C3C3C"/>
</svg>
