<svg width="32" height="32" viewBox="0 0 32 32" fill="none" xmlns="http://www.w3.org/2000/svg">
<path fill-rule="evenodd" clip-rule="evenodd" d="M15.9935 4.00635C15.4412 4.00635 14.9935 4.45406 14.9935 5.00635L14.9935 24.5919L7.69816 17.2966C7.30764 16.906 6.67447 16.906 6.28395 17.2966C5.89343 17.6871 5.89343 18.3202 6.28395 18.7108L15.2842 27.711C15.2892 27.7162 15.2942 27.7214 15.2994 27.7265C15.6899 28.117 16.3231 28.117 16.7136 27.7265L25.7291 18.7109C26.1196 18.3204 26.1196 17.6872 25.7291 17.2967C25.3386 16.9062 24.7054 16.9062 24.3149 17.2967L16.9935 24.6181L16.9935 5.00635C16.9935 4.45406 16.5458 4.00635 15.9935 4.00635Z" fill="#3C3C3C"/>
</svg>
