<svg width="32" height="32" viewBox="0 0 32 32" fill="none" xmlns="http://www.w3.org/2000/svg">
<path fill-rule="evenodd" clip-rule="evenodd" d="M25.7291 14.7291C26.1196 14.3386 26.1196 13.7054 25.729 13.3149L16.7211 4.30692C16.7186 4.3044 16.7161 4.30189 16.7136 4.29939C16.6213 4.20708 16.5155 4.13659 16.4024 4.08792C16.0373 3.93061 15.5975 4.00108 15.2993 4.29933C15.2953 4.30331 15.2914 4.3073 15.2875 4.31133L6.28389 13.3149C5.89337 13.7055 5.89337 14.3386 6.28389 14.7292C6.67442 15.1197 7.30758 15.1197 7.6981 14.7292L15.0194 7.40784V27.0195C15.0194 27.5718 15.4671 28.0195 16.0194 28.0195C16.5717 28.0195 17.0194 27.5718 17.0194 27.0195V7.43367L24.3148 14.7291C24.7054 15.1196 25.3385 15.1196 25.7291 14.7291Z" fill="#3C3C3C"/>
</svg>
