<svg width="32" height="32" viewBox="0 0 32 32" fill="none" xmlns="http://www.w3.org/2000/svg">
<path fill-rule="evenodd" clip-rule="evenodd" d="M17.0001 7.00055C17.0001 6.44826 17.4478 6.00055 18.0001 6.00055H25C25.5523 6.00055 26 6.44826 26 7.00055V14.0005C26 14.5528 25.5523 15.0005 25 15.0005C24.4477 15.0005 24 14.5528 24 14.0005V9.41473L9.41455 24.0002H13.9999C14.5522 24.0002 14.9999 24.4479 14.9999 25.0002C14.9999 25.5525 14.5522 26.0002 13.9999 26.0002H7C6.44771 26.0002 6 25.5525 6 25.0002V18.0002C6 17.448 6.44772 17.0002 7 17.0002C7.55228 17.0002 8 17.448 8 18.0002L8 22.5863L22.5858 8.00055L18.0001 8.00055C17.4478 8.00055 17.0001 7.55283 17.0001 7.00055Z" fill="#3C3C3C"/>
</svg>
