<svg width="32" height="32" viewBox="0 0 32 32" fill="none" xmlns="http://www.w3.org/2000/svg">
<path fill-rule="evenodd" clip-rule="evenodd" d="M17.2902 6.29036C17.6807 5.89984 18.3139 5.89984 18.7044 6.29036L27.7123 15.2982C27.7148 15.3007 27.7174 15.3033 27.72 15.3058C27.8908 15.4767 27.9869 15.694 28.0083 15.9172C28.0185 16.0242 28.0116 16.1326 27.9874 16.2378C27.9468 16.4146 27.8576 16.5824 27.72 16.7201C27.7175 16.7226 27.7151 16.725 27.7126 16.7274L18.7044 25.7356C18.3139 26.1261 17.6807 26.1261 17.2902 25.7356C16.8997 25.3451 16.8997 24.7119 17.2902 24.3214L24.6116 17L5 17C4.44772 17 4 16.5523 4 16C4 15.4477 4.44772 15 5 15L24.5856 15L17.2902 7.70457C16.8997 7.31405 16.8997 6.68088 17.2902 6.29036Z" fill="#3C3C3C"/>
</svg>
