<svg width="32" height="32" viewBox="0 0 32 32" fill="none" xmlns="http://www.w3.org/2000/svg">
<path fill-rule="evenodd" clip-rule="evenodd" d="M14.7228 6.29036C14.3323 5.89984 13.6991 5.89984 13.3086 6.29036L4.30074 15.2982C4.29816 15.3007 4.2956 15.3033 4.29304 15.3058C4.08633 15.5125 3.98904 15.7872 4.00116 16.058C4.01192 16.2987 4.10922 16.5363 4.29305 16.7201C4.29548 16.7226 4.29792 16.725 4.30037 16.7274L13.3086 25.7356C13.6991 26.1261 14.3323 26.1261 14.7228 25.7356C15.1133 25.3451 15.1133 24.7119 14.7228 24.3214L7.40143 17L27.013 17C27.5653 17 28.013 16.5523 28.013 16C28.013 15.4477 27.5653 15 27.013 15L7.42738 15L14.7228 7.70457C15.1133 7.31405 15.1133 6.68088 14.7228 6.29036Z" fill="#3C3C3C"/>
</svg>
