<svg width="32" height="32" viewBox="0 0 32 32" fill="none" xmlns="http://www.w3.org/2000/svg">
<path fill-rule="evenodd" clip-rule="evenodd" d="M12 11C12.5523 11 13 11.4477 13 12V21.7222C13 22.3462 13.1478 22.862 13.3352 23.1873C13.4824 23.4428 13.5911 23.4922 13.6138 23.5H16C16.5523 23.5 17 23.9477 17 24.5C17 25.0523 16.5523 25.5 16 25.5H13.6C12.6485 25.5 11.9784 24.8388 11.6021 24.1855C11.2104 23.5055 11 22.6324 11 21.7222V12C11 11.4477 11.4477 11 12 11Z" fill="#3C3C3C"/>
<path d="M16 22C16 21.4477 16.4477 21 17 21H25C25.5523 21 26 21.4477 26 22V27C26 27.5523 25.5523 28 25 28H17C16.4477 28 16 27.5523 16 27V22Z" fill="#3C3C3C"/>
<path fill-rule="evenodd" clip-rule="evenodd" d="M8 6V11H16V6H8ZM7 4C6.44772 4 6 4.44772 6 5V12C6 12.5523 6.44772 13 7 13H17C17.5523 13 18 12.5523 18 12V5C18 4.44772 17.5523 4 17 4H7Z" fill="#3C3C3C"/>
</svg>
