<svg width="32" height="32" viewBox="0 0 32 32" fill="none" xmlns="http://www.w3.org/2000/svg">
<path fill-rule="evenodd" clip-rule="evenodd" d="M16.6922 7.59691C18.8215 5.46761 22.2737 5.46761 24.403 7.59691C26.5323 9.72621 26.5323 13.1785 24.403 15.3078L15.3078 24.403C13.1785 26.5323 9.72627 26.5323 7.59697 24.403C5.46768 22.2737 5.46768 18.8214 7.59697 16.6921L11.7947 12.4943C13.1513 11.1378 15.3506 11.1378 16.7071 12.4943C18.0636 13.8508 18.0636 16.0502 16.7071 17.4067L14.2584 19.8554C13.8679 20.2459 13.2347 20.2459 12.8442 19.8554C12.4537 19.4649 12.4537 18.8317 12.8442 18.4412L15.2929 15.9925C15.8684 15.417 15.8684 14.484 15.2929 13.9085C14.7174 13.3331 13.7844 13.3331 13.209 13.9085L9.01119 18.1063C7.66294 19.4546 7.66294 21.6405 9.01119 22.9888C10.3594 24.337 12.5454 24.337 13.8936 22.9888L22.9888 13.8936C24.3371 12.5453 24.3371 10.3594 22.9888 9.01113C21.6406 7.66288 19.4546 7.66288 18.1064 9.01113L17.7565 9.36094C17.366 9.75147 16.7329 9.75147 16.3423 9.36094C15.9518 8.97042 15.9518 8.33725 16.3423 7.94673L16.6922 7.59691Z" fill="#3C3C3C"/>
</svg>
