<svg width="32" height="32" viewBox="0 0 32 32" fill="none" xmlns="http://www.w3.org/2000/svg">
<path fill-rule="evenodd" clip-rule="evenodd" d="M16 4C15.6632 4 15.3297 4.01387 15 4.04107C9.1702 4.52202 4.52202 9.1702 4.04107 15C4.01387 15.3297 4 15.6632 4 16C4 16.3368 4.01387 16.6703 4.04107 17C4.52202 22.8298 9.1702 27.478 15 27.9589C15.3297 27.9861 15.6632 28 16 28C16.3368 28 16.6703 27.9861 17 27.9589C22.8298 27.478 27.478 22.8298 27.9589 17C27.9861 16.6703 28 16.3368 28 16C28 15.6632 27.9861 15.3297 27.9589 15C27.478 9.1702 22.8298 4.52202 17 4.04107C16.6703 4.01387 16.3368 4 16 4ZM15 6.04938C10.2756 6.51844 6.51844 10.2756 6.04938 15H15V6.04938ZM17 15V6.04938C21.7244 6.51844 25.4816 10.2756 25.9506 15H17ZM15 17H6.04938C6.51844 21.7244 10.2756 25.4816 15 25.9506V17ZM17 25.9506V17H25.9506C25.4816 21.7244 21.7244 25.4816 17 25.9506Z" fill="#3C3C3C"/>
<path fill-rule="evenodd" clip-rule="evenodd" d="M10.9167 16.0246C10.9167 13.201 9.2449 10.7659 6.83289 9.65882L7.66714 7.84113C10.7632 9.26211 12.9167 12.3908 12.9167 16.0246C12.9167 19.6584 10.7632 22.7871 7.66714 24.208L6.83289 22.3903C9.2449 21.2833 10.9167 18.8481 10.9167 16.0246Z" fill="#3C3C3C"/>
<path fill-rule="evenodd" clip-rule="evenodd" d="M7.87488 21.8311C9.76055 20.5754 11 18.4308 11 16C11 13.5692 9.76056 11.4246 7.87488 10.1689C6.69392 11.8108 6 13.823 6 16C6 18.1769 6.69392 20.1892 7.87488 21.8311ZM7.37678 7.65491C5.28641 9.81451 4 12.757 4 16C4 19.2429 5.28641 22.1855 7.37678 24.3451C10.6741 23.0095 13 19.7764 13 16C13 12.2236 10.6741 8.99047 7.37678 7.65491Z" fill="#3C3C3C"/>
<path fill-rule="evenodd" clip-rule="evenodd" d="M24.1251 21.8312C22.2394 20.5755 21 18.4309 21 16.0001C21 13.5693 22.2394 11.4247 24.1251 10.169C25.3061 11.8109 26 13.8231 26 16.0001C26 18.1771 25.3061 20.1893 24.1251 21.8312ZM24.6232 7.65503C26.7136 9.81463 28 12.7571 28 16.0001C28 19.2431 26.7136 22.1856 24.6232 24.3452C21.3259 23.0096 19 19.7765 19 16.0001C19 12.2237 21.3259 8.99059 24.6232 7.65503Z" fill="#3C3C3C"/>
</svg>
