<svg width="32" height="32" viewBox="0 0 32 32" fill="none" xmlns="http://www.w3.org/2000/svg">
<path fill-rule="evenodd" clip-rule="evenodd" d="M23 6C23.5523 6 24 5.55228 24 5C24 4.44772 23.5523 4 23 4C22.4477 4 22 4.44772 22 5C22 5.55228 22.4477 6 23 6ZM10 9C10 8.44772 9.55228 8 9 8C8.44772 8 8 8.44772 8 9L8 12H5C4.44772 12 4 12.4477 4 13V25C4 25.5523 4.44772 26 5 26H27C27.5523 26 28 25.5523 28 25V13C28 12.4477 27.5523 12 27 12H24V9C24 8.44772 23.5523 8 23 8C22.4477 8 22 8.44772 22 9V12H17V9C17 8.44772 16.5523 8 16 8C15.4477 8 15 8.44772 15 9V12H10V9ZM23 14H16H9H6V18.1913C6.52255 18.9173 6.8546 19 6.95423 19C7.0638 19 7.45448 18.8999 8.07053 17.9542C8.75729 16.8999 9.66941 16 10.8627 16C12.0559 16 12.968 16.8999 13.6548 17.9542C14.2708 18.8999 14.6615 19 14.7711 19C14.8806 19 15.2713 18.8999 15.8874 17.9542C16.5741 16.8999 17.4863 16 18.6795 16C19.8727 16 20.7849 16.8999 21.4716 17.9542C22.0877 18.8999 22.4784 19 22.5879 19C22.6975 19 23.0882 18.8999 23.7042 17.9542C24.1547 17.2626 24.6697 16.6832 25.276 16.3377C25.5092 16.2049 25.7518 16.1095 26 16.0546V14H23ZM6 24V20.7974C6.29604 20.9267 6.61369 21 6.95423 21C8.14747 21 9.05959 20.1001 9.74635 19.0458C10.3624 18.1001 10.7531 18 10.8627 18C10.9722 18 11.3629 18.1001 11.979 19.0458C12.6657 20.1001 13.5778 21 14.7711 21C15.9643 21 16.8764 20.1001 17.5632 19.0458C18.1792 18.1001 18.5699 18 18.6795 18C18.7891 18 19.1798 18.1001 19.7958 19.0458C20.4826 20.1001 21.3947 21 22.5879 21C23.7812 21 24.6933 20.1001 25.38 19.0458C25.6152 18.6847 25.8242 18.4389 26 18.2767V24H6ZM17 5C17 5.55228 16.5523 6 16 6C15.4477 6 15 5.55228 15 5C15 4.44772 15.4477 4 16 4C16.5523 4 17 4.44772 17 5ZM9 6C9.55228 6 10 5.55228 10 5C10 4.44772 9.55228 4 9 4C8.44772 4 8 4.44772 8 5C8 5.55228 8.44772 6 9 6Z" fill="#3C3C3C"/>
</svg>
