<svg width="32" height="32" viewBox="0 0 32 32" fill="none" xmlns="http://www.w3.org/2000/svg">
<path fill-rule="evenodd" clip-rule="evenodd" d="M18.3072 4.05437C18.711 4.19317 18.9821 4.57306 18.9821 5.00006V13.2286H23.9655C24.3474 13.2286 24.696 13.4461 24.8638 13.7893C25.0316 14.1324 24.9893 14.5411 24.7548 14.8426L14.8195 27.6141C14.5572 27.9513 14.1097 28.0846 13.7056 27.9459C13.3015 27.8073 13.0302 27.4272 13.0302 27.0001V18.7607H8.03443C7.6523 18.7607 7.30357 18.5429 7.13587 18.1995C6.96817 17.8561 7.01082 17.4472 7.24576 17.1458L17.1935 4.38524C17.456 4.04848 17.9034 3.91557 18.3072 4.05437ZM10.082 16.7607H14.0302C14.5825 16.7607 15.0302 17.2084 15.0302 17.7607V24.086L21.9206 15.2286H17.9821C17.4299 15.2286 16.9821 14.7809 16.9821 14.2286V7.90933L10.082 16.7607Z" fill="#3C3C3C"/>
</svg>
