<svg width="32" height="32" viewBox="0 0 32 32" fill="none" xmlns="http://www.w3.org/2000/svg">
<path fill-rule="evenodd" clip-rule="evenodd" d="M17.0251 7.56074C18.8427 5.74308 21.5492 5.36061 23.741 6.40769C24.034 6.54762 24.2407 6.82102 24.2956 7.14097C24.3505 7.46091 24.2466 7.78759 24.0171 8.01713L21.0085 11.0257L21.9043 11.9215L24.9129 8.91292C25.1424 8.68338 25.4691 8.57954 25.789 8.63442C26.109 8.6893 26.3824 8.89606 26.5223 9.18898C27.5694 11.3809 27.1869 14.0873 25.3693 15.9049C23.851 17.4232 21.7123 17.9399 19.7725 17.4592L10.6431 26.5887C10.2525 26.9792 9.61937 26.9792 9.22885 26.5887L6.34136 23.7012C6.15382 23.5137 6.04846 23.2593 6.04846 22.9941C6.04846 22.7289 6.15382 22.4745 6.34136 22.287L15.4708 13.1575C14.9901 11.2178 15.5067 9.07906 17.0251 7.56074ZM21.3696 7.83621C20.3143 7.78993 19.2442 8.17008 18.4393 8.97495C17.3273 10.0869 17.0257 11.7048 17.5402 13.0922C17.6761 13.4587 17.5861 13.8707 17.3097 14.147L8.46268 22.9941L9.93595 24.4674L18.783 15.6203C19.0594 15.3439 19.4714 15.2539 19.8378 15.3898C21.2253 15.9043 22.8431 15.6027 23.955 14.4907C24.7599 13.6858 25.1401 12.6158 25.0938 11.5604L22.6114 14.0428C22.2209 14.4333 21.5877 14.4333 21.1972 14.0428L18.8872 11.7328C18.6997 11.5453 18.5943 11.2909 18.5943 11.0257C18.5943 10.7605 18.6997 10.5061 18.8872 10.3186L21.3696 7.83621Z" fill="#3C3C3C"/>
</svg>
