<svg width="32" height="32" viewBox="0 0 32 32" fill="none" xmlns="http://www.w3.org/2000/svg">
<path fill-rule="evenodd" clip-rule="evenodd" d="M25.6 5C25.6 4.58153 25.3394 4.20731 24.9469 4.06212C24.5545 3.91693 24.1131 4.03148 23.8407 4.34921L22.2407 6.21588C22.0854 6.39712 22 6.62796 22 6.86667V8.58579L17.2934 13.2924C16.9018 13.105 16.4631 13 16 13C14.3431 13 13 14.3431 13 16C13 17.6569 14.3431 19 16 19C17.6569 19 19 17.6569 19 16C19 15.5369 18.895 15.0982 18.7076 14.7066L23.4142 10H25.1333C25.372 10 25.6029 9.91461 25.7841 9.75926L27.6508 8.15926C27.9685 7.88692 28.0831 7.44554 27.9379 7.05306C27.7927 6.66057 27.4185 6.4 27 6.4H25.6V5ZM6 16C6 10.4772 10.4772 6 16 6C17.2847 6 18.5106 6.24176 19.6362 6.68137C20.1507 6.88227 20.7306 6.6281 20.9315 6.11365C21.1324 5.59921 20.8782 5.0193 20.3638 4.81839C19.01 4.2897 17.5376 4 16 4C9.37258 4 4 9.37258 4 16C4 22.6274 9.37258 28 16 28C22.6274 28 28 22.6274 28 16C28 14.4624 27.7103 12.99 27.1816 11.6362C26.9807 11.1218 26.4008 10.8676 25.8863 11.0685C25.3719 11.2694 25.1177 11.8493 25.3186 12.3638C25.7582 13.4894 26 14.7153 26 16C26 21.5228 21.5228 26 16 26C10.4772 26 6 21.5228 6 16ZM10.5 16C10.5 12.9624 12.9624 10.5 16 10.5C16.2888 10.5 16.5717 10.5222 16.8474 10.5647C17.3932 10.649 17.904 10.2749 17.9883 9.72905C18.0726 9.18324 17.6984 8.67244 17.1526 8.58816C16.7763 8.53006 16.3913 8.5 16 8.5C11.8579 8.5 8.5 11.8579 8.5 16C8.5 20.1421 11.8579 23.5 16 23.5C20.1421 23.5 23.5 20.1421 23.5 16C23.5 15.6087 23.4699 15.2237 23.4118 14.8474C23.3276 14.3016 22.8168 13.9274 22.2709 14.0117C21.7251 14.096 21.351 14.6068 21.4353 15.1526C21.4778 15.4283 21.5 15.7112 21.5 16C21.5 19.0376 19.0376 21.5 16 21.5C12.9624 21.5 10.5 19.0376 10.5 16ZM16 17C16.5523 17 17 16.5523 17 16C17 15.4477 16.5523 15 16 15C15.4477 15 15 15.4477 15 16C15 16.5523 15.4477 17 16 17Z" fill="#3C3C3C"/>
</svg>
