<svg width="32" height="32" viewBox="0 0 32 32" fill="none" xmlns="http://www.w3.org/2000/svg">
<path fill-rule="evenodd" clip-rule="evenodd" d="M12 5C12 4.44772 11.5523 4 11 4C10.4477 4 10 4.44772 10 5V6H8C6.89543 6 6 6.89543 6 8V12V14V24C6 25.1046 6.89543 26 8 26H24C25.1046 26 26 25.1046 26 24V14V12V8C26 6.89543 25.1046 6 24 6H22V5C22 4.44772 21.5523 4 21 4C20.4477 4 20 4.44772 20 5V6H12V5ZM24 12V8H22V9C22 9.55228 21.5523 10 21 10C20.4477 10 20 9.55228 20 9V8H12V9C12 9.55228 11.5523 10 11 10C10.4477 10 10 9.55228 10 9V8H8V12L24 12ZM8 14V24H24V14L8 14Z" fill="#3C3C3C"/>
</svg>
