<svg width="32" height="32" viewBox="0 0 32 32" fill="none" xmlns="http://www.w3.org/2000/svg">
<path fill-rule="evenodd" clip-rule="evenodd" d="M12.5962 8H19.4039L20.1975 10H11.8025L12.5962 8ZM9.65083 10L10.7372 7.26231C11.0396 6.5003 11.7764 6 12.5962 6H19.4039C20.2237 6 20.9605 6.50031 21.2629 7.26231L22.3492 10H26C27.1046 10 28 10.8954 28 12V24C28 25.1046 27.1046 26 26 26H6C4.89543 26 4 25.1046 4 24V12C4 10.8954 4.89543 10 6 10H9.65083ZM23.1429 12H8.85718H6L6 24H26V12H23.1429ZM16 20.1837C17.1967 20.1837 18.1667 19.2136 18.1667 18.017C18.1667 16.8204 17.1967 15.8503 16 15.8503C14.8034 15.8503 13.8334 16.8204 13.8334 18.017C13.8334 19.2136 14.8034 20.1837 16 20.1837ZM16 22.1837C18.3012 22.1837 20.1667 20.3182 20.1667 18.017C20.1667 15.7158 18.3012 13.8503 16 13.8503C13.6989 13.8503 11.8334 15.7158 11.8334 18.017C11.8334 20.3182 13.6989 22.1837 16 22.1837Z" fill="#3C3C3C"/>
</svg>
