<svg width="32" height="32" viewBox="0 0 32 32" fill="none" xmlns="http://www.w3.org/2000/svg">
<path fill-rule="evenodd" clip-rule="evenodd" d="M8 7C8 6.44772 7.55228 6 7 6C6.44772 6 6 6.44772 6 7V25C6 25.5523 6.44772 26 7 26H25C25.5523 26 26 25.5523 26 25C26 24.4477 25.5523 24 25 24H8V7ZM13 13C13 12.4477 12.5523 12 12 12C11.4477 12 11 12.4477 11 13V21C11 21.5523 11.4477 22 12 22C12.5523 22 13 21.5523 13 21V13ZM17 8C17.5523 8 18 8.44772 18 9L18 21C18 21.5523 17.5523 22 17 22C16.4477 22 16 21.5523 16 21L16 9C16 8.44772 16.4477 8 17 8ZM23 15C23 14.4477 22.5523 14 22 14C21.4477 14 21 14.4477 21 15V21C21 21.5523 21.4477 22 22 22C22.5523 22 23 21.5523 23 21V15Z" fill="#3C3C3C"/>
</svg>
