<svg width="32" height="32" viewBox="0 0 32 32" fill="none" xmlns="http://www.w3.org/2000/svg">
<path fill-rule="evenodd" clip-rule="evenodd" d="M8 7C8 6.44772 7.55228 6 7 6C6.44772 6 6 6.44772 6 7V25C6 25.5523 6.44772 26 7 26H25C25.5523 26 26 25.5523 26 25C26 24.4477 25.5523 24 25 24H8V7ZM23.7071 13.7071C24.0976 13.3166 24.0976 12.6834 23.7071 12.2929C23.3166 11.9024 22.6834 11.9024 22.2929 12.2929L18 16.5858L15.7071 14.2929C15.3166 13.9024 14.6834 13.9024 14.2929 14.2929L10.2929 18.2929C9.90237 18.6834 9.90237 19.3166 10.2929 19.7071C10.6834 20.0976 11.3166 20.0976 11.7071 19.7071L15 16.4142L17.2929 18.7071C17.6834 19.0976 18.3166 19.0976 18.7071 18.7071L23.7071 13.7071Z" fill="#3C3C3C"/>
</svg>
