<svg width="32" height="32" viewBox="0 0 32 32" fill="none" xmlns="http://www.w3.org/2000/svg">
<path fill-rule="evenodd" clip-rule="evenodd" d="M20.5104 10.8776C22.3727 12.2908 24.4587 13 26.9167 13C27.469 13 27.9167 12.5523 27.9167 12C27.9167 11.0798 27.5347 10.0646 26.9643 9.11264C26.3817 8.14034 25.5496 7.14463 24.5258 6.24885C22.4829 4.46126 19.5909 3 16.25 3C16.2079 3 16.1661 3.00265 16.1249 3.00784C16.0207 2.99469 15.9134 2.99788 15.8067 3.01891C15.4145 3.09619 15.1061 3.39954 15.0222 3.79032C14.8891 4.41114 14.7613 5.08109 14.6268 5.78596L14.6268 5.78607L14.6268 5.78614C14.3122 7.43521 13.9611 9.27543 13.4198 11.125C12.6928 13.6089 11.6715 15.9079 10.0993 17.4974C8.68733 16.7461 7.22981 16.8804 6.07653 17.6682C4.78611 18.5498 4 20.1619 4 21.8666C4 23.5007 4.66406 25.0631 5.83856 26.2115C7.0123 27.3592 8.59955 28.0001 10.25 28.0001C11.9005 28.0001 13.4877 27.3592 14.6614 26.2115C15.2356 25.6501 15.6878 24.9898 16 24.2705C16.3122 24.9898 16.7644 25.6501 17.3386 26.2115C18.5123 27.3592 20.0996 28.0001 21.75 28.0001C23.4004 28.0001 24.9877 27.3592 26.1614 26.2115C27.3359 25.0631 28 23.5007 28 21.8666C28 20.1619 27.2139 18.5498 25.9235 17.6682C24.9036 16.9715 23.6457 16.7859 22.3918 17.2719C22.1209 15.4213 21.3769 13.0881 20.5104 10.8776ZM18.541 11.3361C19.3699 13.416 20.0305 15.4671 20.3288 17.0546C19.3422 16.885 18.3847 17.1162 17.5765 17.6682C16.8979 18.1319 16.3587 18.7976 16 19.5726C15.6413 18.7976 15.1021 18.1319 14.4235 17.6682C13.9844 17.3683 13.5013 17.1631 12.9934 17.0654C14.0662 15.4261 14.7989 13.5331 15.3392 11.6868C15.8275 10.0185 16.1791 8.30418 16.4717 6.78977C17.1544 8.09992 17.8864 9.69328 18.541 11.3361ZM6 21.8666C6 20.7377 6.52639 19.7831 7.20472 19.3197C7.8096 18.9064 8.64523 18.8009 9.63387 19.5742C9.99583 19.8574 10.5042 19.8574 10.8661 19.5742C11.8548 18.8009 12.6904 18.9064 13.2953 19.3197C13.9736 19.7831 14.5 20.7377 14.5 21.8666C14.5 22.9556 14.0578 24.0046 13.2632 24.7816C12.4678 25.5593 11.3843 26.0001 10.25 26.0001C9.11568 26.0001 8.03221 25.5593 7.23682 24.7816C6.44218 24.0046 6 22.9556 6 21.8666ZM17.5 21.8666C17.5 20.7377 18.0264 19.7831 18.7047 19.3197C19.3096 18.9064 20.1452 18.8009 21.1339 19.5742C21.4958 19.8574 22.0042 19.8574 22.3661 19.5742C23.3548 18.8009 24.1904 18.9064 24.7953 19.3197C25.4736 19.7831 26 20.7377 26 21.8666C26 22.9556 25.5578 24.0046 24.7632 24.7816C23.9678 25.5593 22.8843 26.0001 21.75 26.0001C20.6157 26.0001 19.5322 25.5593 18.7368 24.7816C17.9422 24.0046 17.5 22.9556 17.5 21.8666ZM21.6254 9.21214C20.42 8.27447 19.2855 6.94835 18.1433 5.19089C20.1162 5.5897 21.859 6.5729 23.2088 7.75401C24.0904 8.52537 24.7829 9.36323 25.2487 10.1406C25.4159 10.4196 25.5478 10.6806 25.6488 10.9197C24.1389 10.721 22.8351 10.1532 21.6254 9.21214Z" fill="#3C3C3C"/>
</svg>
