<svg width="32" height="32" viewBox="0 0 32 32" fill="none" xmlns="http://www.w3.org/2000/svg">
<path fill-rule="evenodd" clip-rule="evenodd" d="M26 16C26 21.5228 21.5228 26 16 26C10.4772 26 6 21.5228 6 16C6 10.4772 10.4772 6 16 6C21.5228 6 26 10.4772 26 16ZM28 16C28 22.6274 22.6274 28 16 28C9.37258 28 4 22.6274 4 16C4 9.37258 9.37258 4 16 4C22.6274 4 28 9.37258 28 16ZM18.7071 10.7071C19.0977 10.3166 19.0977 9.68342 18.7071 9.29289C18.3166 8.90237 17.6834 8.90237 17.2929 9.29289L11.4697 15.1161C10.9815 15.6043 10.9815 16.3957 11.4697 16.8839L17.2929 22.7071C17.6834 23.0976 18.3166 23.0976 18.7071 22.7071C19.0977 22.3166 19.0977 21.6834 18.7071 21.2929L13.4142 16L18.7071 10.7071Z" fill="#3C3C3C"/>
</svg>
