<svg width="32" height="32" viewBox="0 0 32 32" fill="none" xmlns="http://www.w3.org/2000/svg">
<path fill-rule="evenodd" clip-rule="evenodd" d="M26 16C26 21.5228 21.5228 26 16 26C10.4772 26 6 21.5228 6 16C6 10.4772 10.4772 6 16 6C21.5228 6 26 10.4772 26 16ZM28 16C28 22.6274 22.6274 28 16 28C9.37258 28 4 22.6274 4 16C4 9.37258 9.37258 4 16 4C22.6274 4 28 9.37258 28 16ZM13.2929 10.7071C12.9023 10.3166 12.9023 9.68342 13.2929 9.29289C13.6834 8.90237 14.3166 8.90237 14.7071 9.29289L20.5303 15.1161C21.0185 15.6043 21.0185 16.3957 20.5303 16.8839L14.7071 22.7071C14.3166 23.0976 13.6834 23.0976 13.2929 22.7071C12.9023 22.3166 12.9023 21.6834 13.2929 21.2929L18.5858 16L13.2929 10.7071Z" fill="#3C3C3C"/>
</svg>
