<svg width="32" height="32" viewBox="0 0 32 32" fill="none" xmlns="http://www.w3.org/2000/svg">
<path fill-rule="evenodd" clip-rule="evenodd" d="M5 6C5.55228 6 6 6.44772 6 7V25C6 25.5523 5.55228 26 5 26C4.44772 26 4 25.5523 4 25V7C4 6.44772 4.44772 6 5 6Z" fill="#3C3C3C"/>
<path fill-rule="evenodd" clip-rule="evenodd" d="M28 16.0029C28 15.4506 27.5523 15.0029 27 15.0029L10 15.0029C9.44772 15.0029 9 15.4506 9 16.0029C9 16.5552 9.44772 17.0029 10 17.0029L27 17.0029C27.5523 17.0029 28 16.5552 28 16.0029Z" fill="#3C3C3C"/>
<path fill-rule="evenodd" clip-rule="evenodd" d="M17.7071 8.29292C17.3166 7.9024 16.6834 7.9024 16.2929 8.29292L9.29289 15.2929C8.90237 15.6834 8.90237 16.3166 9.29289 16.7071C9.68342 17.0977 10.3166 17.0977 10.7071 16.7071L17.7071 9.70714C18.0976 9.31661 18.0976 8.68345 17.7071 8.29292Z" fill="#3C3C3C"/>
<path fill-rule="evenodd" clip-rule="evenodd" d="M9.29289 15.2929C8.90236 15.6834 8.90237 16.3166 9.2929 16.7071L16.2929 23.707C16.6834 24.0975 17.3166 24.0975 17.7071 23.707C18.0976 23.3165 18.0976 22.6833 17.7071 22.2928L10.7071 15.2929C10.3166 14.9024 9.68341 14.9024 9.29289 15.2929Z" fill="#3C3C3C"/>
</svg>
