<svg width="32" height="32" viewBox="0 0 32 32" fill="none" xmlns="http://www.w3.org/2000/svg">
<path fill-rule="evenodd" clip-rule="evenodd" d="M26 7C26 6.44772 26.4477 6 27 6C27.5523 6 28 6.44772 28 7V25C28 25.5523 27.5523 26 27 26C26.4477 26 26 25.5523 26 25V7ZM5 15.0029C4.44772 15.0029 4 15.4506 4 16.0029C4 16.5552 4.44772 17.0029 5 17.0029L19.5828 17.0029L14.2929 22.2928C13.9023 22.6833 13.9023 23.3165 14.2929 23.707C14.6834 24.0975 15.3165 24.0975 15.7071 23.707L22.6597 16.7544C22.8683 16.5712 23 16.3024 23 16.0029V16.0016C23.0004 15.7451 22.9028 15.4885 22.7071 15.2928L15.7071 8.2928C15.3166 7.90228 14.6834 7.90228 14.2929 8.2928C13.9024 8.68332 13.9024 9.31649 14.2929 9.70701L19.5888 15.0029L5 15.0029Z" fill="#3C3C3C"/>
</svg>
