<svg width="32" height="32" viewBox="0 0 32 32" fill="none" xmlns="http://www.w3.org/2000/svg">
<path fill-rule="evenodd" clip-rule="evenodd" d="M16 6C10.4772 6 6 10.4772 6 16C6 21.5228 10.4772 26 16 26H25.6558L23.5878 23.9319C23.216 23.5602 23.1956 22.964 23.5411 22.5677C25.0732 20.8102 26 18.5146 26 16C26 10.4772 21.5228 6 16 6ZM4 16C4 9.37258 9.37258 4 16 4C22.6274 4 28 9.37258 28 16C28 18.6792 27.1209 21.1551 25.6365 23.1522L28.7772 26.2929C29.0632 26.5789 29.1487 27.009 28.9939 27.3827C28.8392 27.7564 28.4745 28 28.0701 28H16C9.37258 28 4 22.6274 4 16Z" fill="#3C3C3C"/>
</svg>
