<svg width="32" height="32" viewBox="0 0 32 32" fill="none" xmlns="http://www.w3.org/2000/svg">
<path fill-rule="evenodd" clip-rule="evenodd" d="M6 16C6 10.4772 10.4772 6 16 6C21.5228 6 26 10.4772 26 16C26 18.5146 25.0732 20.8102 23.5411 22.5677C23.1956 22.964 23.216 23.5602 23.5878 23.9319L25.6558 26H16C10.4772 26 6 21.5228 6 16ZM16 4C9.37258 4 4 9.37258 4 16C4 22.6274 9.37258 28 16 28H28.0701C28.4745 28 28.8392 27.7564 28.9939 27.3827C29.1487 27.009 29.0632 26.5789 28.7772 26.2929L25.6365 23.1522C27.1209 21.1551 28 18.6792 28 16C28 9.37258 22.6274 4 16 4ZM22.726 13.5449C23.1058 13.1439 23.0887 12.511 22.6877 12.1312C22.2868 11.7513 21.6539 11.7684 21.274 12.1694L14.2663 19.5664L10.7071 16.0072C10.3166 15.6166 9.68342 15.6166 9.29289 16.0072C8.90237 16.3977 8.90237 17.0308 9.29289 17.4214L13.5786 21.7071C13.7695 21.8979 14.0293 22.0035 14.2992 21.9999C14.5691 21.9962 14.826 21.8837 15.0117 21.6877L22.726 13.5449Z" fill="#3C3C3C"/>
</svg>
