<svg width="32" height="32" viewBox="0 0 32 32" fill="none" xmlns="http://www.w3.org/2000/svg">
<path fill-rule="evenodd" clip-rule="evenodd" d="M20.7973 11.2027C19.9817 7.64986 16.8003 5 13 5C8.58172 5 5 8.58172 5 13C5 16.8003 7.64986 19.9817 11.2027 20.7973C12.0183 24.3501 15.1997 27 19 27C23.4183 27 27 23.4183 27 19C27 15.1997 24.3501 12.0183 20.7973 11.2027ZM13 19C16.3137 19 19 16.3137 19 13C15.6863 13 13 15.6863 13 19ZM18.6611 11.0071C14.5124 11.18 11.18 14.5124 11.0071 18.6611C8.67298 17.8394 7 15.6151 7 13C7 9.68629 9.68629 7 13 7C15.6151 7 17.8394 8.67298 18.6611 11.0071ZM20.993 13.3389C20.82 17.4876 17.4876 20.82 13.3389 20.993C14.1606 23.327 16.3849 25 19 25C22.3137 25 25 22.3137 25 19C25 16.3849 23.327 14.1606 20.993 13.3389Z" fill="#3C3C3C"/>
</svg>
