<svg width="32" height="32" viewBox="0 0 32 32" fill="none" xmlns="http://www.w3.org/2000/svg">
<path d="M8.01913 21.2965V10.7034H6.39901C6.39901 12.012 5.97841 12.5105 4 12.5105V14.006H6.24323V21.2965H8.01913Z" fill="#3C3C3C"/>
<path d="M18.4321 21.2965V19.692H13.1823C13.3692 18.7261 13.6963 18.3367 14.8647 17.6668L16.3913 16.7945C17.6999 16.0467 18.4632 14.8472 18.4632 13.5542C18.4632 11.6849 17.1391 10.5165 15.0049 10.5165C12.7461 10.5165 11.2973 11.9964 11.2973 14.302H13.1511C13.1511 12.8688 13.821 12.0743 15.0049 12.0743C15.924 12.0743 16.5627 12.713 16.5627 13.6477C16.5627 14.5045 16.1109 15.1743 15.2386 15.6573L13.6808 16.514C11.8426 17.5266 11.0637 18.9598 11.0637 21.2965H18.4321Z" fill="#3C3C3C"/>
<path d="M24.3392 21.4834C26.4889 21.4834 28 20.1593 28 18.2588C28 16.9347 27.1899 15.9377 25.9437 15.7196C27.1121 15.3457 27.7352 14.5512 27.7352 13.4296C27.7352 11.6849 26.3487 10.5165 24.2769 10.5165C22.0804 10.5165 20.6783 11.8095 20.6783 13.8346H22.4387C22.4387 12.6819 23.1397 11.9964 24.2769 11.9964C25.2427 11.9964 25.9125 12.5884 25.9125 13.4296C25.9125 14.4733 25.3517 14.9874 24.2145 14.9874H23.4512V16.5296H24.199C25.5231 16.5296 26.193 17.1216 26.193 18.2744C26.193 19.2869 25.4452 19.9724 24.3392 19.9724C22.9995 19.9724 22.2361 19.1779 22.2361 17.7603H20.4135C20.4135 20.1126 21.8623 21.4834 24.3392 21.4834Z" fill="#3C3C3C"/>
</svg>
