<svg width="32" height="32" viewBox="0 0 32 32" fill="none" xmlns="http://www.w3.org/2000/svg">
<path fill-rule="evenodd" clip-rule="evenodd" d="M5.74999 25.2498C5.19771 25.2498 4.74999 25.6975 4.74999 26.2498C4.74999 26.802 5.19771 27.2498 5.74999 27.2498L26.25 27.2498C26.8023 27.2498 27.25 26.802 27.25 26.2498C27.25 25.6975 26.8023 25.2498 26.25 25.2498L5.74999 25.2498ZM17.1389 18.4167C16.5866 18.4167 16.1389 18.8645 16.1389 19.4167C16.1389 19.969 16.5866 20.4167 17.1389 20.4167L26.25 20.4167C26.8023 20.4167 27.25 19.969 27.25 19.4167C27.25 18.8645 26.8023 18.4167 26.25 18.4167L17.1389 18.4167ZM5.74998 4.74975C5.1977 4.74975 4.74998 5.19747 4.74998 5.74975C4.74998 6.30204 5.1977 6.74975 5.74998 6.74975L26.25 6.74975C26.8022 6.74975 27.25 6.30204 27.25 5.74975C27.25 5.19747 26.8022 4.74975 26.25 4.74975L5.74998 4.74975ZM16.4236 12.5828C16.4236 12.0305 16.8713 11.5828 17.4236 11.5828L26.25 11.5828C26.8023 11.5828 27.25 12.0305 27.25 12.5828C27.25 13.135 26.8023 13.5828 26.25 13.5828L17.4236 13.5828C16.8713 13.5828 16.4236 13.135 16.4236 12.5828ZM15.5764 15.9973C15.5764 16.5496 15.1286 16.9973 14.5764 16.9973L8.59864 16.9973L11.3207 19.1755C11.7519 19.5205 11.8217 20.1498 11.4767 20.581C11.1316 21.0123 10.5023 21.0821 10.0711 20.7371L5.34202 16.9529C4.73057 16.4636 4.73056 15.5335 5.34202 15.0443L10.0711 11.2601C10.5023 10.915 11.1316 10.9849 11.4767 11.4161C11.8217 11.8473 11.7519 12.4766 11.3207 12.8217L8.60177 14.9973L14.5764 14.9973C15.1286 14.9973 15.5764 15.445 15.5764 15.9973Z" fill="#3C3C3C"/>
</svg>
