<svg width="32" height="32" viewBox="0 0 32 32" fill="none" xmlns="http://www.w3.org/2000/svg">
<path fill-rule="evenodd" clip-rule="evenodd" d="M17 12V21H15V12H17Z" fill="#3C3C3C"/>
<path fill-rule="evenodd" clip-rule="evenodd" d="M10 8V12H22V8H10ZM9 6C8.44772 6 8 6.44772 8 7V13C8 13.5523 8.44772 14 9 14H23C23.5523 14 24 13.5523 24 13V7C24 6.44772 23.5523 6 23 6H9Z" fill="#3C3C3C"/>
<path d="M4 21C4 20.4477 4.44772 20 5 20H10C10.5523 20 11 20.4477 11 21V25C11 25.5523 10.5523 26 10 26H5C4.44772 26 4 25.5523 4 25V21Z" fill="#3C3C3C"/>
<path d="M21 21C21 20.4477 21.4477 20 22 20H27C27.5523 20 28 20.4477 28 21V25C28 25.5523 27.5523 26 27 26H22C21.4477 26 21 25.5523 21 25V21Z" fill="#3C3C3C"/>
<path d="M12.5 21C12.5 20.4477 12.9477 20 13.5 20H18.5C19.0523 20 19.5 20.4477 19.5 21V25C19.5 25.5523 19.0523 26 18.5 26H13.5C12.9477 26 12.5 25.5523 12.5 25V21Z" fill="#3C3C3C"/>
<path fill-rule="evenodd" clip-rule="evenodd" d="M7 18C7 16.8954 7.89543 16 9 16H23C24.1046 16 25 16.8954 25 18V21H23V18H9V21H7V18Z" fill="#3C3C3C"/>
</svg>
