<svg width="32" height="32" viewBox="0 0 32 32" fill="none" xmlns="http://www.w3.org/2000/svg">
<path fill-rule="evenodd" clip-rule="evenodd" d="M7.51469 23.071C7.12417 23.4616 7.12417 24.0947 7.51469 24.4853C7.90522 24.8758 8.53838 24.8758 8.92891 24.4853L15.9999 17.4142L23.0711 24.4854C23.4616 24.8759 24.0948 24.8759 24.4853 24.4854C24.8758 24.0948 24.8758 23.4617 24.4853 23.0711L17.4142 16L24.4853 8.92891C24.8758 8.53838 24.8758 7.90522 24.4853 7.5147C24.0947 7.12417 23.4616 7.12417 23.071 7.5147L15.9999 14.5858L8.92894 7.5148C8.53841 7.12428 7.90525 7.12428 7.51472 7.5148C7.1242 7.90532 7.1242 8.53849 7.51472 8.92901L14.5857 16L7.51469 23.071Z" fill="#3C3C3C"/>
</svg>
