<svg width="32" height="32" viewBox="0 0 32 32" fill="none" xmlns="http://www.w3.org/2000/svg">
<path fill-rule="evenodd" clip-rule="evenodd" d="M26 16C26 21.5228 21.5228 26 16 26C10.4772 26 6 21.5228 6 16C6 10.4772 10.4772 6 16 6C21.5228 6 26 10.4772 26 16ZM28 16C28 22.6274 22.6274 28 16 28C9.37258 28 4 22.6274 4 16C4 9.37258 9.37258 4 16 4C22.6274 4 28 9.37258 28 16ZM14.866 13.1643C14.866 12.7479 14.9562 12.5049 15.0399 12.3637C15.1239 12.2223 15.2348 12.1268 15.3625 12.0567C15.6488 11.8994 15.9698 11.8967 16 11.8967C16.4422 11.8967 16.6823 11.9932 16.8077 12.0702C16.9326 12.1468 17.0052 12.2417 17.0531 12.3372C17.3005 12.8309 17.9013 13.0306 18.3951 12.7832C18.8889 12.5358 19.0886 11.9349 18.8411 11.4412C18.655 11.0698 18.3473 10.6684 17.8537 10.3655C17.6016 10.2109 17.3173 10.0918 17 10.0123V9C17 8.44772 16.5523 8 16 8C15.4478 8 15 8.44772 15 9V10.0512C14.8087 10.11 14.6043 10.1913 14.3998 10.3036C14.0112 10.517 13.6147 10.8466 13.3201 11.3429C13.0253 11.8395 12.866 12.4469 12.866 13.1643C12.866 13.8942 13.0399 14.5086 13.3524 15.0067C13.6627 15.5013 14.074 15.8244 14.4638 16.0315C14.8486 16.2359 15.2223 16.3333 15.4922 16.3811C15.6294 16.4054 15.7461 16.418 15.8327 16.4245C15.8761 16.4278 15.9125 16.4296 15.9407 16.4306L15.9659 16.4314L15.9768 16.4316L15.9901 16.4318L15.9911 16.4318L15.9935 16.4319C15.9998 16.4321 16.014 16.4327 16.0348 16.4343C16.0769 16.4375 16.144 16.4444 16.2274 16.4592C16.3987 16.4895 16.6131 16.5484 16.8165 16.6565C17.0149 16.7618 17.1918 16.9075 17.3226 17.116C17.4512 17.3211 17.5714 17.6441 17.5714 18.1643C17.5714 18.6968 17.4557 19.027 17.3331 19.2336C17.2104 19.4403 17.0474 19.5795 16.8669 19.6786C16.4747 19.8939 16.0444 19.8967 16 19.8967C15.0324 19.8967 14.7222 19.5399 14.5971 19.3406C14.5149 19.2096 14.4704 19.0719 14.4476 18.9629C14.4365 18.91 14.4317 18.8689 14.4296 18.8462L14.4287 18.8348L14.4285 18.8307C14.4196 18.2861 13.9753 17.8474 13.4286 17.8474C12.8763 17.8474 12.4286 18.2951 12.4286 18.8474H13.4286C12.4286 18.8474 12.4286 18.848 12.4286 18.8486L12.4286 18.8499L12.4286 18.8527L12.4286 18.8588L12.4289 18.8735C12.4291 18.8843 12.4295 18.8973 12.4301 18.9122C12.4313 18.942 12.4336 18.9798 12.4376 19.0247C12.4456 19.114 12.4608 19.2331 12.4899 19.3723C12.5475 19.6475 12.6637 20.0221 12.9029 20.4035C13.3028 21.0408 13.9756 21.5843 15 21.7988V22.9998C15 23.5521 15.4478 23.9998 16 23.9998C16.5523 23.9998 17 23.5521 17 22.9998V21.7611C17.2585 21.6922 17.5442 21.5884 17.8295 21.4317C18.271 21.1893 18.7196 20.8161 19.053 20.2543C19.3866 19.6924 19.5714 18.9979 19.5714 18.1643C19.5714 17.3181 19.3702 16.6165 19.0167 16.0531C18.6654 15.4931 18.1995 15.1265 17.7549 14.8903C17.3155 14.6568 16.8871 14.5449 16.5762 14.4898C16.4185 14.4619 16.2847 14.4475 16.1862 14.44C16.1367 14.4363 16.0957 14.4342 16.0643 14.4331C16.0486 14.4326 16.0353 14.4322 16.0245 14.432L16.0109 14.4319C16.0073 14.4317 15.9981 14.4313 15.984 14.4303C15.9539 14.428 15.9038 14.4229 15.841 14.4117C15.7107 14.3887 15.5509 14.3443 15.4022 14.2653C15.2585 14.189 15.1363 14.0868 15.0465 13.9437C14.9589 13.8041 14.866 13.5682 14.866 13.1643ZM16 15.3504C16 14.4318 16.0005 14.4318 16.001 14.4318H16.0011C16.0005 14.4318 16 14.4363 16 15.4318V15.3504ZM15.999 16.4318C15.9992 16.4318 15.9995 16.4308 15.9997 16.2947C15.9995 16.4318 15.9993 16.4318 15.999 16.4318H15.999Z" fill="#3C3C3C"/>
</svg>
