<svg width="32" height="32" viewBox="0 0 32 32" fill="none" xmlns="http://www.w3.org/2000/svg">
<path fill-rule="evenodd" clip-rule="evenodd" d="M4 23.65V25C4 25.5523 4.44772 26 5 26H6.65V24H6V23.65H4ZM4 21.85H6V19.15H4V21.85ZM4 17.35H6V14.65H4V17.35ZM4 12.85H6V10.15H4V12.85ZM4 8.35H6V8H6.65V6H5C4.44772 6 4 6.44772 4 7V8.35ZM8.85 6V8H12.15V6H8.85ZM14.35 6V8H17.65V6H14.35ZM19.85 6V8H23.15V6H19.85ZM25.35 6V8H26V8.35H28V7C28 6.44772 27.5523 6 27 6H25.35ZM28 10.15H26V12.85H28V10.15ZM28 14.65H26V17.35H28V14.65ZM28 19.15H26V21.85H28V19.15ZM28 23.65H26V24H25.35V26H27C27.5523 26 28 25.5523 28 25V23.65ZM23.15 26V24H19.85V26H23.15ZM17.65 26V24H14.35V26H17.65ZM12.15 26V24H8.85V26H12.15Z" fill="#3C3C3C"/>
</svg>
