<svg width="32" height="32" viewBox="0 0 32 32" fill="none" xmlns="http://www.w3.org/2000/svg">
<path fill-rule="evenodd" clip-rule="evenodd" d="M16 4C16.5523 4 17 4.44772 17 5V18.3659L20.5119 14.854C20.9025 14.4635 21.5356 14.4635 21.9262 14.854C22.3167 15.2445 22.3167 15.8777 21.9262 16.2682L16.9428 21.2516C16.4221 21.7723 15.5779 21.7723 15.0572 21.2516L10.0738 16.2682C9.68331 15.8777 9.68331 15.2445 10.0738 14.854C10.4644 14.4635 11.0975 14.4635 11.4881 14.854L15 18.3659V5C15 4.44772 15.4477 4 16 4ZM6 26C6 27.1046 6.89543 28 8 28H24C25.1046 28 26 27.1046 26 26V22C26 21.4477 25.5523 21 25 21C24.4477 21 24 21.4477 24 22V26H8L8 22C8 21.4477 7.55228 21 7 21C6.44772 21 6 21.4477 6 22V26Z" fill="#3C3C3C"/>
</svg>
