<svg width="32" height="32" viewBox="0 0 32 32" fill="none" xmlns="http://www.w3.org/2000/svg">
<path d="M16 11C16.5523 11 17 11.4477 17 12V15H20C20.5523 15 21 15.4477 21 16C21 16.5523 20.5523 17 20 17H17V20C17 20.5523 16.5523 21 16 21C15.4477 21 15 20.5523 15 20V17H12C11.4477 17 11 16.5523 11 16C11 15.4477 11.4477 15 12 15H15V12C15 11.4477 15.4477 11 16 11Z" fill="#3C3C3C"/>
<path fill-rule="evenodd" clip-rule="evenodd" d="M8 6C6.89543 6 6 6.89543 6 8V24C6 25.1046 6.89543 26 8 26H24C25.1046 26 26 25.1046 26 24V8C26 6.89543 25.1046 6 24 6H8ZM24 8H8V24H24V8Z" fill="#3C3C3C"/>
</svg>
