<svg width="32" height="32" viewBox="0 0 32 32" fill="none" xmlns="http://www.w3.org/2000/svg">
<path fill-rule="evenodd" clip-rule="evenodd" d="M22.464 5.80484C21.683 5.02379 20.4166 5.02379 19.6356 5.80484L8.00279 17.4376C7.89326 17.5472 7.81444 17.6758 7.76635 17.8128C7.74988 17.8503 7.7356 17.889 7.72369 17.9288L6.0771 23.4339C5.6211 24.9585 7.04178 26.3792 8.56634 25.9232L14.0715 24.2766C14.1156 24.2634 14.1584 24.2473 14.1997 24.2284C14.3318 24.18 14.4558 24.1027 14.5618 23.9967L26.1946 12.3639C26.9757 11.5828 26.9757 10.3165 26.1946 9.53545L22.464 5.80484ZM21.0498 7.21905L24.7804 10.9497L13.8547 21.8754L10.1241 18.1448L21.0498 7.21905ZM9.15961 20.1074L11.8928 22.8407L7.99322 24.007L9.15961 20.1074Z" fill="#3C3C3C"/>
</svg>
