<svg width="32" height="32" viewBox="0 0 32 32" fill="none" xmlns="http://www.w3.org/2000/svg">
<path d="M26 26C26 27.1046 25.1046 28 24 28H10C8.89543 28 8 27.1046 8 26V21C8 20.4477 8.44772 20 9 20C9.55229 20 10 20.4477 10 21V26H24V6H10V11C10 11.5523 9.55229 12 9 12C8.44772 12 8 11.5523 8 11V6C8 4.89543 8.89543 4 10 4H24C25.1046 4 26 4.89543 26 6V26Z" fill="#3C3C3C"/>
<path d="M15.4428 11.2929C15.8333 10.9024 16.4665 10.9024 16.857 11.2929L20.857 15.2929C21.2475 15.6834 21.2475 16.3166 20.857 16.7071L16.857 20.7071C16.4665 21.0976 15.8333 21.0976 15.4428 20.7071C15.0523 20.3166 15.0523 19.6834 15.4428 19.2929L17.7357 17H5C4.44772 17 4 16.5523 4 16C4 15.4477 4.44772 15 5 15H17.7357L15.4428 12.7071C15.0523 12.3166 15.0523 11.6834 15.4428 11.2929Z" fill="#3C3C3C"/>
</svg>
