<svg width="32" height="32" viewBox="0 0 32 32" fill="none" xmlns="http://www.w3.org/2000/svg">
<path fill-rule="evenodd" clip-rule="evenodd" d="M24 8H8V13L24 13V8ZM8 6H24C25.1046 6 26 6.89543 26 8V13C26 14.1046 25.1046 15 24 15H8C6.89543 15 6 14.1046 6 13V8C6 6.89543 6.89543 6 8 6ZM6 19C6 17.8954 6.89543 17 8 17H25C25.5523 17 26 17.4477 26 18C26 18.5523 25.5523 19 25 19H8V24H16C16.5523 24 17 24.4477 17 25C17 25.5523 16.5523 26 16 26H8C6.89543 26 6 25.1046 6 24V19ZM27.7071 22.7071C28.0976 22.3166 28.0976 21.6834 27.7071 21.2929C27.3166 20.9024 26.6834 20.9024 26.2929 21.2929L22 25.5858L20.7071 24.2929C20.3166 23.9024 19.6834 23.9024 19.2929 24.2929C18.9024 24.6834 18.9024 25.3166 19.2929 25.7071L21.2929 27.7071C21.6834 28.0976 22.3166 28.0976 22.7071 27.7071L27.7071 22.7071Z" fill="#3C3C3C"/>
</svg>
