<svg width="32" height="32" viewBox="0 0 32 32" fill="none" xmlns="http://www.w3.org/2000/svg">
<path d="M21.75 6.0407C22.2283 6.31684 22.3922 6.92843 22.116 7.40672L17.7321 15H26.5C27.0523 15 27.5 15.4477 27.5 16C27.5 16.5523 27.0523 17 26.5 17H17.7321L22.116 24.5933C22.3922 25.0716 22.2283 25.6831 21.75 25.9593C21.2717 26.2354 20.6601 26.0716 20.384 25.5933L16 18L11.616 25.5933C11.3399 26.0716 10.7283 26.2354 10.25 25.9593C9.77172 25.6831 9.60785 25.0716 9.88399 24.5933L14.268 17H5.5C4.94772 17 4.5 16.5523 4.5 16C4.5 15.4477 4.94772 15 5.5 15H14.268L9.88399 7.40672C9.60785 6.92843 9.77172 6.31684 10.25 6.0407C10.7283 5.76455 11.3399 5.92843 11.616 6.40672L16 14L20.384 6.40672C20.6601 5.92843 21.2717 5.76455 21.75 6.0407Z" fill="#3C3C3C"/>
</svg>
