<svg width="32" height="32" viewBox="0 0 32 32" fill="none" xmlns="http://www.w3.org/2000/svg">
<path fill-rule="evenodd" clip-rule="evenodd" d="M8 4C6.89543 4 6 4.89543 6 6V26C6 27.1046 6.89543 28 8 28H21.9903C23.0948 28 23.9903 27.1046 23.9903 26L23.9903 23.0062C23.9903 22.4539 23.5425 22.0062 22.9903 22.0062C22.438 22.0062 21.9903 22.4539 21.9903 23.0062L21.9903 26L8 26V6L22 6V9.00903C22 9.56132 22.4477 10.009 23 10.009C23.5523 10.009 24 9.56132 24 9.00903V6C24 4.89543 23.1046 4 22 4H8ZM23.4458 11.2863C23.0553 11.6768 23.0553 12.31 23.4458 12.7005L25.7383 14.9929L12 14.9929C11.4477 14.9929 11 15.4406 11 15.9929C11 16.5452 11.4477 16.9929 12 16.9929L25.7376 16.9929L23.4458 19.2847C23.0553 19.6752 23.0553 20.3084 23.4458 20.6989C23.8364 21.0894 24.4695 21.0894 24.8601 20.6989L28.6236 16.9354C29.1443 16.4147 29.1443 15.5705 28.6236 15.0498L24.8601 11.2863C24.4695 10.8958 23.8364 10.8958 23.4458 11.2863Z" fill="#3C3C3C"/>
</svg>
