<svg width="32" height="32" viewBox="0 0 32 32" fill="none" xmlns="http://www.w3.org/2000/svg">
<path fill-rule="evenodd" clip-rule="evenodd" d="M9.35678 19.1248C7.9197 17.954 6.83193 16.7086 6.26067 15.9999C6.83193 15.2913 7.9197 14.0458 9.35678 12.875C11.2185 11.3584 13.5388 10.071 16.0001 10.071C18.4781 10.071 20.813 11.376 22.6802 12.9052C24.1452 14.105 25.2425 15.3774 25.7928 16.0665C25.3499 16.7504 24.4598 17.9755 23.1295 19.1304C21.4304 20.6054 19.0591 21.9288 16.0001 21.9288C13.5388 21.9288 11.2185 20.6415 9.35678 19.1248ZM16.0001 8.07104C12.8639 8.07104 10.0995 9.69028 8.09356 11.3245C6.07046 12.9727 4.68902 14.742 4.30011 15.2634C3.97223 15.7028 3.97223 16.297 4.30011 16.7365C4.68902 17.2578 6.07046 19.0272 8.09356 20.6754C10.0995 22.3096 12.8639 23.9288 16.0001 23.9288C19.6786 23.9288 22.4973 22.3277 24.4406 20.6407C26.3774 18.9593 27.4902 17.156 27.7939 16.6287C28.0405 16.2005 28.0082 15.6782 27.7154 15.284C27.3503 14.7925 25.9749 13.0183 23.9474 11.3578C21.9375 9.71179 19.157 8.07104 16.0001 8.07104ZM14.012 16.0004C14.012 14.9141 14.8926 14.0334 15.9789 14.0334C17.0652 14.0334 17.9458 14.9141 17.9458 16.0004C17.9458 17.0866 17.0652 17.9673 15.9789 17.9673C14.8926 17.9673 14.012 17.0866 14.012 16.0004ZM15.9789 12.0334C13.788 12.0334 12.012 13.8095 12.012 16.0004C12.012 18.1912 13.788 19.9673 15.9789 19.9673C18.1698 19.9673 19.9458 18.1912 19.9458 16.0004C19.9458 13.8095 18.1698 12.0334 15.9789 12.0334Z" fill="#3C3C3C"/>
</svg>
