<svg width="32" height="32" viewBox="0 0 32 32" fill="none" xmlns="http://www.w3.org/2000/svg">
<path fill-rule="evenodd" clip-rule="evenodd" d="M18.0914 22C17.5845 22 17.0965 22.1925 16.7261 22.5385L12 26.9534V24C12 22.8954 11.1046 22 10 22C7.79086 22 6 20.2091 6 18V12C6 9.79086 7.79086 8 10 8H22C24.2091 8 26 9.79086 26 12V18C26 20.2091 24.2091 22 22 22H18.0914ZM22 24H18.0914L12.9874 28.7679C11.885 29.7978 10 29.0684 10 27.612V26V24C6.68629 24 4 21.3137 4 18V12C4 8.68629 6.68629 6 10 6H22C25.3137 6 28 8.68629 28 12V18C28 21.3137 25.3137 24 22 24ZM21.25 16.4999C20.4216 16.4999 19.75 15.8283 19.75 14.9999C19.75 14.1715 20.4216 13.4999 21.25 13.4999C22.0784 13.4999 22.75 14.1715 22.75 14.9999C22.75 15.8283 22.0784 16.4999 21.25 16.4999ZM14.575 14.9999C14.575 15.8283 15.2466 16.4999 16.075 16.4999C16.9035 16.4999 17.575 15.8283 17.575 14.9999C17.575 14.1715 16.9035 13.4999 16.075 13.4999C15.2466 13.4999 14.575 14.1715 14.575 14.9999ZM10.75 16.4999C9.92157 16.4999 9.25 15.8283 9.25 14.9999C9.25 14.1715 9.92157 13.4999 10.75 13.4999C11.5784 13.4999 12.25 14.1715 12.25 14.9999C12.25 15.8283 11.5784 16.4999 10.75 16.4999Z" fill="#3C3C3C"/>
</svg>
