<svg width="32" height="32" viewBox="0 0 32 32" fill="none" xmlns="http://www.w3.org/2000/svg">
<path fill-rule="evenodd" clip-rule="evenodd" d="M8 6C6.89543 6 6 6.89543 6 8V24C6 25.1046 6.89543 26 8 26H17C17.5523 26 18 25.5523 18 25C18 24.4477 17.5523 24 17 24H8L8 8L18 8V12C18 13.1046 18.8954 14 20 14L24 14L24 19.0029C24 19.5552 24.4477 20.0029 25 20.0029C25.5523 20.0029 26 19.5552 26 19.0029L26 12.8143C26 12.2839 25.7893 11.7752 25.4142 11.4001L24.8143 12L25.4142 11.4001L20.5998 6.58577L20 7.18556L20.5998 6.58577C20.2247 6.21071 19.716 6 19.1856 6H8ZM20 8.81441V12L23.1856 12L20 8.81441ZM9.74988 21C9.74988 20.4477 10.1976 20 10.7499 20H15.0001C15.5524 20 16.0001 20.4477 16.0001 21C16.0001 21.5523 15.5524 22 15.0001 22H10.7499C10.1976 22 9.74988 21.5523 9.74988 21ZM10.7499 16C10.1976 16 9.74988 16.4477 9.74988 17C9.74988 17.5523 10.1976 18 10.7499 18H21.2499C21.8022 18 22.2499 17.5523 22.2499 17C22.2499 16.4477 21.8022 16 21.2499 16H10.7499ZM9.74988 13C9.74988 12.4477 10.1976 12 10.7499 12H14.9999C15.5522 12 15.9999 12.4477 15.9999 13C15.9999 13.5523 15.5522 14 14.9999 14H10.7499C10.1976 14 9.74988 13.5523 9.74988 13ZM19.2929 24.2929C18.9024 24.6834 18.9024 25.3166 19.2929 25.7071L21.2929 27.7071C21.6834 28.0976 22.3166 28.0976 22.7071 27.7071L27.7071 22.7071C28.0976 22.3166 28.0976 21.6834 27.7071 21.2929C27.3166 20.9024 26.6834 20.9024 26.2929 21.2929L22 25.5858L20.7071 24.2929C20.3166 23.9024 19.6834 23.9024 19.2929 24.2929Z" fill="#3C3C3C"/>
</svg>
