<svg width="32" height="32" viewBox="0 0 32 32" fill="none" xmlns="http://www.w3.org/2000/svg">
<path fill-rule="evenodd" clip-rule="evenodd" d="M15.0001 9.75C15.0001 10.3023 15.4478 10.75 16.0001 10.75C16.5524 10.75 17.0001 10.3023 17.0001 9.75V8H27C27.5523 8 28 7.55228 28 7C28 6.44772 27.5523 6 27 6H17.0001V4.25C17.0001 3.69772 16.5524 3.25 16.0001 3.25C15.4478 3.25 15.0001 3.69772 15.0001 4.25V6H5C4.44772 6 4 6.44772 4 7C4 7.55228 4.44772 8 5 8H15.0001V9.75ZM5 15C4.44772 15 4 15.4477 4 16C4 16.5523 4.44772 17 5 17H23V18.75C23 19.3023 23.4477 19.75 24 19.75C24.5523 19.75 25 19.3023 25 18.75V17H27C27.5523 17 28 16.5523 28 16C28 15.4477 27.5523 15 27 15H25V13.25C25 12.6977 24.5523 12.25 24 12.25C23.4477 12.25 23 12.6977 23 13.25V15H5ZM4 25C4 24.4477 4.44772 24 5 24H7V22.25C7 21.6977 7.44772 21.25 8 21.25C8.55228 21.25 9 21.6977 9 22.25V24H27C27.5523 24 28 24.4477 28 25C28 25.5523 27.5523 26 27 26H9V27.75C9 28.3023 8.55228 28.75 8 28.75C7.44772 28.75 7 28.3023 7 27.75V26H5C4.44772 26 4 25.5523 4 25Z" fill="#3C3C3C"/>
</svg>
