<svg width="32" height="32" viewBox="0 0 32 32" fill="none" xmlns="http://www.w3.org/2000/svg">
<path fill-rule="evenodd" clip-rule="evenodd" d="M26 16C26 21.5228 21.5228 26 16 26C10.4772 26 6 21.5228 6 16C6 10.4772 10.4772 6 16 6C21.5228 6 26 10.4772 26 16ZM28 16C28 22.6274 22.6274 28 16 28C9.37258 28 4 22.6274 4 16C4 9.37258 9.37258 4 16 4C22.6274 4 28 9.37258 28 16ZM12.6655 9.99786C12.1132 9.99786 11.6655 10.4456 11.6655 10.9979V15.1603C11.6655 15.4805 11.8188 15.7813 12.0779 15.9694C12.337 16.1576 12.6706 16.2103 12.975 16.1112C14.5214 15.6078 16.0373 15.5247 17.0978 15.8411C17.6166 15.9959 17.9824 16.2318 18.2165 16.5142C18.4416 16.7856 18.6011 17.1661 18.6011 17.729C18.6011 18.3108 18.4502 18.6988 18.2622 18.9708C18.0678 19.252 17.7939 19.4658 17.474 19.6271C17.1519 19.7895 16.8081 19.8858 16.5175 19.9403C16.3744 19.9672 16.2503 19.9828 16.1565 19.9915C16.1098 19.9959 16.0716 19.9985 16.0434 19.9999C16.0159 20.0013 16.0014 20.0015 16 20.0015C14.9219 20.0015 13.9695 19.3923 13.4063 18.7712C13.0353 18.362 12.4029 18.3311 11.9938 18.7021C11.5846 19.0731 11.5537 19.7055 11.9247 20.1146C12.7363 21.0097 14.1886 22.0015 16 22.0015C16.2488 22.0015 17.3229 21.9432 18.3745 21.4129C18.9136 21.141 19.4781 20.7291 19.9074 20.108C20.3431 19.4777 20.6011 18.6868 20.6011 17.729C20.6011 16.7521 20.3104 15.906 19.7561 15.2375C19.2108 14.58 18.4679 14.1627 17.6696 13.9246C16.474 13.5679 15.0601 13.5816 13.6655 13.8641V11.9979H19.601C20.1533 11.9979 20.6011 11.5501 20.6011 10.9979C20.6011 10.4456 20.1526 9.99786 19.6004 9.99786H12.6655Z" fill="#3C3C3C"/>
</svg>
