<svg width="32" height="32" viewBox="0 0 32 32" fill="none" xmlns="http://www.w3.org/2000/svg">
<path fill-rule="evenodd" clip-rule="evenodd" d="M11 6V14C11 16.7614 13.2386 19 16 19C18.7614 19 21 16.7614 21 14V6H11ZM10 4C9.44772 4 9 4.44772 9 5V7.99988H7C5.89543 7.99988 5 8.89531 5 9.99988V12.9999C5 15.209 6.79086 16.9999 9 16.9999H9.67357C10.6604 19.0773 12.6404 20.5916 15 20.9291V23H14C11.7909 23 10 24.7909 10 27.0001C10 27.5524 10.4477 28.0001 11 28.0001H21C21.5523 28.0001 22 27.5524 22 27.0001C22 24.7909 20.2091 23 18 23H17V20.9291C19.3595 20.5916 21.3395 19.0774 22.3264 17H23C25.2091 17 27 15.2091 27 13V10C27 8.89543 26.1046 8 25 8H23V5C23 4.44772 22.5523 4 22 4H10ZM23 10V14C23 14.3395 22.9758 14.6734 22.9291 15H23C24.1046 15 25 14.1046 25 13V10H23ZM9 14V9.99988H7V12.9999C7 14.1044 7.89543 14.9999 9 14.9999H9.07087C9.02417 14.6733 9 14.3395 9 14ZM14 25C13.2597 25 12.6134 25.4022 12.2675 26.0001H19.7325C19.3866 25.4022 18.7403 25 18 25H14Z" fill="#3C3C3C"/>
</svg>
