<svg width="32" height="32" viewBox="0 0 32 32" fill="none" xmlns="http://www.w3.org/2000/svg">
<path fill-rule="evenodd" clip-rule="evenodd" d="M26 16C26 21.5228 21.5228 26 16 26C10.4772 26 6 21.5228 6 16C6 10.4772 10.4772 6 16 6C21.5228 6 26 10.4772 26 16ZM28 16C28 22.6274 22.6274 28 16 28C9.37258 28 4 22.6274 4 16C4 9.37258 9.37258 4 16 4C22.6274 4 28 9.37258 28 16ZM14.6689 11.3921C14.8855 10.884 14.6491 10.2966 14.1411 10.0801C13.633 9.86355 13.0456 10.0999 12.8291 10.608L10.896 15.1439C10.5211 16.0235 11.1665 17 12.1225 17H17.2098V21C17.2098 21.5523 17.6575 22 18.2098 22C18.7621 22 19.2098 21.5523 19.2098 21V11C19.2098 10.4477 18.7621 10 18.2098 10C17.6575 10 17.2098 10.4477 17.2098 11V15H13.1313L14.6689 11.3921Z" fill="#3C3C3C"/>
</svg>
