<svg width="32" height="32" viewBox="0 0 32 32" fill="none" xmlns="http://www.w3.org/2000/svg">
<path fill-rule="evenodd" clip-rule="evenodd" d="M26 24V18C26 12.4772 21.5228 8 16 8C10.4772 8 6 12.4772 6 18L6 24H26ZM16 6C9.37258 6 4 11.3726 4 18V24C4 25.1046 4.89543 26 6 26H26C27.1046 26 28 25.1046 28 24V18C28 11.3726 22.6274 6 16 6Z" fill="#3C3C3C"/>
<path d="M17.0001 11C17.0001 11.5523 16.5523 12 16.0001 12C15.4478 12 15.0001 11.5523 15.0001 11C15.0001 10.4477 15.4478 10 16.0001 10C16.5523 10 17.0001 10.4477 17.0001 11Z" fill="#3C3C3C"/>
<path d="M11 14C11 14.5523 10.5523 15 10 15C9.44772 15 9 14.5523 9 14C9 13.4477 9.44772 13 10 13C10.5523 13 11 13.4477 11 14Z" fill="#3C3C3C"/>
<path d="M10 19C10 19.5523 9.55228 20 9 20C8.44772 20 8 19.5523 8 19C8 18.4477 8.44772 18 9 18C9.55228 18 10 18.4477 10 19Z" fill="#3C3C3C"/>
<path d="M24 19C24 19.5523 23.5523 20 23 20C22.4477 20 22 19.5523 22 19C22 18.4477 22.4477 18 23 18C23.5523 18 24 18.4477 24 19Z" fill="#3C3C3C"/>
<path d="M23 14C23 14.5523 22.5523 15 22 15C21.4477 15 21 14.5523 21 14C21 13.4477 21.4477 13 22 13C22.5523 13 23 13.4477 23 14Z" fill="#3C3C3C"/>
<path fill-rule="evenodd" clip-rule="evenodd" d="M19.2743 13.0384C19.8054 13.1899 20.1131 13.7432 19.9616 14.2743L18.2431 20.2989C18.0917 20.83 17.5383 21.1378 17.0072 20.9863C16.4761 20.8348 16.1684 20.2814 16.3199 19.7503L18.0383 13.7257C18.1898 13.1946 18.7432 12.8869 19.2743 13.0384Z" fill="#3C3C3C"/>
<path fill-rule="evenodd" clip-rule="evenodd" d="M11 26H10V25C10 21.6863 12.6863 19 16 19C19.3137 19 22 21.6863 22 25V26H21H11ZM19.874 24C19.4299 22.2748 17.8638 21 16 21C14.1362 21 12.5701 22.2748 12.126 24H19.874Z" fill="#3C3C3C"/>
</svg>
