<svg width="32" height="32" viewBox="0 0 32 32" fill="none" xmlns="http://www.w3.org/2000/svg">
<path fill-rule="evenodd" clip-rule="evenodd" d="M11.7604 8.1372C11.5718 8.48376 11.6759 9.08831 12.2548 9.41983C12.3199 9.45712 12.5532 9.53472 13.0065 9.59675C13.4207 9.65343 13.9073 9.68373 14.3847 9.69745L14.4899 9.70021L14.4324 9.60979C14.1705 9.20016 13.89 8.79117 13.6255 8.45921C13.3362 8.09596 13.1493 7.933 13.0842 7.89572C12.5053 7.56419 11.9491 7.79063 11.7604 8.1372ZM15.9999 8.38341C16.2589 7.98452 16.5489 7.56536 16.8413 7.19825C17.1429 6.81967 17.534 6.38271 17.9596 6.13901C19.3433 5.34662 21.1775 5.67795 21.9749 7.14332C22.6009 8.29349 22.3119 9.63468 21.4895 10.5416H24.25C25.2165 10.5416 26 11.3251 26 12.2916V14.75C26 15.6316 25.3481 16.3609 24.5 16.4822V24.2499C24.5 25.2164 23.7165 25.9999 22.75 25.9999H9.24994C8.28344 25.9999 7.49994 25.2164 7.49994 24.2499V16.4822C6.65187 16.3609 5.99994 15.6316 5.99994 14.75V12.2916C5.99994 11.3251 6.78344 10.5416 7.74994 10.5416H10.5103C9.68791 9.63468 9.39893 8.29349 10.0249 7.14332C10.8224 5.67795 12.6565 5.34662 14.0403 6.13901C14.4658 6.38271 14.857 6.81967 15.1585 7.19825C15.451 7.56536 15.7409 7.98452 15.9999 8.38341ZM7.99994 14.5V12.5416H24V14.5H22.7686L22.75 14.4999H9.24994L9.23129 14.5H7.99994ZM9.49994 16.5V23.9999H15V16.5H9.49994ZM17 16.5V23.9999H22.5V16.5H17ZM19.745 9.41983C20.324 9.08831 20.428 8.48376 20.2394 8.1372C20.0508 7.79063 19.4945 7.56419 18.9156 7.89572C18.8505 7.933 18.6637 8.09596 18.3743 8.45921C18.1099 8.79117 17.8293 9.20016 17.5674 9.60979L17.5099 9.70021L17.6151 9.69745C18.0925 9.68373 18.5791 9.65343 18.9934 9.59675C19.4467 9.53472 19.6799 9.45712 19.745 9.41983Z" fill="#3C3C3C"/>
</svg>
