<svg width="32" height="32" viewBox="0 0 32 32" fill="none" xmlns="http://www.w3.org/2000/svg">
<path fill-rule="evenodd" clip-rule="evenodd" d="M16.9439 5.39419C16.4355 5.17389 15.8585 5.17437 15.3504 5.39552L4.03729 10.3202C2.43351 11.0184 2.43541 13.2937 4.04036 13.9891L15.3325 18.8822C15.8409 19.1025 16.4179 19.102 16.9259 18.8809L22.1373 16.6123V23.824H10.1373V16.6311L8.13732 15.7645V23.824C8.13732 24.9286 9.03275 25.824 10.1373 25.824H22.1373C23.2419 25.824 24.1373 24.9286 24.1373 23.824V15.7417L27.4532 14.2983V17.7393C27.4532 18.2916 27.9009 18.7393 28.4532 18.7393C29.0055 18.7393 29.4532 18.2916 29.4532 17.7393V12.1382C29.4532 12.0678 29.4459 11.999 29.4321 11.9327C29.3695 11.255 28.9707 10.6056 28.236 10.2873L16.9439 5.39419ZM27.4408 12.1224L16.1487 7.22931L4.83555 12.154L16.1277 17.0471L27.4408 12.1224Z" fill="#3C3C3C"/>
</svg>
