<svg width="32" height="32" viewBox="0 0 32 32" fill="none" xmlns="http://www.w3.org/2000/svg">
<path fill-rule="evenodd" clip-rule="evenodd" d="M22 8.5C22 9.32843 22.6716 10 23.5 10C24.3284 10 25 9.32843 25 8.5C25 7.67157 24.3284 7 23.5 7C22.6716 7 22 7.67157 22 8.5ZM23.5 5C21.567 5 20 6.567 20 8.5C20 9.78439 20.6918 10.9072 21.7232 11.5161L20.4524 16.0003C19.7122 16.0102 19.0274 16.2499 18.4662 16.6512L14.7623 13.7704C14.9158 13.3766 15 12.9481 15 12.5C15 10.567 13.433 9 11.5 9C9.567 9 8 10.567 8 12.5C8 13.7862 8.69383 14.9104 9.72765 15.5187L8.62475 20.0022C8.58334 20.0007 8.54176 20 8.5 20C6.567 20 5 21.567 5 23.5C5 25.433 6.567 27 8.5 27C10.433 27 12 25.433 12 23.5C12 22.3221 11.4181 21.28 10.5261 20.6457L11.6699 15.9959C12.3632 15.9628 13.0037 15.7279 13.5339 15.3487L17.2377 18.2295C17.0842 18.6234 17 19.0518 17 19.5C17 21.433 18.567 23 20.5 23C22.433 23 24 21.433 24 19.5C24 18.2576 23.3526 17.1663 22.3768 16.5452L23.6659 11.9961C25.5219 11.9095 27 10.3774 27 8.5C27 6.567 25.433 5 23.5 5ZM19 19.5C19 20.3284 19.6716 21 20.5 21C21.3284 21 22 20.3284 22 19.5C22 18.6716 21.3284 18 20.5 18C19.6716 18 19 18.6716 19 19.5ZM8.5 25C7.67157 25 7 24.3284 7 23.5C7 22.6716 7.67157 22 8.5 22C9.32843 22 10 22.6716 10 23.5C10 24.3284 9.32843 25 8.5 25ZM10 12.5C10 13.3284 10.6716 14 11.5 14C12.3284 14 13 13.3284 13 12.5C13 11.6716 12.3284 11 11.5 11C10.6716 11 10 11.6716 10 12.5Z" fill="#3C3C3C"/>
</svg>
