<svg width="32" height="32" viewBox="0 0 32 32" fill="none" xmlns="http://www.w3.org/2000/svg">
<path fill-rule="evenodd" clip-rule="evenodd" d="M8 8H13V13H8L8 8ZM6 8C6 6.89543 6.89543 6 8 6H13C14.1046 6 15 6.89543 15 8V13C15 14.1046 14.1046 15 13 15H8C6.89543 15 6 14.1046 6 13V8ZM8 19H13V24H8L8 19ZM6 19C6 17.8954 6.89543 17 8 17H13C14.1046 17 15 17.8954 15 19V24C15 25.1046 14.1046 26 13 26H8C6.89543 26 6 25.1046 6 24V19ZM24 8H19V13H24V8ZM19 6C17.8954 6 17 6.89543 17 8V13C17 14.1046 17.8954 15 19 15H24C25.1046 15 26 14.1046 26 13V8C26 6.89543 25.1046 6 24 6H19ZM19 19H24V24H19V19ZM17 19C17 17.8954 17.8954 17 19 17H24C25.1046 17 26 17.8954 26 19V24C26 25.1046 25.1046 26 24 26H19C17.8954 26 17 25.1046 17 24V19Z" fill="#3C3C3C"/>
</svg>
