<svg width="32" height="32" viewBox="0 0 32 32" fill="none" xmlns="http://www.w3.org/2000/svg">
<path d="M13.75 6.5C13.75 7.88071 12.6307 9 11.25 9C9.86929 9 8.75 7.88071 8.75 6.5C8.75 5.11929 9.86929 4 11.25 4C12.6307 4 13.75 5.11929 13.75 6.5Z" fill="#3C3C3C"/>
<path d="M13.75 16.5C13.75 17.8807 12.6307 19 11.25 19C9.86929 19 8.75 17.8807 8.75 16.5C8.75 15.1193 9.86929 14 11.25 14C12.6307 14 13.75 15.1193 13.75 16.5Z" fill="#3C3C3C"/>
<path d="M13.75 25.5C13.75 26.8807 12.6307 28 11.25 28C9.86929 28 8.75 26.8807 8.75 25.5C8.75 24.1193 9.86929 23 11.25 23C12.6307 23 13.75 24.1193 13.75 25.5Z" fill="#3C3C3C"/>
<path d="M23.25 6.5C23.25 7.88071 22.1307 9 20.75 9C19.3693 9 18.25 7.88071 18.25 6.5C18.25 5.11929 19.3693 4 20.75 4C22.1307 4 23.25 5.11929 23.25 6.5Z" fill="#3C3C3C"/>
<path d="M23.25 16.5C23.25 17.8807 22.1307 19 20.75 19C19.3693 19 18.25 17.8807 18.25 16.5C18.25 15.1193 19.3693 14 20.75 14C22.1307 14 23.25 15.1193 23.25 16.5Z" fill="#3C3C3C"/>
<path d="M23.25 25.5C23.25 26.8807 22.1307 28 20.75 28C19.3693 28 18.25 26.8807 18.25 25.5C18.25 24.1193 19.3693 23 20.75 23C22.1307 23 23.25 24.1193 23.25 25.5Z" fill="#3C3C3C"/>
</svg>
