<svg width="32" height="32" viewBox="0 0 32 32" fill="none" xmlns="http://www.w3.org/2000/svg">
<path fill-rule="evenodd" clip-rule="evenodd" d="M11.5 5.92267C10.8812 5.56541 10.1188 5.56541 9.49999 5.92267L5.30383 8.34532C4.68503 8.70259 4.30383 9.36284 4.30383 10.0774V14.9227C4.30383 15.6372 4.68503 16.2975 5.30383 16.6547L9.49999 19.0774C9.59804 19.134 9.69971 19.1816 9.80383 19.2203V23.7731C9.80383 24.4877 10.185 25.1479 10.8038 25.5052L15 27.9278C15.6188 28.2851 16.3812 28.2851 17 27.9278L21.1961 25.5052C21.8149 25.1479 22.1961 24.4877 22.1961 23.7731V19.2203C22.3003 19.1816 22.4019 19.134 22.5 19.0774L26.6961 16.6547C27.3149 16.2975 27.6961 15.6372 27.6961 14.9227V10.0774C27.6961 9.36284 27.3149 8.70259 26.6961 8.34532L22.5 5.92267C21.8812 5.56541 21.1188 5.56541 20.5 5.92267L16.3038 8.34532C16.1949 8.4082 16.0934 8.48046 16 8.56075C15.9066 8.48046 15.805 8.4082 15.6961 8.34532L11.5 5.92267ZM6.30383 10.0774L10.5 7.65472L14.6961 10.0774V14.9227L13.2928 15.7329C13.0036 14.8652 12.422 14.1077 11.614 13.7387C12.4356 13.3291 13 12.4805 13 11.5C13 10.1193 11.8807 9 10.5 9C9.11929 9 8 10.1193 8 11.5C8 12.4805 8.5644 13.3291 9.38603 13.7387C8.57796 14.1077 7.99644 14.8653 7.70724 15.7329L6.30383 14.9227V10.0774ZM10.5 15.5C10.8289 15.5 11.4049 15.8865 11.4895 16.774L10.5 17.3453L9.51049 16.774C9.59509 15.8865 10.1711 15.5 10.5 15.5ZM21.5 7.65472L17.3038 10.0774V14.9227L18.7072 15.7329C18.9964 14.8653 19.578 14.1077 20.386 13.7387C19.5644 13.3291 19 12.4805 19 11.5C19 10.1193 20.1193 9 21.5 9C22.8807 9 24 10.1193 24 11.5C24 12.4805 23.4356 13.3291 22.614 13.7387C23.422 14.1077 24.0036 14.8652 24.2928 15.7329L25.6961 14.9227V10.0774L21.5 7.65472ZM21.5 17.3453L20.5105 16.774C20.5951 15.8865 21.1711 15.5 21.5 15.5C21.8289 15.5 22.4049 15.8865 22.4895 16.774L21.5 17.3453ZM16 16.5052L11.8038 18.9278V23.7731L13.2072 24.5834C13.4964 23.7157 14.078 22.9581 14.886 22.5892C14.0644 22.1795 13.5 21.3309 13.5 20.3505C13.5 18.9697 14.6193 17.8505 16 17.8505C17.3807 17.8505 18.5 18.9697 18.5 20.3505C18.5 21.3309 17.9356 22.1795 17.114 22.5892C17.922 22.9581 18.5036 23.7157 18.7928 24.5834L20.1961 23.7731V18.9278L16 16.5052ZM16 26.1958L15.0105 25.6245C15.0951 24.737 15.6711 24.3505 16 24.3505C16.3289 24.3505 16.9049 24.737 16.9895 25.6245L16 26.1958ZM21 11.5C21 11.2239 21.2239 11 21.5 11C21.7761 11 22 11.2239 22 11.5C22 11.7761 21.7761 12 21.5 12C21.2239 12 21 11.7761 21 11.5ZM15.5 20.3505C15.5 20.0743 15.7239 19.8505 16 19.8505C16.2761 19.8505 16.5 20.0743 16.5 20.3505C16.5 20.6266 16.2761 20.8505 16 20.8505C15.7239 20.8505 15.5 20.6266 15.5 20.3505ZM10 11.5C10 11.2239 10.2239 11 10.5 11C10.7761 11 11 11.2239 11 11.5C11 11.7761 10.7761 12 10.5 12C10.2239 12 10 11.7761 10 11.5Z" fill="#3C3C3C"/>
</svg>
