<svg width="32" height="32" viewBox="0 0 32 32" fill="none" xmlns="http://www.w3.org/2000/svg">
<path fill-rule="evenodd" clip-rule="evenodd" d="M13.9924 7.45928C14.162 6.68187 14.9483 6 16.0004 6C17.0521 6 17.8382 6.68139 18.0082 7.45845L18.2411 8.52257L19.2814 8.1998C20.2363 7.90356 21.2713 8.27602 21.7452 9.03101C22.1972 9.75103 22.0384 10.6576 21.3406 11.2225L20.3803 11.9998L21.3407 12.7771C22.0386 13.3419 22.1974 14.2486 21.7454 14.9686C21.2714 15.7236 20.2364 16.0961 19.2816 15.7998L18.241 15.477L18.0083 16.5413C17.8384 17.3185 17.0522 18 16.0004 18C14.9485 18 14.1622 17.3183 13.9924 16.541L13.7599 15.4765L12.7192 15.7994C11.7643 16.0956 10.7293 15.7232 10.2554 14.9682C9.80348 14.2484 9.96208 13.3421 10.6593 12.7773L11.6183 12.0003L10.6593 11.2233C9.9622 10.6584 9.80364 9.75222 10.2555 9.03244C10.7294 8.27749 11.7643 7.90504 12.7191 8.20118L13.76 8.52402L13.9924 7.45928ZM16.0004 4C14.4486 4 13.0467 4.83391 12.3738 6.11318C10.8962 6.00197 9.38609 6.65572 8.56162 7.96906C7.74036 9.27727 7.85417 10.8355 8.67317 12.0002C7.85404 13.165 7.74018 14.7233 8.56148 16.0315C9.38604 17.345 10.8964 17.9988 12.3741 17.8874C13.0471 19.1663 14.4488 20 16.0004 20C17.5518 20 18.9534 19.1665 19.6265 17.8878C21.1043 17.9993 22.6147 17.3455 23.4393 16.032C24.2608 14.7233 24.1466 13.1646 23.3269 11.9997C24.1465 10.8349 24.2606 9.27621 23.4391 7.96763C22.6145 6.65409 21.1041 6.00034 19.6263 6.11181C18.9531 4.83331 17.5516 4 16.0004 4ZM15 12C15 11.4477 15.4477 11 16 11C16.5523 11 17 11.4477 17 12C17 12.5523 16.5523 13 16 13C15.4477 13 15 12.5523 15 12ZM16 9C14.3431 9 13 10.3431 13 12C13 13.6569 14.3431 15 16 15C17.6569 15 19 13.6569 19 12C19 10.3431 17.6569 9 16 9ZM6.04592 19.9811C5.93189 18.9234 6.81281 18.0817 7.822 18.1545C11.3632 18.4102 14.4734 20.3338 16 23.1164C17.5265 20.3338 20.6368 18.4102 24.178 18.1545C25.1872 18.0817 26.0681 18.9234 25.9541 19.9811C25.4578 24.5844 21.0882 28 16 28C10.9118 28 6.54221 24.5844 6.04592 19.9811ZM14.9032 25.9365C11.3375 25.5197 8.62637 23.0999 8.09559 20.1888C11.6713 20.6077 14.3685 23.0203 14.9032 25.9365ZM17.0968 25.9365C20.6625 25.5197 23.3736 23.0999 23.9044 20.1888C20.3287 20.6077 17.6315 23.0203 17.0968 25.9365Z" fill="#3C3C3C"/>
</svg>
