<svg width="32" height="32" viewBox="0 0 32 32" fill="none" xmlns="http://www.w3.org/2000/svg">
<path fill-rule="evenodd" clip-rule="evenodd" d="M26 16C26 21.5228 21.5228 26 16 26C10.4772 26 6 21.5228 6 16C6 10.4772 10.4772 6 16 6C21.5228 6 26 10.4772 26 16ZM28 16C28 22.6274 22.6274 28 16 28C9.37258 28 4 22.6274 4 16C4 9.37258 9.37258 4 16 4C22.6274 4 28 9.37258 28 16ZM11.25 14.5C11.9404 14.5 12.5 13.9404 12.5 13.25C12.5 12.5596 11.9404 12 11.25 12C10.5596 12 10 12.5596 10 13.25C10 13.9404 10.5596 14.5 11.25 14.5ZM22 13.25C22 13.9404 21.4404 14.5 20.75 14.5C20.0596 14.5 19.5 13.9404 19.5 13.25C19.5 12.5596 20.0596 12 20.75 12C21.4404 12 22 12.5596 22 13.25ZM9.98657 16.8369C9.89645 16.292 9.38168 15.9233 8.83679 16.0134C8.29191 16.1036 7.92325 16.6183 8.01337 17.1632C8.65341 21.033 11.9753 24 16 24C20.0247 24 23.3465 21.033 23.9866 17.1632C24.0767 16.6183 23.708 16.1036 23.1631 16.0134C22.6183 15.9233 22.1035 16.292 22.0134 16.8369C21.527 19.7776 19.0095 22 16 22C12.9904 22 10.473 19.7776 9.98657 16.8369Z" fill="#3C3C3C"/>
</svg>
