<svg width="32" height="32" viewBox="0 0 32 32" fill="none" xmlns="http://www.w3.org/2000/svg">
<path fill-rule="evenodd" clip-rule="evenodd" d="M15.9869 6C14.331 6 12.9887 7.34232 12.9887 8.99816C12.9887 10.3034 13.8228 11.4138 14.987 11.8256V14.974H8.99518C7.33833 14.974 5.99518 16.3171 5.99518 17.974V20.1591C4.83258 20.5717 4 21.6813 4 22.9854C4 24.6412 5.34232 25.9836 6.99816 25.9836C8.654 25.9836 9.99633 24.6412 9.99633 22.9854C9.99633 21.6791 9.1609 20.5679 7.99518 20.157V17.974C7.99518 17.4217 8.44289 16.974 8.99518 16.974H14.987V20.1572C13.8215 20.5682 12.9863 21.6793 12.9863 22.9854C12.9863 24.6412 14.3287 25.9836 15.9845 25.9836C17.6403 25.9836 18.9827 24.6412 18.9827 22.9854C18.9827 21.6812 18.1498 20.5714 16.987 20.1589V16.974H22.9708C23.5231 16.974 23.9708 17.4217 23.9708 17.974V20.1608C22.8108 20.5748 21.9805 21.6832 21.9805 22.9854C21.9805 24.6412 23.3229 25.9836 24.9787 25.9836C26.6345 25.9836 27.9769 24.6412 27.9769 22.9854C27.9769 21.6773 27.1391 20.5648 25.9708 20.1553V17.974C25.9708 16.3171 24.6277 14.974 22.9708 14.974H16.987V11.8255C18.1511 11.4137 18.985 10.3033 18.985 8.99816C18.985 7.34232 17.6427 6 15.9869 6ZM14.9887 8.99816C14.9887 8.44689 15.4356 8 15.9869 8C16.5381 8 16.985 8.44689 16.985 8.99816C16.985 9.54944 16.5381 9.99633 15.9869 9.99633C15.4356 9.99633 14.9887 9.54944 14.9887 8.99816ZM6 22.9854C6 22.4341 6.44689 21.9872 6.99816 21.9872C7.54944 21.9872 7.99633 22.4341 7.99633 22.9854C7.99633 23.5367 7.54944 23.9836 6.99816 23.9836C6.44689 23.9836 6 23.5367 6 22.9854ZM14.9863 22.9854C14.9863 22.4341 15.4332 21.9872 15.9845 21.9872C16.5358 21.9872 16.9827 22.4341 16.9827 22.9854C16.9827 23.5367 16.5358 23.9836 15.9845 23.9836C15.4332 23.9836 14.9863 23.5367 14.9863 22.9854ZM24.9787 21.9872C24.4274 21.9872 23.9805 22.4341 23.9805 22.9854C23.9805 23.5367 24.4274 23.9836 24.9787 23.9836C25.53 23.9836 25.9769 23.5367 25.9769 22.9854C25.9769 22.4341 25.53 21.9872 24.9787 21.9872Z" fill="#3C3C3C"/>
</svg>
