<svg width="32" height="32" viewBox="0 0 32 32" fill="none" xmlns="http://www.w3.org/2000/svg">
<path fill-rule="evenodd" clip-rule="evenodd" d="M16 20C14.8954 20 14 20.8954 14 22V24C14 25.1046 13.1046 26 12 26H8C6.89543 26 6 25.1046 6 24V13.9612C6 13.3537 6.27618 12.7791 6.75061 12.3995L14.7506 5.99951C15.481 5.41516 16.519 5.41516 17.2494 5.99951L25.2494 12.3995C25.7238 12.7791 26 13.3537 26 13.9612V24C26 25.1046 25.1046 26 24 26H20C18.8954 26 18 25.1046 18 24V22C18 21.6357 17.9026 21.2942 17.7324 21C17.3866 20.4022 16.7403 20 16 20ZM16 18C18.2091 18 20 19.7909 20 22V24H24V13.9612L16 7.56125L8 13.9612V24H12V22C12 19.7909 13.7909 18 16 18Z" fill="#3C3C3C"/>
</svg>
