<svg width="32" height="32" viewBox="0 0 32 32" fill="none" xmlns="http://www.w3.org/2000/svg">
<path fill-rule="evenodd" clip-rule="evenodd" d="M26 5C26 5.55228 25.5523 6 25 6H23.2859C23.9395 8.96835 23.6624 11.1616 22.4588 12.8851C21.5159 14.2352 20.0701 15.1806 18.4071 16.0031C20.0575 16.8239 21.4989 17.7678 22.4427 19.1132C23.651 20.8357 23.9377 23.029 23.2854 26H25C25.5523 26 26 26.4477 26 27C26 27.5523 25.5523 28 25 28H7C6.44772 28 6 27.5523 6 27C6 26.4477 6.44772 26 7 26H8.71551C8.06124 23.0317 8.33835 20.8383 9.54227 19.1148C10.4854 17.7648 11.9315 16.8193 13.5946 15.9969C11.944 15.1761 10.5023 14.2323 9.55837 12.8869C8.34978 11.1643 8.06306 8.97104 8.71607 6H7C6.44772 6 6 5.55228 6 5C6 4.44772 6.44772 4 7 4H25C25.5523 4 26 4.44772 26 5ZM10.7692 26H21.2321C21.9503 23.0861 21.616 21.4174 20.8053 20.2618C19.9163 18.9943 18.3206 18.1148 15.9993 17.0907C13.6607 18.1148 12.066 18.9945 11.1819 20.2602C10.3755 21.4146 10.0481 23.0831 10.7692 26ZM10.7695 6H21.2324C21.9526 8.91688 21.6253 10.5855 20.8191 11.7399C19.9352 13.0055 18.3409 13.8852 16.0025 14.9093C13.6811 13.8852 12.0849 13.0057 11.1956 11.7381C10.3848 10.5826 10.0504 8.91392 10.7695 6Z" fill="#3C3C3C"/>
</svg>
