<svg width="32" height="32" viewBox="0 0 32 32" fill="none" xmlns="http://www.w3.org/2000/svg">
<path fill-rule="evenodd" clip-rule="evenodd" d="M26 6H6L6 26H26V6ZM6 4C4.89543 4 4 4.89543 4 6V26C4 27.1046 4.89543 28 6 28H26C27.1046 28 28 27.1046 28 26V6C28 4.89543 27.1046 4 26 4H6Z" fill="#3C3C3C"/>
<path fill-rule="evenodd" clip-rule="evenodd" d="M28 19.5852L23.4546 15.0399C22.6736 14.2588 21.4073 14.2588 20.6262 15.0399L18.3154 17.3507L13.4085 12.4437C12.6274 11.6626 11.3611 11.6626 10.5801 12.4437L4 19.0238V21.8522L11.9943 13.8579L26.1321 27.9957C26.8635 27.948 27.4877 27.5071 27.7954 26.8823C27.7248 26.7777 27.6432 26.6784 27.5506 26.5858L19.7296 18.7649L22.0404 16.4541L28 22.4137V19.5852Z" fill="#3C3C3C"/>
</svg>
