<svg width="32" height="32" viewBox="0 0 32 32" fill="none" xmlns="http://www.w3.org/2000/svg">
<path fill-rule="evenodd" clip-rule="evenodd" d="M4.75 5.74979C4.75 5.1975 5.19772 4.74979 5.75 4.74979H26.25C26.8023 4.74979 27.25 5.1975 27.25 5.74979C27.25 6.30207 26.8023 6.74979 26.25 6.74979L5.75 6.74979C5.19772 6.74979 4.75 6.30207 4.75 5.74979ZM16.1389 19.4168C16.1389 18.8645 16.5866 18.4168 17.1389 18.4168H26.25C26.8023 18.4168 27.25 18.8645 27.25 19.4168C27.25 19.9691 26.8023 20.4168 26.25 20.4168H17.1389C16.5866 20.4168 16.1389 19.9691 16.1389 19.4168ZM17.4236 11.5828C16.8713 11.5828 16.4236 12.0305 16.4236 12.5828C16.4236 13.1351 16.8713 13.5828 17.4236 13.5828H26.25C26.8023 13.5828 27.25 13.1351 27.25 12.5828C27.25 12.0305 26.8023 11.5828 26.25 11.5828H17.4236ZM4.75001 26.2498C4.75001 25.6975 5.19772 25.2498 5.75001 25.2498L26.25 25.2498C26.8023 25.2498 27.25 25.6975 27.25 26.2498C27.25 26.8021 26.8023 27.2498 26.25 27.2498L5.75001 27.2498C5.19772 27.2498 4.75001 26.8021 4.75001 26.2498ZM9.00571 12.8221C8.57449 12.477 8.50465 11.8477 8.84971 11.4165C9.19477 10.9853 9.82407 10.9154 10.2553 11.2605L14.9843 15.0447C15.5958 15.534 15.5958 16.464 14.9843 16.9533L10.2553 20.7375C9.82407 21.0826 9.19477 21.0127 8.84971 20.5815C8.50465 20.1503 8.57449 19.521 9.00571 19.1759L11.7246 17.0002L5.75001 17.0002C5.19772 17.0002 4.75001 16.5525 4.75001 16.0002C4.75001 15.448 5.19772 15.0002 5.75001 15.0002L11.7277 15.0002L9.00571 12.8221Z" fill="#3C3C3C"/>
</svg>
