<svg width="32" height="32" viewBox="0 0 32 32" fill="none" xmlns="http://www.w3.org/2000/svg">
<path fill-rule="evenodd" clip-rule="evenodd" d="M16 26C21.5228 26 26 21.5228 26 16C26 10.4772 21.5228 6 16 6C10.4772 6 6 10.4772 6 16C6 21.5228 10.4772 26 16 26ZM16 28C22.6274 28 28 22.6274 28 16C28 9.37258 22.6274 4 16 4C9.37258 4 4 9.37258 4 16C4 22.6274 9.37258 28 16 28ZM16 13C16.5523 13 17 13.4477 17 14V22C17 22.5523 16.5523 23 16 23C15.4477 23 15 22.5523 15 22V14C15 13.4477 15.4477 13 16 13ZM16 11.5C16.6904 11.5 17.25 10.9404 17.25 10.25C17.25 9.55964 16.6904 9 16 9C15.3096 9 14.75 9.55964 14.75 10.25C14.75 10.9404 15.3096 11.5 16 11.5Z" fill="#3C3C3C"/>
</svg>
