<svg width="32" height="32" viewBox="0 0 32 32" fill="none" xmlns="http://www.w3.org/2000/svg">
<path d="M9.75 11C9.75 10.4477 10.1977 10 10.75 10H17.75C18.3023 10 18.75 10.4477 18.75 11C18.75 11.5523 18.3023 12 17.75 12H10.75C10.1977 12 9.75 11.5523 9.75 11Z" fill="#3C3C3C"/>
<path d="M21.25 12C21.8023 12 22.25 11.5523 22.25 11C22.25 10.4477 21.8023 10 21.25 10C20.6977 10 20.25 10.4477 20.25 11C20.25 11.5523 20.6977 12 21.25 12Z" fill="#3C3C3C"/>
<path d="M22.25 15C22.25 15.5523 21.8023 16 21.25 16C20.6977 16 20.25 15.5523 20.25 15C20.25 14.4477 20.6977 14 21.25 14C21.8023 14 22.25 14.4477 22.25 15Z" fill="#3C3C3C"/>
<path d="M21.25 20C21.8023 20 22.25 19.5523 22.25 19C22.25 18.4477 21.8023 18 21.25 18C20.6977 18 20.25 18.4477 20.25 19C20.25 19.5523 20.6977 20 21.25 20Z" fill="#3C3C3C"/>
<path d="M9.75 15C9.75 14.4477 10.1977 14 10.75 14H17.75C18.3023 14 18.75 14.4477 18.75 15C18.75 15.5523 18.3023 16 17.75 16H10.75C10.1977 16 9.75 15.5523 9.75 15Z" fill="#3C3C3C"/>
<path d="M10.75 18C10.1977 18 9.75 18.4477 9.75 19C9.75 19.5523 10.1977 20 10.75 20H17.75C18.3023 20 18.75 19.5523 18.75 19C18.75 18.4477 18.3023 18 17.75 18H10.75Z" fill="#3C3C3C"/>
<path fill-rule="evenodd" clip-rule="evenodd" d="M8 4C6.89543 4 6 4.89543 6 6V26.4616C6 28.1986 8.4025 28.6513 9.03469 27.0334L9.13351 26.7805C9.63084 25.5077 11.4436 25.5417 11.8928 26.8323L11.9739 27.0653C12.429 28.3729 14.3046 28.2927 14.6465 26.9511C15.0039 25.5487 16.9961 25.5487 17.3535 26.9511C17.6954 28.2927 19.571 28.3729 20.0261 27.0653L20.1072 26.8323C20.5564 25.5417 22.3692 25.5077 22.8665 26.7805L22.9653 27.0334C23.5975 28.6514 26 28.1986 26 26.4616V6C26 4.89543 25.1046 4 24 4H8ZM24 6H8V24.8951C9.44033 23.3851 12.0232 23.5105 13.2856 25.2251C14.6006 23.4573 17.3994 23.4573 18.7144 25.2251C19.9768 23.5105 22.5597 23.3851 24 24.8951V6Z" fill="#3C3C3C"/>
</svg>
