<svg width="32" height="32" viewBox="0 0 32 32" fill="none" xmlns="http://www.w3.org/2000/svg">
<path fill-rule="evenodd" clip-rule="evenodd" d="M18.5 6.5C18.5 7.88071 17.3807 9 16 9C14.6193 9 13.5 7.88071 13.5 6.5C13.5 5.11929 14.6193 4 16 4C17.3807 4 18.5 5.11929 18.5 6.5ZM18.5 16.5C18.5 17.8807 17.3807 19 16 19C14.6193 19 13.5 17.8807 13.5 16.5C13.5 15.1193 14.6193 14 16 14C17.3807 14 18.5 15.1193 18.5 16.5ZM16 28C17.3807 28 18.5 26.8807 18.5 25.5C18.5 24.1193 17.3807 23 16 23C14.6193 23 13.5 24.1193 13.5 25.5C13.5 26.8807 14.6193 28 16 28Z" fill="#3C3C3C"/>
</svg>
