<svg width="32" height="32" viewBox="0 0 32 32" fill="none" xmlns="http://www.w3.org/2000/svg">
<path d="M21.25 12C21.9404 12 22.5 11.4404 22.5 10.75C22.5 10.0596 21.9404 9.5 21.25 9.5C20.5596 9.5 20 10.0596 20 10.75C20 11.4404 20.5596 12 21.25 12Z" fill="#3C3C3C"/>
<path fill-rule="evenodd" clip-rule="evenodd" d="M20 19C19.3873 19 18.793 18.9213 18.2266 18.7734L17.5 19.5V22H15V24.5H12.5294V27H7C5.89543 27 5 26.1046 5 25V22.2057C5 21.6739 5.21179 21.164 5.58856 20.7887L13.0739 13.3326C13.0886 13.318 13.1035 13.3036 13.1185 13.2895C13.0407 12.8716 13 12.4405 13 12C13 8.13401 16.134 5 20 5C23.866 5 27 8.13401 27 12C27 15.866 23.866 19 20 19ZM14.4861 14.7489L15.2852 14.0001L15.0847 12.9234C15.0293 12.6256 15 12.3171 15 12C15 9.23858 17.2386 7 20 7C22.7614 7 25 9.23858 25 12C25 14.7614 22.7614 17 20 17C19.5592 17 19.1347 16.9435 18.7319 16.8383L17.6229 16.5487L15.5 18.6716V20H13V22.5H10.5294V25L7 25L7 22.2057L14.4861 14.7489Z" fill="#3C3C3C"/>
</svg>
