<svg width="32" height="32" viewBox="0 0 32 32" fill="none" xmlns="http://www.w3.org/2000/svg">
<path fill-rule="evenodd" clip-rule="evenodd" d="M8.00006 5C8.00006 4.44772 7.55235 4 7.00006 4C6.44778 4 6.00006 4.44772 6.00006 5V27C6.00006 27.5523 6.44778 28 7.00006 28C7.55235 28 8.00006 27.5523 8.00006 27L8.00006 19H24.6619C26.0496 19 26.6932 17.2776 25.6456 16.3676L21.1933 12.5L25.6456 8.63241C26.6932 7.72237 26.0496 6 24.6619 6H8.00006V5ZM8.00525 17V8H23.3239L19.4471 11.3676C18.7587 11.9656 18.7587 13.0344 19.4471 13.6324L23.3239 17H8.00525Z" fill="#3C3C3C"/>
</svg>
