<svg width="32" height="32" viewBox="0 0 32 32" fill="none" xmlns="http://www.w3.org/2000/svg">
<path fill-rule="evenodd" clip-rule="evenodd" d="M28 16C28 22.6274 22.6274 28 16 28C9.37258 28 4 22.6274 4 16C4 9.37258 9.37258 4 16 4C22.6274 4 28 9.37258 28 16ZM15.2013 6.51636C15.5755 6.08113 15.8488 6 16 6C16.1512 6 16.4245 6.08113 16.7987 6.51636C17.1701 6.94833 17.5499 7.63192 17.8886 8.56357C18.486 10.2064 18.8969 12.4562 18.9831 15H13.0169C13.1031 12.4562 13.514 10.2064 14.1114 8.56357C14.4501 7.63192 14.8299 6.94833 15.2013 6.51636ZM11.0158 15C11.1025 12.2672 11.5419 9.77714 12.2318 7.88008C12.4087 7.39343 12.6062 6.93457 12.8248 6.51461C9.1618 7.74025 6.44371 11.0283 6.04938 15H11.0158ZM6.04938 17H11.0158C11.1025 19.7328 11.5419 22.2229 12.2318 24.1199C12.4087 24.6066 12.6062 25.0654 12.8248 25.4854C9.1618 24.2597 6.44371 20.9717 6.04938 17ZM13.0169 17H18.9831C18.8969 19.5438 18.486 21.7936 17.8886 23.4364C17.5499 24.3681 17.1701 25.0517 16.7987 25.4836C16.4245 25.9189 16.1512 26 16 26C15.8488 26 15.5755 25.9189 15.2013 25.4836C14.8299 25.0517 14.4501 24.3681 14.1114 23.4364C13.514 21.7936 13.1031 19.5438 13.0169 17ZM20.9842 17C20.8975 19.7328 20.4581 22.2229 19.7682 24.1199C19.5913 24.6066 19.3938 25.0654 19.1752 25.4854C22.8382 24.2597 25.5563 20.9717 25.9506 17H20.9842ZM25.9506 15C25.5563 11.0283 22.8382 7.74025 19.1752 6.51461C19.3938 6.93457 19.5913 7.39343 19.7682 7.88008C20.4581 9.77714 20.8975 12.2672 20.9842 15H25.9506Z" fill="#3C3C3C"/>
</svg>
