<svg width="32" height="32" viewBox="0 0 32 32" fill="none" xmlns="http://www.w3.org/2000/svg">
<path fill-rule="evenodd" clip-rule="evenodd" d="M8 4C6.89543 4 6 4.89543 6 6V11C6 12.1046 6.89543 13 8 13H15L15 24.7959L11.207 21.0029C10.8165 20.6124 10.1833 20.6124 9.79281 21.0029C9.40228 21.3934 9.40228 22.0266 9.7928 22.4171L14.9392 27.5635C15.525 28.1493 16.4748 28.1493 17.0606 27.5635L22.207 22.4171C22.5975 22.0266 22.5975 21.3934 22.207 21.0029C21.8165 20.6123 21.1833 20.6123 20.7928 21.0029L17 24.7957L17 13H24C25.1046 13 26 12.1046 26 11V6C26 4.89543 25.1046 4 24 4H8ZM24 6H8V11H24V6Z" fill="#3C3C3C"/>
</svg>
