<svg width="32" height="32" viewBox="0 0 32 32" fill="none" xmlns="http://www.w3.org/2000/svg">
<path fill-rule="evenodd" clip-rule="evenodd" d="M24.5 11C22.9145 11 21.5752 9.94574 21.1449 8.5H9.25C7.45507 8.5 6 9.95507 6 11.75C6 13.5449 7.45507 15 9.25 15H12.6449C13.0752 13.5543 14.4145 12.5 16 12.5C17.5855 12.5 18.9248 13.5543 19.3551 15H22.75C25.6495 15 28 17.3505 28 20.25C28 23.1495 25.6495 25.5 22.75 25.5H10.8551C10.4248 26.9457 9.08551 28 7.5 28C5.567 28 4 26.433 4 24.5C4 22.567 5.567 21 7.5 21C9.08551 21 10.4248 22.0543 10.8551 23.5H22.75C24.5449 23.5 26 22.0449 26 20.25C26 18.4551 24.5449 17 22.75 17H19.3551C18.9248 18.4457 17.5855 19.5 16 19.5C14.4145 19.5 13.0752 18.4457 12.6449 17H9.25C6.3505 17 4 14.6495 4 11.75C4 8.8505 6.3505 6.5 9.25 6.5H21.1449C21.5752 5.05426 22.9145 4 24.5 4C26.433 4 28 5.567 28 7.5C28 9.433 26.433 11 24.5 11ZM24.5 9C25.3284 9 26 8.32843 26 7.5C26 6.67157 25.3284 6 24.5 6C23.6716 6 23 6.67157 23 7.5C23 8.32843 23.6716 9 24.5 9ZM9 24.5C9 23.6716 8.32843 23 7.5 23C6.67157 23 6 23.6716 6 24.5C6 25.3284 6.67157 26 7.5 26C8.32843 26 9 25.3284 9 24.5ZM17.5 16C17.5 16.8284 16.8284 17.5 16 17.5C15.1716 17.5 14.5 16.8284 14.5 16C14.5 15.1716 15.1716 14.5 16 14.5C16.8284 14.5 17.5 15.1716 17.5 16Z" fill="#3C3C3C"/>
</svg>
