<svg width="32" height="32" viewBox="0 0 32 32" fill="none" xmlns="http://www.w3.org/2000/svg">
<path fill-rule="evenodd" clip-rule="evenodd" d="M16 6C12.6863 6 10 8.68629 10 12C10 14.392 11.3997 16.459 13.4291 17.4231C13.7778 17.5888 14 17.9403 14 18.3264V20H18V18.3264C18 17.9403 18.2222 17.5888 18.5709 17.4231C20.6003 16.459 22 14.392 22 12C22 8.68629 19.3137 6 16 6ZM8 12C8 7.58172 11.5817 4 16 4C20.4183 4 24 7.58172 24 12C24 14.9626 22.3896 17.5473 20 18.9295V21C20 21.5523 19.5523 22 19 22H13C12.4477 22 12 21.5523 12 21V18.9295C9.61038 17.5473 8 14.9626 8 12ZM12 24C12 23.4477 12.4477 23 13 23H19C19.5523 23 20 23.4477 20 24C20 24.5523 19.5523 25 19 25H13C12.4477 25 12 24.5523 12 24ZM14.0001 26C13.4478 26 13.0001 26.4477 13.0001 27C13.0001 27.5523 13.4478 28 14.0001 28H18.0001C18.5523 28 19.0001 27.5523 19.0001 27C19.0001 26.4477 18.5523 26 18.0001 26H14.0001Z" fill="#3C3C3C"/>
</svg>
