<svg width="32" height="32" viewBox="0 0 32 32" fill="none" xmlns="http://www.w3.org/2000/svg">
<path fill-rule="evenodd" clip-rule="evenodd" d="M24.3917 7.60794C22.2536 5.46984 18.7871 5.46984 16.649 7.60794L15.2928 8.96406C14.9023 9.35459 14.9023 9.98775 15.2928 10.3783C15.6834 10.7688 16.3165 10.7688 16.7071 10.3783L18.0632 9.02216C19.4202 7.6651 21.6205 7.6651 22.9775 9.02216C24.3346 10.3792 24.3346 12.5794 22.9775 13.9365L20.1146 16.7994C18.8408 18.0732 16.7755 18.0732 15.5016 16.7994L15.3509 16.6487C14.9604 16.2582 14.3272 16.2582 13.9367 16.6487C13.5462 17.0393 13.5462 17.6724 13.9367 18.0629L14.0874 18.2136C16.1423 20.2685 19.4739 20.2685 21.5288 18.2136L24.3917 15.3507C26.5298 13.2126 26.5298 9.74605 24.3917 7.60794ZM7.60831 24.3918C9.74641 26.5299 13.213 26.5299 15.3511 24.3918L16.7072 23.0357C17.0977 22.6452 17.0977 22.012 16.7072 21.6215C16.3167 21.2309 15.6835 21.2309 15.293 21.6215L13.9369 22.9776C12.5798 24.3346 10.3796 24.3346 9.02252 22.9776C7.66547 21.6205 7.66547 19.4203 9.02252 18.0632L11.8854 15.2003C13.1593 13.9265 15.2246 13.9265 16.4984 15.2003L16.6491 15.351C17.0396 15.7415 17.6728 15.7415 18.0633 15.351C18.4538 14.9605 18.4538 14.3273 18.0633 13.9368L17.9126 13.7861C15.8577 11.7312 12.5261 11.7312 10.4712 13.7861L7.60831 16.649C5.4702 18.7871 5.4702 22.2537 7.60831 24.3918Z" fill="#3C3C3C"/>
</svg>
