<svg width="32" height="32" viewBox="0 0 32 32" fill="none" xmlns="http://www.w3.org/2000/svg">
<path fill-rule="evenodd" clip-rule="evenodd" d="M20 14C20 16.2091 18.2091 18 16 18C13.7909 18 12 16.2091 12 14C12 11.7909 13.7909 10 16 10C18.2091 10 20 11.7909 20 14ZM18 14C18 15.1046 17.1046 16 16 16C14.8954 16 14 15.1046 14 14C14 12.8954 14.8954 12 16 12C17.1046 12 18 12.8954 18 14Z" fill="#3C3C3C"/>
<path fill-rule="evenodd" clip-rule="evenodd" d="M26 14C26 19.9509 19.7044 25.5492 17.1037 27.608C16.4492 28.126 15.5508 28.126 14.8963 27.608C12.2956 25.5492 6 19.9509 6 14C6 8.47715 10.4772 4 16 4C21.5228 4 26 8.47715 26 14ZM24 14C24 16.3034 22.7568 18.7493 20.9585 21.0227C19.2581 23.1725 17.2535 24.9269 16 25.9302C14.7465 24.9269 12.7419 23.1725 11.0415 21.0227C9.24321 18.7493 8 16.3034 8 14C8 9.58172 11.5817 6 16 6C20.4183 6 24 9.58172 24 14Z" fill="#3C3C3C"/>
</svg>
