<svg width="32" height="32" viewBox="0 0 32 32" fill="none" xmlns="http://www.w3.org/2000/svg">
<path fill-rule="evenodd" clip-rule="evenodd" d="M16 4C12.4101 4 9.5 6.91015 9.5 10.5V12.4175H7.99994C6.89537 12.4175 5.99994 13.3129 5.99994 14.4175V26.0001C5.99994 27.1047 6.89537 28.0001 7.99994 28.0001H23.9999C25.1045 28.0001 25.9999 27.1047 25.9999 26.0001V14.4175C25.9999 13.3129 25.1045 12.4175 23.9999 12.4175H22.5V10.5C22.5 6.91015 19.5899 4 16 4ZM20.5 12.4175V10.5C20.5 8.01472 18.4853 6 16 6C13.5147 6 11.5 8.01472 11.5 10.5V12.4175H20.5ZM7.99994 14.4175H23.9999V26.0001L7.99994 26.0001V14.4175ZM16.7925 19.9751C17.176 19.7256 17.4286 19.3002 17.4286 18.8173C17.4286 18.0489 16.789 17.426 16 17.426C15.211 17.426 14.5715 18.0489 14.5715 18.8173C14.5715 19.3002 14.824 19.7256 15.2076 19.9751L13.8832 21.9098C13.5667 22.3721 13.907 22.9913 14.4775 22.9913H17.5225C18.093 22.9913 18.4333 22.3721 18.1168 21.9098L16.7925 19.9751Z" fill="#3C3C3C"/>
</svg>
