<svg width="32" height="32" viewBox="0 0 32 32" fill="none" xmlns="http://www.w3.org/2000/svg">
<path fill-rule="evenodd" clip-rule="evenodd" d="M21 4C21.5523 4 22 4.44772 22 5V6H24C25.1046 6 26 6.89543 26 8V16C26 16.5523 25.5523 17 25 17C24.4477 17 24 16.5523 24 16V14H8V24H16C16.5523 24 17 24.4477 17 25C17 25.5523 16.5523 26 16 26H8C6.89543 26 6 25.1046 6 24V8C6 6.89543 6.89543 6 8 6H10V5C10 4.44772 10.4477 4 11 4C11.5523 4 12 4.44772 12 5V6H20V5C20 4.44772 20.4477 4 21 4ZM10 8V9C10 9.55228 10.4477 10 11 10C11.5523 10 12 9.55228 12 9V8L20 8V9C20 9.55228 20.4477 10 21 10C21.5523 10 22 9.55228 22 9V8H24V12H8V8H10Z" fill="#3C3C3C"/>
<path fill-rule="evenodd" clip-rule="evenodd" d="M23.5 18.5C21.7051 18.5 20.25 19.9551 20.25 21.75V21.7707C19.5406 21.8898 19 22.5068 19 23.25V26.5C19 27.3284 19.6716 28 20.5 28H26.5C27.3284 28 28 27.3284 28 26.5V23.25C28 22.5068 27.4594 21.8898 26.75 21.7707V21.75C26.75 19.9551 25.2949 18.5 23.5 18.5ZM24.75 21.75C24.75 21.0596 24.1904 20.5 23.5 20.5C22.8096 20.5 22.25 21.0596 22.25 21.75H24.75ZM21 26V23.75H26V26H21Z" fill="#3C3C3C"/>
</svg>
