<svg width="32" height="32" viewBox="0 0 32 32" fill="none" xmlns="http://www.w3.org/2000/svg">
<path fill-rule="evenodd" clip-rule="evenodd" d="M4 8C4 6.89543 4.89543 6 6 6H26C27.1046 6 28 6.89543 28 8V24C28 25.1046 27.1046 26 26 26H6C4.89543 26 4 25.1046 4 24V8ZM21.8213 8H26V10.5H21.8213V8ZM19.8213 8H12.1785V15H19.8213V8ZM10.1785 8H6L6 10.5H10.1785V8ZM6 12.5L6 15H10.1785V12.5H6ZM6 17L6 19.5H10.1785V17H6ZM6 21.5L6 24H10.1785V21.5H6ZM12.1785 24H19.8213V17H12.1785V24ZM21.8213 24H26V21.5H21.8213V24ZM26 19.5V17H21.8213V19.5H26ZM26 15V12.5H21.8213V15H26Z" fill="#3C3C3C"/>
</svg>
