<svg width="32" height="32" viewBox="0 0 32 32" fill="none" xmlns="http://www.w3.org/2000/svg">
<path fill-rule="evenodd" clip-rule="evenodd" d="M5.37407 3.98607C4.98132 3.66679 4.40279 3.69001 4.03706 4.05574C3.64654 4.44626 3.64654 5.07943 4.03706 5.46995L11 12.4329V14C11 16.7614 13.2386 19 16 19C16.4771 19 16.9385 18.9332 17.3755 18.8084L18.9447 20.3775C18.0505 20.7793 17.0532 21 16 21C12.134 21 9 17.866 9 14C9 13.4477 8.55228 13 8 13C7.44772 13 7 13.4477 7 14C7 18.6326 10.5 22.4476 15 22.9451V26H12C11.4477 26 11 26.4477 11 27C11 27.5523 11.4477 28 12 28H20C20.5523 28 21 27.5523 21 27C21 26.4477 20.5523 26 20 26H17V22.947C18.2364 22.8149 19.3985 22.4401 20.4334 21.8663L26.5625 27.9954C26.953 28.3859 27.5862 28.3859 27.9767 27.9954C28.3424 27.6296 28.3656 27.0511 28.0464 26.6584L5.37407 3.98607ZM15.5306 16.9635C14.2497 16.7622 13.2378 15.7503 13.0365 14.4694L15.5306 16.9635Z" fill="#3C3C3C"/>
<path d="M23.4032 19.1868C24.4096 17.7402 25 15.963 25 14C25 13.4477 24.5523 13 24 13C23.4477 13 23 13.4477 23 14C23 15.3991 22.6194 16.6747 21.9588 17.7424L23.4032 19.1868Z" fill="#3C3C3C"/>
<path d="M20.4664 16.2499C20.8077 15.5737 21 14.8093 21 14V8C21 5.23858 18.7614 3 16 3C13.6151 3 11.6201 4.66979 11.1205 6.90405L13 8.78357V8C13 6.34315 14.3431 5 16 5C17.6569 5 19 6.34315 19 8V14C19 14.2415 18.9715 14.4762 18.9176 14.7012L20.4664 16.2499Z" fill="#3C3C3C"/>
</svg>
