<svg width="32" height="32" viewBox="0 0 32 32" fill="none" xmlns="http://www.w3.org/2000/svg">
<path fill-rule="evenodd" clip-rule="evenodd" d="M16 6C10.4772 6 6 10.4772 6 16C6 21.5228 10.4772 26 16 26H25.6558L23.5878 23.9319C23.216 23.5602 23.1956 22.964 23.5411 22.5677C25.0732 20.8102 26 18.5146 26 16C26 15.0015 25.854 14.0388 25.5827 13.1314C25.4246 12.6022 25.7253 12.045 26.2545 11.8869C26.7836 11.7287 27.3408 12.0295 27.499 12.5586C27.8251 13.65 28 14.8054 28 16C28 18.6792 27.1209 21.1551 25.6365 23.1522L28.7772 26.2929C29.0632 26.5789 29.1487 27.009 28.9939 27.3827C28.8392 27.7564 28.4745 28 28.0701 28H16C9.37258 28 4 22.6274 4 16C4 9.37258 9.37258 4 16 4C17.1329 4 18.2308 4.15728 19.2722 4.45181C19.8036 4.60212 20.1126 5.15479 19.9623 5.68622C19.8119 6.21766 19.2593 6.52663 18.7278 6.37632C17.8619 6.13139 16.9471 6 16 6Z" fill="#3C3C3C"/>
<path d="M25 11C27.2091 11 29 9.20914 29 7C29 4.79086 27.2091 3 25 3C22.7909 3 21 4.79086 21 7C21 9.20914 22.7909 11 25 11Z" fill="#3B57FF"/>
</svg>
