<svg width="32" height="32" viewBox="0 0 32 32" fill="none" xmlns="http://www.w3.org/2000/svg">
<path fill-rule="evenodd" clip-rule="evenodd" d="M15.0001 9.75C15.0001 10.3023 15.4478 10.75 16.0001 10.75C16.5524 10.75 17.0001 10.3023 17.0001 9.75V8H19C19.5523 8 20 7.55228 20 7C20 6.44772 19.5523 6 19 6H17.0001V4.25C17.0001 3.69772 16.5524 3.25 16.0001 3.25C15.4478 3.25 15.0001 3.69772 15.0001 4.25V6H5C4.44772 6 4 6.44772 4 7C4 7.55228 4.44772 8 5 8H15.0001V9.75ZM5 15C4.44772 15 4 15.4477 4 16C4 16.5523 4.44772 17 5 17H23V18.75C23 19.3023 23.4477 19.75 24 19.75C24.5523 19.75 25 19.3023 25 18.75V17H27C27.5523 17 28 16.5523 28 16C28 15.4477 27.5523 15 27 15H25V13.25C25 12.6977 24.5523 12.25 24 12.25C23.4477 12.25 23 12.6977 23 13.25V15H5ZM4 25C4 24.4477 4.44772 24 5 24H6V22.25C6 21.6977 6.44772 21.25 7 21.25C7.55228 21.25 8 21.6977 8 22.25V24H27C27.5523 24 28 24.4477 28 25C28 25.5523 27.5523 26 27 26H8V27.75C8 28.3023 7.55228 28.75 7 28.75C6.44772 28.75 6 28.3023 6 27.75V26H5C4.44772 26 4 25.5523 4 25Z" fill="#3C3C3C"/>
<path d="M25 11C27.2091 11 29 9.20914 29 7C29 4.79086 27.2091 3 25 3C22.7909 3 21 4.79086 21 7C21 9.20914 22.7909 11 25 11Z" fill="#3B57FF"/>
</svg>
