<svg width="32" height="32" viewBox="0 0 32 32" fill="none" xmlns="http://www.w3.org/2000/svg">
<path d="M25 11C27.2091 11 29 9.20914 29 7C29 4.79086 27.2091 3 25 3C22.7909 3 21 4.79086 21 7C21 9.20914 22.7909 11 25 11Z" fill="#3B57FF"/>
<path fill-rule="evenodd" clip-rule="evenodd" d="M9.20085 12.8883C9.20085 9.07329 12.2557 6 16.0002 6C16.5525 6 17.0002 5.55228 17.0002 5C17.0002 4.44772 16.5525 4 16.0002 4C11.1298 4 7.20085 7.99016 7.20085 12.8883C7.20085 16.5974 6.78724 18.9565 6.32053 20.4598C5.86132 21.9389 5.34338 22.6156 5.06654 22.9649C4.81921 23.277 4.61365 23.8338 4.93775 24.3827C5.22871 24.8754 5.74374 25 6.08312 25H12.1261C12.5701 26.7252 14.1362 28 16.0001 28C17.8639 28 19.43 26.7252 19.8741 25H25.9168C26.2182 25 26.7802 24.8992 27.0714 24.3511C27.3835 23.7636 27.1005 23.2201 26.8909 22.9669C26.3981 22.3713 24.7996 20.2352 24.7996 12.8883C24.7996 12.336 24.3519 11.8883 23.7996 11.8883C23.2473 11.8883 22.7996 12.336 22.7996 12.8883C22.7996 18.5106 23.7026 21.4275 24.5297 23H20.0001H12.0001H7.43219C7.69651 22.5085 7.97521 21.8754 8.2306 21.0528C8.77251 19.3073 9.20085 16.7381 9.20085 12.8883ZM17.7325 25H14.2676C14.6134 25.5978 15.2598 26 16.0001 26C16.7404 26 17.3867 25.5978 17.7325 25Z" fill="#3C3C3C"/>
</svg>
