<svg width="32" height="32" viewBox="0 0 32 32" fill="none" xmlns="http://www.w3.org/2000/svg">
<path fill-rule="evenodd" clip-rule="evenodd" d="M8 6C6.89543 6 6 6.89543 6 8V24C6 25.1046 6.89543 26 8 26L18.9955 26C19.5478 26 19.9955 25.5523 19.9955 25C19.9955 24.4477 19.5478 24 18.9955 24L8 24L8 8L18 8V12C18 13.1046 18.8954 14 20 14L24 14L24 19C24 19.5523 24.4477 20 25 20C25.5523 20 26 19.5523 26 19L26 12.8143C26 12.2839 25.7893 11.7752 25.4142 11.4001L24.8143 12L25.4142 11.4001L20.5998 6.58577L20 7.18556L20.5998 6.58577C20.2247 6.21071 19.716 6 19.1856 6H8ZM20 8.81441V12L23.1856 12L20 8.81441Z" fill="#3C3C3C"/>
<path d="M25 29C27.2091 29 29 27.2091 29 25C29 22.7909 27.2091 21 25 21C22.7909 21 21 22.7909 21 25C21 27.2091 22.7909 29 25 29Z" fill="#3B57FF"/>
</svg>
