<svg width="32" height="32" viewBox="0 0 32 32" fill="none" xmlns="http://www.w3.org/2000/svg">
<path d="M25 11C27.2091 11 29 9.20914 29 7C29 4.79086 27.2091 3 25 3C22.7909 3 21 4.79086 21 7C21 9.20914 22.7909 11 25 11Z" fill="#3B57FF"/>
<path fill-rule="evenodd" clip-rule="evenodd" d="M8 26C6.89543 26 6 25.1046 6 24V8C6 6.89543 6.89543 6 8 6H18.9994C19.5517 6 19.9994 6.44772 19.9994 7C19.9994 7.55228 19.5517 8 18.9994 8H8V24H16.2535V18.2494C16.2535 17.1448 17.149 16.2494 18.2535 16.2494H24V13C24 12.4477 24.4477 12 25 12C25.5523 12 26 12.4477 26 13V16.2494H26.0001V18.2494H25.9979C25.975 18.7463 25.7675 19.2181 25.4142 19.5714L19.5714 25.4142C19.2191 25.7665 18.7489 25.9738 18.2535 25.9977V26.0002H16.2535V26H8ZM18.2535 23.9037L23.9078 18.2494H18.2535V23.9037Z" fill="#3C3C3C"/>
</svg>
