<svg width="32" height="32" viewBox="0 0 32 32" fill="none" xmlns="http://www.w3.org/2000/svg">
<path fill-rule="evenodd" clip-rule="evenodd" d="M8 8V14L24 14V13.2003C24 12.648 24.4477 12.2003 25 12.2003C25.5522 12.2003 26 12.648 26 13.2003V24C26 25.1045 25.1045 26 24 26H8C6.89543 26 6 25.1045 6 24V8C6 6.89543 6.89543 6 8 6H18.7971C19.3494 6 19.7971 6.44772 19.7971 7C19.7971 7.55228 19.3494 8 18.7971 8L8 8ZM8 24V16L12 16L12 24H8ZM14 24H24V16L14 16V24Z" fill="#3C3C3C"/>
<path d="M25 11C27.2091 11 29 9.20914 29 7C29 4.79086 27.2091 3 25 3C22.7909 3 21 4.79086 21 7C21 9.20914 22.7909 11 25 11Z" fill="#3B57FF"/>
</svg>
