<svg width="32" height="32" viewBox="0 0 32 32" fill="none" xmlns="http://www.w3.org/2000/svg">
<path fill-rule="evenodd" clip-rule="evenodd" d="M13.002 8H8V24H24V18.9966C24 18.4444 24.4477 17.9966 25 17.9966C25.5523 17.9966 26 18.4444 26 18.9966V24.25C26 25.2165 25.2165 26 24.25 26H7.75C6.7835 26 6 25.2165 6 24.25V7.75C6 6.7835 6.7835 6 7.75 6H13.002C13.5542 6 14.002 6.44772 14.002 7C14.002 7.55229 13.5542 8 13.002 8ZM13.0429 17.5429C12.6524 17.9334 12.6524 18.5666 13.0429 18.9571C13.4334 19.3476 14.0666 19.3476 14.4571 18.9571L24 9.41421V13.75C24 14.3023 24.4477 14.75 25 14.75C25.5523 14.75 26 14.3023 26 13.75V7C26 6.44772 25.5523 6 25 6H18.25C17.6977 6 17.25 6.44772 17.25 7C17.25 7.55229 17.6977 8 18.25 8H22.5858L13.0429 17.5429Z" fill="#3C3C3C"/>
</svg>
