<svg width="32" height="32" viewBox="0 0 32 32" fill="none" xmlns="http://www.w3.org/2000/svg">
<path fill-rule="evenodd" clip-rule="evenodd" d="M15.9962 4C16.5485 4 16.9962 4.44772 16.9962 5V7C16.9962 7.55228 16.5485 8 15.9962 8C15.4439 8 14.9962 7.55228 14.9962 7V5C14.9962 4.44772 15.4439 4 15.9962 4ZM11.9521 16.0878C11.9521 13.8542 13.7629 12.0435 15.9965 12.0435C18.2302 12.0435 20.0409 13.8542 20.0409 16.0878C20.0409 17.4186 19.3992 18.5992 18.4042 19.3379C17.915 19.701 17.5184 20.3017 17.5184 21.0344V21.6611L14.474 21.6611V21.0339C14.474 20.3013 14.0775 19.7007 13.5885 19.3376C12.5936 18.5989 11.9521 17.4184 11.9521 16.0878ZM15.9965 10.0435C12.6583 10.0435 9.95215 12.7496 9.95215 16.0878C9.95215 18.0781 10.9151 19.8436 12.3962 20.9433C12.4336 20.9711 12.4559 20.9997 12.4667 21.0191C12.4716 21.028 12.4734 21.0335 12.474 21.0358V21.6611C12.474 22.7657 13.3695 23.6611 14.474 23.6611H17.5184C18.623 23.6611 19.5184 22.7657 19.5184 21.6611V21.0362C19.519 21.0339 19.5208 21.0285 19.5258 21.0195C19.5365 21.0002 19.5588 20.9716 19.5962 20.9438C21.0777 19.8441 22.0409 18.0783 22.0409 16.0878C22.0409 12.7496 19.3347 10.0435 15.9965 10.0435ZM13.474 26C12.9217 26 12.474 26.4477 12.474 27C12.474 27.5523 12.9217 28 13.474 28H18.5184C19.0707 28 19.5184 27.5523 19.5184 27C19.5184 26.4477 19.0707 26 18.5184 26H13.474ZM7 16.9924C7.55228 16.9924 8 16.5447 8 15.9924C8 15.4401 7.55228 14.9924 7 14.9924H5.00002C4.44774 14.9924 4.00002 15.4401 4.00002 15.9924C4.00002 16.5447 4.44774 16.9924 5.00002 16.9924H7ZM27.9899 15.9924C27.9899 16.5447 27.5422 16.9924 26.9899 16.9924H24.9899C24.4376 16.9924 23.9899 16.5447 23.9899 15.9924C23.9899 15.4401 24.4376 14.9924 24.9899 14.9924H26.9899C27.5422 14.9924 27.9899 15.4401 27.9899 15.9924ZM8.5063 7.96867C8.11577 7.57815 7.48261 7.57815 7.09209 7.96867C6.70156 8.3592 6.70156 8.99236 7.09209 9.38289L8.5063 10.7971C8.89682 11.1876 9.52999 11.1876 9.92051 10.7971C10.311 10.4066 10.311 9.77341 9.92051 9.38289L8.5063 7.96867Z" fill="#3C3C3C"/>
<path d="M25 11C27.2091 11 29 9.20914 29 7C29 4.79086 27.2091 3 25 3C22.7909 3 21 4.79086 21 7C21 9.20914 22.7909 11 25 11Z" fill="#3B57FF"/>
</svg>
