<svg width="32" height="32" viewBox="0 0 32 32" fill="none" xmlns="http://www.w3.org/2000/svg">
<path fill-rule="evenodd" clip-rule="evenodd" d="M11 4C11.5523 4 12 4.44772 12 5V6H20V5C20 4.44772 20.4477 4 21 4C21.5523 4 22 4.44772 22 5V6H24C25.1046 6 26 6.89543 26 8V24C26 25.1046 25.1046 26 24 26H8C6.89543 26 6 25.1046 6 24V8C6 6.89543 6.89543 6 8 6H10V5C10 4.44772 10.4477 4 11 4ZM20 8V9C20 9.55228 20.4477 10 21 10C21.5523 10 22 9.55228 22 9V8H24V24H8V8H10V9C10 9.55228 10.4477 10 11 10C11.5523 10 12 9.55228 12 9V8H20Z" fill="#3C3C3C"/>
<path d="M16.2964 12.2973C16.6867 11.9069 17.3196 11.9069 17.7099 12.2973L20.655 15.2424C20.7523 15.3268 20.8332 15.4297 20.8921 15.5456C21.0862 15.9219 21.0256 16.3957 20.7101 16.7112L17.7117 19.7096C17.3212 20.1002 16.688 20.1002 16.2975 19.7096C15.9069 19.3191 15.9069 18.686 16.2975 18.2954L17.5949 16.998H12C11.4477 16.998 11 16.5503 11 15.998C11 15.4457 11.4477 14.998 12 14.998H17.5835L16.2964 13.7109C15.906 13.3205 15.906 12.6876 16.2964 12.2973Z" fill="#3C3C3C"/>
</svg>
