<svg width="32" height="32" viewBox="0 0 32 32" fill="none" xmlns="http://www.w3.org/2000/svg">
<path fill-rule="evenodd" clip-rule="evenodd" d="M24 6H8V9H9C9.55228 9 10 9.44772 10 10C10 10.5523 9.55228 11 9 11H8V15H9C9.55228 15 10 15.4477 10 16C10 16.5523 9.55228 17 9 17H8V21H9C9.55228 21 10 21.4477 10 22C10 22.5523 9.55228 23 9 23H8V26L24 26V6ZM6 23V26C6 27.1046 6.89543 28 8 28H24C25.1046 28 26 27.1046 26 26V6C26 4.89543 25.1046 4 24 4H8C6.89543 4 6 4.89543 6 6V9H5C4.44772 9 4 9.44772 4 10C4 10.5523 4.44772 11 5 11H6V15H5C4.44772 15 4 15.4477 4 16C4 16.5523 4.44772 17 5 17H6V21H5C4.44772 21 4 21.4477 4 22C4 22.5523 4.44772 23 5 23H6ZM13 11C12.4477 11 12 11.4477 12 12C12 12.5523 12.4477 13 13 13H19C19.5523 13 20 12.5523 20 12C20 11.4477 19.5523 11 19 11H13Z" fill="#3C3C3C"/>
</svg>
