<svg width="32" height="32" viewBox="0 0 32 32" fill="none" xmlns="http://www.w3.org/2000/svg">
<path fill-rule="evenodd" clip-rule="evenodd" d="M8 24H24L24 14L20.0001 14C18.8955 14 18.0001 13.1046 18.0001 12V8L8 8L8 24ZM20.0001 8.82846L23.1716 12L20.0001 12V8.82846ZM24 26H8C6.89543 26 6 25.1046 6 24V8C6 6.89543 6.89543 6 8 6H19.1717C19.7021 6 20.2108 6.21072 20.5859 6.5858L25.4142 11.4142C25.7893 11.7893 26 12.298 26 12.8284L26 24C26 25.1046 25.1046 26 24 26ZM10.75 20C10.1977 20 9.75 20.4477 9.75 21C9.75 21.5523 10.1977 22 10.75 22H21.25C21.8023 22 22.25 21.5523 22.25 21C22.25 20.4477 21.8023 20 21.25 20H10.75ZM9.75 17C9.75 16.4477 10.1977 16 10.75 16H21.25C21.8023 16 22.25 16.4477 22.25 17C22.25 17.5523 21.8023 18 21.25 18H10.75C10.1977 18 9.75 17.5523 9.75 17ZM10.75 12C10.1977 12 9.75 12.4477 9.75 13C9.75 13.5523 10.1977 14 10.75 14H15C15.5523 14 16 13.5523 16 13C16 12.4477 15.5523 12 15 12H10.75Z" fill="#3C3C3C"/>
</svg>
