<svg width="32" height="32" viewBox="0 0 32 32" fill="none" xmlns="http://www.w3.org/2000/svg">
<path fill-rule="evenodd" clip-rule="evenodd" d="M9.20085 12.8883C9.20085 9.07329 12.2557 6 16.0002 6C19.7448 6 22.7996 9.07329 22.7996 12.8883C22.7996 18.5106 23.7026 21.4275 24.5297 23H20.0001H12.0001H7.43219C7.69651 22.5085 7.97521 21.8754 8.2306 21.0528C8.77251 19.3073 9.20085 16.7381 9.20085 12.8883ZM12.1261 25H6.08312C5.74374 25 5.22871 24.8754 4.93775 24.3827C4.61365 23.8338 4.81921 23.277 5.06654 22.9649C5.34338 22.6156 5.86132 21.9389 6.32053 20.4598C6.78724 18.9565 7.20085 16.5974 7.20085 12.8883C7.20085 7.99016 11.1298 4 16.0002 4C20.8707 4 24.7996 7.99016 24.7996 12.8883C24.7996 20.2352 26.3981 22.3713 26.891 22.9669C27.1005 23.2201 27.3835 23.7636 27.0714 24.3511C26.7803 24.8992 26.2182 25 25.9169 25H19.8741C19.43 26.7252 17.8639 28 16.0001 28C14.1362 28 12.5701 26.7252 12.1261 25ZM14.2676 25C14.6134 25.5978 15.2598 26 16.0001 26C16.7404 26 17.3867 25.5978 17.7325 25H14.2676Z" fill="#3C3C3C"/>
</svg>
