<svg width="32" height="32" viewBox="0 0 32 32" fill="none" xmlns="http://www.w3.org/2000/svg">
<path fill-rule="evenodd" clip-rule="evenodd" d="M10.3267 3.7561C10.879 3.7561 11.3267 4.20382 11.3267 4.7561V6.00001H20.6361V4.75625C20.6361 4.20396 21.0838 3.75625 21.6361 3.75625C22.1884 3.75625 22.6361 4.20396 22.6361 4.75625V6.00001H26C27.1046 6.00001 28 6.89544 28 8.00001V24C28 25.1046 27.1046 26 26 26H6.00002C4.89545 26 4.00002 25.1046 4.00002 24V8.00001C4.00002 6.89544 4.89545 6.00001 6.00002 6.00001H9.32668V4.7561C9.32668 4.20382 9.77439 3.7561 10.3267 3.7561ZM20.6361 8.00001V8.75625C20.6361 9.30853 21.0838 9.75625 21.6361 9.75625C22.1884 9.75625 22.6361 9.30853 22.6361 8.75625V8.00001H26V24L6.00002 24L6.00002 8.00001H9.32668V8.7561C9.32668 9.30839 9.77439 9.7561 10.3267 9.7561C10.879 9.7561 11.3267 9.30839 11.3267 8.7561V8.00001H20.6361ZM12.5056 11.8591C12.8118 12.0386 13 12.3669 13 12.7218V21C13 21.5523 12.5523 22 12 22C11.4477 22 11 21.5523 11 21V14.4279L9.53208 15.25C9.0502 15.5198 8.44081 15.3479 8.17097 14.866C7.90112 14.3842 8.073 13.7748 8.55487 13.5049L11.5114 11.8493C11.821 11.6759 12.1994 11.6796 12.5056 11.8591ZM23 12.7218C23 12.3669 22.8119 12.0386 22.5057 11.8591C22.1995 11.6796 21.8211 11.6759 21.5114 11.8493L18.5549 13.5049C18.0731 13.7748 17.9012 14.3842 18.171 14.866C18.4409 15.3479 19.0503 15.5198 19.5321 15.25L21 14.4279V21C21 21.5523 21.4477 22 22 22C22.5523 22 23 21.5523 23 21V12.7218ZM17.1824 14.6926C17.1824 15.3458 16.653 15.8752 15.9998 15.8752C15.3467 15.8752 14.8172 15.3458 14.8172 14.6926C14.8172 14.0395 15.3467 13.51 15.9998 13.51C16.653 13.51 17.1824 14.0395 17.1824 14.6926ZM15.9999 20.6056C16.653 20.6056 17.1825 20.0761 17.1825 19.423C17.1825 18.7698 16.653 18.2404 15.9999 18.2404C15.3468 18.2404 14.8173 18.7698 14.8173 19.423C14.8173 20.0761 15.3468 20.6056 15.9999 20.6056Z" fill="#3C3C3C"/>
</svg>
