<svg width="32" height="32" viewBox="0 0 32 32" fill="none" xmlns="http://www.w3.org/2000/svg">
<path fill-rule="evenodd" clip-rule="evenodd" d="M26 16C26 21.5228 21.5228 26 16 26C10.4772 26 6 21.5228 6 16C6 10.4772 10.4772 6 16 6C21.5228 6 26 10.4772 26 16ZM28 16C28 22.6274 22.6274 28 16 28C9.37258 28 4 22.6274 4 16C4 9.37258 9.37258 4 16 4C22.6274 4 28 9.37258 28 16ZM11.25 14.5C11.9404 14.5 12.5 13.9404 12.5 13.25C12.5 12.5596 11.9404 12 11.25 12C10.5596 12 10 12.5596 10 13.25C10 13.9404 10.5596 14.5 11.25 14.5ZM22 13.25C22 13.9404 21.4404 14.5 20.75 14.5C20.0596 14.5 19.5 13.9404 19.5 13.25C19.5 12.5596 20.0596 12 20.75 12C21.4404 12 22 12.5596 22 13.25ZM9 16C8.70626 16 8.42738 16.1291 8.23738 16.3532C8.04738 16.5772 7.96547 16.8734 8.0134 17.1632C8.65344 21.0329 11.9753 24 16 24C20.0247 24 23.3466 21.0329 23.9866 17.1632C24.0345 16.8734 23.9526 16.5772 23.7626 16.3532C23.5726 16.1291 23.2937 16 23 16H9ZM16 22C13.4023 22 11.1713 20.3443 10.2965 18H21.7035C20.8287 20.3443 18.5977 22 16 22Z" fill="#3C3C3C"/>
</svg>
