<svg width="32" height="32" viewBox="0 0 32 32" fill="none" xmlns="http://www.w3.org/2000/svg">
<path fill-rule="evenodd" clip-rule="evenodd" d="M15.6044 4.63821C14.5903 3.6997 12.9527 4.04779 12.4079 5.31764L9.06904 13.1013L6.64145 13.6173C6.10123 13.7321 5.75638 14.2631 5.87121 14.8033L7.95033 24.5848C8.06515 25.125 8.59617 25.4699 9.13639 25.355L26.743 21.6126C27.2833 21.4978 27.6281 20.9668 27.5133 20.4266L25.4342 10.6451C25.3193 10.1049 24.7883 9.76003 24.2481 9.87485L21.8205 10.3909L15.6044 4.63821ZM19.4259 10.8998L14.246 6.10609L11.4636 12.5923L19.4259 10.8998ZM9.69871 23.1908L8.03542 15.3656L23.6858 12.0391L25.3491 19.8642L9.69871 23.1908Z" fill="#3C3C3C"/>
</svg>
