<svg width="32" height="32" viewBox="0 0 32 32" fill="none" xmlns="http://www.w3.org/2000/svg">
<path fill-rule="evenodd" clip-rule="evenodd" d="M9.49817 8C9.49817 7.44772 9.94588 7 10.4982 7L27 7C27.5522 7 28 7.44772 28 8C28 8.55228 27.5522 9 27 9L10.4982 9C9.94588 9 9.49817 8.55228 9.49817 8Z" fill="#3C3C3C"/>
<path fill-rule="evenodd" clip-rule="evenodd" d="M9.49817 16C9.49817 15.4477 9.94588 15 10.4982 15L27 15C27.5522 15 28 15.4477 28 16C28 16.5523 27.5522 17 27 17L10.4982 17C9.94588 17 9.49817 16.5523 9.49817 16Z" fill="#3C3C3C"/>
<path fill-rule="evenodd" clip-rule="evenodd" d="M9.49817 24C9.49817 23.4477 9.94588 23 10.4982 23L27 23C27.5522 23 28 23.4477 28 24C28 24.5523 27.5522 25 27 25L10.4982 25C9.94588 25 9.49817 24.5523 9.49817 24Z" fill="#3C3C3C"/>
<path fill-rule="evenodd" clip-rule="evenodd" d="M4 21.5548C4 21.1406 4.33579 20.8048 4.75 20.8048H7.71601C8.02036 20.8048 8.29453 20.9887 8.40997 21.2703C8.52541 21.5519 8.45922 21.8753 8.24245 22.089L6.8122 23.4985C6.51718 23.7892 6.04232 23.7857 5.75157 23.4907C5.46083 23.1957 5.4643 22.7208 5.75933 22.4301L5.88646 22.3048H4.75C4.33579 22.3048 4 21.969 4 21.5548Z" fill="#3C3C3C"/>
<path fill-rule="evenodd" clip-rule="evenodd" d="M5.5434 22.9642C5.5434 22.55 5.87918 22.2142 6.2934 22.2142C7.50168 22.2142 8.49998 23.1824 8.49998 24.3996C8.49998 25.6169 7.50168 26.5851 6.2934 26.5851C5.29213 26.5851 4.43941 25.9229 4.17267 25.0047C4.05712 24.6069 4.28591 24.1908 4.68368 24.0752C5.08145 23.9597 5.49758 24.1885 5.61312 24.5863C5.69512 24.8685 5.9644 25.0851 6.2934 25.0851C6.69401 25.0851 6.99998 24.7679 6.99998 24.3996C6.99998 24.0314 6.69401 23.7142 6.2934 23.7142C5.87918 23.7142 5.5434 23.3784 5.5434 22.9642Z" fill="#3C3C3C"/>
<path fill-rule="evenodd" clip-rule="evenodd" d="M5.99998 5.33325C6.36817 5.33325 6.66665 5.63173 6.66665 5.99992V9.99992C6.66665 10.3681 6.36817 10.6666 5.99998 10.6666C5.63179 10.6666 5.33331 10.3681 5.33331 9.99992V5.99992C5.33331 5.63173 5.63179 5.33325 5.99998 5.33325Z" fill="#3C3C3C"/>
<path fill-rule="evenodd" clip-rule="evenodd" d="M5.47448 14.8895C5.37361 15.0296 5.33346 15.2177 5.33346 15.3333C5.33346 15.7014 5.03498 15.9999 4.66679 15.9999C4.2986 15.9999 4.00013 15.7014 4.00013 15.3333C4.00013 15.0043 4.09331 14.5258 4.39244 14.1104C4.71603 13.6609 5.24951 13.3333 6.00013 13.3333C6.75074 13.3333 7.28422 13.6609 7.60782 14.1104C7.90694 14.5258 8.00013 15.0043 8.00013 15.3333C8.00013 15.8853 7.72893 16.3644 7.43737 16.7289C7.26339 16.9464 7.06125 17.1491 6.85246 17.3333H7.33346C7.70165 17.3333 8.00013 17.6317 8.00013 17.9999C8.00013 18.3681 7.70165 18.6666 7.33346 18.6666H4.66679C4.35761 18.6666 4.089 18.454 4.01796 18.1531C3.94694 17.8522 4.09204 17.5421 4.36845 17.4037C4.36852 17.4037 4.36858 17.4037 4.36865 17.4036L4.36869 17.4036L4.37247 17.4017L4.39073 17.3923C4.4075 17.3837 4.4332 17.3702 4.46656 17.3524C4.53336 17.3166 4.63041 17.2632 4.74755 17.1949C4.98321 17.0574 5.29348 16.8632 5.60013 16.6333C5.91063 16.4004 6.19519 16.1472 6.39621 15.896C6.60465 15.6354 6.66679 15.4479 6.66679 15.3333C6.66679 15.2177 6.62665 15.0296 6.52577 14.8895C6.44937 14.7833 6.31618 14.6666 6.00013 14.6666C5.68407 14.6666 5.55088 14.7833 5.47448 14.8895ZM4.36845 17.4037C4.36855 17.4037 4.37032 17.407 4.66679 17.9999L4.36845 17.4037Z" fill="#3C3C3C"/>
</svg>
