<svg width="32" height="32" viewBox="0 0 32 32" fill="none" xmlns="http://www.w3.org/2000/svg">
<path fill-rule="evenodd" clip-rule="evenodd" d="M6 8H18V10V24H6V8ZM18 26H6C4.89543 26 4 25.1046 4 24V8C4 6.89543 4.89543 6 6 6H18C19.1046 6 20 6.89543 20 8V10H26C27.1046 10 28 10.8954 28 12V24C28 25.1046 27.1046 26 26 26H20H18ZM20 24H26V12H20V24ZM9 11.5C9 11.2239 9.22386 11 9.5 11H10.5C10.7761 11 11 11.2239 11 11.5V12.5C11 12.7761 10.7761 13 10.5 13H9.5C9.22386 13 9 12.7761 9 12.5V11.5ZM9.5 19C9.22386 19 9 19.2239 9 19.5V20.5C9 20.7761 9.22386 21 9.5 21H10.5C10.7761 21 11 20.7761 11 20.5V19.5C11 19.2239 10.7761 19 10.5 19H9.5ZM9 15.5C9 15.2239 9.22386 15 9.5 15H10.5C10.7761 15 11 15.2239 11 15.5V16.5C11 16.7761 10.7761 17 10.5 17H9.5C9.22386 17 9 16.7761 9 16.5V15.5ZM13.5 11C13.2239 11 13 11.2239 13 11.5V12.5C13 12.7761 13.2239 13 13.5 13H14.5C14.7761 13 15 12.7761 15 12.5V11.5C15 11.2239 14.7761 11 14.5 11H13.5ZM13 19.5C13 19.2239 13.2239 19 13.5 19H14.5C14.7761 19 15 19.2239 15 19.5V20.5C15 20.7761 14.7761 21 14.5 21H13.5C13.2239 21 13 20.7761 13 20.5V19.5ZM22.5 19C22.2239 19 22 19.2239 22 19.5V20.5C22 20.7761 22.2239 21 22.5 21H23.5C23.7761 21 24 20.7761 24 20.5V19.5C24 19.2239 23.7761 19 23.5 19H22.5ZM22 15.5C22 15.2239 22.2239 15 22.5 15H23.5C23.7761 15 24 15.2239 24 15.5V16.5C24 16.7761 23.7761 17 23.5 17H22.5C22.2239 17 22 16.7761 22 16.5V15.5ZM13.5 15C13.2239 15 13 15.2239 13 15.5V16.5C13 16.7761 13.2239 17 13.5 17H14.5C14.7761 17 15 16.7761 15 16.5V15.5C15 15.2239 14.7761 15 14.5 15H13.5Z" fill="#3C3C3C"/>
</svg>
