<svg width="32" height="32" viewBox="0 0 32 32" fill="none" xmlns="http://www.w3.org/2000/svg">
<path fill-rule="evenodd" clip-rule="evenodd" d="M7 18C7 16.8954 7.89543 16 9 16H23C24.1046 16 25 16.8954 25 18V21H23V18H9V21H7V18Z" fill="#3C3C3C"/>
<path fill-rule="evenodd" clip-rule="evenodd" d="M14.5 22V24H17.5V22H14.5ZM13.5 20C12.9477 20 12.5 20.4477 12.5 21V25C12.5 25.5523 12.9477 26 13.5 26H18.5C19.0523 26 19.5 25.5523 19.5 25V21C19.5 20.4477 19.0523 20 18.5 20H13.5Z" fill="#3C3C3C"/>
<path fill-rule="evenodd" clip-rule="evenodd" d="M6 22V24H9V22H6ZM5 20C4.44772 20 4 20.4477 4 21V25C4 25.5523 4.44772 26 5 26H10C10.5523 26 11 25.5523 11 25V21C11 20.4477 10.5523 20 10 20H5Z" fill="#3C3C3C"/>
<path fill-rule="evenodd" clip-rule="evenodd" d="M23 22V24H26V22H23ZM22 20C21.4477 20 21 20.4477 21 21V25C21 25.5523 21.4477 26 22 26H27C27.5523 26 28 25.5523 28 25V21C28 20.4477 27.5523 20 27 20H22Z" fill="#3C3C3C"/>
<path fill-rule="evenodd" clip-rule="evenodd" d="M10 8V12H22V8H10ZM9 6C8.44772 6 8 6.44772 8 7V13C8 13.5523 8.44772 14 9 14H23C23.5523 14 24 13.5523 24 13V7C24 6.44772 23.5523 6 23 6H9Z" fill="#3C3C3C"/>
<path fill-rule="evenodd" clip-rule="evenodd" d="M17 13V22H15V13H17Z" fill="#3C3C3C"/>
</svg>
