<svg width="32" height="32" viewBox="0 0 32 32" fill="none" xmlns="http://www.w3.org/2000/svg">
<path fill-rule="evenodd" clip-rule="evenodd" d="M8 24H24L24 14L20.0001 14C18.8955 14 18.0001 13.1046 18.0001 12V8L8 8L8 24ZM20.0001 8.82846L23.1716 12L20.0001 12V8.82846ZM24 26H8C6.89543 26 6 25.1046 6 24V8C6 6.89543 6.89543 6 8 6H19.1717C19.7021 6 20.2108 6.21072 20.5859 6.5858L25.4142 11.4142C25.7893 11.7893 26 12.298 26 12.8284L26 24C26 25.1046 25.1046 26 24 26ZM10.0386 21.9999H11.0261V20.4856H11.8562C12.9304 20.4856 13.5553 19.8448 13.5553 18.912C13.5553 17.9838 12.9418 17.3292 11.8813 17.3292H10.0386V21.9999ZM11.0261 19.6942V18.1366H11.692C12.2622 18.1366 12.5381 18.4467 12.5381 18.912C12.5381 19.3749 12.2622 19.6942 11.6966 19.6942H11.0261ZM15.8525 21.9999C17.2756 21.9999 18.1376 21.1196 18.1376 19.66C18.1376 18.205 17.2756 17.3292 15.8661 17.3292H14.1967V21.9999H15.8525ZM15.1842 21.1538V18.1753H15.8137C16.6894 18.1753 17.1524 18.6223 17.1524 19.66C17.1524 20.7023 16.6894 21.1538 15.8114 21.1538H15.1842ZM19.8567 21.9999H18.8692V17.3292H21.9617V18.1434H19.8567V19.2564H21.7564V20.0705H19.8567V21.9999Z" fill="#3C3C3C"/>
</svg>
