<svg width="32" height="32" viewBox="0 0 32 32" fill="none" xmlns="http://www.w3.org/2000/svg">
<path fill-rule="evenodd" clip-rule="evenodd" d="M16 4C15.6632 4 15.3297 4.01387 15 4.04107C8.84047 4.54922 4 9.70934 4 16C4 18.9537 5.06716 21.6582 6.83695 23.7488C7.05265 24.0037 7.2788 24.2494 7.51472 24.4853C7.75064 24.7212 7.99634 24.9473 8.25116 25.1631C10.1035 26.7311 12.4376 27.7475 15 27.9589C15.3297 27.9861 15.6632 28 16 28C16.3368 28 16.6703 27.9861 17 27.9589C19.5624 27.7475 21.8965 26.7311 23.7488 25.1631C24.0037 24.9473 24.2494 24.7212 24.4853 24.4853C24.7212 24.2494 24.9473 24.0037 25.1631 23.7488C26.9328 21.6582 28 18.9537 28 16C28 9.70934 23.1595 4.54922 17 4.04107C16.6703 4.01387 16.3368 4 16 4ZM15 6.04938C9.94668 6.5511 6 10.8147 6 16C6 18.4021 6.84494 20.6039 8.25698 22.3288L15 15.5858V6.04938ZM15 18.4142L9.67119 23.743C11.1537 24.9566 12.9885 25.7513 15 25.9507V18.4142ZM17 25.9507C19.0115 25.7513 20.8463 24.9566 22.3288 23.743L17 18.4142V25.9507ZM17 15.5858V6.04938C22.0533 6.5511 26 10.8147 26 16C26 18.4021 25.1551 20.6039 23.743 22.3288L17 15.5858Z" fill="#3C3C3C"/>
</svg>
