<svg width="32" height="32" viewBox="0 0 32 32" fill="none" xmlns="http://www.w3.org/2000/svg">
<path d="M22.8702 7.91354C23.037 7.6715 22.9601 7.33848 22.704 7.19419L21.6897 6.62278C21.4647 6.496 21.1801 6.56148 21.0331 6.77386L9.05524 24.0809C8.88639 24.3249 8.96591 24.6614 9.22611 24.8039L10.285 25.3842C10.5099 25.5074 10.7915 25.4405 10.937 25.2294L22.8702 7.91354ZM10.7341 15.9203C13.7128 15.9203 15.4681 13.7926 15.4681 11.399C15.4681 9.0054 13.7128 6.87775 10.7341 6.87775C7.75537 6.87775 6.00006 9.0054 6.00006 11.399C6.00006 13.7926 7.75537 15.9203 10.7341 15.9203ZM10.7341 13.6862C9.29792 13.6862 8.52664 12.6756 8.52664 11.399C8.52664 10.1224 9.29792 9.11178 10.7341 9.11178C12.1702 9.11178 12.9415 10.1224 12.9415 11.399C12.9415 12.6756 12.1702 13.6862 10.7341 13.6862ZM21.2659 25.2553C24.2447 25.2553 26 23.1277 26 20.7341C26 18.3405 24.2447 16.2128 21.2659 16.2128C18.2872 16.2128 16.5319 18.3405 16.5319 20.7341C16.5319 23.1277 18.2872 25.2553 21.2659 25.2553ZM21.2659 23.0213C19.8298 23.0213 19.0585 22.0107 19.0585 20.7341C19.0585 19.4575 19.8298 18.4468 21.2659 18.4468C22.7021 18.4468 23.4734 19.4575 23.4734 20.7341C23.4734 22.0107 22.7021 23.0213 21.2659 23.0213Z" fill="#3C3C3C"/>
</svg>
