<svg width="32" height="32" viewBox="0 0 32 32" fill="none" xmlns="http://www.w3.org/2000/svg">
<path fill-rule="evenodd" clip-rule="evenodd" d="M11.217 12.8949L14.0034 10.7179L10.7052 6.49641L8.26543 8.40259C8.0611 8.56222 7.94678 8.79153 7.92951 9.03624L7.92038 9.16571L7.89258 9.29231C7.25568 12.192 8.21119 16.2359 11.0278 19.841C13.8444 23.4461 17.537 25.3515 20.5047 25.4351L20.6342 25.4387L20.7621 25.4612C21.0037 25.5036 21.2538 25.4482 21.4582 25.2885L23.898 23.3824L20.5998 19.1609L17.8593 21.302L16.7888 20.5838C15.7919 19.9149 14.8386 18.9711 13.8161 17.6625C12.8201 16.3877 12.1329 15.2455 11.6976 14.1283L11.217 12.8949ZM13.3507 13.4939L15.7999 11.5804C16.1849 11.2796 16.2509 10.7208 15.9473 10.3322L11.5497 4.70358C11.2461 4.315 10.6879 4.24384 10.3029 4.54462L7.16603 6.99542C6.55288 7.47447 6.20945 8.17169 6.15844 8.89485C5.38117 12.4337 6.57177 17.0112 9.63364 20.9302C12.6955 24.8492 16.849 27.1119 20.4708 27.2138C21.1848 27.3393 21.9444 27.1747 22.5576 26.6957L25.6945 24.2449C26.0794 23.9441 26.1454 23.3853 25.8418 22.9967L21.4443 17.368C21.1407 16.9795 20.5825 16.9083 20.1975 17.2091L17.7673 19.1078C16.9804 18.5799 16.1615 17.7908 15.2103 16.5732C14.2853 15.3893 13.7037 14.3999 13.3507 13.4939Z" fill="#3C3C3C"/>
</svg>
