<svg width="32" height="32" viewBox="0 0 32 32" fill="none" xmlns="http://www.w3.org/2000/svg">
<path fill-rule="evenodd" clip-rule="evenodd" d="M13.9437 13.6975L19.4218 8.21941L23.7932 12.5908L18.3146 18.0694C18.0923 18.2917 17.9874 18.6057 18.0317 18.9171C18.236 20.356 17.902 21.8535 17.0323 23.0872L12.999 19.0539C12.9955 19.0503 12.9919 19.0466 12.9883 19.043C12.9847 19.0394 12.9811 19.0359 12.9774 19.0323L8.9247 14.9796C10.1587 14.1097 11.6566 13.7757 13.0958 13.9804C13.4072 14.0247 13.7213 13.9199 13.9437 13.6975ZM10.8669 19.7502L7.0965 15.9798C6.52464 15.408 6.47851 14.4133 7.16227 13.822C8.78778 12.4162 10.8535 11.7915 12.868 11.9448L18.3611 6.45164C18.9469 5.86585 19.8966 5.86585 20.4824 6.45164L25.5609 11.5302C26.1467 12.1159 26.1467 13.0657 25.5609 13.6515L20.0672 19.1452C20.2201 21.1593 19.5955 23.2245 18.1899 24.8496C17.5986 25.5334 16.604 25.4873 16.0321 24.9154L12.2811 21.1644L8.01274 25.4328C7.62222 25.8233 6.98905 25.8233 6.59853 25.4328C6.208 25.0423 6.208 24.4091 6.59853 24.0186L10.8669 19.7502Z" fill="#3C3C3C"/>
</svg>
