<svg width="32" height="32" viewBox="0 0 32 32" fill="none" xmlns="http://www.w3.org/2000/svg">
<path fill-rule="evenodd" clip-rule="evenodd" d="M18.361 6.45158C18.9468 5.86579 19.8965 5.86579 20.4823 6.45158L25.5608 11.5301C26.1466 12.1159 26.1466 13.0656 25.5608 13.6514L20.0671 19.1451C20.22 21.1592 19.5953 23.2244 18.1898 24.8496C17.5985 25.5333 16.6038 25.4872 16.032 24.9154L12.2811 21.1645L8.01274 25.4328C7.62222 25.8233 6.98905 25.8233 6.59853 25.4328C6.208 25.0423 6.208 24.4091 6.59853 24.0186L10.8669 19.7503L7.09638 15.9798C6.52452 15.4079 6.47839 14.4132 7.16215 13.8219C8.78766 12.4161 10.8534 11.7915 12.8678 11.9447L18.361 6.45158Z" fill="#3C3C3C"/>
</svg>
