<svg width="32" height="32" viewBox="0 0 32 32" fill="none" xmlns="http://www.w3.org/2000/svg">
<path fill-rule="evenodd" clip-rule="evenodd" d="M9 11V6C9 5.44772 9.44772 5 10 5H22C22.5523 5 23 5.44772 23 6V11H23.2C24.9329 11 26 12.6498 26 14.2222V19.7778C26 21.3502 24.9329 23 23.2 23H23V26C23 26.5523 22.5523 27 22 27H10C9.44772 27 9 26.5523 9 26V23H8.8C7.06705 23 6 21.3502 6 19.7778V14.2222C6 12.6498 7.06705 11 8.8 11H9ZM11 11V7H21V11H11ZM8.8 13C8.54472 13 8 13.34 8 14.2222V19.7778C8 20.66 8.54472 21 8.8 21H9V18C9 17.4477 9.44772 17 10 17H22C22.5523 17 23 17.4477 23 18V21H23.2C23.4553 21 24 20.66 24 19.7778V14.2222C24 13.34 23.4553 13 23.2 13H8.8ZM11 19V25H21V19H11Z" fill="#3C3C3C"/>
</svg>
