<svg width="32" height="32" viewBox="0 0 32 32" fill="none" xmlns="http://www.w3.org/2000/svg">
<path fill-rule="evenodd" clip-rule="evenodd" d="M4 16C4 9.37258 9.37258 4 16 4C22.6274 4 28 9.37258 28 16C28 22.6274 22.6274 28 16 28C9.37258 28 4 22.6274 4 16ZM16 6C10.4772 6 6 10.4772 6 16C6 18.7161 7.08288 21.1794 8.84046 22.9815C9.36712 21.7926 10.127 20.7364 11.0793 19.9013C11.5896 19.4539 12.1447 19.0792 12.7317 18.784C11.6711 17.8672 11 16.512 11 15C11 12.2386 13.2386 10 16 10C18.7614 10 21 12.2386 21 15C21 16.512 20.3289 17.8672 19.2683 18.7841C19.8553 19.0792 20.4104 19.4539 20.9206 19.9013C21.873 20.7365 22.6328 21.7926 23.1595 22.9815C24.9171 21.1794 26 18.7162 26 16C26 10.4772 21.5228 6 16 6ZM21.5432 24.3243C21.1302 23.1621 20.4572 22.155 19.602 21.405C18.5509 20.4833 17.2841 20 16 20C14.7158 20 13.4491 20.4833 12.398 21.405C11.5428 22.155 10.8698 23.1621 10.4568 24.3243C12.0433 25.3829 13.9496 26 16 26C18.0504 26 19.9566 25.3829 21.5432 24.3243ZM16 12C14.3431 12 13 13.3431 13 15C13 16.6569 14.3431 18 16 18C17.6569 18 19 16.6569 19 15C19 13.3431 17.6569 12 16 12Z" fill="#3C3C3C"/>
</svg>
