<svg width="32" height="32" viewBox="0 0 32 32" fill="none" xmlns="http://www.w3.org/2000/svg">
<path fill-rule="evenodd" clip-rule="evenodd" d="M16 4C15.4477 4 15 4.44772 15 5C15 5.55228 15.4477 6 16 6C21.5228 6 26 10.4772 26 16C26 21.5228 21.5228 26 16 26C15.4477 26 15 26.4477 15 27C15 27.5523 15.4477 28 16 28C22.6274 28 28 22.6274 28 16C28 9.37258 22.6274 4 16 4ZM12.6666 6.56876C13.1873 6.38471 13.4602 5.81339 13.2762 5.29267C13.0921 4.77196 12.5208 4.49903 12.0001 4.68308C10.0528 5.37136 8.33763 6.54702 7.00026 8.06225C6.6348 8.47632 6.6742 9.10826 7.08827 9.47372C7.50234 9.83919 8.13427 9.79979 8.49974 9.38572C9.61605 8.12094 11.0462 7.14148 12.6666 6.56876ZM6.56876 12.6666C6.75281 12.1459 6.47988 11.5745 5.95917 11.3905C5.43845 11.2064 4.86713 11.4794 4.68308 12.0001C4.24042 13.2525 4 14.5992 4 16C4 17.4008 4.24042 18.7475 4.68308 19.9999C4.86713 20.5206 5.43845 20.7936 5.95917 20.6095C6.47988 20.4255 6.75281 19.8541 6.56876 19.3334C6.20071 18.2921 6 17.1706 6 16C6 14.8294 6.20071 13.7079 6.56876 12.6666ZM8.49974 22.6143C8.13427 22.2002 7.50234 22.1608 7.08827 22.5263C6.6742 22.8917 6.6348 23.5237 7.00026 23.9378C8.33763 25.453 10.0528 26.6286 12.0001 27.3169C12.5208 27.501 13.0921 27.228 13.2762 26.7073C13.4602 26.1866 13.1873 25.6153 12.6666 25.4312C11.0462 24.8585 9.61605 23.8791 8.49974 22.6143ZM22.2166 13.1975C22.6018 12.8017 22.5933 12.1686 22.1975 11.7834C21.8017 11.3982 21.1686 11.4068 20.7834 11.8025L13.7326 19.0467L11.2346 16.3421C10.8599 15.9364 10.2272 15.9113 9.82151 16.286C9.4158 16.6607 9.39068 17.2934 9.7654 17.6991L12.2634 20.4037C13.0412 21.2458 14.3663 21.2632 15.1658 20.4417L22.2166 13.1975Z" fill="#3C3C3C"/>
</svg>
