<svg width="32" height="32" viewBox="0 0 32 32" fill="none" xmlns="http://www.w3.org/2000/svg">
<path fill-rule="evenodd" clip-rule="evenodd" d="M15.3819 7.6717C15.7296 7.83774 15.951 8.18877 15.951 8.57407V23.4256C15.951 23.8109 15.7296 24.1619 15.3819 24.3279C15.0343 24.494 14.6221 24.4455 14.3224 24.2033L9.34688 20.1823H5.5C4.94772 20.1823 4.5 19.7346 4.5 19.1823V12.8174C4.5 12.2651 4.94772 11.8174 5.5 11.8174H9.34687L14.3224 7.79631C14.6221 7.55412 15.0343 7.50565 15.3819 7.6717ZM13.951 10.668L10.329 13.5951C10.1511 13.7389 9.92921 13.8174 9.70044 13.8174H6.5V18.1823H9.70044C9.92921 18.1823 10.1511 18.2607 10.329 18.4045L13.951 21.3317V10.668Z" fill="#3C3C3C"/>
<path fill-rule="evenodd" clip-rule="evenodd" d="M22.722 7.78921C23.1146 7.40073 23.7477 7.40404 24.1362 7.7966C26.2912 9.97422 27.5 12.9252 27.5 16C27.5 19.0748 26.2912 22.0258 24.1362 24.2034C23.7477 24.596 23.1146 24.5993 22.722 24.2108C22.3295 23.8223 22.3262 23.1892 22.7146 22.7966C24.497 20.9956 25.5 18.551 25.5 16C25.5 13.449 24.497 11.0044 22.7146 9.2034C22.3262 8.81084 22.3295 8.17769 22.722 7.78921ZM19.0151 11.5339C19.4077 11.1454 20.0408 11.1487 20.4293 11.5413C21.6 12.7242 22.2558 14.3263 22.2558 15.9947C22.2558 17.6631 21.6 19.2651 20.4293 20.4481C20.0408 20.8407 19.4077 20.844 19.0151 20.4555C18.6226 20.067 18.6193 19.4339 19.0077 19.0413C19.8057 18.2349 20.2558 17.1392 20.2558 15.9947C20.2558 14.8501 19.8057 13.7545 19.0077 12.9481C18.6193 12.5555 18.6226 11.9224 19.0151 11.5339Z" fill="#3C3C3C"/>
</svg>
