<svg width="32" height="32" viewBox="0 0 32 32" fill="none" xmlns="http://www.w3.org/2000/svg">
<path fill-rule="evenodd" clip-rule="evenodd" d="M16 26C21.5228 26 26 21.5228 26 16C26 10.4772 21.5228 6 16 6C10.4772 6 6 10.4772 6 16C6 21.5228 10.4772 26 16 26ZM16 28C22.6274 28 28 22.6274 28 16C28 9.37258 22.6274 4 16 4C9.37258 4 4 9.37258 4 16C4 22.6274 9.37258 28 16 28ZM17.25 21.75C17.25 22.4404 16.6904 23 16 23C15.3096 23 14.75 22.4404 14.75 21.75C14.75 21.0596 15.3096 20.5 16 20.5C16.6904 20.5 17.25 21.0596 17.25 21.75ZM13.8235 13.1765C13.8235 11.9744 14.798 11 16 11C17.202 11 18.1765 11.9744 18.1765 13.1765C18.1765 14.2615 17.3816 15.1627 16.3425 15.3263C15.6807 15.4305 15 15.9923 15 16.8529L15 18.5C15 19.0523 15.4477 19.5 16 19.5C16.5523 19.5 17 19.0523 17 18.5L17 17.2322C18.8239 16.7837 20.1765 15.1389 20.1765 13.1765C20.1765 10.8699 18.3066 9 16 9C13.6934 9 11.8235 10.8699 11.8235 13.1765C11.8235 13.7288 12.2713 14.1765 12.8235 14.1765C13.3758 14.1765 13.8235 13.7288 13.8235 13.1765Z" fill="#3C3C3C"/>
</svg>
