<svg width="32" height="32" viewBox="0 0 32 32" fill="none" xmlns="http://www.w3.org/2000/svg">
<path d="M22.2071 13.2071C22.5976 12.8166 22.5976 12.1834 22.2071 11.7929C21.8166 11.4024 21.1834 11.4024 20.7929 11.7929L13.5565 19.0293L11.2593 16.3492C10.8999 15.9299 10.2686 15.8813 9.84923 16.2407C9.4299 16.6002 9.38134 17.2315 9.74076 17.6508L12.038 20.3309C12.7962 21.2154 14.1469 21.2673 14.9707 20.4435L22.2071 13.2071Z" fill="#3C3C3C"/>
<path fill-rule="evenodd" clip-rule="evenodd" d="M6 8C6 6.89543 6.89543 6 8 6H24C25.1046 6 26 6.89543 26 8V24C26 25.1046 25.1046 26 24 26H8C6.89543 26 6 25.1046 6 24V8ZM8 8H24V24H8V8Z" fill="#3C3C3C"/>
</svg>
