<svg width="32" height="32" viewBox="0 0 32 32" fill="none" xmlns="http://www.w3.org/2000/svg">
<path fill-rule="evenodd" clip-rule="evenodd" d="M23.6672 7.69401C23.2839 7.29639 23.2955 6.66333 23.6931 6.28004C24.0908 5.89674 24.7238 5.90837 25.1071 6.30599L27.497 8.78532C27.9949 9.30177 27.9949 10.1196 27.497 10.636L25.1071 13.1153C24.7238 13.513 24.0908 13.5246 23.6931 13.1413C23.2955 12.758 23.2839 12.1249 23.6672 11.7273L24.6471 10.7107H9.66667C8.74619 10.7107 8 11.4569 8 12.3774V15.0026C8 15.5548 7.55228 16.0026 7 16.0026C6.44772 16.0026 6 15.5548 6 15.0026V12.3774C6 10.3523 7.64162 8.71069 9.66667 8.71069H24.6472L23.6672 7.69401ZM26 19.6226C26 21.6477 24.3584 23.2893 22.3333 23.2893H7.3888L8.38271 24.2982C8.7703 24.6916 8.76556 25.3248 8.37213 25.7124C7.97869 26.1 7.34555 26.0952 6.95795 25.7018L4.51802 23.2251C4.00669 22.706 4.00669 21.8727 4.51802 21.3536L6.95795 18.8769C7.34555 18.4834 7.97869 18.4787 8.37213 18.8663C8.76556 19.2539 8.7703 19.887 8.38271 20.2805L7.38886 21.2893H22.3333C23.2538 21.2893 24 20.5431 24 19.6226V17C24 16.4477 24.4477 16 25 16C25.5523 16 26 16.4477 26 17V19.6226Z" fill="#3C3C3C"/>
</svg>
