<svg width="32" height="32" viewBox="0 0 32 32" fill="none" xmlns="http://www.w3.org/2000/svg">
<path fill-rule="evenodd" clip-rule="evenodd" d="M6.28708 14.0166C7.19314 9.4401 11.203 6 16.0004 6C19.4494 6 22.4908 7.7767 24.2659 10.4789H20.9482C20.3978 10.4789 19.9517 10.9281 19.9517 11.4823C19.9517 12.0365 20.3978 12.4858 20.9482 12.4858H26.4639C27.1519 12.4858 27.7096 11.9242 27.7096 11.2315V5.67709C27.7096 5.12288 27.2634 4.67361 26.7131 4.67361C26.1627 4.67361 25.7165 5.12288 25.7165 5.67709V9.05645C23.5616 5.9996 20.015 4 16.0004 4C10.2202 4 5.41117 8.1427 4.32516 13.6282C4.21791 14.17 4.57015 14.6961 5.11192 14.8034C5.65368 14.9106 6.17983 14.5584 6.28708 14.0166ZM16.0049 26C20.8024 26 24.8122 22.5599 25.7183 17.9834C25.8255 17.4416 26.3517 17.0894 26.8934 17.1966C27.4352 17.3039 27.7875 17.83 27.6802 18.3718C26.5942 23.8573 21.7851 28 16.0049 28C11.9904 28 8.44385 26.0005 6.28891 22.9437V26.3338C6.28891 26.888 5.84276 27.3373 5.2924 27.3373C4.74205 27.3373 4.2959 26.888 4.2959 26.3338V20.7687C4.2959 20.0759 4.85359 19.5143 5.54153 19.5143H11.068C11.6183 19.5143 12.0645 19.9636 12.0645 20.5178C12.0645 21.072 11.6183 21.5213 11.068 21.5213H7.73958C9.51465 24.2234 12.556 26 16.0049 26Z" fill="#3C3C3C"/>
</svg>
