<svg width="32" height="32" viewBox="0 0 32 32" fill="none" xmlns="http://www.w3.org/2000/svg">
<path fill-rule="evenodd" clip-rule="evenodd" d="M13.4929 8.5C13.4929 7.11929 14.6122 6 15.9929 6C17.3736 6 18.4929 7.11929 18.4929 8.5C18.4929 9.88071 17.3736 11 15.9929 11C14.6122 11 13.4929 9.88071 13.4929 8.5ZM15.9929 4C13.5076 4 11.4929 6.01472 11.4929 8.5C11.4929 10.9853 13.5076 13 15.9929 13C18.4782 13 20.4929 10.9853 20.4929 8.5C20.4929 6.01472 18.4782 4 15.9929 4ZM8.86996 24.26C8.3895 24.26 8 24.6495 8 25.13C8 25.6104 8.3895 25.9999 8.86996 25.9999C9.35043 25.9999 9.73993 25.6104 9.73993 25.13C9.73993 24.6495 9.35043 24.26 8.86996 24.26ZM6 25.13C6 23.5449 7.28493 22.26 8.86996 22.26C10.455 22.26 11.7399 23.5449 11.7399 25.13C11.7399 26.715 10.455 27.9999 8.86996 27.9999C7.28493 27.9999 6 26.715 6 25.13ZM15.997 24.2601C15.5166 24.2601 15.1271 24.6496 15.1271 25.1301C15.1271 25.6106 15.5166 26.0001 15.997 26.0001C16.4775 26.0001 16.867 25.6106 16.867 25.1301C16.867 24.6496 16.4775 24.2601 15.997 24.2601ZM13.1271 25.1301C13.1271 23.5451 14.412 22.2601 15.997 22.2601C17.5821 22.2601 18.867 23.5451 18.867 25.1301C18.867 26.7151 17.5821 28.0001 15.997 28.0001C14.412 28.0001 13.1271 26.7151 13.1271 25.1301ZM23.124 24.26C22.6435 24.26 22.254 24.6495 22.254 25.13C22.254 25.6104 22.6435 25.9999 23.124 25.9999C23.6045 25.9999 23.994 25.6104 23.994 25.13C23.994 24.6495 23.6045 24.26 23.124 24.26ZM20.254 25.13C20.254 23.5449 21.539 22.26 23.124 22.26C24.709 22.26 25.994 23.5449 25.994 25.13C25.994 26.715 24.709 27.9999 23.124 27.9999C21.539 27.9999 20.254 26.715 20.254 25.13ZM13.3663 15C10.4088 15 8.01129 17.3975 8.01129 20.355C8.01129 20.9073 8.45901 21.355 9.01129 21.355C9.56358 21.355 10.0113 20.9073 10.0113 20.355C10.0113 18.5021 11.5134 17 13.3663 17H18.645C20.4979 17 22 18.5021 22 20.355C22 20.9073 22.4477 21.355 23 21.355C23.5523 21.355 24 20.9073 24 20.355C24 17.3975 21.6025 15 18.645 15H13.3663Z" fill="#3C3C3C"/>
</svg>
