<svg width="32" height="32" viewBox="0 0 32 32" fill="none" xmlns="http://www.w3.org/2000/svg">
<path fill-rule="evenodd" clip-rule="evenodd" d="M12.6705 10.0059C13.7929 7.63743 16.2061 6 19 6C22.866 6 26 9.13401 26 13C26 15.7938 24.3625 18.2071 21.9941 19.3295C21.998 19.2202 22 19.1103 22 19C22 18.4685 21.9539 17.9478 21.8656 17.4416C22.9404 16.7682 23.7421 15.7082 23.9826 14.4358C24.0851 13.8931 23.7284 13.37 23.1857 13.2675C22.643 13.1649 22.1199 13.5217 22.0174 14.0643C21.9238 14.5596 21.6578 15.0275 21.2528 15.404C20.3522 13.3398 18.6997 11.6789 16.6415 10.7671C16.8606 10.5837 17 10.3081 17 10C17 9.44772 16.5523 9 16 9C15.4477 9 15 9.44772 15 10C15 10.0788 15.0091 10.1555 15.0264 10.229C14.3751 10.0792 13.6968 10 13 10C12.8897 10 12.7798 10.002 12.6705 10.0059ZM10.3859 10.3855C11.5061 6.69056 14.9376 4 19 4C23.9705 4 28 8.02944 28 13C28 17.0623 25.3094 20.4938 21.6145 21.6141C20.4945 25.3098 17.0614 28 13 28C8.02944 28 4 23.9706 4 19C4 14.9386 6.69021 11.5055 10.3859 10.3855ZM20 19C20 22.866 16.866 26 13 26C9.13401 26 6 22.866 6 19C6 15.134 9.13401 12 13 12C16.866 12 20 15.134 20 19ZM8.81426 19.2675C9.35694 19.1649 9.88002 19.5217 9.9826 20.0643C10.2016 21.2229 11.3939 22.2501 13 22.2501C14.606 22.2501 15.7984 21.2229 16.0174 20.0643C16.12 19.5217 16.6431 19.1649 17.1857 19.2675C17.7284 19.37 18.0852 19.8931 17.9826 20.4358C17.5579 22.6825 15.4135 24.2501 13 24.2501C10.5865 24.2501 8.44207 22.6825 8.0174 20.4358C7.91482 19.8931 8.27159 19.37 8.81426 19.2675ZM10 17C10.5523 17 11 16.5523 11 16C11 15.4477 10.5523 15 10 15C9.44772 15 9 15.4477 9 16C9 16.5523 9.44772 17 10 17ZM17 16C17 16.5523 16.5523 17 16 17C15.4477 17 15 16.5523 15 16C15 15.4477 15.4477 15 16 15C16.5523 15 17 15.4477 17 16ZM22 11C22.5523 11 23 10.5523 23 10C23 9.44772 22.5523 9 22 9C21.4477 9 21 9.44772 21 10C21 10.5523 21.4477 11 22 11Z" fill="#3C3C3C"/>
</svg>
