<svg width="32" height="32" viewBox="0 0 32 32" fill="none" xmlns="http://www.w3.org/2000/svg">
<path fill-rule="evenodd" clip-rule="evenodd" d="M7.29289 14.2929L6.00883 15.577C6.23049 10.2503 10.6189 6 16 6C21.5229 6 26 10.4772 26 16C26 21.5228 21.5229 26 16 26C15.4478 26 15 26.4477 15 27C15 27.5523 15.4478 28 16 28C22.6275 28 28 22.6274 28 16C28 9.37258 22.6275 4 16 4C9.50897 4 4.22163 9.1538 4.00683 15.5926L2.7071 14.2929C2.31658 13.9024 1.68341 13.9024 1.29289 14.2929C0.902367 14.6834 0.902371 15.3166 1.2929 15.7071L4.29294 18.7071C4.48048 18.8946 4.73483 19 5.00005 19C5.26526 19 5.51962 18.8946 5.70715 18.7071L8.70711 15.7071C9.09763 15.3166 9.09763 14.6834 8.7071 14.2929C8.31658 13.9024 7.68341 13.9024 7.29289 14.2929ZM17 9C17 8.44772 16.5523 8 16 8C15.4477 8 15 8.44772 15 9V15C15 16.1046 15.8954 17 17 17H23C23.5523 17 24 16.5523 24 16C24 15.4477 23.5523 15 23 15H17V9Z" fill="#3C3C3C"/>
</svg>
