<svg width="32" height="32" viewBox="0 0 32 32" fill="none" xmlns="http://www.w3.org/2000/svg">
<path d="M19.5121 12.4411C19.9027 12.8316 19.9027 13.4648 19.5121 13.8553L17.4142 15.9532L19.5589 18.098C19.9494 18.4885 19.9494 19.1216 19.5589 19.5122C19.1684 19.9027 18.5352 19.9027 18.1447 19.5122L16 17.3674L13.8553 19.5121C13.4648 19.9027 12.8316 19.9027 12.4411 19.5121C12.0505 19.1216 12.0505 18.4884 12.4411 18.0979L14.5858 15.9532L12.4878 13.8553C12.0973 13.4648 12.0973 12.8316 12.4878 12.4411C12.8784 12.0506 13.5115 12.0506 13.9021 12.4411L16 14.539L18.0979 12.4411C18.4884 12.0505 19.1216 12.0505 19.5121 12.4411Z" fill="#3C3C3C"/>
<path fill-rule="evenodd" clip-rule="evenodd" d="M11 4C11.5523 4 12 4.44772 12 5V6H20V5C20 4.44772 20.4477 4 21 4C21.5523 4 22 4.44772 22 5V6H24C25.1046 6 26 6.89543 26 8V24C26 25.1046 25.1046 26 24 26H8C6.89543 26 6 25.1046 6 24V8C6 6.89543 6.89543 6 8 6H10V5C10 4.44772 10.4477 4 11 4ZM20 8V9C20 9.55228 20.4477 10 21 10C21.5523 10 22 9.55228 22 9V8H24V24H8V8H10V9C10 9.55228 10.4477 10 11 10C11.5523 10 12 9.55228 12 9V8H20Z" fill="#3C3C3C"/>
</svg>
