<svg width="32" height="32" viewBox="0 0 32 32" fill="none" xmlns="http://www.w3.org/2000/svg">
<path fill-rule="evenodd" clip-rule="evenodd" d="M5.83337 6.00049C4.7288 6.00049 3.83337 6.89592 3.83337 8.00049V20.0005C3.83337 21.1051 4.72881 22.0005 5.83338 22.0005L24.4376 22.0005L21.9491 24.2596C21.5402 24.6308 21.5096 25.2633 21.8809 25.6722C22.2521 26.0811 22.8845 26.1117 23.2934 25.7404L27.4274 21.9875C28.0103 21.4584 28.0103 20.5422 27.4274 20.013L23.2934 16.2601C22.8845 15.8889 22.2521 15.9194 21.8809 16.3283C21.5096 16.7373 21.5402 17.3697 21.9491 17.7409L24.4381 20.0005L5.83337 20.0005L5.83337 8.00049L15.8489 8.00049C16.4012 8.00049 16.8489 7.55277 16.8489 7.00049C16.8489 6.4482 16.4012 6.00049 15.8489 6.00049H5.83337Z" fill="#3C3C3C"/>
</svg>
