<svg width="32" height="32" viewBox="0 0 32 32" fill="none" xmlns="http://www.w3.org/2000/svg">
<path fill-rule="evenodd" clip-rule="evenodd" d="M8 24H24L24 14L20.0001 14C18.8955 14 18.0001 13.1046 18.0001 12V8L8 8L8 24ZM20.0001 8.82846L23.1716 12L20.0001 12V8.82846ZM24 26H8C6.89543 26 6 25.1046 6 24V8C6 6.89543 6.89543 6 8 6H19.1717C19.7021 6 20.2108 6.21072 20.5859 6.5858L25.4142 11.4142C25.7893 11.7893 26 12.298 26 12.8284L26 24C26 25.1046 25.1046 26 24 26ZM22.0225 17.7046C22.4117 17.3127 22.4094 16.6796 22.0176 16.2904C21.6257 15.9013 20.9925 15.9035 20.6034 16.2954L16.9559 19.9684L14.5588 17.9083C14.1571 17.563 13.5558 17.5909 13.1877 17.9719L9.96806 21.3053C9.58436 21.7025 9.59534 22.3356 9.99258 22.7193C10.3898 23.103 11.0229 23.092 11.4066 22.6947L13.9708 20.04L16.358 22.0917C16.7557 22.4335 17.3499 22.4101 17.7194 22.038L22.0225 17.7046Z" fill="#3C3C3C"/>
</svg>
