<svg width="32" height="32" viewBox="0 0 32 32" fill="none" xmlns="http://www.w3.org/2000/svg">
<path fill-rule="evenodd" clip-rule="evenodd" d="M16.8967 10.5574C16.7282 10.2161 16.3806 10 15.9999 10C15.6193 10 15.2717 10.2161 15.1032 10.5574L13.8664 13.0634L11.1009 13.4653C10.7242 13.52 10.4112 13.7839 10.2936 14.1459C10.176 14.5079 10.2741 14.9053 10.5466 15.171L12.5478 17.1217L12.0754 19.876C12.0111 20.2512 12.1653 20.6304 12.4732 20.8541C12.7812 21.0778 13.1894 21.1073 13.5264 20.9302L15.9999 19.6298L18.4735 20.9302C18.8104 21.1073 19.2187 21.0778 19.5267 20.8541C19.8346 20.6304 19.9888 20.2512 19.9245 19.876L19.4521 17.1217L21.4532 15.171C21.7258 14.9053 21.8239 14.5079 21.7063 14.1459C21.5887 13.7839 21.2757 13.52 20.899 13.4653L18.1335 13.0634L16.8967 10.5574ZM15.4272 14.42L15.9999 13.2596L16.5727 14.42C16.7183 14.7152 16.9999 14.9197 17.3256 14.9671L18.6063 15.1532L17.6796 16.0565C17.4439 16.2862 17.3363 16.6172 17.392 16.9416L17.6107 18.2171L16.4653 17.6149C16.174 17.4617 15.8259 17.4617 15.5346 17.6149L14.3891 18.2171L14.6079 16.9416C14.6635 16.6172 14.556 16.2862 14.3203 16.0565L13.3936 15.1532L14.6743 14.9671C15 14.9197 15.2816 14.7152 15.4272 14.42Z" fill="#3C3C3C"/>
<path fill-rule="evenodd" clip-rule="evenodd" d="M21 4C21.5523 4 22 4.44772 22 5V6H24C25.1046 6 26 6.89543 26 8V24C26 25.1046 25.1046 26 24 26H8C6.89543 26 6 25.1046 6 24V8C6 6.89543 6.89543 6 8 6H10V5C10 4.44772 10.4477 4 11 4C11.5523 4 12 4.44772 12 5V6H20V5C20 4.44772 20.4477 4 21 4ZM10 8V9C10 9.55228 10.4477 10 11 10C11.5523 10 12 9.55228 12 9V8H20V9C20 9.55228 20.4477 10 21 10C21.5523 10 22 9.55228 22 9V8H24V24H8V8H10Z" fill="#3C3C3C"/>
</svg>
