<svg width="32" height="32" viewBox="0 0 32 32" fill="none" xmlns="http://www.w3.org/2000/svg">
<path fill-rule="evenodd" clip-rule="evenodd" d="M9.86177 4.98756C9.86861 3.88786 10.762 3 11.8617 3H19.9543C21.0596 3 21.9544 3.89629 21.9543 5H25C25.5523 5 26 5.44772 26 6V27.333C26 27.8853 25.5523 28.333 25 28.333H6.80231C6.25002 28.333 5.80231 27.8853 5.80231 27.333V6C5.80231 5.44772 6.25002 5 6.80231 5H9.86169L9.86177 4.98756ZM21.9389 7.471L21.9419 7H24V26.333H7.80231V7H9.84925L9.84639 7.45855C9.84474 7.72484 9.94936 7.9808 10.1371 8.16968C10.3248 8.35856 10.5801 8.46478 10.8464 8.46478H20.939C21.4888 8.46478 21.9355 8.02085 21.9389 7.471ZM19.9543 5H11.8617L11.8526 6.46478H19.9452L19.9543 5ZM16.8967 11.2239C16.7282 10.8826 16.3806 10.6665 15.9999 10.6665C15.6193 10.6665 15.2716 10.8826 15.1032 11.2239L13.8664 13.7299L11.1008 14.1318C10.7241 14.1865 10.4112 14.4504 10.2935 14.8124C10.1759 15.1744 10.274 15.5718 10.5466 15.8375L12.5478 17.7882L12.0754 20.5426C12.011 20.9178 12.1652 21.2969 12.4732 21.5207C12.7811 21.7444 13.1894 21.7739 13.5263 21.5968L15.9999 20.2963L18.4735 21.5968C18.8105 21.7739 19.2187 21.7444 19.5267 21.5207C19.8346 21.2969 19.9888 20.9178 19.9245 20.5426L19.4521 17.7882L21.4533 15.8375C21.7258 15.5718 21.8239 15.1744 21.7063 14.8124C21.5887 14.4504 21.2757 14.1865 20.8991 14.1318L18.1335 13.7299L16.8967 11.2239ZM15.4272 15.0865L15.9999 13.926L16.5727 15.0865C16.7183 15.3817 16.9999 15.5862 17.3256 15.6336L18.6063 15.8197L17.6796 16.723C17.4439 16.9527 17.3363 17.2837 17.392 17.6081L17.6107 18.8836L16.4653 18.2814C16.1739 18.1283 15.8259 18.1283 15.5346 18.2814L14.3891 18.8836L14.6079 17.6081C14.6635 17.2837 14.556 16.9527 14.3203 16.723L13.3936 15.8197L14.6742 15.6336C15 15.5862 15.2815 15.3817 15.4272 15.0865Z" fill="#3C3C3C"/>
</svg>
