<svg width="32" height="32" viewBox="0 0 32 32" fill="none" xmlns="http://www.w3.org/2000/svg">
<path fill-rule="evenodd" clip-rule="evenodd" d="M6.00883 15.577L7.29289 14.2929C7.68341 13.9024 8.31658 13.9024 8.7071 14.2929C9.09763 14.6834 9.09763 15.3166 8.70711 15.7071L5.70715 18.7071C5.51962 18.8946 5.26526 19 5.00005 19C4.73483 19 4.48048 18.8946 4.29294 18.7071L1.2929 15.7071C0.902371 15.3166 0.902367 14.6834 1.29289 14.2929C1.68341 13.9024 2.31658 13.9024 2.7071 14.2929L4.00683 15.5926C4.22163 9.1538 9.50897 4 16 4C22.6275 4 28 9.37258 28 16C28 22.6274 22.6275 28 16 28C15.4478 28 15 27.5523 15 27C15 26.4477 15.4478 26 16 26C21.5229 26 26 21.5228 26 16C26 10.4772 21.5229 6 16 6C10.6189 6 6.23049 10.2503 6.00883 15.577Z" fill="#3C3C3C"/>
</svg>
