<svg width="32" height="32" viewBox="0 0 32 32" fill="none" xmlns="http://www.w3.org/2000/svg">
<path fill-rule="evenodd" clip-rule="evenodd" d="M21.3993 8.82672C19.4701 9.19416 17.36 9.98311 16 11.3432C15.0746 12.2685 14.0552 13.6224 13.249 14.7793C12.8778 15.3119 12.5591 15.7921 12.3246 16.153L16.847 20.6754C17.2079 20.441 17.6882 20.1222 18.2207 19.751C19.3776 18.9448 20.7315 17.9254 21.6568 17C23.0169 15.64 23.8059 13.5299 24.1733 11.6008C24.3543 10.6506 24.4243 9.78862 24.42 9.15062C24.4185 8.93181 24.4083 8.74991 24.3935 8.60656C24.2501 8.59169 24.0682 8.58151 23.8494 8.58002C23.2114 8.57569 22.3494 8.64574 21.3993 8.82672ZM15.7643 22.4211L16.4242 27.0409C16.4778 27.4159 16.7386 27.7284 17.098 27.8482C17.4573 27.968 17.8535 27.8745 18.1213 27.6066L22.0327 23.6952C22.4524 23.2755 22.6641 22.691 22.6103 22.0999L22.3376 19.0997C22.5967 18.8713 22.8436 18.6417 23.0711 18.4142C24.8403 16.645 25.7376 14.0773 26.138 11.975C26.3409 10.9094 26.4252 9.91725 26.4199 9.13706C26.4173 8.74945 26.3925 8.39115 26.3409 8.09126C26.3152 7.94214 26.2792 7.78519 26.226 7.63659C26.1798 7.50793 26.0877 7.28873 25.8995 7.10053C25.7113 6.91232 25.4921 6.82017 25.3634 6.77405C25.2148 6.72077 25.0579 6.68479 24.9088 6.65913C24.6089 6.60753 24.2506 6.5827 23.863 6.58007C23.0828 6.57478 22.0906 6.65909 21.025 6.86204C18.9227 7.26246 16.355 8.15968 14.5858 9.92895C14.3583 10.1564 14.1287 10.4033 13.9003 10.6624L10.9001 10.3897C10.309 10.3359 9.72454 10.5475 9.30483 10.9673L5.39338 14.8787C5.12555 15.1465 5.03203 15.5427 5.15181 15.902C5.27159 16.2614 5.5841 16.5222 5.95907 16.5758L10.5788 17.2357L15.7643 22.4211ZM20.4657 20.6004C20.0849 20.8832 19.7116 21.1498 19.3643 21.3919C18.7696 21.8064 18.2384 22.1574 17.8555 22.4051C17.8326 22.4199 17.8103 22.4344 17.7885 22.4484L18.1213 24.7782L20.6185 22.281L20.4657 20.6004ZM10.719 12.3815L12.3996 12.5342C12.1168 12.9151 11.8502 13.2884 11.6081 13.6357C11.1937 14.2305 10.8426 14.7616 10.5949 15.1445L10.5516 15.2115L8.22181 14.8787L10.719 12.3815ZM18.1213 14.8787C18.5118 15.2692 19.145 15.2692 19.5355 14.8787C19.926 14.4882 19.926 13.855 19.5355 13.4645C19.145 13.074 18.5118 13.074 18.1213 13.4645C17.7308 13.855 17.7308 14.4882 18.1213 14.8787ZM16.7071 16.2929C17.8787 17.4645 19.7782 17.4645 20.9497 16.2929C22.1213 15.1213 22.1213 13.2218 20.9497 12.0503C19.7782 10.8787 17.8787 10.8787 16.7071 12.0503C15.5355 13.2218 15.5355 15.1213 16.7071 16.2929ZM10.9217 23.4925C10.8664 23.5478 10.6644 23.6997 10.2472 23.878C9.85698 24.0447 9.38983 24.1872 8.92178 24.2856C8.83365 24.3041 8.7479 24.3205 8.66497 24.335C8.67946 24.2521 8.6959 24.1663 8.71442 24.0782C8.81277 23.6102 8.95528 23.143 9.12203 22.7528C9.3003 22.3356 9.4522 22.1336 9.50745 22.0783C10.0485 21.5373 10.737 21.6365 11.0502 21.9498C11.3635 22.263 11.4627 22.9515 10.9217 23.4925ZM12.3359 24.9068C11.0933 26.1493 7.41368 26.7985 6.80759 26.1924C6.2015 25.5863 6.85066 21.9067 8.09324 20.6641C9.33582 19.4215 11.2929 19.364 12.4644 20.5356C13.636 21.7071 13.5785 23.6642 12.3359 24.9068Z" fill="#3C3C3C"/>
</svg>
