<svg width="32" height="32" viewBox="0 0 32 32" fill="none" xmlns="http://www.w3.org/2000/svg">
<path d="M15.1161 11.9667C15.6043 11.4785 16.3957 11.4785 16.8839 11.9667L20.0757 15.1585C20.3685 15.4514 20.3685 15.9262 20.0757 16.2191C19.7828 16.512 19.3079 16.512 19.015 16.2191L16.7496 13.9537L16.75 19.6778C16.75 20.092 16.4143 20.4278 16.0001 20.4278C15.5858 20.4278 15.25 20.0921 15.25 19.6779L15.2496 13.9546L12.985 16.2191C12.6921 16.512 12.2172 16.512 11.9244 16.2191C11.6315 15.9262 11.6315 15.4514 11.9244 15.1585L15.1161 11.9667Z" fill="#3C3C3C"/>
<path fill-rule="evenodd" clip-rule="evenodd" d="M6 9.42859C6 8.32402 6.89543 7.42859 8 7.42859H24C25.1046 7.42859 26 8.32402 26 9.42859V22.5714C26 23.676 25.1046 24.5714 24 24.5714H8C6.89543 24.5714 6 23.676 6 22.5714V9.42859ZM8 9.42859L24 9.42859V22.5714L8 22.5714V9.42859Z" fill="#3C3C3C"/>
</svg>
