<svg width="32" height="32" viewBox="0 0 32 32" fill="none" xmlns="http://www.w3.org/2000/svg">
<path fill-rule="evenodd" clip-rule="evenodd" d="M8 14C8 10.6863 10.6863 8 14 8C17.3137 8 20 10.6863 20 14C20 17.3137 17.3137 20 14 20C10.6863 20 8 17.3137 8 14ZM14 6C9.58172 6 6 9.58172 6 14C6 18.4183 9.58172 22 14 22C15.8489 22 17.5513 21.3728 18.906 20.3196L24.293 25.7065C24.6835 26.097 25.3167 26.097 25.7072 25.7065C26.0977 25.316 26.0977 24.6828 25.7072 24.2923L20.3202 18.9053C21.373 17.5506 22 15.8485 22 14C22 9.58172 18.4183 6 14 6Z" fill="#3C3C3C"/>
</svg>
