<svg width="32" height="32" viewBox="0 0 32 32" fill="none" xmlns="http://www.w3.org/2000/svg">
<path fill-rule="evenodd" clip-rule="evenodd" d="M4 8C4 6.89543 4.89543 6 6 6H26C27.1046 6 28 6.89543 28 8V12C28 13.1046 27.1046 14 26 14H6C4.89543 14 4 13.1046 4 12V8ZM26 8H6V12H26V8ZM4 19C4 18.4477 4.44772 18 5 18H27C27.5523 18 28 18.4477 28 19C28 19.5523 27.5523 20 27 20H5C4.44772 20 4 19.5523 4 19ZM5 24C4.44772 24 4 24.4477 4 25C4 25.5523 4.44772 26 5 26H27C27.5523 26 28 25.5523 28 25C28 24.4477 27.5523 24 27 24H5Z" fill="#3C3C3C"/>
</svg>
