<svg width="32" height="32" viewBox="0 0 32 32" fill="none" xmlns="http://www.w3.org/2000/svg">
<path fill-rule="evenodd" clip-rule="evenodd" d="M24 8H8V24H24V8ZM8 6C6.89543 6 6 6.89543 6 8V24C6 25.1046 6.89543 26 8 26H24C25.1046 26 26 25.1046 26 24V8C26 6.89543 25.1046 6 24 6H8Z" fill="#3C3C3C"/>
<path fill-rule="evenodd" clip-rule="evenodd" d="M14.8068 12.3357C14.7077 12.4928 14.6088 12.7507 14.6088 13.1823C14.6088 13.6011 14.7107 13.8523 14.815 14.0087C14.9233 14.1711 15.0744 14.2912 15.2543 14.3811C15.438 14.4729 15.6331 14.5236 15.7903 14.5498C15.8666 14.5625 15.9282 14.5685 15.9669 14.5712C15.9862 14.5726 15.9993 14.5732 16.0052 14.5734C16.0063 14.5734 16.0071 14.5734 16.0077 14.5734L16.0095 14.5734L16.0233 14.5736C16.0339 14.5738 16.0472 14.5741 16.0631 14.5746C16.0949 14.5757 16.1372 14.5777 16.1885 14.5813C16.2907 14.5886 16.4306 14.6028 16.5959 14.6303C16.9221 14.6847 17.3715 14.7952 17.8324 15.0256C18.297 15.2579 18.7904 15.6212 19.1655 16.1839C19.5446 16.7525 19.7648 17.4681 19.7648 18.3383C19.7648 19.1958 19.5624 19.9046 19.2042 20.4726C18.8478 21.0378 18.3725 21.4074 17.9121 21.6453C17.0256 22.1034 16.1352 22.1032 16.0023 22.1032H15.9999C14.3152 22.1032 13.2957 21.4488 12.7463 20.6248C12.4901 20.2404 12.3643 19.8603 12.3016 19.5784C12.27 19.4362 12.2535 19.3146 12.2448 19.2233C12.2404 19.1775 12.238 19.1389 12.2367 19.1085C12.236 19.0933 12.2356 19.0802 12.2353 19.0692L12.2351 19.0543L12.235 19.0481L12.235 19.0453L12.235 19.044C12.235 19.0434 12.235 19.0427 13.1822 19.0427H12.235C12.235 18.5196 12.6591 18.0955 13.1822 18.0955C13.6999 18.0955 14.1206 18.5108 14.1293 19.0265C14.1295 19.0294 14.1299 19.0352 14.1307 19.0437C14.133 19.068 14.1385 19.1115 14.1509 19.1675C14.1763 19.2818 14.2266 19.43 14.3226 19.574C14.4776 19.8066 14.867 20.2088 15.9999 20.2088C16.0582 20.2088 16.5711 20.2059 17.0424 19.9623C17.2636 19.848 17.4585 19.6893 17.6019 19.462C17.7435 19.2375 17.8704 18.8897 17.8704 18.3383C17.8704 17.7996 17.7385 17.4586 17.5893 17.2347C17.4361 17.0049 17.225 16.8399 16.9852 16.72C16.7416 16.5982 16.4866 16.5326 16.2845 16.4989C16.1857 16.4825 16.1054 16.4746 16.0535 16.4709C16.0278 16.4691 16.0095 16.4683 16 16.468L15.9927 16.4678L15.9907 16.4678L15.978 16.4676L15.9421 16.4667C15.9138 16.4658 15.8767 16.464 15.832 16.4608C15.7429 16.4545 15.6217 16.4422 15.4789 16.4184C15.1976 16.3715 14.8081 16.276 14.4072 16.0755C14.0025 15.8732 13.569 15.5548 13.2388 15.0596C12.9047 14.5583 12.7144 13.9326 12.7144 13.1823C12.7144 12.4447 12.8888 11.8257 13.2044 11.3252C13.5184 10.8273 13.9366 10.5027 14.3391 10.2947C15.1096 9.89658 15.8803 9.89672 15.9975 9.89674L15.9999 9.89674C16.783 9.89675 17.4226 10.0609 17.9318 10.3549C18.4438 10.6506 18.7695 11.0464 18.9696 11.4222C19.2154 11.8839 19.0404 12.4576 18.5787 12.7035C18.1169 12.9493 17.5433 12.7743 17.2974 12.3126C17.2412 12.207 17.15 12.0911 16.9844 11.9954C16.8158 11.898 16.5168 11.7911 15.9999 11.7911C15.9572 11.7911 15.5641 11.7941 15.2087 11.9777C15.0455 12.0621 14.9076 12.1759 14.8068 12.3357ZM16.0008 14.5734C16.0004 14.5734 15.9999 14.5734 15.9999 15.445C15.9999 15.4695 15.9999 15.4947 15.9999 15.5206C15.9999 14.5778 16.0004 14.5734 16.0009 14.5734H16.0008ZM15.9997 16.2848C15.9996 16.4666 15.9993 16.4678 15.999 16.4678H15.999C15.9993 16.4678 15.9996 16.4678 15.9997 16.2848Z" fill="#3C3C3C"/>
</svg>
