<svg width="32" height="32" viewBox="0 0 32 32" fill="none" xmlns="http://www.w3.org/2000/svg">
<path fill-rule="evenodd" clip-rule="evenodd" d="M14.7779 4C14.3779 4 14.0163 4.2384 13.8588 4.60608L12.8418 6.97888C12.5037 7.09724 12.1744 7.23404 11.8549 7.38805L9.45766 6.42914C9.08624 6.28057 8.66202 6.36765 8.37916 6.65051L6.65068 8.37899C6.36781 8.66185 6.28074 9.08607 6.42931 9.45749L7.38823 11.8548C7.23426 12.1742 7.0975 12.5035 6.97916 12.8415L4.60608 13.8585C4.2384 14.0161 4 14.3776 4 14.7777V17.2221C4 17.6221 4.2384 17.9837 4.60608 18.1412L6.97916 19.1583C7.09751 19.4963 7.2343 19.8257 7.38829 20.1451L6.42931 22.5425C6.28074 22.9139 6.36781 23.3381 6.65068 23.621L8.37916 25.3495C8.66202 25.6324 9.08624 25.7194 9.45766 25.5709L11.8552 24.6118C12.1745 24.7658 12.5038 24.9025 12.8417 25.0208L13.8588 27.3939C14.0163 27.7616 14.3779 28 14.7779 28H17.2223C17.6224 28 17.9839 27.7616 18.1415 27.3939L19.1585 25.0208C19.4965 24.9025 19.8258 24.7658 20.1451 24.6118L22.5426 25.5708C22.914 25.7194 23.3383 25.6323 23.6211 25.3494L25.3496 23.621C25.6325 23.3381 25.7195 22.9139 25.571 22.5425L24.612 20.145C24.766 19.8256 24.9028 19.4963 25.0211 19.1582L27.394 18.1412C27.7617 17.9837 28.0001 17.6221 28.0001 17.2221V14.7777C28.0001 14.3776 27.7617 14.0161 27.394 13.8585L25.0211 12.8415C24.9923 12.7592 24.9623 12.6773 24.9313 12.596C24.7645 12.1585 24.2846 11.9428 23.8324 12.0642C23.2233 12.2278 22.9308 12.92 23.1381 13.5157C23.178 13.6305 23.2153 13.7465 23.2497 13.8637C23.3338 14.1497 23.5412 14.3832 23.8152 14.5006L26.0001 15.4371V16.5627L23.8152 17.4991C23.5412 17.6165 23.3338 17.8501 23.2497 18.1361C23.0974 18.654 22.8909 19.149 22.6368 19.6146C22.4938 19.8763 22.4752 20.1882 22.586 20.4651L23.4691 22.673L22.6732 23.469L20.4653 22.5858C20.1884 22.475 19.8765 22.4937 19.6147 22.6366C19.1492 22.8907 18.6543 23.0971 18.1364 23.2495C17.8504 23.3336 17.6168 23.5409 17.4994 23.8149L16.5629 26H15.4373L14.5008 23.8149C14.3834 23.5409 14.1499 23.3336 13.8639 23.2495C13.346 23.0971 12.8511 22.8907 12.3856 22.6366C12.1238 22.4937 11.8119 22.4751 11.535 22.5858L9.32711 23.469L8.53115 22.6731L9.41429 20.4652C9.52506 20.1883 9.50644 19.8764 9.36352 19.6146C9.10935 19.1491 8.90288 18.6541 8.75053 18.1361C8.66641 17.8501 8.45908 17.6166 8.18509 17.4992L6 16.5627V15.4371L8.18508 14.5006C8.45908 14.3832 8.66641 14.1496 8.75052 13.8636C8.90287 13.3457 9.10932 12.8507 9.36347 12.3852C9.50638 12.1235 9.525 11.8116 9.41423 11.5346L8.53115 9.32694L9.32711 8.53099L11.5348 9.41405C11.8117 9.52482 12.1236 9.5062 12.3854 9.36328C12.8509 9.10909 13.346 8.90261 13.864 8.75025C14.15 8.66614 14.3835 8.45881 14.5009 8.18481L15.4373 6H16.5629L17.4993 8.18481C17.6167 8.45881 17.8503 8.66614 18.1363 8.75026C18.2536 8.78475 18.3697 8.82202 18.4845 8.86199C19.0802 9.0693 19.7724 8.77682 19.936 8.16768C20.0575 7.71549 19.8418 7.23561 19.4043 7.06878C19.3228 7.03773 19.2409 7.00775 19.1584 6.97888L18.1415 4.60608C17.9839 4.2384 17.6224 4 17.2223 4H14.7779ZM16.0001 10.8444C13.1528 10.8444 10.8446 13.1527 10.8446 16C10.8446 18.8473 13.1528 21.1556 16.0001 21.1556C18.8475 21.1556 21.1557 18.8473 21.1557 16C21.1557 13.1527 18.8475 10.8444 16.0001 10.8444ZM12.8445 15.9998C12.8445 14.257 14.2573 12.8442 16 12.8442C17.7428 12.8442 19.1556 14.257 19.1556 15.9998C19.1556 17.7426 17.7428 19.1553 16 19.1553C14.2573 19.1553 12.8445 17.7426 12.8445 15.9998Z" fill="#3C3C3C"/>
<path d="M25 11C27.2091 11 29 9.20914 29 7C29 4.79086 27.2091 3 25 3C22.7909 3 21 4.79086 21 7C21 9.20914 22.7909 11 25 11Z" fill="#E57723"/>
</svg>
