<svg width="32" height="32" viewBox="0 0 32 32" fill="none" xmlns="http://www.w3.org/2000/svg">
<path fill-rule="evenodd" clip-rule="evenodd" d="M13.8588 4.60608C14.0163 4.2384 14.3779 4 14.7779 4H17.2223C17.6224 4 17.9839 4.2384 18.1415 4.60608L19.1584 6.97888C19.4965 7.09725 19.8259 7.23406 20.1454 7.38808L22.5426 6.42919C22.914 6.28062 23.3383 6.36769 23.6211 6.65056L25.3496 8.37904C25.6325 8.6619 25.7195 9.08612 25.571 9.45754L24.612 11.8549C24.766 12.1742 24.9028 12.5035 25.0211 12.8415L27.394 13.8585C27.7617 14.0161 28.0001 14.3776 28.0001 14.7777V17.2221C28.0001 17.6221 27.7617 17.9837 27.394 18.1412L25.0211 19.1582C24.9028 19.4963 24.766 19.8256 24.612 20.145L25.571 22.5425C25.7195 22.9139 25.6325 23.3381 25.3496 23.621L23.6211 25.3494C23.3383 25.6323 22.914 25.7194 22.5426 25.5708L20.1451 24.6118C19.8258 24.7658 19.4965 24.9025 19.1585 25.0208L18.1415 27.3939C17.9839 27.7616 17.6224 28 17.2223 28H14.7779C14.3779 28 14.0163 27.7616 13.8588 27.3939L12.8417 25.0208C12.5038 24.9025 12.1745 24.7658 11.8552 24.6118L9.45766 25.5709C9.08624 25.7194 8.66202 25.6324 8.37916 25.3495L6.65068 23.621C6.36781 23.3381 6.28074 22.9139 6.42931 22.5425L7.38829 20.1451C7.2343 19.8257 7.09751 19.4963 6.97916 19.1583L4.60608 18.1412C4.2384 17.9837 4 17.6221 4 17.2221V14.7777C4 14.3776 4.2384 14.0161 4.60608 13.8585L6.97916 12.8415C7.0975 12.5035 7.23426 12.1742 7.38823 11.8548L6.42931 9.45749C6.28074 9.08607 6.36781 8.66185 6.65068 8.37899L8.37916 6.65051C8.66202 6.36765 9.08624 6.28057 9.45766 6.42914L11.8549 7.38805C12.1744 7.23404 12.5037 7.09724 12.8418 6.97888L13.8588 4.60608ZM15.4373 6L14.5009 8.18481C14.3835 8.45881 14.15 8.66614 13.864 8.75025C13.346 8.90261 12.8509 9.10909 12.3854 9.36328C12.1236 9.5062 11.8117 9.52482 11.5348 9.41405L9.32711 8.53099L8.53115 9.32694L9.41423 11.5346C9.525 11.8116 9.50638 12.1235 9.36347 12.3852C9.10932 12.8507 8.90287 13.3457 8.75052 13.8636C8.66641 14.1496 8.45908 14.3832 8.18508 14.5006L6 15.4371V16.5627L8.18509 17.4992C8.45908 17.6166 8.66641 17.8501 8.75053 18.1361C8.90288 18.6541 9.10935 19.1491 9.36352 19.6146C9.50644 19.8764 9.52506 20.1883 9.41429 20.4652L8.53115 22.6731L9.32711 23.469L11.535 22.5858C11.8119 22.4751 12.1238 22.4937 12.3856 22.6366C12.8511 22.8907 13.346 23.0971 13.8639 23.2495C14.1499 23.3336 14.3834 23.5409 14.5008 23.8149L15.4373 26H16.5629L17.4994 23.8149C17.6168 23.5409 17.8504 23.3336 18.1364 23.2495C18.6543 23.0971 19.1492 22.8907 19.6147 22.6366C19.8765 22.4937 20.1884 22.475 20.4653 22.5858L22.6732 23.469L23.4691 22.673L22.586 20.4651C22.4752 20.1882 22.4938 19.8763 22.6368 19.6146C22.8909 19.149 23.0974 18.654 23.2497 18.1361C23.3338 17.8501 23.5412 17.6165 23.8152 17.4991L26.0001 16.5627V15.4371L23.8152 14.5006C23.5412 14.3832 23.3338 14.1497 23.2497 13.8637C23.0974 13.3457 22.8909 12.8508 22.6368 12.3853C22.4939 12.1235 22.4753 11.8116 22.586 11.5347L23.4691 9.32699L22.6732 8.53103L20.4655 9.41409C20.1886 9.52486 19.8767 9.50624 19.6149 9.36331C19.1493 9.10911 18.6543 8.90262 18.1363 8.75026C17.8503 8.66614 17.6167 8.45881 17.4993 8.18481L16.5629 6H15.4373ZM16.0001 12.8444C14.2574 12.8444 12.8446 14.2572 12.8446 16C12.8446 17.7428 14.2574 19.1556 16.0001 19.1556C17.7429 19.1556 19.1557 17.7428 19.1557 16C19.1557 14.2572 17.7429 12.8444 16.0001 12.8444ZM10.8446 16C10.8446 13.1527 13.1528 10.8444 16.0001 10.8444C18.8475 10.8444 21.1557 13.1527 21.1557 16C21.1557 18.8473 18.8475 21.1556 16.0001 21.1556C13.1528 21.1556 10.8446 18.8473 10.8446 16Z" fill="#3C3C3C"/>
</svg>
