<svg width="32" height="32" viewBox="0 0 32 32" fill="none" xmlns="http://www.w3.org/2000/svg">
<path fill-rule="evenodd" clip-rule="evenodd" d="M16.7413 11.5741C16.7413 13.5481 15.1411 15.1482 13.1671 15.1482C11.1932 15.1482 9.59302 13.5481 9.59302 11.5741C9.59302 9.60019 11.1932 8 13.1671 8C15.1411 8 16.7413 9.60019 16.7413 11.5741ZM18.7413 11.5741C18.7413 14.6526 16.2456 17.1482 13.1671 17.1482C10.0886 17.1482 7.59302 14.6526 7.59302 11.5741C7.59302 8.49562 10.0886 6 13.1671 6C16.2456 6 18.7413 8.49562 18.7413 11.5741ZM10 20.5678H16.3335C17.438 20.5678 18.3335 21.4632 18.3335 22.5678V24H8V22.5678C8 21.4632 8.89543 20.5678 10 20.5678ZM6 22.5678C6 20.3587 7.79086 18.5678 10 18.5678H16.3335C18.5426 18.5678 20.3335 20.3587 20.3335 22.5678V25.25C20.3335 25.6642 19.9977 26 19.5835 26H6.75C6.33579 26 6 25.6642 6 25.25V22.5678ZM18.0181 16.6955C19.7104 15.6196 20.8333 13.7281 20.8333 11.5742C20.8333 9.21177 19.4824 7.16486 17.511 6.16381C17.9341 6.05683 18.3772 6 18.8335 6C21.804 6 24.212 8.40802 24.212 11.3785C24.212 14.3489 21.804 16.7569 18.8335 16.7569C18.5563 16.7569 18.284 16.7359 18.0181 16.6955ZM25.2499 26H22.0833C22.3418 25.8817 22.5214 25.6207 22.5214 25.3178V22.1716C22.5214 20.5853 21.598 19.2146 20.2593 18.5679H21.9999C24.209 18.5679 25.9999 20.3587 25.9999 22.5679V25.25C25.9999 25.6642 25.6641 26 25.2499 26Z" fill="#3C3C3C"/>
</svg>
