<svg width="32" height="32" viewBox="0 0 32 32" fill="none" xmlns="http://www.w3.org/2000/svg">
<path fill-rule="evenodd" clip-rule="evenodd" d="M15.5672 4.09853C15.8408 3.96716 16.1592 3.96716 16.4329 4.09853L25.4329 8.41996C25.7795 8.58641 26 8.93689 26 9.32143V15.0248C26 20.9966 21.8819 26.5931 16.2372 27.9715C16.0814 28.0095 15.9186 28.0095 15.7628 27.9715C10.1182 26.5931 6 20.9966 6 15.0248V9.32143C6 8.93689 6.2205 8.58641 6.56715 8.41996L15.5672 4.09853ZM8 9.95057V14.0248H15V6.58946L8 9.95057ZM17 6.58946V14.0248H24V9.95057L17 6.58946ZM23.955 16.0248H17V25.6339C20.761 24.1443 23.5706 20.2996 23.955 16.0248ZM15 25.6339C11.239 24.1443 8.42945 20.2996 8.045 16.0248H15V25.6339Z" fill="#3C3C3C"/>
</svg>
