<svg width="32" height="32" viewBox="0 0 32 32" fill="none" xmlns="http://www.w3.org/2000/svg">
<path fill-rule="evenodd" clip-rule="evenodd" d="M16 24C20.4183 24 24 20.4183 24 16C24 11.5817 20.4183 8 16 8C11.5817 8 8 11.5817 8 16C8 20.4183 11.5817 24 16 24ZM16 26C20.4776 26 24.2679 23.0571 25.5422 19H27C28.6569 19 30 17.6569 30 16C30 14.3431 28.6569 13 27 13H25.5422L25.5425 13.0009C24.2685 8.94332 20.478 6 16 6C11.5224 6 7.73207 8.94289 6.4578 13H5C3.34315 13 2 14.3431 2 16C2 17.6569 3.34315 19 5 19H6.4578C7.73207 23.0571 11.5224 26 16 26ZM27 17H25.9506C25.9833 16.6711 26 16.3375 26 16C26 15.6625 25.9833 15.3289 25.9506 15H27C27.5523 15 28 15.4477 28 16C28 16.5523 27.5523 17 27 17ZM5 15H6.04938L6.04941 14.9997C6.01673 15.3287 6 15.6624 6 16C6 16.3375 6.01672 16.6711 6.04938 17H5C4.44772 17 4 16.5523 4 16C4 15.4477 4.44772 15 5 15ZM17 13C17 12.4477 16.5523 12 16 12C15.4477 12 15 12.4477 15 13V19C15 19.5523 15.4477 20 16 20C16.5523 20 17 19.5523 17 19V13ZM12 13C12.5523 13 13 13.4477 13 14V18C13 18.5523 12.5523 19 12 19C11.4477 19 11 18.5523 11 18V14C11 13.4477 11.4477 13 12 13ZM21 14C21 13.4477 20.5523 13 20 13C19.4477 13 19 13.4477 19 14V18C19 18.5523 19.4477 19 20 19C20.5523 19 21 18.5523 21 18V14Z" fill="#3C3C3C"/>
</svg>
