<svg width="32" height="32" viewBox="0 0 32 32" fill="none" xmlns="http://www.w3.org/2000/svg">
<path fill-rule="evenodd" clip-rule="evenodd" d="M4 7C4 6.44772 4.44772 6 5 6H27C27.5523 6 28 6.44772 28 7C28 7.55228 27.5523 8 27 8H5C4.44772 8 4 7.55228 4 7Z" fill="#3C3C3C"/>
<path fill-rule="evenodd" clip-rule="evenodd" d="M4 16C4 15.4477 4.44772 15 5 15H21C21.5523 15 22 15.4477 22 16C22 16.5523 21.5523 17 21 17H5C4.44772 17 4 16.5523 4 16Z" fill="#3C3C3C"/>
<path fill-rule="evenodd" clip-rule="evenodd" d="M4 25C4 24.4477 4.44772 24 5 24H15C15.5523 24 16 24.4477 16 25C16 25.5523 15.5523 26 15 26H5C4.44772 26 4 25.5523 4 25Z" fill="#3C3C3C"/>
</svg>
