<svg width="32" height="32" viewBox="0 0 32 32" fill="none" xmlns="http://www.w3.org/2000/svg">
<path fill-rule="evenodd" clip-rule="evenodd" d="M7.00234 6.00143C6.98653 6.55482 7.04486 7.41286 7.27966 8.36822C7.58509 9.61095 8.16293 10.91 9.14758 11.8806C11.3379 14.0399 13.8508 14.1111 14.9962 13.9442C15.0156 13.4199 14.9653 12.5839 14.7323 11.6421C14.4345 10.4377 13.8613 9.1562 12.8584 8.16749C11.8641 7.18731 10.5692 6.60575 9.34316 6.29408C8.39698 6.05357 7.55164 5.98869 7.00234 6.00143ZM9.83588 4.35573C11.2856 4.72424 12.9396 5.43913 14.2624 6.74319C15.6056 8.06728 16.3177 9.72192 16.6738 11.1619C17.0268 12.5891 17.0535 13.9009 16.9402 14.6272L16.9367 14.6489C16.9379 14.6522 16.9391 14.6554 16.9402 14.6587C17.1775 14.3414 17.4423 14.0343 17.7376 13.7432C19.0604 12.4391 20.7144 11.7242 22.1641 11.3557C23.6015 10.9904 24.9385 10.9404 25.7083 11.054C26.3392 11.1472 26.8437 11.6339 26.9416 12.2783C27.0567 13.0358 27.0203 14.3898 26.6625 15.8456C26.3021 17.312 25.589 18.9914 24.2565 20.3049C21.6694 22.8553 18.6928 23.1314 17 22.9571V27C17 27.5523 16.5523 28 16 28C15.4477 28 15 27.5523 15 27V15.9571C13.3072 16.1314 10.3306 15.8553 7.74352 13.3049C6.41101 11.9914 5.69787 10.312 5.33746 8.84555C4.97969 7.38984 4.9433 6.03575 5.05838 5.27827C5.15627 4.63392 5.66076 4.14717 6.2917 4.05402C7.0615 3.94037 8.39854 3.99036 9.83588 4.35573ZM17 20.7423C17.0001 20.8139 17.0014 20.8813 17.0038 20.9442C18.1492 21.1111 20.6621 21.0399 22.8524 18.8806C23.8371 17.91 24.4149 16.611 24.7203 15.3682C24.9551 14.4129 25.0135 13.5548 24.9977 13.0014C24.4484 12.9887 23.603 13.0536 22.6568 13.2941C21.4308 13.6057 20.1359 14.1873 19.1416 15.1675C18.1387 16.1562 17.5655 17.4377 17.2677 18.6421C17.0656 19.4592 17.0009 20.1967 17 20.7201C17 20.7275 17 20.7349 17 20.7423Z" fill="#3C3C3C"/>
</svg>
