<svg width="32" height="32" viewBox="0 0 32 32" fill="none" xmlns="http://www.w3.org/2000/svg">
<path fill-rule="evenodd" clip-rule="evenodd" d="M14.2065 5.37445C14.9401 3.88796 17.0598 3.88796 17.7934 5.37445L20.1907 10.2319L25.5513 11.0109C27.1917 11.2492 27.8467 13.2652 26.6597 14.4222L22.7808 18.2033L23.6965 23.5421C23.9767 25.1759 22.2618 26.4219 20.7946 25.6505L16 23.1298L11.2054 25.6505C9.73811 26.4219 8.02324 25.1759 8.30346 23.5421L9.21915 18.2033L5.34023 14.4222C4.1532 13.2652 4.80821 11.2492 6.44866 11.0109L11.8092 10.2319L14.2065 5.37445ZM18.3973 11.1171L16 6.25958L13.6027 11.1171C13.3113 11.7073 12.7482 12.1165 12.0968 12.2111L6.73625 12.9901L10.6152 16.7711C11.0865 17.2306 11.3016 17.8926 11.1904 18.5413L10.2747 23.8802L15.0693 21.3595C15.6519 21.0532 16.348 21.0532 16.9307 21.3595L21.7253 23.8802L20.8096 18.5413C20.6983 17.8926 20.9134 17.2306 21.3848 16.7711L25.2637 12.9901L19.9032 12.2111C19.2517 12.1165 18.6886 11.7073 18.3973 11.1171Z" fill="#3C3C3C"/>
</svg>
