<svg width="32" height="32" viewBox="0 0 32 32" fill="none" xmlns="http://www.w3.org/2000/svg">
<path fill-rule="evenodd" clip-rule="evenodd" d="M23.9956 8H8L8 23.9956L16.0001 23.9956V18C16.0001 16.8954 16.8956 16 18.0001 16H23.9956L23.9956 8ZM25.9956 16V8C25.9956 6.89543 25.1001 6 23.9956 6H8C6.89543 6 6 6.89543 6 8V23.9956C6 25.1001 6.89543 25.9956 8 25.9956H16.0001V25.9969H18.0001V25.9956H18.0259C18.5563 25.9956 19.065 25.7849 19.4401 25.4098L25.4098 19.4401C25.7849 19.065 25.9956 18.5563 25.9956 18.0259V18H25.9999V16H25.9956ZM23.9956 18H18.0001V23.9956H18.0259L23.9956 18.0259V18Z" fill="#3C3C3C"/>
</svg>
