<svg width="32" height="32" viewBox="0 0 32 32" fill="none" xmlns="http://www.w3.org/2000/svg">
<path fill-rule="evenodd" clip-rule="evenodd" d="M16.1834 6C13.013 6 10.7262 8.15914 10.7262 10.4999C10.7262 12.8234 12.9794 14.968 16.1135 14.9995L25.0445 14.9998C25.5968 14.9999 26.0445 15.4476 26.0444 15.9999C26.0444 16.5522 25.5967 16.9999 25.0444 16.9998L21.2023 16.9997C22.4721 18.1462 23.2731 19.7119 23.2731 21.4996C23.2731 25.2339 19.7779 27.9995 15.8159 27.9995C13.8789 27.9995 12.0755 27.3505 10.7262 26.2545V26.9995C10.7262 27.5518 10.2785 27.9995 9.72618 27.9995C9.1739 27.9995 8.72618 27.5518 8.72618 26.9995L8.72618 23.3329C8.72618 22.856 9.06301 22.4454 9.53077 22.3522C9.99853 22.259 10.467 22.5091 10.6498 22.9496C11.3581 24.6564 13.3443 25.9995 15.8159 25.9995C18.9863 25.9995 21.2731 23.8404 21.2731 21.4996C21.2731 19.1588 18.9863 16.9997 15.8159 16.9997C15.8082 16.9997 15.8006 16.9996 15.7929 16.9994L6.95552 16.9991C6.40324 16.999 5.95554 16.5513 5.95557 15.999C5.95559 15.4467 6.40332 14.999 6.95561 14.9991L10.7963 14.9992C9.52695 13.8527 8.72622 12.2873 8.72622 10.4999C8.72622 6.76564 12.2214 4 16.1834 4C18.1205 4 19.9238 4.64901 21.2731 5.74499V5C21.2731 4.44772 21.7209 4 22.2731 4C22.8254 4 23.2731 4.44772 23.2731 5V8.6666C23.2731 9.14356 22.9363 9.55413 22.4686 9.64733C22.0008 9.74052 21.5323 9.49041 21.3495 9.04988C20.6413 7.34312 18.655 6 16.1834 6Z" fill="#3C3C3C"/>
</svg>
