<svg width="32" height="32" viewBox="0 0 32 32" fill="none" xmlns="http://www.w3.org/2000/svg">
<path fill-rule="evenodd" clip-rule="evenodd" d="M26 16C26 21.5228 21.5228 26 16 26C10.4772 26 6 21.5228 6 16C6 10.4772 10.4772 6 16 6C21.5228 6 26 10.4772 26 16ZM28 16C28 22.6274 22.6274 28 16 28C9.37258 28 4 22.6274 4 16C4 9.37258 9.37258 4 16 4C22.6274 4 28 9.37258 28 16ZM22.2166 13.1975C22.6018 12.8017 22.5933 12.1686 22.1975 11.7834C21.8017 11.3982 21.1686 11.4068 20.7834 11.8025L13.7326 19.0467L11.2346 16.3421C10.8599 15.9364 10.2272 15.9113 9.82151 16.286C9.4158 16.6607 9.39068 17.2934 9.7654 17.6991L12.2634 20.4037C13.0412 21.2458 14.3663 21.2632 15.1658 20.4417L22.2166 13.1975Z" fill="#3C3C3C"/>
</svg>
