<svg width="32" height="32" viewBox="0 0 32 32" fill="none" xmlns="http://www.w3.org/2000/svg">
<path d="M20.2929 14.2929C19.9024 14.6834 19.9024 15.3166 20.2929 15.7071C20.6834 16.0976 21.3166 16.0976 21.7071 15.7071L25.7071 11.7071C26.0976 11.3166 26.0976 10.6834 25.7071 10.2929L21.7071 6.29289C21.3166 5.90237 20.6834 5.90237 20.2929 6.29289C19.9024 6.68342 19.9024 7.31658 20.2929 7.70711L22.5858 10L7 10C6.44772 10 6 10.4477 6 11C6 11.5523 6.44771 12 7 12L22.5858 12L20.2929 14.2929Z" fill="#3C3C3C"/>
<path d="M11.7071 17.7071C12.0976 17.3166 12.0976 16.6834 11.7071 16.2929C11.3166 15.9024 10.6834 15.9024 10.2929 16.2929L6.29289 20.2929C5.90237 20.6834 5.90237 21.3166 6.29289 21.7071L10.2929 25.7071C10.6834 26.0976 11.3166 26.0976 11.7071 25.7071C12.0976 25.3166 12.0976 24.6834 11.7071 24.2929L9.41421 22L25 22C25.5523 22 26 21.5523 26 21C26 20.4477 25.5523 20 25 20L9.41421 20L11.7071 17.7071Z" fill="#3C3C3C"/>
</svg>
