<svg width="32" height="32" viewBox="0 0 32 32" fill="none" xmlns="http://www.w3.org/2000/svg">
<path fill-rule="evenodd" clip-rule="evenodd" d="M16.9788 7.36871L23.9387 8.0647L24.6346 15.0246L15.7822 23.877L8.12632 16.2212L16.9788 7.36871ZM25.9084 7.66216C25.8255 6.83338 25.17 6.17786 24.3412 6.09498L17.0599 5.36685C16.5376 5.31462 16.0195 5.49958 15.6483 5.87073L6.53533 14.9837C5.85191 15.6671 5.85191 16.7752 6.53533 17.4586L14.5448 25.468C15.2282 26.1514 16.3362 26.1514 17.0196 25.468L26.1326 16.355C26.5038 15.9839 26.6887 15.4657 26.6365 14.9435L25.9084 7.66216ZM19.7267 12.3234C20.2094 12.806 20.992 12.806 21.4747 12.3234C21.9574 11.8407 21.9574 11.0581 21.4747 10.5754C20.992 10.0927 20.2094 10.0927 19.7267 10.5754C19.244 11.0581 19.244 11.8407 19.7267 12.3234Z" fill="#3C3C3C"/>
</svg>
