<svg width="32" height="32" viewBox="0 0 32 32" fill="none" xmlns="http://www.w3.org/2000/svg">
<path d="M5 6C4.44772 6 4 6.44772 4 7C4 7.55228 4.44772 8 5 8H7L7 13C7 13.5523 7.44771 14 8 14C8.55228 14 9 13.5523 9 13L9 8H11C11.5523 8 12 7.55228 12 7C12 6.44772 11.5523 6 11 6H5Z" fill="#3C3C3C"/>
<path d="M16 6C15.4477 6 15 6.44772 15 7C15 7.55228 15.4477 8 16 8H27C27.5523 8 28 7.55228 28 7C28 6.44772 27.5523 6 27 6H16Z" fill="#3C3C3C"/>
<path d="M16 12C15.4477 12 15 12.4477 15 13C15 13.5523 15.4477 14 16 14H27C27.5523 14 28 13.5523 28 13C28 12.4477 27.5523 12 27 12H16Z" fill="#3C3C3C"/>
<path d="M4 19C4 18.4477 4.44772 18 5 18L27 18C27.5523 18 28 18.4477 28 19C28 19.5523 27.5523 20 27 20L5 20C4.44772 20 4 19.5523 4 19Z" fill="#3C3C3C"/>
<path d="M5 24C4.44772 24 4 24.4477 4 25C4 25.5523 4.44772 26 5 26L16 26C16.5523 26 17 25.5523 17 25C17 24.4477 16.5523 24 16 24L5 24Z" fill="#3C3C3C"/>
</svg>
