<svg width="32" height="32" viewBox="0 0 32 32" fill="none" xmlns="http://www.w3.org/2000/svg">
<path fill-rule="evenodd" clip-rule="evenodd" d="M26 16C26 21.5228 21.5228 26 16 26C10.4772 26 6 21.5228 6 16C6 10.4772 10.4772 6 16 6C21.5228 6 26 10.4772 26 16ZM28 16C28 22.6274 22.6274 28 16 28C9.37258 28 4 22.6274 4 16C4 9.37258 9.37258 4 16 4C22.6274 4 28 9.37258 28 16ZM12.6655 11.9983L16.9203 11.9983L15.2929 13.6257C15.0069 13.9117 14.9213 14.3418 15.0761 14.7154C15.2301 15.0872 15.5918 15.3303 15.9938 15.3327L16.0041 15.333C16.0168 15.3334 16.0399 15.3344 16.072 15.3367C16.1366 15.3413 16.2354 15.3511 16.3566 15.3713C16.6037 15.4124 16.9179 15.493 17.22 15.644C17.5182 15.7931 17.786 16.001 17.9814 16.2942C18.1727 16.5811 18.3345 17.0086 18.3345 17.6672C18.3345 18.3393 18.1794 18.7739 17.998 19.0615C17.8148 19.352 17.5662 19.5534 17.2892 19.6965C16.7046 19.9986 16.0731 20.0017 16 20.0017C14.6241 20.0017 14.1231 19.5096 13.9144 19.1966C13.7906 19.0109 13.7263 18.8207 13.6938 18.6747C13.6779 18.603 13.6707 18.5465 13.6675 18.5135C13.6668 18.506 13.6663 18.4998 13.666 18.495C13.6657 18.4908 13.6655 18.4877 13.6654 18.4858C13.6574 17.9405 13.2128 17.5009 12.6655 17.5009C12.1132 17.5009 11.6655 17.9486 11.6655 18.5009H12.6655C11.6655 18.5009 11.6655 18.5015 11.6655 18.5022L11.6655 18.5036L11.6655 18.5066L11.6656 18.5133L11.6659 18.5295C11.6661 18.5417 11.6666 18.5563 11.6673 18.5733C11.6688 18.6074 11.6716 18.6511 11.6765 18.7031C11.6864 18.8069 11.7053 18.9458 11.7414 19.1085C11.8132 19.4314 11.9573 19.8665 12.2503 20.306C12.8752 21.2434 14.0415 22.0017 16 22.0017H16.0025C16.1545 22.0017 17.1845 22.0019 18.2073 21.4733C18.7369 21.1996 19.2814 20.7757 19.6897 20.1284C20.0997 19.4782 20.3345 18.6624 20.3345 17.6672C20.3345 16.6586 20.0794 15.8357 19.6455 15.1848C19.2157 14.5401 18.6499 14.1229 18.1144 13.8551C18.0641 13.83 18.0138 13.806 17.9637 13.7832L20.0416 11.7054C20.3276 11.4194 20.4131 10.9893 20.2584 10.6156C20.1036 10.2419 19.7384 9.99829 19.334 9.99829L12.6655 9.99829C12.1132 9.99829 11.6655 10.446 11.6655 10.9983C11.6655 11.5506 12.1132 11.9983 12.6655 11.9983Z" fill="#3C3C3C"/>
</svg>
