<svg width="32" height="32" viewBox="0 0 32 32" fill="none" xmlns="http://www.w3.org/2000/svg">
<path fill-rule="evenodd" clip-rule="evenodd" d="M16.4925 27.3714C17.7083 28.7619 19.9981 27.902 19.9981 26.0549L19.9981 21.0005L24.7342 21.0006C25.1986 21.0049 25.659 20.9102 26.0839 20.7226C26.5107 20.5341 26.892 20.2559 27.2008 19.9064C27.5097 19.5569 27.7385 19.1444 27.8705 18.697C28.0025 18.2497 28.0341 17.7791 27.963 17.3182L27.959 17.2941L26.4185 8.70457C26.2978 7.94261 25.9034 7.25189 25.3114 6.75672C24.718 6.26032 23.9654 5.99301 23.1918 6.00015H7.23547C6.38249 6.00015 5.56128 6.33347 4.95333 6.93177C4.34483 7.53061 4 8.34623 4 9.20013V16.9001C4 17.754 4.34483 18.5696 4.95333 19.1684C5.56128 19.7667 6.38249 20.1001 7.23547 20.1001H10.1347L16.4925 27.3714ZM9.58868 18.1001H7.23547C6.90268 18.1001 6.58669 17.9698 6.35618 17.743C6.12621 17.5166 6 17.2131 6 16.9001V9.20013C6 8.88709 6.12621 8.58357 6.35618 8.35726C6.58669 8.13041 6.90268 8.00015 7.23547 8.00015H9.58868V18.1001ZM11.5887 8.00015H23.2079C23.5103 7.99679 23.8016 8.10121 24.0282 8.29076C24.2544 8.47999 24.4004 8.74046 24.4439 9.02244C24.4451 9.03053 24.4465 9.03861 24.4479 9.04667L25.9879 17.6333C26.0121 17.7997 26 17.9693 25.9522 18.1311C25.9035 18.2964 25.8185 18.4504 25.7021 18.5822C25.5856 18.714 25.4404 18.8204 25.2758 18.8931C25.1113 18.9658 24.9319 19.0026 24.7504 19.0006L24.7392 19.0005L19.9981 19.0005C18.8936 19.0005 17.9981 19.8959 17.9981 21.0005L17.9981 26.0549L11.5887 18.7245V8.00015Z" fill="#3C3C3C"/>
</svg>
