<svg width="32" height="32" viewBox="0 0 32 32" fill="none" xmlns="http://www.w3.org/2000/svg">
<path fill-rule="evenodd" clip-rule="evenodd" d="M16.4925 4.62865C17.7083 3.23814 19.9981 4.09803 19.9981 5.94511L19.9981 10.9995L24.7342 10.9994C25.1986 10.9951 25.659 11.0898 26.0839 11.2774C26.5107 11.4659 26.892 11.7441 27.2008 12.0936C27.5097 12.4431 27.7385 12.8556 27.8705 13.303C28.0025 13.7503 28.0341 14.2209 27.963 14.6818L27.959 14.7059L26.4185 23.2954C26.2978 24.0574 25.9034 24.7481 25.3114 25.2433C24.718 25.7397 23.9654 26.007 23.1918 25.9998H7.23547C6.38249 25.9998 5.56128 25.6665 4.95333 25.0682C4.34483 24.4694 4 23.6538 4 22.7999V15.0999C4 14.246 4.34483 13.4304 4.95333 12.8316C5.56128 12.2333 6.38249 11.8999 7.23547 11.8999H10.1347L16.4925 4.62865ZM9.58868 13.8999H7.23547C6.90268 13.8999 6.58669 14.0302 6.35618 14.257C6.12621 14.4834 6 14.7869 6 15.0999V22.7999C6 23.1129 6.12621 23.4164 6.35618 23.6427C6.58669 23.8696 6.90268 23.9998 7.23547 23.9998H9.58868V13.8999ZM11.5887 23.9998H23.2079C23.5103 24.0032 23.8016 23.8988 24.0282 23.7092C24.2544 23.52 24.4004 23.2595 24.4439 22.9776C24.4451 22.9695 24.4465 22.9614 24.4479 22.9533L25.9879 14.3667C26.0121 14.2003 26 14.0307 25.9522 13.8689C25.9035 13.7036 25.8185 13.5496 25.7021 13.4178C25.5856 13.286 25.4404 13.1796 25.2758 13.1069C25.1113 13.0342 24.9319 12.9974 24.7504 12.9994L24.7392 12.9995L19.9981 12.9995C18.8936 12.9995 17.9981 12.1041 17.9981 10.9995L17.9981 5.94511L11.5887 13.2755V23.9998Z" fill="#3C3C3C"/>
</svg>
