<svg width="32" height="32" viewBox="0 0 32 32" fill="none" xmlns="http://www.w3.org/2000/svg">
<path fill-rule="evenodd" clip-rule="evenodd" d="M16.9963 5C16.9963 4.44772 16.5485 4 15.9963 4C15.444 4 14.9963 4.44772 14.9963 5V7C14.9963 7.55228 15.444 8 15.9963 8C16.5485 8 16.9963 7.55228 16.9963 7V5ZM15.9965 12.0435C13.7628 12.0435 11.9521 13.8542 11.9521 16.0878C11.9521 17.4184 12.5936 18.5989 13.5885 19.3376C14.0775 19.7007 14.474 20.3013 14.474 21.0339V22H17.5184V21.0344C17.5184 20.3017 17.915 19.701 18.4041 19.3379C19.3992 18.5992 20.0409 17.4186 20.0409 16.0878C20.0409 13.8542 18.2301 12.0435 15.9965 12.0435ZM9.95212 16.0878C9.95212 12.7496 12.6583 10.0435 15.9965 10.0435C19.3347 10.0435 22.0409 12.7496 22.0409 16.0878C22.0409 18.0783 21.0777 19.8441 19.5962 20.9438C19.5588 20.9716 19.5365 21.0002 19.5257 21.0195C19.5208 21.0285 19.519 21.0339 19.5184 21.0362V22.5C19.5184 23.3284 18.8468 24 18.0184 24H13.974C13.1456 24 12.474 23.3284 12.474 22.5V21.0358C12.4734 21.0335 12.4716 21.028 12.4666 21.0191C12.4559 20.9997 12.4336 20.9711 12.3962 20.9433C10.9151 19.8436 9.95212 18.0781 9.95212 16.0878ZM12.474 27C12.474 26.4477 12.9217 26 13.474 26H18.5184C19.0707 26 19.5184 26.4477 19.5184 27C19.5184 27.5523 19.0707 28 18.5184 28H13.474C12.9217 28 12.474 27.5523 12.474 27ZM8 15.9924C8 16.5447 7.55228 16.9924 7 16.9924H5.00002C4.44774 16.9924 4.00002 16.5447 4.00002 15.9924C4.00002 15.4401 4.44774 14.9924 5.00002 14.9924H7C7.55228 14.9924 8 15.4401 8 15.9924ZM26.9899 16.9924C27.5422 16.9924 27.9899 16.5447 27.9899 15.9924C27.9899 15.4401 27.5422 14.9924 26.9899 14.9924H24.9899C24.4376 14.9924 23.9899 15.4401 23.9899 15.9924C23.9899 16.5447 24.4376 16.9924 24.9899 16.9924H26.9899ZM7.09206 7.96867C7.48259 7.57815 8.11575 7.57815 8.50628 7.96867L9.92049 9.38289C10.311 9.77341 10.311 10.4066 9.92049 10.7971C9.52997 11.1876 8.8968 11.1876 8.50628 10.7971L7.09206 9.38289C6.70154 8.99236 6.70154 8.3592 7.09206 7.96867ZM23.4862 7.96867C23.8768 7.57815 24.5099 7.57815 24.9004 7.96867C25.291 8.3592 25.291 8.99236 24.9004 9.38289L23.4862 10.7971C23.0957 11.1876 22.4625 11.1876 22.072 10.7971C21.6815 10.4066 21.6815 9.77341 22.072 9.38289L23.4862 7.96867Z" fill="#3C3C3C"/>
</svg>
