<svg width="32" height="32" viewBox="0 0 32 32" fill="none" xmlns="http://www.w3.org/2000/svg">
<path fill-rule="evenodd" clip-rule="evenodd" d="M12.9543 5.73975C12.9543 5.18746 12.5066 4.73975 11.9543 4.73975C11.402 4.73975 10.9543 5.18746 10.9543 5.73975V7.27881H5.7478C5.19551 7.27881 4.7478 7.72652 4.7478 8.27881C4.7478 8.83109 5.19551 9.27881 5.7478 9.27881H7.69391C7.71528 9.39258 7.74029 9.51492 7.76955 9.64497C7.94403 10.4205 8.27143 11.4778 8.88549 12.6292C9.26891 13.3481 9.76155 14.0985 10.3923 14.8364C9.29513 15.7461 7.86445 16.5822 5.9958 17.2051C5.47186 17.3798 5.18871 17.9461 5.36336 18.47C5.53801 18.994 6.10433 19.2771 6.62828 19.1025C8.82314 18.3708 10.5137 17.364 11.8133 16.2546C13.0912 17.3454 14.747 18.3371 16.8887 19.0655L13.515 25.8128C13.2681 26.3068 13.4683 26.9074 13.9623 27.1544C14.4562 27.4014 15.0569 27.2012 15.3039 26.7072L17.001 23.313H23.6604L25.3576 26.7072C25.6045 27.2012 26.2052 27.4014 26.6992 27.1544C27.1932 26.9074 27.3934 26.3068 27.1464 25.8128L25.1818 21.8836C25.1763 21.8721 25.1706 21.8606 25.1647 21.8493L21.2252 13.9703C21.0558 13.6315 20.7095 13.4175 20.3307 13.4175C19.952 13.4175 19.6057 13.6315 19.4363 13.9703L17.7857 17.2715C17.7368 17.2455 17.6851 17.2232 17.6308 17.2051C15.7621 16.5822 14.3314 15.7461 13.2343 14.8364C13.865 14.0985 14.3577 13.3481 14.7411 12.6292C15.3551 11.4778 15.6825 10.4205 15.857 9.64497C15.8863 9.51492 15.9113 9.39258 15.9327 9.27881H18.161C18.7133 9.27881 19.161 8.83109 19.161 8.27881C19.161 7.72652 18.7133 7.27881 18.161 7.27881H12.9543V5.73975ZM13.8891 9.27881H11.9673L11.9543 9.27889L11.9412 9.27881H9.73749C9.88453 9.90773 10.1552 10.7598 10.6502 11.688C10.9468 12.2442 11.3263 12.8323 11.8133 13.4194C12.3003 12.8323 12.6797 12.2442 12.9764 11.688C13.4714 10.7598 13.742 9.90773 13.8891 9.27881ZM22.6604 21.313L20.3307 16.6535L18.001 21.313H22.6604Z" fill="#3C3C3C"/>
</svg>
