<svg width="32" height="32" viewBox="0 0 32 32" fill="none" xmlns="http://www.w3.org/2000/svg">
<path fill-rule="evenodd" clip-rule="evenodd" d="M26 16C26 21.5228 21.5228 26 16 26C10.4772 26 6 21.5228 6 16C6 10.4772 10.4772 6 16 6C21.5228 6 26 10.4772 26 16ZM28 16C28 22.6274 22.6274 28 16 28C9.37258 28 4 22.6274 4 16C4 9.37258 9.37258 4 16 4C22.6274 4 28 9.37258 28 16ZM13.6662 14.3331C13.6662 13.9375 13.7931 13.3218 14.1445 12.8337C14.4592 12.3967 14.9924 11.9992 16 11.9992C17.0077 11.9992 17.5409 12.3967 17.8556 12.8337C18.207 13.3218 18.3339 13.9375 18.3339 14.3331C18.3339 14.8385 18.074 15.4532 17.5112 16.1567C16.9596 16.8462 16.1993 17.5177 15.4 18.1171C14.6066 18.7122 13.8077 19.2119 13.2041 19.564C12.9034 19.7395 12.6536 19.8768 12.4805 19.9696C12.3939 20.0159 12.3267 20.051 12.282 20.0741L12.2323 20.0996L12.221 20.1054L12.219 20.1064L12.2188 20.1065L12.2188 20.1065L12.2187 20.1065L12.2186 20.1066L12.2186 20.1066C11.804 20.3141 11.5864 20.7793 11.6929 21.2306C11.7995 21.6819 12.2024 22.0008 12.6662 22.0008H19.3339C19.8862 22.0008 20.3339 21.5531 20.3339 21.0008C20.3339 20.4485 19.8862 20.0008 19.3339 20.0008H16.2127C16.3412 19.9089 16.4706 19.8142 16.6 19.7171C17.4677 19.0664 18.3744 18.2793 19.0729 17.4061C19.7604 16.5468 20.3339 15.4946 20.3339 14.3331C20.3339 13.6174 20.1274 12.5662 19.4787 11.6651C18.7932 10.7131 17.6595 9.99921 16 9.99921C14.3406 9.99921 13.2069 10.7131 12.5214 11.6651C11.8726 12.5662 11.6662 13.6174 11.6662 14.3331C11.6662 14.8854 12.1139 15.3331 12.6662 15.3331C13.2185 15.3331 13.6662 14.8854 13.6662 14.3331Z" fill="#3C3C3C"/>
</svg>
