<svg width="32" height="32" viewBox="0 0 32 32" fill="none" xmlns="http://www.w3.org/2000/svg">
<path fill-rule="evenodd" clip-rule="evenodd" d="M4.64294 7.5C4.64294 6.67157 5.31452 6 6.14294 6H25.8572C26.6857 6 27.3572 6.67157 27.3572 7.5V10.5036C27.3572 11.2817 26.7647 11.9215 26.0062 11.9963V24.5001C26.0062 25.3285 25.3346 26.0001 24.5062 26.0001H7.49377C6.66535 26.0001 5.99377 25.3285 5.99377 24.5001V11.9963C5.23538 11.9214 4.64294 11.2817 4.64294 10.5036V7.5ZM6.64294 8V10.0036H25.3572V8H6.64294ZM7.99377 12.0036V24.0001H24.0062V12.0036H7.99377ZM17.7983 18.2097C18.1888 18.6002 18.822 18.6002 19.2125 18.2097C19.603 17.8192 19.603 17.186 19.2125 16.7955L16.7073 14.2903C16.5197 14.1027 16.2654 13.9974 16.0002 13.9974C15.735 13.9974 15.4806 14.1027 15.2931 14.2903L12.7879 16.7955C12.3973 17.186 12.3973 17.8192 12.7879 18.2097C13.1784 18.6002 13.8116 18.6002 14.2021 18.2097L15.0002 17.4116V21.0098C15.0002 21.5621 15.4479 22.0098 16.0002 22.0098C16.5525 22.0098 17.0002 21.5621 17.0002 21.0098V17.4116L17.7983 18.2097Z" fill="#3C3C3C"/>
</svg>
