<svg width="32" height="32" viewBox="0 0 32 32" fill="none" xmlns="http://www.w3.org/2000/svg">
<path fill-rule="evenodd" clip-rule="evenodd" d="M5.98834 5C5.98834 4.44772 6.43606 4 6.98834 4H11.2218C11.7741 4 12.2218 4.44772 12.2218 5C12.2218 5.55228 11.7741 6 11.2218 6H10.1105V16.1206C10.1105 19.3677 12.7428 22 15.9899 22C19.237 22 21.8693 19.3677 21.8693 16.1206V6H20.751C20.1987 6 19.751 5.55228 19.751 5C19.751 4.44772 20.1987 4 20.751 4H24.9884C25.5407 4 25.9884 4.44772 25.9884 5C25.9884 5.55228 25.5407 6 24.9884 6H23.8693V16.1206C23.8693 20.4723 20.3416 24 15.9899 24C11.6382 24 8.11047 20.4723 8.11047 16.1206V6H6.98834C6.43606 6 5.98834 5.55228 5.98834 5ZM7 26C6.44772 26 6 26.4477 6 27C6 27.5523 6.44772 28 7 28L25 28C25.5523 28 26 27.5523 26 27C26 26.4477 25.5523 26 25 26L7 26Z" fill="#3C3C3C"/>
</svg>
