<svg width="32" height="32" viewBox="0 0 32 32" fill="none" xmlns="http://www.w3.org/2000/svg">
<path fill-rule="evenodd" clip-rule="evenodd" d="M9.49817 8C9.49817 7.44772 9.94588 7 10.4982 7L27 7C27.5522 7 28 7.44772 28 8C28 8.55228 27.5522 9 27 9L10.4982 9C9.94588 9 9.49817 8.55228 9.49817 8Z" fill="#3C3C3C"/>
<path fill-rule="evenodd" clip-rule="evenodd" d="M9.49817 16C9.49817 15.4477 9.94588 15 10.4982 15L27 15C27.5522 15 28 15.4477 28 16C28 16.5523 27.5522 17 27 17L10.4982 17C9.94588 17 9.49817 16.5523 9.49817 16Z" fill="#3C3C3C"/>
<path fill-rule="evenodd" clip-rule="evenodd" d="M9.49817 24C9.49817 23.4477 9.94588 23 10.4982 23L27 23C27.5522 23 28 23.4477 28 24C28 24.5523 27.5522 25 27 25L10.4982 25C9.94588 25 9.49817 24.5523 9.49817 24Z" fill="#3C3C3C"/>
<path d="M7.5 8C7.5 8.9665 6.7165 9.75 5.75 9.75C4.7835 9.75 4 8.9665 4 8C4 7.0335 4.7835 6.25 5.75 6.25C6.7165 6.25 7.5 7.0335 7.5 8Z" fill="#3C3C3C"/>
<path d="M7.5 16C7.5 16.9665 6.7165 17.75 5.75 17.75C4.7835 17.75 4 16.9665 4 16C4 15.0335 4.7835 14.25 5.75 14.25C6.7165 14.25 7.5 15.0335 7.5 16Z" fill="#3C3C3C"/>
<path d="M7.5 24C7.5 24.9665 6.7165 25.75 5.75 25.75C4.7835 25.75 4 24.9665 4 24C4 23.0335 4.7835 22.25 5.75 22.25C6.7165 22.25 7.5 23.0335 7.5 24Z" fill="#3C3C3C"/>
</svg>
