<svg width="32" height="32" viewBox="0 0 32 32" fill="none" xmlns="http://www.w3.org/2000/svg">
<path d="M21.9262 10.7881C21.5356 11.1786 20.9025 11.1786 20.5119 10.7881L17 7.27614V20.6421C17 21.1944 16.5523 21.6421 16 21.6421C15.4477 21.6421 15 21.1944 15 20.6421V7.27614L11.4881 10.7881C11.0975 11.1786 10.4644 11.1786 10.0738 10.7881C9.68331 10.3976 9.68331 9.7644 10.0738 9.37388L15.0572 4.39052C15.5779 3.86982 16.4221 3.86983 16.9428 4.39052L21.9262 9.37388C22.3167 9.7644 22.3167 10.3976 21.9262 10.7881Z" fill="#3C3C3C"/>
<path d="M6 26C6 27.1046 6.89543 28 8 28H24C25.1046 28 26 27.1046 26 26V22C26 21.4477 25.5523 21 25 21C24.4477 21 24 21.4477 24 22V26H8L8 22C8 21.4477 7.55228 21 7 21C6.44772 21 6 21.4477 6 22V26Z" fill="#3C3C3C"/>
</svg>
