<svg width="32" height="32" viewBox="0 0 32 32" fill="none" xmlns="http://www.w3.org/2000/svg">
<path fill-rule="evenodd" clip-rule="evenodd" d="M14.8264 4.55444C15.4269 3.80006 16.573 3.80005 17.1735 4.55441L21.1051 9.49314L25.3242 7.0427C26.4541 6.38643 27.8245 7.38828 27.542 8.66407L25.0071 20.1123L25.0071 24.5C25.0071 25.3285 24.3356 26 23.5071 26H8.50323C7.67481 26 7.00323 25.3285 7.00323 24.5L7.00323 20.1127L4.45914 8.66582C4.17552 7.38972 5.54634 6.38675 6.67675 7.04328L10.8949 9.49314L14.8264 4.55444ZM9.00323 21.0029L9.00323 24H23.0071L23.0071 21.0029H9.00323ZM23.2044 19.0029L25.3429 9.34467L21.7362 11.4395C21.0928 11.8131 20.2727 11.6587 19.8093 11.0766L16 6.29145L12.1908 11.0766C11.7274 11.6587 10.9073 11.8131 10.2639 11.4395L6.65908 9.34586L8.80538 19.0029H23.2044Z" fill="#3C3C3C"/>
</svg>
