<svg width="32" height="32" viewBox="0 0 32 32" fill="none" xmlns="http://www.w3.org/2000/svg">
<path fill-rule="evenodd" clip-rule="evenodd" d="M16 6C13.7908 6 12 7.79086 12 10C12 12.2091 13.7908 14 16 14C18.2091 14 20 12.2091 20 10C20 7.79086 18.2091 6 16 6ZM9.99998 10C9.99998 6.68629 12.6863 4 16 4C19.3137 4 22 6.68629 22 10C22 13.3137 19.3137 16 16 16C12.6863 16 9.99998 13.3137 9.99998 10Z" fill="#3C3C3C"/>
<path fill-rule="evenodd" clip-rule="evenodd" d="M18.4999 20H13.4999C10.4623 20 7.99988 22.4624 7.99988 25.5V26H23.9999V25.5C23.9999 22.4624 21.5374 20 18.4999 20ZM13.4999 18C9.35774 18 5.99988 21.3579 5.99988 25.5V27C5.99988 27.5523 6.44759 28 6.99988 28H24.9999C25.5521 28 25.9999 27.5523 25.9999 27V25.5C25.9999 21.3579 22.642 18 18.4999 18H13.4999Z" fill="#3C3C3C"/>
</svg>
