<svg width="32" height="32" viewBox="0 0 32 32" fill="none" xmlns="http://www.w3.org/2000/svg">
<path fill-rule="evenodd" clip-rule="evenodd" d="M5.43533 4.04045C5.0437 3.66562 4.42234 3.67083 4.03709 4.05608C3.64657 4.4466 3.64657 5.07977 4.03709 5.47029L4.89778 6.33097C4.3568 6.68893 4.00001 7.30285 4.00001 8.00009V24.0001C4.00001 25.1047 4.89544 26.0001 6.00001 26.0001H21C21.9696 26.0001 22.7781 25.3101 22.9612 24.3944L26.5625 27.9957C26.953 28.3862 27.5862 28.3862 27.9767 27.9957C28.362 27.6105 28.3672 26.9891 27.9923 26.5975L5.43533 4.04045ZM26.6702 22.4469L27.4453 22.9636C28.1099 23.4067 29 22.9303 29 22.1316V9.86861C29 9.06991 28.1099 8.59352 27.4453 9.03656L23 12.0001V8.00009C23 6.89552 22.1046 6.00009 21 6.00009H10.2234L12.2234 8.00009H21V12.0001V15.7371V16.2631V16.7767L26.6702 22.4469ZM6.00001 8.00009H6.5669L21 22.4332V24.0001H6.00001V8.00009ZM27 20.2631L23 17.5964V14.4038L27 11.7371V20.2631Z" fill="#3C3C3C"/>
</svg>
