<svg width="32" height="32" viewBox="0 0 32 32" fill="none" xmlns="http://www.w3.org/2000/svg">
<path fill-rule="evenodd" clip-rule="evenodd" d="M14.8424 4.53832C15.3481 3.62072 16.667 3.62109 17.1723 4.53896L27.9009 24.0286C28.3888 24.915 27.7476 26 26.7358 26H5.26451C4.25237 26 3.61116 24.9143 4.09974 24.0279L14.8424 4.53832ZM16.0068 6.56899L6.39886 24H25.6021L16.0068 6.56899ZM15.9999 11.8843C16.5522 11.8843 16.9999 12.332 16.9999 12.8843V16.6129C16.9999 17.1652 16.5522 17.6129 15.9999 17.6129C15.4476 17.6129 14.9999 17.1652 14.9999 16.6129V12.8843C14.9999 12.332 15.4476 11.8843 15.9999 11.8843ZM16 21.884C16.6904 21.884 17.25 21.3298 17.25 20.6462C17.25 19.9626 16.6904 19.4084 16 19.4084C15.3096 19.4084 14.75 19.9626 14.75 20.6462C14.75 21.3298 15.3096 21.884 16 21.884Z" fill="#3C3C3C"/>
</svg>
