<svg width="32" height="32" viewBox="0 0 32 32" fill="none" xmlns="http://www.w3.org/2000/svg">
<path fill-rule="evenodd" clip-rule="evenodd" d="M16 11C13.7909 11 12 12.7909 12 15C12 17.2091 13.7909 19 16 19C18.2091 19 20 17.2091 20 15C20 12.7909 18.2091 11 16 11ZM14 15C14 13.8954 14.8954 13 16 13C17.1046 13 18 13.8954 18 15C18 16.1046 17.1046 17 16 17C14.8954 17 14 16.1046 14 15Z" fill="#3C3C3C"/>
<path fill-rule="evenodd" clip-rule="evenodd" d="M6 26H26C27.1046 26 28 25.1046 28 24V8C28 6.89543 27.1046 6 26 6H6C4.89543 6 4 6.89543 4 8V24C4 25.1046 4.89543 26 6 26ZM26 8H6L6 24H9.34141C10.1651 21.6696 12.3876 20 15 20H17C19.6124 20 21.8349 21.6696 22.6586 24H26V8ZM17 22C18.4806 22 19.7733 22.8044 20.4649 24H11.5351C12.2267 22.8044 13.5194 22 15 22H17Z" fill="#3C3C3C"/>
</svg>
