<svg width="32" height="32" viewBox="0 0 32 32" fill="none" xmlns="http://www.w3.org/2000/svg">
<path fill-rule="evenodd" clip-rule="evenodd" d="M11.05 7C8.20337 7 6 9.17513 6 12C6 13.7651 6.79107 15.5709 8.37148 17.6306C9.95377 19.6926 12.2433 21.9027 15.0768 24.4721L15.0782 24.4734L15.9355 25.2539C15.9589 25.2752 15.9813 25.2976 16.0026 25.321C16.0239 25.2976 16.0464 25.2753 16.0699 25.2541L16.9225 24.4838L16.9234 24.483C19.7567 21.9083 22.0461 19.6956 23.6284 17.6322C25.209 15.571 26 13.7651 26 12C26 9.17513 23.7967 7 20.95 7C19.2221 7 17.7105 7.53373 16.7614 8.64834C16.5714 8.87145 16.2931 9 16 9C15.707 9 15.4287 8.87145 15.2387 8.64834C14.2895 7.53373 12.7779 7 11.05 7ZM4 12C4 8.04885 7.12064 5 11.05 5C12.8081 5 14.6098 5.4557 16 6.60226C17.3902 5.4557 19.192 5 20.95 5C24.8794 5 28 8.04885 28 12C28 14.3929 26.9211 16.6249 25.2154 18.8492C23.5117 21.071 21.0989 23.391 18.2676 25.964L18.2654 25.9659L17.4408 26.7109C17.0585 27.1087 16.5468 27.3409 15.9989 27.3399C15.4509 27.3389 14.9401 27.1047 14.5592 26.7056L13.7333 25.9537L13.7323 25.9528C10.9012 23.3855 8.48855 21.0685 6.78478 18.8481C5.07893 16.625 4 14.3929 4 12ZM11 16C11 15.4477 11.4477 15 12 15H15V12C15 11.4477 15.4477 11 16 11C16.5523 11 17 11.4477 17 12V15H20C20.5523 15 21 15.4477 21 16C21 16.5523 20.5523 17 20 17H17V20C17 20.5523 16.5523 21 16 21C15.4477 21 15 20.5523 15 20V17H12C11.4477 17 11 16.5523 11 16Z" fill="#3C3C3C"/>
</svg>
