<svg width="32" height="32" viewBox="0 0 32 32" fill="none" xmlns="http://www.w3.org/2000/svg">
<path d="M11 14.5C11.8284 14.5 12.5 13.8284 12.5 13C12.5 12.1716 11.8284 11.5 11 11.5C10.1716 11.5 9.50001 12.1716 9.50001 13C9.50001 13.8284 10.1716 14.5 11 14.5Z" fill="#3C3C3C"/>
<path d="M19.5 14.5C20.3284 14.5 21 13.8284 21 13C21 12.1716 20.3284 11.5 19.5 11.5C18.6716 11.5 18 12.1716 18 13C18 13.8284 18.6716 14.5 19.5 14.5Z" fill="#3C3C3C"/>
<path fill-rule="evenodd" clip-rule="evenodd" d="M14.75 12.5L17 17H12.5L14.75 12.5Z" fill="#3C3C3C"/>
<path fill-rule="evenodd" clip-rule="evenodd" d="M16 10C16 9.44772 16.4477 9 17 9H22.5C23.0523 9 23.5 9.44772 23.5 10C23.5 10.5523 23.0523 11 22.5 11H17C16.4477 11 16 10.5523 16 10Z" fill="#3C3C3C"/>
<path fill-rule="evenodd" clip-rule="evenodd" d="M11.9806 9.80388C12.0889 10.3454 11.7377 10.8723 11.1961 10.9806L6.19613 11.9806C5.65457 12.0889 5.12774 11.7377 5.01943 11.1961C4.91112 10.6546 5.26233 10.1277 5.80389 10.0194L10.8039 9.01942C11.3455 8.91111 11.8723 9.26232 11.9806 9.80388Z" fill="#3C3C3C"/>
<path fill-rule="evenodd" clip-rule="evenodd" d="M21.8849 17.2274C22.1161 17.4174 22.25 17.7008 22.25 18C22.25 19.3119 21.9749 20.4767 21.2964 21.3702C20.6007 22.2864 19.5831 22.7837 18.3806 22.9421C15.9628 23.2604 13.9548 22.2612 12.4397 20.1663C12.24 19.8901 12.1947 19.5313 12.3194 19.2141C12.4442 18.897 12.7219 18.6652 13.0562 18.5992L21.0562 17.019C21.3497 16.961 21.6538 17.0375 21.8849 17.2274ZM15.2122 20.212C16.0792 20.8759 17.0395 21.1014 18.1194 20.9592C18.9169 20.8542 19.3993 20.5613 19.7036 20.1607C19.8756 19.9342 20.0199 19.6347 20.1169 19.2431L15.2122 20.212Z" fill="#3C3C3C"/>
<path fill-rule="evenodd" clip-rule="evenodd" d="M8.00001 8V24H24V8H8.00001ZM7.00001 6C6.44772 6 6.00001 6.44772 6.00001 7V25C6.00001 25.5523 6.44773 26 7.00001 26H25C25.5523 26 26 25.5523 26 25V7C26 6.44772 25.5523 6 25 6H7.00001Z" fill="#3C3C3C"/>
</svg>
