<svg width="32" height="32" viewBox="0 0 32 32" fill="none" xmlns="http://www.w3.org/2000/svg">
<path d="M8 4C6.89543 4 6 4.89543 6 6V21.5C6 22.6046 6.89543 23.5 8 23.5H11.6439L11.8189 21.5H8V6H19V8.52493L21 8.69991V6C21 4.89543 20.1046 4 19 4H8Z" fill="#3C3C3C"/>
<path fill-rule="evenodd" clip-rule="evenodd" d="M11.9166 8.90904C12.0129 7.80867 12.983 6.99469 14.0834 7.09096L25.5396 8.09325C26.64 8.18952 27.4539 9.15959 27.3577 10.26L25.9632 26.1991C25.8669 27.2994 24.8968 28.1134 23.7965 28.0171L12.3402 27.0149C11.2399 26.9186 10.4259 25.9485 10.5222 24.8482L11.9166 8.90904ZM25.3653 10.0856L13.909 9.08335L12.5145 25.0225L23.9708 26.0248L25.3653 10.0856Z" fill="#3C3C3C"/>
<path fill-rule="evenodd" clip-rule="evenodd" d="M15.472 18.1508C15.941 17.8591 16.5576 18.003 16.8492 18.472C17.8172 20.029 20.0089 20.2207 21.2325 18.8555C21.6011 18.4442 22.2333 18.4097 22.6446 18.7783C23.0559 19.1469 23.0904 19.7791 22.7218 20.1904C20.6083 22.5485 16.8227 22.2173 15.1508 19.528C14.8591 19.059 15.003 18.4424 15.472 18.1508Z" fill="#3C3C3C"/>
<path d="M16.8219 16.0795C17.3721 16.1277 17.8571 15.7207 17.9052 15.1705C17.9534 14.6203 17.5464 14.1353 16.9962 14.0872C16.446 14.039 15.961 14.446 15.9128 14.9962C15.8647 15.5464 16.2717 16.0314 16.8219 16.0795Z" fill="#3C3C3C"/>
<path d="M21.3219 16.5795C21.8721 16.6277 22.3571 16.2207 22.4052 15.6705C22.4534 15.1203 22.0464 14.6353 21.4962 14.5872C20.946 14.539 20.461 14.946 20.4128 15.4962C20.3647 16.0464 20.7717 16.5314 21.3219 16.5795Z" fill="#3C3C3C"/>
</svg>
