<svg width="24" height="24" viewBox="0 0 24 24" fill="none" xmlns="http://www.w3.org/2000/svg">
<path fill-rule="evenodd" clip-rule="evenodd" d="M7.75293 2.5C8.16714 2.5 8.50293 2.83579 8.50293 3.25V4H15.5V3.25C15.5 2.83579 15.8358 2.5 16.25 2.5C16.6642 2.5 17 2.83579 17 3.25V4H18.5C19.3284 4 20 4.67157 20 5.5V18.5C20 19.3284 19.3284 20 18.5 20H5.5C4.67157 20 4 19.3284 4 18.5V5.5C4 4.67157 4.67157 4 5.5 4H7.00293V3.25C7.00293 2.83579 7.33872 2.5 7.75293 2.5ZM15.5 5.5V6.25C15.5 6.66421 15.8358 7 16.25 7C16.6642 7 17 6.66421 17 6.25V5.5H18.5V18.5H5.5V5.5H7.00293V6.25C7.00293 6.66421 7.33872 7 7.75293 7C8.16714 7 8.50293 6.66421 8.50293 6.25V5.5H15.5ZM12 8C12.4142 8 12.75 8.33579 12.75 8.75V11.25H15.25C15.6642 11.25 16 11.5858 16 12C16 12.4142 15.6642 12.75 15.25 12.75H12.75V15.25C12.75 15.6642 12.4142 16 12 16C11.5858 16 11.25 15.6642 11.25 15.25V12.75H8.75C8.33579 12.75 8 12.4142 8 12C8 11.5858 8.33579 11.25 8.75 11.25H11.25V8.75C11.25 8.33579 11.5858 8 12 8Z" fill="#3C3C3C"/>
</svg>
