<svg width="24" height="24" viewBox="0 0 24 24" fill="none" xmlns="http://www.w3.org/2000/svg">
<path fill-rule="evenodd" clip-rule="evenodd" d="M12.0107 4.5095C7.86452 4.5095 4.50342 7.87061 4.50342 12.0167C4.50342 14.0679 5.32603 15.9269 6.65934 17.2819C7.26635 15.918 8.2721 14.7931 9.52358 14.1306C8.66457 13.4315 8.11584 12.3657 8.11584 11.1718C8.11584 9.06598 9.82298 7.35885 11.9288 7.35885C14.0347 7.35885 15.7418 9.06598 15.7418 11.1718C15.7418 12.3435 15.2133 13.3918 14.3817 14.0912C14.6483 14.2259 14.9118 14.3811 15.1672 14.5549C15.5096 14.7879 15.5983 15.2544 15.3653 15.5969C15.1323 15.9393 14.6657 16.028 14.3233 15.795C13.508 15.2402 12.6829 14.9848 12.1107 14.9848C10.2563 14.9848 8.5846 16.2962 7.87253 18.2815C9.05893 19.0667 10.4814 19.524 12.0107 19.524C12.4249 19.524 12.7607 19.8598 12.7607 20.274C12.7607 20.6882 12.4249 21.024 12.0107 21.024C7.0361 21.024 3.00342 16.9913 3.00342 12.0167C3.00342 7.04218 7.0361 3.0095 12.0107 3.0095C16.9852 3.0095 21.0179 7.04218 21.0179 12.0167C21.0179 12.431 20.6821 12.7667 20.2679 12.7667C19.8537 12.7667 19.5179 12.431 19.5179 12.0167C19.5179 7.87061 16.1568 4.5095 12.0107 4.5095ZM11.9288 8.85885C10.6514 8.85885 9.61584 9.89441 9.61584 11.1718C9.61584 12.4493 10.6514 13.4848 11.9288 13.4848C13.2063 13.4848 14.2418 12.4493 14.2418 11.1718C14.2418 9.89441 13.2063 8.85885 11.9288 8.85885Z" fill="#3C3C3C"/>
<path d="M18.248 14.4998C18.6623 14.4998 18.998 14.8356 18.998 15.2498V17.4999H21.248C21.6623 17.4999 21.998 17.8357 21.998 18.2499C21.998 18.6641 21.6623 18.9999 21.248 18.9999H18.998V21.2498C18.998 21.664 18.6623 21.9998 18.248 21.9998C17.8338 21.9998 17.498 21.664 17.498 21.2498V18.9999H15.248C14.8338 18.9999 14.498 18.6641 14.498 18.2499C14.498 17.8357 14.8338 17.4999 15.248 17.4999H17.498V15.2498C17.498 14.8356 17.8338 14.4998 18.248 14.4998Z" fill="#3C3C3C"/>
</svg>
