<svg width="24" height="24" viewBox="0 0 24 24" fill="none" xmlns="http://www.w3.org/2000/svg">
<path fill-rule="evenodd" clip-rule="evenodd" d="M12 19.5C16.1421 19.5 19.5 16.1421 19.5 12C19.5 7.85786 16.1421 4.5 12 4.5C7.85786 4.5 4.5 7.85786 4.5 12C4.5 16.1421 7.85786 19.5 12 19.5ZM12 21C16.9706 21 21 16.9706 21 12C21 7.02944 16.9706 3 12 3C7.02944 3 3 7.02944 3 12C3 16.9706 7.02944 21 12 21ZM14.8376 7.61897C15.7551 7.43545 16.5641 8.24444 16.3806 9.16201L15.349 14.3202C15.2452 14.8393 14.8394 15.245 14.3203 15.3489L9.16245 16.3808C8.24489 16.5643 7.43586 15.7554 7.61932 14.8378L8.65071 9.67937C8.7545 9.16023 9.16028 8.75442 9.67942 8.6506L14.8376 7.61897ZM14.8542 9.14534L10.0969 10.0968L9.14569 14.8544L13.9028 13.9027L14.8542 9.14534ZM12 13.1223C12.62 13.1223 13.1227 12.6197 13.1227 11.9996C13.1227 11.3796 12.62 10.877 12 10.877C11.38 10.877 10.8773 11.3796 10.8773 11.9996C10.8773 12.6197 11.38 13.1223 12 13.1223Z" fill="#3C3C3C"/>
</svg>
