<svg width="24" height="24" viewBox="0 0 24 24" fill="none" xmlns="http://www.w3.org/2000/svg">
<path fill-rule="evenodd" clip-rule="evenodd" d="M9.49899 4.00016C10.9883 4.0359 12.4034 4.65656 13.4383 5.72733C13.485 5.76996 13.5239 5.81164 13.549 5.83852L13.5539 5.84378C13.5864 5.87848 13.6027 5.8954 13.62 5.9108C13.6301 5.91979 13.6399 5.92914 13.6493 5.93883C14.1113 6.41445 14.6701 6.78528 15.2878 7.02624C15.9052 7.26708 16.5671 7.37257 17.2287 7.33559C17.9131 7.29437 18.5803 7.10442 19.1838 6.77898C19.3705 6.67827 19.5984 6.69318 19.7704 6.81735C19.9425 6.94152 20.0284 7.1531 19.9916 7.36205C19.9536 7.57788 19.9035 7.79047 19.8417 7.99889C19.8271 8.0481 19.8118 8.09708 19.7959 8.14581L19.7935 8.15314C19.4796 9.11173 18.9168 9.97554 18.1562 10.6526C17.1914 11.5116 15.965 12.0198 14.6754 12.095C14.6647 12.0956 14.6539 12.0959 14.6432 12.0959L14.2013 12.0959C13.8269 12.095 13.454 12.0501 13.0901 11.9622C12.6935 11.8844 12.2887 11.8564 11.8851 11.879C11.1599 11.9233 10.4552 12.1377 9.82822 12.5048C9.30609 12.8105 8.84998 13.2149 8.48471 13.6943L10.4154 18.9957C10.5568 19.3841 10.3566 19.8136 9.96825 19.955C9.57992 20.0964 9.15048 19.8962 9.00906 19.5079L5.84219 10.8119L4.45546 7.00695C4.45399 7.00275 4.45275 6.99837 4.45173 6.99382L4.04779 5.88462C3.90636 5.49627 4.10654 5.0668 4.4949 4.92539C4.88323 4.78399 5.31267 4.98415 5.45409 5.37248L5.4955 5.48619C5.85835 5.15353 6.26386 4.86852 6.7024 4.63914C7.41867 4.2645 8.20659 4.04692 9.01361 4.0009C9.0241 4.0003 9.03461 4 9.04512 4H9.48571L9.49899 4.00016ZM17.3189 8.83288C17.488 8.82269 17.6564 8.80562 17.8235 8.78176C17.6336 9.05563 17.4109 9.30786 17.1588 9.53231C16.4528 10.1609 15.5571 10.5351 14.6143 10.5959L14.2033 10.5959C13.947 10.5952 13.6917 10.5644 13.4426 10.5042C13.4214 10.499 13.4001 10.4944 13.3788 10.4902C12.8596 10.3884 12.3297 10.3518 11.8014 10.3813L11.8014 10.3813L11.7936 10.3818C10.8334 10.4405 9.90051 10.7243 9.07035 11.2103C8.64691 11.4582 8.25626 11.7552 7.90597 12.094L6.07127 7.05988C6.43304 6.60836 6.88462 6.23662 7.39761 5.96831C7.91733 5.69647 8.4883 5.53696 9.07346 5.5H9.47377C10.565 5.52901 11.6012 5.98499 12.3598 6.76979C12.381 6.79176 12.4029 6.81307 12.4254 6.83369C12.4259 6.8342 12.4274 6.83562 12.4298 6.83812C12.435 6.84338 12.4403 6.84898 12.4529 6.86253L12.453 6.8626L12.4579 6.86785L12.4585 6.86851L12.463 6.87335L12.463 6.87336C12.488 6.90004 12.5352 6.95055 12.5942 7.00536C13.2018 7.6248 13.9341 8.10827 14.7427 8.42369C15.5601 8.74254 16.4364 8.88221 17.3124 8.83326L17.3124 8.83327L17.3189 8.83288ZM12.4254 6.83369C12.4258 6.83402 12.4261 6.83434 12.4265 6.83466C12.4256 6.83389 12.4252 6.83348 12.4252 6.83348C12.4252 6.83348 12.4253 6.83355 12.4254 6.83369Z" fill="#3C3C3C"/>
</svg>
