<svg width="24" height="24" viewBox="0 0 24 24" fill="none" xmlns="http://www.w3.org/2000/svg">
<path fill-rule="evenodd" clip-rule="evenodd" d="M8.97478 9.50187C8.29788 8.82498 8.29788 7.72752 8.97477 7.05063C9.65167 6.37374 10.7491 6.37374 11.426 7.05063L13.0484 8.67298C13.3413 8.96587 13.3413 9.44074 13.0484 9.73364C12.7555 10.0265 12.2806 10.0265 11.9877 9.73364L10.3654 8.11129C10.2743 8.02019 10.1265 8.02019 10.0354 8.11129C9.94433 8.2024 9.94433 8.35011 10.0354 8.44121C10.3283 8.73411 10.3283 9.20898 10.0354 9.50187C9.74254 9.79477 9.26767 9.79477 8.97478 9.50187ZM13.8894 10.4758C13.4338 9.65123 13.7208 8.61016 14.5402 8.13709C15.3689 7.65864 16.4284 7.94227 16.9073 8.77054C16.9075 8.77087 16.9077 8.77119 16.9079 8.77152L18.9605 12.3029C18.9646 12.3099 18.9686 12.317 18.9725 12.3242C19.5822 13.4566 19.8017 14.6185 19.569 15.7818C19.3387 16.9336 18.6814 18.0064 17.6836 19.0042C16.7172 19.9706 15.3703 20.602 13.8026 20.4902C13.3894 20.4607 13.0783 20.1019 13.1078 19.6887C13.1372 19.2756 13.4961 18.9645 13.9092 18.994C14.9848 19.0707 15.9203 18.6462 16.623 17.9435C17.4793 17.0872 17.9422 16.2672 18.0981 15.4877C18.2511 14.7227 18.1246 13.918 17.6574 13.0458L15.61 9.52341L15.6089 9.52152C15.5444 9.40993 15.4018 9.37171 15.2902 9.43613C15.1786 9.50055 15.1404 9.64323 15.2048 9.75481C15.2146 9.7717 15.2237 9.78898 15.2321 9.80658L16.6713 12.8201C16.8498 13.1938 16.6915 13.6416 16.3177 13.8201C15.9439 13.9986 15.4962 13.8403 15.3177 13.4665L13.8894 10.4758Z" fill="#3C3C3C"/>
<path fill-rule="evenodd" clip-rule="evenodd" d="M4.08956 10.1138C3.67659 9.44551 3.7599 8.55757 4.33949 7.97797C4.91909 7.39838 5.80703 7.31507 6.47527 7.72804C6.5292 7.65323 6.58981 7.58176 6.65713 7.51445C7.33402 6.83756 8.43148 6.83756 9.10837 7.51445L11.3841 9.79021C11.4726 9.30761 11.7643 8.86545 12.2225 8.6009C13.0511 8.12254 14.1104 8.40599 14.5895 9.23394C14.5897 9.2344 14.59 9.23486 14.5903 9.23533L16.6429 12.7667C16.647 12.7737 16.651 12.7808 16.6548 12.788C17.2646 13.9204 17.484 15.0823 17.2514 16.2456C17.021 17.3974 16.3637 18.4702 15.366 19.468C14.4271 20.4069 13.1284 21.0304 11.6149 20.9616C10.1048 20.8929 8.48883 20.1409 6.88889 18.5409L3.6442 15.2962C2.96731 14.6194 2.96731 13.5219 3.6442 12.845C3.70057 12.7886 3.75986 12.737 3.82158 12.69C3.19959 12.0098 3.21772 10.9539 3.87597 10.2956C3.94328 10.2283 4.01475 10.1677 4.08956 10.1138ZM5.26655 11.3563C5.17544 11.2652 5.02773 11.2652 4.93663 11.3563C4.84552 11.4474 4.84552 11.5951 4.93663 11.6862L6.09545 12.845C6.38834 13.1379 6.38834 13.6128 6.09545 13.9057C5.80255 14.1986 5.32768 14.1986 5.03478 13.9057C4.94368 13.8146 4.79597 13.8146 4.70486 13.9057C4.61376 13.9968 4.61376 14.1445 4.70486 14.2356L7.94955 17.4803C9.36254 18.8933 10.6437 19.4159 11.683 19.4631C12.7188 19.5102 13.6219 19.0908 14.3053 18.4073C15.1617 17.551 15.6246 16.731 15.7805 15.9515C15.9335 15.1865 15.8069 14.3818 15.3397 13.5096L13.2923 9.98723L13.2912 9.98533C13.2268 9.87375 13.0841 9.83552 12.9725 9.89994C12.861 9.96436 12.8227 10.107 12.8872 10.2186C12.8979 10.2373 12.9079 10.2564 12.917 10.2759L13.8927 12.3623C14.0469 12.6922 13.942 13.0852 13.6438 13.2942C13.3457 13.5032 12.9405 13.4679 12.683 13.2104L8.04771 8.57511C7.9566 8.484 7.80889 8.484 7.71779 8.57511C7.62668 8.66621 7.62668 8.81392 7.71779 8.90503C8.01068 9.19792 8.01068 9.6728 7.71779 9.96569C7.4249 10.2586 6.95002 10.2586 6.65713 9.96569L5.73007 9.03864C5.63897 8.94753 5.49126 8.94753 5.40015 9.03864C5.30905 9.12974 5.30905 9.27745 5.40015 9.36856L6.32721 10.2956C6.6201 10.5885 6.6201 11.0634 6.32721 11.3563C6.03432 11.6492 5.55944 11.6492 5.26655 11.3563Z" fill="#3C3C3C"/>
<path fill-rule="evenodd" clip-rule="evenodd" d="M5.0348 12.8451C5.3277 12.5522 5.80255 12.5521 6.09545 12.845L7.83369 14.5833C8.12658 14.8762 8.12658 15.3511 7.83369 15.644C7.5408 15.9369 7.06592 15.9369 6.77303 15.644L5.03478 13.9057C4.74189 13.6128 4.74191 13.138 5.0348 12.8451Z" fill="#3C3C3C"/>
<path fill-rule="evenodd" clip-rule="evenodd" d="M5.2666 10.2956C5.55949 10.0027 6.03432 10.0027 6.32721 10.2956L8.99254 12.9609C9.28543 13.2538 9.28543 13.7287 8.99254 14.0216C8.69965 14.3145 8.22477 14.3145 7.93188 14.0216L5.26655 11.3563C4.97365 11.0634 4.97371 10.5885 5.2666 10.2956Z" fill="#3C3C3C"/>
<path fill-rule="evenodd" clip-rule="evenodd" d="M6.65715 8.90496C6.95004 8.61206 7.4249 8.61214 7.71779 8.90503L10.3831 11.5702C10.676 11.8631 10.676 12.338 10.3831 12.6309C10.0902 12.9238 9.61532 12.9238 9.32243 12.6309L6.65713 9.96569C6.36424 9.6728 6.36426 9.19785 6.65715 8.90496Z" fill="#3C3C3C"/>
<path fill-rule="evenodd" clip-rule="evenodd" d="M15.3505 6.125C14.9918 5.91789 14.8689 5.4592 15.076 5.10048L15.326 4.66747C15.5331 4.30875 15.9918 4.18584 16.3505 4.39295C16.7092 4.60006 16.8321 5.05875 16.625 5.41747L16.375 5.85048C16.1679 6.2092 15.7092 6.33211 15.3505 6.125Z" fill="#3C3C3C"/>
<path fill-rule="evenodd" clip-rule="evenodd" d="M12.2756 6.05589C11.8755 5.94868 11.638 5.53743 11.7452 5.13733L12.1335 3.68844C12.2407 3.28834 12.6519 3.0509 13.052 3.15811C13.4521 3.26531 13.6896 3.67657 13.5823 4.07667L13.1941 5.52556C13.0869 5.92566 12.6757 6.16309 12.2756 6.05589Z" fill="#3C3C3C"/>
<path fill-rule="evenodd" clip-rule="evenodd" d="M9.31084 5.44411C8.91074 5.55132 8.49948 5.31388 8.39228 4.91378L8.26287 4.43082C8.15566 4.03072 8.3931 3.61947 8.7932 3.51226C9.1933 3.40506 9.60455 3.64249 9.71176 4.04259L9.84117 4.52556C9.94837 4.92566 9.71094 5.33691 9.31084 5.44411Z" fill="#3C3C3C"/>
</svg>
