<svg width="24" height="24" viewBox="0 0 24 24" fill="none" xmlns="http://www.w3.org/2000/svg">
<path fill-rule="evenodd" clip-rule="evenodd" d="M2.90875 5.24512C2.90875 4.55476 3.4684 3.99512 4.15875 3.99512H19.8489C20.5393 3.99512 21.0989 4.55476 21.0989 5.24512V7.47094C21.0989 8.1066 20.6244 8.63145 20.0103 8.71062V18.7483C20.0103 19.4387 19.4507 19.9983 18.7603 19.9983H5.24713C4.55677 19.9983 3.99713 19.4387 3.99713 18.7483V8.71059C3.38312 8.63132 2.90875 8.10653 2.90875 7.47094V5.24512ZM4.40875 5.49512V7.22094H19.5989V5.49512H4.40875ZM5.49713 8.72095V18.4983H18.5103V8.72095H5.49713ZM10 10.0001C9.58579 10.0001 9.25 10.3359 9.25 10.7501C9.25 11.1643 9.58579 11.5001 10 11.5001H14C14.4142 11.5001 14.75 11.1643 14.75 10.7501C14.75 10.3359 14.4142 10.0001 14 10.0001H10Z" fill="#3C3C3C"/>
</svg>
