<svg width="24" height="24" viewBox="0 0 24 24" fill="none" xmlns="http://www.w3.org/2000/svg">
<path fill-rule="evenodd" clip-rule="evenodd" d="M13.465 5.21686C13.7579 4.92397 14.2328 4.92397 14.5257 5.21686L20.7783 11.4695C20.8057 11.497 20.8306 11.526 20.8529 11.5564C20.8722 11.5826 20.8896 11.6098 20.905 11.6378C21.0623 11.9229 21.0201 12.2886 20.7784 12.5303L14.5257 18.7829C14.2328 19.0758 13.758 19.0758 13.4651 18.7829C13.1722 18.49 13.1722 18.0152 13.4651 17.7223L18.4374 12.75L3.75 12.75C3.33579 12.75 3 12.4142 3 12C3 11.5858 3.33579 11.25 3.75 11.25L18.4375 11.25L13.465 6.27752C13.1721 5.98463 13.1721 5.50975 13.465 5.21686Z" fill="#3C3C3C"/>
</svg>
