<svg width="24" height="24" viewBox="0 0 24 24" fill="none" xmlns="http://www.w3.org/2000/svg">
<path fill-rule="evenodd" clip-rule="evenodd" d="M18.782 10.5337C19.0749 10.2408 19.0749 9.76597 18.782 9.47307L12.5294 3.22049C12.3632 3.05429 12.1384 2.9824 11.9215 3.00482C11.7561 3.02189 11.5953 3.09379 11.4686 3.22051L5.21604 9.47315C4.92314 9.76605 4.92315 10.2409 5.21604 10.5338C5.50894 10.8267 5.98381 10.8267 6.2767 10.5338L11.2489 5.56157V20.2488C11.2489 20.663 11.5847 20.9988 11.9989 20.9988C12.4131 20.9988 12.7489 20.663 12.7489 20.2488V5.5613L17.7214 10.5337C18.0143 10.8266 18.4891 10.8266 18.782 10.5337Z" fill="#3C3C3C"/>
</svg>
