<svg width="24" height="24" viewBox="0 0 24 24" fill="none" xmlns="http://www.w3.org/2000/svg">
<path d="M15.7659 4.00183C16.1801 4.00183 16.5159 4.33762 16.5159 4.75183L16.5159 17.4457L18.7147 15.2469C19.0076 14.954 19.4824 14.954 19.7753 15.2469C20.0682 15.5398 20.0682 16.0147 19.7753 16.3076L16.2979 19.7849C16.2929 19.79 16.2878 19.7949 16.2827 19.7999C16.2116 19.8675 16.1304 19.9186 16.0442 19.953C15.9762 19.9802 15.9034 19.9977 15.8273 20.0038C15.8118 20.0051 15.7962 20.0059 15.7804 20.0062C15.7581 20.0066 15.7358 20.0061 15.7135 20.0045C15.6431 19.9997 15.5753 19.9851 15.5115 19.9621C15.497 19.9569 15.4825 19.9511 15.4683 19.945C15.3837 19.9085 15.3045 19.8557 15.2355 19.7866L11.7564 16.3076C11.4635 16.0147 11.4635 15.5398 11.7563 15.2469C12.0492 14.954 12.5241 14.954 12.817 15.2469L15.0159 17.4458L15.0159 4.75183C15.0159 4.33762 15.3517 4.00183 15.7659 4.00183Z" fill="#3C3C3C"/>
<path d="M8.23111 20.0063C7.8169 20.0063 7.48111 19.6706 7.48111 19.2563L7.48111 6.56269L5.2824 8.76138C4.98951 9.05427 4.51463 9.05426 4.22174 8.76137C3.92885 8.46847 3.92885 7.9936 4.22175 7.70071L7.69006 4.23244C7.82654 4.0903 8.0185 4.00183 8.23111 4.00183C8.33282 4.00183 8.4298 4.02208 8.51824 4.05876C8.60672 4.09536 8.68961 4.14962 8.76153 4.22153L12.2407 7.70061C12.5335 7.9935 12.5335 8.46837 12.2407 8.76127C11.9478 9.05416 11.4729 9.05417 11.18 8.76128L8.98111 6.56242L8.98111 19.2563C8.98111 19.6706 8.64533 20.0063 8.23111 20.0063Z" fill="#3C3C3C"/>
</svg>
