<svg width="24" height="24" viewBox="0 0 24 24" fill="none" xmlns="http://www.w3.org/2000/svg">
<path fill-rule="evenodd" clip-rule="evenodd" d="M11.9991 3.00098C11.5849 3.00098 11.2491 3.33676 11.2491 3.75098L11.2491 18.4384L6.2766 13.466C5.98371 13.1731 5.50884 13.1731 5.21594 13.466C4.92305 13.7589 4.92305 14.2338 5.21595 14.5267L11.4686 20.7793C11.615 20.9257 11.807 20.9989 11.9989 20.9989C12.0575 20.9989 12.116 20.9921 12.1732 20.9785C12.3037 20.9475 12.4275 20.8811 12.5294 20.7792L18.7819 14.5266C19.0748 14.2337 19.0748 13.7588 18.7819 13.4659C18.489 13.173 18.0142 13.173 17.7213 13.4659L12.7491 18.4382L12.7491 3.75098C12.7491 3.33676 12.4133 3.00098 11.9991 3.00098Z" fill="#3C3C3C"/>
</svg>
