<svg width="24" height="24" viewBox="0 0 24 24" fill="none" xmlns="http://www.w3.org/2000/svg">
<path fill-rule="evenodd" clip-rule="evenodd" d="M12.86 4.75476C12.86 4.34055 13.1958 4.00476 13.61 4.00476H19.2454C19.6596 4.00476 19.9954 4.34055 19.9954 4.75476V10.3901C19.9954 10.8044 19.6596 11.1401 19.2454 11.1401C18.8312 11.1401 18.4954 10.8044 18.4954 10.3901V6.56535L6.56529 18.4955H10.3897C10.8039 18.4955 11.1397 18.8313 11.1397 19.2455C11.1397 19.6597 10.8039 19.9955 10.3897 19.9955H4.75433C4.34012 19.9955 4.00433 19.6597 4.00433 19.2455V13.6101C4.00433 13.1959 4.34012 12.8601 4.75433 12.8601C5.16855 12.8601 5.50433 13.1959 5.50433 13.6101L5.50433 17.4351L17.4347 5.50476L13.61 5.50476C13.1958 5.50476 12.86 5.16897 12.86 4.75476Z" fill="#3C3C3C"/>
</svg>
