<svg width="24" height="24" viewBox="0 0 24 24" fill="none" xmlns="http://www.w3.org/2000/svg">
<path fill-rule="evenodd" clip-rule="evenodd" d="M9 8.75C9.41421 8.75 9.75 9.08579 9.75 9.5V16.5C9.75 17.3552 10.2781 17.75 10.6 17.75H13C13.4142 17.75 13.75 18.0858 13.75 18.5C13.75 18.9142 13.4142 19.25 13 19.25H10.6C9.15461 19.25 8.25 17.854 8.25 16.5V9.5C8.25 9.08579 8.58579 8.75 9 8.75Z" fill="#3C3C3C"/>
<path fill-rule="evenodd" clip-rule="evenodd" d="M6.5 4.5V8.5H11.5V4.5H6.5ZM6 3C5.44772 3 5 3.44772 5 4V9C5 9.55228 5.44772 10 6 10H12C12.5523 10 13 9.55228 13 9V4C13 3.44772 12.5523 3 12 3H6Z" fill="#3C3C3C"/>
<path d="M12 17C12 16.4477 12.4477 16 13 16H18C18.5523 16 19 16.4477 19 17V20C19 20.5523 18.5523 21 18 21H13C12.4477 21 12 20.5523 12 20V17Z" fill="#3C3C3C"/>
</svg>
