<svg width="24" height="24" viewBox="0 0 24 24" fill="none" xmlns="http://www.w3.org/2000/svg">
<path fill-rule="evenodd" clip-rule="evenodd" d="M7.75 16.5V7.5H9.25V16.5C9.25 16.6381 9.36193 16.75 9.5 16.75H11.5V18.25H9.5C8.5335 18.25 7.75 17.4665 7.75 16.5Z" fill="#3C3C3C"/>
<path fill-rule="evenodd" clip-rule="evenodd" d="M12.5 15.5V19.5H17.5V15.5H12.5ZM12 14C11.4477 14 11 14.4477 11 15V20C11 20.5523 11.4477 21 12 21H18C18.5523 21 19 20.5523 19 20V15C19 14.4477 18.5523 14 18 14H12Z" fill="#3C3C3C"/>
<path d="M5 4C5 3.44772 5.44772 3 6 3H11C11.5523 3 12 3.44772 12 4V7C12 7.55228 11.5523 8 11 8H6C5.44772 8 5 7.55228 5 7V4Z" fill="#3C3C3C"/>
</svg>
