<svg width="24" height="24" viewBox="0 0 24 24" fill="none" xmlns="http://www.w3.org/2000/svg">
<path fill-rule="evenodd" clip-rule="evenodd" d="M12.7136 5.25015C14.3804 3.58328 17.083 3.58328 18.7498 5.25015C20.4167 6.91702 20.4167 9.61956 18.7498 11.2864L11.2864 18.7498C9.61956 20.4167 6.91702 20.4167 5.25015 18.7498C3.58328 17.083 3.58328 14.3804 5.25015 12.7136L8.73057 9.23316C9.78679 8.17694 11.4992 8.17694 12.5555 9.23316C13.6117 10.2894 13.6117 12.0018 12.5555 13.058L10.5451 15.0684C10.2522 15.3613 9.77735 15.3613 9.48445 15.0684C9.19156 14.7755 9.19156 14.3006 9.48445 14.0077L11.4948 11.9974C11.9652 11.527 11.9652 10.7642 11.4948 10.2938C11.0244 9.82339 10.2617 9.82339 9.79123 10.2938L6.31081 13.7742C5.22973 14.8553 5.22973 16.6081 6.31081 17.6892C7.3919 18.7703 9.14468 18.7703 10.2258 17.6892L17.6892 10.2258C18.7703 9.14468 18.7703 7.3919 17.6892 6.31081C16.6081 5.22973 14.8553 5.22973 13.7742 6.31081L13.435 6.65006C13.1421 6.94295 12.6672 6.94295 12.3743 6.65006C12.0814 6.35717 12.0814 5.88229 12.3743 5.5894L12.7136 5.25015Z" fill="#3C3C3C"/>
</svg>
