<svg width="24" height="24" viewBox="0 0 24 24" fill="none" xmlns="http://www.w3.org/2000/svg">
<path fill-rule="evenodd" clip-rule="evenodd" d="M2.9978 5.75C2.9978 5.33579 3.33359 5 3.7478 5H20.2522C20.6664 5 21.0022 5.33579 21.0022 5.75C21.0022 6.16421 20.6664 6.5 20.2522 6.5H3.7478C3.33359 6.5 2.9978 6.16421 2.9978 5.75ZM2.9978 12C2.9978 11.5858 3.33359 11.25 3.7478 11.25H20.2522C20.6664 11.25 21.0022 11.5858 21.0022 12C21.0022 12.4142 20.6664 12.75 20.2522 12.75H3.7478C3.33359 12.75 2.9978 12.4142 2.9978 12ZM3.7478 17.5C3.33359 17.5 2.9978 17.8358 2.9978 18.25C2.9978 18.6642 3.33359 19 3.7478 19H20.2522C20.6664 19 21.0022 18.6642 21.0022 18.25C21.0022 17.8358 20.6664 17.5 20.2522 17.5H3.7478Z" fill="#3C3C3C"/>
</svg>
