<svg width="24" height="24" viewBox="0 0 24 24" fill="none" xmlns="http://www.w3.org/2000/svg">
<path fill-rule="evenodd" clip-rule="evenodd" d="M3.03081 11.25C3.0104 11.4973 3 11.7474 3 12C3 12.2526 3.0104 12.5027 3.03081 12.75C3.39152 17.1223 6.87765 20.6085 11.25 20.9692C11.4973 20.9896 11.7474 21 12 21C12.2526 21 12.5027 20.9896 12.75 20.9692C17.1223 20.6085 20.6085 17.1223 20.9692 12.75C20.9896 12.5027 21 12.2526 21 12C21 11.7474 20.9896 11.4973 20.9692 11.25C20.6085 6.87765 17.1223 3.39152 12.75 3.03081C12.5027 3.0104 12.2526 3 12 3C11.7474 3 11.4973 3.0104 11.25 3.03081C6.87765 3.39152 3.39152 6.87765 3.03081 11.25ZM4.53703 12.75C4.88883 16.2933 7.70669 19.1112 11.25 19.463V12.75H4.53703ZM11.25 11.25H4.53703C4.88883 7.70669 7.70669 4.88883 11.25 4.53703V11.25ZM12.75 12.75V19.463C16.2933 19.1112 19.1112 16.2933 19.463 12.75H12.75ZM19.463 11.25H12.75V4.53703C16.2933 4.88883 19.1112 7.70669 19.463 11.25Z" fill="#3C3C3C"/>
<path fill-rule="evenodd" clip-rule="evenodd" d="M5.74996 16.1475C7.36603 15.4648 8.5 13.8636 8.5 12C8.5 10.1364 7.36604 8.53514 5.74996 7.85243C4.95968 9.04038 4.5 10.4652 4.5 12C4.5 13.5347 4.95968 14.9596 5.74996 16.1475ZM5.18821 6.11761C3.82473 7.69513 3 9.75124 3 12C3 14.2487 3.82473 16.3048 5.18821 17.8823C7.93277 17.331 10 14.9069 10 12C10 9.09306 7.93277 6.66897 5.18821 6.11761Z" fill="#3C3C3C"/>
<path fill-rule="evenodd" clip-rule="evenodd" d="M18.25 16.1476C16.634 15.4649 15.5 13.8637 15.5 12C15.5 10.1364 16.634 8.53521 18.25 7.8525C19.0403 9.04044 19.5 10.4653 19.5 12C19.5 13.5348 19.0403 14.9596 18.25 16.1476ZM18.8118 6.11768C20.1753 7.69519 21 9.7513 21 12C21 14.2488 20.1753 16.3049 18.8118 17.8824C16.0672 17.331 14 14.9069 14 12C14 9.09312 16.0672 6.66903 18.8118 6.11768Z" fill="#3C3C3C"/>
</svg>
