<svg width="24" height="24" viewBox="0 0 24 24" fill="none" xmlns="http://www.w3.org/2000/svg">
<path d="M13.75 5.75C13.75 6.7165 12.9665 7.5 12 7.5C11.0335 7.5 10.25 6.7165 10.25 5.75C10.25 4.7835 11.0335 4 12 4C12.9665 4 13.75 4.7835 13.75 5.75Z" fill="#3C3C3C"/>
<path d="M13.75 12C13.75 12.9665 12.9665 13.75 12 13.75C11.0335 13.75 10.25 12.9665 10.25 12C10.25 11.0335 11.0335 10.25 12 10.25C12.9665 10.25 13.75 11.0335 13.75 12Z" fill="#3C3C3C"/>
<path d="M13.75 18.25C13.75 19.2165 12.9665 20 12 20C11.0335 20 10.25 19.2165 10.25 18.25C10.25 17.2835 11.0335 16.5 12 16.5C12.9665 16.5 13.75 17.2835 13.75 18.25Z" fill="#3C3C3C"/>
<path d="M7.5 5.75C7.5 6.7165 6.7165 7.5 5.75 7.5C4.7835 7.5 4 6.7165 4 5.75C4 4.7835 4.7835 4 5.75 4C6.7165 4 7.5 4.7835 7.5 5.75Z" fill="#3C3C3C"/>
<path d="M7.5 12C7.5 12.9665 6.7165 13.75 5.75 13.75C4.7835 13.75 4 12.9665 4 12C4 11.0335 4.7835 10.25 5.75 10.25C6.7165 10.25 7.5 11.0335 7.5 12Z" fill="#3C3C3C"/>
<path d="M7.5 18.25C7.5 19.2165 6.7165 20 5.75 20C4.7835 20 4 19.2165 4 18.25C4 17.2835 4.7835 16.5 5.75 16.5C6.7165 16.5 7.5 17.2835 7.5 18.25Z" fill="#3C3C3C"/>
<path d="M20 5.75C20 6.7165 19.2165 7.5 18.25 7.5C17.2835 7.5 16.5 6.7165 16.5 5.75C16.5 4.7835 17.2835 4 18.25 4C19.2165 4 20 4.7835 20 5.75Z" fill="#3C3C3C"/>
<path d="M20 12C20 12.9665 19.2165 13.75 18.25 13.75C17.2835 13.75 16.5 12.9665 16.5 12C16.5 11.0335 17.2835 10.25 18.25 10.25C19.2165 10.25 20 11.0335 20 12Z" fill="#3C3C3C"/>
<path d="M20 18.25C20 19.2165 19.2165 20 18.25 20C17.2835 20 16.5 19.2165 16.5 18.25C16.5 17.2835 17.2835 16.5 18.25 16.5C19.2165 16.5 20 17.2835 20 18.25Z" fill="#3C3C3C"/>
</svg>
