<svg width="24" height="24" viewBox="0 0 24 24" fill="none" xmlns="http://www.w3.org/2000/svg">
<path fill-rule="evenodd" clip-rule="evenodd" d="M17 6.5C17.5523 6.5 18 6.05228 18 5.5C18 4.94772 17.5523 4.5 17 4.5C16.4477 4.5 16 4.94772 16 5.5C16 6.05228 16.4477 6.5 17 6.5ZM7.75 8.5C7.75 8.08579 7.41421 7.75 7 7.75C6.58579 7.75 6.25 8.08579 6.25 8.5L6.25 11H5C4.44772 11 4 11.4477 4 12V15.8331L3.87582 15.9158C3.91602 15.9762 3.9574 16.0359 4 16.0946V19C4 19.5523 4.44772 20 5 20H19C19.5523 20 20 19.5523 20 19V12C20 11.4477 19.5523 11 19 11H17.75V8.5C17.75 8.08579 17.4142 7.75 17 7.75C16.5858 7.75 16.25 8.08579 16.25 8.5V11H12.75V8.5C12.75 8.08579 12.4142 7.75 12 7.75C11.5858 7.75 11.25 8.08579 11.25 8.5V11H7.75L7.75 8.5ZM5.5 18.5V17.2168C5.60712 17.2385 5.71789 17.25 5.83241 17.25C6.67494 17.25 7.31477 16.6277 7.789 15.9158C8.20305 15.2943 8.4515 15.25 8.49725 15.25C8.54299 15.25 8.79145 15.2943 9.20549 15.9158C9.67973 16.6277 10.3195 17.25 11.1621 17.25C12.0046 17.25 12.6444 16.6277 13.1187 15.9158C13.5327 15.2943 13.7812 15.25 13.8269 15.25C13.8727 15.25 14.1211 15.2943 14.5352 15.9158C15.0094 16.6277 15.6492 17.25 16.4918 17.25C17.3343 17.25 17.9741 16.6277 18.4483 15.9158C18.4658 15.8896 18.483 15.8644 18.5 15.8401V18.5H5.5ZM18.2971 13.9825C18.3637 13.9455 18.4314 13.9126 18.5 13.8841V12.5H5.5V15.5509C5.68872 15.7315 5.80286 15.75 5.83241 15.75C5.87816 15.75 6.12661 15.7057 6.54066 15.0842C7.01489 14.3723 7.65471 13.75 8.49725 13.75C9.33978 13.75 9.9796 14.3723 10.4538 15.0842C10.8679 15.7057 11.1163 15.75 11.1621 15.75C11.2078 15.75 11.4563 15.7057 11.8703 15.0842C12.3446 14.3723 12.9844 13.75 13.8269 13.75C14.6694 13.75 15.3093 14.3723 15.7835 15.0842C16.1976 15.7057 16.446 15.75 16.4918 15.75C16.5375 15.75 16.786 15.7057 17.2 15.0842C17.5112 14.6171 17.8705 14.2202 18.2971 13.9825ZM13 5.5C13 6.05228 12.5523 6.5 12 6.5C11.4477 6.5 11 6.05228 11 5.5C11 4.94772 11.4477 4.5 12 4.5C12.5523 4.5 13 4.94772 13 5.5ZM7 6.5C7.55228 6.5 8 6.05228 8 5.5C8 4.94772 7.55228 4.5 7 4.5C6.44772 4.5 6 4.94772 6 5.5C6 6.05228 6.44772 6.5 7 6.5Z" fill="#3C3C3C"/>
</svg>
