<svg width="24" height="24" viewBox="0 0 24 24" fill="none" xmlns="http://www.w3.org/2000/svg">
<path fill-rule="evenodd" clip-rule="evenodd" d="M13.6648 3.0399C13.9684 3.14355 14.1725 3.42885 14.1725 3.74968V9.92137H17.9744C18.2604 9.92137 18.5215 10.084 18.6475 10.3407C18.7736 10.5974 18.7428 10.9034 18.568 11.1298L11.1711 20.7088C10.975 20.9628 10.639 21.0638 10.3353 20.9602C10.0316 20.8566 9.82751 20.5713 9.82751 20.2504V14.0706H6.02558C5.73954 14.0706 5.47841 13.9079 5.35235 13.6511C5.22629 13.3944 5.25724 13.0882 5.43215 12.8619L12.829 3.29105C13.0252 3.0372 13.3611 2.93625 13.6648 3.0399ZM7.5531 12.5706H10.5775C10.9917 12.5706 11.3275 12.9063 11.3275 13.3206V18.052L16.4477 11.4214H13.4225C13.0082 11.4214 12.6725 11.0856 12.6725 10.6714V5.94658L7.5531 12.5706Z" fill="#3C3C3C"/>
</svg>
