<svg width="24" height="24" viewBox="0 0 24 24" fill="none" xmlns="http://www.w3.org/2000/svg">
<path fill-rule="evenodd" clip-rule="evenodd" d="M3.00488 4.79539C3.00488 3.77156 4.00793 3.0486 4.97922 3.37237L10.4727 5.20352H13.5273L19.0208 3.37237C19.9921 3.0486 20.9951 3.77155 20.9951 4.79539V17.5058C20.9951 18.1514 20.582 18.7246 19.9695 18.9288L13.8862 20.9566C13.8097 20.9821 13.7296 20.995 13.649 20.995H10.351C10.2704 20.995 10.1903 20.9821 10.1138 20.9566L4.03054 18.9288C3.41803 18.7246 3.00488 18.1514 3.00488 17.5058V4.79539ZM12.899 6.70352H11.101V19.495H12.899V6.70352ZM14.399 19.2045L19.4951 17.5058V4.79539L14.399 6.49409V19.2045ZM9.60098 19.2045V6.49409L4.50488 4.79539V17.5058L9.60098 19.2045Z" fill="#3C3C3C"/>
</svg>
