<svg width="24" height="24" viewBox="0 0 24 24" fill="none" xmlns="http://www.w3.org/2000/svg">
<path fill-rule="evenodd" clip-rule="evenodd" d="M15.25 16V5H16.75V16H15.25Z" fill="#3C3C3C"/>
<path fill-rule="evenodd" clip-rule="evenodd" d="M7.25 16V5H8.75V16H7.25Z" fill="#3C3C3C"/>
<path fill-rule="evenodd" clip-rule="evenodd" d="M14.5 16.5V19.5H17.5V16.5H14.5ZM14 15C13.4477 15 13 15.4477 13 16V20C13 20.5523 13.4477 21 14 21H18C18.5523 21 19 20.5523 19 20V16C19 15.4477 18.5523 15 18 15H14Z" fill="#3C3C3C"/>
<path fill-rule="evenodd" clip-rule="evenodd" d="M6.5 16.5V19.5H9.5V16.5H6.5ZM6 15C5.44772 15 5 15.4477 5 16V20C5 20.5523 5.44772 21 6 21H10C10.5523 21 11 20.5523 11 20V16C11 15.4477 10.5523 15 10 15H6Z" fill="#3C3C3C"/>
<path d="M13 4C13 3.44772 13.4477 3 14 3H18C18.5523 3 19 3.44772 19 4V7C19 7.55228 18.5523 8 18 8H14C13.4477 8 13 7.55228 13 7V4Z" fill="#3C3C3C"/>
<path d="M5 4C5 3.44772 5.44772 3 6 3H10C10.5523 3 11 3.44772 11 4V7C11 7.55228 10.5523 8 10 8H6C5.44772 8 5 7.55228 5 7V4Z" fill="#3C3C3C"/>
</svg>
