<svg width="24" height="24" viewBox="0 0 24 24" fill="none" xmlns="http://www.w3.org/2000/svg">
<path fill-rule="evenodd" clip-rule="evenodd" d="M12.5103 5.42908C13.8775 4.06191 15.9132 3.77426 17.5618 4.56187C17.7815 4.66682 17.9366 4.87187 17.9777 5.11182C18.0189 5.35178 17.941 5.59678 17.7688 5.76894L15.5028 8.03503L16.1806 8.71283L18.4466 6.44678C18.6188 6.27462 18.8638 6.19674 19.1037 6.23791C19.3437 6.27907 19.5487 6.43415 19.6537 6.65384C20.4412 8.30243 20.1535 10.338 18.7864 11.7051C17.6441 12.8474 16.0348 13.2359 14.5755 12.8738L7.70372 19.7456C7.41083 20.0385 6.93595 20.0385 6.64306 19.7456L4.46999 17.5726C4.32934 17.4319 4.25032 17.2411 4.25032 17.0422C4.25032 16.8433 4.32934 16.6525 4.46999 16.5119L11.3417 9.64019C10.9795 8.18081 11.368 6.57147 12.5103 5.42908ZM15.7842 5.63226C14.9873 5.5957 14.1788 5.88196 13.571 6.48974C12.7334 7.32734 12.5062 8.546 12.8938 9.59112C12.9958 9.86595 12.9282 10.175 12.721 10.3822L6.06098 17.0422L7.17339 18.1546L13.8334 11.4946C14.0407 11.2873 14.3497 11.2198 14.6245 11.3217C15.6696 11.7092 16.8882 11.482 17.7257 10.6445C18.3334 10.0367 18.6197 9.22827 18.5832 8.43149L16.7109 10.3038C16.418 10.5967 15.9431 10.5967 15.6502 10.3038L13.9118 8.56536C13.6189 8.27247 13.6189 7.7976 13.9118 7.5047L15.7842 5.63226Z" fill="#3C3C3C"/>
</svg>
