<svg width="24" height="24" viewBox="0 0 24 24" fill="none" xmlns="http://www.w3.org/2000/svg">
<path fill-rule="evenodd" clip-rule="evenodd" d="M4.5 12C4.5 7.85786 7.85786 4.5 12 4.5C12.9635 4.5 13.8829 4.68132 14.7272 5.01103C15.113 5.16171 15.5479 4.97108 15.6986 4.58524C15.8493 4.19941 15.6587 3.76447 15.2728 3.61379C14.2575 3.21727 13.1532 3 12 3C7.02944 3 3 7.02944 3 12C3 16.9706 7.02944 21 12 21C16.9706 21 21 16.9706 21 12C21 10.8468 20.7827 9.74252 20.3862 8.72717C20.2355 8.34134 19.8006 8.1507 19.4148 8.30138C19.0289 8.45206 18.8383 8.88699 18.989 9.27283C19.3187 10.1171 19.5 11.0365 19.5 12C19.5 16.1421 16.1421 19.5 12 19.5C7.85786 19.5 4.5 16.1421 4.5 12ZM7.75 12C7.75 9.65279 9.65279 7.75 12 7.75C12.2921 7.75 12.5765 7.77935 12.8508 7.83503C13.2567 7.91743 13.6526 7.65515 13.735 7.24922C13.8174 6.84328 13.5551 6.44741 13.1492 6.36501C12.7773 6.28951 12.3929 6.25 12 6.25C8.82436 6.25 6.25 8.82436 6.25 12C6.25 15.1756 8.82436 17.75 12 17.75C15.1756 17.75 17.75 15.1756 17.75 12C17.75 11.6071 17.7105 11.2227 17.635 10.8508C17.5526 10.4449 17.1567 10.1826 16.7508 10.265C16.3448 10.3474 16.0826 10.7433 16.165 11.1492C16.2206 11.4235 16.25 11.7079 16.25 12C16.25 14.3472 14.3472 16.25 12 16.25C9.65279 16.25 7.75 14.3472 7.75 12ZM14.2171 10.8436L17.3107 7.75H18.6C18.779 7.75 18.9522 7.68595 19.0881 7.56944L20.4881 6.36944C20.7264 6.16518 20.8123 5.83415 20.7034 5.53979C20.5945 5.24543 20.3139 5.05 20 5.05H18.95V4C18.95 3.68614 18.7546 3.40548 18.4602 3.29658C18.1658 3.18769 17.8348 3.27361 17.6306 3.5119L16.4306 4.9119C16.314 5.04784 16.25 5.22096 16.25 5.4V6.68934L13.1564 9.78295C12.8106 9.60221 12.4172 9.5 12 9.5C10.6193 9.5 9.5 10.6193 9.5 12C9.5 13.3807 10.6193 14.5 12 14.5C13.3807 14.5 14.5 13.3807 14.5 12C14.5 11.5828 14.3978 11.1894 14.2171 10.8436ZM13 12C13 12.5523 12.5523 13 12 13C11.4477 13 11 12.5523 11 12C11 11.4477 11.4477 11 12 11C12.5523 11 13 11.4477 13 12Z" fill="#3C3C3C"/>
</svg>
