<svg width="24" height="24" viewBox="0 0 24 24" fill="none" xmlns="http://www.w3.org/2000/svg">
<path fill-rule="evenodd" clip-rule="evenodd" d="M9.13197 7.5L9.56054 6.5H14.4395L14.8681 7.5H9.13197ZM8.31169 5.60608C8.46927 5.2384 8.83081 5 9.23084 5H14.7692C15.1692 5 15.5308 5.2384 15.6883 5.60608L16.5019 7.50439H20C20.5523 7.50439 21 7.95211 21 8.50439V17.9999C21 18.5522 20.5523 18.9999 20 18.9999H4C3.44772 18.9999 3 18.5522 3 17.9999V8.5044C3 7.95211 3.44772 7.50439 4 7.50439H7.49813L8.31169 5.60608ZM4.5 9.00439V17.4999H19.5V9.00439H4.5ZM12 14.7522C12.8284 14.7522 13.5 14.0806 13.5 13.2522C13.5 12.4237 12.8284 11.7522 12 11.7522C11.1716 11.7522 10.5 12.4237 10.5 13.2522C10.5 14.0806 11.1716 14.7522 12 14.7522ZM12 16.2522C13.6569 16.2522 15 14.909 15 13.2522C15 11.5953 13.6569 10.2522 12 10.2522C10.3431 10.2522 9 11.5953 9 13.2522C9 14.909 10.3431 16.2522 12 16.2522Z" fill="#3C3C3C"/>
</svg>
