<svg width="24" height="24" viewBox="0 0 24 24" fill="none" xmlns="http://www.w3.org/2000/svg">
<path fill-rule="evenodd" clip-rule="evenodd" d="M3.01754 8.39152C3.02524 6.51619 4.54766 5 6.423 5H14.1712C14.4428 5 14.7028 5.07711 14.9289 5.21417C15.1538 5.35044 15.3356 5.53967 15.469 5.75537C15.4855 5.78194 15.5002 5.80952 15.5132 5.83794L17.6143 10.4296L18.6119 10.8185C20.0519 11.3797 21 12.7669 21 14.3124V16C21 16.8284 20.3284 17.5 19.5 17.5H17.792C17.4062 18.383 16.5252 19 15.5 19C14.4748 19 13.5938 18.383 13.208 17.5H10.792C10.4062 18.383 9.52516 19 8.5 19C7.47484 19 6.5938 18.383 6.20802 17.5H4.5C3.67157 17.5 3 16.8284 3 16V12.6669L3.01754 8.39152ZM13.05 16C13.2816 14.8589 14.2905 14 15.5 14C16.7095 14 17.7184 14.8589 17.95 16H19.5V14.3124C19.5 13.3851 18.9311 12.5528 18.0671 12.2161L16.9177 11.768H13.7404C12.8394 11.768 12.0252 11.2304 11.6713 10.4018L10.0048 6.5H6.423C5.37368 6.5 4.52184 7.34836 4.51753 8.39767L4.5 12.67V16H6.05001C6.28164 14.8589 7.29052 14 8.5 14C9.70948 14 10.7184 14.8589 10.95 16H13.05ZM11.6359 6.5L13.0507 9.81262C13.1687 10.0888 13.4401 10.268 13.7404 10.268H15.8908L14.1755 6.51951C14.1672 6.50954 14.1603 6.50341 14.1558 6.5H11.6359ZM7.5 16.5C7.5 17.0523 7.94772 17.5 8.5 17.5C9.05228 17.5 9.5 17.0523 9.5 16.5C9.5 15.9477 9.05228 15.5 8.5 15.5C7.94772 15.5 7.5 15.9477 7.5 16.5ZM15.5 17.5C14.9477 17.5 14.5 17.0523 14.5 16.5C14.5 15.9477 14.9477 15.5 15.5 15.5C16.0523 15.5 16.5 15.9477 16.5 16.5C16.5 17.0523 16.0523 17.5 15.5 17.5Z" fill="#3C3C3C"/>
</svg>
