<svg width="24" height="24" viewBox="0 0 24 24" fill="none" xmlns="http://www.w3.org/2000/svg">
<path fill-rule="evenodd" clip-rule="evenodd" d="M5.5 4.75C5.5 4.33579 5.16421 4 4.75 4C4.33579 4 4 4.33579 4 4.75V18.75C4 19.4404 4.55964 20 5.25 20H19.25C19.6642 20 20 19.6642 20 19.25C20 18.8358 19.6642 18.5 19.25 18.5H5.5V4.75ZM9.5 9.25C9.5 8.83579 9.16421 8.5 8.75 8.5C8.33579 8.5 8 8.83579 8 9.25V16.25C8 16.6642 8.33579 17 8.75 17C9.16421 17 9.5 16.6642 9.5 16.25V9.25ZM12.75 5C13.1642 5 13.5 5.33579 13.5 5.75L13.5 16.25C13.5 16.6642 13.1642 17 12.75 17C12.3358 17 12 16.6642 12 16.25L12 5.75C12 5.33579 12.3358 5 12.75 5ZM17.5 11.75C17.5 11.3358 17.1642 11 16.75 11C16.3358 11 16 11.3358 16 11.75V16.25C16 16.6642 16.3358 17 16.75 17C17.1642 17 17.5 16.6642 17.5 16.25V11.75Z" fill="#3C3C3C"/>
</svg>
