<svg width="24" height="24" viewBox="0 0 24 24" fill="none" xmlns="http://www.w3.org/2000/svg">
<path fill-rule="evenodd" clip-rule="evenodd" d="M5.5 4.75C5.5 4.33579 5.16421 4 4.75 4C4.33579 4 4 4.33579 4 4.75V19C4 19.5523 4.44772 20 5 20H19.25C19.6642 20 20 19.6642 20 19.25C20 18.8358 19.6642 18.5 19.25 18.5H5.5V4.75ZM18.2803 9.78033C18.5732 9.48744 18.5732 9.01256 18.2803 8.71967C17.9874 8.42678 17.5126 8.42678 17.2197 8.71967L13.75 12.1893L12.6339 11.0732C12.1457 10.5851 11.3543 10.5851 10.8661 11.0732L8.21967 13.7197C7.92678 14.0126 7.92678 14.4874 8.21967 14.7803C8.51256 15.0732 8.98744 15.0732 9.28033 14.7803L11.75 12.3107L12.8661 13.4268C13.3543 13.9149 14.1457 13.9149 14.6339 13.4268L18.2803 9.78033Z" fill="#3C3C3C"/>
</svg>
