<svg width="24" height="24" viewBox="0 0 24 24" fill="none" xmlns="http://www.w3.org/2000/svg">
<path fill-rule="evenodd" clip-rule="evenodd" d="M19.6 9.49999C19.8034 9.49999 19.9588 9.49991 20.0931 9.49689C20.2157 9.49414 20.2971 9.4893 20.3541 9.48345C20.3491 9.4573 20.3414 9.42206 20.33 9.37467C20.3077 9.28261 20.2787 9.17562 20.2368 9.02195C19.5415 6.47095 17.529 4.4585 14.978 3.76319C14.8244 3.7213 14.7174 3.69227 14.6253 3.67C14.5779 3.65854 14.5427 3.65093 14.5165 3.64585C14.5107 3.70289 14.5058 3.78424 14.5031 3.90686C14.5001 4.04115 14.5 4.19663 14.5 4.39999L14.5 8.59999C14.5 9.04478 14.5012 9.28816 14.5155 9.46303C14.516 9.47 14.5166 9.47659 14.5172 9.48281C14.5234 9.48339 14.53 9.48396 14.537 9.48453C14.7118 9.49882 14.9552 9.49999 15.4 9.49999H19.6ZM21.8066 9.92168C21.9258 9.51469 21.8452 9.21896 21.684 8.62749C20.849 5.5639 18.4361 3.15101 15.3725 2.31598C14.781 2.15477 14.4853 2.07416 14.0783 2.19338C13.7743 2.28244 13.3879 2.57762 13.2221 2.84749C13 3.2088 13 3.60586 13 4.39999V8.59998C13 9.44006 13 9.8601 13.1635 10.181C13.3073 10.4632 13.5368 10.6927 13.819 10.8365C14.1399 11 14.5599 11 15.4 11H19.6C20.3941 11 20.7912 11 21.1525 10.7779C21.4224 10.6121 21.7175 10.2257 21.8066 9.92168Z" fill="#3C3C3C"/>
<path fill-rule="evenodd" clip-rule="evenodd" d="M12 13.5C11.1716 13.5 10.5 12.8284 10.5 12V5.39999C10.5 5.19663 10.4999 5.04115 10.4969 4.90686C10.4942 4.78424 10.4893 4.70289 10.4835 4.64585C10.4573 4.65093 10.4221 4.65854 10.3747 4.67C10.2826 4.69227 10.1756 4.7213 10.022 4.76319C6.83848 5.63089 4.5 8.54427 4.5 12C4.5 16.1421 7.85786 19.5 12 19.5C15.4557 19.5 18.3691 17.1615 19.2368 13.978C19.2787 13.8244 19.3077 13.7174 19.33 13.6253C19.3414 13.5779 19.3491 13.5427 19.3541 13.5165C19.2971 13.5107 19.2157 13.5058 19.0931 13.5031C18.9588 13.5001 18.8034 13.5 18.6 13.5H12ZM18.6 12C19.3941 12 19.7912 12 20.1525 12.222C20.4224 12.3879 20.7175 12.7743 20.8066 13.0783C20.9258 13.4853 20.8452 13.781 20.684 14.3725C19.643 18.1919 16.1494 21 12 21C7.02944 21 3 16.9705 3 12C3 7.85058 5.80805 4.35703 9.62751 3.31598C10.219 3.15477 10.5147 3.07416 10.9217 3.19338C11.2257 3.28244 11.6121 3.57762 11.7779 3.84749C12 4.2088 12 4.60586 12 5.39999V12H18.6Z" fill="#3C3C3C"/>
</svg>
