<svg width="24" height="24" viewBox="0 0 24 24" fill="none" xmlns="http://www.w3.org/2000/svg">
<path fill-rule="evenodd" clip-rule="evenodd" d="M19.5 12C19.5 16.1421 16.1421 19.5 12 19.5C7.85786 19.5 4.5 16.1421 4.5 12C4.5 7.85786 7.85786 4.5 12 4.5C16.1421 4.5 19.5 7.85786 19.5 12ZM21 12C21 16.9706 16.9706 21 12 21C7.02944 21 3 16.9706 3 12C3 7.02944 7.02944 3 12 3C16.9706 3 21 7.02944 21 12ZM13.7912 7.78949C14.0841 7.49659 14.0841 7.02172 13.7912 6.72883C13.4983 6.43593 13.0234 6.43593 12.7305 6.72883L8.16643 11.2929C7.7759 11.6834 7.77591 12.3166 8.16643 12.7071L12.7305 17.2712C13.0234 17.5641 13.4983 17.5641 13.7912 17.2712C14.0841 16.9783 14.0841 16.5034 13.7912 16.2105L9.58064 12L13.7912 7.78949Z" fill="#3C3C3C"/>
</svg>
