<svg width="24" height="24" viewBox="0 0 24 24" fill="none" xmlns="http://www.w3.org/2000/svg">
<path fill-rule="evenodd" clip-rule="evenodd" d="M19.5 12C19.5 16.1421 16.1421 19.5 12 19.5C7.85786 19.5 4.5 16.1421 4.5 12C4.5 7.85786 7.85786 4.5 12 4.5C16.1421 4.5 19.5 7.85786 19.5 12ZM21 12C21 16.9706 16.9706 21 12 21C7.02944 21 3 16.9706 3 12C3 7.02944 7.02944 3 12 3C16.9706 3 21 7.02944 21 12ZM10.2077 7.78949C9.91479 7.49659 9.91479 7.02172 10.2077 6.72883C10.5006 6.43593 10.9755 6.43593 11.2683 6.72883L15.8324 11.2929C16.2229 11.6834 16.2229 12.3166 15.8324 12.7071L11.2683 17.2712C10.9755 17.5641 10.5006 17.5641 10.2077 17.2712C9.91479 16.9783 9.91479 16.5034 10.2077 16.2105L14.4182 12L10.2077 7.78949Z" fill="#3C3C3C"/>
</svg>
