<svg width="24" height="24" viewBox="0 0 24 24" fill="none" xmlns="http://www.w3.org/2000/svg">
<path fill-rule="evenodd" clip-rule="evenodd" d="M4.5036 5.75C4.5036 5.33579 4.16781 5 3.7536 5C3.33939 5 3.0036 5.33579 3.0036 5.75V18.25C3.0036 18.6642 3.33939 19 3.7536 19C4.16781 19 4.5036 18.6642 4.5036 18.25V5.75ZM11.4828 6.4569C11.7827 6.17123 12.2574 6.18281 12.5431 6.48276C12.8288 6.78271 12.8172 7.25744 12.5172 7.54311L8.625 11.25L20.2479 11.25C20.6621 11.25 20.9979 11.5858 20.9979 12C20.9979 12.4142 20.6621 12.75 20.2479 12.75L8.625 12.75L12.5172 16.4569C12.8172 16.7426 12.8288 17.2173 12.5431 17.5172C12.2574 17.8172 11.7827 17.8288 11.4828 17.5431L6.23276 12.5431C6.08412 12.4016 6 12.2053 6 12C6 11.7947 6.08412 11.5985 6.23276 11.4569L11.4828 6.4569Z" fill="#3C3C3C"/>
</svg>
