<svg width="24" height="24" viewBox="0 0 24 24" fill="none" xmlns="http://www.w3.org/2000/svg">
<path fill-rule="evenodd" clip-rule="evenodd" d="M19.4979 5.75C19.4979 5.33579 19.8337 5 20.2479 5C20.6621 5 20.9979 5.33579 20.9979 5.75V18.25C20.9979 18.6642 20.6621 19 20.2479 19C19.8337 19 19.4979 18.6642 19.4979 18.25V5.75ZM12.5188 6.4569C12.2188 6.17123 11.7441 6.18281 11.4584 6.48276C11.1728 6.78271 11.1843 7.25744 11.4843 7.54311L15.3765 11.25L3.7536 11.25C3.33939 11.25 3.0036 11.5858 3.0036 12C3.0036 12.4142 3.33939 12.75 3.7536 12.75L15.3765 12.75L11.4843 16.4569C11.1843 16.7426 11.1728 17.2173 11.4584 17.5172C11.7441 17.8172 12.2188 17.8288 12.5188 17.5431L17.7688 12.5431C17.9174 12.4016 18.0015 12.2053 18.0015 12C18.0015 11.7947 17.9174 11.5985 17.7688 11.4569L12.5188 6.4569Z" fill="#3C3C3C"/>
</svg>
