<svg width="24" height="24" viewBox="0 0 24 24" fill="none" xmlns="http://www.w3.org/2000/svg">
<path fill-rule="evenodd" clip-rule="evenodd" d="M11.9475 4.5C7.80537 4.5 4.44751 7.85786 4.44751 12C4.44751 16.1421 7.80537 19.5 11.9475 19.5H19.1894L17.6383 17.949C17.3595 17.6701 17.3442 17.223 17.6033 16.9258C18.7524 15.6077 19.4475 13.8859 19.4475 12C19.4475 7.85786 16.0896 4.5 11.9475 4.5ZM2.94751 12C2.94751 7.02944 6.97695 3 11.9475 3C16.9181 3 20.9475 7.02944 20.9475 12C20.9475 14.0094 20.2882 15.8663 19.1749 17.3642L21.5304 19.7197C21.7449 19.9342 21.809 20.2568 21.693 20.537C21.5769 20.8173 21.3034 21 21.0001 21H11.9475C6.97695 21 2.94751 16.9706 2.94751 12Z" fill="#3C3C3C"/>
</svg>
