<svg width="24" height="24" viewBox="0 0 24 24" fill="none" xmlns="http://www.w3.org/2000/svg">
<path fill-rule="evenodd" clip-rule="evenodd" d="M4.44751 12C4.44751 7.85786 7.80537 4.5 11.9475 4.5C16.0896 4.5 19.4475 7.85786 19.4475 12C19.4475 13.8859 18.7524 15.6077 17.6033 16.9258C17.3442 17.223 17.3595 17.6701 17.6383 17.949L19.1894 19.5H11.9475C7.80537 19.5 4.44751 16.1421 4.44751 12ZM11.9475 3C6.97695 3 2.94751 7.02944 2.94751 12C2.94751 16.9706 6.97695 21 11.9475 21H21.0001C21.3034 21 21.5769 20.8173 21.693 20.537C21.809 20.2568 21.7449 19.9342 21.5304 19.7197L19.1749 17.3642C20.2882 15.8663 20.9475 14.0094 20.9475 12C20.9475 7.02944 16.9181 3 11.9475 3ZM16.7945 10.0302C17.0794 9.72945 17.0665 9.25475 16.7658 8.96988C16.4651 8.68501 15.9904 8.69784 15.7056 8.99854L10.7713 14.207L8.28045 11.7161C7.98756 11.4232 7.51269 11.4232 7.21979 11.7161C6.9269 12.009 6.9269 12.4839 7.21979 12.7768L10.2555 15.8125C10.3986 15.9556 10.5935 16.0348 10.7959 16.0321C10.9983 16.0293 11.191 15.9449 11.3303 15.7979L16.7945 10.0302Z" fill="#3C3C3C"/>
</svg>
