<svg width="24" height="24" viewBox="0 0 24 24" fill="none" xmlns="http://www.w3.org/2000/svg">
<path fill-rule="evenodd" clip-rule="evenodd" d="M15.7429 8.25707C14.9962 5.79338 12.7075 4 10 4C6.68629 4 4 6.68629 4 10C4 12.7075 5.79338 14.9962 8.25707 15.7429C9.0038 18.2066 11.2925 20 14 20C17.3137 20 20 17.3137 20 14C20 11.2925 18.2066 9.0038 15.7429 8.25707ZM14.5 10C14.5 12.4853 12.4853 14.5 10 14.5C9.8395 14.5 9.68096 14.4916 9.52479 14.4752C9.5084 14.319 9.5 14.1605 9.5 14C9.5 11.5147 11.5147 9.5 14 9.5C14.1605 9.5 14.319 9.5084 14.4752 9.52479C14.4916 9.68096 14.5 9.8395 14.5 10ZM14.0323 8.00009C14.0215 8.00003 14.0108 8 14 8C10.6863 8 8 10.6863 8 14C8 14.0108 8.00003 14.0215 8.00009 14.0323C6.51832 13.2959 5.5 11.7669 5.5 10C5.5 7.51472 7.51472 5.5 10 5.5C11.7669 5.5 13.2959 6.51832 14.0323 8.00009ZM15.9999 9.96772C16 9.97847 16 9.98923 16 10C16 13.3137 13.3137 16 10 16C9.98923 16 9.97847 16 9.96772 15.9999C10.7041 17.4817 12.2331 18.5 14 18.5C16.4853 18.5 18.5 16.4853 18.5 14C18.5 12.2331 17.4817 10.7041 15.9999 9.96772Z" fill="#3C3C3C"/>
</svg>
