<svg width="24" height="24" viewBox="0 0 24 24" fill="none" xmlns="http://www.w3.org/2000/svg">
<path fill-rule="evenodd" clip-rule="evenodd" d="M5.5 18.5L18.5 18.5L18.5 10.0028L15.5061 10.0028C14.6777 10.0028 14.0061 9.33123 14.0061 8.5028V5.5L5.5 5.5L5.5 18.5ZM15.5061 5.62773L18.3814 8.50281L15.5061 8.5028V5.62773ZM18.5 20H5.5C4.67157 20 4 19.3284 4 18.5V5.5C4 4.67157 4.67157 4 5.5 4H15.3784C15.7762 4 16.1577 4.15802 16.439 4.43929L19.5606 7.56065C19.8419 7.84196 20 8.22351 20 8.62136L20 18.5C20 19.3284 19.3284 20 18.5 20ZM10.1457 14.6787C10.0484 13.8714 9.43738 13.4071 8.62833 13.4071C7.70493 13.4071 7 14.0591 7 15.2027C7 16.3429 7.69298 16.9983 8.62833 16.9983C9.52443 16.9983 10.0655 16.4026 10.1457 15.7591L9.39812 15.7557C9.32814 16.1295 9.03456 16.3446 8.64028 16.3446C8.10945 16.3446 7.74931 15.9503 7.74931 15.2027C7.74931 14.4756 8.10433 14.0608 8.6454 14.0608C9.04992 14.0608 9.3418 14.2947 9.39812 14.6787H10.1457ZM12.572 14.4602H13.2803C13.2701 13.8372 12.7581 13.4071 11.9797 13.4071C11.2134 13.4071 10.6518 13.8304 10.6552 14.4654C10.6535 14.9808 11.0171 15.2761 11.6076 15.4178L11.9883 15.5134C12.3689 15.6055 12.5805 15.7148 12.5822 15.9503C12.5805 16.2063 12.3382 16.3804 11.9627 16.3804C11.5786 16.3804 11.3021 16.2029 11.2782 15.853H10.563C10.5818 16.6092 11.1229 17 11.9712 17C12.8246 17 13.3264 16.5921 13.3281 15.952C13.3264 15.37 12.8878 15.061 12.2801 14.9245L11.9661 14.8494C11.6623 14.7794 11.4079 14.6668 11.4131 14.4159C11.4131 14.1905 11.6128 14.025 11.9746 14.025C12.3279 14.025 12.5447 14.1854 12.572 14.4602ZM13.6358 13.4549H14.4568L15.3017 16.1108H15.3341L16.1807 13.4549H17L15.795 16.9505H14.8425L13.6358 13.4549Z" fill="#3C3C3C"/>
</svg>
