<svg width="24" height="24" viewBox="0 0 24 24" fill="none" xmlns="http://www.w3.org/2000/svg">
<path fill-rule="evenodd" clip-rule="evenodd" d="M3.75342 19.4966C3.33921 19.4966 3.00342 19.8324 3.00342 20.2466C3.00342 20.6609 3.33921 20.9966 3.75342 20.9966L20.2466 20.9966C20.6608 20.9966 20.9966 20.6609 20.9966 20.2466C20.9966 19.8324 20.6608 19.4966 20.2466 19.4966L3.75342 19.4966ZM12.9163 13.9991C12.5021 13.9991 12.1663 14.3349 12.1663 14.7491C12.1663 15.1633 12.5021 15.4991 12.9163 15.4991L20.2466 15.4991C20.6608 15.4991 20.9966 15.1633 20.9966 14.7491C20.9966 14.3349 20.6608 13.9991 20.2466 13.9991L12.9163 13.9991ZM3.75343 3.00348C3.33921 3.00348 3.00343 3.33926 3.00343 3.75348C3.00343 4.16769 3.33921 4.50348 3.75343 4.50348L20.2466 4.50348C20.6608 4.50348 20.9966 4.16769 20.9966 3.75348C20.9966 3.33927 20.6608 3.00348 20.2466 3.00348L3.75343 3.00348ZM12.3954 9.25104C12.3954 8.83682 12.7312 8.50104 13.1454 8.50104L20.2466 8.50104C20.6608 8.50104 20.9966 8.83682 20.9966 9.25104C20.9966 9.66525 20.6608 10.001 20.2466 10.001L13.1454 10.001C12.7312 10.001 12.3954 9.66525 12.3954 9.25104ZM11.6047 11.9981C11.6047 12.4123 11.2689 12.7481 10.8547 12.7481L5.88999 12.7481L8.20121 14.5975C8.52463 14.8563 8.57701 15.3283 8.31821 15.6517C8.05942 15.9751 7.58744 16.0275 7.26403 15.7687L3.50167 12.7581C3.01528 12.3689 3.01528 11.6291 3.50167 11.2399L7.26403 8.22925C7.58744 7.97045 8.05942 8.02284 8.31821 8.34625C8.57701 8.66967 8.52463 9.14164 8.20121 9.40044L5.8922 11.2481L10.8547 11.2481C11.2689 11.2481 11.6047 11.5839 11.6047 11.9981Z" fill="#3C3C3C"/>
</svg>
