<svg width="24" height="24" viewBox="0 0 24 24" fill="none" xmlns="http://www.w3.org/2000/svg">
<path fill-rule="evenodd" clip-rule="evenodd" d="M14 4.5H10C9.72386 4.5 9.5 4.72386 9.5 5V6H14.5V5C14.5 4.72386 14.2761 4.5 14 4.5ZM16 6V5C16 3.89543 15.1046 3 14 3H10C8.89543 3 8 3.89543 8 5V6H6.5H4.75C4.33579 6 4 6.33579 4 6.75C4 7.16421 4.33579 7.5 4.75 7.5L5 7.5V19.5C5 20.3284 5.67157 21 6.5 21H17.5C18.3284 21 19 20.3284 19 19.5V7.5H19.25C19.6642 7.5 20 7.16421 20 6.75C20 6.33579 19.6642 6 19.25 6H17.5H16ZM17.5 7.5H16H8H6.5V19.5H17.5V7.5ZM9.75 10C10.1642 10 10.5 10.3358 10.5 10.75V16.25C10.5 16.6642 10.1642 17 9.75 17C9.33579 17 9 16.6642 9 16.25V10.75C9 10.3358 9.33579 10 9.75 10ZM15 10.75C15 10.3358 14.6642 10 14.25 10C13.8358 10 13.5 10.3358 13.5 10.75V16.25C13.5 16.6642 13.8358 17 14.25 17C14.6642 17 15 16.6642 15 16.25V10.75Z" fill="#3C3C3C"/>
</svg>
