<svg width="24" height="24" viewBox="0 0 24 24" fill="none" xmlns="http://www.w3.org/2000/svg">
<path fill-rule="evenodd" clip-rule="evenodd" d="M11.25 12.75V9.75H12.75V12.75H11.25Z" fill="#3C3C3C"/>
<path d="M5 6C5 5.44772 5.44772 5 6 5H18C18.5523 5 19 5.44772 19 6V9C19 9.55228 18.5523 10 18 10H6C5.44772 10 5 9.55228 5 9V6Z" fill="#3C3C3C"/>
<path fill-rule="evenodd" clip-rule="evenodd" d="M4.5 15.5V17.5H9.5V15.5H4.5ZM4 14C3.44772 14 3 14.4477 3 15V18C3 18.5523 3.44772 19 4 19H10C10.5523 19 11 18.5523 11 18V15C11 14.4477 10.5523 14 10 14H4Z" fill="#3C3C3C"/>
<path fill-rule="evenodd" clip-rule="evenodd" d="M14.5 15.5V17.5H19.5V15.5H14.5ZM14 14C13.4477 14 13 14.4477 13 15V18C13 18.5523 13.4477 19 14 19H20C20.5523 19 21 18.5523 21 18V15C21 14.4477 20.5523 14 20 14H14Z" fill="#3C3C3C"/>
<path fill-rule="evenodd" clip-rule="evenodd" d="M5.75 13C5.75 12.0335 6.5335 11.25 7.5 11.25H16.5C17.4665 11.25 18.25 12.0335 18.25 13V14H16.75V13C16.75 12.8619 16.6381 12.75 16.5 12.75H7.5C7.36193 12.75 7.25 12.8619 7.25 13V14H5.75V13Z" fill="#3C3C3C"/>
</svg>
