<svg width="24" height="24" viewBox="0 0 24 24" fill="none" xmlns="http://www.w3.org/2000/svg">
<path fill-rule="evenodd" clip-rule="evenodd" d="M12.75 10.25V17.75H11.25V10.25H12.75Z" fill="#3C3C3C"/>
<path fill-rule="evenodd" clip-rule="evenodd" d="M7 6.5V9.5H17V6.5H7ZM6.5 5C5.94772 5 5.5 5.44772 5.5 6V10C5.5 10.5523 5.94772 11 6.5 11H17.5C18.0523 11 18.5 10.5523 18.5 10V6C18.5 5.44772 18.0523 5 17.5 5H6.5Z" fill="#3C3C3C"/>
<path d="M3 16C3 15.4477 3.44772 15 4 15H7C7.55228 15 8 15.4477 8 16V18C8 18.5523 7.55228 19 7 19H4C3.44772 19 3 18.5523 3 18V16Z" fill="#3C3C3C"/>
<path d="M16 16C16 15.4477 16.4477 15 17 15H20C20.5523 15 21 15.4477 21 16V18C21 18.5523 20.5523 19 20 19H17C16.4477 19 16 18.5523 16 18V16Z" fill="#3C3C3C"/>
<path d="M9.5 16C9.5 15.4477 9.94772 15 10.5 15H13.5C14.0523 15 14.5 15.4477 14.5 16V18C14.5 18.5523 14.0523 19 13.5 19H10.5C9.94772 19 9.5 18.5523 9.5 18V16Z" fill="#3C3C3C"/>
<path fill-rule="evenodd" clip-rule="evenodd" d="M4.75 14C4.75 13.0335 5.5335 12.25 6.5 12.25H17.5C18.4665 12.25 19.25 13.0335 19.25 14V17H17.75V14C17.75 13.8619 17.6381 13.75 17.5 13.75H6.5C6.36193 13.75 6.25 13.8619 6.25 14V17H4.75V14Z" fill="#3C3C3C"/>
</svg>
