<svg width="24" height="24" viewBox="0 0 24 24" fill="none" xmlns="http://www.w3.org/2000/svg">
<path fill-rule="evenodd" clip-rule="evenodd" d="M6.69671 5.63593C6.40382 5.34304 5.92894 5.34304 5.63605 5.63593C5.34316 5.92882 5.34316 6.4037 5.63605 6.69659L10.9394 11.9999L5.63606 17.3033C5.34317 17.5962 5.34317 18.0711 5.63606 18.364C5.92895 18.6568 6.40383 18.6568 6.69672 18.364L12.0001 13.0606L17.3033 18.3639C17.5962 18.6567 18.0711 18.6567 18.364 18.3639C18.6569 18.071 18.6569 17.5961 18.364 17.3032L13.0607 11.9999L18.364 6.6967C18.6569 6.4038 18.6569 5.92893 18.364 5.63604C18.0711 5.34314 17.5962 5.34314 17.3033 5.63604L12.0001 10.9393L6.69671 5.63593Z" fill="#3C3C3C"/>
</svg>
