<svg width="24" height="24" viewBox="0 0 24 24" fill="none" xmlns="http://www.w3.org/2000/svg">
<path fill-rule="evenodd" clip-rule="evenodd" d="M19.5 12C19.5 16.1421 16.1421 19.5 12 19.5C7.85786 19.5 4.5 16.1421 4.5 12C4.5 7.85786 7.85786 4.5 12 4.5C16.1421 4.5 19.5 7.85786 19.5 12ZM21 12C21 16.9706 16.9706 21 12 21C7.02944 21 3 16.9706 3 12C3 7.02944 7.02944 3 12 3C16.9706 3 21 7.02944 21 12ZM11.3305 10.0817C11.3305 9.88125 11.3787 9.80028 11.3978 9.77257C11.4223 9.73722 11.4658 9.69684 11.5491 9.65763C11.744 9.56591 11.9754 9.56249 12 9.56249C12.3402 9.56249 12.5088 9.62678 12.5778 9.66311C12.6399 9.69578 12.656 9.72322 12.6605 9.73102L12.6607 9.7313C12.9435 10.2151 13.565 10.378 14.0488 10.0952C14.5326 9.81232 14.6955 9.19084 14.4126 8.70705C14.1395 8.23985 13.6815 7.85686 13.0147 7.66542V7.26471C13.0147 6.7043 12.5604 6.25 12 6.25C11.4396 6.25 10.9853 6.7043 10.9853 7.26471V7.7009C10.8869 7.73408 10.786 7.77383 10.6849 7.82143C10.3607 7.97397 10.0036 8.22121 9.72937 8.61728C9.44982 9.02099 9.30109 9.51526 9.30109 10.0817C9.30109 10.6634 9.46511 11.1648 9.76016 11.5679C10.047 11.9598 10.4144 12.2003 10.7374 12.3474C11.0587 12.4937 11.3665 12.5618 11.5846 12.5949C11.6962 12.6119 11.7911 12.6206 11.8618 12.6252C11.8972 12.6276 11.9271 12.6288 11.9503 12.6295L11.9803 12.6302L11.9914 12.6303L11.992 12.6304L12.007 12.631L12.0213 12.6318C12.0522 12.6339 12.1023 12.6383 12.1648 12.6478C12.2948 12.6675 12.4512 12.7051 12.5941 12.7702C12.7354 12.8345 12.8322 12.911 12.8935 12.9948C12.9466 13.0673 13.0147 13.2002 13.0147 13.4641C13.0147 13.7432 12.9464 13.8831 12.8966 13.955C12.8415 14.0346 12.757 14.1045 12.6319 14.1633C12.3535 14.2944 12.0357 14.2978 12 14.2978C11.2462 14.2978 11.0713 14.0586 11.0435 14.0206L11.0431 14.02C11.0117 13.9771 10.9957 13.9336 10.9881 13.9023C10.9862 13.8947 10.9851 13.8888 10.9845 13.885C10.9628 13.3437 10.5172 12.9115 9.97058 12.9115C9.41017 12.9115 8.95587 13.3658 8.95587 13.9262H9.97058C8.95587 13.9262 8.95587 13.9269 8.95587 13.9277L8.95588 13.9292L8.95589 13.9323L8.95595 13.939L8.95622 13.9541C8.95647 13.965 8.9569 13.9774 8.95757 13.9912C8.95892 14.0189 8.96128 14.0525 8.96534 14.0913C8.97341 14.1685 8.98843 14.2683 9.0165 14.3833C9.07227 14.6119 9.18318 14.915 9.40545 15.2187C9.74457 15.682 10.2631 16.043 10.9853 16.2157V16.7353C10.9853 17.2957 11.4396 17.75 12 17.75C12.5604 17.75 13.0147 17.2957 13.0147 16.7353V16.1803C13.1699 16.1352 13.3328 16.0764 13.4961 15.9995C13.862 15.8274 14.2602 15.5506 14.565 15.1103C14.8752 14.6624 15.0441 14.1092 15.0441 13.4641C15.0441 12.8038 14.8585 12.2435 14.5311 11.7961C14.2119 11.36 13.8013 11.09 13.4352 10.9233C13.0708 10.7573 12.7198 10.6794 12.4694 10.6413C12.3416 10.6219 12.2331 10.6119 12.1531 10.6067C12.1129 10.6041 12.0793 10.6027 12.0536 10.6019L12.0207 10.6011L12.0107 10.601C12.0082 10.6009 12.0023 10.6007 11.9935 10.6001C11.972 10.5987 11.9354 10.5955 11.8891 10.5885C11.7914 10.5737 11.6782 10.5459 11.5784 10.5005C11.4803 10.4558 11.4267 10.4088 11.3977 10.3692C11.377 10.3409 11.3305 10.267 11.3305 10.0817ZM12 11.5337C12 10.601 12.0004 10.601 12.0009 10.601H12.0009C12.0005 10.601 12 10.601 12 11.6094V11.5337ZM11.9991 12.6304C11.9993 12.6304 11.9995 12.6296 11.9997 12.5259C11.9995 12.6304 11.9993 12.6304 11.9991 12.6304H11.9991Z" fill="#3C3C3C"/>
</svg>
