<svg width="24" height="24" viewBox="0 0 24 24" fill="none" xmlns="http://www.w3.org/2000/svg">
<path fill-rule="evenodd" clip-rule="evenodd" d="M3 16.6667V18C3 18.5523 3.44772 19 4 19H5.33333V17.5H4.5V16.6667H3ZM5.33333 5H4C3.44772 5 3 5.44772 3 6V7.33333H4.5V6.5H5.33333V5ZM3 15.3333H4.5V12.6667H3V15.3333ZM3 11.3333H4.5V8.66667H3V11.3333ZM6.66667 5V6.5H9.33333V5H6.66667ZM10.6667 5V6.5H13.3333V5H10.6667ZM14.6667 5V6.5H17.3333V5H14.6667ZM18.6667 5V6.5H19.5V7.33333H21V6C21 5.44772 20.5523 5 20 5H18.6667ZM21 8.66667H19.5V11.3333H21V8.66667ZM21 12.6667H19.5V15.3333H21V12.6667ZM21 16.6667H19.5V17.5H18.6667V19H20C20.5523 19 21 18.5523 21 18V16.6667ZM17.3333 19V17.5H14.6667V19H17.3333ZM13.3333 19V17.5H10.6667V19H13.3333ZM9.33333 19V17.5H6.66667V19H9.33333Z" fill="#3C3C3C"/>
</svg>
