<svg width="24" height="24" viewBox="0 0 24 24" fill="none" xmlns="http://www.w3.org/2000/svg">
<path fill-rule="evenodd" clip-rule="evenodd" d="M12 3C12.4142 3 12.75 3.33579 12.75 3.75L12.75 13.5922L15.0941 11.2482C15.387 10.9553 15.8618 10.9553 16.1547 11.2482C16.4476 11.5411 16.4476 12.0159 16.1547 12.3088L12.7661 15.6975C12.343 16.1205 11.6571 16.1205 11.234 15.6975L7.84537 12.3088C7.55248 12.0159 7.55248 11.5411 7.84537 11.2482C8.13827 10.9553 8.61314 10.9553 8.90603 11.2482L11.25 13.5922L11.25 3.75C11.25 3.33579 11.5858 3 12 3ZM5 19.5093C5 20.3377 5.67157 21.0093 6.5 21.0093H17.5C18.3284 21.0093 19 20.3377 19 19.5093V17C19 16.5858 18.6642 16.25 18.25 16.25C17.8358 16.25 17.5 16.5858 17.5 17V19.5093H6.5V17C6.5 16.5858 6.16421 16.25 5.75 16.25C5.33579 16.25 5 16.5858 5 17V19.5093Z" fill="#3C3C3C"/>
</svg>
