<svg width="24" height="24" viewBox="0 0 24 24" fill="none" xmlns="http://www.w3.org/2000/svg">
<path fill-rule="evenodd" clip-rule="evenodd" d="M16.6514 4.44616C16.0656 3.86037 15.1158 3.86037 14.53 4.44616L5.55609 13.4201C5.47379 13.5024 5.41462 13.5991 5.37857 13.702C5.36608 13.7304 5.35528 13.7596 5.34627 13.7897L4.06732 18.0657C3.72532 19.2091 4.79083 20.2746 5.93425 19.9326L10.2102 18.6537C10.243 18.6439 10.2749 18.6319 10.3056 18.618C10.4055 18.5817 10.4992 18.5235 10.5793 18.4433L19.5533 9.4694C20.1391 8.88361 20.1391 7.93386 19.5533 7.34807L16.6514 4.44616ZM7.14708 13.9504L15.5907 5.50682L18.4926 8.40874L10.049 16.8524L7.14708 13.9504ZM5.50442 18.4955L6.42321 15.4237L8.57624 17.5767L5.50442 18.4955Z" fill="#3C3C3C"/>
</svg>
