<svg width="24" height="24" viewBox="0 0 24 24" fill="none" xmlns="http://www.w3.org/2000/svg">
<path d="M19 19.5C19 20.3284 18.3284 21 17.5 21H7.5C6.67157 21 6 20.3284 6 19.5V16C6 15.5858 6.33579 15.25 6.75 15.25C7.16421 15.25 7.5 15.5858 7.5 16V19.5H17.5V4.5H7.5V8C7.5 8.41421 7.16421 8.75 6.75 8.75C6.33579 8.75 6 8.41421 6 8V4.5C6 3.67157 6.67157 3 7.5 3H17.5C18.3284 3 19 3.67157 19 4.5V19.5Z" fill="#3C3C3C"/>
<path d="M11.7197 8.46967C12.0126 8.17678 12.4874 8.17678 12.7803 8.46967L15.7803 11.4697C16.0732 11.7626 16.0732 12.2374 15.7803 12.5303L12.7803 15.5303C12.4874 15.8232 12.0126 15.8232 11.7197 15.5303C11.4268 15.2374 11.4268 14.7626 11.7197 14.4697L13.4393 12.75H3.75C3.33579 12.75 3 12.4142 3 12C3 11.5858 3.33579 11.25 3.75 11.25H13.4393L11.7197 9.53033C11.4268 9.23744 11.4268 8.76256 11.7197 8.46967Z" fill="#3C3C3C"/>
</svg>
