<svg width="24" height="24" viewBox="0 0 24 24" fill="none" xmlns="http://www.w3.org/2000/svg">
<path fill-rule="evenodd" clip-rule="evenodd" d="M18.5 5.5H5.5V10H18.5V5.5ZM5.5 4H18.5C19.3284 4 20 4.67157 20 5.5V10C20 10.8284 19.3284 11.5 18.5 11.5H5.5C4.67157 11.5 4 10.8284 4 10V5.5C4 4.67157 4.67157 4 5.5 4ZM4 14C4 13.1716 4.67157 12.5 5.5 12.5H19.25C19.6642 12.5 20 12.8358 20 13.25C20 13.6642 19.6642 14 19.25 14H5.5V18.5H12.25C12.6642 18.5 13 18.8358 13 19.25C13 19.6642 12.6642 20 12.25 20H5.5C4.67157 20 4 19.3284 4 18.5V14ZM20.7803 17.0303C21.0732 16.7374 21.0732 16.2626 20.7803 15.9697C20.4874 15.6768 20.0126 15.6768 19.7197 15.9697L16.5 19.1893L15.5303 18.2197C15.2374 17.9268 14.7626 17.9268 14.4697 18.2197C14.1768 18.5126 14.1768 18.9874 14.4697 19.2803L15.9697 20.7803C16.2626 21.0732 16.7374 21.0732 17.0303 20.7803L20.7803 17.0303Z" fill="#3C3C3C"/>
</svg>
