<svg width="24" height="24" viewBox="0 0 24 24" fill="none" xmlns="http://www.w3.org/2000/svg">
<path d="M16.3125 4.53054C16.6712 4.73764 16.7941 5.19634 16.587 5.55506L13.299 11.25H19.875C20.2892 11.25 20.625 11.5858 20.625 12C20.625 12.4142 20.2892 12.75 19.875 12.75H13.299L16.587 18.445C16.7941 18.8037 16.6712 19.2624 16.3125 19.4695C15.9538 19.6766 15.4951 19.5537 15.288 19.195L12 13.5L8.71202 19.195C8.50492 19.5537 8.04622 19.6766 7.6875 19.4695C7.32878 19.2624 7.20588 18.8037 7.41298 18.445L10.701 12.75H4.125C3.71079 12.75 3.375 12.4142 3.375 12C3.375 11.5858 3.71079 11.25 4.125 11.25H10.701L7.41298 5.55506C7.20588 5.19634 7.32878 4.73764 7.6875 4.53054C8.04622 4.32343 8.50492 4.44634 8.71202 4.80506L12 10.5L15.288 4.80506C15.4951 4.44634 15.9538 4.32343 16.3125 4.53054Z" fill="#3C3C3C"/>
</svg>
