<svg width="24" height="24" viewBox="0 0 24 24" fill="none" xmlns="http://www.w3.org/2000/svg">
<path fill-rule="evenodd" clip-rule="evenodd" d="M6.49841 3.00757C5.66999 3.00757 4.99841 3.67914 4.99841 4.50757V19.5032C4.99841 20.3316 5.66998 21.0032 6.49841 21.0032H16.489C17.3175 21.0032 17.989 20.3316 17.989 19.5032L17.989 17.2586C17.989 16.8444 17.6532 16.5086 17.239 16.5086C16.8248 16.5086 16.489 16.8444 16.489 17.2586L16.489 19.5032H6.49841V4.50757H16.496V6.76354C16.496 7.17776 16.8318 7.51354 17.246 7.51354C17.6602 7.51354 17.996 7.17776 17.996 6.76354V4.50757C17.996 3.67914 17.3245 3.00757 16.496 3.00757H6.49841ZM17.8923 8.47101C17.5995 8.76391 17.5995 9.23878 17.8923 9.53167L19.6108 11.2501L9 11.2501C8.58579 11.2501 8.25 11.5859 8.25 12.0001C8.25 12.4143 8.58579 12.7501 9 12.7501L19.6104 12.7501L17.8923 14.4682C17.5995 14.7611 17.5995 15.236 17.8923 15.5289C18.1852 15.8218 18.6601 15.8218 18.953 15.5289L21.7159 12.766C22.139 12.3429 22.139 11.657 21.7159 11.2339L18.953 8.47101C18.6601 8.17812 18.1852 8.17812 17.8923 8.47101Z" fill="#3C3C3C"/>
</svg>
