<svg width="24" height="24" viewBox="0 0 24 24" fill="none" xmlns="http://www.w3.org/2000/svg">
<path fill-rule="evenodd" clip-rule="evenodd" d="M7.04251 14.4152C5.92379 13.5146 5.07733 12.5457 4.63771 12C5.07733 11.4543 5.92379 10.4854 7.04251 9.58486C8.4392 8.46054 10.1679 7.51709 12 7.51709C13.8457 7.51709 15.5864 8.47471 16.9878 9.60935C18.1265 10.5314 18.9793 11.52 19.4023 12.05C19.0614 12.5768 18.3685 13.5302 17.3292 14.4187C16.0495 15.5128 14.277 16.4829 12 16.4829C10.1679 16.4829 8.4392 15.5395 7.04251 14.4152ZM12 6.01709C9.66848 6.01709 7.6093 7.20297 6.10192 8.4164C4.58242 9.63959 3.52975 10.9665 3.19701 11.4081C2.93206 11.7598 2.93205 12.2402 3.197 12.5919C3.52974 13.0336 4.58242 14.3604 6.10192 15.5836C7.6093 16.7971 9.66848 17.9829 12 17.9829C14.7343 17.9829 16.8396 16.8108 18.304 15.5588C19.7633 14.3112 20.6182 12.9589 20.8797 12.5117C21.0806 12.1682 21.0538 11.7426 20.8174 11.4273C20.5032 11.0083 19.455 9.67696 17.9316 8.44355C16.4207 7.22026 14.3484 6.01709 12 6.01709ZM10.4933 12.0002C10.4933 11.1769 11.1607 10.5095 11.984 10.5095C12.8073 10.5095 13.4747 11.1769 13.4747 12.0002C13.4747 12.8235 12.8073 13.4909 11.984 13.4909C11.1607 13.4909 10.4933 12.8235 10.4933 12.0002ZM11.984 9.00952C10.3323 9.00952 8.99331 10.3485 8.99331 12.0002C8.99331 13.652 10.3323 14.9909 11.984 14.9909C13.6357 14.9909 14.9747 13.652 14.9747 12.0002C14.9747 10.3485 13.6357 9.00952 11.984 9.00952Z" fill="#3C3C3C"/>
</svg>
