<svg width="24" height="24" viewBox="0 0 24 24" fill="none" xmlns="http://www.w3.org/2000/svg">
<path fill-rule="evenodd" clip-rule="evenodd" d="M13.5686 17C13.1884 17 12.8224 17.1444 12.5446 17.4039L9 20.7151V18.5C9 17.6716 8.32843 17 7.5 17C5.84315 17 4.5 15.6569 4.5 14V9.5C4.5 7.84315 5.84315 6.5 7.5 6.5H16.5C18.1569 6.5 19.5 7.84315 19.5 9.5V14C19.5 15.6569 18.1569 17 16.5 17H13.5686ZM16.5 18.5H13.5686L9.74058 22.0759C8.91375 22.8483 7.5 22.3013 7.5 21.209V20V18.5C5.01472 18.5 3 16.4853 3 14V9.5C3 7.01472 5.01472 5 7.5 5H16.5C18.9853 5 21 7.01472 21 9.5V14C21 16.4853 18.9853 18.5 16.5 18.5ZM15.9375 12.8749C15.3162 12.8749 14.8125 12.3712 14.8125 11.7499C14.8125 11.1286 15.3162 10.6249 15.9375 10.6249C16.5588 10.6249 17.0625 11.1286 17.0625 11.7499C17.0625 12.3712 16.5588 12.8749 15.9375 12.8749ZM10.9313 11.7499C10.9313 12.3712 11.4349 12.8749 12.0563 12.8749C12.6776 12.8749 13.1813 12.3712 13.1813 11.7499C13.1813 11.1286 12.6776 10.6249 12.0563 10.6249C11.4349 10.6249 10.9313 11.1286 10.9313 11.7499ZM8.0625 12.8749C7.44118 12.8749 6.9375 12.3712 6.9375 11.7499C6.9375 11.1286 7.44118 10.6249 8.0625 10.6249C8.68382 10.6249 9.1875 11.1286 9.1875 11.7499C9.1875 12.3712 8.68382 12.8749 8.0625 12.8749Z" fill="#3C3C3C"/>
</svg>
