<svg width="24" height="24" viewBox="0 0 24 24" fill="none" xmlns="http://www.w3.org/2000/svg">
<path fill-rule="evenodd" clip-rule="evenodd" d="M5.5 4C4.67157 4 4 4.67157 4 5.5V18.5C4 19.3284 4.67157 20 5.5 20H12.25C12.6642 20 13 19.6642 13 19.25C13 18.8358 12.6642 18.5 12.25 18.5H5.5L5.5 5.5L13.4978 5.5V9.005C13.4978 9.83343 14.1694 10.505 14.9978 10.505L18.5 10.505L18.5 14.2547C18.5 14.6689 18.8358 15.0047 19.25 15.0047C19.6642 15.0047 20 14.6689 20 14.2547V9.41075C20 9.01292 19.842 8.63139 19.5606 8.35008L15.6498 4.43933L15.1195 4.96966L15.6498 4.43933C15.3685 4.15803 14.987 4 14.5892 4H5.5ZM18.0942 9.005L14.9978 5.90863V9.005L18.0942 9.005ZM7 16.25C7 15.8358 7.33579 15.5 7.75 15.5H11.25C11.6642 15.5 12 15.8358 12 16.25C12 16.6642 11.6642 17 11.25 17H7.75C7.33579 17 7 16.6642 7 16.25ZM7.75 8.5C7.33579 8.5 7 8.83579 7 9.25C7 9.66421 7.33579 10 7.75 10H11.25C11.6642 10 12 9.66421 12 9.25C12 8.83579 11.6642 8.5 11.25 8.5H7.75ZM7 12.7635C7 12.3493 7.33579 12.0135 7.75 12.0135H16.25C16.6642 12.0135 17 12.3493 17 12.7635C17 13.1777 16.6642 13.5135 16.25 13.5135H7.75C7.33579 13.5135 7 13.1777 7 12.7635ZM20.7803 17.0303C21.0732 16.7374 21.0732 16.2626 20.7803 15.9697C20.4874 15.6768 20.0126 15.6768 19.7197 15.9697L16.5 19.1893L15.5303 18.2197C15.2374 17.9268 14.7626 17.9268 14.4697 18.2197C14.1768 18.5126 14.1768 18.9874 14.4697 19.2803L15.9697 20.7803C16.2626 21.0732 16.7374 21.0732 17.0303 20.7803L20.7803 17.0303Z" fill="#3C3C3C"/>
</svg>
