<svg width="24" height="24" viewBox="0 0 24 24" fill="none" xmlns="http://www.w3.org/2000/svg">
<path fill-rule="evenodd" clip-rule="evenodd" d="M11.25 8.25C11.25 8.66421 11.5858 9 12 9C12.4142 9 12.75 8.66421 12.75 8.25V6.5H20.2522C20.6664 6.5 21.0022 6.16421 21.0022 5.75C21.0022 5.33579 20.6664 5 20.2522 5H12.75V3.25C12.75 2.83579 12.4142 2.5 12 2.5C11.5858 2.5 11.25 2.83579 11.25 3.25V5H3.7478C3.33359 5 2.9978 5.33579 2.9978 5.75C2.9978 6.16421 3.33359 6.5 3.7478 6.5H11.25V8.25ZM3.7478 11.25C3.33359 11.25 2.9978 11.5858 2.9978 12C2.9978 12.4142 3.33359 12.75 3.7478 12.75H16.5006V14.5C16.5006 14.9142 16.8364 15.25 17.2506 15.25C17.6648 15.25 18.0006 14.9142 18.0006 14.5V12.75H20.2522C20.6664 12.75 21.0022 12.4142 21.0022 12C21.0022 11.5858 20.6664 11.25 20.2522 11.25H18.0006V9.5C18.0006 9.08579 17.6648 8.75 17.2506 8.75C16.8364 8.75 16.5006 9.08579 16.5006 9.5V11.25H3.7478ZM2.9978 18.25C2.9978 17.8358 3.33359 17.5 3.7478 17.5H6V15.75C6 15.3358 6.33579 15 6.75 15C7.16421 15 7.5 15.3358 7.5 15.75V17.5H20.2522C20.6664 17.5 21.0022 17.8358 21.0022 18.25C21.0022 18.6642 20.6664 19 20.2522 19H7.5V20.75C7.5 21.1642 7.16421 21.5 6.75 21.5C6.33579 21.5 6 21.1642 6 20.75V19H3.7478C3.33359 19 2.9978 18.6642 2.9978 18.25Z" fill="#3C3C3C"/>
</svg>
