<svg width="24" height="24" viewBox="0 0 24 24" fill="none" xmlns="http://www.w3.org/2000/svg">
<path fill-rule="evenodd" clip-rule="evenodd" d="M19.5 12C19.5 16.1421 16.1421 19.5 12 19.5C7.85786 19.5 4.5 16.1421 4.5 12C4.5 7.85786 7.85786 4.5 12 4.5C16.1421 4.5 19.5 7.85786 19.5 12ZM21 12C21 16.9706 16.9706 21 12 21C7.02944 21 3 16.9706 3 12C3 7.02944 7.02944 3 12 3C16.9706 3 21 7.02944 21 12ZM9.00004 7C8.58583 7 8.25004 7.33579 8.25004 7.75V11.2868C8.25004 11.5279 8.36596 11.7543 8.56158 11.8952C8.7572 12.0362 9.00866 12.0745 9.23738 11.9982C10.5273 11.5679 11.7972 11.4945 12.6924 11.7682C13.1308 11.9023 13.4491 12.1093 13.6573 12.3665C13.8598 12.6168 14 12.9658 14 13.4693C14 13.9864 13.8685 14.3388 13.7002 14.5883C13.5278 14.8439 13.288 15.0337 13.0155 15.1746C12.7409 15.3165 12.4495 15.3999 12.2048 15.447C12.0841 15.4702 11.9793 15.4837 11.8999 15.4912C11.8603 15.495 11.8278 15.4973 11.8036 15.4986C11.7915 15.4992 11.7819 15.4996 11.7749 15.4998L11.7663 15.5C11.7653 15.5 11.7647 15.5 11.7646 15.5H11.7645C10.849 15.5 10.0411 14.9705 9.56173 14.4287C9.28726 14.1185 8.81327 14.0895 8.50305 14.364C8.19282 14.6384 8.16383 15.1124 8.43829 15.4226C9.09879 16.1692 10.2845 17 11.7645 17C11.9661 17 12.8456 16.9509 13.7042 16.5071C14.1438 16.2799 14.5991 15.9381 14.9438 15.427C15.2925 14.9099 15.5 14.2605 15.5 13.4693C15.5 12.6646 15.2671 11.9714 14.8234 11.423C14.3854 10.8817 13.7846 10.5336 13.131 10.3338C12.1258 10.0265 10.9282 10.046 9.75004 10.303V8.5H14.4999C14.9142 8.5 15.25 8.16421 15.25 7.75C15.25 7.33579 14.9132 7 14.499 7H9.00004Z" fill="#3C3C3C"/>
</svg>
