<svg width="24" height="24" viewBox="0 0 24 24" fill="none" xmlns="http://www.w3.org/2000/svg">
<path fill-rule="evenodd" clip-rule="evenodd" d="M4.01793 4.03668C4.4097 3.90218 4.83633 4.11074 4.97082 4.50251L5.31123 5.49402C6.08577 4.76139 6.88328 4.31529 7.70809 4.07323C8.83015 3.74393 9.92937 3.81604 10.9323 3.93617C11.1615 3.96362 11.3859 3.99303 11.6061 4.0219C13.3746 4.25373 14.8778 4.45077 16.5066 3.3224C17.2884 2.7808 18.5651 2.98411 18.9333 4.06063L20.9543 9.97059C21.1212 10.4586 21.0389 11.0616 20.6043 11.4753C19.6 12.4312 18.4246 12.7373 17.258 12.7906C16.4303 12.8285 15.5379 12.7373 14.7011 12.6518C14.408 12.6218 14.1218 12.5926 13.8476 12.5698C12.7364 12.4776 11.7308 12.4759 10.8169 12.7884C10.0037 13.0665 9.20601 13.6142 8.47711 14.7052L10.4132 20.0523C10.5542 20.4418 10.3528 20.8718 9.96337 21.0128C9.5739 21.1539 9.14385 20.9525 9.00283 20.563L6.93707 14.8578L3.55211 4.98957C3.41761 4.5978 3.62616 4.17118 4.01793 4.03668ZM5.85933 7.09096L7.89084 13.0147C8.62887 12.1898 9.4511 11.6702 10.3315 11.3691C11.553 10.9514 12.8188 10.9792 13.9717 11.075C14.3145 11.1034 14.6423 11.1369 14.9587 11.1692C15.7562 11.2506 16.4811 11.3246 17.1895 11.2922C18.1089 11.2501 18.8763 11.0263 19.5261 10.4299L17.514 4.54599C17.5141 4.5462 17.5139 4.54571 17.514 4.54599C17.5114 4.54402 17.5031 4.53796 17.4874 4.53376C17.446 4.5227 17.3967 4.53054 17.3608 4.55543C15.2283 6.03275 13.1377 5.74742 11.3919 5.50915C11.1737 5.47936 10.9608 5.4503 10.7539 5.42552C9.79098 5.31018 8.94621 5.27314 8.13049 5.51253C7.41224 5.72332 6.65618 6.16772 5.85933 7.09096Z" fill="#3C3C3C"/>
</svg>
