<svg width="24" height="24" viewBox="0 0 24 24" fill="none" xmlns="http://www.w3.org/2000/svg">
<path fill-rule="evenodd" clip-rule="evenodd" d="M8 7.5V11C8 12.933 9.567 14.5 11.5 14.5H12.5C14.433 14.5 16 12.933 16 11V7.5V6V4.5H8V6V7.5ZM6.5 7.5V10.8711C5.89701 10.4675 5.5 9.7801 5.5 9V7.75C5.5 7.61193 5.61193 7.5 5.75 7.5H6.5ZM6.5 6H5.75C4.7835 6 4 6.7835 4 7.75V9C4 10.7314 5.1734 12.1888 6.76835 12.6202C7.41574 14.5113 9.16495 15.8912 11.25 15.9939V16.9999H9.99469C8.34077 16.9999 7 18.3406 7 19.9946C7 20.5459 7.44692 20.9928 7.99823 20.9928H16.0018C16.5531 20.9928 17 20.5459 17 19.9946C17 18.3406 15.6592 16.9999 14.0053 16.9999H12.75V15.9939C14.8351 15.8912 16.5843 14.5113 17.2317 12.6202C18.8266 12.1888 20 10.7314 20 9V7.75C20 6.7835 19.2165 6 18.25 6H17.5V4C17.5 3.44772 17.0523 3 16.5 3H7.5C6.94772 3 6.5 3.44772 6.5 4V6ZM17.5 10.8711V7.5H18.25C18.3881 7.5 18.5 7.61193 18.5 7.75V9C18.5 9.7801 18.103 10.4675 17.5 10.8711ZM14.0053 18.4999H9.99469C9.34522 18.4999 8.79249 18.9141 8.58631 19.4928H15.4137C15.2075 18.9141 14.6548 18.4999 14.0053 18.4999Z" fill="#3C3C3C"/>
</svg>
