<svg width="24" height="24" viewBox="0 0 24 24" fill="none" xmlns="http://www.w3.org/2000/svg">
<path fill-rule="evenodd" clip-rule="evenodd" d="M10.2647 18.6228L10.3127 18.6187C12.4828 18.4328 14.7256 17.8121 16.2491 16.3101C17.4959 15.0808 18.1593 13.3614 18.4779 11.5895L18.4053 11.6611L12.3795 5.54935C10.6466 5.85172 8.96861 6.4893 7.75056 7.69021C6.23914 9.18035 5.58495 11.3908 5.36318 13.542L10.3543 18.5331L10.2647 18.6228ZM8.38007 18.6802L5.26937 15.5695C5.27694 16.8073 5.39405 17.8438 5.4778 18.4303C6.07016 18.5235 7.12277 18.6574 8.38007 18.6802ZM18.5218 5.56993C18.6353 6.36474 18.81 7.98557 18.6905 9.81396L14.2806 5.34108C16.1105 5.24751 17.7287 5.44519 18.5218 5.56993ZM3.86541 13.4441C4.09598 11.1373 4.80793 8.48497 6.69745 6.62206C8.58696 4.75914 11.2492 4.08487 13.5589 3.88701C15.8856 3.68771 17.9812 3.9611 18.8675 4.10622C19.4537 4.2022 19.9026 4.65758 19.9903 5.24505C20.1228 6.13333 20.3665 8.23258 20.1342 10.5562C19.9036 12.8629 19.1917 15.5153 17.3022 17.3782C15.4127 19.2411 12.7505 19.9154 10.4407 20.1133C8.11403 20.3126 6.01845 20.0392 5.13214 19.8941C4.54597 19.7981 4.09699 19.3427 4.00933 18.7552C3.87679 17.8669 3.63314 15.7677 3.86541 13.4441ZM8.0186 12.8334C8.31356 12.5426 8.78842 12.546 9.07923 12.841L9.60659 13.3759L10.6115 12.3851L10.0838 11.8499C9.79302 11.5549 9.79639 11.0801 10.0914 10.7893C10.3863 10.4985 10.8612 10.5018 11.152 10.7968L11.6797 11.332L12.684 10.3418L12.1564 9.80668C11.8656 9.51172 11.869 9.03686 12.1639 8.74605C12.4589 8.45524 12.9337 8.4586 13.2246 8.75357L15.2685 10.8267C15.5594 11.1217 15.556 11.5966 15.261 11.8874C14.9661 12.1782 14.4912 12.1748 14.2004 11.8798L13.7371 11.4099L12.7328 12.4001L13.196 12.8699C13.4868 13.1649 13.4834 13.6398 13.1885 13.9306C12.8935 14.2214 12.4186 14.218 12.1278 13.9231L11.6646 13.4532L10.6597 14.444L11.1232 14.9141C11.414 15.2091 11.4107 15.684 11.1157 15.9748C10.8207 16.2656 10.3459 16.2622 10.0551 15.9672L8.01108 13.8941C7.72027 13.5991 7.72364 13.1243 8.0186 12.8334Z" fill="#3C3C3C"/>
</svg>
