<svg width="24" height="24" viewBox="0 0 24 24" fill="none" xmlns="http://www.w3.org/2000/svg">
<path fill-rule="evenodd" clip-rule="evenodd" d="M19.5 12C19.5 16.1421 16.1421 19.5 12 19.5C7.85786 19.5 4.5 16.1421 4.5 12C4.5 7.85786 7.85786 4.5 12 4.5C16.1421 4.5 19.5 7.85786 19.5 12ZM21 12C21 16.9706 16.9706 21 12 21C7.02944 21 3 16.9706 3 12C3 7.02944 7.02944 3 12 3C16.9706 3 21 7.02944 21 12ZM10.9699 8.03946C11.1297 7.65734 10.9496 7.21798 10.5674 7.05812C10.1853 6.89826 9.74595 7.07844 9.58609 7.46056L8.00138 11.2486C7.70278 11.9623 8.22708 12.75 9.00079 12.75H13.25V16.25C13.25 16.6642 13.5858 17 14 17C14.4142 17 14.75 16.6642 14.75 16.25V7.75001C14.75 7.3358 14.4142 7.00001 14 7.00001C13.5858 7.00001 13.25 7.3358 13.25 7.75001V11.25H9.62676L10.9699 8.03946Z" fill="#3C3C3C"/>
</svg>
