<svg width="24" height="24" viewBox="0 0 24 24" fill="none" xmlns="http://www.w3.org/2000/svg">
<path fill-rule="evenodd" clip-rule="evenodd" d="M19.5 14V17.5H16.4378C16.1688 15.8966 15.0518 14.5806 13.5638 14.0291L14.2217 11.7042C14.3345 11.3057 14.1028 10.8911 13.7042 10.7783C13.3057 10.6656 12.8911 10.8972 12.7783 11.2958L12.0836 13.7508C12.0558 13.7503 12.0279 13.75 12 13.75C9.77025 13.75 7.91928 15.3717 7.56222 17.5H4.5L4.5 14C4.5 9.85786 7.85786 6.5 12 6.5C16.1421 6.5 19.5 9.85786 19.5 14ZM15.75 19H16.5H19.5C20.3284 19 21 18.3284 21 17.5V14C21 9.02944 16.9706 5 12 5C7.02944 5 3 9.02944 3 14V17.5C3 18.3284 3.67157 19 4.5 19H7.5H8.25H15.75ZM12 15.25C13.3979 15.25 14.5725 16.2061 14.9055 17.5H9.09451C9.42755 16.2061 10.6021 15.25 12 15.25ZM12.0001 9.5C12.4143 9.5 12.7501 9.16421 12.7501 8.75C12.7501 8.33579 12.4143 8 12.0001 8C11.5858 8 11.2501 8.33579 11.2501 8.75C11.2501 9.16421 11.5858 9.5 12.0001 9.5ZM8.5 10.75C8.5 11.1642 8.16421 11.5 7.75 11.5C7.33579 11.5 7 11.1642 7 10.75C7 10.3358 7.33579 10 7.75 10C8.16421 10 8.5 10.3358 8.5 10.75ZM6.75 15.5C7.16421 15.5 7.5 15.1642 7.5 14.75C7.5 14.3358 7.16421 14 6.75 14C6.33579 14 6 14.3358 6 14.75C6 15.1642 6.33579 15.5 6.75 15.5ZM18 14.75C18 15.1642 17.6642 15.5 17.25 15.5C16.8358 15.5 16.5 15.1642 16.5 14.75C16.5 14.3358 16.8358 14 17.25 14C17.6642 14 18 14.3358 18 14.75ZM16.5 11.5C16.9142 11.5 17.25 11.1642 17.25 10.75C17.25 10.3358 16.9142 10 16.5 10C16.0858 10 15.75 10.3358 15.75 10.75C15.75 11.1642 16.0858 11.5 16.5 11.5Z" fill="#3C3C3C"/>
</svg>
