<svg width="24" height="24" viewBox="0 0 24 24" fill="none" xmlns="http://www.w3.org/2000/svg">
<path fill-rule="evenodd" clip-rule="evenodd" d="M8.33261 5.67408C8.16226 5.97063 8.25187 6.50407 8.79594 6.79923C8.87059 6.83974 9.086 6.90368 9.47046 6.95353C9.82622 6.99965 10.2422 7.0241 10.6482 7.03514C10.7161 7.03699 10.7834 7.03846 10.8496 7.03959C10.8139 6.98538 10.7773 6.9305 10.74 6.87528C10.5173 6.54524 10.2776 6.21396 10.0505 5.94387C9.80504 5.65199 9.63598 5.50736 9.56132 5.46686C9.01725 5.1717 8.50297 5.37752 8.33261 5.67408ZM16.5047 7.6975H18.8743C19.7027 7.6975 20.3743 8.36907 20.3743 9.1975V10.8743C20.3743 11.6248 19.8231 12.2466 19.1034 12.3569L19.1036 12.3741V18.4984C19.1036 19.3269 18.432 19.9984 17.6036 19.9984H6.39636C5.56794 19.9984 4.89636 19.3269 4.89636 18.4984V12.3741L4.89646 12.3569C4.17683 12.2466 3.62567 11.6248 3.62567 10.8743V9.1975C3.62567 8.36907 4.29724 7.6975 5.12567 7.6975H7.49514C6.75981 6.99866 6.4703 5.9055 7.01414 4.95879C7.67915 3.80116 9.18991 3.55935 10.3085 4.16619C10.6495 4.35119 10.97 4.68803 11.2252 4.99151C11.4958 5.31333 11.7648 5.68673 11.9999 6.03458C12.2351 5.68673 12.5041 5.31333 12.7747 4.99151C13.0298 4.68803 13.3504 4.35119 13.6914 4.16619C14.81 3.55935 16.3207 3.80116 16.9857 4.95879C17.5296 5.9055 17.2401 6.99866 16.5047 7.6975ZM12.75 12.3743H17.6036L17.6036 18.4984L12.75 18.4984V12.3743ZM6.39636 12.3743H11.25V18.4984H6.39636V12.3743ZM17.6258 10.8743H18.8743V9.1975H5.12567V10.8743H6.37412L6.39636 10.8741H17.6036L17.6258 10.8743ZM15.2039 6.79923C15.748 6.50407 15.8376 5.97063 15.6673 5.67408C15.4969 5.37752 14.9826 5.1717 14.4386 5.46686C14.3639 5.50736 14.1948 5.65199 13.9494 5.94387C13.7223 6.21396 13.4826 6.54524 13.2598 6.87528C13.2226 6.9305 13.186 6.98538 13.1502 7.03959C13.2165 7.03846 13.2838 7.03699 13.3517 7.03514C13.7577 7.0241 14.1737 6.99965 14.5294 6.95353C14.9139 6.90368 15.1293 6.83974 15.2039 6.79923Z" fill="#3C3C3C"/>
</svg>
