<svg width="24" height="24" viewBox="0 0 24 24" fill="none" xmlns="http://www.w3.org/2000/svg">
<path fill-rule="evenodd" clip-rule="evenodd" d="M12.6049 3.7168C12.2236 3.55157 11.7909 3.55193 11.4098 3.7178L2.92497 7.41134C1.72214 7.93494 1.72357 9.64143 2.92727 10.163L11.3964 13.8328C11.7777 13.9981 12.2104 13.9977 12.5914 13.8318L16.5 12.1304V17.5391H7.5V12.1445L6 11.4945V17.5391C6 18.3675 6.67157 19.0391 7.5 19.0391H16.5C17.3284 19.0391 18 18.3675 18 17.5391V11.4775L20.4784 10.3986V12.5842C20.4784 12.9984 20.8142 13.3342 21.2284 13.3342C21.6426 13.3342 21.9784 12.9984 21.9784 12.5842V8.75144C21.9784 8.73061 21.9775 8.70999 21.9759 8.68959C21.9506 8.15691 21.6499 7.63615 21.074 7.38661L12.6049 3.7168ZM20.4776 8.76295L12.0085 5.09314L3.52367 8.78667L11.9927 12.4565L20.4776 8.76295Z" fill="#3C3C3C"/>
</svg>
