<svg width="24" height="24" viewBox="0 0 24 24" fill="none" xmlns="http://www.w3.org/2000/svg">
<path fill-rule="evenodd" clip-rule="evenodd" d="M16.5 6.5C16.5 7.05228 16.9477 7.5 17.5 7.5C18.0523 7.5 18.5 7.05228 18.5 6.5C18.5 5.94772 18.0523 5.5 17.5 5.5C16.9477 5.5 16.5 5.94772 16.5 6.5ZM17.5 4C16.1193 4 15 5.11929 15 6.5C15 7.40198 15.4777 8.1924 16.1939 8.63208L15.3508 12.0044C14.8434 12.0342 14.3767 12.2154 13.9952 12.5035L10.8771 10.2763C10.9569 10.0319 11 9.771 11 9.5C11 8.11929 9.88071 7 8.5 7C7.11929 7 6 8.11929 6 9.5C6 10.402 6.47768 11.1924 7.19386 11.6321L6.35078 15.0044C5.03954 15.0816 4 16.1694 4 17.5C4 18.8807 5.11929 20 6.5 20C7.88071 20 9 18.8807 9 17.5C9 16.598 8.52229 15.8075 7.80607 15.3679L8.64914 11.9956C9.15654 11.9658 9.62326 11.7846 10.0048 11.4966L13.1229 13.7237C13.0431 13.9681 13 14.229 13 14.5C13 15.8807 14.1193 17 15.5 17C16.8807 17 18 15.8807 18 14.5C18 13.598 17.5223 12.8075 16.8061 12.3679L17.6491 8.99563C18.9604 8.91848 20 7.83064 20 6.5C20 5.11929 18.8807 4 17.5 4ZM14.5 14.5C14.5 15.0523 14.9477 15.5 15.5 15.5C16.0523 15.5 16.5 15.0523 16.5 14.5C16.5 13.9477 16.0523 13.5 15.5 13.5C14.9477 13.5 14.5 13.9477 14.5 14.5ZM6.5 18.5C5.94772 18.5 5.5 18.0523 5.5 17.5C5.5 16.9477 5.94772 16.5 6.5 16.5C7.05228 16.5 7.5 16.9477 7.5 17.5C7.5 18.0523 7.05228 18.5 6.5 18.5ZM7.5 9.5C7.5 10.0523 7.94772 10.5 8.5 10.5C9.05228 10.5 9.5 10.0523 9.5 9.5C9.5 8.94772 9.05228 8.5 8.5 8.5C7.94772 8.5 7.5 8.94772 7.5 9.5Z" fill="#3C3C3C"/>
</svg>
