<svg width="24" height="24" viewBox="0 0 24 24" fill="none" xmlns="http://www.w3.org/2000/svg">
<path d="M17 8.00002C17 8.55231 16.5523 9.00002 16 9.00002C15.4477 9.00002 15 8.55231 15 8.00002C15 7.44774 15.4477 7.00002 16 7.00002C16.5523 7.00002 17 7.44774 17 8.00002Z" fill="#3C3C3C"/>
<path d="M18 10.75C18 11.7165 17.1046 12.5 16 12.5C14.8954 12.5 14 11.7165 14 10.75C14 9.78353 14.8954 9.00002 16 9.00002C17.1046 9.00002 18 9.78353 18 10.75Z" fill="#3C3C3C"/>
<path d="M9.00001 8.00002C9.00001 8.55231 8.55229 9.00002 8.00001 9.00002C7.44772 9.00002 7.00001 8.55231 7.00001 8.00002C7.00001 7.44774 7.44772 7.00002 8.00001 7.00002C8.55229 7.00002 9.00001 7.44774 9.00001 8.00002Z" fill="#3C3C3C"/>
<path d="M10 10.75C10 11.7165 9.10458 12.5 8.00001 12.5C6.89544 12.5 6.00001 11.7165 6.00001 10.75C6.00001 9.78353 6.89544 9.00002 8.00001 9.00002C9.10458 9.00002 10 9.78353 10 10.75Z" fill="#3C3C3C"/>
<path d="M13 13.6901C13 14.2423 12.5523 14.6901 12 14.6901C11.4477 14.6901 11 14.2423 11 13.6901C11 13.1378 11.4477 12.6901 12 12.6901C12.5523 12.6901 13 13.1378 13 13.6901Z" fill="#3C3C3C"/>
<path d="M14 16.4401C14 17.4066 13.1046 18.1901 12 18.1901C10.8954 18.1901 10 17.4066 10 16.4401C10 15.4736 10.8954 14.6901 12 14.6901C13.1046 14.6901 14 15.4736 14 16.4401Z" fill="#3C3C3C"/>
<path fill-rule="evenodd" clip-rule="evenodd" d="M15.125 4.63918C15.6665 4.32657 16.3336 4.32657 16.875 4.63918L19.3391 6.06183C19.8806 6.37444 20.2141 6.95216 20.2141 7.57737V10.4227C20.2141 11.0479 19.8806 11.6256 19.3391 11.9382L16.875 13.3609C16.3336 13.6735 15.6665 13.6735 15.125 13.3609L12.6609 11.9382C12.1195 11.6256 11.7859 11.0479 11.7859 10.4227V7.57737C11.7859 6.95216 12.1195 6.37444 12.6609 6.06183L15.125 4.63918ZM16.125 5.93822C16.0477 5.89356 15.9524 5.89356 15.875 5.93822L13.4109 7.36087C13.3336 7.40553 13.2859 7.48806 13.2859 7.57737V10.4227C13.2859 10.512 13.3336 10.5945 13.4109 10.6392L15.875 12.0618C15.9524 12.1065 16.0477 12.1065 16.125 12.0618L18.5891 10.6392C18.6665 10.5945 18.7141 10.512 18.7141 10.4227V7.57737C18.7141 7.48806 18.6665 7.40553 18.5891 7.36087L16.125 5.93822Z" fill="#3C3C3C"/>
<path fill-rule="evenodd" clip-rule="evenodd" d="M7.12501 4.63918C7.66646 4.32657 8.33355 4.32657 8.87501 4.63918L11.3391 6.06183C11.8806 6.37444 12.2141 6.95216 12.2141 7.57737V10.4227C12.2141 11.0479 11.8806 11.6256 11.3391 11.9382L8.87501 13.3609C8.33355 13.6735 7.66646 13.6735 7.12501 13.3609L4.6609 11.9382C4.11945 11.6256 3.7859 11.0479 3.7859 10.4227V7.57737C3.7859 6.95216 4.11945 6.37444 4.6609 6.06183L7.12501 4.63918ZM8.12501 5.93822C8.04766 5.89356 7.95236 5.89356 7.87501 5.93822L5.4109 7.36087C5.33355 7.40553 5.2859 7.48806 5.2859 7.57737V10.4227C5.2859 10.512 5.33355 10.5945 5.4109 10.6392L7.87501 12.0618C7.95236 12.1065 8.04766 12.1065 8.12501 12.0618L10.5891 10.6392C10.6665 10.5945 10.7141 10.512 10.7141 10.4227V7.57737C10.7141 7.48806 10.6665 7.40553 10.5891 7.36087L8.12501 5.93822Z" fill="#3C3C3C"/>
<path fill-rule="evenodd" clip-rule="evenodd" d="M12.875 19.0509C12.3336 19.3635 11.6665 19.3635 11.125 19.0509L8.6609 17.6283C8.11945 17.3156 7.7859 16.7379 7.7859 16.1127L7.7859 13.2674C7.7859 12.6422 8.11945 12.0645 8.6609 11.7519L11.125 10.3292C11.6665 10.0166 12.3336 10.0166 12.875 10.3292L15.3391 11.7519C15.8806 12.0645 16.2141 12.6422 16.2141 13.2674V16.1127C16.2141 16.7379 15.8806 17.3156 15.3391 17.6283L12.875 19.0509ZM11.875 17.7519C11.9524 17.7965 12.0477 17.7965 12.125 17.7519L14.5891 16.3292C14.6665 16.2846 14.7141 16.202 14.7141 16.1127V13.2674C14.7141 13.1781 14.6665 13.0956 14.5891 13.0509L12.125 11.6283C12.0477 11.5836 11.9524 11.5836 11.875 11.6283L9.4109 13.0509C9.33355 13.0956 9.2859 13.1781 9.2859 13.2674L9.2859 16.1127C9.2859 16.202 9.33355 16.2846 9.4109 16.3292L11.875 17.7519Z" fill="#3C3C3C"/>
</svg>
