<svg width="24" height="24" viewBox="0 0 24 24" fill="none" xmlns="http://www.w3.org/2000/svg">
<path fill-rule="evenodd" clip-rule="evenodd" d="M10.6008 5.51413C10.7181 4.97687 11.2638 4.5 12.0002 4.5C12.7363 4.5 13.282 4.97665 13.3994 5.51374L13.574 6.31192L14.3544 6.06982C15.0224 5.86256 15.7442 6.12413 16.0733 6.64841C16.386 7.14645 16.2774 7.77417 15.7921 8.16695L15.0719 8.74992L15.7922 9.33287C16.2774 9.72565 16.3861 10.3534 16.0734 10.8514C15.7443 11.3757 15.0224 11.6373 14.3544 11.43L13.574 11.1879L13.3995 11.9861C13.282 12.5232 12.7363 12.9999 12.0002 12.9999C11.2639 12.9999 10.7182 12.5232 10.6008 11.986L10.4264 11.1877L9.6459 11.4298C8.97785 11.637 8.25605 11.3755 7.92693 10.8512C7.61435 10.3533 7.72285 9.72573 8.20778 9.33293L8.92726 8.75015L8.2078 8.16735C7.72288 7.77455 7.61439 7.14704 7.92697 6.64911C8.25608 6.12486 8.97783 5.86329 9.64586 6.07049L10.4265 6.31261L10.6008 5.51413ZM12.0002 3C10.8878 3 9.88039 3.59341 9.38913 4.50769C8.32904 4.43593 7.24883 4.90812 6.65656 5.85158C6.06652 6.79147 6.14326 7.90935 6.72312 8.75012C6.14323 9.59091 6.06647 10.7088 6.65652 11.6487C7.24884 12.5922 8.32916 13.0644 9.38932 12.9926C9.88066 13.9067 10.8879 14.4999 12.0002 14.4999C13.1123 14.4999 14.1195 13.9068 14.6109 12.9928C15.6711 13.0647 16.7515 12.5925 17.3438 11.649C17.934 10.7089 17.8571 9.59073 17.2769 8.74989C17.857 7.90907 17.9339 6.79096 17.3438 5.85088C16.7514 4.90731 15.671 4.43512 14.6108 4.50702C14.1194 3.59312 13.1123 3 12.0002 3ZM11.25 8.75C11.25 8.33579 11.5858 8 12 8C12.4142 8 12.75 8.33579 12.75 8.75C12.75 9.16421 12.4142 9.5 12 9.5C11.5858 9.5 11.25 9.16421 11.25 8.75ZM12 6.5C10.7574 6.5 9.75001 7.50736 9.75001 8.75C9.75001 9.99264 10.7574 11 12 11C13.2427 11 14.25 9.99264 14.25 8.75C14.25 7.50736 13.2427 6.5 12 6.5ZM3.30063 14.0888C3.19082 13.1848 3.94628 12.4626 4.81031 12.5328C7.97869 12.7904 10.7289 14.5683 12 17.0979C13.271 14.5683 16.0213 12.7904 19.1896 12.5328C20.0537 12.4626 20.8091 13.1848 20.6993 14.0888C20.2181 18.0504 16.4325 21 12 21C7.5675 21 3.78183 18.0504 3.30063 14.0888ZM11.192 19.462C7.80896 19.1409 5.21593 16.8276 4.80715 14.0383C8.19942 14.3619 10.7789 16.6682 11.192 19.462ZM12.8079 19.462C16.191 19.1409 18.784 16.8276 19.1928 14.0383C15.8005 14.3619 13.2211 16.6682 12.8079 19.462Z" fill="#3C3C3C"/>
</svg>
