<svg width="24" height="24" viewBox="0 0 24 24" fill="none" xmlns="http://www.w3.org/2000/svg">
<path fill-rule="evenodd" clip-rule="evenodd" d="M19.5 12C19.5 16.1421 16.1421 19.5 12 19.5C7.85786 19.5 4.5 16.1421 4.5 12C4.5 7.85786 7.85786 4.5 12 4.5C16.1421 4.5 19.5 7.85786 19.5 12ZM21 12C21 16.9706 16.9706 21 12 21C7.02944 21 3 16.9706 3 12C3 7.02944 7.02944 3 12 3C16.9706 3 21 7.02944 21 12ZM8 11C8.55228 11 9 10.5523 9 10C9 9.44772 8.55228 9 8 9C7.44772 9 7 9.44772 7 10C7 10.5523 7.44772 11 8 11ZM17 10C17 10.5523 16.5523 11 16 11C15.4477 11 15 10.5523 15 10C15 9.44772 15.4477 9 16 9C16.5523 9 17 9.44772 17 10ZM7.48994 12.6276C7.42235 12.2189 7.03627 11.9425 6.62761 12.01C6.21895 12.0776 5.94246 12.4637 6.01005 12.8724C6.49007 15.7747 8.98147 18 12 18C15.0185 18 17.5099 15.7747 17.9899 12.8724C18.0575 12.4637 17.781 12.0776 17.3724 12.01C16.9637 11.9425 16.5776 12.2189 16.51 12.6276C16.1453 14.8332 14.2572 16.5 12 16.5C9.74283 16.5 7.85473 14.8332 7.48994 12.6276Z" fill="#3C3C3C"/>
</svg>
