<svg width="24" height="24" viewBox="0 0 24 24" fill="none" xmlns="http://www.w3.org/2000/svg">
<path fill-rule="evenodd" clip-rule="evenodd" d="M11.9988 4.99347C10.7563 4.99347 9.74896 6.00077 9.74896 7.24334C9.74896 8.22295 10.375 9.05634 11.2489 9.36519V10.9951H7.24945C5.73067 10.9951 4.49945 12.2263 4.49945 13.7451V14.6348C3.62681 14.9443 3.00183 15.7771 3.00183 16.7558C3.00183 17.9984 4.00913 19.0057 5.2517 19.0057C6.49427 19.0057 7.50156 17.9984 7.50156 16.7558C7.50156 15.7754 6.87444 14.9415 5.99945 14.6332V13.7451C5.99945 13.0548 6.55909 12.4951 7.24945 12.4951H11.2489V14.6334C10.3741 14.9417 9.74719 15.7756 9.74719 16.7558C9.74719 17.9984 10.7545 19.0057 11.9971 19.0057C13.2396 19.0057 14.2469 17.9984 14.2469 16.7558C14.2469 15.7769 13.6218 14.9441 12.7489 14.6347V12.4951H16.7424C17.4327 12.4951 17.9924 13.0548 17.9924 13.7451V14.6361C17.1216 14.9466 16.4984 15.7785 16.4984 16.7558C16.4984 17.9984 17.5057 19.0057 18.7483 19.0057C19.9908 19.0057 20.9981 17.9984 20.9981 16.7558C20.9981 15.7741 20.3693 14.9392 19.4924 14.6319V13.7451C19.4924 12.2263 18.2612 10.9951 16.7424 10.9951H12.7489V9.36514C13.6227 9.05625 14.2487 8.2229 14.2487 7.24334C14.2487 6.00077 13.2414 4.99347 11.9988 4.99347ZM11.249 7.24334C11.249 6.8292 11.5847 6.49347 11.9988 6.49347C12.413 6.49347 12.7487 6.8292 12.7487 7.24334C12.7487 7.65748 12.413 7.9932 11.9988 7.9932C11.5847 7.9932 11.249 7.65748 11.249 7.24334ZM4.50183 16.7558C4.50183 16.3424 4.83643 16.0071 5.24961 16.006L5.2517 16.006C5.66584 16.006 6.00156 16.3417 6.00156 16.7558C6.00156 17.17 5.66584 17.5057 5.2517 17.5057C4.83756 17.5057 4.50183 17.17 4.50183 16.7558ZM11.2472 16.7558C11.2472 16.3417 11.5829 16.006 11.9971 16.006C12.4112 16.006 12.7469 16.3417 12.7469 16.7558C12.7469 17.17 12.4112 17.5057 11.9971 17.5057C11.5829 17.5057 11.2472 17.17 11.2472 16.7558ZM18.7483 16.006C18.3341 16.006 17.9984 16.3417 17.9984 16.7558C17.9984 17.17 18.3341 17.5057 18.7483 17.5057C19.1624 17.5057 19.4981 17.17 19.4981 16.7558C19.4981 16.3417 19.1624 16.006 18.7483 16.006Z" fill="#3C3C3C"/>
</svg>
