<svg width="24" height="24" viewBox="0 0 24 24" fill="none" xmlns="http://www.w3.org/2000/svg">
<path fill-rule="evenodd" clip-rule="evenodd" d="M12 15C11.1716 15 10.5 15.6716 10.5 16.5V18.4993C10.5 19.3278 9.82843 19.9993 9 19.9993H5.5C4.67157 19.9993 4 19.3278 4 18.4993V10.6807C4 10.2481 4.18676 9.83661 4.51235 9.55178L11.0138 3.86404C11.5793 3.36931 12.4236 3.36931 12.9891 3.86404L19.4906 9.55178C19.8162 9.83661 20.0029 10.2481 20.0029 10.6807V18.4993C20.0029 19.3278 19.3314 19.9993 18.5029 19.9993H15C14.1716 19.9993 13.5 19.3278 13.5 18.4993V16.5C13.5 16.2268 13.427 15.9706 13.2993 15.75C13.04 15.3016 12.5552 15 12 15ZM12 13.5C13.6569 13.5 15 14.8431 15 16.5V18.4993L18.5029 18.4993V10.6807L12.0015 4.99299L5.5 10.6807V18.4993H9V16.5C9 14.8431 10.3431 13.5 12 13.5Z" fill="#3C3C3C"/>
</svg>
