<svg width="24" height="24" viewBox="0 0 24 24" fill="none" xmlns="http://www.w3.org/2000/svg">
<path fill-rule="evenodd" clip-rule="evenodd" d="M5.25 3C4.83579 3 4.5 3.33579 4.5 3.75C4.5 4.16421 4.83579 4.5 5.25 4.5H6.55235C6.05396 6.88238 6.23697 8.54569 7.13238 9.80326C7.62379 10.4934 8.28937 11.0004 9.03177 11.4277C9.37766 11.6267 9.75104 11.8144 10.1431 11.9978C9.75386 12.1789 9.38352 12.364 9.0404 12.5601C8.2924 12.9876 7.62303 13.4944 7.12961 14.1853C6.23022 15.4447 6.05116 17.1113 6.55222 19.5H5.25C4.83579 19.5 4.5 19.8358 4.5 20.25C4.5 20.6642 4.83579 21 5.25 21H18.75C19.1642 21 19.5 20.6642 19.5 20.25C19.5 19.8358 19.1642 19.5 18.75 19.5H17.4475C17.9459 17.1176 17.7629 15.4542 16.8675 14.1967C16.3761 13.5065 15.7105 12.9996 14.9681 12.5723C14.6222 12.3732 14.2489 12.1856 13.8569 12.0022C14.2461 11.8211 14.6164 11.636 14.9595 11.44C15.7075 11.0125 16.3768 10.5057 16.8702 9.81475C17.7696 8.55536 17.9486 6.88879 17.4476 4.5H18.75C19.1642 4.5 19.5 4.16421 19.5 3.75C19.5 3.33579 19.1642 3 18.75 3H5.25ZM15.9119 4.5H8.08791C7.539 6.89436 7.78415 8.13249 8.35429 8.93324C8.67375 9.38191 9.139 9.75867 9.78002 10.1276C10.3984 10.4835 11.1336 10.8069 12.0012 11.1831C12.8662 10.8107 13.5989 10.4898 14.2152 10.1376C14.862 9.768 15.3294 9.39129 15.6495 8.94302C16.2209 8.14287 16.464 6.90453 15.9119 4.5ZM11.9988 12.8169C11.1337 13.1893 10.401 13.5103 9.78466 13.8625C9.13788 14.2321 8.67043 14.6088 8.35029 15.0571C7.77887 15.8572 7.53581 17.0955 8.08794 19.5H15.912C16.4608 17.1056 16.2157 15.8674 15.6455 15.0667C15.3261 14.618 14.8609 14.2413 14.2198 13.8723C13.6015 13.5165 12.8663 13.193 11.9988 12.8169Z" fill="#3C3C3C"/>
</svg>
