<svg width="24" height="24" viewBox="0 0 24 24" fill="none" xmlns="http://www.w3.org/2000/svg">
<path fill-rule="evenodd" clip-rule="evenodd" d="M3 4.5C3 3.67157 3.67157 3 4.5 3H19.5C20.3284 3 21 3.67157 21 4.5V19.5C21 19.7375 20.9448 19.9621 20.8465 20.1617C20.8377 20.1797 20.8285 20.1974 20.819 20.215C20.5798 20.6553 20.1266 20.9624 19.5991 20.9968C19.5663 20.9989 19.5333 21 19.5 21H4.5C3.67157 21 3 20.3284 3 19.5V4.5ZM4.5 4.5H19.5V13.1889L17.591 11.2799C17.0052 10.6941 16.0554 10.6941 15.4696 11.2799L13.7366 13.013L10.0564 9.33277C9.47058 8.74699 8.52083 8.74699 7.93505 9.33277L4.5 12.7678L4.5 4.5ZM18.1023 19.5H4.5L4.5 14.8891L8.99571 10.3934L18.1023 19.5ZM19.5 18.7764V15.3103L16.5303 12.3406L14.7972 14.0736L19.5 18.7764Z" fill="#3C3C3C"/>
</svg>
