<svg width="24" height="24" viewBox="0 0 24 24" fill="none" xmlns="http://www.w3.org/2000/svg">
<path fill-rule="evenodd" clip-rule="evenodd" d="M3.75342 3.00363C3.3392 3.00363 3.00342 3.33942 3.00342 3.75363C3.00342 4.16785 3.3392 4.50363 3.75342 4.50363L20.2466 4.50363C20.6608 4.50363 20.9966 4.16785 20.9966 3.75363C20.9966 3.33942 20.6608 3.00363 20.2466 3.00363H3.75342ZM12.9163 13.9992C12.5021 13.9992 12.1663 14.335 12.1663 14.7492C12.1663 15.1635 12.5021 15.4992 12.9163 15.4992H20.2466C20.6608 15.4992 20.9966 15.1635 20.9966 14.7492C20.9966 14.335 20.6608 13.9992 20.2466 13.9992H12.9163ZM12.3954 9.25119C12.3954 8.83698 12.7311 8.50119 13.1454 8.50119H20.2466C20.6608 8.50119 20.9966 8.83698 20.9966 9.25119C20.9966 9.6654 20.6608 10.0012 20.2466 10.0012H13.1454C12.7311 10.0012 12.3954 9.6654 12.3954 9.25119ZM3.75342 19.4968C3.3392 19.4968 3.00342 19.8326 3.00342 20.2468C3.00342 20.661 3.3392 20.9968 3.75342 20.9968L20.2466 20.9968C20.6608 20.9968 20.9966 20.661 20.9966 20.2468C20.9966 19.8326 20.6608 19.4968 20.2466 19.4968L3.75342 19.4968ZM3.00342 12.0002C3.00342 11.586 3.3392 11.2502 3.75342 11.2502L8.71807 11.2502L6.40685 9.40078C6.08344 9.14198 6.03105 8.67001 6.28985 8.34659C6.54865 8.02318 7.02062 7.97079 7.34404 8.22959L11.1064 11.2402C11.5928 11.6294 11.5928 12.3692 11.1064 12.7584L7.34404 15.7691C7.02062 16.0279 6.54865 15.9755 6.28985 15.6521C6.03105 15.3287 6.08344 14.8567 6.40685 14.5979L8.71586 12.7502L3.75342 12.7502C3.3392 12.7502 3.00342 12.4144 3.00342 12.0002Z" fill="#3C3C3C"/>
</svg>
