<svg width="24" height="24" viewBox="0 0 24 24" fill="none" xmlns="http://www.w3.org/2000/svg">
<path d="M8 8.25C8 7.83579 8.33579 7.5 8.75 7.5H12.75C13.1642 7.5 13.5 7.83579 13.5 8.25C13.5 8.66421 13.1642 9 12.75 9H8.75C8.33579 9 8 8.66421 8 8.25Z" fill="#3C3C3C"/>
<path d="M15.25 9C15.6642 9 16 8.66421 16 8.25C16 7.83579 15.6642 7.5 15.25 7.5C14.8358 7.5 14.5 7.83579 14.5 8.25C14.5 8.66421 14.8358 9 15.25 9Z" fill="#3C3C3C"/>
<path d="M8 11.75C8 11.3358 8.33579 11 8.75 11H12.75C13.1642 11 13.5 11.3358 13.5 11.75C13.5 12.1642 13.1642 12.5 12.75 12.5H8.75C8.33579 12.5 8 12.1642 8 11.75Z" fill="#3C3C3C"/>
<path d="M15.25 12.5C15.6642 12.5 16 12.1642 16 11.75C16 11.3358 15.6642 11 15.25 11C14.8358 11 14.5 11.3358 14.5 11.75C14.5 12.1642 14.8358 12.5 15.25 12.5Z" fill="#3C3C3C"/>
<path fill-rule="evenodd" clip-rule="evenodd" d="M6.5 3C5.67157 3 5 3.67157 5 4.5V19.8626C5 21.0952 6.72986 21.3715 7.11373 20.2001L7.18169 19.9927C7.49323 19.0421 8.84625 19.0659 9.12416 20.0269L9.17867 20.2154C9.4582 21.182 10.8442 21.1324 11.0539 20.1483C11.2716 19.1275 12.7284 19.1275 12.9461 20.1483C13.1558 21.1324 14.5418 21.182 14.8213 20.2154L14.8758 20.0269C15.1538 19.0659 16.5068 19.0421 16.8183 19.9927L16.8863 20.2001C17.2701 21.3715 19 21.0952 19 19.8626V4.5C19 3.67157 18.3284 3 17.5 3H6.5ZM17.5 4.5L6.5 4.5V18.3906C7.54619 17.4899 9.2391 17.6107 10.1182 18.7273C11.0731 17.6012 12.9269 17.6012 13.8818 18.7273C14.7609 17.6107 16.4538 17.4899 17.5 18.3906V4.5Z" fill="#3C3C3C"/>
</svg>
