<svg width="24" height="24" viewBox="0 0 24 24" fill="none" xmlns="http://www.w3.org/2000/svg">
<path fill-rule="evenodd" clip-rule="evenodd" d="M11.25 3.75C11.25 3.33579 11.5858 3 12 3H18C18.4142 3 18.75 3.33579 18.75 3.75C18.75 4.16421 18.4142 4.5 18 4.5H15.4716L10.121 19.5H12.1072C12.5214 19.5 12.8572 19.8358 12.8572 20.25C12.8572 20.6642 12.5214 21 12.1072 21H6.10718C5.69296 21 5.35718 20.6642 5.35718 20.25C5.35718 19.8358 5.69296 19.5 6.10718 19.5H8.52841L13.8791 4.5H12C11.5858 4.5 11.25 4.16421 11.25 3.75Z" fill="#3C3C3C"/>
</svg>
