<svg width="24" height="24" viewBox="0 0 24 24" fill="none" xmlns="http://www.w3.org/2000/svg">
<path d="M15.5 9.5C16.0523 9.5 16.5 9.05228 16.5 8.5C16.5 7.94772 16.0523 7.5 15.5 7.5C14.9477 7.5 14.5 7.94772 14.5 8.5C14.5 9.05228 14.9477 9.5 15.5 9.5Z" fill="#3C3C3C"/>
<path fill-rule="evenodd" clip-rule="evenodd" d="M14.5 15C17.5376 15 20 12.5376 20 9.5C20 6.46243 17.5376 4 14.5 4C11.4624 4 9 6.46243 9 9.5C9 9.96094 9.0567 10.4086 9.16351 10.8365L4.43934 15.5607C4.15804 15.842 4 16.2235 4 16.6213V18.5C4 19.3284 4.67157 20 5.5 20H7.37868C7.7765 20 8.15804 19.842 8.43934 19.5607L13.1635 14.8365C13.5914 14.9433 14.0391 15 14.5 15ZM5.5 16.6213L10.8245 11.2969L10.6188 10.4732C10.5415 10.1632 10.5 9.83749 10.5 9.5C10.5 7.29086 12.2909 5.5 14.5 5.5C16.7091 5.5 18.5 7.29086 18.5 9.5C18.5 11.7091 16.7091 13.5 14.5 13.5C14.1625 13.5 13.8368 13.4585 13.5268 13.3812L12.7031 13.1755L7.37868 18.5H5.5L5.5 16.6213Z" fill="#3C3C3C"/>
</svg>
