<svg width="24" height="24" viewBox="0 0 24 24" fill="none" xmlns="http://www.w3.org/2000/svg">
<path fill-rule="evenodd" clip-rule="evenodd" d="M6.5 3.75C6.5 3.33579 6.16421 3 5.75 3C5.33579 3 5 3.33579 5 3.75V20.25C5 20.6642 5.33579 21 5.75 21C6.16421 21 6.5 20.6642 6.5 20.25L6.5 14.4988H17.7034C18.847 14.4988 19.3901 13.0902 18.5426 12.3224L15.7017 9.74878L18.5426 7.17516C19.3901 6.40736 18.847 4.99878 17.7034 4.99878H6.5V3.75ZM6.50391 12.9988V6.49878H17.055L14.4901 8.8224C13.9424 9.31856 13.9424 10.179 14.4901 10.6752L17.055 12.9988H6.50391Z" fill="#3C3C3C"/>
</svg>
