<svg width="24" height="24" viewBox="0 0 24 24" fill="none" xmlns="http://www.w3.org/2000/svg">
<path fill-rule="evenodd" clip-rule="evenodd" d="M21 12C21 7.02944 16.9706 3 12 3C7.02944 3 3 7.02944 3 12C3 16.9706 7.02944 21 12 21C16.9706 21 21 16.9706 21 12ZM12.5229 19.2061C12.2383 19.477 12.0642 19.5 12 19.5C11.9358 19.5 11.7617 19.477 11.4771 19.2061C11.1848 18.928 10.8533 18.4545 10.5423 17.7548C9.9896 16.5112 9.59439 14.7616 9.51477 12.75H14.4852C14.4056 14.7616 14.0104 16.5112 13.4577 17.7548C13.1467 18.4545 12.8152 18.928 12.5229 19.2061ZM14.4852 11.25H9.51477C9.59439 9.23844 9.9896 7.48879 10.5423 6.24525C10.8533 5.54547 11.1848 5.07204 11.4771 4.79386C11.7617 4.52303 11.9358 4.5 12 4.5C12.0642 4.5 12.2383 4.52303 12.5229 4.79386C12.8152 5.07204 13.1467 5.54547 13.4577 6.24525C14.0104 7.48879 14.4056 9.23844 14.4852 11.25ZM15.9863 12.75C15.8921 15.3189 15.3184 17.5819 14.4671 19.0848C17.171 18.1433 19.1703 15.6977 19.463 12.75H15.9863ZM19.463 11.25H15.9863C15.8921 8.68111 15.3184 6.41814 14.4671 4.91521C17.171 5.85667 19.1703 8.3023 19.463 11.25ZM8.01369 11.25C8.10788 8.68111 8.68157 6.41814 9.53292 4.91522C6.82903 5.85667 4.8297 8.3023 4.53703 11.25H8.01369ZM4.53703 12.75C4.8297 15.6977 6.82903 18.1433 9.53292 19.0848C8.68157 17.5819 8.10788 15.3189 8.01369 12.75H4.53703Z" fill="#3C3C3C"/>
</svg>
