<svg width="24" height="24" viewBox="0 0 24 24" fill="none" xmlns="http://www.w3.org/2000/svg">
<path fill-rule="evenodd" clip-rule="evenodd" d="M18.5 8C19.8807 8 21 6.88071 21 5.5C21 4.11929 19.8807 3 18.5 3C17.3806 3 16.433 3.73572 16.1145 4.75H7C4.79086 4.75 3 6.54086 3 8.75C3 10.9591 4.79086 12.75 7 12.75H9.61445C9.93302 13.7643 10.8806 14.5 12 14.5C13.1194 14.5 14.067 13.7643 14.3855 12.75L17 12.75C18.3807 12.75 19.5 13.8693 19.5 15.25C19.5 16.6307 18.3807 17.75 17 17.75L7.88555 17.75C7.56698 16.7357 6.61941 16 5.5 16C4.11929 16 3 17.1193 3 18.5C3 19.8807 4.11929 21 5.5 21C6.61941 21 7.56698 20.2643 7.88555 19.25L17 19.25C19.2091 19.25 21 17.4591 21 15.25C21 13.0409 19.2091 11.25 17 11.25L14.3855 11.25C14.067 10.2357 13.1194 9.5 12 9.5C10.8806 9.5 9.93302 10.2357 9.61445 11.25H7C5.61929 11.25 4.5 10.1307 4.5 8.75C4.5 7.36929 5.61929 6.25 7 6.25H16.1145C16.433 7.26428 17.3806 8 18.5 8ZM18.5 6.5C19.0523 6.5 19.5 6.05228 19.5 5.5C19.5 4.94772 19.0523 4.5 18.5 4.5C17.9477 4.5 17.5 4.94772 17.5 5.5C17.5 6.05228 17.9477 6.5 18.5 6.5ZM5.5 19.5C6.05228 19.5 6.5 19.0523 6.5 18.5C6.5 17.9477 6.05228 17.5 5.5 17.5C4.94772 17.5 4.5 17.9477 4.5 18.5C4.5 19.0523 4.94772 19.5 5.5 19.5ZM13 12C13 12.5523 12.5523 13 12 13C11.4477 13 11 12.5523 11 12C11 11.4477 11.4477 11 12 11C12.5523 11 13 11.4477 13 12Z" fill="#3C3C3C"/>
</svg>
