<svg width="24" height="24" viewBox="0 0 24 24" fill="none" xmlns="http://www.w3.org/2000/svg">
<path fill-rule="evenodd" clip-rule="evenodd" d="M6.5 3C5.67157 3 5 3.67157 5 4.5V9.5C5 10.3284 5.67157 11 6.5 11H11.25L11.25 18.5393L9.03033 16.3197C8.73744 16.0268 8.26256 16.0268 7.96967 16.3197C7.67678 16.6126 7.67678 17.0874 7.96967 17.3803L11.2929 20.7036C11.6834 21.0941 12.3166 21.0941 12.7071 20.7036L16.0303 17.3803C16.3232 17.0874 16.3232 16.6126 16.0303 16.3197C15.7374 16.0268 15.2626 16.0268 14.9697 16.3197L12.75 18.5393L12.75 11H17.5C18.3284 11 19 10.3284 19 9.5V4.5C19 3.67157 18.3284 3 17.5 3H6.5ZM17.5 4.5H6.5L6.5 9.5H17.5V4.5Z" fill="#3C3C3C"/>
</svg>
