<svg width="24" height="24" viewBox="0 0 24 24" fill="none" xmlns="http://www.w3.org/2000/svg">
<path fill-rule="evenodd" clip-rule="evenodd" d="M18.7038 5.29575C17.007 3.59893 14.2559 3.59893 12.5591 5.29575L11.4696 6.3852C11.1767 6.67809 11.1767 7.15296 11.4696 7.44586C11.7625 7.73875 12.2374 7.73875 12.5303 7.44586L13.6197 6.35641C14.7308 5.24537 16.5321 5.24537 17.6432 6.35641C18.7542 7.46745 18.7542 9.26879 17.6432 10.3798L15.3432 12.6798C14.299 13.724 12.6061 13.724 11.5619 12.6798L11.4409 12.5587C11.148 12.2658 10.6731 12.2658 10.3802 12.5587C10.0873 12.8516 10.0873 13.3265 10.3802 13.6194L10.5012 13.7404C12.1312 15.3704 14.7739 15.3704 16.4039 13.7404L18.7038 11.4405C20.4007 9.74367 20.4007 6.99257 18.7038 5.29575ZM5.29621 18.7037C6.99303 20.4006 9.74412 20.4006 11.4409 18.7037L12.5304 17.6143C12.8233 17.3214 12.8233 16.8465 12.5304 16.5536C12.2375 16.2607 11.7626 16.2607 11.4697 16.5536L10.3803 17.6431C9.26925 18.7541 7.4679 18.7541 6.35687 17.6431C5.24583 16.532 5.24583 14.7307 6.35687 13.6197L8.65681 11.3197C9.70099 10.2755 11.3939 10.2755 12.4381 11.3197L12.5592 11.4408C12.8521 11.7337 13.3269 11.7337 13.6198 11.4408C13.9127 11.1479 13.9127 10.673 13.6198 10.3801L13.4988 10.2591C11.8688 8.62909 9.22612 8.62909 7.59615 10.2591L5.29621 12.559C3.59938 14.2558 3.59938 17.0069 5.29621 18.7037Z" fill="#3C3C3C"/>
</svg>
