<svg width="24" height="24" viewBox="0 0 24 24" fill="none" xmlns="http://www.w3.org/2000/svg">
<path fill-rule="evenodd" clip-rule="evenodd" d="M15 10.5C15 12.1569 13.6569 13.5 12 13.5C10.3431 13.5 9 12.1569 9 10.5C9 8.84315 10.3431 7.5 12 7.5C13.6569 7.5 15 8.84315 15 10.5ZM13.5 10.5C13.5 11.3284 12.8284 12 12 12C11.1716 12 10.5 11.3284 10.5 10.5C10.5 9.67157 11.1716 9 12 9C12.8284 9 13.5 9.67157 13.5 10.5Z" fill="#3C3C3C"/>
<path fill-rule="evenodd" clip-rule="evenodd" d="M19.5 10.4552C19.5 15.2902 14.7016 19.3224 12.781 20.7428C12.3113 21.0901 11.6887 21.0901 11.219 20.7428C9.29837 19.3224 4.5 15.2902 4.5 10.4552C4.5 6.3378 8.13401 3 12 3C15.866 3 19.5 6.3378 19.5 10.4552ZM18 10.4552C18 12.3815 17.0345 14.2701 15.6919 15.9394C14.4171 17.5244 12.9206 18.7638 12 19.4541C11.0794 18.7638 9.58294 17.5244 8.30811 15.9394C6.96548 14.2701 6 12.3815 6 10.4552C6 7.20987 8.91811 4.5 12 4.5C15.0819 4.5 18 7.20987 18 10.4552Z" fill="#3C3C3C"/>
</svg>
