<svg width="24" height="24" viewBox="0 0 24 24" fill="none" xmlns="http://www.w3.org/2000/svg">
<path fill-rule="evenodd" clip-rule="evenodd" d="M12 3C9.45952 3 7.40002 5.05949 7.40002 7.6V9.80005H6.5C5.67157 9.80005 5 10.4716 5 11.3V19.5C5 20.3285 5.67157 21 6.5 21H17.5C18.3284 21 19 20.3285 19 19.5V11.3C19 10.4716 18.3284 9.80005 17.5 9.80005H16.6V7.6C16.6 5.05949 14.5405 3 12 3ZM15.1 9.80005V7.6C15.1 5.88792 13.7121 4.5 12 4.5C10.2879 4.5 8.90002 5.88792 8.90002 7.6V9.80005H15.1ZM6.5 11.3L17.5 11.3V19.5H6.5V11.3ZM12.5548 15.2322C12.8233 15.0528 13.0001 14.7471 13.0001 14.4C13.0001 13.8477 12.5523 13.4 12.0001 13.4C11.4478 13.4 11.0001 13.8477 11.0001 14.4C11.0001 14.7471 11.1769 15.0528 11.4453 15.2322L10.5183 16.6227C10.2968 16.955 10.535 17.4 10.9343 17.4H13.0658C13.4651 17.4 13.7033 16.955 13.4818 16.6227L12.5548 15.2322Z" fill="#3C3C3C"/>
</svg>
