<svg width="24" height="24" viewBox="0 0 24 24" fill="none" xmlns="http://www.w3.org/2000/svg">
<path fill-rule="evenodd" clip-rule="evenodd" d="M16.25 3C16.6642 3 17 3.33579 17 3.75V4H18.5C19.3284 4 20 4.67157 20 5.5V11.75C20 12.1642 19.6642 12.5 19.25 12.5C18.8358 12.5 18.5 12.1642 18.5 11.75V9.5H5.5V18.5H11.75C12.1642 18.5 12.5 18.8358 12.5 19.25C12.5 19.6642 12.1642 20 11.75 20H5.5C4.67157 20 4 19.3284 4 18.5V5.5C4 4.67157 4.67157 4 5.5 4H7V3.75C7 3.33579 7.33579 3 7.75 3C8.16421 3 8.5 3.33579 8.5 3.75V4H15.5V3.75C15.5 3.33579 15.8358 3 16.25 3ZM7 5.5V6.25C7 6.66421 7.33579 7 7.75 7C8.16421 7 8.5 6.66421 8.5 6.25V5.5H15.5V6.25C15.5 6.66421 15.8358 7 16.25 7C16.6642 7 17 6.66421 17 6.25V5.5H18.5V8H5.5V5.5H7Z" fill="#3C3C3C"/>
<path fill-rule="evenodd" clip-rule="evenodd" d="M14.5 18C14.5 17.3953 14.9294 16.8908 15.5 16.775V16.75C15.5 15.2312 16.7312 14 18.25 14C19.7688 14 21 15.2312 21 16.75V16.775C21.5706 16.8908 22 17.3953 22 18V20.75C22 21.4404 21.4404 22 20.75 22H15.75C15.0596 22 14.5 21.4404 14.5 20.75V18ZM16 20.5V18.25H20.5V20.5H16ZM18.25 15.5C18.9404 15.5 19.5 16.0596 19.5 16.75H17C17 16.0596 17.5596 15.5 18.25 15.5Z" fill="#3C3C3C"/>
</svg>
