<svg width="24" height="24" viewBox="0 0 24 24" fill="none" xmlns="http://www.w3.org/2000/svg">
<path fill-rule="evenodd" clip-rule="evenodd" d="M4 5.5C4 4.67157 4.67157 4 5.5 4H14.5892C14.987 4 15.3685 4.15803 15.6498 4.43933L15.1195 4.96966L15.6498 4.43933L19.5606 8.35008C19.842 8.63139 20 9.01292 20 9.41075V12.2465C20 12.6607 19.6642 12.9965 19.25 12.9965C18.8358 12.9965 18.5 12.6607 18.5 12.2465L18.5 10.505L14.9978 10.505C14.1694 10.505 13.4978 9.83343 13.4978 9.005V5.5L5.5 5.5L5.5 18.5H12.25C12.6642 18.5 13 18.8358 13 19.25C13 19.6642 12.6642 20 12.25 20H5.5C4.67157 20 4 19.3284 4 18.5V5.5ZM14.9978 5.90863L18.0942 9.005L14.9978 9.005V5.90863ZM20.8828 16.5705V16.8773C21.5145 16.94 22.0078 17.4729 22.0078 18.1211V20.7781C22.0078 21.4684 21.4482 22.0281 20.7578 22.0281H15.7578C15.0675 22.0281 14.5078 21.4684 14.5078 20.7781V18.1211C14.5078 17.4729 15.0011 16.94 15.6328 16.8773V16.5705C15.6328 15.1208 16.8081 13.9455 18.2578 13.9455C19.7076 13.9455 20.8828 15.1207 20.8828 16.5705ZM16.0078 20.5281V18.3711H20.5078V20.5281H16.0078ZM18.2578 15.4455C17.6365 15.4455 17.1328 15.9492 17.1328 16.5705V16.8711H19.3828V16.5705C19.3828 15.9492 18.8791 15.4455 18.2578 15.4455ZM7.75 15.5C7.33579 15.5 7 15.8358 7 16.25C7 16.6642 7.33579 17 7.75 17H11.25C11.6642 17 12 16.6642 12 16.25C12 15.8358 11.6642 15.5 11.25 15.5H7.75ZM7 12.7635C7 12.3493 7.33579 12.0135 7.75 12.0135H16.25C16.6642 12.0135 17 12.3493 17 12.7635C17 13.1777 16.6642 13.5135 16.25 13.5135H7.75C7.33579 13.5135 7 13.1777 7 12.7635ZM7.75 8.5C7.33579 8.5 7 8.83579 7 9.25C7 9.66421 7.33579 10 7.75 10H11.25C11.6642 10 12 9.66421 12 9.25C12 8.83579 11.6642 8.5 11.25 8.5H7.75Z" fill="#3C3C3C"/>
</svg>
