<svg width="24" height="24" viewBox="0 0 24 24" fill="none" xmlns="http://www.w3.org/2000/svg">
<path fill-rule="evenodd" clip-rule="evenodd" d="M19.5 5C20.3284 5 21 5.67157 21 6.5V17.5C21 18.3284 20.3284 19 19.5 19H4.5C3.67157 19 3 18.3284 3 17.5V6.5C3 5.67157 3.67157 5 4.5 5H19.5ZM16.5 6.5H19.5V9H16.5V6.5ZM9 6.5H15V11.25H9V6.5ZM7.5 6.5H4.5L4.5 9H7.5V6.5ZM4.5 10.5L4.5 13.75H7.5V10.5H4.5ZM4.5 15.25L4.5 17.5H7.5V15.25H4.5ZM9 17.5H15V12.75H9V17.5ZM16.5 17.5H19.5V15.25H16.5V17.5ZM19.5 13.75V10.5H16.5V13.75H19.5Z" fill="#3C3C3C"/>
</svg>
