<svg width="24" height="24" viewBox="0 0 24 24" fill="none" xmlns="http://www.w3.org/2000/svg">
<path fill-rule="evenodd" clip-rule="evenodd" d="M3.86582 2.87276C3.58284 2.72421 3.2249 2.76889 2.987 3.00678C2.69411 3.29967 2.69411 3.77455 2.987 4.06744L8.5 9.58044V11.4999C8.5 13.4329 10.067 14.9999 12 14.9999C12.5588 14.9999 13.087 14.8689 13.5556 14.636L14.5375 15.6179C13.8117 16.0193 12.9459 16.2499 12 16.2499C9.30778 16.2499 7.25 14.2814 7.25 11.9999C7.25 11.5857 6.91421 11.2499 6.5 11.2499C6.08579 11.2499 5.75 11.5857 5.75 11.9999C5.75 14.9986 8.20394 17.3702 11.25 17.7085V19.4999H8.75C8.33579 19.4999 8 19.8357 8 20.2499C8 20.6641 8.33579 20.9999 8.75 20.9999H15.25C15.6642 20.9999 16 20.6641 16 20.2499C16 19.8357 15.6642 19.4999 15.25 19.4999H12.75V17.7099C13.8053 17.5966 14.7909 17.2466 15.628 16.7084L19.9263 21.0068C20.2192 21.2997 20.6941 21.2997 20.987 21.0068C21.2249 20.7689 21.2696 20.4109 21.121 20.128L3.86582 2.87276ZM10 11.4999V11.0804L12.3828 13.4633C12.2589 13.4873 12.1309 13.4999 12 13.4999C10.8954 13.4999 10 12.6045 10 11.4999Z" fill="#3C3C3C"/>
<path d="M17.6413 14.5269C18.0303 13.777 18.25 12.9244 18.25 11.9999C18.25 11.5857 17.9142 11.2499 17.5 11.2499C17.0858 11.2499 16.75 11.5857 16.75 11.9999C16.75 12.4871 16.6633 12.9538 16.5021 13.3877L17.6413 14.5269Z" fill="#3C3C3C"/>
<path d="M15.4093 12.2949C15.4686 12.0395 15.5 11.7734 15.5 11.4999V6.49989C15.5 4.56689 13.933 2.99989 12 2.99989C10.4058 2.99989 9.0606 4.06568 8.63798 5.5236L10 6.88562V6.49989C10 5.39532 10.8954 4.49989 12 4.49989C13.1046 4.49989 14 5.39532 14 6.49989V10.8856L15.4093 12.2949Z" fill="#3C3C3C"/>
</svg>
