<svg width="24" height="24" viewBox="0 0 24 24" fill="none" xmlns="http://www.w3.org/2000/svg">
<path fill-rule="evenodd" clip-rule="evenodd" d="M14 6.5V11.5C14 12.6046 13.1046 13.5 12 13.5C10.8954 13.5 10 12.6046 10 11.5V6.5C10 5.39543 10.8954 4.5 12 4.5C13.1046 4.5 14 5.39543 14 6.5ZM8.5 6.5C8.5 4.567 10.067 3 12 3C13.933 3 15.5 4.567 15.5 6.5V11.5C15.5 13.433 13.933 15 12 15C10.067 15 8.5 13.433 8.5 11.5V6.5ZM7.25 12C7.25 11.5858 6.91421 11.25 6.5 11.25C6.08579 11.25 5.75 11.5858 5.75 12C5.75 14.9987 8.20394 17.3703 11.25 17.7086V19.5H8.75005C8.33583 19.5 8.00005 19.8358 8.00005 20.25C8.00005 20.6642 8.33583 21 8.75005 21H15.25C15.6643 21 16 20.6642 16 20.25C16 19.8358 15.6643 19.5 15.25 19.5H12.75V17.71C15.7887 17.3839 18.25 15.0948 18.25 12C18.25 11.5858 17.9142 11.25 17.5 11.25C17.0858 11.25 16.75 11.5858 16.75 12C16.75 14.3684 14.702 16.25 12 16.25C9.30778 16.25 7.25 14.2815 7.25 12Z" fill="#3C3C3C"/>
</svg>
