<svg width="24" height="24" viewBox="0 0 24 24" fill="none" xmlns="http://www.w3.org/2000/svg">
<path fill-rule="evenodd" clip-rule="evenodd" d="M12.5303 3.46967C12.3897 3.32902 12.1989 3.25 12 3.25C11.8011 3.25 11.6103 3.32902 11.4696 3.46967L8.96967 5.96967C8.67678 6.26257 8.67678 6.73744 8.96967 7.03033C9.26257 7.32322 9.73744 7.32322 10.0303 7.03033L11.25 5.81067V11.25H5.81065L7.03033 10.0303C7.32322 9.73743 7.32322 9.26256 7.03033 8.96967C6.73743 8.67678 6.26256 8.67678 5.96967 8.96967L3.46967 11.4697C3.32902 11.6103 3.25 11.8011 3.25 12C3.25 12.1989 3.32902 12.3897 3.46967 12.5304L5.96967 15.0303C6.26257 15.3232 6.73744 15.3232 7.03033 15.0303C7.32322 14.7374 7.32322 14.2626 7.03033 13.9697L5.81067 12.75H11.25V18.1893L10.0303 16.9697C9.73744 16.6768 9.26257 16.6768 8.96967 16.9697C8.67678 17.2626 8.67678 17.7374 8.96967 18.0303L11.4696 20.5303C11.6103 20.671 11.8011 20.75 12 20.75C12.1989 20.75 12.3897 20.671 12.5303 20.5303L15.0303 18.0303C15.3232 17.7374 15.3232 17.2626 15.0303 16.9697C14.7374 16.6768 14.2626 16.6768 13.9697 16.9697L12.75 18.1893V12.75H18.1893L16.9697 13.9697C16.6768 14.2626 16.6768 14.7374 16.9697 15.0303C17.2626 15.3232 17.7374 15.3232 18.0303 15.0303L20.5303 12.5304C20.671 12.3897 20.75 12.1989 20.75 12C20.75 11.8011 20.671 11.6103 20.5303 11.4697L18.0303 8.96967C17.7374 8.67678 17.2626 8.67678 16.9697 8.96967C16.6768 9.26256 16.6768 9.73743 16.9697 10.0303L18.1893 11.25H12.75V5.81065L13.9697 7.03033C14.2626 7.32322 14.7374 7.32322 15.0303 7.03033C15.3232 6.73743 15.3232 6.26256 15.0303 5.96967L12.5303 3.46967Z" fill="#3C3C3C"/>
</svg>
