<svg width="24" height="24" viewBox="0 0 24 24" fill="none" xmlns="http://www.w3.org/2000/svg">
<path fill-rule="evenodd" clip-rule="evenodd" d="M11.9475 4.5C7.80537 4.5 4.44751 7.85786 4.44751 12C4.44751 16.1421 7.80537 19.5 11.9475 19.5H19.1894L17.6383 17.949C17.3595 17.6701 17.3442 17.223 17.6033 16.9258C18.7524 15.6077 19.4475 13.8859 19.4475 12C19.4475 11.3165 19.3563 10.6555 19.1858 10.028C19.0771 9.62827 19.3131 9.21618 19.7128 9.10757C20.1126 8.99895 20.5246 9.23493 20.6333 9.63465C20.8383 10.3892 20.9475 11.1824 20.9475 12C20.9475 14.0094 20.2882 15.8663 19.1749 17.3642L21.5304 19.7197C21.7449 19.9342 21.809 20.2568 21.693 20.537C21.5769 20.8173 21.3034 21 21.0001 21H11.9475C6.97695 21 2.94751 16.9706 2.94751 12C2.94751 7.02944 6.97695 3 11.9475 3C12.8 3 13.626 3.11873 14.4092 3.34101C14.8077 3.4541 15.0391 3.8688 14.926 4.26728C14.8129 4.66576 14.3982 4.89712 13.9997 4.78403C13.3484 4.59918 12.6601 4.5 11.9475 4.5Z" fill="#3C3C3C"/>
<path d="M19 8C20.6569 8 22 6.65685 22 5C22 3.34315 20.6569 2 19 2C17.3431 2 16 3.34315 16 5C16 6.65685 17.3431 8 19 8Z" fill="#3B57FF"/>
</svg>
