<svg width="24" height="24" viewBox="0 0 24 24" fill="none" xmlns="http://www.w3.org/2000/svg">
<path fill-rule="evenodd" clip-rule="evenodd" d="M16.2346 7.82768C16.4323 7.96272 16.5621 8.18995 16.5621 8.4475C16.5621 8.86171 16.2264 9.1975 15.8121 9.1975H5.12567V10.8743H6.37412L6.39636 10.8741H17.6036L17.6258 10.8743H18.8743V10.0359C18.8743 9.62168 19.2101 9.2859 19.6243 9.2859C20.0385 9.2859 20.3743 9.62168 20.3743 10.0359V10.8743C20.3743 11.6248 19.8231 12.2466 19.1034 12.3569L19.1036 12.3741V18.4984C19.1036 19.3269 18.432 19.9984 17.6036 19.9984H6.39636C5.56794 19.9984 4.89636 19.3269 4.89636 18.4984V12.3741L4.89646 12.3569C4.17683 12.2466 3.62567 11.6248 3.62567 10.8743V9.1975C3.62567 8.36907 4.29724 7.6975 5.12567 7.6975H7.49514C6.75981 6.99866 6.4703 5.9055 7.01414 4.95879C7.67915 3.80116 9.18991 3.55935 10.3085 4.16619C10.6495 4.35119 10.97 4.68803 11.2252 4.99151C11.4958 5.31333 11.7648 5.68672 11.9999 6.03457C12.2351 5.68671 12.5041 5.31331 12.7747 4.99149C13.0298 4.68801 13.3504 4.35117 13.6914 4.16617C14.0555 3.96865 14.5179 4.09969 14.7242 4.45886C14.9305 4.81803 14.8026 5.26932 14.4386 5.46684C14.3639 5.50734 14.1948 5.65197 13.9494 5.94385C13.7223 6.21394 13.4826 6.54522 13.2598 6.87526C13.2226 6.93048 13.186 6.98536 13.1502 7.03957C13.2165 7.03843 13.2838 7.03697 13.3517 7.03512C13.7577 7.02407 14.1737 6.99962 14.5294 6.9535C14.9139 6.90366 15.1293 6.83971 15.2039 6.79921C15.568 6.60169 16.0304 6.73273 16.2368 7.0919C16.3737 7.33029 16.3634 7.60926 16.2346 7.82768ZM8.33261 5.67408C8.16226 5.97063 8.25187 6.50407 8.79594 6.79923C8.87059 6.83974 9.086 6.90368 9.47046 6.95353C9.82622 6.99965 10.2422 7.0241 10.6482 7.03514C10.7161 7.03699 10.7834 7.03846 10.8496 7.03959C10.8139 6.98538 10.7773 6.9305 10.74 6.87528C10.5173 6.54524 10.2776 6.21396 10.0505 5.94387C9.80504 5.65199 9.63598 5.50736 9.56132 5.46686C9.01725 5.1717 8.50297 5.37752 8.33261 5.67408ZM12.75 12.3743H17.6036L17.6036 18.4984L12.75 18.4984V12.3743ZM6.39636 12.3743H11.25V18.4984H6.39636V12.3743Z" fill="#3C3C3C"/>
<path d="M19 8C20.6569 8 22 6.65685 22 5C22 3.34315 20.6569 2 19 2C17.3431 2 16 3.34315 16 5C16 6.65685 17.3431 8 19 8Z" fill="#3B57FF"/>
</svg>
