<svg width="24" height="24" viewBox="0 0 24 24" fill="none" xmlns="http://www.w3.org/2000/svg">
<path d="M19 8C20.6569 8 22 6.65685 22 5C22 3.34315 20.6569 2 19 2C17.3431 2 16 3.34315 16 5C16 6.65685 17.3431 8 19 8Z" fill="#3B57FF"/>
<path fill-rule="evenodd" clip-rule="evenodd" d="M7.20679 9.35894C7.20679 6.66868 9.36086 4.50235 12.0002 4.50235C12.4144 4.50235 12.7502 4.16656 12.7502 3.75235C12.7502 3.33814 12.4144 3.00235 12.0002 3.00235C8.51644 3.00235 5.70679 5.85633 5.70679 9.35894C5.70679 14.3085 4.67078 15.876 4.27752 16.3946C4.09688 16.6328 3.92129 17.0636 4.16446 17.4998C4.39304 17.9099 4.8205 18.0065 5.09626 18.0065H8.47854C8.7521 19.7048 10.2246 21.0019 12 21.0019C13.7754 21.0019 15.2479 19.7048 15.5214 18.0065H18.9037C19.1532 18.0065 19.6117 17.9268 19.8384 17.4814C20.0694 17.0274 19.8522 16.606 19.6965 16.4041C19.3046 15.8959 18.2935 14.2814 18.2935 9.35894C18.2935 8.94473 17.9578 8.60894 17.5435 8.60894C17.1293 8.60894 16.7935 8.94473 16.7935 9.35894C16.7935 13.2826 17.4114 15.3624 17.9978 16.5065H5.97574C6.56556 15.3821 7.20679 13.3295 7.20679 9.35894ZM12 19.5019C11.123 19.5019 10.3735 18.9557 10.0733 18.1849H13.9267C13.6264 18.9557 12.877 19.5019 12 19.5019Z" fill="#3C3C3C"/>
</svg>
