<svg width="24" height="24" viewBox="0 0 24 24" fill="none" xmlns="http://www.w3.org/2000/svg">
<path fill-rule="evenodd" clip-rule="evenodd" d="M5.5 4C4.67157 4 4 4.67157 4 5.5V18.5C4 19.3284 4.67157 20 5.5 20H14.25C14.6642 20 15 19.6642 15 19.25C15 18.8358 14.6642 18.5 14.25 18.5H5.5L5.5 5.5L13.4978 5.5V9.005C13.4978 9.83343 14.1694 10.505 14.9978 10.505L18.5 10.505L18.5 14.25C18.5 14.6642 18.8358 15 19.25 15C19.6642 15 20 14.6642 20 14.25V9.41075C20 9.01292 19.842 8.63139 19.5606 8.35008L15.6498 4.43933L15.1195 4.96966L15.6498 4.43933C15.3685 4.15803 14.987 4 14.5892 4H5.5ZM18.0942 9.005L14.9978 5.90863V9.005L18.0942 9.005Z" fill="#3C3C3C"/>
<path d="M19 22C20.6569 22 22 20.6569 22 19C22 17.3431 20.6569 16 19 16C17.3431 16 16 17.3431 16 19C16 20.6569 17.3431 22 19 22Z" fill="#3B57FF"/>
</svg>
