<svg width="24" height="24" viewBox="0 0 24 24" fill="none" xmlns="http://www.w3.org/2000/svg">
<path d="M19 8C20.6569 8 22 6.65685 22 5C22 3.34315 20.6569 2 19 2C17.3431 2 16 3.34315 16 5C16 6.65685 17.3431 8 19 8Z" fill="#3B57FF"/>
<path fill-rule="evenodd" clip-rule="evenodd" d="M5.50024 19.991C4.67182 19.991 4.00024 19.3194 4.00024 18.491V5.49097C4.00024 4.66254 4.67182 3.99097 5.50024 3.99097H14.2474C14.6616 3.99097 14.9974 4.32675 14.9974 4.74097C14.9974 5.15518 14.6616 5.49097 14.2474 5.49097H5.50024V18.491H12.5001V14.0074C12.5001 13.179 13.1717 12.5074 14.0001 12.5074H18.5002L18.5002 9.75072C18.5002 9.33651 18.836 9.00072 19.2502 9.00072C19.6645 9.00072 20.0002 9.33651 20.0002 9.75072V13.7517C20.0002 14.1496 19.8422 14.5311 19.5609 14.8124L14.8217 19.5516C14.5404 19.8329 14.1588 19.991 13.761 19.991H5.50024ZM18.2445 14.0074H14.0001V18.2519L18.2445 14.0074Z" fill="#3C3C3C"/>
</svg>
