<svg width="24" height="24" viewBox="0 0 24 24" fill="none" xmlns="http://www.w3.org/2000/svg">
<path fill-rule="evenodd" clip-rule="evenodd" d="M12.001 3.00806C12.4152 3.00806 12.751 3.34384 12.751 3.75806V5.32844C12.751 5.74265 12.4152 6.07844 12.001 6.07844C11.5868 6.07844 11.251 5.74265 11.251 5.32844V3.75806C11.251 3.34384 11.5868 3.00806 12.001 3.00806ZM8.96899 12.0715C8.96899 10.3969 10.3265 9.03931 12.0012 9.03931C13.6758 9.03931 15.0333 10.3969 15.0333 12.0715C15.0333 13.0691 14.5523 13.9542 13.8063 14.508C13.4395 14.7804 13.142 15.2308 13.142 15.7804V16.2499H10.8599V15.7801C10.8599 15.2306 10.5625 14.7802 10.1957 14.5078C9.4499 13.954 8.96899 13.069 8.96899 12.0715ZM12.0012 7.53931C9.49811 7.53931 7.46899 9.56843 7.46899 12.0715C7.46899 13.5637 8.19098 14.8875 9.30149 15.7121C9.32954 15.733 9.34628 15.7544 9.35435 15.769C9.35806 15.7756 9.35943 15.7797 9.35987 15.7815V16.2499C9.35987 17.0783 10.0314 17.7499 10.8599 17.7499H13.142C13.9705 17.7499 14.642 17.0783 14.642 16.2499V15.7818C14.6425 15.78 14.6438 15.7759 14.6476 15.7693C14.6556 15.7547 14.6724 15.7333 14.7004 15.7124C15.8112 14.8878 16.5333 13.5639 16.5333 12.0715C16.5333 9.56843 14.5042 7.53931 12.0012 7.53931ZM10.1099 19.5032C9.69565 19.5032 9.35986 19.839 9.35986 20.2532C9.35986 20.6674 9.69565 21.0032 10.1099 21.0032H13.892C14.3062 21.0032 14.642 20.6674 14.642 20.2532C14.642 19.839 14.3062 19.5032 13.892 19.5032H10.1099ZM5.32666 11.25C5.74087 11.25 6.07666 11.5858 6.07666 12C6.07666 12.4142 5.74087 12.75 5.32666 12.75H3.75628C3.34207 12.75 3.00628 12.4142 3.00628 12C3.00628 11.5858 3.34207 11.25 3.75628 11.25H5.32666ZM20.9938 12C20.9938 11.5858 20.658 11.25 20.2438 11.25H18.6734C18.2592 11.25 17.9234 11.5858 17.9234 12C17.9234 12.4142 18.2592 12.75 18.6734 12.75H20.2438C20.658 12.75 20.9938 12.4142 20.9938 12ZM6.38531 5.98383C6.09242 5.69094 5.61754 5.69094 5.32465 5.98383C5.03176 6.27672 5.03176 6.7516 5.32465 7.04449L6.43508 8.15492C6.72797 8.44781 7.20284 8.44781 7.49574 8.15492C7.78863 7.86202 7.78863 7.38715 7.49574 7.09426L6.38531 5.98383Z" fill="#3C3C3C"/>
<path d="M19 8C20.6569 8 22 6.65685 22 5C22 3.34315 20.6569 2 19 2C17.3431 2 16 3.34315 16 5C16 6.65685 17.3431 8 19 8Z" fill="#3B57FF"/>
</svg>
