<svg width="24" height="24" viewBox="0 0 24 24" fill="none" xmlns="http://www.w3.org/2000/svg">
<path fill-rule="evenodd" clip-rule="evenodd" d="M5.50891 4.00879C4.68048 4.00879 4.00891 4.68036 4.00891 5.50879V18.491C4.00891 19.3194 4.68048 19.991 5.50891 19.991H18.4911C19.3195 19.991 19.9911 19.3194 19.9911 18.491V14.748C19.9911 14.3338 19.6553 13.998 19.2411 13.998C18.8269 13.998 18.4911 14.3338 18.4911 14.748V18.491H5.50891V5.50879H9.25255C9.66677 5.50879 10.0026 5.173 10.0026 4.75879C10.0026 4.34458 9.66677 4.00879 9.25255 4.00879H5.50891ZM9.6594 13.2799C9.3665 13.5727 9.3665 14.0476 9.6594 14.3405C9.95229 14.6334 10.4272 14.6334 10.7201 14.3405L18.4911 6.56948V10.1896C18.4911 10.6038 18.8269 10.9396 19.2411 10.9396C19.6553 10.9396 19.9911 10.6038 19.9911 10.1896V4.75882C19.9911 4.34461 19.6553 4.00882 19.2411 4.00882H13.8103C13.3961 4.00882 13.0603 4.34461 13.0603 4.75882C13.0603 5.17303 13.3961 5.50882 13.8103 5.50882H17.4304L9.6594 13.2799Z" fill="#3C3C3C"/>
</svg>
