<svg width="24" height="24" viewBox="0 0 24 24" fill="none" xmlns="http://www.w3.org/2000/svg">
<path fill-rule="evenodd" clip-rule="evenodd" d="M7.75293 2.5C8.16714 2.5 8.50293 2.83579 8.50293 3.25V4H15.5V3.25C15.5 2.83579 15.8358 2.5 16.25 2.5C16.6642 2.5 17 2.83579 17 3.25V4H18.5C19.3284 4 20 4.67157 20 5.5V18.5C20 19.3284 19.3284 20 18.5 20H5.5C4.67157 20 4 19.3284 4 18.5V5.5C4 4.67157 4.67157 4 5.5 4H7.00293V3.25C7.00293 2.83579 7.33872 2.5 7.75293 2.5ZM15.5 5.5V6.25C15.5 6.66421 15.8358 7 16.25 7C16.6642 7 17 6.66421 17 6.25V5.5H18.5V18.5H5.5V5.5H7.00293V6.25C7.00293 6.66421 7.33872 7 7.75293 7C8.16714 7 8.50293 6.66421 8.50293 6.25V5.5H15.5Z" fill="#3C3C3C"/>
<path d="M12.2255 9.21199C12.5288 8.92985 13.0205 8.92985 13.3238 9.21199L15.7731 11.4906C15.926 11.6329 16.0018 11.8198 16.0005 12.0063C16.0015 12.0219 16.002 12.0377 16.002 12.0536C16.002 12.079 16.0007 12.104 15.9982 12.1287C15.9891 12.3016 15.9136 12.4719 15.7717 12.6039L13.4255 14.7867C13.1222 15.0689 12.6305 15.0689 12.3272 14.7867C12.024 14.5046 12.024 14.0472 12.3272 13.765L13.3606 12.8036H8.75562C8.3414 12.8036 8.00562 12.4678 8.00562 12.0536C8.00562 11.6394 8.3414 11.3036 8.75562 11.3036H13.3756L12.2255 10.2337C11.9223 9.95156 11.9223 9.49413 12.2255 9.21199Z" fill="#3C3C3C"/>
</svg>
