<svg width="24" height="24" viewBox="0 0 24 24" fill="none" xmlns="http://www.w3.org/2000/svg">
<path fill-rule="evenodd" clip-rule="evenodd" d="M5.5 18.5L18.5 18.5L18.5 10.0028L15.5061 10.0028C14.6777 10.0028 14.0061 9.33123 14.0061 8.5028V5.5L5.5 5.5L5.5 18.5ZM15.5061 5.62773L18.3814 8.50281L15.5061 8.5028V5.62773ZM18.5 20H5.5C4.67157 20 4 19.3284 4 18.5V5.5C4 4.67157 4.67157 4 5.5 4H15.3784C15.7762 4 16.1577 4.15802 16.439 4.43929L19.5606 7.56065C19.8419 7.84196 20 8.22351 20 8.62136L20 18.5C20 19.3284 19.3284 20 18.5 20ZM7.75 15.5C7.33579 15.5 7 15.8358 7 16.25C7 16.6642 7.33579 17 7.75 17H16.25C16.6642 17 17 16.6642 17 16.25C17 15.8358 16.6642 15.5 16.25 15.5H7.75ZM7 12.7635C7 12.3493 7.33579 12.0135 7.75 12.0135H16.25C16.6642 12.0135 17 12.3493 17 12.7635C17 13.1777 16.6642 13.5135 16.25 13.5135H7.75C7.33579 13.5135 7 13.1777 7 12.7635ZM7.75 8.5C7.33579 8.5 7 8.83579 7 9.25C7 9.66421 7.33579 10 7.75 10H11.25C11.6642 10 12 9.66421 12 9.25C12 8.83579 11.6642 8.5 11.25 8.5H7.75Z" fill="#3C3C3C"/>
</svg>
