<svg width="24" height="24" viewBox="0 0 24 24" fill="none" xmlns="http://www.w3.org/2000/svg">
<path fill-rule="evenodd" clip-rule="evenodd" d="M17.5 4.5H6.5V6.5H6.75C7.16421 6.5 7.5 6.83579 7.5 7.25C7.5 7.66421 7.16421 8 6.75 8H6.5V11.25H6.75C7.16421 11.25 7.5 11.5858 7.5 12C7.5 12.4142 7.16421 12.75 6.75 12.75H6.5V16H6.75C7.16421 16 7.5 16.3358 7.5 16.75C7.5 17.1642 7.16421 17.5 6.75 17.5H6.5V19.5H17.5V4.5ZM5 17.5V19.5C5 20.3284 5.67157 21 6.5 21H17.5C18.3284 21 19 20.3284 19 19.5V4.5C19 3.67157 18.3284 3 17.5 3H6.5C5.67157 3 5 3.67157 5 4.5V6.5H4.75C4.33579 6.5 4 6.83579 4 7.25C4 7.66421 4.33579 8 4.75 8H5V11.25H4.75C4.33579 11.25 4 11.5858 4 12C4 12.4142 4.33579 12.75 4.75 12.75H5V16H4.75C4.33579 16 4 16.3358 4 16.75C4 17.1642 4.33579 17.5 4.75 17.5H5ZM9 8.75C9 8.33579 9.33579 8 9.75 8H14.25C14.6642 8 15 8.33579 15 8.75C15 9.16421 14.6642 9.5 14.25 9.5H9.75C9.33579 9.5 9 9.16421 9 8.75Z" fill="#3C3C3C"/>
</svg>
