<svg width="24" height="24" viewBox="0 0 24 24" fill="none" xmlns="http://www.w3.org/2000/svg">
<path fill-rule="evenodd" clip-rule="evenodd" d="M7.2068 9.35894C7.2068 6.66868 9.36086 4.50235 12.0002 4.50235C14.6395 4.50235 16.7936 6.66868 16.7936 9.35894C16.7936 13.2826 17.4114 15.3624 17.9978 16.5065H15.567H8.43298H5.97574C6.56556 15.3821 7.2068 13.3295 7.2068 9.35894ZM8.51197 18.0065H5.09626C4.8205 18.0065 4.39304 17.9099 4.16446 17.4998C3.92129 17.0636 4.09688 16.6328 4.27752 16.3946C4.67078 15.876 5.7068 14.3085 5.7068 9.35894C5.7068 5.85633 8.51645 3.00235 12.0002 3.00235C15.4839 3.00235 18.2936 5.85633 18.2936 9.35894C18.2936 14.2814 19.3047 15.8959 19.6965 16.4041C19.8522 16.606 20.0694 17.0274 19.8384 17.4814C19.6118 17.9268 19.1532 18.0065 18.9038 18.0065H15.488C15.1435 19.6164 13.7127 20.8235 12 20.8235C10.2872 20.8235 8.85646 19.6164 8.51197 18.0065ZM10.0733 18.0065C10.3735 18.7773 11.123 19.3235 12 19.3235C12.877 19.3235 13.6264 18.7773 13.9267 18.0065H10.0733Z" fill="#3C3C3C"/>
</svg>
