<svg width="24" height="24" viewBox="0 0 24 24" fill="none" xmlns="http://www.w3.org/2000/svg">
<path fill-rule="evenodd" clip-rule="evenodd" d="M7.75293 3.00125C8.16714 3.00125 8.50293 3.33704 8.50293 3.75125V4.99999H15.5V3.75125C15.5 3.33704 15.8358 3.00125 16.25 3.00125C16.6642 3.00125 17 3.33704 17 3.75125V4.99999H19.5C20.3284 4.99999 21 5.67157 21 6.49999V17.5C21 18.3284 20.3284 19 19.5 19H4.5C3.67157 19 3 18.3284 3 17.5V6.49999C3 5.67157 3.67157 4.99999 4.5 4.99999H7.00293V3.75125C7.00293 3.33704 7.33872 3.00125 7.75293 3.00125ZM15.5 6.49999V6.75125C15.5 7.16546 15.8358 7.50125 16.25 7.50125C16.6642 7.50125 17 7.16546 17 6.75125V6.49999H19.5V17.5H4.5L4.5 6.49999H7.00293V6.75125C7.00293 7.16546 7.33872 7.50125 7.75293 7.50125C8.16714 7.50125 8.50293 7.16546 8.50293 6.75125V6.49999H15.5ZM9.33478 9.13648C9.56443 9.27109 9.70553 9.51734 9.70553 9.78353V15.2515C9.70553 15.6657 9.36974 16.0015 8.95553 16.0015C8.54132 16.0015 8.20553 15.6657 8.20553 15.2515V11.0631L7.36915 11.5315C7.00775 11.7339 6.5507 11.605 6.34832 11.2436C6.14593 10.8822 6.27484 10.4251 6.63625 10.2227L8.58908 9.12915C8.82133 8.99909 9.10513 9.00188 9.33478 9.13648ZM17.2207 9.78353C17.2207 9.51734 17.0796 9.27109 16.8499 9.13648C16.6203 9.00188 16.3365 8.99909 16.1042 9.12915L14.1514 10.2227C13.79 10.4251 13.6611 10.8822 13.8635 11.2436C14.0658 11.605 14.5229 11.7339 14.8843 11.5315L15.7207 11.0631V15.2515C15.7207 15.6657 16.0565 16.0015 16.4707 16.0015C16.8849 16.0015 17.2207 15.6657 17.2207 15.2515V9.78353ZM12.5178 11.0853C12.5178 11.5167 12.1681 11.8664 11.7367 11.8664C11.3053 11.8664 10.9556 11.5167 10.9556 11.0853C10.9556 10.6539 11.3053 10.3042 11.7367 10.3042C12.1681 10.3042 12.5178 10.6539 12.5178 11.0853ZM11.7367 14.9909C12.1681 14.9909 12.5178 14.6412 12.5178 14.2098C12.5178 13.7784 12.1681 13.4287 11.7367 13.4287C11.3053 13.4287 10.9556 13.7784 10.9556 14.2098C10.9556 14.6412 11.3053 14.9909 11.7367 14.9909Z" fill="#3C3C3C"/>
</svg>
