<svg width="24" height="24" viewBox="0 0 24 24" fill="none" xmlns="http://www.w3.org/2000/svg">
<path fill-rule="evenodd" clip-rule="evenodd" d="M19.5 12C19.5 16.1421 16.1421 19.5 12 19.5C7.85786 19.5 4.5 16.1421 4.5 12C4.5 7.85786 7.85786 4.5 12 4.5C16.1421 4.5 19.5 7.85786 19.5 12ZM21 12C21 16.9706 16.9706 21 12 21C7.02944 21 3 16.9706 3 12C3 7.02944 7.02944 3 12 3C16.9706 3 21 7.02944 21 12ZM8 11C8.55228 11 9 10.5523 9 10C9 9.44772 8.55228 9 8 9C7.44772 9 7 9.44772 7 10C7 10.5523 7.44772 11 8 11ZM17 10C17 10.5523 16.5523 11 16 11C15.4477 11 15 10.5523 15 10C15 9.44772 15.4477 9 16 9C16.5523 9 17 9.44772 17 10ZM6.75 12C6.5297 12 6.32053 12.0969 6.17803 12.2649C6.03553 12.4329 5.9741 12.655 6.01005 12.8724C6.49008 15.7747 8.98147 18 12 18C15.0185 18 17.5099 15.7747 17.9899 12.8724C18.0259 12.655 17.9645 12.4329 17.822 12.2649C17.6795 12.0969 17.4703 12 17.25 12H6.75ZM12 16.5C10.0517 16.5 8.37845 15.2582 7.72235 13.5H16.2776C15.6215 15.2582 13.9482 16.5 12 16.5Z" fill="#3C3C3C"/>
</svg>
