<svg width="24" height="24" viewBox="0 0 24 24" fill="none" xmlns="http://www.w3.org/2000/svg">
<path fill-rule="evenodd" clip-rule="evenodd" d="M6.30178 9.82594L8.66633 4.31371C9.14296 3.20259 10.5759 2.89801 11.4632 3.71921L15.8654 7.79313L17.4415 7.45811C17.9817 7.34329 18.5128 7.68813 18.6276 8.22835L20.083 15.0754C20.1978 15.6156 19.853 16.1466 19.3127 16.2614L6.59682 18.9643C6.0566 19.0791 5.52558 18.7343 5.41076 18.1941L3.95538 11.347C3.84055 10.8068 4.1854 10.2758 4.72561 10.161L6.30178 9.82594ZM10.0448 4.90505C10.1129 4.74631 10.3176 4.7028 10.4444 4.82012L14.0694 8.17487L8.09771 9.4442L10.0448 4.90505ZM6.77402 17.3931L5.52655 11.5242L17.2643 9.02929L18.5118 14.8982L6.77402 17.3931Z" fill="#3C3C3C"/>
</svg>
