<svg width="24" height="24" viewBox="0 0 24 24" fill="none" xmlns="http://www.w3.org/2000/svg">
<path fill-rule="evenodd" clip-rule="evenodd" d="M7.00549 6.25244C7.00549 5.83823 7.34128 5.50244 7.75549 5.50244L20.254 5.50244C20.6682 5.50244 21.004 5.83823 21.004 6.25244C21.004 6.66665 20.6682 7.00244 20.254 7.00244L7.75549 7.00244C7.34128 7.00244 7.00549 6.66665 7.00549 6.25244Z" fill="#3C3C3C"/>
<path fill-rule="evenodd" clip-rule="evenodd" d="M7.00549 12C7.00549 11.5858 7.34128 11.25 7.75549 11.25L20.254 11.25C20.6682 11.25 21.004 11.5858 21.004 12C21.004 12.4142 20.6682 12.75 20.254 12.75L7.75549 12.75C7.34128 12.75 7.00549 12.4142 7.00549 12Z" fill="#3C3C3C"/>
<path fill-rule="evenodd" clip-rule="evenodd" d="M7.00549 17.7456C7.00549 17.3314 7.34128 16.9956 7.75549 16.9956L20.254 16.9956C20.6682 16.9956 21.004 17.3314 21.004 17.7456C21.004 18.1598 20.6682 18.4956 20.254 18.4956L7.75549 18.4956C7.34128 18.4956 7.00549 18.1598 7.00549 17.7456Z" fill="#3C3C3C"/>
<path fill-rule="evenodd" clip-rule="evenodd" d="M4.5 4C4.77614 4 5 4.22386 5 4.5V7.5C5 7.77614 4.77614 8 4.5 8C4.22386 8 4 7.77614 4 7.5V4.5C4 4.22386 4.22386 4 4.5 4Z" fill="#3C3C3C"/>
<path fill-rule="evenodd" clip-rule="evenodd" d="M4.10582 11.1672C4.03016 11.2722 4.00005 11.4133 4.00005 11.5C4.00005 11.7761 3.77619 12 3.50005 12C3.22391 12 3.00005 11.7761 3.00005 11.5C3.00005 11.2533 3.06994 10.8944 3.29428 10.5828C3.53698 10.2458 3.93709 10 4.50005 10C5.06301 10 5.46312 10.2458 5.70582 10.5828C5.93016 10.8944 6.00005 11.2533 6.00005 11.5C6.00005 11.914 5.79665 12.2734 5.57798 12.5467C5.4475 12.7098 5.29589 12.8619 5.1393 13H5.50005C5.77619 13 6.00005 13.2239 6.00005 13.5C6.00005 13.7761 5.77619 14 5.50005 14H3.50005C3.26816 14 3.0667 13.8406 3.01342 13.6149C2.96018 13.3893 3.06892 13.1567 3.27611 13.053C3.27613 13.0529 3.27615 13.0529 3.27616 13.0529C3.27617 13.0529 3.27618 13.0529 3.27618 13.0529L3.27629 13.0529C3.27634 13.0528 3.27639 13.0528 3.27644 13.0528L3.27648 13.0528L3.27931 13.0513L3.293 13.0443C3.30558 13.0378 3.32486 13.0277 3.34988 13.0143C3.39997 12.9875 3.47276 12.9475 3.56061 12.8962C3.73736 12.7931 3.97006 12.6475 4.20005 12.475C4.43293 12.3003 4.64635 12.1105 4.79711 11.922C4.95344 11.7266 5.00005 11.586 5.00005 11.5C5.00005 11.4133 4.96994 11.2722 4.89428 11.1672C4.83698 11.0876 4.73709 11 4.50005 11C4.26301 11 4.16312 11.0876 4.10582 11.1672Z" fill="#3C3C3C"/>
<path fill-rule="evenodd" clip-rule="evenodd" d="M3 16.4548C3 16.1787 3.22386 15.9548 3.5 15.9548H5.61035C5.81258 15.9548 5.9949 16.0767 6.07229 16.2635C6.14968 16.4503 6.1069 16.6654 5.9639 16.8084L4.94627 17.826C4.75101 18.0213 4.43442 18.0213 4.23916 17.826C4.0439 17.6308 4.0439 17.3142 4.23916 17.1189L4.40324 16.9548H3.5C3.22386 16.9548 3 16.731 3 16.4548Z" fill="#3C3C3C"/>
<path fill-rule="evenodd" clip-rule="evenodd" d="M4.09816 17.4724C4.09816 17.1963 4.32202 16.9724 4.59816 16.9724C5.44668 16.9724 6.13454 17.6603 6.13454 18.5088C6.13454 19.3573 5.44668 20.0452 4.59816 20.0452C3.89587 20.0452 3.30484 19.5744 3.121 18.9322C3.045 18.6667 3.19861 18.3899 3.46408 18.3139C3.72956 18.2379 4.00638 18.3915 4.08238 18.657C4.14667 18.8816 4.35396 19.0452 4.59816 19.0452C4.8944 19.0452 5.13454 18.805 5.13454 18.5088C5.13454 18.2126 4.8944 17.9724 4.59816 17.9724C4.32202 17.9724 4.09816 17.7486 4.09816 17.4724Z" fill="#3C3C3C"/>
</svg>
