<svg width="24" height="24" viewBox="0 0 24 24" fill="none" xmlns="http://www.w3.org/2000/svg">
<path fill-rule="evenodd" clip-rule="evenodd" d="M4.5 6.5H13.5V9V17.5H4.5V6.5ZM13.5 19H4.5C3.67157 19 3 18.3284 3 17.5V6.5C3 5.67157 3.67157 5 4.5 5H13.5C14.3284 5 15 5.67157 15 6.5V9H19.5C20.3284 9 21 9.67157 21 10.5V17.5C21 18.3284 20.3284 19 19.5 19H15H13.5ZM15 17.5H19.5V10.5H15V17.5ZM6.5 9C6.5 8.72386 6.72386 8.5 7 8.5H7.5C7.77614 8.5 8 8.72386 8 9V9.5C8 9.77614 7.77614 10 7.5 10H7C6.72386 10 6.5 9.77614 6.5 9.5V9ZM7 14.5C6.72386 14.5 6.5 14.7239 6.5 15V15.5C6.5 15.7761 6.72386 16 7 16H7.5C7.77614 16 8 15.7761 8 15.5V15C8 14.7239 7.77614 14.5 7.5 14.5H7ZM6.5 12C6.5 11.7239 6.72386 11.5 7 11.5H7.5C7.77614 11.5 8 11.7239 8 12V12.5C8 12.7761 7.77614 13 7.5 13H7C6.72386 13 6.5 12.7761 6.5 12.5V12ZM10.5 8.5C10.2239 8.5 10 8.72386 10 9V9.5C10 9.77614 10.2239 10 10.5 10H11C11.2761 10 11.5 9.77614 11.5 9.5V9C11.5 8.72386 11.2761 8.5 11 8.5H10.5ZM10 15C10 14.7239 10.2239 14.5 10.5 14.5H11C11.2761 14.5 11.5 14.7239 11.5 15V15.5C11.5 15.7761 11.2761 16 11 16H10.5C10.2239 16 10 15.7761 10 15.5V15ZM10.5 11.5C10.2239 11.5 10 11.7239 10 12V12.5C10 12.7761 10.2239 13 10.5 13H11C11.2761 13 11.5 12.7761 11.5 12.5V12C11.5 11.7239 11.2761 11.5 11 11.5H10.5ZM16.5 12.5C16.5 12.2239 16.7239 12 17 12H17.5C17.7761 12 18 12.2239 18 12.5V13C18 13.2761 17.7761 13.5 17.5 13.5H17C16.7239 13.5 16.5 13.2761 16.5 13V12.5ZM17 14.5C16.7239 14.5 16.5 14.7239 16.5 15V15.5C16.5 15.7761 16.7239 16 17 16H17.5C17.7761 16 18 15.7761 18 15.5V15C18 14.7239 17.7761 14.5 17.5 14.5H17Z" fill="#3C3C3C"/>
</svg>
