<svg width="24" height="24" viewBox="0 0 24 24" fill="none" xmlns="http://www.w3.org/2000/svg">
<path fill-rule="evenodd" clip-rule="evenodd" d="M12.75 10.25V15.75H11.25V10.25H12.75Z" fill="#3C3C3C"/>
<path fill-rule="evenodd" clip-rule="evenodd" d="M7 6.5V9.5H17V6.5H7ZM6.5 5C5.94772 5 5.5 5.44772 5.5 6V10C5.5 10.5523 5.94772 11 6.5 11H17.5C18.0523 11 18.5 10.5523 18.5 10V6C18.5 5.44772 18.0523 5 17.5 5H6.5Z" fill="#3C3C3C"/>
<path fill-rule="evenodd" clip-rule="evenodd" d="M4.5 16.5V17.5H6.5V16.5H4.5ZM4 15C3.44772 15 3 15.4477 3 16V18C3 18.5523 3.44772 19 4 19H7C7.55228 19 8 18.5523 8 18V16C8 15.4477 7.55228 15 7 15H4Z" fill="#3C3C3C"/>
<path fill-rule="evenodd" clip-rule="evenodd" d="M17.5 16.5V17.5H19.5V16.5H17.5ZM17 15C16.4477 15 16 15.4477 16 16V18C16 18.5523 16.4477 19 17 19H20C20.5523 19 21 18.5523 21 18V16C21 15.4477 20.5523 15 20 15H17Z" fill="#3C3C3C"/>
<path fill-rule="evenodd" clip-rule="evenodd" d="M11 16.5V17.5H13V16.5H11ZM10.5 15C9.94772 15 9.5 15.4477 9.5 16V18C9.5 18.5523 9.94772 19 10.5 19H13.5C14.0523 19 14.5 18.5523 14.5 18V16C14.5 15.4477 14.0523 15 13.5 15H10.5Z" fill="#3C3C3C"/>
<path fill-rule="evenodd" clip-rule="evenodd" d="M4.75 14C4.75 13.0335 5.5335 12.25 6.5 12.25H17.5C18.4665 12.25 19.25 13.0335 19.25 14V16H17.75V14C17.75 13.8619 17.6381 13.75 17.5 13.75H6.5C6.36193 13.75 6.25 13.8619 6.25 14V16H4.75V14Z" fill="#3C3C3C"/>
</svg>
