<svg width="24" height="24" viewBox="0 0 24 24" fill="none" xmlns="http://www.w3.org/2000/svg">
<path fill-rule="evenodd" clip-rule="evenodd" d="M6.5 4.5H9.5V19.5H6.5V4.5ZM5 4.5C5 3.67157 5.67157 3 6.5 3H9.5C10.3284 3 11 3.67157 11 4.5V19.5C11 20.3284 10.3284 21 9.5 21H6.5C5.67157 21 5 20.3284 5 19.5V4.5ZM14.5 4.5H17.5V19.5H14.5V4.5ZM13 4.5C13 3.67157 13.6716 3 14.5 3H17.5C18.3284 3 19 3.67157 19 4.5V19.5C19 20.3284 18.3284 21 17.5 21H14.5C13.6716 21 13 20.3284 13 19.5V4.5Z" fill="#3C3C3C"/>
</svg>
