<svg width="24" height="24" viewBox="0 0 24 24" fill="none" xmlns="http://www.w3.org/2000/svg">
<path fill-rule="evenodd" clip-rule="evenodd" d="M5.5 18.5L18.5 18.5L18.5 10.0028L15.5061 10.0028C14.6777 10.0028 14.0061 9.33123 14.0061 8.5028V5.5L5.5 5.5L5.5 18.5ZM15.5061 5.62773L18.3814 8.50281L15.5061 8.5028V5.62773ZM18.5 20H5.5C4.67157 20 4 19.3284 4 18.5V5.5C4 4.67157 4.67157 4 5.5 4H15.3784C15.7762 4 16.1577 4.15802 16.439 4.43929L19.5606 7.56065C19.8419 7.84196 20 8.22351 20 8.62136L20 18.5C20 19.3284 19.3284 20 18.5 20ZM7.41415 17H8.17378V15.8351H8.81236C9.63866 15.8351 10.1193 15.3421 10.1193 14.6246C10.1193 13.9106 9.64743 13.4071 8.83166 13.4071H7.41415V17ZM8.17378 15.2264V14.0281H8.68605C9.12464 14.0281 9.33691 14.2667 9.33691 14.6246C9.33691 14.9808 9.12464 15.2264 8.68956 15.2264H8.17378ZM11.8864 17C12.9811 17 13.6443 16.3228 13.6443 15.2C13.6443 14.0808 12.9811 13.4071 11.8969 13.4071H10.6128V17H11.8864ZM11.3724 16.3491V14.058H11.8566C12.5303 14.058 12.8864 14.4018 12.8864 15.2C12.8864 16.0018 12.5303 16.3491 11.8548 16.3491H11.3724ZM14.9666 17H14.207V13.4071H16.5859V14.0334H14.9666V14.8895H16.428V15.5158H14.9666V17Z" fill="#3C3C3C"/>
</svg>
