<svg width="24" height="24" viewBox="0 0 24 24" fill="none" xmlns="http://www.w3.org/2000/svg">
<path fill-rule="evenodd" clip-rule="evenodd" d="M12 3C11.7474 3 11.4973 3.0104 11.25 3.03081C6.63035 3.41192 3 7.282 3 12C3 14.2153 3.80037 16.2436 5.12771 17.8116C5.28949 18.0027 5.4591 18.187 5.63604 18.364C5.81298 18.5409 5.99726 18.7105 6.18837 18.8723C7.57761 20.0483 9.3282 20.8106 11.25 20.9692C11.4973 20.9896 11.7474 21 12 21C12.2526 21 12.5027 20.9896 12.75 20.9692C14.6718 20.8106 16.4224 20.0483 17.8116 18.8723C18.0027 18.7105 18.187 18.5409 18.364 18.364C18.5409 18.187 18.7105 18.0027 18.8723 17.8116C20.1996 16.2436 21 14.2153 21 12C21 7.282 17.3696 3.41192 12.75 3.03081C12.5027 3.0104 12.2526 3 12 3ZM11.25 4.53703C7.46001 4.91332 4.5 8.11099 4.5 12C4.5 13.8016 5.1337 15.4529 6.19273 16.7466L11.25 11.6893V4.53703ZM11.25 13.8107L7.25339 17.8073C8.36527 18.7175 9.7414 19.3135 11.25 19.463V13.8107ZM12.75 19.463C14.2586 19.3135 15.6347 18.7175 16.7466 17.8073L12.75 13.8107V19.463ZM12.75 11.6893V4.53703C16.54 4.91332 19.5 8.11099 19.5 12C19.5 13.8016 18.8663 15.4529 17.8073 16.7466L12.75 11.6893Z" fill="#3C3C3C"/>
</svg>
