<svg width="24" height="24" viewBox="0 0 24 24" fill="none" xmlns="http://www.w3.org/2000/svg">
<path d="M17.4341 5.62095C17.6009 5.3789 17.5239 5.04588 17.2678 4.9016L16.6312 4.54294C16.4061 4.41617 16.1216 4.48165 15.9746 4.69402L6.50731 18.3735C6.33846 18.6174 6.41799 18.9539 6.67819 19.0965L7.34883 19.464C7.57369 19.5872 7.85531 19.5203 8.0008 19.3092L17.4341 5.62095ZM7.78723 11.9362C10.1702 11.9362 11.5745 10.2341 11.5745 8.31919C11.5745 6.4043 10.1702 4.70217 7.78723 4.70217C5.40425 4.70217 4 6.4043 4 8.31919C4 10.2341 5.40425 11.9362 7.78723 11.9362ZM7.78723 10.149C6.63829 10.149 6.02127 9.34046 6.02127 8.31919C6.02127 7.29791 6.63829 6.4894 7.78723 6.4894C8.93616 6.4894 9.55318 7.29791 9.55318 8.31919C9.55318 9.34046 8.93616 10.149 7.78723 10.149ZM16.2127 19.4043C18.5957 19.4043 20 17.7021 20 15.7873C20 13.8724 18.5957 12.1702 16.2127 12.1702C13.8298 12.1702 12.4255 13.8724 12.4255 15.7873C12.4255 17.7021 13.8298 19.4043 16.2127 19.4043ZM16.2127 17.617C15.0638 17.617 14.4468 16.8085 14.4468 15.7873C14.4468 14.766 15.0638 13.9575 16.2127 13.9575C17.3617 13.9575 17.9787 14.766 17.9787 15.7873C17.9787 16.8085 17.3617 17.617 16.2127 17.617Z" fill="#3C3C3C"/>
</svg>
