<svg width="24" height="24" viewBox="0 0 24 24" fill="none" xmlns="http://www.w3.org/2000/svg">
<path fill-rule="evenodd" clip-rule="evenodd" d="M8.6131 9.72412L10.3805 8.3433L8.24148 5.60551L7.3015 6.3399C6.97957 6.59142 6.78904 6.94502 6.73839 7.3219L6.73245 7.36607L6.7239 7.4098C6.33634 9.39286 6.99268 12.1285 8.90728 14.579C10.7484 16.9355 13.1332 18.2327 15.1135 18.416L15.2043 18.4244L15.2933 18.4437C15.7174 18.5357 16.1713 18.4453 16.5364 18.1601L17.4764 17.4257L15.3374 14.6879L13.6784 15.984L12.7851 15.4174C12.0095 14.9254 11.2858 14.2196 10.5206 13.2402C9.83446 12.362 9.34729 11.5609 9.03102 10.7697L8.6131 9.72412ZM10.4239 10.2129L11.698 9.21748C12.1332 8.87746 12.2103 8.24902 11.8703 7.81381L9.11566 4.28801C8.77564 3.8528 8.14719 3.77564 7.71199 4.11566L6.37801 5.15788C5.73497 5.66028 5.35249 6.37256 5.25175 7.1221C4.76292 9.62334 5.60627 12.7904 7.72526 15.5025C9.76604 18.1146 12.5024 19.6807 14.9753 19.9096C15.8161 20.092 16.7289 19.9132 17.4599 19.3421L18.7939 18.2999C19.2291 17.9598 19.3063 17.3314 18.9662 16.8962L16.2116 13.3704C15.8716 12.9352 15.2431 12.858 14.8079 13.198L13.5885 14.1507C13.0063 13.7814 12.4045 13.2151 11.7027 12.3167C11.0746 11.5128 10.6724 10.8348 10.4239 10.2129Z" fill="#3C3C3C"/>
</svg>
