<svg width="24" height="24" viewBox="0 0 24 24" fill="none" xmlns="http://www.w3.org/2000/svg">
<path fill-rule="evenodd" clip-rule="evenodd" d="M10.3152 10.0624L14.7747 5.60285L18.3817 9.20985L13.9218 13.6698C13.755 13.8365 13.6764 14.0721 13.7096 14.3056C13.8795 15.5018 13.5936 16.7478 12.8544 17.7654L6.21869 11.1297C7.23652 10.3903 8.48286 10.1044 9.67928 10.2746C9.91283 10.3078 10.1484 10.2292 10.3152 10.0624ZM15.6586 4.36541C15.1705 3.87726 14.379 3.87726 13.8908 4.36541L9.50911 8.74715C7.92459 8.61999 6.29851 9.09508 5.00496 10.1749C4.42025 10.6631 4.46532 11.4977 4.9397 11.972L7.95357 14.9859L4.46973 18.4698C4.17684 18.7627 4.17684 19.2375 4.46973 19.5304C4.76262 19.8233 5.2375 19.8233 5.53039 19.5304L9.01423 16.0466L12.012 19.0444C12.4864 19.5188 13.321 19.5638 13.8091 18.9791C14.8888 17.6858 15.3639 16.0601 15.237 14.4759L19.6192 10.0937C20.1073 9.60558 20.1073 8.81412 19.6192 8.32597L15.6586 4.36541Z" fill="#3C3C3C"/>
</svg>
