<svg width="24" height="24" viewBox="0 0 24 24" fill="none" xmlns="http://www.w3.org/2000/svg">
<path fill-rule="evenodd" clip-rule="evenodd" d="M13.8909 4.36535C14.379 3.8772 15.1705 3.8772 15.6586 4.36535L19.6192 8.3259C20.1073 8.81406 20.1073 9.60552 19.6192 10.0937L15.237 14.4758C15.3639 16.0601 14.8888 17.6858 13.8091 18.9791C13.321 19.5638 12.4864 19.5187 12.012 19.0443L9.01428 16.0465L5.53039 19.5304C5.2375 19.8233 4.76262 19.8233 4.46973 19.5304C4.17684 19.2375 4.17684 18.7627 4.46973 18.4698L7.95362 14.9859L4.93972 11.972C4.46534 11.4976 4.42028 10.663 5.00498 10.1749C6.29854 9.09502 7.92461 8.61992 9.50914 8.74709L13.8909 4.36535Z" fill="#3C3C3C"/>
</svg>
