<svg width="24" height="24" viewBox="0 0 24 24" fill="none" xmlns="http://www.w3.org/2000/svg">
<path fill-rule="evenodd" clip-rule="evenodd" d="M7 5C7 4.44772 7.44772 4 8 4H16C16.5523 4 17 4.44772 17 5V8.25H17.6C18.9445 8.25 19.75 9.55856 19.75 10.7778V15.2222C19.75 16.4414 18.9445 17.75 17.6 17.75H17V19C17 19.5523 16.5523 20 16 20H8C7.44772 20 7 19.5523 7 19V17.75H6.4C5.05553 17.75 4.25 16.4414 4.25 15.2222V10.7778C4.25 9.55856 5.05553 8.25 6.4 8.25H7V5ZM8.5 8V5.5H15.5V8H8.5ZM6.4 9.75C6.19807 9.75 5.75 10.0333 5.75 10.7778V15.2222C5.75 15.9667 6.19807 16.25 6.4 16.25H7V13C7 12.4477 7.44772 12 8 12H16C16.5523 12 17 12.4477 17 13V16.25H17.6C17.8019 16.25 18.25 15.9667 18.25 15.2222V10.7778C18.25 10.0333 17.8019 9.75 17.6 9.75H6.4ZM8.5 13.5V18.5H15.5V13.5H8.5Z" fill="#3C3C3C"/>
</svg>
