<svg width="24" height="24" viewBox="0 0 24 24" fill="none" xmlns="http://www.w3.org/2000/svg">
<path fill-rule="evenodd" clip-rule="evenodd" d="M3 12C3 7.02944 7.02944 3 12 3C16.9706 3 21 7.02944 21 12C21 16.9706 16.9706 21 12 21C7.02944 21 3 16.9706 3 12ZM12 4.5C7.85786 4.5 4.5 7.85786 4.5 12C4.5 13.9813 5.26828 15.7832 6.52318 17.124C7.05523 16.1663 7.73856 15.3465 8.54263 14.7275C8.86463 14.4796 9.2025 14.2668 9.55256 14.0913C8.75493 13.4036 8.25 12.3858 8.25 11.25C8.25 9.17893 9.92893 7.5 12 7.5C14.0711 7.5 15.75 9.17893 15.75 11.25C15.75 12.3857 15.2451 13.4035 14.4475 14.0912C14.7976 14.2667 15.1356 14.4796 15.4576 14.7275C16.2616 15.3464 16.9449 16.1662 17.477 17.1238C18.7318 15.783 19.5 13.9812 19.5 12C19.5 7.85786 16.1421 4.5 12 4.5ZM16.3152 18.135C15.8494 17.2076 15.2389 16.4521 14.5426 15.9161C13.7487 15.305 12.8722 15 12.0001 15C11.128 15 10.2515 15.305 9.45762 15.9161C8.76133 16.4521 8.15076 17.2077 7.68498 18.1351C8.90531 18.995 10.3937 19.5 12 19.5C13.6064 19.5 15.0948 18.995 16.3152 18.135ZM12 9C10.7574 9 9.75 10.0074 9.75 11.25C9.75 12.4926 10.7574 13.5 12 13.5C13.2426 13.5 14.25 12.4926 14.25 11.25C14.25 10.0074 13.2426 9 12 9Z" fill="#3C3C3C"/>
</svg>
