<svg width="24" height="24" viewBox="0 0 24 24" fill="none" xmlns="http://www.w3.org/2000/svg">
<path fill-rule="evenodd" clip-rule="evenodd" d="M12 3C11.5858 3 11.25 3.33579 11.25 3.75C11.25 4.16421 11.5858 4.5 12 4.5C16.1421 4.5 19.5 7.85786 19.5 12C19.5 16.1421 16.1421 19.5 12 19.5C11.5858 19.5 11.25 19.8358 11.25 20.25C11.25 20.6642 11.5858 21 12 21C16.9706 21 21 16.9706 21 12C21 7.02944 16.9706 3 12 3ZM9.49993 4.92657C9.89047 4.78854 10.0952 4.36004 9.95713 3.96951C9.81909 3.57897 9.3906 3.37428 9.00007 3.51231C7.53958 4.02852 6.25322 4.91026 5.2502 6.04669C4.9761 6.35724 5.00565 6.83119 5.3162 7.10529C5.62675 7.37939 6.10071 7.34984 6.3748 7.03929C7.21204 6.09071 8.28467 5.35611 9.49993 4.92657ZM4.92657 9.49993C5.06461 9.1094 4.85991 8.6809 4.46938 8.54287C4.07884 8.40484 3.65035 8.60953 3.51231 9.00007C3.18032 9.93936 3 10.9494 3 12C3 13.0506 3.18032 14.0606 3.51231 14.9999C3.65035 15.3905 4.07884 15.5952 4.46938 15.4571C4.85991 15.3191 5.06461 14.8906 4.92657 14.5001C4.65053 13.7191 4.5 12.8779 4.5 12C4.5 11.1221 4.65053 10.2809 4.92657 9.49993ZM6.3748 16.9607C6.10071 16.6502 5.62675 16.6206 5.3162 16.8947C5.00565 17.1688 4.9761 17.6428 5.2502 17.9533C6.25322 19.0897 7.53958 19.9715 9.00007 20.4877C9.3906 20.6257 9.81909 20.421 9.95713 20.0305C10.0952 19.64 9.89047 19.2115 9.49993 19.0734C8.28467 18.6439 7.21204 17.9093 6.3748 16.9607ZM16.5454 9.51478C16.8297 9.21355 16.816 8.73887 16.5148 8.45457C16.2136 8.17026 15.7389 8.18398 15.4546 8.48522L10.3516 13.892L8.55869 11.8901C8.28234 11.5815 7.80819 11.5554 7.49963 11.8318C7.19108 12.1081 7.16498 12.5823 7.44132 12.8908L9.23427 14.8927C9.82005 15.5468 10.8399 15.5601 11.4425 14.9216L16.5454 9.51478Z" fill="#3C3C3C"/>
</svg>
