<svg width="24" height="24" viewBox="0 0 24 24" fill="none" xmlns="http://www.w3.org/2000/svg">
<path fill-rule="evenodd" clip-rule="evenodd" d="M11.3086 5.31646C11.5773 5.43777 11.75 5.70522 11.75 6.00001V18C11.75 18.2948 11.5773 18.5623 11.3086 18.6836C11.04 18.8049 10.7251 18.7575 10.504 18.5626L6.82771 15.3214H4C3.58579 15.3214 3.25 14.9857 3.25 14.5714V9.42858C3.25 9.01437 3.58579 8.67858 4 8.67858H6.82771L10.504 5.43743C10.7251 5.24248 11.04 5.19515 11.3086 5.31646ZM10.25 7.6611L7.6071 9.99116C7.4701 10.1119 7.29375 10.1786 7.11111 10.1786H4.75V13.8214H7.11111C7.29375 13.8214 7.4701 13.8881 7.6071 14.0089L10.25 16.3389V7.6611Z" fill="#3C3C3C"/>
<path fill-rule="evenodd" clip-rule="evenodd" d="M16.726 5.49411C17.0054 5.18832 17.4798 5.16693 17.7856 5.44633C19.6744 7.17211 20.75 9.52777 20.75 12C20.75 14.4723 19.6744 16.8279 17.7856 18.5537C17.4798 18.8331 17.0054 18.8117 16.726 18.5059C16.4466 18.2001 16.468 17.7257 16.7738 17.4463C18.3686 15.9892 19.25 14.0284 19.25 12C19.25 9.97159 18.3686 8.01085 16.7738 6.5537C16.468 6.2743 16.4466 5.79991 16.726 5.49411ZM13.4463 8.48987C13.7257 8.18408 14.2001 8.16268 14.5059 8.44208C15.5238 9.37213 16.1101 10.6487 16.1101 11.9958C16.1101 13.3428 15.5238 14.6194 14.5059 15.5495C14.2001 15.8289 13.7257 15.8075 13.4463 15.5017C13.1669 15.1959 13.1883 14.7215 13.4941 14.4421C14.218 13.7807 14.6101 12.899 14.6101 11.9958C14.6101 11.0925 14.218 10.2109 13.4941 9.54945C13.1883 9.27005 13.1669 8.79566 13.4463 8.48987Z" fill="#3C3C3C"/>
</svg>
