<svg width="24" height="24" viewBox="0 0 24 24" fill="none" xmlns="http://www.w3.org/2000/svg">
<path fill-rule="evenodd" clip-rule="evenodd" d="M12 19.5C16.1421 19.5 19.5 16.1421 19.5 12C19.5 7.85786 16.1421 4.5 12 4.5C7.85786 4.5 4.5 7.85786 4.5 12C4.5 16.1421 7.85786 19.5 12 19.5ZM12 21C16.9706 21 21 16.9706 21 12C21 7.02944 16.9706 3 12 3C7.02944 3 3 7.02944 3 12C3 16.9706 7.02944 21 12 21ZM12.956 16.7962C12.956 17.3241 12.528 17.7521 12.0001 17.7521C11.4721 17.7521 11.0441 17.3241 11.0441 16.7962C11.0441 16.2682 11.4721 15.8402 12.0001 15.8402C12.528 15.8402 12.956 16.2682 12.956 16.7962ZM10.3047 9.44532C10.3047 8.50902 11.0637 7.75 12 7.75C12.9363 7.75 13.6953 8.50902 13.6953 9.44532C13.6953 10.2628 13.116 10.9466 12.3451 11.1056C11.8195 11.2141 11.25 11.6714 11.25 12.3906V13.9284C11.25 14.3426 11.5858 14.6784 12 14.6784C12.4142 14.6784 12.75 14.3426 12.75 13.9284V12.552C14.1528 12.2142 15.1953 10.9523 15.1953 9.44532C15.1953 7.68059 13.7647 6.25 12 6.25C10.2353 6.25 8.80469 7.68059 8.80469 9.44532C8.80469 9.85953 9.14047 10.1953 9.55469 10.1953C9.9689 10.1953 10.3047 9.85953 10.3047 9.44532Z" fill="#3C3C3C"/>
</svg>
