<svg width="24" height="24" viewBox="0 0 24 24" fill="none" xmlns="http://www.w3.org/2000/svg">
<path d="M16.5529 9.50679C16.8328 9.20145 16.8121 8.72703 16.5068 8.44713C16.2015 8.16724 15.727 8.18786 15.4471 8.4932L10.6529 13.7233C10.5567 13.8282 10.3925 13.8318 10.2918 13.7311L8.53033 11.9697C8.23744 11.6768 7.76256 11.6768 7.46967 11.9697C7.17678 12.2626 7.17678 12.7374 7.46967 13.0303L9.23115 14.7918C9.93566 15.4963 11.0854 15.4713 11.7586 14.7369L16.5529 9.50679Z" fill="#3C3C3C"/>
<path fill-rule="evenodd" clip-rule="evenodd" d="M4 5.5C4 4.67157 4.67157 4 5.5 4H18.5C19.3284 4 20 4.67157 20 5.5V18.5C20 19.3284 19.3284 20 18.5 20H5.5C4.67157 20 4 19.3284 4 18.5V5.5ZM5.5 5.5H18.5V18.5H5.5V5.5Z" fill="#3C3C3C"/>
</svg>
