<svg width="24" height="24" viewBox="0 0 24 24" fill="none" xmlns="http://www.w3.org/2000/svg">
<path fill-rule="evenodd" clip-rule="evenodd" d="M18.25 2C18.6642 2 19 2.33579 19 2.75V5H21.25C21.6642 5 22 5.33579 22 5.75C22 6.16421 21.6642 6.5 21.25 6.5H19V8.75C19 9.16421 18.6642 9.5 18.25 9.5C17.8358 9.5 17.5 9.16421 17.5 8.75V6.5H15.25C14.8358 6.5 14.5 6.16421 14.5 5.75C14.5 5.33579 14.8358 5 15.25 5H17.5V2.75C17.5 2.33579 17.8358 2 18.25 2ZM4.5 12C4.5 7.85786 7.85786 4.5 12 4.5C12.4142 4.5 12.75 4.16421 12.75 3.75C12.75 3.33579 12.4142 3 12 3C7.02944 3 3 7.02944 3 12C3 16.9706 7.02944 21 12 21C16.9706 21 21 16.9706 21 12C21 11.5858 20.6642 11.25 20.25 11.25C19.8358 11.25 19.5 11.5858 19.5 12C19.5 16.1421 16.1421 19.5 12 19.5C7.85786 19.5 4.5 16.1421 4.5 12ZM8 11C8.55228 11 9 10.5523 9 10C9 9.44772 8.55228 9 8 9C7.44772 9 7 9.44772 7 10C7 10.5523 7.44772 11 8 11ZM17 10C17 10.5523 16.5523 11 16 11C15.4477 11 15 10.5523 15 10C15 9.44772 15.4477 9 16 9C16.5523 9 17 9.44772 17 10ZM7.48995 12.6277C7.42236 12.2191 7.03628 11.9426 6.62762 12.0102C6.21896 12.0778 5.94246 12.4638 6.01005 12.8725C6.49008 15.7748 8.98147 18.0001 12 18.0001C15.0185 18.0001 17.5099 15.7748 17.9899 12.8725C18.0575 12.4638 17.781 12.0778 17.3724 12.0102C16.9637 11.9426 16.5776 12.2191 16.5101 12.6277C16.1453 14.8333 14.2572 16.5001 12 16.5001C9.74284 16.5001 7.85474 14.8333 7.48995 12.6277Z" fill="#3C3C3C"/>
</svg>
