<svg width="24" height="24" viewBox="0 0 24 24" fill="none" xmlns="http://www.w3.org/2000/svg">
<path fill-rule="evenodd" clip-rule="evenodd" d="M17.8176 6.28228C17.5248 5.98939 17.5248 5.51452 17.8176 5.22162C18.1105 4.92873 18.5854 4.92873 18.8783 5.22162L20.6861 7.02943C21.1092 7.4525 21.1092 8.13843 20.6861 8.5615L18.8783 10.3693C18.5854 10.6622 18.1105 10.6622 17.8176 10.3693C17.5248 10.0764 17.5248 9.60154 17.8176 9.30864L18.5809 8.54541H7.41667C6.35812 8.54541 5.5 9.40353 5.5 10.4621V11.25C5.5 11.6642 5.16421 12 4.75 12C4.33579 12 4 11.6642 4 11.25V10.4621C4 8.5751 5.52969 7.04541 7.41667 7.04541H18.5808L17.8176 6.28228ZM19.6711 13.5452C19.6711 15.4322 18.1414 16.9619 16.2545 16.9619H5.42691L6.19004 17.725C6.48293 18.0179 6.48293 18.4928 6.19004 18.7857C5.89715 19.0786 5.42227 19.0786 5.12938 18.7857L3.32157 16.9779C2.8985 16.5548 2.89851 15.8689 3.32157 15.4458L5.12938 13.638C5.42227 13.3451 5.89715 13.3451 6.19004 13.638C6.48293 13.9309 6.48293 14.4058 6.19004 14.6987L5.42681 15.4619H16.2545C17.313 15.4619 18.1711 14.6038 18.1711 13.5452V12.7544C18.1711 12.3402 18.5069 12.0044 18.9211 12.0044C19.3354 12.0044 19.6711 12.3402 19.6711 12.7544V13.5452Z" fill="#3C3C3C"/>
</svg>
