<svg width="24" height="24" viewBox="0 0 24 24" fill="none" xmlns="http://www.w3.org/2000/svg">
<path fill-rule="evenodd" clip-rule="evenodd" d="M14.5 4.5C12.2597 4.5 10.3636 5.97334 9.72767 8.00391C12.1823 8.08841 14.2913 9.53393 15.3235 11.6093C15.9802 11.3735 16.4126 10.8757 16.5138 10.3565C16.5931 9.94996 16.9869 9.68462 17.3935 9.76387C17.8 9.84312 18.0654 10.237 17.9861 10.6435C17.7672 11.7669 16.91 12.6292 15.8307 13.0195C15.9249 13.4239 15.9813 13.8428 15.9961 14.2723C18.0267 13.6364 19.5 11.7403 19.5 9.5C19.5 6.73858 17.2614 4.5 14.5 4.5ZM14.5 3C11.3759 3 8.7665 5.20406 8.14206 8.14206C5.20406 8.7665 3 11.3759 3 14.5C3 18.0899 5.91015 21 9.5 21C12.6241 21 15.2335 18.7959 15.8579 15.8579C18.7959 15.2335 21 12.6241 21 9.5C21 5.91015 18.0899 3 14.5 3ZM9.5 19.5C12.2614 19.5 14.5 17.2614 14.5 14.5C14.5 11.7386 12.2614 9.5 9.5 9.5C6.73858 9.5 4.5 11.7386 4.5 14.5C4.5 17.2614 6.73858 19.5 9.5 19.5ZM7.48616 15.3565C7.40691 14.95 7.01308 14.6846 6.60652 14.7639C6.19996 14.8431 5.93462 15.237 6.01387 15.6435C6.31702 17.1987 7.83329 18.25 9.50002 18.25C11.1667 18.25 12.683 17.1987 12.9862 15.6435C13.0654 15.237 12.8001 14.8431 12.3935 14.7639C11.987 14.6846 11.5931 14.95 11.5139 15.3565C11.3745 16.0715 10.5967 16.75 9.50002 16.75C8.40329 16.75 7.62554 16.0715 7.48616 15.3565ZM8 12.75C8 13.1642 7.66421 13.5 7.25 13.5C6.83579 13.5 6.5 13.1642 6.5 12.75C6.5 12.3358 6.83579 12 7.25 12C7.66421 12 8 12.3358 8 12.75ZM11.75 13.5C12.1642 13.5 12.5 13.1642 12.5 12.75C12.5 12.3358 12.1642 12 11.75 12C11.3358 12 11 12.3358 11 12.75C11 13.1642 11.3358 13.5 11.75 13.5ZM13 7.75C13 8.16421 12.6642 8.5 12.25 8.5C11.8358 8.5 11.5 8.16421 11.5 7.75C11.5 7.33579 11.8358 7 12.25 7C12.6642 7 13 7.33579 13 7.75ZM16.75 8.5C17.1642 8.5 17.5 8.16421 17.5 7.75C17.5 7.33579 17.1642 7 16.75 7C16.3358 7 16 7.33579 16 7.75C16 8.16421 16.3358 8.5 16.75 8.5Z" fill="#3C3C3C"/>
</svg>
