<svg width="24" height="24" viewBox="0 0 24 24" fill="none" xmlns="http://www.w3.org/2000/svg">
<path fill-rule="evenodd" clip-rule="evenodd" d="M10.3156 6.1858C10.3156 5.25827 11.0675 4.50635 11.9951 4.50635C12.9226 4.50635 13.6745 5.25827 13.6745 6.1858C13.6745 7.11334 12.9226 7.86526 11.9951 7.86526C11.0675 7.86526 10.3156 7.11334 10.3156 6.1858ZM11.9951 3.00635C10.2391 3.00635 8.81561 4.42984 8.81561 6.1858C8.81561 7.94177 10.2391 9.36526 11.9951 9.36526C13.751 9.36526 15.1745 7.94177 15.1745 6.1858C15.1745 4.42984 13.751 3.00635 11.9951 3.00635ZM7.15248 18.1931C6.7926 18.1931 6.50085 18.4849 6.50085 18.8447C6.50085 19.2046 6.7926 19.4964 7.15248 19.4964C7.51236 19.4964 7.8041 19.2046 7.8041 18.8447C7.8041 18.4849 7.51236 18.1931 7.15248 18.1931ZM5.00085 18.8447C5.00085 17.6564 5.96417 16.6931 7.15248 16.6931C8.34078 16.6931 9.3041 17.6564 9.3041 18.8447C9.3041 20.033 8.34078 20.9964 7.15248 20.9964C5.96417 20.9964 5.00085 20.033 5.00085 18.8447ZM11.9982 18.1931C11.6383 18.1931 11.3466 18.4849 11.3466 18.8447C11.3466 19.2046 11.6383 19.4964 11.9982 19.4964C12.3581 19.4964 12.6498 19.2046 12.6498 18.8447C12.6498 18.4849 12.3581 18.1931 11.9982 18.1931ZM9.84656 18.8447C9.84656 17.6564 10.8099 16.6931 11.9982 16.6931C13.1865 16.6931 14.1498 17.6564 14.1498 18.8447C14.1498 20.033 13.1865 20.9964 11.9982 20.9964C10.8099 20.9964 9.84656 20.033 9.84656 18.8447ZM16.8483 18.1931C16.4884 18.1931 16.1967 18.4849 16.1967 18.8447C16.1967 19.2046 16.4884 19.4964 16.8483 19.4964C17.2082 19.4964 17.4999 19.2046 17.4999 18.8447C17.4999 18.4849 17.2082 18.1931 16.8483 18.1931ZM14.6967 18.8447C14.6967 17.6564 15.66 16.6931 16.8483 16.6931C18.0366 16.6931 18.9999 17.6564 18.9999 18.8447C18.9999 20.033 18.0366 20.9964 16.8483 20.9964C15.66 20.9964 14.6967 20.033 14.6967 18.8447ZM9.74597 11.0039C7.95105 11.0039 6.49597 12.459 6.49597 14.2539V15.2656C6.49597 15.6798 6.83176 16.0156 7.24597 16.0156C7.66019 16.0156 7.99597 15.6798 7.99597 15.2656V14.2539C7.99597 13.2874 8.77947 12.5039 9.74597 12.5039H14.2633C15.2298 12.5039 16.0133 13.2874 16.0133 14.2539V15.2656C16.0133 15.6798 16.3491 16.0156 16.7633 16.0156C17.1775 16.0156 17.5133 15.6798 17.5133 15.2656V14.2539C17.5133 12.459 16.0582 11.0039 14.2633 11.0039H9.74597Z" fill="#3C3C3C"/>
</svg>
