<svg width="24" height="24" viewBox="0 0 24 24" fill="none" xmlns="http://www.w3.org/2000/svg">
<path fill-rule="evenodd" clip-rule="evenodd" d="M12.0107 4.50952C7.86452 4.50952 4.50342 7.87063 4.50342 12.0168C4.50342 14.0679 5.32601 15.9269 6.6593 17.2819C7.26631 15.918 8.27207 14.7931 9.52355 14.1306C8.66456 13.4315 8.11584 12.3658 8.11584 11.1719C8.11584 9.066 9.82298 7.35887 11.9288 7.35887C14.0347 7.35887 15.7418 9.066 15.7418 11.1719C15.7418 12.3436 15.2133 13.3918 14.3817 14.0913C14.6483 14.2259 14.9117 14.3811 15.1671 14.5549C15.5096 14.7879 15.5983 15.2544 15.3652 15.5969C15.1322 15.9393 14.6657 16.028 14.3232 15.795C13.5079 15.2402 12.6829 14.9848 12.1106 14.9848C10.2563 14.9848 8.58456 16.2962 7.87248 18.2815C9.0589 19.0667 10.4814 19.524 12.0107 19.524C12.4249 19.524 12.7607 19.8598 12.7607 20.274C12.7607 20.6882 12.4249 21.024 12.0107 21.024C7.0361 21.024 3.00342 16.9913 3.00342 12.0168C3.00342 7.0422 7.0361 3.00952 12.0107 3.00952C16.9852 3.00952 21.0179 7.0422 21.0179 12.0168C21.0179 12.431 20.6821 12.7668 20.2679 12.7668C19.8537 12.7668 19.5179 12.431 19.5179 12.0168C19.5179 7.87063 16.1568 4.50952 12.0107 4.50952ZM11.9288 8.85887C10.6514 8.85887 9.61584 9.89443 9.61584 11.1719C9.61584 12.4493 10.6514 13.4848 11.9288 13.4848C13.2063 13.4848 14.2418 12.4493 14.2418 11.1719C14.2418 9.89443 13.2063 8.85887 11.9288 8.85887Z" fill="#3C3C3C"/>
<path d="M21.153 15.841C21.4459 16.1339 21.4459 16.6088 21.153 16.9017L19.562 18.4927L21.153 20.0837C21.4459 20.3766 21.4459 20.8515 21.153 21.1444C20.8601 21.4372 20.3852 21.4372 20.0923 21.1444L18.5013 19.5534L16.9103 21.1443C16.6174 21.4372 16.1426 21.4372 15.8497 21.1443C15.5568 20.8514 15.5568 20.3765 15.8497 20.0837L17.4406 18.4927L15.8497 16.9017C15.5568 16.6088 15.5568 16.1339 15.8497 15.8411C16.1426 15.5482 16.6174 15.5482 16.9103 15.8411L18.5013 17.432L20.0923 15.841C20.3852 15.5481 20.8601 15.5481 21.153 15.841Z" fill="#3C3C3C"/>
</svg>
