<svg width="24" height="24" viewBox="0 0 24 24" fill="none" xmlns="http://www.w3.org/2000/svg">
<path fill-rule="evenodd" clip-rule="evenodd" d="M4.34387 4.99976C3.51544 4.99976 2.84387 5.67133 2.84387 6.49976V14.4998C2.84387 15.3282 3.51544 15.9998 4.34387 15.9998L18.3081 15.9998L16.4412 17.6946C16.1345 17.973 16.1116 18.4473 16.39 18.754C16.6684 19.0607 17.1427 19.0836 17.4494 18.8052L20.4822 16.0519C20.9558 15.622 20.9558 14.8776 20.4822 14.4477L17.4494 11.6945C17.1427 11.416 16.6684 11.439 16.39 11.7456C16.1116 12.0523 16.1345 12.5266 16.4412 12.8051L18.3079 14.4998L4.34387 14.4998L4.34387 6.49976L11.8609 6.49976C12.2751 6.49976 12.6109 6.16397 12.6109 5.74975C12.6109 5.33554 12.2751 4.99976 11.8609 4.99976H4.34387Z" fill="#3C3C3C"/>
</svg>
