<svg width="24" height="24" viewBox="0 0 24 24" fill="none" xmlns="http://www.w3.org/2000/svg">
<path fill-rule="evenodd" clip-rule="evenodd" d="M11.25 16V10H12.75V16H11.25Z" fill="#3C3C3C"/>
<path fill-rule="evenodd" clip-rule="evenodd" d="M7 5V9H17V5H7ZM6 3C5.44772 3 5 3.44772 5 4V10C5 10.5523 5.44772 11 6 11H18C18.5523 11 19 10.5523 19 10V4C19 3.44772 18.5523 3 18 3H6Z" fill="#3C3C3C"/>
<path d="M5 16C5 15.4477 5.44772 15 6 15H18C18.5523 15 19 15.4477 19 16V20C19 20.5523 18.5523 21 18 21H6C5.44772 21 5 20.5523 5 20V16Z" fill="#3C3C3C"/>
</svg>
