<svg width="24" height="24" viewBox="0 0 24 24" fill="none" xmlns="http://www.w3.org/2000/svg">
<path fill-rule="evenodd" clip-rule="evenodd" d="M12 7.5C12.2855 7.5 12.5463 7.66207 12.6726 7.91808L13.6737 9.94646L15.9121 10.2717C16.1946 10.3128 16.4293 10.5107 16.5176 10.7822C16.6058 11.0537 16.5322 11.3517 16.3278 11.551L14.708 13.1299L15.0904 15.3593C15.1387 15.6407 15.023 15.925 14.792 16.0928C14.5611 16.2606 14.2549 16.2828 14.0022 16.1499L12 15.0973L9.99791 16.1499C9.74522 16.2828 9.43903 16.2606 9.20807 16.0928C8.97711 15.925 8.86144 15.6407 8.9097 15.3593L9.29208 13.1299L7.67231 11.551C7.46788 11.3517 7.39431 11.0537 7.48253 10.7822C7.57075 10.5107 7.80546 10.3128 8.08797 10.2717L10.3264 9.94646L11.3275 7.91808C11.4538 7.66207 11.7146 7.5 12 7.5ZM12 9.94466L11.497 10.9639C11.3878 11.1852 11.1766 11.3387 10.9323 11.3742L9.80754 11.5376L10.6214 12.331C10.7982 12.5033 10.8789 12.7515 10.8371 12.9948L10.645 14.1151L11.651 13.5862C11.8695 13.4713 12.1306 13.4713 12.3491 13.5862L13.3551 14.1151L13.163 12.9948C13.1212 12.7515 13.2019 12.5033 13.3787 12.331L14.1926 11.5376L13.0678 11.3742C12.8235 11.3387 12.6123 11.1852 12.5031 10.9639L12 9.94466Z" fill="#3C3C3C"/>
<path fill-rule="evenodd" clip-rule="evenodd" d="M8.5 3.75C8.5 3.33579 8.16421 3 7.75 3C7.33579 3 7 3.33579 7 3.75V4H5.5C4.67157 4 4 4.67157 4 5.5V18.5C4 19.3284 4.67157 20 5.5 20H18.5C19.3284 20 20 19.3284 20 18.5V5.5C20 4.67157 19.3284 4 18.5 4H17V3.75C17 3.33579 16.6642 3 16.25 3C15.8358 3 15.5 3.33579 15.5 3.75V4H8.5V3.75ZM7 5.5V6.25C7 6.66421 7.33579 7 7.75 7C8.16421 7 8.5 6.66421 8.5 6.25V5.5H15.5V6.25C15.5 6.66421 15.8358 7 16.25 7C16.6642 7 17 6.66421 17 6.25V5.5H18.5V18.5H5.5V5.5H7Z" fill="#3C3C3C"/>
</svg>
