<svg width="24" height="24" viewBox="0 0 24 24" fill="none" xmlns="http://www.w3.org/2000/svg">
<path fill-rule="evenodd" clip-rule="evenodd" d="M6.75415 5.50397H7.78194L7.78114 5.63186C7.7799 5.83158 7.85837 6.02354 7.99915 6.16521C8.13993 6.30687 8.33141 6.38653 8.53113 6.38653H15.4615C15.8739 6.38653 16.2089 6.05358 16.2115 5.6412L16.2123 5.50397H17.2501C17.3882 5.50397 17.5001 5.6159 17.5001 5.75397V19.2452C17.5001 19.3832 17.3882 19.4952 17.2501 19.4952H6.75415C6.61608 19.4952 6.50415 19.3832 6.50415 19.2452V5.75397C6.50415 5.6159 6.61608 5.50397 6.75415 5.50397ZM17.2501 4.00397H16.2019C16.0792 3.15808 15.351 2.50734 14.4701 2.50734H9.53973C8.65979 2.50734 7.9308 3.157 7.80795 4.00397H6.75415C5.78765 4.00397 5.00415 4.78747 5.00415 5.75397V19.2452C5.00415 20.2117 5.78765 20.9952 6.75415 20.9952H17.2501C18.2166 20.9952 19.0001 20.2117 19.0001 19.2452V5.75397C19.0001 4.78747 18.2166 4.00397 17.2501 4.00397ZM9.53973 4.00734C9.40227 4.00734 9.29059 4.11832 9.28973 4.25578L9.28581 4.88653H14.7162L14.7201 4.25889C14.7209 4.12022 14.6087 4.00734 14.4701 4.00734H9.53973ZM12.7231 8.31068C12.5968 8.05468 12.3361 7.8926 12.0506 7.8926C11.7651 7.8926 11.5044 8.05468 11.378 8.31068L10.419 10.2539L8.27456 10.5655C7.99204 10.6065 7.75733 10.8044 7.66911 11.0759C7.5809 11.3474 7.65447 11.6455 7.8589 11.8448L9.41064 13.3573L9.04432 15.4931C8.99606 15.7745 9.11173 16.0589 9.34269 16.2267C9.57365 16.3945 9.87985 16.4166 10.1325 16.2838L12.0506 15.2754L13.9687 16.2838C14.2213 16.4166 14.5275 16.3945 14.7585 16.2267C14.9895 16.0589 15.1051 15.7745 15.0569 15.4931L14.6905 13.3573L16.2423 11.8448C16.4467 11.6455 16.5203 11.3474 16.4321 11.0759C16.3439 10.8044 16.1091 10.6065 15.8266 10.5655L13.6822 10.2539L12.7231 8.31068ZM11.5896 11.2713L12.0506 10.3373L12.5116 11.2713C12.6208 11.4927 12.832 11.6461 13.0763 11.6816L14.1071 11.8314L13.3612 12.5584C13.1844 12.7307 13.1038 12.979 13.1455 13.2223L13.3216 14.2489L12.3996 13.7642C12.1811 13.6493 11.9201 13.6493 11.7016 13.7642L10.7796 14.2489L10.9557 13.2223C10.9974 12.979 10.9168 12.7307 10.74 12.5584L9.99413 11.8314L11.0249 11.6816C11.2692 11.6461 11.4804 11.4927 11.5896 11.2713Z" fill="#3C3C3C"/>
</svg>
