<svg width="24" height="24" viewBox="0 0 24 24" fill="none" xmlns="http://www.w3.org/2000/svg">
<path fill-rule="evenodd" clip-rule="evenodd" d="M4.5186 11.4676L5.21967 10.7665C5.51256 10.4737 5.98744 10.4737 6.28033 10.7665C6.57322 11.0594 6.57322 11.5343 6.28033 11.8272L4.28033 13.8272C3.98744 14.1201 3.51256 14.1201 3.21967 13.8272L1.21967 11.8272C0.926777 11.5343 0.926777 11.0594 1.21967 10.7665C1.51256 10.4737 1.98744 10.4737 2.28033 10.7665L3.01366 11.4999C3.27316 6.76194 7.19726 3 12 3C16.9706 3 21 7.02944 21 12C21 16.9706 16.9706 21 12 21C11.5858 21 11.25 20.6642 11.25 20.25C11.25 19.8358 11.5858 19.5 12 19.5C16.1421 19.5 19.5 16.1421 19.5 12C19.5 7.85786 16.1421 4.5 12 4.5C8.03686 4.5 4.79168 7.57392 4.5186 11.4676Z" fill="#3C3C3C"/>
</svg>
