<svg width="24" height="24" viewBox="0 0 24 24" fill="none" xmlns="http://www.w3.org/2000/svg">
<path fill-rule="evenodd" clip-rule="evenodd" d="M15.6669 7.05848C14.2956 7.28886 12.8248 7.80759 11.9117 8.72078C11.2828 9.34964 10.6038 10.2691 10.0684 11.0583C9.83636 11.4004 9.63623 11.7106 9.48487 11.9509L12.7845 15.2505C13.044 15.1123 13.3891 14.9224 13.7698 14.6967C14.5997 14.2046 15.5427 13.575 16.1543 12.9634C17.0554 12.0624 17.5372 10.5653 17.7273 9.14716C17.8203 8.45389 17.8381 7.81927 17.8131 7.34808C17.8044 7.18513 17.791 7.04888 17.7756 6.94111C17.6765 6.93026 17.5527 6.92194 17.4052 6.91854C16.952 6.90811 16.3395 6.9455 15.6669 7.05848ZM17.7298 6.71717L17.7309 6.72034C17.7273 6.71204 17.7272 6.71022 17.7298 6.71717ZM11.9391 16.5264L12.2941 20.0418C12.3232 20.33 12.5157 20.5757 12.7885 20.673C13.0614 20.7702 13.3658 20.7016 13.5706 20.4968L16.2697 17.7978C16.5727 17.4948 16.7316 17.0767 16.7065 16.649L16.5852 14.5879C16.8103 14.4045 17.0233 14.2157 17.215 14.0241C18.4653 12.7737 19.0088 10.8767 19.214 9.34653C19.3188 8.56564 19.3412 7.83753 19.3109 7.26847C19.2959 6.98555 19.2671 6.72668 19.2236 6.51272C19.202 6.40653 19.1736 6.29583 19.1349 6.19205C19.103 6.10681 19.0355 5.94509 18.8972 5.80682C18.7567 5.66638 18.5931 5.59945 18.5048 5.56773C18.3991 5.5298 18.2877 5.50367 18.1823 5.48466C17.9699 5.44637 17.7154 5.42528 17.4397 5.41894C16.8847 5.40616 16.1773 5.45174 15.4184 5.57921C13.927 5.82975 12.0892 6.42191 10.851 7.66012C10.658 7.85315 10.4642 8.0658 10.2735 8.28907L8.226 8.16863C7.79828 8.14347 7.38022 8.30242 7.07726 8.60538L4.3782 11.3044C4.17338 11.5093 4.10481 11.8137 4.20206 12.0866C4.29931 12.3594 4.54498 12.5519 4.83318 12.581L8.34866 12.936L11.9391 16.5264ZM13.4535 16.5937L13.6277 18.3184L15.209 16.7371L15.143 15.6138C14.9329 15.7474 14.728 15.8724 14.5348 15.9869C14.1125 16.2373 13.7325 16.4457 13.4535 16.5937ZM8.13792 9.66604L9.16629 9.72653C9.0468 9.89529 8.93322 10.0597 8.82705 10.2162C8.55012 10.6245 8.31695 10.9889 8.15283 11.2515C8.11933 11.3051 8.08867 11.3545 8.06107 11.3993L6.55659 11.2474L8.13792 9.66604ZM13.6794 11.1957C13.8747 11.3909 14.1913 11.3909 14.3865 11.1957C14.5818 11.0004 14.5818 10.6838 14.3865 10.4886C14.1913 10.2933 13.8747 10.2933 13.6794 10.4886C13.4842 10.6838 13.4842 11.0004 13.6794 11.1957ZM12.6188 12.2563C13.3998 13.0374 14.6661 13.0374 15.4472 12.2563C16.2282 11.4753 16.2282 10.2089 15.4472 9.42789C14.6661 8.64684 13.3998 8.64684 12.6188 9.42789C11.8377 10.2089 11.8377 11.4753 12.6188 12.2563ZM8.31768 17.2645C8.31684 17.2653 8.30832 17.2734 8.28953 17.2878C8.2685 17.304 8.23858 17.325 8.19835 17.3501C8.11657 17.4012 8.00798 17.459 7.87316 17.5195C7.63763 17.6252 7.36022 17.7217 7.07706 17.798C7.15337 17.5149 7.24992 17.2375 7.35557 17.0019C7.41604 16.8671 7.47392 16.7585 7.52495 16.6767C7.55006 16.6365 7.57113 16.6066 7.58727 16.5856C7.60168 16.5668 7.60974 16.5583 7.61057 16.5574L7.6105 16.5575C7.91276 16.2552 8.26599 16.3344 8.40332 16.4718C8.54065 16.6091 8.61987 16.9623 8.31761 17.2646L8.31768 17.2645ZM9.37827 18.3252C8.54988 19.1536 5.95176 19.7314 5.5477 19.3274C5.14364 18.9233 5.72146 16.3252 6.54984 15.4968C7.37823 14.6684 8.68293 14.6301 9.46398 15.4111C10.245 16.1922 10.2067 17.4969 9.37827 18.3252Z" fill="#3C3C3C"/>
</svg>
