<svg width="24" height="24" viewBox="0 0 24 24" fill="none" xmlns="http://www.w3.org/2000/svg">
<path fill-rule="evenodd" clip-rule="evenodd" d="M4 6.64288C4 5.81446 4.67157 5.14288 5.5 5.14288H18.5C19.3284 5.14288 20 5.81446 20 6.64288V17.3572C20 18.1856 19.3284 18.8572 18.5 18.8572H5.5C4.67157 18.8572 4 18.1856 4 17.3572V6.64288ZM5.5 6.64288H18.5V17.3572L5.5 17.3572V6.64288Z" fill="#3C3C3C"/>
<path d="M12.8742 8.73803C12.386 8.24987 11.5946 8.24987 11.1064 8.73803L8.6237 11.2207C8.33081 11.5136 8.33081 11.9885 8.6237 12.2814C8.91659 12.5743 9.39147 12.5743 9.68436 12.2814L11.9903 9.97547L14.2962 12.2814C14.5891 12.5743 15.064 12.5743 15.3569 12.2814C15.6498 11.9885 15.6498 11.5136 15.3569 11.2207L12.8742 8.73803Z" fill="#3C3C3C"/>
<path fill-rule="evenodd" clip-rule="evenodd" d="M11.2403 14.8744V9.12577C11.2403 8.71155 11.5761 8.37577 11.9903 8.37577C12.4045 8.37577 12.7403 8.71155 12.7403 9.12577V14.8744C12.7403 15.2886 12.4045 15.6244 11.9903 15.6244C11.5761 15.6244 11.2403 15.2886 11.2403 14.8744Z" fill="#3C3C3C"/>
</svg>
