<svg width="24" height="24" viewBox="0 0 24 24" fill="none" xmlns="http://www.w3.org/2000/svg">
<path fill-rule="evenodd" clip-rule="evenodd" d="M5.49744 10.3451C5.49744 7.66786 7.66774 5.49756 10.3449 5.49756C13.0222 5.49756 15.1925 7.66786 15.1925 10.3451C15.1925 13.0223 13.0222 15.1926 10.3449 15.1926C7.66774 15.1926 5.49744 13.0223 5.49744 10.3451ZM10.3449 3.99756C6.83931 3.99756 3.99744 6.83944 3.99744 10.3451C3.99744 13.8507 6.83931 16.6926 10.3449 16.6926C11.8276 16.6926 13.1916 16.1842 14.272 15.3323C14.2727 15.333 14.2733 15.3336 14.274 15.3343L18.7151 19.7754C19.008 20.0683 19.4829 20.0683 19.7758 19.7754C20.0687 19.4825 20.0687 19.0076 19.7758 18.7147L15.3347 14.2736C15.334 14.2729 15.3333 14.2723 15.3326 14.2716C16.1843 13.1912 16.6925 11.8275 16.6925 10.3451C16.6925 6.83944 13.8506 3.99756 10.3449 3.99756Z" fill="#3C3C3C"/>
</svg>
