<svg width="24" height="24" viewBox="0 0 24 24" fill="none" xmlns="http://www.w3.org/2000/svg">
<path fill-rule="evenodd" clip-rule="evenodd" d="M3 6.50195C3 5.67353 3.67157 5.00195 4.5 5.00195H19.5C20.3284 5.00195 21 5.67353 21 6.50195V9.50195C21 10.3304 20.3284 11.002 19.5 11.002H4.5C3.67157 11.002 3 10.3304 3 9.50195V6.50195ZM19.5 6.50195L4.5 6.50195V9.50195H19.5V6.50195ZM3 14.2495C3 13.8353 3.33579 13.4995 3.75 13.4995H20.25C20.6642 13.4995 21 13.8353 21 14.2495C21 14.6637 20.6642 14.9995 20.25 14.9995H3.75C3.33579 14.9995 3 14.6637 3 14.2495ZM3.75 17.5015C3.33579 17.5015 3 17.8373 3 18.2515C3 18.6657 3.33579 19.0015 3.75 19.0015H20.25C20.6642 19.0015 21 18.6657 21 18.2515C21 17.8373 20.6642 17.5015 20.25 17.5015H3.75Z" fill="#3C3C3C"/>
</svg>
