<svg width="24" height="24" viewBox="0 0 24 24" fill="none" xmlns="http://www.w3.org/2000/svg">
<path fill-rule="evenodd" clip-rule="evenodd" d="M5.5 5.5H18.5V18.5H5.5V5.5ZM4 5.5C4 4.67157 4.67157 4 5.5 4H18.5C19.3284 4 20 4.67157 20 5.5V18.5C20 19.3284 19.3284 20 18.5 20H5.5C4.67157 20 4 19.3284 4 18.5V5.5ZM10.8984 9.76889C10.8984 9.42719 10.9768 9.22299 11.0553 9.09857C11.1351 8.972 11.2443 8.88189 11.3735 8.81511C11.6549 8.66971 11.9662 8.66737 12 8.66737C12.4092 8.66737 12.646 8.75201 12.7795 8.8291C12.9107 8.90485 12.9828 8.99664 13.0274 9.08025C13.2221 9.44586 13.6763 9.58443 14.0419 9.38975C14.4075 9.19507 14.546 8.74086 14.3514 8.37525C14.1929 8.07769 13.9351 7.76429 13.5296 7.53014C13.1265 7.29734 12.62 7.16737 12 7.16737L11.9981 7.16737C11.9053 7.16736 11.295 7.16725 10.6849 7.48251C10.3663 7.64718 10.0351 7.90423 9.7865 8.2984C9.53655 8.69472 9.39845 9.18484 9.39845 9.76889C9.39845 10.363 9.54914 10.8585 9.81372 11.2553C10.0752 11.6475 10.4184 11.8996 10.7388 12.0598C11.0563 12.2185 11.3647 12.2941 11.5874 12.3313C11.7005 12.3501 11.7964 12.3598 11.867 12.3649C11.9024 12.3674 11.9318 12.3688 11.9542 12.3695L11.9826 12.3702L11.9927 12.3704L11.9943 12.3704L12.0001 12.3705C12.0076 12.3708 12.022 12.3714 12.0424 12.3728C12.0835 12.3758 12.1471 12.382 12.2253 12.395C12.3854 12.4217 12.5873 12.4737 12.7801 12.5701C12.97 12.665 13.1371 12.7957 13.2584 12.9776C13.3766 13.1549 13.4811 13.4249 13.4811 13.8515C13.4811 14.2881 13.3806 14.5634 13.2684 14.7412C13.1549 14.9212 13.0006 15.0469 12.8254 15.1374C12.4522 15.3302 12.0461 15.3325 12 15.3325C11.1029 15.3325 10.7946 15.014 10.6718 14.8299C10.5959 14.7159 10.556 14.5985 10.5359 14.508C10.5261 14.4637 10.5217 14.4293 10.5199 14.41C10.5193 14.4033 10.5189 14.3987 10.5188 14.3964C10.5119 13.9881 10.1788 13.6592 9.76892 13.6592C9.35471 13.6592 9.01892 13.995 9.01892 14.4092H9.76892C9.01892 14.4092 9.01892 14.4097 9.01892 14.4102L9.01892 14.4113L9.01893 14.4135L9.01897 14.4184L9.01916 14.4302C9.01935 14.4389 9.01967 14.4493 9.02021 14.4613C9.02127 14.4854 9.0232 14.516 9.02666 14.5522C9.03354 14.6245 9.04663 14.7208 9.07164 14.8334C9.12124 15.0566 9.22087 15.3576 9.42377 15.6619C9.85876 16.3144 10.666 16.8325 12 16.8325H12.0019C12.1071 16.8326 12.8122 16.8327 13.5141 16.47C13.8786 16.2816 14.2549 15.9889 14.5372 15.5414C14.8208 15.0917 14.9811 14.5304 14.9811 13.8515C14.9811 13.1625 14.8067 12.5958 14.5065 12.1456C14.2095 11.7001 13.8188 11.4124 13.4509 11.2285C13.086 11.046 12.7302 10.9585 12.4719 10.9155C12.341 10.8936 12.2302 10.8824 12.1493 10.8767C12.1087 10.8738 12.0752 10.8722 12.05 10.8713C12.0374 10.8709 12.0269 10.8707 12.0185 10.8706L12.0076 10.8704L12.0061 10.8704L12.0042 10.8704C11.9995 10.8702 11.9891 10.8698 11.9739 10.8687C11.9432 10.8665 11.8944 10.8617 11.834 10.8517C11.7095 10.8309 11.555 10.7908 11.4096 10.7181C11.2671 10.6469 11.1475 10.5518 11.0618 10.4233C10.9792 10.2994 10.8984 10.1005 10.8984 9.76889ZM12 11.5606C12 10.8704 12.0004 10.8704 12.0007 10.8704H12.0008C12.0004 10.8704 12 10.8739 12 11.6204V11.5606ZM11.9993 12.3704C11.9995 12.3704 11.9997 12.3694 11.9998 12.2255C11.9997 12.3704 11.9995 12.3704 11.9993 12.3704H11.9993Z" fill="#3C3C3C"/>
</svg>
