<svg width="24" height="24" viewBox="0 0 24 24" fill="none" xmlns="http://www.w3.org/2000/svg">
<path fill-rule="evenodd" clip-rule="evenodd" d="M10.4067 3.46726C10.5249 3.19149 10.796 3.0127 11.096 3.0127H12.9294C13.2294 3.0127 13.5006 3.19149 13.6187 3.46726L14.3815 5.24701C14.635 5.33576 14.882 5.43834 15.1215 5.55382L16.9196 4.83457C17.1982 4.72315 17.5164 4.78845 17.7285 5.0006L19.0249 6.29696C19.237 6.50911 19.3023 6.82727 19.1909 7.10583L18.4717 8.90393C18.5871 9.14345 18.6897 9.39043 18.7785 9.64394L20.5581 10.4067C20.8339 10.5248 21.0127 10.796 21.0127 11.096V12.9293C21.0127 13.2294 20.8339 13.5005 20.5581 13.6187L18.7785 14.3814C18.6898 14.635 18.5872 14.882 18.4717 15.1216L19.1909 16.9197C19.3023 17.1982 19.237 17.5164 19.0249 17.7286L17.7285 19.0249C17.5164 19.2371 17.1982 19.3024 16.9196 19.1909L15.1215 18.4717C14.882 18.5872 14.635 18.6898 14.3814 18.7785L13.6187 20.5581C13.5006 20.8339 13.2294 21.0127 12.9294 21.0127H11.096C10.796 21.0127 10.5249 20.8339 10.4067 20.5581L9.64397 18.7785C9.39045 18.6897 9.14346 18.5871 8.90393 18.4717L7.10583 19.1909C6.82727 19.3023 6.50911 19.237 6.29696 19.0249L5.0006 17.7285C4.78845 17.5164 4.72315 17.1982 4.83457 16.9196L5.55382 15.1215C5.43833 14.882 5.33575 14.635 5.247 14.3815L3.46726 13.6187C3.19149 13.5005 3.0127 13.2294 3.0127 12.9293V11.096C3.0127 10.796 3.19149 10.5248 3.46726 10.4067L5.24705 9.64389C5.3358 9.39039 5.43837 9.14344 5.55384 8.90393L4.83457 7.10576C4.72315 6.8272 4.78845 6.50903 5.0006 6.29689L6.29696 5.00052C6.50911 4.78838 6.82727 4.72307 7.10583 4.8345L8.90405 5.55378C9.14353 5.43833 9.39046 5.33578 9.64392 5.24704L10.4067 3.46726ZM11.5906 4.5127L10.8883 6.15148C10.8002 6.35698 10.625 6.51247 10.4105 6.57556C10.0221 6.68981 9.65094 6.84463 9.30185 7.03521C9.10552 7.14239 8.8716 7.15635 8.66392 7.07328L7.00792 6.41088L6.41096 7.00785L7.07334 8.66381C7.15641 8.8715 7.14245 9.10542 7.03526 9.30175C6.84466 9.65087 6.68983 10.0221 6.57557 10.4105C6.51248 10.625 6.35699 10.8002 6.15149 10.8882L4.5127 11.5906V12.4348L6.15144 13.1371C6.35695 13.2252 6.51244 13.4004 6.57553 13.6149C6.68979 14.0033 6.84463 14.3746 7.03524 14.7237C7.14243 14.92 7.15639 15.154 7.07332 15.3616L6.41096 17.0175L7.00792 17.6145L8.66381 16.9522C8.87149 16.8691 9.10542 16.883 9.30175 16.9902C9.65089 17.1809 10.0221 17.3357 10.4106 17.45C10.6251 17.513 10.8002 17.6685 10.8883 17.874L11.5906 19.5127H12.4348L13.1371 17.8741C13.2252 17.6686 13.4003 17.5131 13.6148 17.45C14.0033 17.3357 14.3746 17.1809 14.7237 16.9903C14.92 16.8831 15.1539 16.8691 15.3616 16.9522L17.0175 17.6146L17.6145 17.0176L16.9522 15.3617C16.8691 15.154 16.883 14.9201 16.9902 14.7238C17.1809 14.3746 17.3357 14.0033 17.45 13.6148C17.5131 13.4003 17.6686 13.2251 17.8741 13.1371L19.5127 12.4348V11.5906L17.874 10.8883C17.6685 10.8002 17.513 10.625 17.4499 10.4106C17.3357 10.0221 17.1808 9.65088 16.9902 9.30174C16.883 9.10542 16.8691 8.87149 16.9522 8.66381L17.6145 7.00792L17.0175 6.41096L15.3616 7.07332C15.154 7.15639 14.92 7.14243 14.7237 7.03524C14.3746 6.84463 14.0033 6.68979 13.6149 6.57554C13.4004 6.51245 13.2252 6.35696 13.1372 6.15145L12.4348 4.5127H11.5906ZM12.0127 9.64608C10.7057 9.64608 9.64608 10.7057 9.64608 12.0127C9.64608 13.3198 10.7057 14.3794 12.0127 14.3794C13.3198 14.3794 14.3794 13.3198 14.3794 12.0127C14.3794 10.7057 13.3198 9.64608 12.0127 9.64608ZM8.14608 12.0127C8.14608 9.87725 9.87725 8.14608 12.0127 8.14608C14.1483 8.14608 15.8794 9.87725 15.8794 12.0127C15.8794 14.1483 14.1483 15.8794 12.0127 15.8794C9.87725 15.8794 8.14608 14.1483 8.14608 12.0127Z" fill="#3C3C3C"/>
</svg>
