<svg width="24" height="24" viewBox="0 0 24 24" fill="none" xmlns="http://www.w3.org/2000/svg">
<path fill-rule="evenodd" clip-rule="evenodd" d="M11.0834 3C10.7834 3 10.5122 3.1788 10.3941 3.45456L9.63138 5.23416C9.37781 5.32293 9.13078 5.42553 8.8912 5.54104L7.09324 4.82185C6.81468 4.71043 6.49652 4.77573 6.28437 4.98788L4.98801 6.28424C4.77586 6.49639 4.71056 6.81455 4.82198 7.09312L5.54117 8.8911C5.4257 9.13063 5.32312 9.3776 5.23437 9.63111L3.45456 10.3939C3.1788 10.5121 3 10.7832 3 11.0832V12.9166C3 13.2166 3.1788 13.4878 3.45456 13.6059L5.23437 14.3687C5.32313 14.6222 5.42572 14.8692 5.54121 15.1088L4.82198 16.9069C4.71056 17.1854 4.77586 17.5036 4.98801 17.7158L6.28437 19.0121C6.49652 19.2243 6.81468 19.2896 7.09324 19.1781L8.8914 18.4589C9.13089 18.5743 9.37782 18.6769 9.63129 18.7656L10.3941 20.5454C10.5122 20.8212 10.7834 21 11.0834 21H12.9168C13.2168 21 13.4879 20.8212 13.6061 20.5454L14.3689 18.7656C14.6224 18.6769 14.8693 18.5743 15.1088 18.4589L16.907 19.1781C17.1855 19.2895 17.5037 19.2242 17.7158 19.0121L19.0122 17.7157C19.2244 17.5036 19.2897 17.1854 19.1782 16.9068L18.459 15.1087C18.5745 14.8692 18.6771 14.6222 18.7658 14.3687L20.5455 13.6059C20.8213 13.4878 21.0001 13.2166 21.0001 12.9166V11.0832C21.0001 10.7832 20.8213 10.5121 20.5455 10.3939L18.7658 9.63115C18.7442 9.56938 18.7218 9.508 18.6985 9.44701C18.5734 9.11889 18.2135 8.9571 17.8743 9.04817C17.4175 9.17085 17.1981 9.69002 17.3536 10.1368C17.3835 10.2229 17.4114 10.3099 17.4373 10.3978C17.5004 10.6123 17.6559 10.7874 17.8614 10.8755L19.5001 11.5778V12.422L17.8614 13.1243C17.6559 13.2124 17.5004 13.3876 17.4373 13.6021C17.323 13.9905 17.1682 14.3618 16.9776 14.7109C16.8704 14.9072 16.8564 15.1412 16.9395 15.3489L17.6019 17.0048L17.0049 17.6017L15.349 16.9394C15.1413 16.8563 14.9074 16.8702 14.711 16.9774C14.3619 17.168 13.9907 17.3229 13.6023 17.4371C13.3878 17.5002 13.2126 17.6557 13.1246 17.8612L12.4222 19.5H11.578L10.8756 17.8612C10.7876 17.6557 10.6124 17.5002 10.3979 17.4371C10.0095 17.3229 9.6383 17.168 9.2892 16.9775C9.09287 16.8703 8.85895 16.8563 8.65127 16.9394L6.99533 17.6018L6.39837 17.0048L7.06072 15.3489C7.14379 15.1412 7.12983 14.9073 7.02264 14.711C6.83201 14.3618 6.67716 13.9906 6.56289 13.6021C6.4998 13.3876 6.34431 13.2124 6.13881 13.1244L4.5 12.422V11.5778L6.13881 10.8754C6.34431 10.7874 6.4998 10.6122 6.56289 10.3977C6.67715 10.0093 6.83199 9.63805 7.0226 9.28892C7.12979 9.09259 7.14375 8.85867 7.06068 8.65098L6.39837 6.99521L6.99533 6.39824L8.65108 7.06054C8.85877 7.14361 9.0927 7.12965 9.28903 7.02246C9.6382 6.83182 10.0095 6.67696 10.398 6.56269C10.6125 6.4996 10.7876 6.34411 10.8757 6.13861L11.578 4.5H12.4222L13.1245 6.13861C13.2125 6.34411 13.3877 6.4996 13.6022 6.56269C13.6902 6.58856 13.7772 6.61652 13.8634 6.6465C14.3101 6.80197 14.8293 6.58262 14.952 6.12576C15.0431 5.78661 14.8813 5.42671 14.5532 5.30158C14.4921 5.27829 14.4307 5.25582 14.3688 5.23416L13.6061 3.45456C13.4879 3.1788 13.2168 3 12.9168 3H11.0834ZM12.0001 8.13333C9.86459 8.13333 8.13342 9.8645 8.13342 12C8.13342 14.1355 9.86459 15.8667 12.0001 15.8667C14.1356 15.8667 15.8668 14.1355 15.8668 12C15.8668 9.8645 14.1356 8.13333 12.0001 8.13333ZM9.63336 11.9998C9.63336 10.6928 10.693 9.63318 12 9.63318C13.3071 9.63318 14.3667 10.6928 14.3667 11.9998C14.3667 13.3069 13.3071 14.3665 12 14.3665C10.693 14.3665 9.63336 13.3069 9.63336 11.9998Z" fill="#3C3C3C"/>
<path d="M19 8C20.6569 8 22 6.65685 22 5C22 3.34315 20.6569 2 19 2C17.3431 2 16 3.34315 16 5C16 6.65685 17.3431 8 19 8Z" fill="#3B57FF"/>
</svg>
