<svg width="24" height="24" viewBox="0 0 24 24" fill="none" xmlns="http://www.w3.org/2000/svg">
<path fill-rule="evenodd" clip-rule="evenodd" d="M12.6931 8.45921C12.6931 10.0936 11.3681 11.4185 9.73375 11.4185C8.09935 11.4185 6.77441 10.0936 6.77441 8.45921C6.77441 6.82482 8.09935 5.49988 9.73375 5.49988C11.3681 5.49988 12.6931 6.82482 12.6931 8.45921ZM14.1931 8.45921C14.1931 10.922 12.1966 12.9185 9.73375 12.9185C7.27093 12.9185 5.27441 10.922 5.27441 8.45921C5.27441 5.99639 7.27093 3.99988 9.73375 3.99988C12.1966 3.99988 14.1931 5.99639 14.1931 8.45921ZM8 15.5542H11.4669C12.8476 15.5542 13.9669 16.6735 13.9669 18.0542V18.5H5.5V18.0542C5.5 16.6735 6.61929 15.5542 8 15.5542ZM4 18.0542C4 15.8451 5.79086 14.0542 8 14.0542H11.4669C13.676 14.0542 15.4669 15.8451 15.4669 18.0542V19.25C15.4669 19.6642 15.1311 20 14.7169 20H4.75C4.33579 20 4 19.6642 4 19.25V18.0542ZM13.6146 12.5563C14.9684 11.6957 15.8668 10.1824 15.8668 8.45927C15.8668 6.56931 14.786 4.93177 13.2089 4.13093C13.5474 4.04535 13.9018 3.99988 14.2669 3.99988C16.6433 3.99988 18.5697 5.92631 18.5697 8.30267C18.5697 10.679 16.6433 12.6055 14.2669 12.6055C14.0451 12.6055 13.8273 12.5887 13.6146 12.5563ZM19.25 20H16.7476C17.0229 19.8889 17.2172 19.6192 17.2172 19.3042V17.7372C17.2172 16.0828 16.2128 14.6629 14.7805 14.0542H16C18.2092 14.0542 20 15.8451 20 18.0542V19.25C20 19.6642 19.6642 20 19.25 20Z" fill="#3C3C3C"/>
</svg>
