<svg width="24" height="24" viewBox="0 0 24 24" fill="none" xmlns="http://www.w3.org/2000/svg">
<path fill-rule="evenodd" clip-rule="evenodd" d="M11.6505 3.08437C11.8672 2.97188 12.1251 2.97188 12.3418 3.08437L18.584 6.32545C18.8325 6.45445 18.9884 6.71111 18.9884 6.99107V11.2686C18.9884 15.7058 16.1553 19.9275 12.1876 20.9751C12.0621 21.0083 11.9302 21.0083 11.8047 20.9751C7.83705 19.9275 5.00391 15.7058 5.00391 11.2686V6.99107C5.00391 6.71111 5.15984 6.45445 5.4083 6.32545L11.6505 3.08437ZM6.50391 7.44673V10.5186H11.2462V4.98448L6.50391 7.44673ZM12.7462 4.98448V10.5186H17.4884V7.44673L12.7462 4.98448ZM17.4575 12.0186H12.7462V19.1908C15.2758 18.0561 17.1944 15.2156 17.4575 12.0186ZM11.2462 19.1908C8.71647 18.0561 6.79795 15.2156 6.53478 12.0186H11.2462V19.1908Z" fill="#3C3C3C"/>
</svg>
