<svg width="24" height="24" viewBox="0 0 24 24" fill="none" xmlns="http://www.w3.org/2000/svg">
<path fill-rule="evenodd" clip-rule="evenodd" d="M12 17.5C15.0376 17.5 17.5 15.0376 17.5 12C17.5 8.96243 15.0376 6.5 12 6.5C8.96243 6.5 6.5 8.96243 6.5 12C6.5 15.0376 8.96243 17.5 12 17.5ZM12 19C15.171 19 17.8496 16.8915 18.7101 14H20C21.1046 14 22 13.1046 22 12C22 10.8954 21.1046 10 20 10H18.7101C17.8496 7.10851 15.171 5 12 5C8.82898 5 6.15043 7.10851 5.28988 10H4C2.89543 10 2 10.8954 2 12C2 13.1046 2.89543 14 4 14H5.28988C6.15043 16.8915 8.82898 19 12 19ZM20 12.5H18.9824C18.9941 12.3348 19 12.1681 19 12C19 11.8319 18.9941 11.6652 18.9824 11.5H20C20.2761 11.5 20.5 11.7239 20.5 12C20.5 12.2761 20.2761 12.5 20 12.5ZM4 11.5H5.01758C5.00593 11.6652 5 11.8319 5 12C5 12.1681 5.00593 12.3348 5.01758 12.5H4C3.72386 12.5 3.5 12.2761 3.5 12C3.5 11.7239 3.72386 11.5 4 11.5ZM12.75 9.75C12.75 9.33579 12.4142 9 12 9C11.5858 9 11.25 9.33579 11.25 9.75V14.25C11.25 14.6642 11.5858 15 12 15C12.4142 15 12.75 14.6642 12.75 14.25V9.75ZM9.25 10C9.66421 10 10 10.3358 10 10.75V13.25C10 13.6642 9.66421 14 9.25 14C8.83579 14 8.5 13.6642 8.5 13.25V10.75C8.5 10.3358 8.83579 10 9.25 10ZM15.5 10.75C15.5 10.3358 15.1642 10 14.75 10C14.3358 10 14 10.3358 14 10.75V13.25C14 13.6642 14.3358 14 14.75 14C15.1642 14 15.5 13.6642 15.5 13.25V10.75Z" fill="#3C3C3C"/>
</svg>
