<svg width="24" height="24" viewBox="0 0 24 24" fill="none" xmlns="http://www.w3.org/2000/svg">
<path fill-rule="evenodd" clip-rule="evenodd" d="M3 5.75C3 5.33579 3.33579 5 3.75 5H20.25C20.6642 5 21 5.33579 21 5.75C21 6.16421 20.6642 6.5 20.25 6.5H3.75C3.33579 6.5 3 6.16421 3 5.75Z" fill="#3C3C3C"/>
<path fill-rule="evenodd" clip-rule="evenodd" d="M3 12C3 11.5858 3.33579 11.25 3.75 11.25H15.25C15.6642 11.25 16 11.5858 16 12C16 12.4142 15.6642 12.75 15.25 12.75H3.75C3.33579 12.75 3 12.4142 3 12Z" fill="#3C3C3C"/>
<path fill-rule="evenodd" clip-rule="evenodd" d="M3 18.2459C3 17.8317 3.33579 17.4959 3.75 17.4959H11.25C11.6642 17.4959 12 17.8317 12 18.2459C12 18.6601 11.6642 18.9959 11.25 18.9959H3.75C3.33579 18.9959 3 18.6601 3 18.2459Z" fill="#3C3C3C"/>
</svg>
