<svg width="24" height="24" viewBox="0 0 24 24" fill="none" xmlns="http://www.w3.org/2000/svg">
<path fill-rule="evenodd" clip-rule="evenodd" d="M5.50107 4.50055C5.492 4.89965 5.53557 5.50866 5.70203 6.18599C5.92278 7.08418 6.34003 8.02122 7.04954 8.72066C8.61764 10.2665 10.4143 10.3291 11.248 10.2128C11.2599 9.83432 11.222 9.24009 11.0567 8.57152C10.8414 7.70131 10.4277 6.77686 9.70477 6.06423C8.98801 5.35766 8.05373 4.93768 7.16763 4.71244C6.49691 4.54195 5.89698 4.49376 5.50107 4.50055ZM7.53717 3.25867C8.59102 3.52656 9.79464 4.04651 10.7578 4.99601C11.7359 5.96017 12.2539 7.16444 12.5128 8.21138C12.6323 8.69436 12.7004 9.15938 12.7307 9.57199C12.8853 9.37309 13.0554 9.18017 13.2422 8.99601C14.2054 8.04651 15.409 7.52656 16.4628 7.25867C17.5074 6.99315 18.4801 6.95645 19.0422 7.03943C19.5103 7.10854 19.8847 7.46977 19.9574 7.94799C20.0414 8.50101 20.0146 9.48607 19.7546 10.544C19.4926 11.61 18.9739 12.8322 18.0035 13.7889C16.1353 15.6306 13.9876 15.8426 12.75 15.7215V20.25C12.75 20.6642 12.4142 21 12 21C11.5858 21 11.25 20.6642 11.25 20.25V11.7215C10.0124 11.8426 7.86471 11.6306 5.9965 9.78888C5.02608 8.83225 4.50736 7.60998 4.24538 6.54399C3.98538 5.48607 3.95859 4.50101 4.04261 3.94799C4.11526 3.46977 4.48974 3.10854 4.95783 3.03943C5.51986 2.95645 6.49261 2.99315 7.53717 3.25867ZM12.75 14.0882C12.7501 14.1319 12.7508 14.1735 12.752 14.2128C13.5857 14.3291 15.3824 14.2665 16.9505 12.7207C17.66 12.0212 18.0772 11.0842 18.298 10.186C18.4644 9.50866 18.508 8.89964 18.4989 8.50055C18.103 8.49376 17.5031 8.54194 16.8324 8.71244C15.9463 8.93768 15.012 9.35766 14.2952 10.0642C13.5723 10.7769 13.1586 11.7013 12.9433 12.5715C12.7972 13.1623 12.7506 13.6951 12.75 14.0722C12.75 14.0775 12.75 14.0829 12.75 14.0882Z" fill="#3C3C3C"/>
</svg>
