<svg width="24" height="24" viewBox="0 0 24 24" fill="none" xmlns="http://www.w3.org/2000/svg">
<path fill-rule="evenodd" clip-rule="evenodd" d="M7.4027 11.1947C7.70938 11.4731 7.7323 11.9475 7.45388 12.2541C7.17546 12.5608 6.70114 12.5837 6.39446 12.3053L3.36163 9.55206C2.88808 9.12217 2.88808 8.37775 3.36163 7.94785L6.39446 5.19458C6.70114 4.91616 7.17546 4.93908 7.45388 5.24576C7.7323 5.55245 7.70938 6.02677 7.4027 6.30519L5.53576 8.00003L19.5 8.00003C20.3284 8.00003 21 8.6716 21 9.50003V17.5C21 18.3285 20.3284 19 19.5 19H11.983C11.5688 19 11.233 18.6642 11.233 18.25C11.233 17.8358 11.5688 17.5 11.983 17.5H19.5V9.50003L5.53593 9.50003L7.4027 11.1947Z" fill="#3C3C3C"/>
</svg>
