<svg width="24" height="24" viewBox="0 0 24 24" fill="none" xmlns="http://www.w3.org/2000/svg">
<path fill-rule="evenodd" clip-rule="evenodd" d="M10.6549 4.03079C11.2051 2.91592 12.7949 2.91593 13.3451 4.03079L15.1431 7.6739L19.1635 8.25809C20.3938 8.43687 20.8851 9.94883 19.9948 10.8166L17.0856 13.6524L17.7724 17.6566C17.9826 18.8819 16.6964 19.8164 15.596 19.2378L12 17.3473L8.40407 19.2378C7.30363 19.8164 6.01748 18.8819 6.22764 17.6566L6.91441 13.6524L4.00522 10.8166C3.11494 9.94883 3.60621 8.43687 4.83654 8.25809L8.85694 7.6739L10.6549 4.03079ZM12 4.69464L10.202 8.33774C9.98355 8.78046 9.5612 9.08731 9.07264 9.15831L5.05224 9.7425L7.96143 12.5783C8.31496 12.9229 8.47628 13.4194 8.39282 13.906L7.70606 17.9101L11.302 16.0196C11.739 15.7899 12.261 15.7899 12.698 16.0196L16.294 17.9101L15.6072 13.906C15.5238 13.4194 15.6851 12.9229 16.0386 12.5783L18.9478 9.7425L14.9274 9.15831C14.4388 9.08731 14.0165 8.78046 13.798 8.33774L12 4.69464Z" fill="#3C3C3C"/>
</svg>
