<svg width="24" height="24" viewBox="0 0 24 24" fill="none" xmlns="http://www.w3.org/2000/svg">
<path fill-rule="evenodd" clip-rule="evenodd" d="M12.1378 4.5022C9.75403 4.5022 8.03673 6.12235 8.03673 7.87613C8.03673 9.61478 9.72451 11.2221 12.0762 11.2497L18.2501 11.2499C18.6643 11.2499 19.0001 11.5857 19.0001 11.9999C19.0001 12.4141 18.6643 12.7499 18.2501 12.7499L15.9079 12.7498C16.8613 13.6094 17.4629 14.7831 17.4629 16.1239C17.4629 18.9253 14.8364 20.9978 11.8618 20.9978C10.4061 20.9978 9.05063 20.5106 8.03676 19.6877V20.2478C8.03676 20.662 7.70098 20.9978 7.28676 20.9978C6.87255 20.9978 6.53676 20.662 6.53676 20.2478L6.53676 17.4985C6.53676 17.1409 6.78925 16.833 7.13995 16.763C7.49065 16.693 7.84199 16.8804 7.97929 17.2106C8.51123 18.49 10.0037 19.4978 11.8618 19.4978C14.2456 19.4978 15.9629 17.8777 15.9629 16.1239C15.9629 14.3701 14.2456 12.7499 11.8618 12.7499C11.8556 12.7499 11.8494 12.7499 11.8433 12.7497L5.75062 12.7495C5.33641 12.7495 5.00063 12.4137 5.00064 11.9995C5.00065 11.5853 5.33645 11.2495 5.75066 11.2495L8.09114 11.2496C7.13807 10.3901 6.53673 9.21655 6.53673 7.87613C6.53673 5.07475 9.16325 3.0022 12.1378 3.0022C13.5936 3.0022 14.949 3.4894 15.9629 4.31234V3.7522C15.9629 3.33798 16.2987 3.0022 16.7129 3.0022C17.1271 3.0022 17.4629 3.33798 17.4629 3.7522V6.50149C17.4629 6.85911 17.2104 7.16698 16.8597 7.23698C16.509 7.30698 16.1576 7.11964 16.0203 6.78942C15.4884 5.51 13.9959 4.5022 12.1378 4.5022Z" fill="#3C3C3C"/>
</svg>
