<svg width="24" height="24" viewBox="0 0 24 24" fill="none" xmlns="http://www.w3.org/2000/svg">
<path d="M16.5303 4.21967C16.2374 3.92678 15.7626 3.92678 15.4697 4.21967C15.1768 4.51256 15.1768 4.98744 15.4697 5.28033L17.4393 7.25L4.75 7.25C4.33579 7.25 4 7.58579 4 8C4 8.41421 4.33579 8.75 4.75 8.75L17.4393 8.75L15.4697 10.7197C15.1768 11.0126 15.1768 11.4874 15.4697 11.7803C15.7626 12.0732 16.2374 12.0732 16.5303 11.7803L19.7803 8.53033C20.0732 8.23744 20.0732 7.76256 19.7803 7.46967L16.5303 4.21967Z" fill="#3C3C3C"/>
<path d="M8.53033 13.2803C8.82322 12.9874 8.82322 12.5126 8.53033 12.2197C8.23744 11.9268 7.76256 11.9268 7.46967 12.2197L4.21967 15.4697C3.92678 15.7626 3.92678 16.2374 4.21967 16.5303L7.46967 19.7803C7.76256 20.0732 8.23744 20.0732 8.53033 19.7803C8.82322 19.4874 8.82322 19.0126 8.53033 18.7197L6.56066 16.75L19.25 16.75C19.6642 16.75 20 16.4142 20 16C20 15.5858 19.6642 15.25 19.25 15.25L6.56066 15.25L8.53033 13.2803Z" fill="#3C3C3C"/>
</svg>
