<svg width="24" height="24" viewBox="0 0 24 24" fill="none" xmlns="http://www.w3.org/2000/svg">
<path fill-rule="evenodd" clip-rule="evenodd" d="M19.9689 5.37433C19.8979 4.66395 19.336 4.10207 18.6256 4.03103L12.9186 3.46033C12.471 3.41557 12.0268 3.5741 11.7087 3.89223L4.48487 11.1161C3.89909 11.7018 3.89909 12.6516 4.48487 13.2374L10.7626 19.5151C11.3484 20.1009 12.2981 20.1009 12.8839 19.5151L20.1077 12.2912C20.4258 11.9731 20.5844 11.529 20.5396 11.0813L19.9689 5.37433ZM18.4764 5.52359L19.0471 11.2306L11.8232 18.4544L5.54553 12.1767L12.7694 4.95289L18.4764 5.52359ZM15.0147 9.02341C15.4052 9.41394 16.0384 9.41394 16.4289 9.02341C16.8194 8.63289 16.8194 7.99972 16.4289 7.6092C16.0384 7.21868 15.4052 7.21868 15.0147 7.6092C14.6241 7.99972 14.6241 8.63289 15.0147 9.02341Z" fill="#3C3C3C"/>
</svg>
