<svg width="24" height="24" viewBox="0 0 24 24" fill="none" xmlns="http://www.w3.org/2000/svg">
<path fill-rule="evenodd" clip-rule="evenodd" d="M6.60513 7.44125C6.60513 6.37172 7.478 5.49774 8.56333 5.49774C9.64866 5.49774 10.5215 6.37172 10.5215 7.44125C10.5215 8.51079 9.64866 9.38477 8.56333 9.38477C7.478 9.38477 6.60513 8.51079 6.60513 7.44125ZM8.56333 3.99774C6.65727 3.99774 5.10513 5.53561 5.10513 7.44125C5.10513 9.34689 6.65727 10.8848 8.56333 10.8848C10.4694 10.8848 12.0215 9.34689 12.0215 7.44125C12.0215 5.53561 10.4694 3.99774 8.56333 3.99774ZM7 14.0974H10.1141C10.84 14.0974 11.4936 14.4068 11.9504 14.9008C11.9998 15.0652 12.1055 15.2131 12.2595 15.3131C12.4847 15.6884 12.6141 16.1278 12.6141 16.5974V17.4974H11.2358C11.2147 17.4974 11.1937 17.4983 11.173 17.5H4.5V16.5974C4.5 15.2167 5.61929 14.0974 7 14.0974ZM10.1141 12.5974C11.1138 12.5974 12.0278 12.9641 12.729 13.5703C12.9701 13.429 13.2279 13.3542 13.4904 13.312C13.9229 13.2425 14.5007 13.248 15.2182 13.2549L15.2184 13.2549C15.3869 13.2565 15.563 13.2582 15.7468 13.259H16.7545C19.1017 13.259 21.0045 15.1618 21.0045 17.509V17.7474C21.0045 18.4378 20.4449 18.9974 19.7545 18.9974H13.427C13.4063 18.9991 13.3853 19 13.3641 19H4C3.44772 19 3 18.5523 3 18V16.5974C3 14.3883 4.79086 12.5974 7 12.5974H10.1141ZM14.1141 16.5974C14.1141 15.951 13.9608 15.3404 13.6885 14.7999C13.7011 14.7976 13.7144 14.7952 13.7285 14.793C14.0242 14.7454 14.4303 14.7489 15.1262 14.7547H15.1262H15.1262L15.1307 14.7548C15.3134 14.7563 15.5161 14.758 15.7419 14.759H16.7545C18.2694 14.759 19.4982 15.984 19.5045 17.4974H14.1141V16.5974ZM14.2253 9.27019C14.2253 8.43445 14.9076 7.75 15.7579 7.75C16.6082 7.75 17.2905 8.43445 17.2905 9.27019C17.2905 10.1059 16.6082 10.7904 15.7579 10.7904C14.9076 10.7904 14.2253 10.1059 14.2253 9.27019ZM15.7579 6.25C14.0869 6.25 12.7253 7.59834 12.7253 9.27019C12.7253 10.942 14.0869 12.2904 15.7579 12.2904C17.4289 12.2904 18.7905 10.942 18.7905 9.27019C18.7905 7.59834 17.4289 6.25 15.7579 6.25Z" fill="#3C3C3C"/>
</svg>
