<svg width="24" height="24" viewBox="0 0 24 24" fill="none" xmlns="http://www.w3.org/2000/svg">
<path d="M3.75 4.5C3.33579 4.5 3 4.83579 3 5.25C3 5.66421 3.33579 6 3.75 6H5.5L5.5 9.75C5.5 10.1642 5.83579 10.5 6.25 10.5C6.66421 10.5 7 10.1642 7 9.75L7 6H8.75C9.16421 6 9.5 5.66421 9.5 5.25C9.5 4.83579 9.16421 4.5 8.75 4.5H3.75Z" fill="#3C3C3C"/>
<path d="M12.25 4.5C11.8358 4.5 11.5 4.83579 11.5 5.25C11.5 5.66421 11.8358 6 12.25 6H20.25C20.6642 6 21 5.66421 21 5.25C21 4.83579 20.6642 4.5 20.25 4.5H12.25Z" fill="#3C3C3C"/>
<path d="M12.25 9C11.8358 9 11.5 9.33579 11.5 9.75C11.5 10.1642 11.8358 10.5 12.25 10.5H20.25C20.6642 10.5 21 10.1642 21 9.75C21 9.33579 20.6642 9 20.25 9H12.25Z" fill="#3C3C3C"/>
<path d="M3 14.25C3 13.8358 3.33579 13.5 3.75 13.5H20.25C20.6642 13.5 21 13.8358 21 14.25C21 14.6642 20.6642 15 20.25 15H3.75C3.33579 15 3 14.6642 3 14.25Z" fill="#3C3C3C"/>
<path d="M3.75 18C3.33579 18 3 18.3358 3 18.75C3 19.1642 3.33579 19.5 3.75 19.5H12C12.4142 19.5 12.75 19.1642 12.75 18.75C12.75 18.3358 12.4142 18 12 18H3.75Z" fill="#3C3C3C"/>
</svg>
