<svg width="24" height="24" viewBox="0 0 24 24" fill="none" xmlns="http://www.w3.org/2000/svg">
<path fill-rule="evenodd" clip-rule="evenodd" d="M19.5 12C19.5 16.1421 16.1421 19.5 12 19.5C7.85786 19.5 4.5 16.1421 4.5 12C4.5 7.85786 7.85786 4.5 12 4.5C16.1421 4.5 19.5 7.85786 19.5 12ZM21 12C21 16.9706 16.9706 21 12 21C7.02944 21 3 16.9706 3 12C3 7.02944 7.02944 3 12 3C16.9706 3 21 7.02944 21 12ZM9.25 8.5L12.9769 8.5L11.4618 10.061C11.252 10.2772 11.1919 10.598 11.3093 10.8755C11.4261 11.1517 11.696 11.3316 11.9956 11.3333L12.0051 11.3336C12.0162 11.334 12.0359 11.3348 12.0631 11.3368C12.1178 11.3409 12.2009 11.3493 12.3028 11.3668C12.5099 11.4024 12.7751 11.4721 13.0315 11.6042C13.2846 11.7346 13.5182 11.9196 13.6906 12.1861C13.8608 12.449 14 12.8351 14 13.4167C14 14.008 13.8671 14.3994 13.7057 14.6631C13.5436 14.928 13.3256 15.108 13.0894 15.2338C12.5936 15.4978 12.0615 15.5 12 15.5C10.8532 15.5 10.4153 15.0766 10.2234 14.7801C10.1128 14.609 10.0552 14.4338 10.0261 14.2989C10.0118 14.2325 10.0052 14.1796 10.0022 14.1473C10.0007 14.1312 10.0001 14.12 9.99995 14.1158C9.99504 13.7058 9.66116 13.375 9.25 13.375C8.83579 13.375 8.5 13.7118 8.5 14.126L8.5 14.127L8.50001 14.1292L8.50005 14.1342L8.50025 14.1467C8.50044 14.1561 8.50079 14.1677 8.50137 14.1812C8.50253 14.2082 8.50467 14.2433 8.50855 14.2853C8.51631 14.3692 8.53117 14.4823 8.55983 14.6152C8.61667 14.8787 8.73099 15.2347 8.96407 15.5949C9.45969 16.3609 10.3968 17 12 17H12.0017C12.1248 17 12.9636 17.0001 13.7943 16.5579C14.2232 16.3295 14.6594 15.9782 14.985 15.4462C15.3114 14.9131 15.5 14.242 15.5 13.4167C15.5 12.5816 15.2955 11.9052 14.95 11.3712C14.6068 10.8409 14.1529 10.4946 13.7185 10.2708C13.633 10.2268 13.548 10.1873 13.464 10.1518L15.2882 8.27236C15.498 8.05614 15.5581 7.73533 15.4407 7.45782C15.3234 7.18032 15.0509 7 14.7496 7L9.25 7C8.83579 7 8.5 7.33579 8.5 7.75C8.5 8.16421 8.83579 8.5 9.25 8.5ZM9.25 14.125L8.5 14.126C8.5 14.1255 8.5 14.125 9.25 14.125Z" fill="#3C3C3C"/>
</svg>
