<svg width="24" height="24" viewBox="0 0 24 24" fill="none" xmlns="http://www.w3.org/2000/svg">
<path fill-rule="evenodd" clip-rule="evenodd" d="M12.3693 2.97147C13.2812 1.92858 14.9986 2.57352 14.9986 3.95882V7.50623L18.5506 7.50619C18.8989 7.50296 19.2442 7.57394 19.5629 7.71469C19.883 7.85606 20.169 8.06465 20.4006 8.32678C20.6322 8.58894 20.8039 8.89835 20.9028 9.23383C21.0018 9.56934 21.0255 9.92229 20.9722 10.268L20.9701 10.2814L19.8142 16.969C19.7242 17.5415 19.4282 18.0605 18.9835 18.4324C18.5384 18.8048 17.9739 19.0052 17.3937 18.9998H5.4266C4.78686 18.9998 4.17096 18.7499 3.71499 18.3011C3.25862 17.852 3 17.2403 3 16.5999V10.8249C3 10.1845 3.25862 9.57277 3.71499 9.12364C4.17096 8.67492 4.78686 8.42493 5.4266 8.42493H7.60101L12.3693 2.97147ZM7.1915 9.92493H5.4266C5.17701 9.92493 4.94002 10.0226 4.76714 10.1928C4.59466 10.3625 4.5 10.5901 4.5 10.8249V16.5999C4.5 16.8346 4.59466 17.0623 4.76714 17.232C4.94002 17.4022 5.17701 17.4998 5.4266 17.4998H7.1915V9.92493ZM8.6915 17.4998H17.4059C17.6327 17.5024 17.8512 17.4241 18.0211 17.2819C18.1908 17.14 18.3003 16.9446 18.3329 16.7331L18.335 16.7196L19.4906 10.0336C19.5091 9.90822 19.5001 9.78029 19.4641 9.65825C19.4276 9.53433 19.3638 9.41881 19.2765 9.31999C19.1892 9.22114 19.0802 9.14131 18.9568 9.0868C18.8334 9.03229 18.6989 9.00463 18.5627 9.00615L18.5544 9.00624L14.9986 9.00623C14.1701 9.00624 13.4986 8.33466 13.4986 7.50623V3.95882L8.6915 9.45658V17.4998Z" fill="#3C3C3C"/>
</svg>
