<svg width="24" height="24" viewBox="0 0 24 24" fill="none" xmlns="http://www.w3.org/2000/svg">
<path fill-rule="evenodd" clip-rule="evenodd" d="M12.3693 21.031C13.2812 22.0739 14.9986 21.4289 14.9986 20.0436V16.4962L18.5506 16.4962C18.8989 16.4995 19.2442 16.4285 19.5629 16.2878C19.883 16.1464 20.169 15.9378 20.4006 15.6757C20.6322 15.4135 20.8039 15.1041 20.9028 14.7686C21.0018 14.4331 21.0255 14.0802 20.9722 13.7344L20.9701 13.721L19.8142 7.03344C19.7242 6.46097 19.4282 5.94195 18.9835 5.57002C18.5384 5.19769 17.9739 4.9972 17.3937 5.00259H5.4266C4.78686 5.00259 4.17096 5.25258 3.71499 5.70131C3.25862 6.15043 3 6.76215 3 7.40258V13.1775C3 13.8179 3.25862 14.4297 3.71499 14.8788C4.17096 15.3275 4.78686 15.5775 5.4266 15.5775H7.60101L12.3693 21.031ZM7.1915 14.0775H5.4266C5.17701 14.0775 4.94002 13.9798 4.76714 13.8097C4.59466 13.6399 4.5 13.4123 4.5 13.1775V7.40258C4.5 7.1678 4.59466 6.94016 4.76714 6.77042C4.94002 6.60028 5.17701 6.50259 5.4266 6.50259H7.1915V14.0775ZM8.6915 6.50259H17.4059C17.6327 6.50007 17.8512 6.57839 18.0211 6.72055C18.1908 6.86247 18.3003 7.05782 18.3329 7.26931L18.335 7.28283L19.4906 13.9688C19.5091 14.0942 19.5001 14.2221 19.4641 14.3442C19.4276 14.4681 19.3638 14.5836 19.2765 14.6824C19.1892 14.7813 19.0802 14.8611 18.9568 14.9156C18.8334 14.9702 18.6989 14.9978 18.5627 14.9963L18.5544 14.9962L14.9986 14.9962C14.1701 14.9962 13.4986 15.6678 13.4986 16.4962V20.0436L8.6915 14.5459V6.50259Z" fill="#3C3C3C"/>
</svg>
