<svg width="24" height="24" viewBox="0 0 24 24" fill="none" xmlns="http://www.w3.org/2000/svg">
<path fill-rule="evenodd" clip-rule="evenodd" d="M12.751 3.75806C12.751 3.34384 12.4152 3.00806 12.001 3.00806C11.5868 3.00806 11.251 3.34384 11.251 3.75806V5.32844C11.251 5.74265 11.5868 6.07844 12.001 6.07844C12.4152 6.07844 12.751 5.74265 12.751 5.32844V3.75806ZM12.0012 9.03931C10.3265 9.03931 8.96899 10.3969 8.96899 12.0715C8.96899 13.069 9.4499 13.954 10.1957 14.5078C10.5625 14.7802 10.8599 15.2306 10.8599 15.7801V16.4994H13.142V15.7804C13.142 15.2308 13.4395 14.7804 13.8063 14.508C14.5523 13.9542 15.0333 13.0691 15.0333 12.0715C15.0333 10.3969 13.6758 9.03931 12.0012 9.03931ZM7.46899 12.0715C7.46899 9.56843 9.49811 7.53931 12.0012 7.53931C14.5042 7.53931 16.5333 9.56843 16.5333 12.0715C16.5333 13.5639 15.8112 14.8878 14.7004 15.7124C14.6724 15.7333 14.6556 15.7547 14.6476 15.7693C14.6438 15.7759 14.6425 15.78 14.642 15.7818V16.4994C14.642 17.3278 13.9705 17.9994 13.142 17.9994H10.8599C10.0314 17.9994 9.35987 17.3278 9.35987 16.4994V15.7815C9.35943 15.7797 9.35806 15.7756 9.35435 15.769C9.34628 15.7544 9.32954 15.733 9.30149 15.7121C8.19098 14.8875 7.46899 13.5637 7.46899 12.0715ZM9.35987 20.2532C9.35987 19.839 9.69566 19.5032 10.1099 19.5032H13.892C14.3062 19.5032 14.642 19.839 14.642 20.2532C14.642 20.6674 14.3062 21.0032 13.892 21.0032H10.1099C9.69566 21.0032 9.35987 20.6674 9.35987 20.2532ZM6.07666 12C6.07666 11.5858 5.74087 11.25 5.32666 11.25H3.75628C3.34207 11.25 3.00628 11.5858 3.00628 12C3.00628 12.4142 3.34207 12.75 3.75628 12.75H5.32666C5.74087 12.75 6.07666 12.4142 6.07666 12ZM20.2438 11.25C20.658 11.25 20.9938 11.5858 20.9938 12C20.9938 12.4142 20.658 12.75 20.2438 12.75H18.6734C18.2592 12.75 17.9234 12.4142 17.9234 12C17.9234 11.5858 18.2592 11.25 18.6734 11.25H20.2438ZM5.32464 5.98383C5.61753 5.69094 6.09241 5.69094 6.3853 5.98383L7.49573 7.09426C7.78862 7.38715 7.78862 7.86202 7.49573 8.15492C7.20283 8.44781 6.72796 8.44781 6.43507 8.15492L5.32464 7.04449C5.03175 6.7516 5.03175 6.27672 5.32464 5.98383ZM17.6166 5.98383C17.9095 5.69094 18.3844 5.69094 18.6773 5.98383C18.9702 6.27672 18.9702 6.7516 18.6773 7.04449L17.5668 8.15492C17.274 8.44781 16.7991 8.44781 16.5062 8.15492C16.2133 7.86202 16.2133 7.38715 16.5062 7.09426L17.6166 5.98383Z" fill="#3C3C3C"/>
</svg>
