<svg width="24" height="24" viewBox="0 0 24 24" fill="none" xmlns="http://www.w3.org/2000/svg">
<path fill-rule="evenodd" clip-rule="evenodd" d="M9.49174 3.75C9.49174 3.33579 9.15595 3 8.74174 3C8.32752 3 7.99174 3.33579 7.99174 3.75V5.04199H3.75119C3.33698 5.04199 3.00119 5.37778 3.00119 5.79199C3.00119 6.20621 3.33698 6.54199 3.75119 6.54199H5.35874C5.38155 6.71232 5.41836 6.93517 5.4776 7.19873C5.79365 8.60488 6.58527 9.9792 7.51586 11.0691C6.66321 11.7767 5.44173 12.5048 3.98951 12.9894C3.58233 13.1252 3.36228 13.5658 3.49801 13.9734C3.63374 14.381 4.07386 14.6013 4.48104 14.4654C6.18677 13.8962 7.61019 13.0353 8.62019 12.1723C9.6241 13.0301 11.082 13.8858 12.7746 14.455L10.0451 19.9141C9.85982 20.2845 10.01 20.7351 10.3805 20.9203C10.751 21.1055 11.2015 20.9554 11.3867 20.5849L12.7661 17.8262H18.1881L19.5675 20.5849C19.7527 20.9554 20.2032 21.1055 20.5737 20.9203C20.9442 20.7351 21.0944 20.2845 20.9091 19.9141L16.1479 10.3916C16.0209 10.1376 15.7612 9.97705 15.4771 9.97705C15.193 9.97705 14.9333 10.1376 14.8063 10.3916L13.4671 13.07C13.415 13.037 13.3581 13.0098 13.297 12.9894C11.8448 12.5048 10.5772 11.7767 9.72453 11.0691C10.6551 9.9792 11.4467 8.60488 11.7628 7.19873C11.822 6.93517 11.8588 6.71232 11.8816 6.54199H13.7325C14.1467 6.54199 14.4825 6.20621 14.4825 5.79199C14.4825 5.37778 14.1467 5.04199 13.7325 5.04199H9.49174V3.75ZM6.99399 6.85721C6.96775 6.74049 6.9472 6.63483 6.93112 6.54199H10.3092C10.2932 6.63483 10.2726 6.74049 10.2464 6.85721C9.99422 7.97908 9.34966 9.08656 8.62019 9.9667C7.89073 9.08657 7.24615 7.97908 6.99399 6.85721ZM15.4771 12.4041L17.4381 16.3262H13.5161L15.4771 12.4041Z" fill="#3C3C3C"/>
</svg>
