<svg width="24" height="24" viewBox="0 0 24 24" fill="none" xmlns="http://www.w3.org/2000/svg">
<path fill-rule="evenodd" clip-rule="evenodd" d="M19.5 12C19.5 16.1421 16.1421 19.5 12 19.5C7.85786 19.5 4.5 16.1421 4.5 12C4.5 7.85786 7.85786 4.5 12 4.5C16.1421 4.5 19.5 7.85786 19.5 12ZM21 12C21 16.9706 16.9706 21 12 21C7.02944 21 3 16.9706 3 12C3 7.02944 7.02944 3 12 3C16.9706 3 21 7.02944 21 12ZM10 10.5833C10 10.2267 10.1099 9.67844 10.4148 9.24211C10.6922 8.84506 11.154 8.5 12 8.5C12.846 8.5 13.3078 8.84506 13.5852 9.24211C13.8902 9.67844 14 10.2267 14 10.5833C14 11.0528 13.7673 11.6 13.2982 12.2041C12.8365 12.7987 12.2031 13.3744 11.5414 13.8857C10.8839 14.3938 10.2224 14.8201 9.72304 15.1202C9.47413 15.2698 9.26735 15.3869 9.12392 15.4661C9.05224 15.5057 8.9965 15.5357 8.95936 15.5554L8.91797 15.5773L8.90838 15.5823L8.90652 15.5833C8.59882 15.7418 8.43957 16.0903 8.52113 16.4267C8.60268 16.7631 8.90387 17 9.25001 17H14.75C15.1642 17 15.5 16.6642 15.5 16.25C15.5 15.8358 15.1642 15.5 14.75 15.5H11.8818C12.0714 15.3651 12.2649 15.2223 12.4586 15.0726C13.1719 14.5214 13.9135 13.8575 14.483 13.124C15.0452 12.4 15.5 11.5305 15.5 10.5833C15.5 9.99552 15.3349 9.12712 14.8148 8.38289C14.2672 7.59938 13.354 7 12 7C10.646 7 9.73278 7.59938 9.18525 8.38289C8.66516 9.12712 8.50001 9.99552 8.50001 10.5833C8.50001 10.9975 8.8358 11.3333 9.25001 11.3333C9.66423 11.3333 10 10.9975 10 10.5833ZM8.90652 15.5833L9.25001 16.25C9.10857 15.9754 9.02539 15.8139 8.97646 15.7189C8.90657 15.5833 8.90657 15.5833 8.90652 15.5833Z" fill="#3C3C3C"/>
</svg>
