<svg width="24" height="24" viewBox="0 0 24 24" fill="none" xmlns="http://www.w3.org/2000/svg">
<path fill-rule="evenodd" clip-rule="evenodd" d="M2.90875 5.24506C2.90875 4.5547 3.4684 3.99506 4.15875 3.99506H19.8489C20.5393 3.99506 21.0989 4.5547 21.0989 5.24506V7.47088C21.0989 8.10654 20.6244 8.63138 20.0103 8.71055V18.7483C20.0103 19.4387 19.4507 19.9983 18.7603 19.9983H5.24713C4.55677 19.9983 3.99713 19.4387 3.99713 18.7483V8.71053C3.38312 8.63126 2.90875 8.10647 2.90875 7.47088V5.24506ZM4.40875 5.49506V7.22088H19.5989V5.49506H4.40875ZM5.49713 8.72095V18.4983H18.5103V8.72095H5.49713ZM13.4921 13.7377C13.785 14.0306 14.2599 14.0306 14.5528 13.7377C14.8457 13.4448 14.8457 12.9699 14.5528 12.677L12.5343 10.6585C12.3936 10.5179 12.2029 10.4388 12.0039 10.4388C11.805 10.4388 11.6143 10.5179 11.4736 10.6585L9.4551 12.677C9.1622 12.9699 9.1622 13.4448 9.4551 13.7377C9.74799 14.0306 10.2229 14.0306 10.5158 13.7377L11.2539 12.9995V16.0333C11.2539 16.4475 11.5897 16.7833 12.0039 16.7833C12.4182 16.7833 12.7539 16.4475 12.7539 16.0333V12.9995L13.4921 13.7377Z" fill="#3C3C3C"/>
</svg>
