<svg width="24" height="24" viewBox="0 0 24 24" fill="none" xmlns="http://www.w3.org/2000/svg">
<path fill-rule="evenodd" clip-rule="evenodd" d="M4.99915 3.75C4.99915 3.33579 5.33493 3 5.74915 3H8.68954C9.10375 3 9.43954 3.33579 9.43954 3.75C9.43954 4.16421 9.10375 4.5 8.68954 4.5H7.97301V12.4569C7.97301 14.6815 9.77646 16.485 12.0011 16.485C14.2258 16.485 16.0293 14.6815 16.0293 12.4569V4.5H15.3079C14.8937 4.5 14.5579 4.16421 14.5579 3.75C14.5579 3.33579 14.8937 3 15.3079 3H18.251C18.6652 3 19.001 3.33579 19.001 3.75C19.001 4.16421 18.6652 4.5 18.251 4.5H17.5293V12.4569C17.5293 15.51 15.0542 17.985 12.0011 17.985C8.94804 17.985 6.47301 15.51 6.47301 12.4569V4.5H5.74915C5.33493 4.5 4.99915 4.16421 4.99915 3.75ZM5.75462 19.5002C5.34041 19.5002 5.00462 19.836 5.00462 20.2502C5.00462 20.6645 5.34041 21.0002 5.75462 21.0002L18.2536 21.0002C18.6679 21.0002 19.0036 20.6645 19.0036 20.2502C19.0036 19.836 18.6679 19.5002 18.2536 19.5002L5.75462 19.5002Z" fill="#3C3C3C"/>
</svg>
