<svg width="24" height="24" viewBox="0 0 24 24" fill="none" xmlns="http://www.w3.org/2000/svg">
<path fill-rule="evenodd" clip-rule="evenodd" d="M7.00549 6.25244C7.00549 5.83823 7.34128 5.50244 7.75549 5.50244L20.254 5.50244C20.6682 5.50244 21.004 5.83823 21.004 6.25244C21.004 6.66665 20.6682 7.00244 20.254 7.00244L7.75549 7.00244C7.34128 7.00244 7.00549 6.66665 7.00549 6.25244Z" fill="#3C3C3C"/>
<path fill-rule="evenodd" clip-rule="evenodd" d="M7.00549 12C7.00549 11.5858 7.34128 11.25 7.75549 11.25L20.254 11.25C20.6682 11.25 21.004 11.5858 21.004 12C21.004 12.4142 20.6682 12.75 20.254 12.75L7.75549 12.75C7.34128 12.75 7.00549 12.4142 7.00549 12Z" fill="#3C3C3C"/>
<path fill-rule="evenodd" clip-rule="evenodd" d="M7.00549 17.7456C7.00549 17.3314 7.34128 16.9956 7.75549 16.9956L20.254 16.9956C20.6682 16.9956 21.004 17.3314 21.004 17.7456C21.004 18.1598 20.6682 18.4956 20.254 18.4956L7.75549 18.4956C7.34128 18.4956 7.00549 18.1598 7.00549 17.7456Z" fill="#3C3C3C"/>
<path d="M5.5 6.25244C5.5 6.9428 4.94036 7.50244 4.25 7.50244C3.55964 7.50244 3 6.9428 3 6.25244C3 5.56209 3.55964 5.00244 4.25 5.00244C4.94036 5.00244 5.5 5.56209 5.5 6.25244Z" fill="#3C3C3C"/>
<path d="M5.5 12C5.5 12.6904 4.94036 13.25 4.25 13.25C3.55964 13.25 3 12.6904 3 12C3 11.3096 3.55964 10.75 4.25 10.75C4.94036 10.75 5.5 11.3096 5.5 12Z" fill="#3C3C3C"/>
<path d="M5.5 17.7456C5.5 18.436 4.94036 18.9956 4.25 18.9956C3.55964 18.9956 3 18.436 3 17.7456C3 17.0552 3.55964 16.4956 4.25 16.4956C4.94036 16.4956 5.5 17.0552 5.5 17.7456Z" fill="#3C3C3C"/>
</svg>
