<svg width="24" height="24" viewBox="0 0 24 24" fill="none" xmlns="http://www.w3.org/2000/svg">
<path d="M16.1547 7.7666C15.8618 8.0595 15.387 8.0595 15.0941 7.7666L12.75 5.42257L12.75 15.2648C12.75 15.679 12.4142 16.0148 12 16.0148C11.5858 16.0148 11.25 15.679 11.25 15.2648L11.25 5.42261L8.90603 7.7666C8.61314 8.0595 8.13827 8.0595 7.84537 7.7666C7.55248 7.47371 7.55248 6.99884 7.84537 6.70594L11.234 3.3173C11.6571 2.89423 12.343 2.89423 12.7661 3.3173L16.1547 6.70594C16.4476 6.99884 16.4476 7.47371 16.1547 7.7666Z" fill="#3C3C3C"/>
<path d="M5 19.5093C5 20.3377 5.67157 21.0093 6.5 21.0093H17.5C18.3284 21.0093 19 20.3377 19 19.5093V17C19 16.5858 18.6642 16.25 18.25 16.25C17.8358 16.25 17.5 16.5858 17.5 17V19.5093H6.5V17C6.5 16.5858 6.16421 16.25 5.75 16.25C5.33579 16.25 5 16.5858 5 17V19.5093Z" fill="#3C3C3C"/>
</svg>
