<svg width="24" height="24" viewBox="0 0 24 24" fill="none" xmlns="http://www.w3.org/2000/svg">
<path fill-rule="evenodd" clip-rule="evenodd" d="M11.022 4.47155C11.5225 3.84291 12.4775 3.8429 12.978 4.47153L15.7267 7.92437L18.497 6.31538C19.4471 5.76357 20.5957 6.61789 20.3406 7.68656L18.5132 15.341L18.5132 18.7559C18.5132 19.4462 17.9535 20.0059 17.2632 20.0059H6.74446C6.0541 20.0059 5.49446 19.4462 5.49446 18.7559L5.49446 15.3413L3.66076 7.68819C3.40464 6.61925 4.55362 5.76397 5.50413 6.31601L8.27343 7.92437L11.022 4.47155ZM6.99446 16.0027L6.99446 18.5059H17.0132L17.0132 16.0027H6.99446ZM17.1712 14.5027L18.7462 7.90525L16.2934 9.3299C15.7572 9.6413 15.0738 9.51261 14.6876 9.02751L12 5.65146L9.31253 9.02749C8.92636 9.5126 8.24295 9.64131 7.70678 9.32991L5.25545 7.90621L6.83599 14.5027H17.1712Z" fill="#3C3C3C"/>
</svg>
