<svg width="24" height="24" viewBox="0 0 24 24" fill="none" xmlns="http://www.w3.org/2000/svg">
<path fill-rule="evenodd" clip-rule="evenodd" d="M12.0001 4.49866C10.2064 4.49866 8.75232 5.95273 8.75232 7.74641C8.75232 9.5401 10.2064 10.9942 12.0001 10.9942C13.7938 10.9942 15.2478 9.5401 15.2478 7.74641C15.2478 5.95273 13.7938 4.49866 12.0001 4.49866ZM7.25232 7.74641C7.25232 5.1243 9.37796 2.99866 12.0001 2.99866C14.6222 2.99866 16.7478 5.1243 16.7478 7.74641C16.7478 10.3685 14.6222 12.4942 12.0001 12.4942C9.37796 12.4942 7.25232 10.3685 7.25232 7.74641Z" fill="#3C3C3C"/>
<path fill-rule="evenodd" clip-rule="evenodd" d="M13.5 15.0527H10.5C8.29086 15.0527 6.5 16.8436 6.5 19.0527V19.5H17.5V19.0527C17.5 16.8436 15.7091 15.0527 13.5 15.0527ZM10.5 13.5527C7.46243 13.5527 5 16.0152 5 19.0527V20C5 20.5523 5.44772 21 6 21H18C18.5523 21 19 20.5523 19 20V19.0527C19 16.0152 16.5376 13.5527 13.5 13.5527H10.5Z" fill="#3C3C3C"/>
</svg>
