<svg width="24" height="24" viewBox="0 0 24 24" fill="none" xmlns="http://www.w3.org/2000/svg">
<path fill-rule="evenodd" clip-rule="evenodd" d="M3.86576 2.87273C3.58279 2.72422 3.22488 2.7689 2.987 3.00678C2.69411 3.29967 2.69411 3.77455 2.987 4.06744L3.92242 5.00285C3.40639 5.04245 3 5.47371 3 5.99989V17.9999C3 18.5522 3.44772 18.9999 4 18.9999H17C17.2556 18.9999 17.4889 18.904 17.6657 18.7461L19.9263 21.0068C20.2192 21.2997 20.6941 21.2997 20.987 21.0068C21.2249 20.7689 21.2696 20.411 21.1211 20.128L3.86576 2.87273ZM19.0936 15.9793L20.3844 16.9877C21.0409 17.5006 22 17.0328 22 16.1996V7.99989C22 7.17584 21.0592 6.70546 20.4 7.19989L18 8.99989V6.99989V5.99989C18 5.4476 17.5523 4.99989 17 4.99989H8.11424L9.61424 6.49989H16.5V6.99989V11.9999V12.0495V13.3857L19.0936 15.9793ZM4.5 6.49989H5.41945L16.4195 17.4999H4.5V6.49989ZM20.5 15.1745L18 13.2214V10.8749L20.5 8.99989V15.1745Z" fill="#3C3C3C"/>
</svg>
