<svg width="24" height="24" viewBox="0 0 24 24" fill="none" xmlns="http://www.w3.org/2000/svg">
<path fill-rule="evenodd" clip-rule="evenodd" d="M4.5 6.5H19.5V17.5H4.5L4.5 6.5ZM3 6.5C3 5.67157 3.67157 5 4.5 5H19.5C20.3284 5 21 5.67157 21 6.5V17.5C21 18.3284 20.3284 19 19.5 19H4.5C3.67157 19 3 18.3284 3 17.5V6.5ZM15.375 12.6495C15.6071 12.5155 15.75 12.2679 15.75 12C15.75 11.7321 15.6071 11.4845 15.375 11.3505L10.875 8.75241C10.6429 8.61843 10.3571 8.61843 10.125 8.75241C9.89295 8.88638 9.75 9.13398 9.75 9.40192V14.5981C9.75 14.866 9.89295 15.1136 10.125 15.2476C10.3571 15.3816 10.6429 15.3816 10.875 15.2476L15.375 12.6495ZM11.25 13.299V10.701L13.5 12L11.25 13.299Z" fill="#3C3C3C"/>
</svg>
