<svg width="24" height="24" viewBox="0 0 24 24" fill="none" xmlns="http://www.w3.org/2000/svg">
<path fill-rule="evenodd" clip-rule="evenodd" d="M11.0582 2.91503C11.4682 2.1666 12.5433 2.16689 12.9529 2.91555L20.8773 17.4009C21.271 18.1206 20.7502 18.9993 19.9298 18.9993H4.07067C3.25003 18.9993 2.72922 18.1201 3.12347 17.4004L11.0582 2.91503ZM12.0052 4.30856L4.77962 17.4993H19.2213L12.0052 4.30856ZM12 8.33862C12.4142 8.33862 12.75 8.67441 12.75 9.08862V11.9073C12.75 12.3215 12.4142 12.6573 12 12.6573C11.5858 12.6573 11.25 12.3215 11.25 11.9073V9.08862C11.25 8.67441 11.5858 8.33862 12 8.33862ZM12 16.0143C12.5523 16.0143 13 15.5682 13 15.0179C13 14.4676 12.5523 14.0215 12 14.0215C11.4477 14.0215 11 14.4676 11 15.0179C11 15.5682 11.4477 16.0143 12 16.0143Z" fill="#3C3C3C"/>
</svg>
