<svg width="24" height="24" viewBox="0 0 24 24" fill="none" xmlns="http://www.w3.org/2000/svg">
<path fill-rule="evenodd" clip-rule="evenodd" d="M12 8C10.3431 8 9 9.34315 9 11C9 12.6569 10.3431 14 12 14C13.6569 14 15 12.6569 15 11C15 9.34315 13.6569 8 12 8ZM10.5 11C10.5 10.1716 11.1716 9.5 12 9.5C12.8284 9.5 13.5 10.1716 13.5 11C13.5 11.8284 12.8284 12.5 12 12.5C11.1716 12.5 10.5 11.8284 10.5 11Z" fill="#3C3C3C"/>
<path fill-rule="evenodd" clip-rule="evenodd" d="M4.5 19H19.5C20.3284 19 21 18.3284 21 17.5V6.5C21 5.67157 20.3284 5 19.5 5H4.5C3.67157 5 3 5.67157 3 6.5V17.5C3 18.3284 3.67157 19 4.5 19ZM19.5 6.5H4.5L4.5 17.5H7.29076C7.88415 16.0341 9.32131 15 11 15H13C14.6787 15 16.1159 16.0341 16.7092 17.5H19.5V6.5ZM13 16.5C13.8179 16.5 14.5441 16.8928 15.0002 17.5H8.99982C9.45592 16.8928 10.1821 16.5 11 16.5H13Z" fill="#3C3C3C"/>
</svg>
