<svg width="24" height="24" viewBox="0 0 24 24" fill="none" xmlns="http://www.w3.org/2000/svg">
<path fill-rule="evenodd" clip-rule="evenodd" d="M8.24632 5.50012C6.21862 5.50012 4.50354 7.51653 4.50354 9.75002C4.50354 11.0661 5.09009 12.3456 6.27198 13.8175C7.46017 15.2972 9.17603 16.883 11.3113 18.8192C11.3177 18.8251 11.3241 18.8311 11.3303 18.8371L11.9596 19.4491C11.9845 19.4683 12.0226 19.4702 12.0518 19.4473L12.6799 18.8427C12.6851 18.8377 12.6903 18.8328 12.6956 18.828C14.831 16.8875 16.547 15.2997 17.7353 13.8187C18.9174 12.3456 19.5039 11.0661 19.5039 9.75002C19.5039 7.51997 17.777 5.50012 15.7463 5.50012C14.5413 5.50012 13.3349 6.08938 12.571 6.98638C12.4285 7.15371 12.2198 7.25012 12 7.25012C11.7802 7.25012 11.5715 7.15371 11.429 6.98638C10.666 6.09033 9.45258 5.50012 8.24632 5.50012ZM3.00354 9.75002C3.00354 6.90138 5.19191 4.00012 8.24632 4.00012C9.63048 4.00012 10.9867 4.55157 11.9998 5.43635C13.0105 4.55208 14.3613 4.00012 15.7463 4.00012C18.7978 4.00012 21.0039 6.89795 21.0039 9.75002C21.0039 11.5525 20.1879 13.159 18.9053 14.7575C17.6305 16.3462 15.8224 18.0134 13.7124 19.9309L13.079 20.5405C13.0733 20.546 13.0676 20.5513 13.0617 20.5566C12.463 21.0975 11.5475 21.1027 10.9456 20.5547C10.9395 20.5492 10.9335 20.5435 10.9276 20.5378L10.294 19.9216C8.18449 18.0087 6.37699 16.344 5.10238 14.7566C3.81953 13.159 3.00354 11.5525 3.00354 9.75002ZM8.25 12C8.25 11.5858 8.58579 11.25 9 11.25H11.25V9C11.25 8.58579 11.5858 8.25 12 8.25C12.4142 8.25 12.75 8.58579 12.75 9V11.25H15C15.4142 11.25 15.75 11.5858 15.75 12C15.75 12.4142 15.4142 12.75 15 12.75H12.75V15C12.75 15.4142 12.4142 15.75 12 15.75C11.5858 15.75 11.25 15.4142 11.25 15V12.75H9C8.58579 12.75 8.25 12.4142 8.25 12Z" fill="#3C3C3C"/>
</svg>
