<svg width="24" height="24" viewBox="0 0 24 24" fill="none" xmlns="http://www.w3.org/2000/svg">
<path d="M6.5 15.5V4.5H14V6.43744L15.5 6.56868V4C15.5 3.44772 15.0523 3 14.5 3H6C5.44772 3 5 3.44772 5 4V16C5 16.5523 5.44772 17 6 17H8.03762L8.16886 15.5H6.5Z" fill="#3C3C3C"/>
<path fill-rule="evenodd" clip-rule="evenodd" d="M10.3636 7.62503L9.40485 18.5832L17.3744 19.2804L18.3331 8.32227L10.3636 7.62503ZM9.99619 6.08716C9.44601 6.03902 8.96098 6.44601 8.91284 6.9962L7.86698 18.9505C7.81884 19.5007 8.22583 19.9857 8.77601 20.0339L17.7418 20.8183C18.2919 20.8664 18.777 20.4594 18.8251 19.9092L19.871 7.95491C19.9191 7.40472 19.5121 6.91969 18.9619 6.87156L9.99619 6.08716Z" fill="#3C3C3C"/>
<path fill-rule="evenodd" clip-rule="evenodd" d="M11.0681 14.3868C11.4068 14.1483 11.8747 14.2295 12.1132 14.5681C12.8502 15.6146 14.5465 15.763 15.454 14.8604C15.7477 14.5683 16.2226 14.5696 16.5146 14.8633C16.8067 15.157 16.8054 15.6319 16.5118 15.924C14.9454 17.4818 12.1589 17.2381 10.8868 15.4319C10.6483 15.0932 10.7295 14.6253 11.0681 14.3868Z" fill="#3C3C3C"/>
<path d="M12.1164 12.5597C12.529 12.5958 12.8928 12.2905 12.9289 11.8779C12.965 11.4652 12.6598 11.1015 12.2471 11.0654C11.8345 11.0293 11.4707 11.3345 11.4346 11.7471C11.3985 12.1598 11.7038 12.5236 12.1164 12.5597Z" fill="#3C3C3C"/>
<path d="M15.6164 13.0597C16.029 13.0958 16.3928 12.7905 16.4289 12.3779C16.465 11.9652 16.1598 11.6015 15.7471 11.5654C15.3345 11.5293 14.9707 11.8345 14.9346 12.2471C14.8985 12.6598 15.2038 13.0236 15.6164 13.0597Z" fill="#3C3C3C"/>
</svg>
