<svg width="24" height="24" viewBox="0 0 24 24" fill="none" xmlns="http://www.w3.org/2000/svg">
<path d="M7.74999 10.5C8.30228 10.5 8.74999 10.0523 8.74999 9.5C8.74999 8.94772 8.30228 8.5 7.74999 8.5C7.19771 8.5 6.74999 8.94772 6.74999 9.5C6.74999 10.0523 7.19771 10.5 7.74999 10.5Z" fill="#3C3C3C"/>
<path d="M14.5 10.5C15.0523 10.5 15.5 10.0523 15.5 9.5C15.5 8.94772 15.0523 8.5 14.5 8.5C13.9477 8.5 13.5 8.94772 13.5 9.5C13.5 10.0523 13.9477 10.5 14.5 10.5Z" fill="#3C3C3C"/>
<path fill-rule="evenodd" clip-rule="evenodd" d="M10.875 9L12.75 12.75H8.99999L10.875 9Z" fill="#3C3C3C"/>
<path fill-rule="evenodd" clip-rule="evenodd" d="M11.75 7C11.75 6.58579 12.0858 6.25 12.5 6.25H17C17.4142 6.25 17.75 6.58579 17.75 7C17.75 7.41421 17.4142 7.75 17 7.75H12.5C12.0858 7.75 11.75 7.41421 11.75 7Z" fill="#3C3C3C"/>
<path fill-rule="evenodd" clip-rule="evenodd" d="M9.2276 6.8181C9.32806 7.21994 9.08374 7.62715 8.6819 7.72761L4.6819 8.72761C4.28005 8.82807 3.87285 8.58375 3.77239 8.1819C3.67193 7.78006 3.91625 7.37285 4.31809 7.27239L8.31809 6.27239C8.71994 6.17193 9.12714 6.41625 9.2276 6.8181Z" fill="#3C3C3C"/>
<path fill-rule="evenodd" clip-rule="evenodd" d="M16.2116 12.9088C16.3936 13.051 16.5 13.269 16.5 13.5C16.5 14.6931 16.3037 15.7224 15.8306 16.5109C15.3371 17.3334 14.5793 17.8305 13.6233 17.9898C12.7057 18.1427 11.8365 17.989 11.0516 17.5181C10.2822 17.0565 9.63934 16.318 9.09881 15.3721C8.98232 15.1682 8.96802 14.9216 9.06018 14.7056C9.15233 14.4897 9.3403 14.3293 9.56809 14.2724L15.5681 12.7724C15.7921 12.7164 16.0295 12.7667 16.2116 12.9088ZM10.9709 15.4679C11.2522 15.8109 11.538 16.0607 11.8234 16.2319C12.2885 16.511 12.7942 16.6073 13.3767 16.5102C13.9207 16.4195 14.2879 16.1666 14.5444 15.7391C14.7259 15.4366 14.8652 15.0227 14.9397 14.4757L10.9709 15.4679Z" fill="#3C3C3C"/>
<path fill-rule="evenodd" clip-rule="evenodd" d="M5.49999 5.5V18.5H18.5V5.5H5.49999ZM4.99999 4C4.44771 4 3.99999 4.44772 3.99999 5V19C3.99999 19.5523 4.44771 20 4.99999 20H19C19.5523 20 20 19.5523 20 19V5C20 4.44772 19.5523 4 19 4H4.99999Z" fill="#3C3C3C"/>
</svg>
