<svg xmlns="http://www.w3.org/2000/svg" width="160" height="108" fill="none"><path fill="var(--hop-neutral-surface)" stroke="var(--hop-neutral-border-strong)" stroke-width="2" d="M1 8a7 7 0 0 1 7-7h144a7 7 0 0 1 7 7v23H1V8Z"/><path fill="var(--hop-neutral-surface)" stroke="var(--hop-neutral-border-strong)" stroke-width="2" d="M1 77h158V31H1v46ZM1 77h158v23a7 7 0 0 1-7 7H8a7 7 0 0 1-7-7V77Z"/><path stroke="var(--hop-neutral-border-strong)" stroke-linecap="round" stroke-linejoin="round" stroke-width="2" d="m137.983 18.328 4.656-4.655 4.655 4.655M147.294 89.672l-4.655 4.656-4.656-4.656"/></svg>
