<svg xmlns="http://www.w3.org/2000/svg" width="76" height="32" fill="none"><rect width="74.667" height="32" x=".667" fill="var(--hop-neutral-surface-strong)" rx="8.057"/><path fill="var(--hop-neutral-text-strong)" d="M51.93 16.43v3.989h-1.337v-6.735h1.277l.012 1.65h-.132c.193-.602.476-1.042.85-1.319.373-.277.825-.416 1.355-.416.457 0 .857.097 1.198.29.346.192.613.478.802.855.192.373.289.84.289 1.398v4.277h-1.338V16.31c0-.486-.126-.865-.38-1.138-.248-.273-.592-.41-1.03-.41-.296 0-.564.066-.8.199a1.383 1.383 0 0 0-.56.566c-.137.245-.206.546-.206.904ZM45.973 20.557c-.63 0-1.183-.144-1.657-.434a2.932 2.932 0 0 1-1.096-1.216c-.261-.523-.392-1.129-.392-1.82 0-.698.13-1.309.392-1.831a2.924 2.924 0 0 1 1.096-1.223c.474-.289 1.026-.434 1.657-.434.638 0 1.193.145 1.662.434.474.29.842.697 1.103 1.223.26.522.391 1.133.391 1.831 0 .691-.13 1.297-.391 1.82a2.918 2.918 0 0 1-1.103 1.216c-.47.29-1.024.434-1.662.434Zm0-1.126c.41 0 .747-.107 1.012-.32a1.93 1.93 0 0 0 .59-.855c.133-.353.199-.743.199-1.169 0-.43-.066-.823-.199-1.18a1.886 1.886 0 0 0-.59-.856c-.265-.217-.603-.325-1.012-.325-.406 0-.741.108-1.006.325a1.908 1.908 0 0 0-.585.856 3.435 3.435 0 0 0-.192 1.18c0 .426.064.816.192 1.169.129.353.324.639.585.855.265.213.6.32 1.006.32ZM41.949 13.684v1.084h-3.663v-1.084h3.663Zm-2.681-1.603h1.337v6.512c0 .27.057.468.17.597.111.124.298.186.56.186.072 0 .164-.008.276-.024.113-.016.21-.032.29-.048l.234 1.066c-.144.049-.299.083-.463.103-.161.024-.318.036-.47.036-.615 0-1.09-.157-1.428-.47-.337-.317-.506-.763-.506-1.337v-6.62ZM38.093 13.684v1.084h-3.662v-1.084h3.662Zm-2.68-1.603h1.337v6.512c0 .27.056.468.169.597.112.124.299.186.56.186.072 0 .165-.008.277-.024.112-.016.209-.032.29-.048l.234 1.066c-.144.049-.3.083-.464.103-.16.024-.317.036-.47.036-.614 0-1.09-.157-1.427-.47-.338-.317-.506-.763-.506-1.337v-6.62ZM30.057 20.503c-.453 0-.853-.096-1.198-.29a1.983 1.983 0 0 1-.808-.855c-.192-.377-.289-.843-.289-1.397v-4.277H29.1v4.108c0 .486.127.866.38 1.139.257.273.604.41 1.042.41.297 0 .562-.065.795-.193.237-.133.422-.324.555-.573.136-.249.204-.55.204-.903v-3.988h1.344v6.735h-1.277l-.012-1.651h.132c-.197.607-.484 1.048-.861 1.325-.378.273-.826.41-1.344.41ZM19.756 20.419v-8.976h3.313c.639 0 1.167.104 1.585.313.421.209.735.492.94.85.204.353.307.75.307 1.192 0 .374-.07.689-.211.946-.137.253-.32.458-.548.614a2.489 2.489 0 0 1-.76.338v.084c.302.016.595.113.88.29.285.176.52.427.705.752.189.326.283.717.283 1.175 0 .458-.108.87-.325 1.235-.213.365-.544.655-.994.867-.446.213-1.016.32-1.711.32h-3.464Zm1.392-1.187h1.921c.647 0 1.109-.125 1.386-.374.277-.249.416-.558.416-.927 0-.285-.07-.544-.211-.777a1.493 1.493 0 0 0-.603-.555 1.93 1.93 0 0 0-.927-.21h-1.982v2.843Zm0-3.91h1.789a1.9 1.9 0 0 0 .813-.168 1.41 1.41 0 0 0 .578-.488c.141-.213.211-.462.211-.747 0-.37-.128-.677-.385-.922-.257-.249-.65-.373-1.18-.373h-1.826v2.698Z"/></svg>
