<svg xmlns="http://www.w3.org/2000/svg" width="120" height="24" fill="none"><path fill="#3C3C3C" d="M.5 4A3.5 3.5 0 0 1 4 .5h16A3.5 3.5 0 0 1 23.5 4v16a3.5 3.5 0 0 1-3.5 3.5H4A3.5 3.5 0 0 1 .5 20V4Z"/><path stroke="#3C3C3C" d="M.5 4A3.5 3.5 0 0 1 4 .5h16A3.5 3.5 0 0 1 23.5 4v16a3.5 3.5 0 0 1-3.5 3.5H4A3.5 3.5 0 0 1 .5 20V4Z"/><path fill="#fff" fill-rule="evenodd" d="M17.767 7.892c.301.285.314.76.03 1.06l-6.753 7.128a.75.75 0 0 1-1.075.014l-3.751-3.751a.75.75 0 0 1 1.06-1.06l3.207 3.206 6.222-6.568a.75.75 0 0 1 1.06-.029Z" clip-rule="evenodd"/><rect width="84" height="8" x="36" y="8" fill="#CCCCCA" rx="4"/></svg>
