<svg xmlns="http://www.w3.org/2000/svg" width="120" height="72" fill="none"><path fill="#3C3C3C" d="M.5 4A3.5 3.5 0 0 1 4 .5h8A3.5 3.5 0 0 1 15.5 4v8a3.5 3.5 0 0 1-3.5 3.5H4A3.5 3.5 0 0 1 .5 12V4Z"/><path stroke="#3C3C3C" d="M.5 4A3.5 3.5 0 0 1 4 .5h8A3.5 3.5 0 0 1 15.5 4v8a3.5 3.5 0 0 1-3.5 3.5H4A3.5 3.5 0 0 1 .5 12V4Z"/><path fill="#fff" fill-rule="evenodd" d="M12.275 4.646a.58.58 0 0 1 .022.82L7.081 10.97a.58.58 0 0 1-.83.012L3.353 8.085a.58.58 0 1 1 .82-.82l2.476 2.477 4.807-5.074a.58.58 0 0 1 .82-.022Z" clip-rule="evenodd"/><rect width="88" height="4" x="32" y="6" fill="#CCCCCA" rx="2"/><path fill="#3C3C3C" d="M.5 32A3.5 3.5 0 0 1 4 28.5h8a3.5 3.5 0 0 1 3.5 3.5v8a3.5 3.5 0 0 1-3.5 3.5H4A3.5 3.5 0 0 1 .5 40v-8Z"/><path stroke="#3C3C3C" d="M.5 32A3.5 3.5 0 0 1 4 28.5h8a3.5 3.5 0 0 1 3.5 3.5v8a3.5 3.5 0 0 1-3.5 3.5H4A3.5 3.5 0 0 1 .5 40v-8Z"/><path fill="#fff" fill-rule="evenodd" d="M12.275 32.646a.58.58 0 0 1 .022.82L7.081 38.97a.58.58 0 0 1-.83.012l-2.898-2.898a.58.58 0 0 1 .82-.82l2.476 2.477 4.807-5.074a.58.58 0 0 1 .82-.022Z" clip-rule="evenodd"/><rect width="88" height="4" x="32" y="34" fill="#CCCCCA" rx="2"/><path fill="#3C3C3C" d="M.5 60A3.5 3.5 0 0 1 4 56.5h8a3.5 3.5 0 0 1 3.5 3.5v8a3.5 3.5 0 0 1-3.5 3.5H4A3.5 3.5 0 0 1 .5 68v-8Z"/><path stroke="#3C3C3C" d="M.5 60A3.5 3.5 0 0 1 4 56.5h8a3.5 3.5 0 0 1 3.5 3.5v8a3.5 3.5 0 0 1-3.5 3.5H4A3.5 3.5 0 0 1 .5 68v-8Z"/><path fill="#fff" fill-rule="evenodd" d="M12.275 60.646a.58.58 0 0 1 .022.82L7.081 66.97a.58.58 0 0 1-.83.012l-2.898-2.898a.58.58 0 0 1 .82-.82l2.476 2.477 4.807-5.074a.58.58 0 0 1 .82-.022Z" clip-rule="evenodd"/><rect width="88" height="4" x="32" y="62" fill="#CCCCCA" rx="2"/></svg>
