<svg xmlns="http://www.w3.org/2000/svg" width="160" height="108" fill="none"><rect width="158" height="30" x="1" y="1" fill="var(--hop-neutral-surface)" stroke="var(--hop-neutral-border-strong)" stroke-width="2" rx="7"/><rect width="158" height="70" x="1" y="-1" fill="var(--hop-neutral-surface)" stroke="var(--hop-neutral-border-strong)" stroke-width="2" rx="7" transform="matrix(1 0 0 -1 0 106)"/><path fill="var(--hop-neutral-icon)" fill-rule="evenodd" d="M137.5 14.921a3.421 3.421 0 1 1 6.843 0 3.421 3.421 0 0 1-6.843 0ZM140.921 10a4.921 4.921 0 1 0 2.91 8.89l2.817 2.818a.75.75 0 0 0 1.061-1.06l-2.818-2.818a4.922 4.922 0 0 0-3.97-7.83Z" clip-rule="evenodd"/><path stroke="var(--hop-neutral-border)" stroke-linecap="round" stroke-width="4" d="M16 56h118.629M16 88h102M16 72h79M16 16h79"/></svg>
