<svg xmlns="http://www.w3.org/2000/svg" width="160" height="50" fill="none"><rect width="158" height="30" x="1" y="1" fill="var(--hop-neutral-surface)" stroke="var(--hop-neutral-border-strong)" stroke-width="2" rx="7"/><path fill="var(--hop-neutral-icon)" d="M9.519 37.563a1.08 1.08 0 0 1 1.896 0l5.908 10.84a1.08 1.08 0 0 1-.948 1.596H4.55a1.08 1.08 0 0 1-.948-1.597l5.917-10.84Z"/><path fill="var(--hop-neutral-icon-strong)" fill-rule="evenodd" d="M10.463 41.492a.75.75 0 0 1 .75.75v2.156a.75.75 0 0 1-1.5 0v-2.156a.75.75 0 0 1 .75-.75Z" clip-rule="evenodd"/><path fill="var(--hop-neutral-icon-strong)" d="M11.271 46.824a.809.809 0 1 1-1.617 0 .809.809 0 0 1 1.617 0Z"/><rect width="127.433" height="4" x="26.551" y="42.016" fill="var(--hop-neutral-border-weak)" rx="2"/></svg>
