<svg xmlns="http://www.w3.org/2000/svg" width="152" height="24" fill="none"><path fill="var(--hop-neutral-icon)" d="M13.345 4.03c-.55-1.114-2.14-1.114-2.69 0L8.857 7.675l-4.02.584c-1.23.179-1.722 1.69-.832 2.559l2.91 2.835-.687 4.005c-.21 1.225 1.076 2.16 2.176 1.58L12 17.348l3.596 1.89c1.1.58 2.387-.355 2.176-1.58l-.686-4.005 2.909-2.835c.89-.868.399-2.38-.832-2.559l-4.02-.584-1.798-3.643ZM45.345 4.03c-.55-1.114-2.14-1.114-2.69 0l-1.798 3.644-4.02.584c-1.23.179-1.722 1.69-.832 2.559l2.91 2.835-.687 4.005c-.21 1.225 1.076 2.16 2.176 1.58L44 17.348l3.596 1.89c1.1.58 2.387-.355 2.176-1.58l-.686-4.005 2.909-2.835c.89-.868.399-2.38-.831-2.559l-4.02-.584-1.799-3.643ZM77.345 4.03c-.55-1.114-2.14-1.114-2.69 0l-1.798 3.644-4.02.584c-1.23.179-1.722 1.69-.832 2.559l2.91 2.835-.687 4.005c-.21 1.225 1.076 2.16 2.176 1.58L76 17.348l3.596 1.89c1.1.58 2.387-.355 2.176-1.58l-.686-4.005 2.909-2.835c.89-.868.399-2.38-.832-2.559l-4.02-.584-1.798-3.643ZM109.345 4.03c-.55-1.114-2.14-1.114-2.69 0l-1.798 3.644-4.02.584c-1.23.179-1.722 1.69-.832 2.559l2.909 2.835-.686 4.005c-.211 1.225 1.076 2.16 2.176 1.58l3.596-1.89 3.596 1.89c1.1.58 2.387-.355 2.176-1.58l-.686-4.005 2.909-2.835c.89-.868.399-2.38-.831-2.559l-4.021-.584-1.798-3.643Z"/><path fill="var(--hop-neutral-icon)" fill-rule="evenodd" d="M138.655 4.03c.55-1.114 2.14-1.114 2.69 0l1.798 3.644 4.021.584c1.23.179 1.721 1.69.831 2.559l-2.909 2.835.686 4.005c.211 1.225-1.076 2.16-2.176 1.58L140 17.348l-3.596 1.89c-1.1.58-2.387-.355-2.176-1.58l.686-4.005-2.909-2.835c-.89-.868-.399-2.38.832-2.559l4.02-.584 1.798-3.643Zm1.345.665-1.798 3.643a1.5 1.5 0 0 1-1.129.82l-4.021.584 2.909 2.836a1.5 1.5 0 0 1 .432 1.328l-.687 4.004 3.596-1.89a1.5 1.5 0 0 1 1.396 0l3.596 1.89-.687-4.004a1.5 1.5 0 0 1 .432-1.328l2.909-2.836-4.021-.584a1.5 1.5 0 0 1-1.129-.82L140 4.695Z" clip-rule="evenodd"/></svg>
