<svg xmlns="http://www.w3.org/2000/svg" width="76" height="32" fill="none"><rect width="74.667" height="32" x=".667" fill="var(--hop-neutral-surface-strong)" rx="8.057"/><path fill="var(--hop-neutral-text-strong)" d="M45.009 18.407v-1.633h.223l2.645-2.837h1.602l-3.042 3.259h-.23l-1.198 1.21Zm-1.24 2.265v-8.976h1.336v8.976h-1.337Zm4.24 0-2.38-3.175.922-.946 3.109 4.12h-1.651ZM37.672 16.684v3.988h-1.338v-6.735h1.277l.013 1.65h-.133c.193-.602.476-1.042.85-1.319.373-.277.825-.416 1.355-.416.458 0 .857.097 1.199.29.345.192.612.478.8.855.194.373.29.84.29 1.398v4.277h-1.337v-4.109c0-.486-.127-.865-.38-1.138-.249-.273-.592-.41-1.03-.41-.297 0-.564.066-.801.199a1.384 1.384 0 0 0-.56.566c-.137.245-.205.546-.205.904ZM33.214 20.672v-6.735h1.337v6.735h-1.337Zm.675-7.76a.83.83 0 0 1-.585-.228.747.747 0 0 1-.247-.56c0-.221.083-.408.247-.56a.82.82 0 0 1 .585-.236c.233 0 .431.079.596.235.165.153.247.34.247.56a.747.747 0 0 1-.247.56.846.846 0 0 1-.596.23ZM26.34 20.672v-8.976h1.392v7.783h4.054v1.193h-5.445Z"/></svg>
