<svg xmlns="http://www.w3.org/2000/svg" width="38" height="23" fill="none"><path fill="#3C3C3C" d="M28.492 10.37V8.211h.282l3.542-3.767h2.141L30.4 8.767h-.306l-1.602 1.602Zm-1.642 3.002V1.378h1.78v11.994h-1.78Zm5.659 0-3.18-4.21 1.224-1.256 4.146 5.466h-2.19ZM18.793 8.107v5.265h-1.78V4.445h1.707l.016 2.19h-.217c.263-.8.644-1.385 1.143-1.756.499-.37 1.103-.555 1.811-.555.606 0 1.14.129 1.602.386a2.6 2.6 0 0 1 1.079 1.135c.257.505.386 1.127.386 1.868v5.659h-1.78V7.938c0-.65-.168-1.156-.506-1.521-.333-.365-.792-.548-1.377-.548-.397 0-.754.086-1.07.258a1.864 1.864 0 0 0-.74.757c-.183.332-.274.74-.274 1.223ZM12.924 13.372V4.445h1.78v8.927h-1.78Zm.894-10.312a1.12 1.12 0 0 1-.79-.306 1.01 1.01 0 0 1-.321-.748c0-.296.107-.545.322-.75a1.12 1.12 0 0 1 .789-.305c.311 0 .574.102.789.306.22.204.33.453.33.749 0 .29-.11.539-.33.748a1.102 1.102 0 0 1-.79.306ZM3.788 13.372V1.378h1.851v10.4h5.45v1.594H3.788Z"/><path stroke="#3C3C3C" stroke-linecap="round" stroke-width="2" d="M1.069 21.628h35.862"/></svg>
