<svg xmlns="http://www.w3.org/2000/svg" width="260" height="140" fill="none"><rect width="120" height="80" x="70.071" y="29.833" fill="#3C3C3C" rx="8"/><rect width="118" height="78" x="68" y="28" fill="#fff" rx="7"/><rect width="118" height="78" x="68" y="28" stroke="#3C3C3C" stroke-width="2" rx="7"/><mask id="a" fill="#fff"><path d="M69 31h116v24H69V31Z"/></mask><path fill="#E0DFDD" d="M185 54H69v2h116v-2Z" mask="url(#a)"/><circle cx="89" cy="43" r="6" fill="#CCCCCA"/><rect width="64" height="4" x="105" y="41" fill="#CCCCCA" rx="2"/><mask id="b" fill="#fff"><path d="M69 55h116v24H69V55Z"/></mask><path fill="#E0DFDD" d="M185 78H69v2h116v-2Z" mask="url(#b)"/><circle cx="89" cy="67" r="6" fill="#CCCCCA"/><rect width="64" height="4" x="105" y="65" fill="#CCCCCA" rx="2"/><circle cx="89" cy="91" r="6" fill="#CCCCCA"/><rect width="64" height="4" x="105" y="89" fill="#CCCCCA" rx="2"/></svg>
