<svg xmlns="http://www.w3.org/2000/svg" width="160" height="32" fill="none"><rect width="158" height="30" x="1" y="1" fill="var(--hop-neutral-surface)" stroke="var(--hop-neutral-border-strong)" stroke-width="2" rx="7"/><path fill="var(--hop-neutral-text)" d="m58.753 18.187.88-1.472h-1.648v-1.28h1.648l-.88-1.472 1.136-.64.896 1.488.864-1.488 1.136.64-.88 1.472h1.664v1.28h-1.664l.88 1.472-1.136.64-.864-1.488-.896 1.488-1.136-.64ZM51.394 18.187l.88-1.472h-1.648v-1.28h1.648l-.88-1.472 1.136-.64.896 1.488.864-1.488 1.136.64-.88 1.472h1.664v1.28h-1.664l.88 1.472-1.136.64-.864-1.488-.896 1.488-1.136-.64ZM44.034 18.187l.88-1.472h-1.648v-1.28h1.648l-.88-1.472 1.136-.64.896 1.488.864-1.488 1.136.64-.88 1.472h1.664v1.28h-1.664l.88 1.472-1.136.64-.864-1.488-.896 1.488-1.136-.64ZM36.675 18.187l.88-1.472h-1.648v-1.28h1.648l-.88-1.472 1.136-.64.896 1.488.864-1.488 1.136.64-.88 1.472h1.664v1.28h-1.664l.88 1.472-1.136.64-.864-1.488-.896 1.488-1.136-.64ZM29.316 18.187l.88-1.472h-1.648v-1.28h1.648l-.88-1.472 1.136-.64.896 1.488.864-1.488 1.136.64-.88 1.472h1.664v1.28h-1.664l.88 1.472-1.136.64-.864-1.488-.896 1.488-1.136-.64ZM21.956 18.187l.88-1.472h-1.648v-1.28h1.648l-.88-1.472 1.136-.64.896 1.488.864-1.488 1.136.64-.88 1.472h1.664v1.28h-1.664l.88 1.472-1.136.64-.864-1.488-.896 1.488-1.136-.64ZM14.597 18.187l.88-1.472h-1.648v-1.28h1.648l-.88-1.472 1.136-.64.896 1.488.864-1.488 1.136.64-.88 1.472h1.664v1.28h-1.664l.88 1.472-1.136.64-.864-1.488-.896 1.488-1.136-.64Z"/><path fill="var(--hop-neutral-icon)" fill-rule="evenodd" d="M138.421 17.76a12.175 12.175 0 0 1-1.751-1.727 12.17 12.17 0 0 1 1.751-1.728c1.036-.823 2.285-1.486 3.59-1.486 1.317 0 2.577.675 3.617 1.507a12.146 12.146 0 0 1 1.764 1.755c-.648.963-2.456 3.165-5.381 3.165-1.305 0-2.554-.663-3.59-1.486Zm3.59-6.44c-1.797 0-3.374.897-4.523 1.81a13.599 13.599 0 0 0-2.262 2.309.975.975 0 0 0 0 1.187 13.599 13.599 0 0 0 2.262 2.309c1.149.913 2.726 1.81 4.523 1.81 4.177 0 6.443-3.493 6.862-4.198a.973.973 0 0 0-.062-1.088 13.667 13.667 0 0 0-2.246-2.304c-1.152-.922-2.741-1.836-4.554-1.836Zm-.959 4.713a.947.947 0 1 1 1.894 0 .947.947 0 0 1-1.894 0Zm.947-2.447a2.447 2.447 0 1 0 0 4.893 2.447 2.447 0 0 0 0-4.893Z" clip-rule="evenodd"/></svg>
