<svg xmlns="http://www.w3.org/2000/svg" width="121" height="72" fill="none"><path fill="#3C3C3C" d="M1.078 8a7.5 7.5 0 1 1 15 0 7.5 7.5 0 0 1-15 0Z"/><path stroke="#3C3C3C" d="M1.078 8a7.5 7.5 0 1 1 15 0 7.5 7.5 0 0 1-15 0Z"/><path fill="#fff" fill-rule="evenodd" d="M12.853 4.646a.58.58 0 0 1 .022.82L7.66 10.97a.58.58 0 0 1-.83.012L3.93 8.085a.58.58 0 1 1 .82-.82l2.476 2.477 4.807-5.074a.58.58 0 0 1 .819-.022Z" clip-rule="evenodd"/><rect width="88" height="4" x="32.578" y="6" fill="#CCCCCA" rx="2"/><path stroke="#3C3C3C" stroke-width="2" d="M1.578 36a7 7 0 1 1 14 0 7 7 0 0 1-14 0Z"/><rect width="88" height="4" x="32.578" y="34" fill="#CCCCCA" rx="2"/><path stroke="#3C3C3C" stroke-width="2" d="M1.578 64a7 7 0 1 1 14 0 7 7 0 0 1-14 0Z"/><rect width="88" height="4" x="32.578" y="62" fill="#CCCCCA" rx="2"/></svg>
