<svg xmlns="http://www.w3.org/2000/svg" width="194" height="32" fill="none"><rect width="59" height="32" x=".5" fill="var(--hop-neutral-surface-weak)" rx="16"/><path fill="var(--hop-neutral-text)" d="M37.145 21.82c-.523 0-.974-.067-1.356-.2a2.725 2.725 0 0 1-.946-.536 2.242 2.242 0 0 1-.56-.735l1.114-.518c.085.125.193.26.326.404.132.145.311.265.536.361.229.1.522.15.88.15.514 0 .93-.12 1.246-.36.318-.241.476-.621.476-1.14v-1.312h-.114c-.08.148-.193.309-.337.482a1.78 1.78 0 0 1-.597.451c-.253.125-.584.187-.994.187a2.775 2.775 0 0 1-1.428-.373c-.425-.25-.762-.617-1.011-1.103-.245-.49-.368-1.094-.368-1.813 0-.719.123-1.333.367-1.843.25-.51.587-.902 1.013-1.175a2.62 2.62 0 0 1 1.445-.41c.414 0 .75.069 1.006.205.261.137.464.3.609.488.148.185.26.348.337.488h.096v-1.096h1.308v6.831c0 .586-.135 1.068-.404 1.446a2.32 2.32 0 0 1-1.09.843c-.462.185-.98.277-1.554.277Zm-.013-3.874c.378 0 .695-.087.952-.26a1.63 1.63 0 0 0 .585-.758c.136-.33.204-.723.204-1.181 0-.45-.066-.845-.198-1.187a1.717 1.717 0 0 0-.59-.795c-.258-.193-.575-.29-.953-.29-.385 0-.708.101-.97.302-.26.2-.457.472-.59.813a3.265 3.265 0 0 0-.193 1.157c0 .438.067.821.2 1.15.132.33.329.587.59.772.26.184.582.277.963.277ZM29.193 19.301c-.426 0-.811-.078-1.157-.235a1.94 1.94 0 0 1-.82-.692c-.2-.306-.3-.68-.3-1.121 0-.381.074-.695.223-.94.148-.245.347-.44.596-.584a3.04 3.04 0 0 1 .831-.325c.31-.073.625-.127.946-.163l.964-.114c.249-.033.432-.083.548-.151.12-.072.18-.187.18-.344v-.036c0-.249-.047-.46-.144-.632a.941.941 0 0 0-.433-.404 1.597 1.597 0 0 0-.705-.138c-.29 0-.54.046-.753.138a1.463 1.463 0 0 0-.801.777l-1.26-.319a2.35 2.35 0 0 1 .657-.97c.285-.249.613-.43.982-.542.37-.112.755-.169 1.157-.169.273 0 .562.033.867.097.305.064.592.18.861.35.27.168.488.407.657.716.169.305.253.7.253 1.187v4.47h-1.289v-.922h-.072a1.757 1.757 0 0 1-.392.506 2 2 0 0 1-.657.404 2.527 2.527 0 0 1-.94.156Zm.301-1.06c.361 0 .669-.07.922-.21.257-.145.453-.332.59-.561.137-.233.205-.478.205-.735v-.867c-.048.048-.14.092-.277.132-.133.036-.285.07-.458.102a30.9 30.9 0 0 1-.494.079l-.392.048a3.185 3.185 0 0 0-.686.163 1.16 1.16 0 0 0-.488.325c-.12.136-.181.321-.181.554 0 .213.054.392.163.536.108.14.257.25.445.326.19.072.406.108.651.108ZM19.807 11.373v-1.192h6.976v1.193h-2.789v7.783h-1.386v-7.784h-2.8Z"/><rect width="59" height="32" x="67.5" fill="var(--hop-neutral-surface-weak)" rx="16"/><path fill="var(--hop-neutral-text)" d="M104.144 21.82c-.522 0-.973-.067-1.355-.2a2.73 2.73 0 0 1-.946-.536 2.248 2.248 0 0 1-.56-.735l1.115-.518c.084.125.192.26.325.404.132.145.311.265.536.361.229.1.522.15.879.15.515 0 .93-.12 1.247-.36.318-.241.476-.621.476-1.14v-1.312h-.114c-.08.148-.193.309-.337.482-.141.172-.34.323-.597.451-.253.125-.584.187-.994.187a2.777 2.777 0 0 1-1.428-.373c-.425-.25-.763-.617-1.012-1.103-.245-.49-.367-1.094-.367-1.813 0-.719.122-1.333.367-1.843.249-.51.587-.902 1.012-1.175.426-.273.908-.41 1.446-.41.414 0 .749.069 1.006.205.261.137.464.3.609.488.148.185.261.348.337.488h.096v-1.096h1.308v6.831c0 .586-.135 1.068-.404 1.446a2.317 2.317 0 0 1-1.09.843c-.462.185-.98.277-1.555.277Zm-.012-3.874c.378 0 .695-.087.952-.26.257-.176.452-.429.585-.758.136-.33.204-.723.204-1.181 0-.45-.066-.845-.198-1.187a1.723 1.723 0 0 0-.591-.795c-.257-.193-.574-.29-.952-.29-.385 0-.708.101-.969.302-.261.2-.458.472-.591.813a3.276 3.276 0 0 0-.193 1.157c0 .438.067.821.199 1.15.133.33.33.587.591.772.261.184.582.277.963.277ZM96.193 19.301c-.426 0-.811-.078-1.157-.235a1.94 1.94 0 0 1-.82-.692c-.2-.306-.3-.68-.3-1.121 0-.381.074-.695.223-.94.148-.245.347-.44.596-.584a3.04 3.04 0 0 1 .831-.325c.31-.073.625-.127.946-.163l.964-.114c.249-.033.432-.083.548-.151.12-.072.18-.187.18-.344v-.036c0-.249-.047-.46-.144-.632a.941.941 0 0 0-.434-.404 1.597 1.597 0 0 0-.704-.138c-.29 0-.54.046-.753.138a1.463 1.463 0 0 0-.801.777l-1.26-.319a2.35 2.35 0 0 1 .657-.97c.285-.249.612-.43.982-.542.37-.112.755-.169 1.157-.169.273 0 .562.033.867.097.305.064.593.18.861.35.27.168.489.407.657.716.169.305.253.7.253 1.187v4.47h-1.289v-.922h-.072a1.757 1.757 0 0 1-.392.506 2 2 0 0 1-.657.404 2.527 2.527 0 0 1-.94.156Zm.301-1.06c.361 0 .669-.07.922-.21.257-.145.454-.332.59-.561.137-.233.205-.478.205-.735v-.867c-.048.048-.14.092-.277.132-.133.036-.285.07-.458.102a30.9 30.9 0 0 1-.494.079l-.392.048a3.185 3.185 0 0 0-.686.163 1.16 1.16 0 0 0-.488.325c-.12.136-.181.321-.181.554 0 .213.054.392.163.536.108.14.257.25.445.326.19.072.406.108.651.108ZM86.807 11.373v-1.192h6.976v1.193h-2.789v7.783h-1.385v-7.784h-2.802Z"/><rect width="59" height="32" x="134.5" fill="var(--hop-neutral-surface-weak)" rx="16"/><path fill="var(--hop-neutral-text)" d="M171.144 21.82c-.522 0-.973-.067-1.355-.2a2.73 2.73 0 0 1-.946-.536 2.248 2.248 0 0 1-.56-.735l1.115-.518c.084.125.192.26.325.404.132.145.311.265.536.361.229.1.522.15.879.15.515 0 .93-.12 1.247-.36.318-.241.476-.621.476-1.14v-1.312h-.114c-.08.148-.193.309-.337.482-.141.172-.34.323-.597.451-.253.125-.584.187-.994.187a2.777 2.777 0 0 1-1.428-.373c-.425-.25-.763-.617-1.012-1.103-.245-.49-.367-1.094-.367-1.813 0-.719.122-1.333.367-1.843.249-.51.587-.902 1.012-1.175.426-.273.908-.41 1.446-.41.414 0 .749.069 1.006.205.261.137.464.3.609.488.148.185.261.348.337.488h.096v-1.096h1.308v6.831c0 .586-.135 1.068-.404 1.446a2.317 2.317 0 0 1-1.09.843c-.462.185-.98.277-1.555.277Zm-.012-3.874c.378 0 .695-.087.952-.26.257-.176.452-.429.585-.758.136-.33.204-.723.204-1.181 0-.45-.066-.845-.198-1.187a1.723 1.723 0 0 0-.591-.795c-.257-.193-.574-.29-.952-.29-.385 0-.708.101-.969.302-.261.2-.458.472-.591.813a3.276 3.276 0 0 0-.193 1.157c0 .438.067.821.199 1.15.133.33.33.587.591.772.261.184.582.277.963.277ZM163.193 19.301a2.77 2.77 0 0 1-1.157-.235 1.943 1.943 0 0 1-.819-.692c-.201-.306-.301-.68-.301-1.121 0-.381.074-.695.223-.94.148-.245.347-.44.596-.584a3.04 3.04 0 0 1 .831-.325c.31-.073.625-.127.946-.163l.964-.114c.249-.033.432-.083.548-.151.121-.072.181-.187.181-.344v-.036c0-.249-.048-.46-.145-.632a.942.942 0 0 0-.433-.404 1.599 1.599 0 0 0-.705-.138c-.289 0-.54.046-.753.138a1.449 1.449 0 0 0-.801.777l-1.26-.319c.153-.402.372-.725.657-.97.285-.249.613-.43.982-.542a3.947 3.947 0 0 1 1.157-.169c.273 0 .562.033.867.097.305.064.592.18.862.35.269.168.487.407.656.716.169.305.253.7.253 1.187v4.47h-1.289v-.922h-.072a1.767 1.767 0 0 1-.392.506 2 2 0 0 1-.656.404 2.534 2.534 0 0 1-.94.156Zm.301-1.06c.361 0 .669-.07.922-.21a1.56 1.56 0 0 0 .59-.561c.137-.233.205-.478.205-.735v-.867c-.048.048-.141.092-.277.132-.133.036-.285.07-.458.102a30.9 30.9 0 0 1-.494.079l-.392.048a3.165 3.165 0 0 0-.686.163 1.156 1.156 0 0 0-.488.325c-.121.136-.181.321-.181.554 0 .213.054.392.163.536.108.14.257.25.445.326.189.072.406.108.651.108ZM153.807 11.373v-1.192h6.976v1.193h-2.789v7.783h-1.385v-7.784h-2.802Z"/></svg>
