<svg xmlns="http://www.w3.org/2000/svg" width="120" height="43" fill="none"><rect width="83.363" height="4" x="36.637" y="6.829" fill="var(--hop-neutral-surface-strong)" rx="2"/><path fill="var(--hop-neutral-text)" d="M28.342 3.357v1.23h-4.156v-1.23h4.156ZM25.3 1.54h1.517v7.39c0 .305.064.53.192.676.127.142.34.212.636.212.082 0 .186-.009.314-.027.128-.018.237-.036.328-.055l.267 1.21c-.164.055-.34.094-.527.117-.182.027-.36.04-.533.04-.697 0-1.237-.177-1.62-.533-.383-.36-.574-.866-.574-1.517V1.539ZM16.372 11l2.994-4.512-.007 1.176-2.837-4.307h1.71l.86 1.388c.238.387.445.757.623 1.108.178.35.362.69.554 1.018h-.69c.19-.328.368-.668.532-1.018.169-.351.374-.72.616-1.108l.881-1.388h1.675l-2.857 4.348V6.563L23.406 11h-1.702L20.68 9.38a15.627 15.627 0 0 1-.622-1.08 17.07 17.07 0 0 0-.54-.998h.697c-.187.319-.362.651-.526.998-.16.342-.358.702-.595 1.08L18.06 11h-1.689ZM12.36 11.157c-.753 0-1.402-.162-1.949-.485a3.25 3.25 0 0 1-1.265-1.367c-.291-.588-.437-1.279-.437-2.072 0-.783.144-1.474.43-2.07a3.335 3.335 0 0 1 1.231-1.395c.529-.338 1.149-.506 1.86-.506.437 0 .858.073 1.264.218.41.142.777.365 1.1.67.324.306.58.702.766 1.19.192.487.288 1.075.288 1.764v.533H9.543V6.509h5.325l-.71.369c0-.465-.074-.875-.22-1.23a1.797 1.797 0 0 0-.642-.835c-.283-.2-.636-.3-1.06-.3-.424 0-.786.102-1.087.307-.3.205-.53.474-.69.807a2.558 2.558 0 0 0-.232 1.094v.765c0 .52.088.962.266 1.327.182.36.435.633.759.82.323.182.697.273 1.121.273.278 0 .531-.038.759-.116.232-.082.43-.203.595-.362.164-.164.289-.365.375-.602l1.422.335a2.519 2.519 0 0 1-.615 1.046c-.287.3-.647.535-1.08.704a4.124 4.124 0 0 1-1.47.246ZM.615 2.168V.814h7.916v1.354H5.366V11H3.794V2.168H.615Z"/><rect width="120" height="4" y="22.829" fill="var(--hop-neutral-surface-strong)" rx="2"/><rect width="90" height="4" y="38.829" fill="var(--hop-neutral-surface-strong)" rx="2"/></svg>
