<svg width="32" height="32" viewBox="0 0 32 32" fill="none" xmlns="http://www.w3.org/2000/svg">
<path fill-rule="evenodd" clip-rule="evenodd" d="M4.64294 7.5C4.64294 6.67157 5.31452 6 6.14294 6H25.8572C26.6857 6 27.3572 6.67157 27.3572 7.5V10.5036C27.3572 11.2817 26.7647 11.9215 26.0062 11.9963V24.5001C26.0062 25.3285 25.3346 26.0001 24.5062 26.0001H7.49377C6.66535 26.0001 5.99377 25.3285 5.99377 24.5001V11.9963C5.23538 11.9214 4.64294 11.2817 4.64294 10.5036V7.5ZM6.64294 8V10.0036H25.3572V8H6.64294ZM7.99377 12.0037V24.0001H24.0062V12.0037H7.99377ZM13 14C12.4477 14 12 14.4477 12 15C12 15.5523 12.4477 16 13 16H19C19.5523 16 20 15.5523 20 15C20 14.4477 19.5523 14 19 14H13Z" fill="#3C3C3C"/>
</svg>
