<svg width="32" height="32" viewBox="0 0 32 32" fill="none" xmlns="http://www.w3.org/2000/svg">
<path fill-rule="evenodd" clip-rule="evenodd" d="M6.57129 4C6.019 4 5.57129 4.44772 5.57129 5C5.57129 5.55228 6.019 6 6.57129 6H8.71416V14.4279C8.71416 14.4281 8.71416 14.4284 8.71416 14.4286L8.71416 14.4286L8.71416 26.0001H6.57129C6.019 26.0001 5.57129 26.4478 5.57129 27.0001C5.57129 27.5523 6.019 28.0001 6.57129 28.0001H19.1428C23.1666 28.0001 26.4285 24.7381 26.4285 20.7143C26.4285 17.5285 24.3837 14.8203 21.535 13.8304C22.6142 12.791 23.2856 11.331 23.2856 9.7143C23.2856 6.55838 20.7272 4 17.5713 4H6.57129ZM10.7142 15.4286H17.5713C17.575 15.4286 17.5787 15.4286 17.5824 15.4286H19.1427C22.062 15.4286 24.4285 17.7951 24.4285 20.7143C24.4285 23.6336 22.062 26.0001 19.1428 26.0001H10.7142V15.4286ZM17.5802 13.4286C19.6275 13.4238 21.2856 11.7627 21.2856 9.7143C21.2856 7.66295 19.6227 6 17.5713 6H10.7142V13.4286H17.5802Z" fill="#3C3C3C"/>
</svg>
