<svg width="32" height="32" viewBox="0 0 32 32" fill="none" xmlns="http://www.w3.org/2000/svg">
<path fill-rule="evenodd" clip-rule="evenodd" d="M25.3675 4.49006C26.6626 4.05837 28 5.02231 28 6.38743V23.3459C28 24.2068 27.4491 24.971 26.6325 25.2433L18.5162 27.9487C18.4143 27.9827 18.3075 28 18.2 28H13.8C13.6925 28 13.5857 27.9827 13.4838 27.9487L5.36754 25.2433C4.55086 24.971 4 24.2068 4 23.3459V6.38742C4 5.02231 5.3374 4.05837 6.63246 4.49006L13.9623 6.93333H18.0377L25.3675 4.49006ZM17.2 8.93333H14.8V26H17.2V8.93333ZM19.2 25.6126L26 23.3459V6.38742L19.2 8.65409V25.6126ZM12.8 25.6126V8.65409L6 6.38742L6 23.3459L12.8 25.6126Z" fill="#3C3C3C"/>
</svg>
