<svg width="32" height="32" viewBox="0 0 32 32" fill="none" xmlns="http://www.w3.org/2000/svg">
<path d="M18.25 22H13.75M24 22H26C26.5523 22 27 21.5523 27 21V18.4166C27 16.768 25.9887 15.2884 24.4527 14.6897C23.8639 14.4602 23.2597 14.2247 22.745 14.024M22.745 14.024L19.775 7.53333C19.6725 7.36774 19.5397 7.23333 19.3869 7.14076C19.2342 7.04819 19.0657 7 18.895 7H14M22.745 14.024H18.3206C17.5196 14.024 16.7959 13.5462 16.4813 12.8096L14 7M8 22H6C5.44772 22 5 21.5523 5 21V16.4236L5.02369 10.5261C5.03152 8.57641 6.61427 7 8.564 7V7H14" stroke="#3C3C3C" stroke-width="2" stroke-linecap="round" stroke-linejoin="round"/>
<rect x="8" y="20" width="5" height="5" rx="2.5" stroke="#3C3C3C" stroke-width="2"/>
<rect x="19" y="20" width="5" height="5" rx="2.5" stroke="#3C3C3C" stroke-width="2"/>
</svg>
