<svg width="32" height="32" viewBox="0 0 32 32" fill="none" xmlns="http://www.w3.org/2000/svg">
<path fill-rule="evenodd" clip-rule="evenodd" d="M4.02369 10.5221C4.03374 8.02168 6.06356 6 8.564 6H18.895C19.2571 6 19.6037 6.10282 19.9052 6.28557C20.205 6.46726 20.4474 6.71957 20.6254 7.00716C20.6473 7.04259 20.667 7.07936 20.6843 7.11725L23.4857 13.2395L24.8159 13.758C26.7358 14.5063 28 16.3559 28 18.4166V21C28 22.1046 27.1046 23 26 23H24.9646C24.7219 24.6961 23.2632 26 21.5 26C19.7368 26 18.2781 24.6961 18.0354 23H13.9646C13.7219 24.6961 12.2632 26 10.5 26C8.73676 26 7.27806 24.6961 7.03544 23H6C4.89543 23 4 22.1046 4 21V16.4196L4.02369 10.5221ZM18.3351 21.0036C18.8961 19.8192 20.1024 19 21.5 19C22.8962 19 24.1014 19.8175 24.6632 21H26V18.4166C26 17.1802 25.2415 16.0704 24.0895 15.6214L22.557 15.024H18.3206C17.1191 15.024 16.0336 14.3073 15.5617 13.2024L13.3397 8H8.564C7.16499 8 6.0293 9.13114 6.02368 10.5301L6 16.4236V21L7.33682 21C7.89855 19.8175 9.1038 19 10.5 19C11.8976 19 13.1039 19.8192 13.6649 21.0036C13.6929 21.0012 13.7213 21 13.75 21H18.25C18.2787 21 18.3071 21.0012 18.3351 21.0036ZM15.5145 8L17.4009 12.4168C17.5582 12.7851 17.9201 13.024 18.3206 13.024H21.1877L18.9007 8.02602C18.8896 8.01272 18.8804 8.00455 18.8744 8H15.5145ZM9 22.5C9 23.3284 9.67157 24 10.5 24C11.3284 24 12 23.3284 12 22.5C12 21.6716 11.3284 21 10.5 21C9.67157 21 9 21.6716 9 22.5ZM21.5 24C20.6716 24 20 23.3284 20 22.5C20 21.6716 20.6716 21 21.5 21C22.3284 21 23 21.6716 23 22.5C23 23.3284 22.3284 24 21.5 24Z" fill="#3C3C3C"/>
</svg>
