<svg width="32" height="32" viewBox="0 0 32 32" fill="none" xmlns="http://www.w3.org/2000/svg">
<path fill-rule="evenodd" clip-rule="evenodd" d="M12.7745 6.18623C13.2054 6.12568 13.7154 6.08568 14.1842 6.05836C14.8791 6.01787 15.5768 6.00068 15.9985 6.00005L16.0033 6.00004L16.0033 6.00005C16.6711 6.00228 17.8438 6.0432 18.7484 6.19653C19.1357 5.92397 19.6028 5.66872 20.0841 5.44142C20.7758 5.11481 21.5705 4.81195 22.3602 4.57394C23.1461 4.3371 23.9576 4.15527 24.679 4.08603C25.0397 4.0514 25.4011 4.04258 25.7381 4.07802C26.0649 4.11239 26.4353 4.19496 26.7645 4.39254C27.4559 4.80739 27.7359 5.62264 27.8659 6.24963C28.0109 6.94891 28.0418 7.7783 27.988 8.61694C27.8946 10.0747 27.5313 11.751 26.8803 13.0331C27.5118 14.424 28 16.2692 28 17.75C28 23.9301 22.2941 28 16 28C9.71643 28 3.99999 24.0733 3.99999 17.75C3.99999 16.2029 4.5604 14.3703 5.12802 13.0495C4.47017 11.7628 4.09449 10.0628 3.99544 8.59003C3.93874 7.74707 3.96755 6.91163 4.11623 6.21122C4.19057 5.86098 4.30214 5.50943 4.47225 5.19824C4.64108 4.88941 4.8995 4.56347 5.29164 4.36124C5.9138 4.04039 6.67061 4.01784 7.33187 4.0832C8.0254 4.15174 8.77564 4.33461 9.49242 4.57218C10.6882 4.96849 11.9346 5.56626 12.7745 6.18623ZM6.24889 6.12102C6.24307 6.12988 6.23574 6.14186 6.22715 6.15758C6.17946 6.24482 6.12156 6.39605 6.07263 6.62652C5.97477 7.08755 5.9418 7.72527 5.99093 8.45582C6.0906 9.93774 6.50709 11.5307 7.09501 12.4691C7.27653 12.7588 7.29745 13.1212 7.15047 13.4299C6.57675 14.6349 5.99999 16.4307 5.99999 17.75C5.99999 22.585 10.3936 26 16 26C21.5959 26 26 22.4588 26 17.75C26 16.4663 25.4905 14.6567 24.8663 13.4635C24.7016 13.1487 24.7163 12.7701 24.905 12.4691C25.492 11.5322 25.8978 9.96075 25.9921 8.48896C26.0386 7.76409 26.0049 7.12532 25.9076 6.65566C25.8283 6.27331 25.7352 6.1336 25.7155 6.10141C25.6863 6.09234 25.6277 6.07744 25.5289 6.06705C25.3651 6.04983 25.1451 6.05049 24.8701 6.07688C24.3201 6.12967 23.6435 6.27606 22.9373 6.48887C22.2351 6.70051 21.5336 6.96874 20.9381 7.24994C20.3241 7.53988 19.8908 7.81191 19.6723 8.01032C19.4218 8.23791 19.0731 8.3233 18.7457 8.23724C18.1027 8.0682 16.8116 8.00288 15.9991 8.00005C15.6154 8.00068 14.9569 8.01673 14.3006 8.05498C13.6183 8.09473 13.0254 8.15415 12.7277 8.22378C12.4075 8.29865 12.071 8.21135 11.8276 7.99028C11.3181 7.52745 10.1432 6.89485 8.8632 6.47062C8.23845 6.26356 7.63835 6.12323 7.13515 6.0735C6.65763 6.0263 6.37824 6.07214 6.24889 6.12102ZM6.2634 6.10109C6.26413 6.10023 6.26451 6.09984 6.26452 6.09986L6.2634 6.10109Z" fill="#3C3C3C"/>
<path fill-rule="evenodd" clip-rule="evenodd" d="M14.0761 21.6173C14.2309 21.2436 14.5955 21 15 21H17C17.4045 21 17.7691 21.2436 17.9239 21.6173C18.0787 21.991 17.9931 22.4211 17.7071 22.7071L16.7071 23.7071C16.3166 24.0976 15.6834 24.0976 15.2929 23.7071L14.2929 22.7071C14.0069 22.4211 13.9213 21.991 14.0761 21.6173Z" fill="#3C3C3C"/>
<path fill-rule="evenodd" clip-rule="evenodd" d="M8 19C8 19.5523 7.55228 20 7 20H5.66663C5.11434 20 4.66663 19.5523 4.66663 19C4.66663 18.4477 5.11434 18 5.66663 18H7C7.55228 18 8 18.4477 8 19Z" fill="#3C3C3C"/>
<path fill-rule="evenodd" clip-rule="evenodd" d="M16 15C15.4477 15 15 14.5523 15 14L15 8.00008C15 7.4478 15.4477 7.00008 16 7.00008C16.5523 7.00008 17 7.4478 17 8.00008L17 14C17 14.5523 16.5523 15 16 15Z" fill="#3C3C3C"/>
<path fill-rule="evenodd" clip-rule="evenodd" d="M19 14C18.4477 14 18 13.5523 18 13L18 7.5C18 6.94772 18.4477 6.5 19 6.5C19.5523 6.5 20 6.94772 20 7.5L20 13C20 13.5523 19.5523 14 19 14Z" fill="#3C3C3C"/>
<path fill-rule="evenodd" clip-rule="evenodd" d="M13 14C12.4477 14 12 13.5523 12 13L12 8C12 7.44772 12.4477 7 13 7C13.5523 7 14 7.44772 14 8L14 13C14 13.5523 13.5523 14 13 14Z" fill="#3C3C3C"/>
<path fill-rule="evenodd" clip-rule="evenodd" d="M27.6666 19C27.6666 19.5523 27.2189 20 26.6666 20H25C24.4477 20 24 19.5523 24 19C24 18.4477 24.4477 18 25 18H26.6666C27.2189 18 27.6666 18.4477 27.6666 19Z" fill="#3C3C3C"/>
<path d="M12.5 18.25C12.5 18.9404 11.9404 19.5 11.25 19.5C10.5596 19.5 10 18.9404 10 18.25C10 17.5596 10.5596 17 11.25 17C11.9404 17 12.5 17.5596 12.5 18.25Z" fill="#3C3C3C"/>
<path d="M22 18.25C22 18.9404 21.4404 19.5 20.75 19.5C20.0596 19.5 19.5 18.9404 19.5 18.25C19.5 17.5596 20.0596 17 20.75 17C21.4404 17 22 17.5596 22 18.25Z" fill="#3C3C3C"/>
</svg>
