<svg width="32" height="32" viewBox="0 0 32 32" fill="none" xmlns="http://www.w3.org/2000/svg">
<path fill-rule="evenodd" clip-rule="evenodd" d="M26.8 12C27.0711 12 27.2784 11.9999 27.4575 11.9959C27.621 11.9922 27.7295 11.9858 27.8055 11.978C27.7987 11.9431 27.7886 11.8961 27.7733 11.8329C27.7436 11.7102 27.7049 11.5675 27.6491 11.3626C26.722 7.96128 24.0387 5.27802 20.6374 4.35093C20.4325 4.29509 20.2898 4.25638 20.1671 4.22668C20.1039 4.2114 20.0569 4.20125 20.022 4.19449C20.0143 4.27053 20.0078 4.37901 20.0041 4.54251C20.0001 4.72155 20 4.92886 20 5.2L20 10.8C20 11.3931 20.0016 11.7176 20.0206 11.9507C20.0214 11.96 20.0221 11.9688 20.0229 11.9771C20.0312 11.9779 20.04 11.9786 20.0493 11.9794C20.2824 11.9984 20.6069 12 21.2 12H26.8ZM29.7421 12.5623C29.9011 12.0196 29.7936 11.6253 29.5787 10.8367C28.4653 6.75189 25.2481 3.5347 21.1633 2.42133C20.3747 2.20638 19.9804 2.0989 19.4377 2.25787C19.0324 2.3766 18.5172 2.77018 18.2961 3.13001C18 3.61175 18 4.14117 18 5.2V10.8C18 11.9201 18 12.4802 18.218 12.908C18.4097 13.2843 18.7157 13.5903 19.092 13.782C19.5198 14 20.0799 14 21.2 14H26.8C27.8588 14 28.3882 14 28.87 13.7039C29.2298 13.4828 29.6234 12.9676 29.7421 12.5623Z" fill="#3C3C3C"/>
<path fill-rule="evenodd" clip-rule="evenodd" d="M16 18C14.8954 18 14 17.1046 14 16V7.2C14 6.92886 13.9999 6.72155 13.9959 6.54251C13.9922 6.37901 13.9857 6.27053 13.9779 6.19449C13.9431 6.20126 13.8961 6.2114 13.8329 6.22668C13.7102 6.25638 13.5675 6.29509 13.3626 6.35093C9.11798 7.50787 6 11.3924 6 16C6 21.5229 10.4772 26 16 26C20.6076 26 24.4921 22.882 25.6491 18.6374C25.7049 18.4325 25.7436 18.2898 25.7733 18.1671C25.7886 18.1039 25.7987 18.0569 25.8055 18.0221C25.7295 18.0143 25.621 18.0078 25.4575 18.0041C25.2784 18.0001 25.0711 18 24.8 18H16ZM24.8 16C25.8588 16 26.3882 16 26.87 16.2961C27.2298 16.5172 27.6234 17.0324 27.7421 17.4377C27.9011 17.9804 27.7936 18.3747 27.5787 19.1633C26.1906 24.2559 21.5325 28 16 28C9.37258 28 4 22.6274 4 16C4 10.4675 7.74407 5.80939 12.8367 4.42133C13.6253 4.20638 14.0196 4.0989 14.5623 4.25787C14.9676 4.3766 15.4828 4.77018 15.7039 5.13001C16 5.61176 16 6.14117 16 7.2V16H24.8Z" fill="#3C3C3C"/>
</svg>
