<svg width="32" height="32" viewBox="0 0 32 32" fill="none" xmlns="http://www.w3.org/2000/svg">
<path fill-rule="evenodd" clip-rule="evenodd" d="M26 16C26 21.5228 21.5228 26 16 26C10.4772 26 6 21.5228 6 16C6 10.4772 10.4772 6 16 6C21.5228 6 26 10.4772 26 16ZM28 16C28 22.6274 22.6274 28 16 28C9.37258 28 4 22.6274 4 16C4 9.37258 9.37258 4 16 4C22.6274 4 28 9.37258 28 16ZM17 9C17 8.44772 16.5523 8 16 8C15.4477 8 15 8.44772 15 9V15C15 16.1046 15.8954 17 17 17H23C23.5523 17 24 16.5523 24 16C24 15.4477 23.5523 15 23 15H17V9Z" fill="#3C3C3C"/>
</svg>
