<svg width="32" height="32" viewBox="0 0 32 32" fill="none" xmlns="http://www.w3.org/2000/svg">
<path fill-rule="evenodd" clip-rule="evenodd" d="M8 24H24L24 14L20.0001 14C18.8955 14 18.0001 13.1046 18.0001 12V8L8 8L8 24ZM20.0001 8.82846L23.1716 12L20.0001 12V8.82846ZM24 26H8C6.89543 26 6 25.1046 6 24V8C6 6.89543 6.89543 6 8 6H19.1717C19.7021 6 20.2108 6.21072 20.5859 6.5858L25.4142 11.4142C25.7893 11.7893 26 12.298 26 12.8284L26 24C26 25.1046 25.1046 26 24 26ZM13.5896 18.9823C13.4631 17.9328 12.6687 17.3292 11.617 17.3292C10.4165 17.3292 9.50012 18.1768 9.50012 19.6635C9.50012 21.1457 10.401 21.9978 11.617 21.9978C12.7819 21.9978 13.4853 21.2234 13.5896 20.3869L12.6177 20.3824C12.5267 20.8684 12.1451 21.148 11.6325 21.148C10.9424 21.148 10.4742 20.6354 10.4742 19.6635C10.4742 18.7183 10.9358 18.1791 11.6391 18.1791C12.165 18.1791 12.5445 18.4831 12.6177 18.9823H13.5896ZM16.7437 18.6983H17.6646C17.6513 17.8884 16.9856 17.3292 15.9738 17.3292C14.9775 17.3292 14.2475 17.8795 14.2519 18.7049C14.2497 19.3751 14.7223 19.7589 15.4901 19.9431L15.9849 20.0674C16.4797 20.1872 16.7548 20.3292 16.757 20.6354C16.7548 20.9682 16.4397 21.1946 15.9516 21.1946C15.4523 21.1946 15.0929 20.9638 15.0618 20.5089H14.1321C14.1565 21.4919 14.8599 22 15.9627 22C17.0721 22 17.7245 21.4697 17.7267 20.6376C17.7245 19.881 17.1542 19.4793 16.3643 19.3018L15.956 19.2042C15.5611 19.1132 15.2304 18.9668 15.2371 18.6406C15.2371 18.3477 15.4967 18.1325 15.9671 18.1325C16.4264 18.1325 16.7082 18.341 16.7437 18.6983ZM18.1267 17.3914H19.194L20.2923 20.844H20.3345L21.435 17.3914H22.5001L20.9336 21.9357H19.6954L18.1267 17.3914Z" fill="#3C3C3C"/>
</svg>
