<svg width="32" height="32" viewBox="0 0 32 32" fill="none" xmlns="http://www.w3.org/2000/svg">
<path fill-rule="evenodd" clip-rule="evenodd" d="M19.3333 6H12.6666V8H19.3333V6ZM21.3333 8V6C21.3333 4.89543 20.4379 4 19.3333 4H12.6666C11.5621 4 10.6666 4.89543 10.6666 6V8H8H5C4.44772 8 4 8.44772 4 9C4 9.55228 4.44772 10 5 10L6 10V26C6 27.1046 6.89543 28 8 28H24C25.1046 28 26 27.1046 26 26V10H27C27.5523 10 28 9.55228 28 9C28 8.44772 27.5523 8 27 8H24H21.3333ZM24 10H19.3333H12.6666H8V26H24V10ZM14 14C14 13.4477 13.5523 13 13 13C12.4477 13 12 13.4477 12 14V22C12 22.5523 12.4477 23 13 23C13.5523 23 14 22.5523 14 22V14ZM19 13C19.5523 13 20 13.4477 20 14V22C20 22.5523 19.5523 23 19 23C18.4477 23 18 22.5523 18 22V14C18 13.4477 18.4477 13 19 13Z" fill="#3C3C3C"/>
</svg>
