<svg width="32" height="32" viewBox="0 0 32 32" fill="none" xmlns="http://www.w3.org/2000/svg">
<path fill-rule="evenodd" clip-rule="evenodd" d="M5.34516 3.9635C4.95337 3.66821 4.39394 3.69899 4.03709 4.05583C3.64657 4.44636 3.64657 5.07952 4.03709 5.47005L9.11418 10.5471C8.7556 10.8015 8.41488 11.0628 8.09362 11.3246C6.07052 12.9727 4.68908 14.7421 4.30017 15.2635C3.97229 15.7029 3.97229 16.2971 4.30017 16.7366C4.68908 17.2579 6.07052 19.0273 8.09362 20.6755C10.0996 22.3096 12.8639 23.9289 16.0001 23.9289C18.0258 23.9289 19.7908 23.4434 21.2924 22.7253L26.5625 27.9955C26.953 28.386 27.5862 28.386 27.9767 27.9955C28.3336 27.6386 28.3643 27.0792 28.0691 26.6874L5.34516 3.9635ZM9.35684 12.8751C9.73677 12.5656 10.1358 12.2656 10.5513 11.9842L12.558 13.991C12.2111 14.5803 12.0121 15.2671 12.0121 16.0004C12.0121 18.1913 13.7882 19.9673 15.979 19.9673C16.7123 19.9673 17.3992 19.7684 17.9885 19.4215L19.7746 21.2076C18.66 21.6508 17.4023 21.9289 16.0001 21.9289C13.5389 21.9289 11.2185 20.6415 9.35684 19.1249C7.91976 17.9541 6.83199 16.7087 6.26073 16C6.83199 15.2914 7.91976 14.0459 9.35684 12.8751ZM14.0121 16.0004C14.0121 15.8302 14.0338 15.6649 14.0744 15.5074L16.4721 17.905C16.3145 17.9457 16.1493 17.9673 15.979 17.9673C14.8927 17.9673 14.0121 17.0867 14.0121 16.0004Z" fill="#3C3C3C"/>
<path d="M24.6583 20.4482C26.461 18.8239 27.5018 17.136 27.7939 16.6288C28.0406 16.2006 28.0082 15.6783 27.7155 15.2841C27.3503 14.7926 25.975 13.0184 23.9475 11.3579C21.9375 9.71188 19.1571 8.07114 16.0001 8.07114C14.8878 8.07114 13.8222 8.27483 12.8207 8.61063L14.4468 10.2367C14.9561 10.1298 15.4749 10.0711 16.0001 10.0711C18.4781 10.0711 20.8131 11.3761 22.6803 12.9053C24.1453 14.1051 25.2426 15.3775 25.7929 16.0666C25.3626 16.7311 24.5101 17.9064 23.2419 19.0318L24.6583 20.4482Z" fill="#3C3C3C"/>
<path d="M19.9366 15.7265C19.8021 13.7539 18.2255 12.1774 16.2529 12.0428L19.9366 15.7265Z" fill="#3C3C3C"/>
</svg>
