<svg width="32" height="32" viewBox="0 0 32 32" fill="none" xmlns="http://www.w3.org/2000/svg">
<path fill-rule="evenodd" clip-rule="evenodd" d="M5.44058 5.30888C5.96293 5.12954 6.53177 5.40762 6.7111 5.92998L7.16497 7.25199C8.19769 6.27516 9.26104 5.68036 10.3608 5.35761C11.8569 4.91855 13.3225 5.01469 14.6597 5.17486C14.9653 5.21147 15.2645 5.25068 15.5581 5.28918C17.9162 5.59828 19.9204 5.861 22.0921 4.35651C23.1345 3.63438 24.8369 3.90544 25.3277 5.3408L28.0224 13.2208C28.2449 13.8714 28.1352 14.6754 27.5557 15.227C26.2166 16.5015 24.6494 16.9097 23.094 16.9808C21.9904 17.0313 20.8005 16.9097 19.6848 16.7957C19.2941 16.7557 18.9124 16.7167 18.5468 16.6864C17.0651 16.5634 15.7245 16.5611 14.5059 16.9779C13.4216 17.3487 12.358 18.0789 11.3861 19.5336L13.9676 26.663C14.1557 27.1823 13.8871 27.7557 13.3678 27.9438C12.8485 28.1318 12.2751 27.8633 12.0871 27.344L9.33855 19.7531L9.33289 19.737L4.81947 6.5794C4.64014 6.05704 4.91822 5.48821 5.44058 5.30888ZM7.89578 9.38125L10.6045 17.2795C11.5885 16.1797 12.6848 15.487 13.8587 15.0855C15.4873 14.5285 17.175 14.5656 18.7123 14.6932C19.1693 14.7312 19.6064 14.7758 20.0282 14.8189C21.0917 14.9274 22.0581 15.0261 23.0026 14.9829C24.2285 14.9268 25.2517 14.6284 26.1181 13.8332L23.4353 5.98795L23.4349 5.98696C23.4315 5.98434 23.4208 5.97725 23.3998 5.97165C23.3447 5.9569 23.2789 5.96735 23.231 6.00054C20.3877 7.97031 17.6002 7.58986 15.2726 7.27217C14.9815 7.23245 14.6977 7.19371 14.4218 7.16066C13.138 7.00688 12.0116 6.95749 10.924 7.27668C9.96632 7.55773 8.95824 8.15026 7.89578 9.38125Z" fill="#3C3C3C"/>
</svg>
