<svg width="32" height="32" viewBox="0 0 32 32" fill="none" xmlns="http://www.w3.org/2000/svg">
<path fill-rule="evenodd" clip-rule="evenodd" d="M13.9402 24.0909L14.0743 23.9569L7.89698 17.7796C8.18249 15.1752 8.9899 12.5248 10.808 10.7324C12.2677 9.29316 14.2712 8.51328 16.3543 8.13312L23.7997 15.6848L23.9034 15.5827C23.5049 17.7224 22.6928 19.7859 21.1925 21.2652C19.3362 23.0953 16.6006 23.8593 13.9402 24.0909ZM11.4564 24.1674L7.76837 20.4794C7.78157 21.9326 7.9161 23.153 8.0166 23.87C8.74081 23.982 9.98014 24.1362 11.4564 24.1674ZM23.9838 8.12754C24.1219 9.11237 24.3241 11.0468 24.188 13.2299L18.8849 7.85109C21.0696 7.74589 23.001 7.97555 23.9838 8.12754ZM5.87332 17.9116C6.14406 15.0241 7.01655 11.6618 9.4038 9.30816C11.791 6.95452 15.1654 6.12979 18.0564 5.9C20.9717 5.6683 23.5718 6.02773 24.5899 6.19956C25.2792 6.31589 25.8137 6.85795 25.9202 7.54881C26.0776 8.56929 26.4001 11.1742 26.1271 14.0859C25.8564 16.9734 24.9839 20.3357 22.5966 22.6894C20.2094 25.043 16.8351 25.8677 13.944 26.0975C11.0287 26.3292 8.42863 25.9698 7.41049 25.798C6.72121 25.6816 6.18677 25.1396 6.08023 24.4487C5.92285 23.4282 5.60031 20.8233 5.87332 17.9116ZM11.0341 16.9745C11.4274 16.5868 12.0605 16.5913 12.4483 16.9846L13.047 17.5918L14.1812 16.4735L13.5823 15.866C13.1945 15.4727 13.199 14.8396 13.5923 14.4518C13.9856 14.0641 14.6187 14.0686 15.0065 14.4619L15.6054 15.0694L16.7392 13.9515L16.1403 13.344C15.7525 12.9508 15.757 12.3176 16.1503 11.9299C16.5436 11.5421 17.1768 11.5466 17.5645 11.9399L20.0872 14.4986C20.475 14.8919 20.4705 15.525 20.0772 15.9128C19.6839 16.3005 19.0507 16.296 18.663 15.9028L18.1434 15.3757L17.0096 16.4936L17.5292 17.0206C17.9169 17.4139 17.9124 18.047 17.5191 18.4347C17.1259 18.8225 16.4927 18.818 16.105 18.4247L15.5854 17.8977L14.4511 19.016L14.971 19.5433C15.3587 19.9366 15.3543 20.5697 14.961 20.9575C14.5677 21.3452 13.9345 21.3407 13.5468 20.9474L11.0241 18.3887C10.6363 17.9954 10.6408 17.3623 11.0341 16.9745Z" fill="#3C3C3C"/>
</svg>
