<svg width="32" height="32" viewBox="0 0 32 32" fill="none" xmlns="http://www.w3.org/2000/svg">
<path fill-rule="evenodd" clip-rule="evenodd" d="M14.755 5C14.755 4.44772 15.2027 4 15.755 4H23.755C24.3073 4 24.755 4.44772 24.755 5C24.755 5.55228 24.3073 6 23.755 6H20.6239L13.4897 26H16.0713C16.6236 26 17.0713 26.4477 17.0713 27C17.0713 27.5523 16.6236 28 16.0713 28H12.0981C12.0802 28.0005 12.0623 28.0005 12.0444 28H8.07129C7.519 28 7.07129 27.5523 7.07129 27C7.07129 26.4477 7.519 26 8.07129 26H11.3663L18.5005 6H15.755C15.2027 6 14.755 5.55228 14.755 5Z" fill="#3C3C3C"/>
</svg>
