<svg width="32" height="32" viewBox="0 0 32 32" fill="none" xmlns="http://www.w3.org/2000/svg">
<path fill-rule="evenodd" clip-rule="evenodd" d="M6 8C6 6.89543 6.89543 6 8 6H19.1856C19.716 6 20.2247 6.21071 20.5998 6.58577L20 7.18556L20.5998 6.58577L25.4142 11.4001L24.8143 12L25.4142 11.4001C25.7893 11.7752 26 12.2839 26 12.8143V16C26 16.5523 25.5523 17 25 17C24.4477 17 24 16.5523 24 16V14L20 14C18.8954 14 18 13.1046 18 12V8L8 8L8 24H17C17.5523 24 18 24.4477 18 25C18 25.5523 17.5523 26 17 26H8C6.89543 26 6 25.1046 6 24V8ZM20 12V8.81441L23.1856 12L20 12ZM10.7499 20C10.1976 20 9.74988 20.4477 9.74988 21C9.74988 21.5523 10.1976 22 10.7499 22H15.0001C15.5524 22 16.0001 21.5523 16.0001 21C16.0001 20.4477 15.5524 20 15.0001 20H10.7499ZM9.74988 17C9.74988 16.4477 10.1976 16 10.7499 16H21.2499C21.8022 16 22.2499 16.4477 22.2499 17C22.2499 17.5523 21.8022 18 21.2499 18H10.7499C10.1976 18 9.74988 17.5523 9.74988 17ZM10.7499 12C10.1976 12 9.74988 12.4477 9.74988 13C9.74988 13.5523 10.1976 14 10.7499 14H14.9999C15.5522 14 15.9999 13.5523 15.9999 13C15.9999 12.4477 15.5522 12 14.9999 12H10.7499ZM19 23.2217C19 22.4555 19.5744 21.8235 20.3161 21.7328V21.4926C20.3161 19.7288 21.7459 18.299 23.5097 18.299C25.2735 18.299 26.7033 19.7288 26.7033 21.4926V21.7328C27.445 21.8235 28.0194 22.4555 28.0194 23.2217V26.5C28.0194 27.3284 27.3478 28 26.5194 28H20.5C19.6716 28 19 27.3284 19 26.5V23.2217ZM21 23.7217V26H26.0194V23.7217H21ZM22.3161 21.4926C22.3161 20.8334 22.8505 20.299 23.5097 20.299C24.1689 20.299 24.7033 20.8334 24.7033 21.4926V21.7217H22.3161V21.4926Z" fill="#3C3C3C"/>
</svg>
