<svg width="32" height="32" viewBox="0 0 32 32" fill="none" xmlns="http://www.w3.org/2000/svg">
<path fill-rule="evenodd" clip-rule="evenodd" d="M16 3C13.2386 3 11 5.23858 11 8V14C11 16.7614 13.2386 19 16 19C18.7614 19 21 16.7614 21 14V8C21 5.23858 18.7614 3 16 3ZM13 8C13 6.34315 14.3431 5 16 5C17.6569 5 19 6.34315 19 8V14C19 15.6569 17.6569 17 16 17C14.3431 17 13 15.6569 13 14V8ZM9 14C9 13.4477 8.55228 13 8 13C7.44772 13 7 13.4477 7 14C7 18.6326 10.5 22.4476 15 22.9451V26H12C11.4477 26 11 26.4477 11 27C11 27.5523 11.4477 28 12 28H20C20.5523 28 21 27.5523 21 27C21 26.4477 20.5523 26 20 26H17V22.947C21.4902 22.4674 25 18.7862 25 14C25 13.4477 24.5523 13 24 13C23.4477 13 23 13.4477 23 14C23 18.0066 19.8786 21 16 21C12.134 21 9 17.866 9 14Z" fill="#3C3C3C"/>
</svg>
