<svg width="32" height="32" viewBox="0 0 32 32" fill="none" xmlns="http://www.w3.org/2000/svg">
<path fill-rule="evenodd" clip-rule="evenodd" d="M16.7069 5.29291C16.5194 5.10536 16.265 5 15.9998 5C15.7346 5 15.4802 5.10537 15.2927 5.29292L12.2927 8.2931C11.9022 8.68364 11.9022 9.3168 12.2927 9.70731C12.6833 10.0978 13.3164 10.0978 13.7069 9.70726L14.9998 8.41434V15H8.41412L9.70709 13.7071C10.0976 13.3166 10.0976 12.6834 9.70712 12.2929C9.31661 11.9024 8.68345 11.9024 8.29291 12.2929L5.29273 15.2929C5.10518 15.4804 4.99982 15.7348 4.99982 16C4.99982 16.2653 5.10518 16.5196 5.29274 16.7072L8.29292 19.7071C8.68346 20.0976 9.31662 20.0976 9.70713 19.7071C10.0976 19.3165 10.0976 18.6834 9.70708 18.2929L8.41415 17H14.9998V23.5859L13.7069 22.2931C13.3164 21.9025 12.6832 21.9026 12.2927 22.2931C11.9022 22.6836 11.9022 23.3168 12.2927 23.7073L15.2927 26.7071C15.6832 27.0976 16.3163 27.0976 16.7069 26.7071L19.7069 23.7073C20.0974 23.3168 20.0975 22.6836 19.7069 22.2931C19.3164 21.9026 18.6833 21.9025 18.2927 22.2931L16.9998 23.5859V17H23.5857L22.2929 18.2929C21.9024 18.6834 21.9024 19.3166 22.2929 19.7071C22.6834 20.0976 23.3166 20.0976 23.7071 19.7071L26.7069 16.7071C27.0974 16.3166 27.0974 15.6835 26.7069 15.2929L23.7071 12.2929C23.3166 11.9024 22.6835 11.9024 22.2929 12.2929C21.9024 12.6834 21.9024 13.3165 22.2929 13.7071L23.5857 15H16.9998V8.4143L18.2927 9.70727C18.6832 10.0978 19.3164 10.0978 19.7069 9.70731C20.0974 9.31679 20.0975 8.68363 19.7069 8.29309L16.7069 5.29291Z" fill="#3C3C3C"/>
</svg>
