<svg width="32" height="32" viewBox="0 0 32 32" fill="none" xmlns="http://www.w3.org/2000/svg">
<path fill-rule="evenodd" clip-rule="evenodd" d="M15.9999 8.38342C16.2589 7.98452 16.5489 7.56536 16.8413 7.19825C17.1429 6.81968 17.534 6.38271 17.9596 6.13902C18.4388 5.86457 19.0414 6.03533 19.3054 6.52043C19.5694 7.00553 19.3948 7.62127 18.9156 7.89572C18.8505 7.933 18.6637 8.09596 18.3743 8.45921C18.1099 8.79118 17.8293 9.20017 17.5674 9.60979L17.5099 9.70021L17.6151 9.69745C18.0925 9.68374 18.5791 9.65344 18.9934 9.59675C19.4467 9.53472 19.6799 9.45712 19.745 9.41984C20.2243 9.14539 20.8268 9.31615 21.0908 9.80125C21.2553 10.1035 21.2496 10.4565 21.1059 10.7461C21.3454 10.9288 21.5 11.2172 21.5 11.5417C21.5 12.0939 21.0523 12.5417 20.5 12.5417H7.99994V14.5H9.22616L9.24994 14.4999H22.75L22.7738 14.5H24V13.5208C24 12.9686 24.4477 12.5208 25 12.5208C25.5523 12.5208 26 12.9686 26 13.5208V14.75C26 15.6316 25.3481 16.361 24.5 16.4823V24.2499C24.5 25.2164 23.7165 25.9999 22.75 25.9999H9.24994C8.28344 25.9999 7.49994 25.2164 7.49994 24.2499V16.4823C6.65187 16.361 5.99994 15.6316 5.99994 14.75V12.2917C5.99994 11.3252 6.78344 10.5417 7.74994 10.5417H10.5103C9.68792 9.63474 9.39891 8.29352 10.0249 7.14332C10.8224 5.67795 12.6565 5.34662 14.0403 6.13901C14.4658 6.38271 14.857 6.81967 15.1585 7.19825C15.451 7.56536 15.7409 7.98452 15.9999 8.38342ZM11.7604 8.1372C11.5718 8.48376 11.6759 9.08831 12.2548 9.41983C12.3199 9.45712 12.5532 9.53472 13.0065 9.59675C13.4207 9.65343 13.9073 9.68373 14.3847 9.69745L14.4899 9.70021L14.4324 9.60979C14.1705 9.20016 13.89 8.79117 13.6255 8.45921C13.3362 8.09596 13.1493 7.933 13.0842 7.89572C12.5053 7.56419 11.9491 7.79063 11.7604 8.1372ZM9.49994 16.5V23.9999H15V16.5H9.49994ZM17 16.5V23.9999H22.5V16.5H17Z" fill="#3C3C3C"/>
<path d="M25 11C27.2091 11 29 9.20914 29 7C29 4.79086 27.2091 3 25 3C22.7909 3 21 4.79086 21 7C21 9.20914 22.7909 11 25 11Z" fill="#3B57FF"/>
</svg>
