<svg width="32" height="32" viewBox="0 0 32 32" fill="none" xmlns="http://www.w3.org/2000/svg">
<path fill-rule="evenodd" clip-rule="evenodd" d="M26 16C26 21.5228 21.5228 26 16 26C10.4772 26 6 21.5228 6 16C6 10.4772 10.4772 6 16 6C21.5228 6 26 10.4772 26 16ZM28 16C28 22.6274 22.6274 28 16 28C9.37258 28 4 22.6274 4 16C4 9.37258 9.37258 4 16 4C22.6274 4 28 9.37258 28 16ZM17 11.0002C17 10.4479 16.5523 10.0002 16 10.0002C15.4477 10.0002 15 10.4479 15 11.0002V21.0002C15 21.5525 15.4477 22.0002 16 22.0002C16.5523 22.0002 17 21.5525 17 21.0002V11.0002Z" fill="#3C3C3C"/>
</svg>
