<svg width="32" height="32" viewBox="0 0 32 32" fill="none" xmlns="http://www.w3.org/2000/svg">
<path fill-rule="evenodd" clip-rule="evenodd" d="M25.0001 2C25.5523 2 26.0001 2.44772 26.0001 3V6H29C29.5523 6 30 6.44772 30 7C30 7.55228 29.5523 8 29 8H26.0001V11C26.0001 11.5523 25.5523 12 25.0001 12C24.4478 12 24.0001 11.5523 24.0001 11V8H21C20.4477 8 20 7.55228 20 7C20 6.44772 20.4477 6 21 6H24.0001V3C24.0001 2.44772 24.4478 2 25.0001 2ZM6 16C6 10.4772 10.4772 6 16 6C16.5523 6 17 5.55228 17 5C17 4.44772 16.5523 4 16 4C9.37258 4 4 9.37258 4 16C4 22.6274 9.37258 28 16 28C22.6274 28 28 22.6274 28 16C28 15.4477 27.5523 15 27 15C26.4477 15 26 15.4477 26 16C26 21.5228 21.5228 26 16 26C10.4772 26 6 21.5228 6 16ZM11.25 14.5C11.9404 14.5 12.5 13.9404 12.5 13.25C12.5 12.5596 11.9404 12 11.25 12C10.5596 12 10 12.5596 10 13.25C10 13.9404 10.5596 14.5 11.25 14.5ZM22 13.25C22 13.9404 21.4404 14.5 20.75 14.5C20.0596 14.5 19.5 13.9404 19.5 13.25C19.5 12.5596 20.0596 12 20.75 12C21.4404 12 22 12.5596 22 13.25ZM9.9866 16.8367C9.89648 16.2919 9.38171 15.9232 8.83682 16.0133C8.29194 16.1034 7.92328 16.6182 8.01341 17.1631C8.65344 21.0328 11.9753 23.9999 16 23.9999C20.0247 23.9999 23.3466 21.0328 23.9866 17.1631C24.0767 16.6182 23.7081 16.1034 23.1632 16.0133C22.6183 15.9232 22.1035 16.2919 22.0134 16.8367C21.527 19.7775 19.0095 21.9999 16 21.9999C12.9905 21.9999 10.473 19.7775 9.9866 16.8367Z" fill="#3C3C3C"/>
</svg>
