<svg width="32" height="32" viewBox="0 0 32 32" fill="none" xmlns="http://www.w3.org/2000/svg">
<path fill-rule="evenodd" clip-rule="evenodd" d="M16.0095 6C10.4708 6 5.98083 10.49 5.98083 16.0287C5.98083 18.7696 7.08044 21.2538 8.86259 23.064C9.67346 21.2407 11.0178 19.7372 12.6908 18.8524C11.5427 17.9189 10.8092 16.4952 10.8092 14.9002C10.8092 12.0885 13.0885 9.80916 15.9002 9.80916C18.7119 9.80916 20.9913 12.0885 20.9913 14.9002C20.9913 16.4656 20.2848 17.8659 19.1733 18.7998C19.5301 18.9799 19.8826 19.1875 20.2244 19.4201C20.681 19.7308 20.7993 20.3529 20.4886 20.8095C20.1779 21.2661 19.5558 21.3843 19.0992 21.0736C18.0101 20.3324 16.9078 19.9912 16.143 19.9912C13.665 19.9912 11.4313 21.7439 10.4803 24.3967C12.0654 25.4462 13.9661 26.0574 16.0095 26.0574C16.5618 26.0574 17.0095 26.5051 17.0095 27.0574C17.0095 27.6096 16.5618 28.0574 16.0095 28.0574C9.36626 28.0574 3.98083 22.6719 3.98083 16.0287C3.98083 9.38542 9.36626 4 16.0095 4C22.6528 4 28.0382 9.38542 28.0382 16.0287C28.0382 16.581 27.5905 17.0287 27.0382 17.0287C26.4859 17.0287 26.0382 16.581 26.0382 16.0287C26.0382 10.49 21.5482 6 16.0095 6ZM15.9002 11.8092C14.1931 11.8092 12.8092 13.1931 12.8092 14.9002C12.8092 16.6073 14.1931 17.9912 15.9002 17.9912C17.6074 17.9912 18.9913 16.6073 18.9913 14.9002C18.9913 13.1931 17.6074 11.8092 15.9002 11.8092Z" fill="#3C3C3C"/>
<path d="M28.7856 21.6214C29.1761 22.0119 29.1761 22.645 28.7856 23.0356L26.6642 25.1569L28.7855 27.2782C29.1761 27.6687 29.1761 28.3019 28.7855 28.6924C28.395 29.0829 27.7618 29.0829 27.3713 28.6924L25.25 26.5711L23.1287 28.6924C22.7382 29.0829 22.105 29.0829 21.7145 28.6924C21.324 28.3019 21.324 27.6687 21.7145 27.2782L23.8358 25.1569L21.7145 23.0356C21.3239 22.645 21.3239 22.0119 21.7145 21.6213C22.105 21.2308 22.7382 21.2308 23.1287 21.6213L25.25 23.7427L27.3714 21.6214C27.7619 21.2308 28.395 21.2308 28.7856 21.6214Z" fill="#3C3C3C"/>
</svg>
