<svg width="32" height="32" viewBox="0 0 32 32" fill="none" xmlns="http://www.w3.org/2000/svg">
<path fill-rule="evenodd" clip-rule="evenodd" d="M16 26C21.5228 26 26 21.5228 26 16C26 10.4772 21.5228 6 16 6C10.4772 6 6 10.4772 6 16C6 21.5228 10.4772 26 16 26ZM16 28C22.6274 28 28 22.6274 28 16C28 9.37258 22.6274 4 16 4C9.37258 4 4 9.37258 4 16C4 22.6274 9.37258 28 16 28ZM11.0503 20.9497C10.6597 20.5592 10.6597 19.9261 11.0503 19.5355L14.5858 16L11.0503 12.4645C10.6597 12.0739 10.6597 11.4408 11.0503 11.0503C11.4408 10.6597 12.074 10.6597 12.4645 11.0503L16 14.5858L19.5356 11.0503C19.9261 10.6597 20.5592 10.6597 20.9498 11.0503C21.3403 11.4408 21.3403 12.0739 20.9498 12.4645L17.4142 16L20.9498 19.5355C21.3403 19.9261 21.3403 20.5592 20.9498 20.9497C20.5592 21.3403 19.9261 21.3403 19.5356 20.9497L16 17.4142L12.4645 20.9497C12.074 21.3403 11.4408 21.3403 11.0503 20.9497Z" fill="#3C3C3C"/>
</svg>
