<svg width="32" height="32" viewBox="0 0 32 32" fill="none" xmlns="http://www.w3.org/2000/svg">
<path fill-rule="evenodd" clip-rule="evenodd" d="M19.7612 9.11377C19.7612 7.39098 21.1578 5.99438 22.8806 5.99438C24.6034 5.99438 26 7.39098 26 9.11377C26 10.8366 24.6034 12.2332 22.8806 12.2332C22.1477 12.2332 21.4739 11.9804 20.9415 11.5574L13.2406 16.0017L20.9298 20.4519C21.4641 20.0233 22.1424 19.7668 22.8806 19.7668C24.6034 19.7668 26 21.1634 26 22.8862C26 24.609 24.6034 26.0056 22.8806 26.0056C21.1578 26.0056 19.7612 24.609 19.7612 22.8862C19.7612 22.6285 19.7925 22.3781 19.8514 22.1386L11.8443 17.5044C11.3109 18.4589 10.2905 19.1043 9.11939 19.1043C7.3966 19.1043 6 17.7077 6 15.9849C6 14.2621 7.3966 12.8655 9.11939 12.8655C10.3007 12.8655 11.3287 13.5221 11.8581 14.4904L19.8549 9.87531C19.7937 9.63158 19.7612 9.37647 19.7612 9.11377ZM22.8806 7.99438C22.2624 7.99438 21.7612 8.49555 21.7612 9.11377C21.7612 9.73199 22.2624 10.2332 22.8806 10.2332C23.4988 10.2332 24 9.73199 24 9.11377C24 8.49555 23.4988 7.99438 22.8806 7.99438ZM8 15.9849C8 15.3666 8.50117 14.8655 9.11939 14.8655C9.73761 14.8655 10.2388 15.3666 10.2388 15.9849C10.2388 16.6031 9.73761 17.1043 9.11939 17.1043C8.50117 17.1043 8 16.6031 8 15.9849ZM21.7612 22.8862C21.7612 22.268 22.2624 21.7668 22.8806 21.7668C23.4988 21.7668 24 22.268 24 22.8862C24 23.5045 23.4988 24.0056 22.8806 24.0056C22.2624 24.0056 21.7612 23.5045 21.7612 22.8862Z" fill="#3C3C3C"/>
</svg>
