<svg width="32" height="32" viewBox="0 0 32 32" fill="none" xmlns="http://www.w3.org/2000/svg">
<path fill-rule="evenodd" clip-rule="evenodd" d="M12.5 4C12.9388 4 13.3263 4.28603 13.4556 4.70533L15.3472 10.8398L20.4058 13.0861C20.7671 13.2465 21 13.6047 21 14C21 14.3953 20.7671 14.7535 20.4058 14.9139L15.3472 17.1602L13.4556 23.2947C13.3263 23.714 12.9388 24 12.5 24C12.0612 24 11.6737 23.714 11.5444 23.2947L9.65276 17.1602L4.59417 14.9139C4.23288 14.7535 4 14.3953 4 14C4 13.6047 4.23288 13.2465 4.59417 13.0861L9.65276 10.8398L11.5444 4.70533C11.6737 4.28603 12.0612 4 12.5 4ZM12.5 8.39363L11.4299 11.8639C11.3448 12.14 11.1443 12.3658 10.8801 12.4831L7.46409 14L10.8801 15.5169C11.1443 15.6342 11.3448 15.86 11.4299 16.1361L12.5 19.6064L13.5701 16.1361C13.6552 15.86 13.8557 15.6342 14.1199 15.5169L17.5359 14L14.1199 12.4831C13.8557 12.3658 13.6552 12.14 13.5701 11.8639L12.5 8.39363ZM18 9C18 8.44772 18.4477 8 19 8H21C21.5523 8 22 8.44772 22 9C22 9.55228 21.5523 10 21 10H19C18.4477 10 18 9.55228 18 9ZM25 8C24.4477 8 24 8.44772 24 9C24 9.55228 24.4477 10 25 10H27C27.5523 10 28 9.55228 28 9C28 8.44772 27.5523 8 27 8H25ZM23 4C23.5523 4 24 4.44772 24 5V7C24 7.55228 23.5523 8 23 8C22.4477 8 22 7.55228 22 7V5C22 4.44772 22.4477 4 23 4ZM24 11C24 10.4477 23.5523 10 23 10C22.4477 10 22 10.4477 22 11V13C22 13.5523 22.4477 14 23 14C23.5523 14 24 13.5523 24 13V11ZM16 23C16 22.4477 16.4477 22 17 22H19C19.5523 22 20 22.4477 20 23C20 23.5523 19.5523 24 19 24H17C16.4477 24 16 23.5523 16 23ZM23 22C22.4477 22 22 22.4477 22 23C22 23.5523 22.4477 24 23 24H25C25.5523 24 26 23.5523 26 23C26 22.4477 25.5523 22 25 22H23ZM21 18C21.5523 18 22 18.4477 22 19V21C22 21.5523 21.5523 22 21 22C20.4477 22 20 21.5523 20 21V19C20 18.4477 20.4477 18 21 18ZM22 25C22 24.4477 21.5523 24 21 24C20.4477 24 20 24.4477 20 25V27C20 27.5523 20.4477 28 21 28C21.5523 28 22 27.5523 22 27V25Z" fill="#3C3C3C"/>
</svg>
