<svg width="32" height="32" viewBox="0 0 32 32" fill="none" xmlns="http://www.w3.org/2000/svg">
<path fill-rule="evenodd" clip-rule="evenodd" d="M16 26C21.5228 26 26 21.5228 26 16C26 10.4772 21.5228 6 16 6C10.4772 6 6 10.4772 6 16C6 21.5228 10.4772 26 16 26ZM16 28C22.6274 28 28 22.6274 28 16C28 9.37258 22.6274 4 16 4C9.37258 4 4 9.37258 4 16C4 22.6274 9.37258 28 16 28Z" fill="#ECEBE8"/>
<path fill-rule="evenodd" clip-rule="evenodd" d="M18.9297 6.43872C18.9577 6.45009 18.9863 6.46041 19.0155 6.46964C21.2038 7.16196 23.0982 8.59075 24.3656 10.5286C25.6331 12.4665 26.1828 14.7748 25.94 17.0571C25.9367 17.0875 25.9347 17.1179 25.9339 17.1481C25.9337 17.1537 25.9336 17.1592 25.9336 17.1648C25.9333 17.1849 25.9336 17.2049 25.9344 17.2249C25.9534 17.7116 26.2787 18.15 26.765 18.2517C27.3067 18.365 27.8421 18.0178 27.9098 17.4686C28.2558 14.664 27.6012 11.8146 26.0428 9.43172C24.4843 7.04886 22.1361 5.30717 19.428 4.50002C18.8977 4.34195 18.365 4.69329 18.2517 5.23496C18.15 5.72124 18.4212 6.19496 18.8595 6.40753C18.8775 6.41625 18.8957 6.42453 18.9143 6.43236C18.9194 6.43452 18.9245 6.43664 18.9297 6.43872Z" fill="#3C3C3C"/>
</svg>
