<svg width="32" height="32" viewBox="0 0 32 32" fill="none" xmlns="http://www.w3.org/2000/svg">
<path fill-rule="evenodd" clip-rule="evenodd" d="M9.91143 14.2596C10.3203 14.6308 10.3509 15.2633 9.97968 15.6722C9.60846 16.0811 8.97603 16.1117 8.56712 15.7404L4.43309 11.9875C3.85026 11.4584 3.85026 10.5422 4.43309 10.013L8.56712 6.26009C8.97603 5.88887 9.60846 5.91942 9.97968 6.32834C10.3509 6.73725 10.3203 7.36968 9.91143 7.7409L7.42292 10L26.0272 10C27.1317 10 28.0272 10.8955 28.0272 12L28.0272 24C28.0272 25.1046 27.1317 26 26.0272 26H16.0116C15.4593 26 15.0116 25.5523 15.0116 25C15.0116 24.4477 15.4593 24 16.0116 24H26.0272L26.0272 12L7.42242 12L9.91143 14.2596Z" fill="#3C3C3C"/>
</svg>
