<svg width="32" height="32" viewBox="0 0 32 32" fill="none" xmlns="http://www.w3.org/2000/svg">
<path fill-rule="evenodd" clip-rule="evenodd" d="M26 16C26 21.5228 21.5228 26 16 26C10.4772 26 6 21.5228 6 16C6 10.4772 10.4772 6 16 6C21.5228 6 26 10.4772 26 16ZM28 16C28 22.6274 22.6274 28 16 28C9.37258 28 4 22.6274 4 16C4 9.37258 9.37258 4 16 4C22.6274 4 28 9.37258 28 16ZM10 15C9.44772 15 9 15.4477 9 16C9 16.5523 9.44772 17 10 17H22C22.5523 17 23 16.5523 23 16C23 15.4477 22.5523 15 22 15H10Z" fill="#3C3C3C"/>
</svg>
