<svg width="32" height="32" viewBox="0 0 32 32" fill="none" xmlns="http://www.w3.org/2000/svg">
<path fill-rule="evenodd" clip-rule="evenodd" d="M8.98193 10C8.98193 8.34315 10.3251 7 11.9819 7C13.6388 7 14.9819 8.34315 14.9819 10C14.9819 11.6569 13.6388 13 11.9819 13C10.3251 13 8.98193 11.6569 8.98193 10ZM11.9819 5C9.22051 5 6.98193 7.23858 6.98193 10C6.98193 12.7614 9.22051 15 11.9819 15C14.7434 15 16.9819 12.7614 16.9819 10C16.9819 7.23858 14.7434 5 11.9819 5ZM6 22.5C6 20.567 7.56701 19 9.5 19H14.4639C16.3969 19 17.9639 20.567 17.9639 22.5V23.9995H16.3678C16.3575 23.9995 16.3472 23.9997 16.337 24H6V22.5ZM19.2302 25.9998C19.2336 25.9998 19.2371 25.9997 19.2405 25.9995H26.0995C27.1599 25.9995 28.0195 25.1399 28.0195 24.0796C28.0195 20.9868 25.5123 18.4796 22.4196 18.4796H21.6937C20.627 18.4796 19.7975 18.49 19.1819 18.5834C18.945 18.6193 18.7113 18.6715 18.4893 18.7521C17.4852 17.6742 16.0532 17 14.4639 17H9.5C6.46243 17 4 19.4624 4 22.5V25C4 25.5523 4.44771 26 5 26H19.2139C19.2193 26 19.2247 25.9999 19.2302 25.9998ZM21.6937 20.4796C20.6862 20.4796 20.0429 20.492 19.6059 20.5441C19.8372 21.1518 19.9639 21.8111 19.9639 22.5V23.9995H26.0186C25.9761 22.0483 24.381 20.4796 22.4196 20.4796H21.6937ZM18.9911 13.0002C18.9911 11.8958 19.8865 11.0004 20.9911 11.0004C22.0957 11.0004 22.9911 11.8958 22.9911 13.0002C22.9911 14.1046 22.0957 15 20.9911 15C19.8865 15 18.9911 14.1046 18.9911 13.0002ZM20.9911 9.00043C18.782 9.00043 16.9911 10.7911 16.9911 13.0002C16.9911 15.2093 18.782 17 20.9911 17C23.2002 17 24.9911 15.2093 24.9911 13.0002C24.9911 10.7911 23.2002 9.00043 20.9911 9.00043Z" fill="#3C3C3C"/>
</svg>
