<svg width="32" height="32" viewBox="0 0 32 32" fill="none" xmlns="http://www.w3.org/2000/svg">
<path fill-rule="evenodd" clip-rule="evenodd" d="M6 8.00002H26V24H6L6 8.00002ZM4 8.00002C4 6.89545 4.89543 6.00002 6 6.00002H26C27.1046 6.00002 28 6.89545 28 8.00002V24C28 25.1046 27.1046 26 26 26H6C4.89543 26 4 25.1046 4 24V8.00002ZM20.5 16.866C20.8094 16.6874 21 16.3573 21 16C21 15.6427 20.8094 15.3126 20.5 15.134L14.5 11.6699C14.1906 11.4913 13.8094 11.4913 13.5 11.6699C13.1906 11.8485 13 12.1786 13 12.5359V19.4641C13 19.8214 13.1906 20.1515 13.5 20.3301C13.8094 20.5088 14.1906 20.5088 14.5 20.3301L20.5 16.866ZM15 17.7321V14.268L18 16L15 17.7321Z" fill="#3C3C3C"/>
</svg>
