<svg width="32" height="32" viewBox="0 0 32 32" fill="none" xmlns="http://www.w3.org/2000/svg">
<path d="M0 16C0 7.16344 7.16344 0 16 0C24.8366 0 32 7.16344 32 16C32 24.8366 24.8366 32 16 32C7.16344 32 0 24.8366 0 16Z" fill="#E5DED6"/>
<path d="M9.13138 6.0686C9.43144 5.76855 9.83841 5.59998 10.2628 5.59998H23.2C24.0837 5.59998 24.8 6.31632 24.8 7.19998V23.3372C24.8 23.7616 24.6314 24.1685 24.3314 24.4686L22.8686 25.9313C22.5686 26.2314 22.1616 26.4 21.7373 26.4H8.80001C7.91636 26.4 7.20001 25.6836 7.20001 24.8V8.66272C7.20001 8.23837 7.36858 7.8314 7.66864 7.53135L9.13138 6.0686Z" fill="#2A2620"/>
<path d="M10.4 6.59998H23.2C23.5314 6.59998 23.8 6.86861 23.8 7.19998V23.2C23.8 23.5313 23.5314 23.8 23.2 23.8H10.4C10.0686 23.8 9.79999 23.5313 9.79999 23.2V7.19998C9.79999 6.8686 10.0686 6.59998 10.4 6.59998Z" fill="white"/>
<path fill-rule="evenodd" clip-rule="evenodd" d="M21.6 10.9H17.6V9.89998H21.6V10.9Z" fill="#2A2620"/>
<path fill-rule="evenodd" clip-rule="evenodd" d="M21.6 15.7H17.6V14.7H21.6V15.7Z" fill="#2A2620"/>
<path fill-rule="evenodd" clip-rule="evenodd" d="M21.6 20.5H17.6V19.5H21.6V20.5Z" fill="#2A2620"/>
<path fill-rule="evenodd" clip-rule="evenodd" d="M15.4628 9.52281L13.2248 12.3128C13.1359 12.4237 13.0041 12.4914 12.8622 12.4992C12.7204 12.507 12.5819 12.4541 12.4814 12.3537L11.2928 11.1663L11.9996 10.4588L12.7937 11.2521L14.6828 8.89709L15.4628 9.52281Z" fill="#2A2620"/>
<path fill-rule="evenodd" clip-rule="evenodd" d="M15.4628 13.9799L13.2248 16.77C13.1359 16.8808 13.0041 16.9486 12.8622 16.9564C12.7204 16.9642 12.5819 16.9112 12.4814 16.8108L11.2928 15.6234L11.9996 14.916L12.7937 15.7093L14.6828 13.3542L15.4628 13.9799Z" fill="#2A2620"/>
<path fill-rule="evenodd" clip-rule="evenodd" d="M15.4628 18.7799L13.2248 21.57C13.1359 21.6808 13.0041 21.7486 12.8622 21.7564C12.7204 21.7642 12.5819 21.7112 12.4814 21.6108L11.2928 20.4234L11.9996 19.716L12.7937 20.5093L14.6828 18.1542L15.4628 18.7799Z" fill="#2A2620"/>
</svg>
