<svg width="32" height="32" viewBox="0 0 32 32" fill="none" xmlns="http://www.w3.org/2000/svg">
<path d="M0 16C0 7.16344 7.16344 0 16 0V0C24.8366 0 32 7.16344 32 16V16C32 24.8366 24.8366 32 16 32V32C7.16344 32 0 24.8366 0 16V16Z" fill="#E5DED6"/>
<path fill-rule="evenodd" clip-rule="evenodd" d="M12.625 7.19995C12.625 6.85477 12.3452 6.57495 12 6.57495C11.841 6.57495 11.6958 6.63435 11.5855 6.73218V6.73169L11.5808 6.73639C11.5653 6.75042 11.5505 6.76523 11.5364 6.78073L10.3172 7.99995H8.79999C8.56945 7.99995 8.36168 8.09747 8.21569 8.25352L6.65349 9.81571C6.49749 9.96169 6.39999 10.1694 6.39999 10.4V23.2C6.39999 23.6418 6.75817 24 7.19999 24H24.8C25.0429 24 25.2605 23.8917 25.4072 23.7208L26.9209 22.2071C27.0918 22.0604 27.2 21.8428 27.2 21.6V8.79995C27.2 8.35812 26.8418 7.99995 26.4 7.99995H23.825V7.19995C23.825 6.85477 23.5452 6.57495 23.2 6.57495C23.0255 6.57495 22.8678 6.64643 22.7544 6.76169L21.5161 7.99995H12.625V7.19995Z" fill="#2A2620"/>
<path d="M8.8 8.80005H26.4V21.2H8.8V8.80005Z" fill="white"/>
<path fill-rule="evenodd" clip-rule="evenodd" d="M12 6.69995C12.2761 6.69995 12.5 6.92381 12.5 7.19995L12.5 10.4C12.5 10.6761 12.2761 10.9 12 10.9C11.7239 10.9 11.5 10.6761 11.5 10.4L11.5 7.19995C11.5 6.92381 11.7239 6.69995 12 6.69995Z" fill="#2A2620"/>
<path fill-rule="evenodd" clip-rule="evenodd" d="M23.2 6.69995C23.4761 6.69995 23.7 6.92381 23.7 7.19995L23.7 10.4C23.7 10.6761 23.4761 10.9 23.2 10.9C22.9239 10.9 22.7 10.6761 22.7 10.4L22.7 7.19995C22.7 6.92381 22.9239 6.69995 23.2 6.69995Z" fill="#2A2620"/>
<path fill-rule="evenodd" clip-rule="evenodd" d="M17.6 11C18.0332 11 18.4172 11.279 18.551 11.691L19.045 13.2111H20.6434C21.0766 13.2111 21.4606 13.4901 21.5944 13.9021C21.7283 14.3142 21.5816 14.7655 21.2312 15.0202L19.938 15.9597L20.432 17.4798C20.5658 17.8919 20.4192 18.3432 20.0687 18.5979C19.7182 18.8525 19.2436 18.8525 18.8931 18.5979L17.6 17.6584L16.3069 18.5979C15.9564 18.8525 15.4818 18.8525 15.1313 18.5979C14.7808 18.3432 14.6341 17.8919 14.768 17.4798L15.262 15.9597L13.9688 15.0202C13.6183 14.7655 13.4717 14.3142 13.6056 13.9021C13.7394 13.4901 14.1234 13.2111 14.5566 13.2111H16.155L16.6489 11.691C16.7828 11.279 17.1668 11 17.6 11ZM16.8815 14.2111H14.5566L16.4375 15.5777L15.7191 17.7889L17.6 16.4223L19.4809 17.7889L18.7625 15.5777L20.6434 14.2111H18.3184L17.6 12L16.8815 14.2111Z" fill="#2A2620"/>
</svg>
