<svg width="32" height="32" viewBox="0 0 32 32" fill="none" xmlns="http://www.w3.org/2000/svg">
<path d="M0 16C0 7.16344 7.16344 0 16 0C24.8366 0 32 7.16344 32 16C32 24.8366 24.8366 32 16 32C7.16344 32 0 24.8366 0 16Z" fill="#E5DED6"/>
<path d="M27.2 15.2C27.2 18.4795 25.8895 21.0895 23.6 23.2C21.4895 25.4895 18.4795 27.2 15.2 27.2C9.45629 27.2 4.80005 22.5438 4.80005 16.8C4.80005 13.5206 6.00005 11.6 8.00005 9.2C10.3609 6.36694 13.5206 4.8 16.8 4.8C22.5438 4.8 27.2 9.45624 27.2 15.2Z" fill="#2A2620"/>
<path fill-rule="evenodd" clip-rule="evenodd" d="M16.8 24.6C21.9915 24.6 26.2 20.3915 26.2 15.2C26.2 10.0086 21.9915 5.80005 16.8 5.80005C11.6085 5.80005 7.40002 10.0086 7.40002 15.2C7.40002 20.3915 11.6085 24.6 16.8 24.6ZM12.8 14.4C13.4627 14.4 14 13.8627 14 13.2C14 12.5373 13.4627 12 12.8 12C12.1372 12 11.6 12.5373 11.6 13.2C11.6 13.8627 12.1372 14.4 12.8 14.4ZM22 13.2C22 13.8627 21.4627 14.4 20.8 14.4C20.1372 14.4 19.6 13.8627 19.6 13.2C19.6 12.5373 20.1372 12 20.8 12C21.4627 12 22 12.5373 22 13.2ZM12.1939 17.2873C12.0211 17.0718 11.7065 17.0372 11.491 17.2099C11.2755 17.3826 11.2409 17.6973 11.4136 17.9127C12.6773 19.4892 14.6208 20.5 16.8 20.5C18.9793 20.5 20.9227 19.4892 22.1864 17.9127C22.3592 17.6973 22.3245 17.3826 22.1091 17.2099C21.8936 17.0372 21.5789 17.0718 21.4062 17.2873C20.3241 18.6371 18.663 19.5 16.8 19.5C14.937 19.5 13.2759 18.6371 12.1939 17.2873Z" fill="white"/>
</svg>
