<svg width="32" height="32" viewBox="0 0 32 32" fill="none" xmlns="http://www.w3.org/2000/svg">
<path d="M0 16C0 7.16344 7.16344 0 16 0C24.8366 0 32 7.16344 32 16C32 24.8366 24.8366 32 16 32C7.16344 32 0 24.8366 0 16Z" fill="#E5DED6"/>
<path d="M23.1934 22.7589C23.1814 22.7699 23.1699 22.7814 23.1589 22.7933C21.13 24.9942 18.27 26.6 15.2 26.6C9.78766 26.6 5.40005 22.2124 5.40005 16.8C5.40005 13.725 6.4988 11.9387 8.46098 9.58411C10.7222 6.87061 13.72 5.4 16.8 5.4C22.2124 5.4 26.6 9.78761 26.6 15.2C26.6 18.2944 25.3731 20.7495 23.1934 22.7589Z" fill="#2A2620" stroke="#2A2620" stroke-width="1.2" stroke-linecap="round" stroke-linejoin="round"/>
<path fill-rule="evenodd" clip-rule="evenodd" d="M16.8 24.6C21.9915 24.6 26.2 20.3915 26.2 15.2C26.2 10.0086 21.9915 5.80005 16.8 5.80005C11.6085 5.80005 7.40002 10.0086 7.40002 15.2C7.40002 20.3915 11.6085 24.6 16.8 24.6ZM12.8 14.4C13.4627 14.4 14 13.8627 14 13.2C14 12.5373 13.4627 12 12.8 12C12.1372 12 11.6 12.5373 11.6 13.2C11.6 13.8627 12.1372 14.4 12.8 14.4ZM22 13.2C22 13.8627 21.4627 14.4 20.8 14.4C20.1372 14.4 19.6 13.8627 19.6 13.2C19.6 12.5373 20.1372 12 20.8 12C21.4627 12 22 12.5373 22 13.2ZM12.1939 17.2873C12.0211 17.0718 11.7065 17.0372 11.491 17.2099C11.2755 17.3826 11.2409 17.6973 11.4136 17.9127C12.6773 19.4892 14.6208 20.5 16.8 20.5C18.9793 20.5 20.9227 19.4892 22.1864 17.9127C22.3592 17.6973 22.3245 17.3826 22.1091 17.2099C21.8936 17.0372 21.5789 17.0718 21.4062 17.2873C20.3241 18.6371 18.663 19.5 16.8 19.5C14.937 19.5 13.2759 18.6371 12.1939 17.2873Z" fill="white"/>
</svg>
