<svg width="32" height="32" viewBox="0 0 32 32" fill="none" xmlns="http://www.w3.org/2000/svg">
<path d="M0 16C0 7.16344 7.16344 0 16 0V0C24.8366 0 32 7.16344 32 16V16C32 24.8366 24.8366 32 16 32V32C7.16344 32 0 24.8366 0 16V16Z" fill="#E5DED6"/>
<path d="M9.05121 9.58028C9.07137 9.55798 9.0922 9.53607 9.1137 9.51457C9.80607 8.82221 10.9286 8.82221 11.621 9.51457L11.6799 9.57347C11.7654 9.33426 11.904 9.10976 12.0956 8.9182C12.7879 8.22584 13.9105 8.22584 14.6028 8.9182L14.88 9.19536C15.019 9.26971 15.1498 9.36405 15.2677 9.47837L15.2919 9.50189C15.3761 9.29158 15.5058 9.09443 15.6809 8.92466C16.3555 8.27068 17.4491 8.27069 18.1237 8.92466L19.4835 10.243C20.2515 9.98428 21.1186 10.2817 21.557 10.9937C21.6097 11.0356 21.6602 11.0808 21.7081 11.1292C21.8455 10.7859 22.1 10.484 22.4545 10.2856C23.2805 9.82327 24.3366 10.0975 24.8137 10.898L27.3441 15.1184L27.3523 15.1326C28.0661 16.4179 28.3117 17.7125 28.0465 18.998C27.7829 20.2757 27.0259 21.4906 25.8349 22.6453C25.6276 22.8462 25.4056 23.034 25.17 23.2057C24.8908 23.5661 24.5702 23.921 24.2099 24.2703C23.1963 25.2529 21.831 25.9195 20.2467 25.9441C19.2233 26.6854 17.9626 27.1287 16.5466 27.0643C14.7472 26.9825 12.7702 26.0848 10.7687 24.0833L6.59415 19.9087C5.90178 19.2164 5.90178 18.0938 6.59415 17.4015C6.63686 17.3587 6.68121 17.3187 6.72699 17.2812L7.13593 16.8723L6.89233 16.6287C6.19997 15.9363 6.19997 14.8138 6.89233 14.1214C6.91878 14.095 6.94585 14.0695 6.97351 14.0451L7.43158 13.587C6.79689 12.8913 6.81593 11.8123 7.4887 11.1396C7.51019 11.1181 7.53209 11.0973 7.55438 11.0771L9.05121 9.58028Z" fill="#2A2620"/>
<path d="M10.2236 13.2975C9.97361 13.0475 9.56832 13.0475 9.31835 13.2975C9.06838 13.5475 9.06838 13.9528 9.31835 14.2027L13.4876 18.3718L12.6037 19.2557L9.93412 16.5861C9.93119 16.5833 9.92828 16.5804 9.9254 16.5775C9.67542 16.3276 9.27014 16.3276 9.02017 16.5775C8.77019 16.8275 8.77019 17.2328 9.02017 17.4828L13.1948 21.6574C15.0551 23.5177 16.7792 24.2421 18.2231 24.3077C19.6641 24.3732 20.9156 23.7873 21.8528 22.8501C22.9866 21.7163 23.6263 20.6041 23.8437 19.5167C24.0587 18.4417 23.8746 17.3247 23.2401 16.1425L20.6021 11.6041C20.4253 11.2979 20.0339 11.193 19.7277 11.3698C19.4216 11.5465 19.3167 11.938 19.4934 12.2442C19.5024 12.2597 19.5107 12.2756 19.5183 12.2919L20.7736 14.9763C20.9021 15.2512 20.8147 15.5786 20.5662 15.7528C20.3177 15.927 19.9801 15.8975 19.7655 15.683L13.8018 9.71928C13.5518 9.46931 13.1465 9.46931 12.8966 9.71928C12.6466 9.96925 12.6466 10.3745 12.8966 10.6245C12.8985 10.6265 12.9005 10.6285 12.9024 10.6304L16.7677 14.4957L15.8838 15.3796L10.82 10.3156C10.57 10.0657 10.1647 10.0657 9.91472 10.3156C9.66475 10.5656 9.66475 10.9709 9.91472 11.2209L14.9785 16.2845L14.0946 17.1684L10.2325 13.3063C10.2295 13.3034 10.2265 13.3005 10.2236 13.2975Z" fill="white"/>
<path fill-rule="evenodd" clip-rule="evenodd" d="M21.6154 8.77234L23.3758 5.72321L24.4583 6.34821L22.6979 9.39734L21.6154 8.77234Z" fill="#2A2620"/>
<path fill-rule="evenodd" clip-rule="evenodd" d="M18.4853 8.13397L19.5368 4.2099L20.7442 4.53342L19.6927 8.4575L18.4853 8.13397Z" fill="#2A2620"/>
<path fill-rule="evenodd" clip-rule="evenodd" d="M15.8757 7.9007L15.1923 5.35005L16.3997 5.02652L17.0831 7.57717L15.8757 7.9007Z" fill="#2A2620"/>
</svg>
