<svg width="32" height="32" viewBox="0 0 32 32" fill="none" xmlns="http://www.w3.org/2000/svg">
<path d="M0 16C0 7.16344 7.16344 0 16 0V0C24.8366 0 32 7.16344 32 16V16C32 24.8366 24.8366 32 16 32V32C7.16344 32 0 24.8366 0 16V16Z" fill="#E5DED6"/>
<path fill-rule="evenodd" clip-rule="evenodd" d="M13.3977 9.00322C13.3313 9.1029 13.2515 9.20288 13.1588 9.29671C13.4322 9.58376 13.6 9.97228 13.6 10.4V12.8H14.4V12C14.4 11.5723 14.5678 11.1838 14.8412 10.8967C14.7485 10.8029 14.6687 10.7029 14.6023 10.6033C14.3336 10.2003 14.2 9.70129 14.2 9.20003C14.2 8.48345 14.6149 7.94494 14.8644 7.67405C14.9519 7.57904 15.0383 7.49643 15.1155 7.42768L16.4201 6.12317C16.434 6.10737 16.4476 6.0923 16.4608 6.07797C16.5042 6.03073 16.5497 5.98681 16.597 5.94622L16.6171 5.92616V5.92931C17.2421 5.41128 18.1727 5.46083 18.7392 6.07797C18.9882 6.34925 19.4 6.88618 19.4 7.59999C19.4 8.10125 19.2664 8.60029 18.9977 9.00322C18.9313 9.1029 18.8515 9.20288 18.7588 9.2967C19.0322 9.58376 19.2 9.97228 19.2 10.4V12.8H20V12C20 11.5723 20.1678 11.1838 20.4412 10.8967C20.3485 10.8029 20.2687 10.7029 20.2023 10.6033C19.9336 10.2003 19.8 9.70129 19.8 9.20003C19.8 8.48345 20.2149 7.94494 20.4644 7.67405C20.5482 7.58309 20.6309 7.50351 20.7056 7.43656L22.0285 6.11365C22.0395 6.10129 22.0503 6.08939 22.0608 6.07797C22.1018 6.03332 22.1447 5.99164 22.1892 5.95293L22.216 5.92616V5.93019C22.841 5.41122 23.7724 5.46048 24.3392 6.07797C24.5882 6.34925 25 6.88618 25 7.59999C25 8.10125 24.8664 8.60029 24.5977 9.00322C24.5313 9.1029 24.4515 9.20288 24.3588 9.2967C24.6322 9.58376 24.8 9.97228 24.8 10.4V12.8H26.4C26.7866 12.8 27.1092 13.0742 27.1838 13.4388C27.1944 13.4909 27.2 13.5448 27.2 13.6C27.2 13.6 27.2 13.6 27.2 13.6V23.2V23.2C27.2 23.2276 27.1986 23.2549 27.1959 23.2818C27.1898 23.3417 27.1771 23.3997 27.1585 23.4549C27.1121 23.5932 27.029 23.7145 26.9207 23.8074L25.4074 25.3207C25.2607 25.4917 25.043 25.6 24.8 25.6H7.2C6.75817 25.6 6.4 25.2419 6.4 24.8V15.2C6.4 14.9857 6.48429 14.7911 6.62153 14.6474C6.63994 14.6282 6.6593 14.6098 6.67955 14.5925L8.19213 13.0799C8.20657 13.063 8.22171 13.0468 8.23748 13.0312C8.382 12.8882 8.5807 12.8 8.8 12.8L8.8 12C8.8 11.5723 8.96783 11.1838 9.24124 10.8967C9.14851 10.8029 9.06872 10.7029 9.00227 10.6033C8.73365 10.2003 8.6 9.70129 8.6 9.20003C8.6 8.48345 9.01495 7.94494 9.26443 7.67405C9.3339 7.59863 9.40262 7.53102 9.46666 7.47195L10.8625 6.07617C10.8926 6.04347 10.9237 6.01237 10.9557 5.98287L11.0124 5.92621V5.93318C11.6374 5.41104 12.5713 5.4593 13.1392 6.07797C13.3882 6.34925 13.8 6.88618 13.8 7.59999C13.8 8.10125 13.6664 8.60029 13.3977 9.00322ZM12.1517 8.77843C12.0352 8.27183 11.7334 7.88883 11.5356 7.67405C11.4264 7.55547 11.319 7.45621 11.2288 7.37911C11.2907 7.13762 11.4438 6.92156 11.5975 6.75423C11.8172 6.51487 12.1828 6.51487 12.4025 6.75423C12.6017 6.97117 12.8 7.27003 12.8 7.59999C12.8 8.18491 12.521 8.67208 12.1517 8.77843ZM23.3517 8.77843C23.721 8.67208 24 8.18491 24 7.59999C24 7.27003 23.8017 6.97117 23.6025 6.75423C23.3828 6.51487 23.0172 6.51487 22.7975 6.75423C22.6438 6.92156 22.4907 7.13762 22.4288 7.37911C22.519 7.45622 22.6264 7.55547 22.7356 7.67405C22.9334 7.88883 23.2352 8.27183 23.3517 8.77843ZM17.7517 8.77843C18.121 8.67209 18.4 8.18491 18.4 7.59999C18.4 7.27003 18.2017 6.97117 18.0025 6.75423C17.7828 6.51487 17.4172 6.51487 17.1975 6.75423C17.0438 6.92156 16.8907 7.13762 16.8288 7.37911C16.919 7.45622 17.0264 7.55547 17.1356 7.67405C17.3334 7.88883 17.6352 8.27183 17.7517 8.77843Z" fill="#2A2620"/>
<path fill-rule="evenodd" clip-rule="evenodd" d="M11.984 9.79999C12.3154 9.79999 12.584 10.0686 12.584 10.4L12.584 13.6C12.584 13.9314 12.3154 14.2 11.984 14.2C11.6526 14.2 11.384 13.9314 11.384 13.6L11.384 10.4C11.384 10.0686 11.6526 9.79999 11.984 9.79999Z" fill="white"/>
<path fill-rule="evenodd" clip-rule="evenodd" d="M11.984 8.79999C12.8677 8.79999 13.584 9.51633 13.584 10.4L13.584 13.6C13.584 14.4836 12.8677 15.2 11.984 15.2C11.1003 15.2 10.384 14.4836 10.384 13.6L10.384 10.4C10.384 9.51633 11.1003 8.79999 11.984 8.79999ZM12.584 10.4C12.584 10.0686 12.3154 9.79999 11.984 9.79999C11.6526 9.79999 11.384 10.0686 11.384 10.4L11.384 13.6C11.384 13.9314 11.6526 14.2 11.984 14.2C12.3154 14.2 12.584 13.9314 12.584 13.6L12.584 10.4Z" fill="#2A2620"/>
<path fill-rule="evenodd" clip-rule="evenodd" d="M17.584 9.79999C17.9154 9.79999 18.184 10.0686 18.184 10.4L18.184 13.6C18.184 13.9314 17.9154 14.2 17.584 14.2C17.2526 14.2 16.984 13.9314 16.984 13.6L16.984 10.4C16.984 10.0686 17.2526 9.79999 17.584 9.79999Z" fill="white"/>
<path fill-rule="evenodd" clip-rule="evenodd" d="M17.584 8.79999C18.4677 8.79999 19.184 9.51633 19.184 10.4L19.184 13.6C19.184 14.4836 18.4677 15.2 17.584 15.2C16.7003 15.2 15.984 14.4836 15.984 13.6L15.984 10.4C15.984 9.51633 16.7003 8.79999 17.584 8.79999ZM18.184 10.4C18.184 10.0686 17.9154 9.79999 17.584 9.79999C17.2526 9.79999 16.984 10.0686 16.984 10.4L16.984 13.6C16.984 13.9314 17.2526 14.2 17.584 14.2C17.9154 14.2 18.184 13.9314 18.184 13.6L18.184 10.4Z" fill="#2A2620"/>
<path fill-rule="evenodd" clip-rule="evenodd" d="M23.184 9.79999C23.5154 9.79999 23.784 10.0686 23.784 10.4L23.784 13.6C23.784 13.9314 23.5154 14.2 23.184 14.2C22.8526 14.2 22.584 13.9314 22.584 13.6L22.584 10.4C22.584 10.0686 22.8526 9.79999 23.184 9.79999Z" fill="white"/>
<path fill-rule="evenodd" clip-rule="evenodd" d="M23.184 8.79999C24.0677 8.79999 24.784 9.51633 24.784 10.4L24.784 13.6C24.784 14.4836 24.0677 15.2 23.184 15.2C22.3003 15.2 21.584 14.4836 21.584 13.6L21.584 10.4C21.584 9.51633 22.3003 8.79999 23.184 8.79999ZM23.784 10.4C23.784 10.0686 23.5154 9.79999 23.184 9.79999C22.8526 9.79999 22.584 10.0686 22.584 10.4L22.584 13.6C22.584 13.9314 22.8526 14.2 23.184 14.2C23.5154 14.2 23.784 13.9314 23.784 13.6L23.784 10.4Z" fill="#2A2620"/>
<path d="M7.984 13.8C7.984 13.2477 8.43172 12.8 8.984 12.8H26.184C26.7363 12.8 27.184 13.2477 27.184 13.8V23C27.184 23.5523 26.7363 24 26.184 24H8.984C8.43172 24 7.984 23.5523 7.984 23V13.8Z" fill="white"/>
<path fill-rule="evenodd" clip-rule="evenodd" d="M26.184 13.8L8.984 13.8L8.984 23L26.184 23V13.8ZM8.984 12.8C8.43172 12.8 7.984 13.2477 7.984 13.8V23C7.984 23.5523 8.43172 24 8.984 24H26.184C26.7363 24 27.184 23.5523 27.184 23V13.8C27.184 13.2477 26.7363 12.8 26.184 12.8H8.984Z" fill="#2A2620"/>
<path d="M12.784 7.60002C12.784 8.26277 12.4258 8.80002 11.984 8.80002C11.5422 8.80002 11.184 8.26277 11.184 7.60002C11.184 6.93728 11.984 6.40002 11.984 6.40002C11.984 6.40002 12.784 6.93728 12.784 7.60002Z" fill="white"/>
<path fill-rule="evenodd" clip-rule="evenodd" d="M12.5415 5.56985L11.984 6.40001L11.4265 5.56985L11.984 5.19543L12.5415 5.56985ZM11.984 6.40001C11.4265 5.56985 11.4267 5.56969 11.4265 5.56985L11.4245 5.5712L11.4222 5.57277L11.4166 5.57655L11.402 5.58666C11.3907 5.59453 11.3765 5.60467 11.3596 5.61699C11.326 5.64156 11.2815 5.6752 11.2297 5.71712C11.1277 5.79972 10.9896 5.92073 10.8484 6.07403C10.5989 6.34492 10.184 6.88343 10.184 7.60001C10.184 8.10127 10.3176 8.60031 10.5863 9.00324C10.8502 9.39918 11.3247 9.80001 11.984 9.80001C12.6433 9.80001 13.1178 9.39918 13.3817 9.00324C13.6504 8.60031 13.784 8.10127 13.784 7.60001C13.784 6.88343 13.3691 6.34492 13.1196 6.07403C12.9784 5.92073 12.8403 5.79972 12.7383 5.71712C12.6865 5.6752 12.642 5.64156 12.6084 5.61699C12.5915 5.60467 12.5772 5.59453 12.566 5.58666L12.5514 5.57655L12.5458 5.57277L12.5435 5.5712L12.5425 5.5705C12.5422 5.57034 12.5415 5.56985 11.984 6.40001ZM11.984 6.40001C11.984 6.40001 12.784 6.93727 12.784 7.60001C12.784 8.26275 12.4258 8.80001 11.984 8.80001C11.5422 8.80001 11.184 8.26275 11.184 7.60001C11.184 6.93727 11.984 6.40001 11.984 6.40001Z" fill="#2A2620"/>
<path d="M18.384 7.60002C18.384 8.26277 18.0258 8.80002 17.584 8.80002C17.1422 8.80002 16.784 8.26277 16.784 7.60002C16.784 6.93728 17.584 6.40002 17.584 6.40002C17.584 6.40002 18.384 6.93728 18.384 7.60002Z" fill="white"/>
<path fill-rule="evenodd" clip-rule="evenodd" d="M18.1415 5.56985L17.584 6.40001L17.0265 5.56985L17.584 5.19543L18.1415 5.56985ZM17.584 6.40001C17.0265 5.56985 17.0267 5.56969 17.0265 5.56985L17.0245 5.5712L17.0222 5.57277L17.0166 5.57655L17.002 5.58666C16.9907 5.59453 16.9765 5.60467 16.9596 5.61699C16.926 5.64156 16.8815 5.6752 16.8297 5.71712C16.7277 5.79972 16.5896 5.92073 16.4484 6.07403C16.1989 6.34492 15.784 6.88343 15.784 7.60001C15.784 8.10127 15.9176 8.60031 16.1863 9.00324C16.4502 9.39918 16.9247 9.80001 17.584 9.80001C18.2433 9.80001 18.7178 9.39918 18.9817 9.00324C19.2504 8.60031 19.384 8.10127 19.384 7.60001C19.384 6.88343 18.9691 6.34492 18.7196 6.07403C18.5784 5.92073 18.4403 5.79972 18.3383 5.71712C18.2865 5.6752 18.242 5.64156 18.2084 5.61699C18.1915 5.60467 18.1772 5.59453 18.166 5.58666L18.1514 5.57655L18.1458 5.57277L18.1435 5.5712L18.1425 5.5705C18.1422 5.57034 18.1415 5.56985 17.584 6.40001ZM17.584 6.40001C17.584 6.40001 18.384 6.93727 18.384 7.60001C18.384 8.26275 18.0258 8.80001 17.584 8.80001C17.1422 8.80001 16.784 8.26275 16.784 7.60001C16.784 6.93727 17.584 6.40001 17.584 6.40001Z" fill="#2A2620"/>
<path d="M23.984 7.60002C23.984 8.26277 23.6258 8.80002 23.184 8.80002C22.7422 8.80002 22.384 8.26277 22.384 7.60002C22.384 6.93728 23.184 6.40002 23.184 6.40002C23.184 6.40002 23.984 6.93728 23.984 7.60002Z" fill="white"/>
<path fill-rule="evenodd" clip-rule="evenodd" d="M23.7415 5.56985L23.184 6.40001L22.6265 5.56985L23.184 5.19543L23.7415 5.56985ZM23.184 6.40001C22.6265 5.56985 22.6267 5.56969 22.6265 5.56985L22.6245 5.5712L22.6222 5.57277L22.6166 5.57655L22.602 5.58666C22.5908 5.59453 22.5765 5.60467 22.5596 5.61699C22.526 5.64156 22.4815 5.6752 22.4297 5.71712C22.3277 5.79972 22.1896 5.92073 22.0484 6.07403C21.7989 6.34492 21.384 6.88343 21.384 7.60001C21.384 8.10127 21.5176 8.60031 21.7863 9.00324C22.0502 9.39918 22.5247 9.80001 23.184 9.80001C23.8433 9.80001 24.3178 9.39918 24.5817 9.00324C24.8504 8.60031 24.984 8.10127 24.984 7.60001C24.984 6.88343 24.5691 6.34492 24.3196 6.07403C24.1784 5.92073 24.0403 5.79972 23.9383 5.71712C23.8865 5.6752 23.842 5.64156 23.8084 5.61699C23.7915 5.60467 23.7773 5.59453 23.766 5.58666L23.7514 5.57655L23.7458 5.57277L23.7435 5.5712L23.7425 5.5705C23.7422 5.57034 23.7415 5.56985 23.184 6.40001ZM23.184 6.40001C23.184 6.40001 23.984 6.93727 23.984 7.60001C23.984 8.26275 23.6258 8.80001 23.184 8.80001C22.7422 8.80001 22.384 8.26275 22.384 7.60001C22.384 6.93727 23.184 6.40001 23.184 6.40001Z" fill="#2A2620"/>
<path fill-rule="evenodd" clip-rule="evenodd" d="M10.0184 17.9C9.73405 17.9 9.31972 17.6857 8.79727 16.9186L7.97073 17.4815C8.53791 18.3143 9.21319 18.9 10.0184 18.9C10.8237 18.9 11.499 18.3143 12.0661 17.4815C12.5886 16.7143 13.0029 16.5 13.2873 16.5C13.5717 16.5 13.986 16.7143 14.5085 17.4815C15.0756 18.3143 15.7509 18.9 16.5562 18.9C17.3614 18.9 18.0367 18.3143 18.6039 17.4815C19.1263 16.7143 19.5406 16.5 19.825 16.5C20.1094 16.5 20.5237 16.7143 21.0462 17.4815C21.6134 18.3143 22.2887 18.9 23.0939 18.9C23.8991 18.9 24.5744 18.3143 25.1416 17.4815C25.4621 17.0108 25.7508 16.7377 25.9954 16.6043C26.2196 16.4822 26.4105 16.473 26.607 16.5474L26.961 15.6121C26.4723 15.4272 25.978 15.475 25.5169 15.7263C25.0763 15.9664 24.6798 16.3831 24.3151 16.9186C23.7926 17.6857 23.3783 17.9 23.0939 17.9C22.8095 17.9 22.3952 17.6857 21.8727 16.9186C21.3056 16.0857 20.6303 15.5 19.825 15.5C19.0198 15.5 18.3445 16.0857 17.7773 16.9186C17.2549 17.6857 16.8405 17.9 16.5562 17.9C16.2718 17.9 15.8574 17.6857 15.335 16.9186C14.7678 16.0857 14.0925 15.5 13.2873 15.5C12.4821 15.5 11.8068 16.0857 11.2396 16.9186C10.7172 17.6857 10.3028 17.9 10.0184 17.9Z" fill="#2A2620"/>
</svg>
