<svg width="32" height="32" viewBox="0 0 32 32" fill="none" xmlns="http://www.w3.org/2000/svg">
<path d="M0 16C0 7.16344 7.16344 0 16 0V0C24.8366 0 32 7.16344 32 16V16C32 24.8366 24.8366 32 16 32V32C7.16344 32 0 24.8366 0 16V16Z" fill="#E5DED6"/>
<path d="M6 22.7695C6 23.6405 6.70603 24.3465 7.57695 24.3465H11.1129C11.3735 24.3465 11.6238 24.2447 11.8105 24.063L26.198 10.0541C26.3913 9.86585 26.5004 9.60746 26.5004 9.33762V8.57695C26.5004 7.70603 25.7944 7 24.9234 7H9.01862C8.60039 7 8.19929 7.16614 7.90355 7.46188L6.46188 8.90355C6.16614 9.19929 6 9.60039 6 10.0186V22.7695Z" fill="#2A2620"/>
<path d="M11.0308 11.5338C11.0308 10.9374 11.5143 10.4539 12.1107 10.4539C12.7071 10.4539 13.1905 10.9374 13.1905 11.5338C13.1905 12.1301 12.7071 12.6136 12.1107 12.6136C11.5143 12.6136 11.0308 12.1301 11.0308 11.5338Z" fill="white"/>
<path fill-rule="evenodd" clip-rule="evenodd" d="M8.36542 8.78851C8.36542 8.23623 8.81313 7.78851 9.36542 7.78851H24.7119C25.2642 7.78851 25.7119 8.23623 25.7119 8.78851V9.3443C25.7119 9.35783 25.7064 9.37078 25.6967 9.3802L20.9134 14.0186L19.9826 12.6569C19.7163 12.2673 19.1725 12.1917 18.81 12.4937L14.6466 15.9632L12.9298 14.8187C12.5136 14.5413 11.9477 14.7095 11.7507 15.1692L10.0526 19.1314C9.71326 19.9233 10.2941 20.8041 11.1556 20.8041H13.9158L12.7166 21.967C12.7073 21.976 12.6948 21.9811 12.6818 21.9811H9.36542C8.81313 21.9811 8.36542 21.5334 8.36542 20.9811V8.78851ZM12.1107 9.85394C11.1829 9.85394 10.4308 10.606 10.4308 11.5338C10.4308 12.4615 11.1829 13.2136 12.1107 13.2136C13.0384 13.2136 13.7905 12.4615 13.7905 11.5338C13.7905 10.606 13.0384 9.85394 12.1107 9.85394Z" fill="white"/>
<path d="M19.3221 13.1083L20.3306 14.5837L14.7408 20.0041H11.1556C10.8684 20.0041 10.6748 19.7105 10.7879 19.4466L12.486 15.4844L14.2028 16.6289C14.4976 16.8254 14.8866 16.8046 15.1587 16.5778L19.3221 13.1083Z" fill="white"/>
<path d="M15.7733 23.3366C15.4583 23.6516 15.6814 24.1902 16.1268 24.1902H20.1673H24.1286C24.4216 24.1902 24.7026 24.0709 24.9098 23.8585L25.9198 22.8233C26.1269 22.6109 26.2433 22.3229 26.2433 22.0226V17.9622V14.0737C26.2433 13.6282 25.7048 13.4051 25.3898 13.7201L15.7733 23.3366Z" fill="#2A2620"/>
<path fill-rule="evenodd" clip-rule="evenodd" d="M25.5772 14.6525C25.5772 14.608 25.5233 14.5857 25.4918 14.6172L22.8879 17.2211L24.0566 19.5587C24.4556 20.3565 23.8754 21.2953 22.9833 21.2953H18.8137L18.0025 22.1065C17.971 22.138 17.9933 22.1919 18.0378 22.1919H24.5772C25.1295 22.1919 25.5772 21.7442 25.5772 21.1919V14.6525ZM22.9833 20.4953H19.7524L22.3366 17.9074L23.3411 19.9164C23.4741 20.1824 23.2807 20.4953 22.9833 20.4953Z" fill="white"/>
</svg>
