<svg width="32" height="32" viewBox="0 0 32 32" fill="none" xmlns="http://www.w3.org/2000/svg">
<path d="M0 16C0 7.16344 7.16344 0 16 0C24.8366 0 32 7.16344 32 16C32 24.8366 24.8366 32 16 32C7.16344 32 0 24.8366 0 16Z" fill="#E5DED6"/>
<path d="M27.0876 22.9999C28.0887 21.9988 28.313 20.4589 27.6391 19.2139L20.0683 5.22643C19.4355 4.10474 18.2582 3.59991 16.8019 3.67068C15.2309 3.74703 13.9862 4.90885 13.125 6.22497L5.01336 21.0657C4.00213 22.9314 5.35292 25.2 7.47501 25.2H23.562C24.4107 25.2 25.2247 24.8629 25.8248 24.2627L27.0876 22.9999Z" fill="#2A2620"/>
<path d="M25.7466 22.3423C26.6986 22.0797 27.2264 20.9712 26.7215 20.0384L19.0128 5.79771C18.7098 5.23791 18.1562 4.95845 17.603 4.95938C17.0519 4.96033 16.5013 5.23949 16.1991 5.79695L8.48044 20.0376C7.98841 20.9454 8.47499 22.0201 9.379 22.3193C9.47031 22.3495 9.56587 22.3718 9.66512 22.3852C9.73724 22.395 9.81131 22.4 9.8871 22.4H25.3144C25.3144 22.4 25.3144 22.4 25.3144 22.4C25.466 22.4 25.6107 22.3798 25.7466 22.3423Z" fill="white"/>
<path fill-rule="evenodd" clip-rule="evenodd" d="M18.1 9.10001V15.7H17.1V9.10001H18.1Z" fill="#2A2620"/>
<path d="M19.2 18.8C19.2 19.6837 18.4837 20.4 17.6 20.4C16.7163 20.4 16 19.6837 16 18.8C16 17.9164 16.7163 17.2 17.6 17.2C18.4837 17.2 19.2 17.9164 19.2 18.8Z" fill="#2A2620"/>
</svg>
