<svg width="32" height="32" viewBox="0 0 32 32" fill="none" xmlns="http://www.w3.org/2000/svg">
<path d="M0 16C0 7.16344 7.16344 0 16 0C24.8366 0 32 7.16344 32 16C32 24.8366 24.8366 32 16 32C7.16344 32 0 24.8366 0 16Z" fill="#E5DED6"/>
<path d="M18.6741 7.34816C18.6741 7.90045 19.1218 8.34816 19.6741 8.34816H23.0519C23.3832 8.34816 23.6519 8.61679 23.6519 8.94816V12.3259C23.6519 12.8782 24.0996 13.3259 24.6519 13.3259H25.6C26.815 13.3259 27.8 14.3109 27.8 15.5259V15.763C27.8 16.978 26.815 17.963 25.6 17.963H24.6519C24.0996 17.963 23.6519 18.4107 23.6519 18.963V22.3408C23.6519 22.6721 23.3832 22.9408 23.0519 22.9408H9.65927C9.32789 22.9408 9.05927 22.6721 9.05927 22.3408V8.94816C9.05927 8.61679 9.32789 8.34816 9.65927 8.34816H13.037C13.5893 8.34816 14.037 7.90045 14.037 7.34816V6.40001C14.037 5.18499 15.022 4.20001 16.237 4.20001H16.4741C17.6891 4.20001 18.6741 5.18499 18.6741 6.40001V7.34816Z" fill="white"/>
<path d="M13.7798 5.05669C13.5613 5.45547 13.4371 5.91323 13.4371 6.40001V7.34816C13.4371 7.56908 13.258 7.74816 13.0371 7.74816H12.0002L12.0645 7.49677C12.2749 6.6738 12.8533 5.91748 13.6015 5.22053C13.661 5.16511 13.7204 5.11044 13.7798 5.05669ZM25.6 18.563C26.0744 18.563 26.5213 18.445 26.9128 18.2368C26.8737 18.2772 26.8341 18.3173 26.7942 18.3572C26.0234 19.1281 25.2992 19.7159 24.4958 19.9324L24.2519 19.9981V18.963C24.2519 18.7421 24.431 18.563 24.6519 18.563H25.6ZM23.0519 23.5408C23.1865 23.5408 23.3159 23.5186 23.4368 23.4777L22.2074 24.7071C22.0198 24.8947 21.7655 25 21.5002 25H8.05928C7.47427 25 7.00002 24.5258 7.00002 23.9407V10.4998C7.00002 10.2346 7.10538 9.98022 7.29292 9.79268L6.87567 9.37544L7.29292 9.79268L8.52237 8.56322C8.48148 8.68406 8.4593 8.81352 8.4593 8.94816V22.3408C8.4593 23.0035 8.99656 23.5408 9.6593 23.5408H23.0519Z" fill="#2A2620" stroke="#2A2620" stroke-width="1.2"/>
<path d="M17.2704 14.7296V11.4111H16.2704V14.7296H12.9518V15.7296H16.2704V19.0482H17.2704V15.7296H20.5889V14.7296H17.2704Z" fill="#2A2620"/>
</svg>
