<svg width="32" height="32" viewBox="0 0 32 32" fill="none" xmlns="http://www.w3.org/2000/svg">
<path d="M0 16C0 7.16344 7.16344 0 16 0C24.8366 0 32 7.16344 32 16C32 24.8366 24.8366 32 16 32C7.16344 32 0 24.8366 0 16Z" fill="#E5DED6"/>
<path fill-rule="evenodd" clip-rule="evenodd" d="M13.1926 4.78149C14.0378 3.99417 15.0097 3.20001 16.3555 3.20001C18.1883 3.20001 19.6741 4.68576 19.6741 6.51853V7.34816H22.9926C23.909 7.34816 24.6519 8.09103 24.6519 9.00742V12.3259H25.4815C27.3142 12.3259 28.8 13.8117 28.8 15.6445C28.8 16.9903 28.0028 17.9972 27.2185 18.7815C26.4398 19.5602 25.6198 20.2509 24.6519 20.5117V22.4484C24.6519 22.8727 24.4833 23.2797 24.1832 23.5797L22.6316 25.1314C22.3316 25.4314 21.9246 25.6 21.5002 25.6H8.05928C7.1429 25.6 6.40002 24.8571 6.40002 23.9407V10.4998C6.40002 10.0754 6.5686 9.66847 6.86865 9.36842L8.42028 7.81679C8.72034 7.51673 9.12731 7.34816 9.55165 7.34816H11.4832C11.7353 6.36199 12.4107 5.50979 13.1926 4.78149ZM19.6741 8.34816C19.1218 8.34816 18.6741 7.90045 18.6741 7.34816V6.40001C18.6741 5.18499 17.6891 4.20001 16.4741 4.20001H16.2371C15.0221 4.20001 14.0371 5.18499 14.0371 6.40001V7.34816C14.0371 7.90045 13.5894 8.34816 13.0371 8.34816H9.6593C9.32793 8.34816 9.0593 8.61679 9.0593 8.94816V22.3408C9.0593 22.6721 9.32793 22.9408 9.6593 22.9408H23.0519C23.3833 22.9408 23.6519 22.6721 23.6519 22.3408V18.963C23.6519 18.4107 24.0996 17.963 24.6519 17.963H25.6C26.8151 17.963 27.8 16.978 27.8 15.763V15.5259C27.8 14.3109 26.8151 13.3259 25.6 13.3259H24.6519C24.0996 13.3259 23.6519 12.8782 23.6519 12.3259V8.94816C23.6519 8.61679 23.3833 8.34816 23.0519 8.34816H19.6741Z" fill="#2A2620"/>
<path fill-rule="evenodd" clip-rule="evenodd" d="M18.6741 7.34816C18.6741 7.90045 19.1218 8.34816 19.6741 8.34816H23.0519C23.3833 8.34816 23.6519 8.61679 23.6519 8.94816V12.3259C23.6519 12.8782 24.0996 13.3259 24.6519 13.3259H25.6C26.8151 13.3259 27.8 14.3109 27.8 15.5259V15.763C27.8 16.6376 27.2897 17.393 26.5505 17.7476C26.2628 17.8857 25.9404 17.963 25.6 17.963H24.6519C24.0996 17.963 23.6519 18.4107 23.6519 18.963V22.3408C23.6519 22.3775 23.6486 22.4135 23.6423 22.4484C23.6154 22.597 23.5337 22.7266 23.4189 22.8154C23.337 22.8789 23.2381 22.9216 23.1303 22.9357C23.1046 22.939 23.0785 22.9408 23.0519 22.9408H9.6593C9.32793 22.9408 9.0593 22.6721 9.0593 22.3408V8.94816C9.0593 8.92158 9.06103 8.89541 9.06438 8.86975C9.07845 8.76191 9.12116 8.66308 9.18462 8.58113C9.27349 8.46637 9.40304 8.38471 9.55165 8.35779C9.58658 8.35146 9.62255 8.34816 9.6593 8.34816H13.0371C13.5894 8.34816 14.0371 7.90045 14.0371 7.34816V6.40001C14.0371 6.05211 14.1178 5.72307 14.2616 5.43061C14.62 4.70168 15.37 4.20001 16.2371 4.20001H16.4741C17.6891 4.20001 18.6741 5.18499 18.6741 6.40001V7.34816Z" fill="#2A2620"/>
<path d="M18.6741 7.34816C18.6741 7.90045 19.1218 8.34816 19.6741 8.34816H23.0519C23.3832 8.34816 23.6519 8.61679 23.6519 8.94816V12.3259C23.6519 12.8782 24.0996 13.3259 24.6519 13.3259H25.6C26.815 13.3259 27.8 14.3109 27.8 15.5259V15.763C27.8 16.978 26.815 17.963 25.6 17.963H24.6519C24.0996 17.963 23.6519 18.4107 23.6519 18.963V22.3408C23.6519 22.6721 23.3832 22.9408 23.0519 22.9408H9.65927C9.32789 22.9408 9.05927 22.6721 9.05927 22.3408V8.94816C9.05927 8.61679 9.32789 8.34816 9.65927 8.34816H13.037C13.5893 8.34816 14.037 7.90045 14.037 7.34816V6.40001C14.037 5.18499 15.022 4.20001 16.237 4.20001H16.4741C17.6891 4.20001 18.6741 5.18499 18.6741 6.40001V7.34816Z" fill="white"/>
<path d="M17.2704 14.7296V11.4111H16.2704V14.7296H12.9518V15.7296H16.2704V19.0482H17.2704V15.7296H20.5889V14.7296H17.2704Z" fill="#2A2620"/>
</svg>
