<svg width="32" height="32" viewBox="0 0 32 32" fill="none" xmlns="http://www.w3.org/2000/svg">
<path d="M0 16C0 7.16344 7.16344 0 16 0C24.8366 0 32 7.16344 32 16C32 24.8366 24.8366 32 16 32C7.16344 32 0 24.8366 0 16Z" fill="#E5DED6"/>
<path d="M4.56428 8.99792C4.64972 8.90916 4.73696 8.81853 4.82509 8.72501C5.60724 7.89497 6.24731 7.24088 7.33032 7.24088C8.65581 7.24088 9.73032 8.31539 9.73032 9.64088C9.73032 9.96258 9.66702 10.2695 9.5522 10.5499L11.9062 12.376C12.346 11.8767 12.9902 11.5616 13.7079 11.5616C14.6624 11.5616 15.4868 12.1189 15.8734 12.9258L17.2338 12.4149C17.3636 11.4806 17.9374 10.8732 18.6126 10.225C18.6283 10.2099 18.644 10.1948 18.6598 10.1797C19.4083 9.46062 20.1502 8.748 21.2109 8.748C22.5364 8.748 23.6109 9.82252 23.6109 11.148C23.6109 11.5249 23.524 11.8815 23.3692 12.1988L24.7614 13.2624C25.1696 12.9412 25.6845 12.7496 26.2442 12.7496C27.5697 12.7496 28.6442 13.8241 28.6442 15.1496C28.6442 16.2326 27.9268 17.1481 26.9414 17.4468C26.9107 17.5481 26.8734 17.6465 26.8302 17.7417V21.2283C26.8302 21.7808 26.5157 22.0867 26.0979 22.4932C26.0843 22.5063 26.0707 22.5196 26.057 22.533C26.0079 22.5807 25.9576 22.63 25.9063 22.6813C25.397 23.1906 24.872 23.6283 24.4302 23.6283H5.94431C5.50248 23.6283 5.14431 23.2702 5.14431 22.8283V13.5688C4.10208 13.3073 3.33032 12.3642 3.33032 11.2409C3.33032 10.2799 3.8914 9.69698 4.56428 8.99792Z" fill="#2A2620"/>
<path d="M5.9303 9.64088C5.9303 10.4141 6.5571 11.0409 7.3303 11.0409C7.47437 11.0409 7.61336 11.0191 7.74417 10.9787C7.90412 10.9293 8.05183 10.8519 8.18161 10.7524C8.19487 10.7422 8.20795 10.7318 8.22083 10.7212C8.53197 10.4644 8.7303 10.0758 8.7303 9.64088C8.7303 8.86768 8.1035 8.24088 7.3303 8.24088C6.5571 8.24088 5.9303 8.86768 5.9303 9.64088Z" fill="white"/>
<path d="M7.74417 12.0053V21.0284H25.8301V17.514C24.7019 17.3178 23.8442 16.3339 23.8442 15.1496C23.8442 14.7457 23.9439 14.3651 24.1202 14.0311L22.7533 12.9868C22.3361 13.3371 21.7981 13.548 21.2109 13.548C20.469 13.548 19.8058 13.2114 19.3655 12.6826L16.1072 13.9061C16.1076 13.9246 16.1078 13.9431 16.1078 13.9616C16.1078 15.2871 15.0333 16.3616 13.7078 16.3616C12.3824 16.3616 11.3078 15.2871 11.3078 13.9616C11.3078 13.7171 11.3444 13.481 11.4124 13.2587L8.9871 11.3773C8.65096 11.6981 8.22179 11.9223 7.74417 12.0053Z" fill="white"/>
<path d="M20.4044 12.2925C20.6324 12.4535 20.9106 12.548 21.2109 12.548C21.4712 12.548 21.715 12.4769 21.9238 12.3531C22.3351 12.1093 22.6109 11.6609 22.6109 11.148C22.6109 10.3748 21.9841 9.748 21.2109 9.748C20.4377 9.748 19.8109 10.3748 19.8109 11.148C19.8109 11.5829 20.0092 11.9715 20.3203 12.2283C20.3475 12.2507 20.3755 12.2722 20.4044 12.2925Z" fill="white"/>
<path d="M12.3078 13.9616C12.3078 14.7348 12.9346 15.3616 13.7078 15.3616C14.3656 15.3616 14.9174 14.908 15.0675 14.2965C15.0691 14.2903 15.0705 14.2841 15.072 14.2778C15.0954 14.1762 15.1078 14.0704 15.1078 13.9616C15.1078 13.1884 14.481 12.5616 13.7078 12.5616C12.9374 12.5616 12.3123 13.184 12.3079 13.9534C12.3078 13.9561 12.3078 13.9589 12.3078 13.9616Z" fill="white"/>
<path d="M25.8609 16.4965C25.9827 16.5311 26.1113 16.5496 26.2442 16.5496C27.0174 16.5496 27.6442 15.9228 27.6442 15.1496C27.6442 14.3764 27.0174 13.7496 26.2442 13.7496C25.6457 13.7496 25.135 14.1251 24.9347 14.6533C24.8762 14.8076 24.8442 14.9749 24.8442 15.1496C24.8442 15.7787 25.259 16.3108 25.8301 16.4874C25.8403 16.4905 25.8506 16.4936 25.8609 16.4965Z" fill="white"/>
</svg>
