<svg width="32" height="32" viewBox="0 0 32 32" fill="none" xmlns="http://www.w3.org/2000/svg">
<path d="M0 16C0 7.16344 7.16344 0 16 0C24.8366 0 32 7.16344 32 16C32 24.8366 24.8366 32 16 32C7.16344 32 0 24.8366 0 16Z" fill="#E5DED6"/>
<path d="M5.64431 13.5688V13.1788L5.266 13.0839C4.44084 12.8768 3.83032 12.1295 3.83032 11.2409C3.83032 10.4921 4.24045 10.0626 4.93185 9.33845C5.01369 9.25274 5.09947 9.16289 5.18898 9.06791C5.99111 8.21666 6.49174 7.74088 7.33032 7.74088C8.37966 7.74088 9.23032 8.59153 9.23032 9.64088C9.23032 9.89648 9.18012 10.1391 9.0895 10.3604L8.94549 10.712L9.24573 10.9449L11.5997 12.7711L11.9709 13.059L12.2814 12.7065C12.6303 12.3103 13.1398 12.0616 13.7079 12.0616C14.4628 12.0616 15.1159 12.5019 15.4225 13.1418L15.6205 13.5549L16.0492 13.3939L17.4096 12.883L17.6882 12.7784L17.7291 12.4837C17.8327 11.7375 18.2811 11.2364 18.9589 10.5857C19.7613 9.81532 20.3651 9.248 21.2109 9.248C22.2603 9.248 23.1109 10.0987 23.1109 11.148C23.1109 11.4473 23.0421 11.729 22.9198 11.9796L22.7403 12.3476L23.0657 12.5962L24.4578 13.6597L24.7659 13.895L25.0705 13.6553C25.3937 13.401 25.8006 13.2496 26.2442 13.2496C27.2935 13.2496 28.1442 14.1003 28.1442 15.1496C28.1442 16.0063 27.5769 16.7317 26.7963 16.9683L26.5404 17.0458L26.4629 17.3018C26.4386 17.3818 26.4092 17.4596 26.375 17.5348L26.3302 17.6334V17.7417V21.2283C26.3302 21.4156 26.276 21.5479 26.1611 21.6992C26.0612 21.8307 25.9398 21.9488 25.7742 22.11C25.708 22.1745 25.6347 22.2458 25.5528 22.3277C25.3044 22.5761 25.0711 22.7875 24.8584 22.9347C24.635 23.0892 24.4972 23.1283 24.4302 23.1283H5.94431C5.77862 23.1283 5.64431 22.994 5.64431 22.8283V13.5688Z" fill="#2A2620" stroke="#2A2620"/>
<path d="M5.9303 9.64088C5.9303 10.4141 6.5571 11.0409 7.3303 11.0409C7.47437 11.0409 7.61336 11.0191 7.74417 10.9787C7.90412 10.9293 8.05183 10.8519 8.18161 10.7524C8.19487 10.7422 8.20795 10.7318 8.22083 10.7212C8.53197 10.4644 8.7303 10.0758 8.7303 9.64088C8.7303 8.86768 8.1035 8.24088 7.3303 8.24088C6.5571 8.24088 5.9303 8.86768 5.9303 9.64088Z" fill="white"/>
<path d="M7.74417 12.0053V21.0284H25.8301V17.514C24.7019 17.3178 23.8442 16.3339 23.8442 15.1496C23.8442 14.7457 23.9439 14.3651 24.1202 14.0311L22.7533 12.9868C22.3361 13.3371 21.7981 13.548 21.2109 13.548C20.469 13.548 19.8058 13.2114 19.3655 12.6826L16.1072 13.9061C16.1076 13.9246 16.1078 13.9431 16.1078 13.9616C16.1078 15.2871 15.0333 16.3616 13.7078 16.3616C12.3824 16.3616 11.3078 15.2871 11.3078 13.9616C11.3078 13.7171 11.3444 13.481 11.4124 13.2587L8.9871 11.3773C8.65096 11.6981 8.22179 11.9223 7.74417 12.0053Z" fill="white"/>
<path d="M20.4044 12.2925C20.6324 12.4535 20.9106 12.548 21.2109 12.548C21.4712 12.548 21.715 12.4769 21.9238 12.3531C22.3351 12.1093 22.6109 11.6609 22.6109 11.148C22.6109 10.3748 21.9841 9.748 21.2109 9.748C20.4377 9.748 19.8109 10.3748 19.8109 11.148C19.8109 11.5829 20.0092 11.9715 20.3203 12.2283C20.3475 12.2507 20.3755 12.2722 20.4044 12.2925Z" fill="white"/>
<path d="M12.3078 13.9616C12.3078 14.7348 12.9346 15.3616 13.7078 15.3616C14.3656 15.3616 14.9174 14.908 15.0675 14.2965C15.0691 14.2903 15.0705 14.2841 15.072 14.2778C15.0954 14.1762 15.1078 14.0704 15.1078 13.9616C15.1078 13.1884 14.481 12.5616 13.7078 12.5616C12.9374 12.5616 12.3123 13.184 12.3079 13.9534C12.3078 13.9561 12.3078 13.9589 12.3078 13.9616Z" fill="white"/>
<path d="M25.8609 16.4965C25.9827 16.5311 26.1113 16.5496 26.2442 16.5496C27.0174 16.5496 27.6442 15.9228 27.6442 15.1496C27.6442 14.3764 27.0174 13.7496 26.2442 13.7496C25.6457 13.7496 25.135 14.1251 24.9347 14.6533C24.8762 14.8076 24.8442 14.9749 24.8442 15.1496C24.8442 15.7787 25.259 16.3108 25.8301 16.4874C25.8403 16.4905 25.8506 16.4936 25.8609 16.4965Z" fill="white"/>
</svg>
