<svg width="32" height="32" viewBox="0 0 32 32" fill="none" xmlns="http://www.w3.org/2000/svg">
<path d="M0 16C0 7.16344 7.16344 0 16 0V0C24.8366 0 32 7.16344 32 16V16C32 24.8366 24.8366 32 16 32V32C7.16344 32 0 24.8366 0 16V16Z" fill="#E5DED6"/>
<path fill-rule="evenodd" clip-rule="evenodd" d="M27.2 15.2C27.2 18.4795 25.8895 21.0895 23.6 23.2C21.4895 25.4895 18.4795 27.2 15.2 27.2C9.45629 27.2 4.80005 22.5438 4.80005 16.8C4.80005 13.5206 6.00005 11.6 8.00005 9.20005C10.3609 6.36699 13.5206 4.80005 16.8 4.80005C22.5438 4.80005 27.2 9.45629 27.2 15.2Z" fill="#2A2620"/>
<path fill-rule="evenodd" clip-rule="evenodd" d="M16.8 24.6C21.9915 24.6 26.2 20.3915 26.2 15.2C26.2 10.0086 21.9915 5.80005 16.8 5.80005C11.6085 5.80005 7.40002 10.0086 7.40002 15.2C7.40002 20.3915 11.6085 24.6 16.8 24.6ZM12.8 14.4C13.4627 14.4 14 13.8627 14 13.2C14 12.5373 13.4627 12 12.8 12C12.1372 12 11.6 12.5373 11.6 13.2C11.6 13.8627 12.1372 14.4 12.8 14.4ZM22 13.2C22 13.8627 21.4627 14.4 20.8 14.4C20.1372 14.4 19.6 13.8627 19.6 13.2C19.6 12.5373 20.1372 12 20.8 12C21.4627 12 22 12.5373 22 13.2ZM12 17.9C11.7239 17.9 11.5 18.1239 11.5 18.4C11.5 18.6762 11.7239 18.9 12 18.9H21.6C21.8761 18.9 22.1 18.6762 22.1 18.4C22.1 18.1239 21.8761 17.9 21.6 17.9H12Z" fill="white"/>
</svg>
