<svg width="32" height="32" viewBox="0 0 32 32" fill="none" xmlns="http://www.w3.org/2000/svg">
<path d="M0 16C0 7.16344 7.16344 0 16 0V0C24.8366 0 32 7.16344 32 16V16C32 24.8366 24.8366 32 16 32V32C7.16344 32 0 24.8366 0 16V16Z" fill="#E5DED6"/>
<path fill-rule="evenodd" clip-rule="evenodd" d="M25.5942 15.8374C25.8259 15.5685 25.8976 15.1969 25.7828 14.8611L23.0723 6.93487C22.9617 6.61148 22.6936 6.36697 22.3614 6.28653C22.0292 6.20609 21.679 6.30087 21.4327 6.53783C20.3588 7.57108 19.3642 7.96156 18.4111 8.08756C17.4702 8.21196 16.5404 8.08824 15.4669 7.94539L15.2386 7.9151C14.1203 7.76755 12.8351 7.61727 11.5237 7.93864C10.7451 8.12944 9.98998 8.47635 9.25643 9.03237L9.04458 8.42115C8.77328 7.63841 7.9188 7.22381 7.13606 7.49511C6.35332 7.76642 5.93872 8.62089 6.21002 9.40363L12.7276 28.2075C12.9989 28.9903 13.8534 29.4049 14.6361 29.1336C15.4189 28.8623 15.8335 28.0078 15.5622 27.2251L12.7365 19.0727C13.3915 18.2933 14.0838 17.8819 14.7814 17.6591C15.754 17.3484 16.8325 17.3711 18.0607 17.4824C18.2868 17.5029 18.5213 17.527 18.7618 17.5517C19.7532 17.6536 20.8448 17.7658 21.8582 17.677C23.1913 17.5602 24.51 17.0959 25.5942 15.8374Z" fill="#2A2620"/>
<path d="M6.54563 7.87444L7.83594 6.25781L8.16164 7.88251L6.54563 7.87444Z" fill="#2A2620"/>
<path d="M16.9062 27.4219L15.1443 28.8364L15.1443 27.2122L16.9062 27.4219Z" fill="#2A2620"/>
<path d="M26.8956 14.8981L25.2004 16.252L25.2004 14.6279L26.8956 14.8981Z" fill="#2A2620"/>
<path d="M23.7261 5.65841L26.4366 13.5847C22.9414 17.6419 16.6321 11.5785 12.8504 17.8456L10.0424 9.6578C14.4774 4.00034 18.8206 10.3782 23.7261 5.65841Z" fill="white"/>
<path fill-rule="evenodd" clip-rule="evenodd" d="M27.6193 13.1802C27.7629 13.6 27.6732 14.0644 27.3836 14.4005C26.2468 15.7201 24.8608 16.2051 23.4801 16.326C22.4403 16.4171 21.3172 16.3015 20.3247 16.1993C20.0874 16.1749 19.8576 16.1512 19.6381 16.1314C18.4138 16.0204 17.3788 16.0029 16.4574 16.2972C15.5947 16.5728 14.7248 17.1587 13.9206 18.4914C13.6697 18.9072 13.2007 19.14 12.7178 19.0885C12.2349 19.037 11.8255 18.7104 11.668 18.2511L8.86 10.0633C8.72264 9.66274 8.7974 9.21988 9.05865 8.88661C10.3125 7.28715 11.6443 6.44375 13.0642 6.0958C14.4266 5.76193 15.7551 5.91995 16.8713 6.06723C16.9452 6.07697 17.0181 6.08666 17.0902 6.09625C18.1734 6.2402 19.0716 6.35957 19.9784 6.23969C20.8781 6.12074 21.8236 5.75423 22.8594 4.75766C23.1672 4.46145 23.605 4.34298 24.0202 4.44353C24.4355 4.54408 24.7706 4.84972 24.9088 5.25395L27.6193 13.1802ZM23.726 5.65842C23.3791 5.99227 23.0349 6.27059 22.6933 6.50158C20.7113 7.84187 18.8162 7.58836 16.9627 7.34043C14.6198 7.02702 12.3435 6.72251 10.0424 9.6578L12.8504 17.8456C13.1372 17.3701 13.4387 16.9657 13.7523 16.6224C15.7172 14.4717 18.1614 14.7212 20.5117 14.9612C22.7316 15.1878 24.8676 15.4059 26.4366 13.5847L23.726 5.65842Z" fill="#2A2620"/>
<path fill-rule="evenodd" clip-rule="evenodd" d="M9.06356 6.83989C9.32448 6.74946 9.6093 6.88766 9.69973 7.14857L16.2173 25.9525C16.3077 26.2134 16.1695 26.4982 15.9086 26.5887C15.6477 26.6791 15.3629 26.5409 15.2725 26.28L8.75488 7.47607C8.66445 7.21515 8.80265 6.93033 9.06356 6.83989Z" fill="white"/>
<path fill-rule="evenodd" clip-rule="evenodd" d="M8.65419 5.65887C9.56739 5.34235 10.5643 5.82605 10.8808 6.73925L17.3984 25.5432C17.7149 26.4564 17.2312 27.4532 16.318 27.7698C15.4048 28.0863 14.4079 27.6026 14.0914 26.6894L7.57381 7.88548C7.25729 6.97228 7.74099 5.97539 8.65419 5.65887ZM9.69973 7.14861C9.6093 6.8877 9.32447 6.7495 9.06356 6.83993C8.80264 6.93037 8.66444 7.21519 8.75488 7.47611L15.2725 26.28C15.3629 26.5409 15.6477 26.6791 15.9086 26.5887C16.1695 26.4983 16.3077 26.2134 16.2173 25.9525L9.69973 7.14861Z" fill="#2A2620"/>
<path fill-rule="evenodd" clip-rule="evenodd" d="M9.02263 6.72177C9.34877 6.60873 9.7048 6.78148 9.81784 7.10762L16.3354 25.9115C16.4485 26.2377 16.2757 26.5937 15.9496 26.7067C15.6234 26.8198 15.2674 26.647 15.1544 26.3209L8.63678 7.51699C8.52373 7.19085 8.69648 6.83482 9.02263 6.72177Z" fill="white"/>
</svg>
