<svg width="32" height="32" viewBox="0 0 32 32" fill="none" xmlns="http://www.w3.org/2000/svg">
<path d="M0 16C0 7.16344 7.16344 0 16 0V0C24.8366 0 32 7.16344 32 16V16C32 24.8366 24.8366 32 16 32V32C7.16344 32 0 24.8366 0 16V16Z" fill="#E5DED6"/>
<path d="M8.8 8H20.8V24H8.8V8Z" fill="#2A2620"/>
<path d="M8.8 8.8C8.8 8.35817 9.15818 8 9.6 8H20C20.4418 8 20.8 8.35817 20.8 8.8V23.2C20.8 23.6418 20.4418 24 20 24H9.6C9.15818 24 8.8 23.6418 8.8 23.2V8.8Z" fill="#2A2620"/>
<path fill-rule="evenodd" clip-rule="evenodd" d="M9.6 7H20C20.9941 7 21.8 7.80589 21.8 8.8V23.2C21.8 24.1941 20.9941 25 20 25H9.6C8.60589 25 7.8 24.1941 7.8 23.2V8.8C7.8 7.80589 8.60589 7 9.6 7ZM9.6 8C9.15818 8 8.8 8.35817 8.8 8.8V23.2C8.8 23.6418 9.15818 24 9.6 24H20C20.4418 24 20.8 23.6418 20.8 23.2V8.8C20.8 8.35817 20.4418 8 20 8H9.6Z" fill="#2A2620"/>
<path d="M22.7986 22.9367L21.1826 24.5527L21.1826 22.9286L22.7986 22.9367Z" fill="#2A2620"/>
<path d="M21.6 9.59998H22.4C22.8418 9.59998 23.2 9.95815 23.2 10.4V12C23.2 12.4418 22.8418 12.8 22.4 12.8H21.6V9.59998Z" fill="#2A2620"/>
<path fill-rule="evenodd" clip-rule="evenodd" d="M20.6 8.59998H22.4C23.3941 8.59998 24.2 9.40586 24.2 10.4V12C24.2 12.9941 23.3941 13.8 22.4 13.8H20.6V8.59998ZM22.4 12.8C22.4691 12.8 22.5361 12.7912 22.6 12.7748C22.945 12.686 23.2 12.3727 23.2 12V10.4C23.2 10.0272 22.945 9.71399 22.6 9.62518C22.5361 9.60873 22.4691 9.59998 22.4 9.59998H21.6V12.8H22.4Z" fill="#2A2620"/>
<path d="M21.6 14.4H22.4C22.8418 14.4 23.2 14.7582 23.2 15.2V16.8C23.2 17.2419 22.8418 17.6 22.4 17.6H21.6V14.4Z" fill="#2A2620"/>
<path fill-rule="evenodd" clip-rule="evenodd" d="M20.6 13.4H22.4C23.3941 13.4 24.2 14.2059 24.2 15.2V16.8C24.2 17.7941 23.3941 18.6 22.4 18.6H20.6V13.4ZM22.4 17.6C22.4691 17.6 22.5361 17.5913 22.6 17.5748C22.945 17.486 23.2 17.1728 23.2 16.8V15.2C23.2 14.8273 22.945 14.514 22.6 14.4252C22.5361 14.4088 22.4691 14.4 22.4 14.4H21.6V17.6H22.4Z" fill="#2A2620"/>
<path d="M21.6 19.2H22.4C22.8418 19.2 23.2 19.5582 23.2 20V21.6C23.2 22.0418 22.8418 22.4 22.4 22.4H21.6V19.2Z" fill="#2A2620"/>
<path fill-rule="evenodd" clip-rule="evenodd" d="M20.6 18.2H22.4C23.3941 18.2 24.2 19.0059 24.2 20V21.6C24.2 22.5941 23.3941 23.4 22.4 23.4H20.6V18.2ZM22.4 22.4C22.4691 22.4 22.5361 22.3913 22.6 22.3748C22.945 22.286 23.2 21.9728 23.2 21.6V20C23.2 19.6272 22.945 19.314 22.6 19.2252C22.5361 19.2088 22.4691 19.2 22.4 19.2H21.6V22.4H22.4Z" fill="#2A2620"/>
<path d="M25.384 21.1521L23.768 22.7682L23.768 21.144L25.384 21.1521Z" fill="#2A2620"/>
<path d="M8.2894 7.5656L9.90542 5.94954L9.90542 7.57367L8.2894 7.5656Z" fill="#2A2620"/>
<path d="M10.4 6.40002H22.4V22.4H10.4V6.40002Z" fill="#2A2620"/>
<path d="M10.4 7.20002C10.4 6.7582 10.7582 6.40002 11.2 6.40002H21.6C22.0418 6.40002 22.4 6.7582 22.4 7.20002V21.6C22.4 22.0419 22.0418 22.4 21.6 22.4H11.2C10.7582 22.4 10.4 22.0419 10.4 21.6V7.20002Z" fill="#2A2620"/>
<path fill-rule="evenodd" clip-rule="evenodd" d="M11.2 5.40002H21.6C22.5941 5.40002 23.4 6.20591 23.4 7.20002V21.6C23.4 22.5941 22.5941 23.4 21.6 23.4H11.2C10.2059 23.4 9.4 22.5941 9.4 21.6V7.20002C9.4 6.20591 10.2059 5.40002 11.2 5.40002ZM11.2 6.40002C10.7582 6.40002 10.4 6.7582 10.4 7.20002V21.6C10.4 22.0419 10.7582 22.4 11.2 22.4H21.6C22.0418 22.4 22.4 22.0419 22.4 21.6V7.20002C22.4 6.7582 22.0418 6.40002 21.6 6.40002H11.2Z" fill="#2A2620"/>
<path d="M23.2 8H24C24.4418 8 24.8 8.35817 24.8 8.8V10.4C24.8 10.8418 24.4418 11.2 24 11.2H23.2V8Z" fill="#2A2620"/>
<path fill-rule="evenodd" clip-rule="evenodd" d="M22.2 7H24C24.9941 7 25.8 7.80589 25.8 8.8V10.4C25.8 11.3941 24.9941 12.2 24 12.2H22.2V7ZM24 11.2C24.0691 11.2 24.1361 11.1912 24.2 11.1748C24.545 11.086 24.8 10.7728 24.8 10.4V8.8C24.8 8.42723 24.545 8.11401 24.2 8.0252C24.1361 8.00875 24.0691 8 24 8H23.2V11.2H24Z" fill="#2A2620"/>
<path d="M23.2 12.8H24C24.4418 12.8 24.8 13.1582 24.8 13.6V15.2C24.8 15.6418 24.4418 16 24 16H23.2V12.8Z" fill="#2A2620"/>
<path fill-rule="evenodd" clip-rule="evenodd" d="M22.2 11.8H24C24.9941 11.8 25.8 12.6059 25.8 13.6V15.2C25.8 16.1941 24.9941 17 24 17H22.2V11.8ZM24 16C24.0691 16 24.1361 15.9912 24.2 15.9748C24.545 15.886 24.8 15.5728 24.8 15.2V13.6C24.8 13.2272 24.545 12.914 24.2 12.8252C24.1361 12.8087 24.0691 12.8 24 12.8H23.2V16H24Z" fill="#2A2620"/>
<path d="M23.2 17.6H24C24.4418 17.6 24.8 17.9581 24.8 18.4V20C24.8 20.4418 24.4418 20.8 24 20.8H23.2V17.6Z" fill="#2A2620"/>
<path fill-rule="evenodd" clip-rule="evenodd" d="M22.2 16.6H24C24.9941 16.6 25.8 17.4059 25.8 18.4V20C25.8 20.9941 24.9941 21.8 24 21.8H22.2V16.6ZM24 20.8C24.0691 20.8 24.1361 20.7912 24.2 20.7748C24.545 20.686 24.8 20.3727 24.8 20V18.4C24.8 18.0272 24.545 17.714 24.2 17.6252C24.1361 17.6087 24.0691 17.6 24 17.6H23.2V20.8H24Z" fill="#2A2620"/>
<path d="M10.4 7.40002C10.4 6.84774 10.8477 6.40002 11.4 6.40002H21.4C21.9523 6.40002 22.4 6.84774 22.4 7.40002V21.4C22.4 21.9523 21.9523 22.4 21.4 22.4H11.4C10.8477 22.4 10.4 21.9523 10.4 21.4V7.40002Z" fill="white"/>
<path fill-rule="evenodd" clip-rule="evenodd" d="M11.4 5.40002H21.4C22.5046 5.40002 23.4 6.29546 23.4 7.40002V21.4C23.4 22.5046 22.5046 23.4 21.4 23.4H11.4C10.2954 23.4 9.4 22.5046 9.4 21.4V7.40002C9.4 6.29545 10.2954 5.40002 11.4 5.40002ZM11.4 6.40002C10.8477 6.40002 10.4 6.84774 10.4 7.40002V21.4C10.4 21.9523 10.8477 22.4 11.4 22.4H21.4C21.9523 22.4 22.4 21.9523 22.4 21.4V7.40002C22.4 6.84774 21.9523 6.40002 21.4 6.40002H11.4Z" fill="#2A2620"/>
<path d="M23.2 8H23.8C24.3523 8 24.8 8.44772 24.8 9V10.2C24.8 10.7523 24.3523 11.2 23.8 11.2H23.2V8Z" fill="white"/>
<path d="M23.2 12.8H23.8C24.3523 12.8 24.8 13.2477 24.8 13.8V15C24.8 15.5523 24.3523 16 23.8 16H23.2V12.8Z" fill="white"/>
<path d="M23.2 17.6H23.8C24.3523 17.6 24.8 18.0477 24.8 18.6V19.8C24.8 20.3523 24.3523 20.8 23.8 20.8H23.2V17.6Z" fill="white"/>
<path d="M18.8 11.2C18.8 12.5255 17.7255 13.6 16.4 13.6C15.0745 13.6 14 12.5255 14 11.2C14 9.8745 15.0745 8.79999 16.4 8.79999C17.7255 8.79999 18.8 9.8745 18.8 11.2Z" fill="#2A2620"/>
<path d="M12.4 18.4C12.4 16.1909 14.1909 14.4 16.4 14.4V14.4C18.6091 14.4 20.4 16.1909 20.4 18.4V22.4H12.4V18.4Z" fill="#2A2620"/>
</svg>
