<svg width="32" height="32" viewBox="0 0 32 32" fill="none" xmlns="http://www.w3.org/2000/svg">
<path d="M0 16C0 7.16344 7.16344 0 16 0V0C24.8366 0 32 7.16344 32 16V16C32 24.8366 24.8366 32 16 32V32C7.16344 32 0 24.8366 0 16V16Z" fill="#E5DED6"/>
<path fill-rule="evenodd" clip-rule="evenodd" d="M17.7408 4.58446L19.323 6.54175L21.7534 5.88826C22.7211 5.62808 23.6823 6.32642 23.7339 7.32715L23.8635 9.84062L26.2139 10.7405C27.1497 11.0988 27.5168 12.2288 26.9703 13.0687L25.5978 15.1783L26.9703 17.2879C27.3911 17.9345 27.2703 18.7531 26.7653 19.2591L26.7748 19.2599L23.7934 21.8761L23.7339 23.0294C23.7091 23.5117 23.473 23.9237 23.1267 24.1921L23.1286 24.1936C23.0673 24.2199 22.1472 25.1381 21.5055 25.7944L21.5015 25.7933C21.1378 26.1772 20.505 26.2769 19.8619 26.1117L17.9928 25.4603L17.7408 25.7721C17.7113 25.8085 17.6807 25.8433 17.6489 25.8763L16.4046 27.4155C15.7747 28.1948 14.5866 28.1948 13.9566 27.4155L12.3745 25.4583L9.94398 26.1117C8.9763 26.3719 8.01509 25.6736 7.96351 24.6728L7.83396 22.1594L5.48355 21.2595C4.54774 20.9012 4.33616 19.8999 4.86354 19.1505L6.21967 17.0409L5.17741 15.5445C4.51634 14.6873 4.37851 14.1436 4.59459 13.7688L4.5927 13.7673L6.01353 11.4176L6.01891 11.4237C6.19141 11.1235 6.46461 10.8765 6.81968 10.7405L7.88391 10.3331L9.41275 6.81387C9.70149 6.10341 10.5069 5.67548 11.2983 5.88826L13.7106 6.54175L15.2928 4.58446C15.9227 3.80518 17.1108 3.80518 17.7408 4.58446Z" fill="#2A2620"/>
<path d="M16.064 5.15845C16.2641 4.91089 16.6415 4.91089 16.8416 5.15845L18.6927 7.4484C18.8171 7.60221 19.0204 7.66828 19.2114 7.61692L22.055 6.85237C22.3624 6.76971 22.6677 6.99156 22.6841 7.30948L22.8357 10.2501C22.8459 10.4477 22.9716 10.6206 23.1563 10.6913L25.9061 11.7442C26.2034 11.858 26.3201 12.217 26.1465 12.4838L24.5406 14.952C24.4328 15.1177 24.4328 15.3315 24.5406 15.4973L26.1465 17.9654C26.3201 18.2323 26.2034 18.5912 25.9062 18.7051L23.1563 19.7579C22.9716 19.8287 22.8459 20.0016 22.8357 20.1991L22.6841 23.1398C22.6677 23.4577 22.3624 23.6796 22.055 23.5969L19.2114 22.8323C19.0204 22.781 18.8171 22.8471 18.6927 23.0009L16.8416 25.2908C16.6415 25.5384 16.2641 25.5384 16.064 25.2908L14.2129 23.0009C14.0885 22.8471 13.8852 22.781 13.6942 22.8323L10.8506 23.5969C10.5432 23.6796 10.2379 23.4577 10.2215 23.1398L10.0699 20.1991C10.0597 20.0016 9.93405 19.8287 9.74934 19.7579L6.99945 18.7051C6.70216 18.5912 6.58553 18.2323 6.75913 17.9654L8.36498 15.4973C8.47284 15.3315 8.47284 15.1177 8.36498 14.952L6.75913 12.4838C6.58553 12.217 6.70216 11.858 6.99945 11.7442L9.74934 10.6913C9.93405 10.6206 10.0597 10.4477 10.0699 10.2501L10.2215 7.30948C10.2379 6.99156 10.5432 6.76971 10.8506 6.85237L13.6942 7.61692C13.8852 7.66828 14.0885 7.60221 14.2129 7.4484L16.064 5.15845Z" fill="white"/>
<path fill-rule="evenodd" clip-rule="evenodd" d="M13.6244 13.3962C14.1767 13.3962 14.6244 12.9485 14.6244 12.3962C14.6244 11.8439 14.1767 11.3962 13.6244 11.3962C13.0721 11.3962 12.6244 11.8439 12.6244 12.3962C12.6244 12.9485 13.0721 13.3962 13.6244 13.3962ZM13.6244 14.3962C14.729 14.3962 15.6244 13.5007 15.6244 12.3962C15.6244 11.2916 14.729 10.3962 13.6244 10.3962C12.5198 10.3962 11.6244 11.2916 11.6244 12.3962C11.6244 13.5007 12.5198 14.3962 13.6244 14.3962ZM11.8566 19.1137L20.3419 10.6285L21.049 11.3356L12.5637 19.8209L11.8566 19.1137ZM20.2812 18.053C20.2812 18.6053 19.8335 19.053 19.2812 19.053C18.729 19.053 18.2812 18.6053 18.2812 18.053C18.2812 17.5008 18.729 17.053 19.2812 17.053C19.8335 17.053 20.2812 17.5008 20.2812 18.053ZM21.2812 18.053C21.2812 19.1576 20.3858 20.053 19.2812 20.053C18.1767 20.053 17.2812 19.1576 17.2812 18.053C17.2812 16.9485 18.1767 16.053 19.2812 16.053C20.3858 16.053 21.2812 16.9485 21.2812 18.053Z" fill="#2A2620"/>
</svg>
