<svg width="32" height="32" viewBox="0 0 32 32" fill="none" xmlns="http://www.w3.org/2000/svg">
<path d="M0 16C0 7.16344 7.16344 0 16 0C24.8366 0 32 7.16344 32 16C32 24.8366 24.8366 32 16 32C7.16344 32 0 24.8366 0 16Z" fill="#E5DED6"/>
<path d="M5.59998 23.2C5.59998 24.0837 6.31632 24.8 7.19998 24.8H23.3372C23.7616 24.8 24.1685 24.6314 24.4686 24.3314L25.9313 22.8686C26.2314 22.5686 26.4 22.1616 26.4 21.7373V8.8C26.4 7.91634 25.6836 7.2 24.8 7.2H8.66272C8.23837 7.2 7.8314 7.36857 7.53135 7.66863L6.0686 9.13137C5.76855 9.43143 5.59998 9.83839 5.59998 10.2627V23.2Z" fill="#2A2620"/>
<path d="M8.20001 8.88205L15.8058 16.4879C16.3135 16.9955 17.1366 16.9955 17.6443 16.4879L25.3966 8.73555C25.3989 8.75672 25.4 8.77822 25.4 8.8V21.6C25.4 21.9314 25.1314 22.2 24.8 22.2H8.80001C8.46864 22.2 8.20001 21.9314 8.20001 21.6V8.88205Z" fill="white"/>
<path d="M8.93217 8.2H24.5179L16.9372 15.7807C16.82 15.8979 16.6301 15.8979 16.5129 15.7807L8.93217 8.2Z" fill="white"/>
</svg>
