<svg width="32" height="32" viewBox="0 0 32 32" fill="none" xmlns="http://www.w3.org/2000/svg">
<path d="M0 16C0 7.16344 7.16344 0 16 0C24.8366 0 32 7.16344 32 16C32 24.8366 24.8366 32 16 32C7.16344 32 0 24.8366 0 16Z" fill="#E5DED6"/>
<path d="M7.19998 24.2C6.64769 24.2 6.19998 23.7523 6.19998 23.2V10.2627C6.19998 9.99752 6.30533 9.74317 6.49287 9.55563L7.95561 8.09289C8.14315 7.90535 8.3975 7.8 8.66272 7.8H24.8C25.3523 7.8 25.8 8.24771 25.8 8.8V21.7373C25.8 22.0025 25.6946 22.2568 25.5071 22.4444L24.0443 23.9071C23.8568 24.0946 23.6024 24.2 23.3372 24.2H7.19998Z" fill="#2A2620" stroke="#2A2620" stroke-width="1.2" stroke-linejoin="round"/>
<path d="M8.20001 8.88205L15.8058 16.4879C16.3135 16.9955 17.1366 16.9955 17.6443 16.4879L25.3966 8.73555C25.3989 8.75672 25.4 8.77822 25.4 8.8V21.6C25.4 21.9314 25.1314 22.2 24.8 22.2H8.80001C8.46864 22.2 8.20001 21.9314 8.20001 21.6V8.88205Z" fill="white"/>
<path d="M8.93217 8.2H24.5179L16.9372 15.7807C16.82 15.8979 16.6301 15.8979 16.5129 15.7807L8.93217 8.2Z" fill="white"/>
</svg>
