<svg width="32" height="32" viewBox="0 0 32 32" fill="none" xmlns="http://www.w3.org/2000/svg">
<path d="M0 16C0 7.16344 7.16344 0 16 0C24.8366 0 32 7.16344 32 16C32 24.8366 24.8366 32 16 32C7.16344 32 0 24.8366 0 16Z" fill="#E5DED6"/>
<path fill-rule="evenodd" clip-rule="evenodd" d="M22.7219 22.7077C23.1462 22.7077 23.5532 22.5391 23.8533 22.2391L25.1314 20.961C25.4315 20.6609 25.6 20.2539 25.6 19.8296V8.80002C25.6 7.91636 24.8837 7.20002 24 7.20002H9.27815C8.85381 7.20002 8.44684 7.36859 8.14678 7.66865L6.86865 8.94677C6.5686 9.24683 6.40002 9.6538 6.40002 10.0781V21.1077C6.40002 21.9914 7.11637 22.7077 8.00003 22.7077H9.90772V26.0763C9.90772 26.7696 10.7295 27.1347 11.2439 26.67L15.6308 22.7077H22.7219Z" fill="#2A2620"/>
<path fill-rule="evenodd" clip-rule="evenodd" d="M12.2 20.4923C12.2 19.94 11.7523 19.4923 11.2 19.4923H9.47693C9.14556 19.4923 8.87693 19.2237 8.87693 18.8923V8.80001C8.87693 8.46864 9.14556 8.20001 9.47693 8.20001H24C24.3314 8.20001 24.6 8.46864 24.6 8.80001V18.8923C24.6 19.2237 24.3314 19.4923 24 19.4923H17.8462C17.6012 19.4923 17.3648 19.5822 17.1818 19.7449L12.2 24.1732V20.4923ZM11.2 20.4923H9.47693C8.59327 20.4923 7.87693 19.776 7.87693 18.8923V8.80001C7.87693 7.91636 8.59327 7.20001 9.47693 7.20001L24 7.20002C24.8837 7.20002 25.6 7.91636 25.6 8.80002L25.6 18.8923C25.6 19.776 24.8837 20.4923 24 20.4923H17.8462L12.5315 25.2165C12.0156 25.6751 11.2 25.3088 11.2 24.6185V20.4923Z" fill="#2A2620"/>
<path fill-rule="evenodd" clip-rule="evenodd" d="M12.2 20.4923C12.2 19.94 11.7523 19.4923 11.2 19.4923H9.47695C9.14558 19.4923 8.87695 19.2237 8.87695 18.8923V8.80001C8.87695 8.46864 9.14558 8.20001 9.47695 8.20001H24C24.3314 8.20001 24.6 8.46864 24.6 8.80001V18.8923C24.6 19.2237 24.3314 19.4923 24 19.4923H17.8462C17.6013 19.4923 17.3649 19.5822 17.1818 19.7449L12.2 24.1732V20.4923ZM16.8 15.2C17.4627 15.2 18 14.6628 18 14C18 13.3373 17.4627 12.8 16.8 12.8C16.1372 12.8 15.6 13.3373 15.6 14C15.6 14.6628 16.1372 15.2 16.8 15.2ZM22 14C22 14.6628 21.4627 15.2 20.8 15.2C20.1372 15.2 19.6 14.6628 19.6 14C19.6 13.3373 20.1372 12.8 20.8 12.8C21.4627 12.8 22 13.3373 22 14ZM12.8 15.2C13.4627 15.2 14 14.6628 14 14C14 13.3373 13.4627 12.8 12.8 12.8C12.1372 12.8 11.6 13.3373 11.6 14C11.6 14.6628 12.1372 15.2 12.8 15.2Z" fill="white"/>
</svg>
