<svg width="32" height="32" viewBox="0 0 32 32" fill="none" xmlns="http://www.w3.org/2000/svg">
<path d="M0 16C0 7.16344 7.16344 0 16 0C24.8366 0 32 7.16344 32 16C32 24.8366 24.8366 32 16 32C7.16344 32 0 24.8366 0 16Z" fill="#E5DED6"/>
<path fill-rule="evenodd" clip-rule="evenodd" d="M27.2 15.2C27.2 18.4794 25.8895 21.0895 23.6 23.2C21.4895 25.4895 18.4795 27.2 15.2 27.2C9.45629 27.2 4.80005 22.5437 4.80005 16.8C4.80005 13.5205 6.00005 11.6 8.00005 9.19999C10.3609 6.36693 13.5206 4.79999 16.8 4.79999C19.3976 4.79999 21.7728 5.75229 23.5954 7.32682L25.9099 5.67731L25.529 9.04838L28.8399 9.78843L26.5045 11.4528C26.9537 12.6154 27.2 13.8789 27.2 15.2ZM26.0902 10.5202L26.4337 10.2753L25.8968 10.1553C25.9636 10.2754 26.028 10.3971 26.0902 10.5202ZM24.6043 8.32569L24.6645 7.79284L24.3327 8.02929C24.4251 8.12633 24.5157 8.22515 24.6043 8.32569Z" fill="#2A2620"/>
<path d="M25.6607 12.0542C26.0099 13.0378 26.2 14.0967 26.2 15.2C26.2 20.3915 21.9915 24.6 16.8 24.6C11.6085 24.6 7.40002 20.3915 7.40002 15.2C7.40002 10.0085 11.6085 5.79999 16.8 5.79999C19.0598 5.79999 21.1333 6.59737 22.7545 7.92611L21.1149 9.09466L20.9734 10.3477C19.8528 9.3831 18.3945 8.79999 16.8 8.79999C13.2654 8.79999 10.4 11.6654 10.4 15.2C10.4 18.7346 13.2654 21.6 16.8 21.6C20.3346 21.6 23.2 18.7346 23.2 15.2C23.2 14.3983 23.0526 13.631 22.7834 12.9238L24.0449 13.2058L25.6607 12.0542Z" fill="white"/>
<path d="M26.4337 10.2753L24.4346 9.82841L24.6645 7.79288L22.0585 9.65013L21.8725 11.2969C21.8725 11.2969 21.8725 11.2969 21.8725 11.2969L21.8286 11.6857L23.8278 12.1326L26.4337 10.2753Z" fill="white"/>
<path d="M20.8311 11.6068C19.8422 10.4981 18.4026 9.79999 16.8 9.79999C13.8177 9.79999 11.4 12.2177 11.4 15.2C11.4 18.1823 13.8177 20.6 16.8 20.6C19.7824 20.6 22.2 18.1823 22.2 15.2C22.2 14.278 21.969 13.41 21.5616 12.6507L21.3747 12.6089L19.0253 14.2992C19.138 14.5774 19.2 14.8814 19.2 15.2C19.2 16.5255 18.1255 17.6 16.8 17.6C15.4745 17.6 14.4 16.5255 14.4 15.2C14.4 13.8745 15.4745 12.8 16.8 12.8C17.4463 12.8 18.0329 13.0554 18.4644 13.4708L20.8113 11.7824L20.8311 11.6068Z" fill="white"/>
</svg>
