<svg width="32" height="32" viewBox="0 0 32 32" fill="none" xmlns="http://www.w3.org/2000/svg">
<path d="M0 16C0 7.16344 7.16344 0 16 0C24.8366 0 32 7.16344 32 16C32 24.8366 24.8366 32 16 32C7.16344 32 0 24.8366 0 16Z" fill="#E5DED6"/>
<path fill-rule="evenodd" clip-rule="evenodd" d="M20.4387 5.4543L18.9514 2.50165L18.0254 4.87145C17.6235 4.82428 17.2146 4.80002 16.8 4.80002C13.5206 4.80002 10.3609 6.36696 8.00005 9.20002C6.00005 11.6 4.80005 13.5206 4.80005 16.8C4.80005 22.5438 9.45629 27.2 15.2 27.2C18.4795 27.2 21.4895 25.4895 23.6 23.2C25.7303 21.2363 27.013 18.8401 27.1811 15.8746L29.7261 15.3703L27.0366 13.3533L27.0283 13.3075L28.7448 10.4182L26.2757 10.9075C25.4987 9.19514 24.2713 7.73064 22.7446 6.6653L23.6536 4.339L20.5601 5.50052C20.5197 5.48487 20.4793 5.46946 20.4387 5.4543ZM19.1203 5.0598L19.0669 4.9538L19.0331 5.04032C19.0622 5.04669 19.0912 5.05318 19.1203 5.0598ZM21.8824 6.12429L21.9062 6.06326L21.8265 6.09318C21.8452 6.10349 21.8638 6.11387 21.8824 6.12429ZM27.3325 14.8252L27.1944 14.8526C27.1929 14.8075 27.1911 14.7625 27.1891 14.7176L27.3325 14.8252ZM26.7399 11.8349L26.6784 11.9386C26.6689 11.9099 26.6594 11.8814 26.6497 11.8528L26.7399 11.8349Z" fill="#2A2620"/>
<path d="M18.664 5.98482L19.0669 4.9538L19.9884 6.78333L21.9062 6.06325L20.7415 9.0439L18.8238 9.76397L18.4458 9.01361C18.4458 9.01361 18.4458 9.01361 18.4458 9.01361L17.9022 7.93444L18.664 5.98482C18.664 5.98482 18.664 5.98482 18.664 5.98482Z" fill="white"/>
<path d="M26.7399 11.8349L25.9711 13.129C25.9711 13.129 25.9711 13.129 25.9711 13.129L25.6937 13.5961L27.3325 14.8252L24.1934 15.4472L22.5546 14.2182L23.6008 12.457L26.7399 11.8349Z" fill="white"/>
<path d="M16.8 5.80002C17.0858 5.80002 17.3686 5.81277 17.6479 5.83774L16.8084 7.98594L17.2255 8.81394C17.0849 8.80471 16.943 8.80002 16.8 8.80002C13.2654 8.80002 10.4 11.6654 10.4 15.2C10.4 18.7346 13.2654 21.6 16.8 21.6C20.0906 21.6 22.8011 19.1167 23.1598 15.922L23.9503 16.5149L26.1596 16.0771C25.7174 20.8573 21.6958 24.6 16.8 24.6C11.6085 24.6 7.40002 20.3915 7.40002 15.2C7.40002 10.0085 11.6085 5.80002 16.8 5.80002Z" fill="white"/>
<path d="M16.8 9.80002C17.1296 9.80002 17.4523 9.82954 17.7656 9.88609L18.0252 10.4016L17.0935 12.8178C16.9973 12.8061 16.8994 12.8 16.8 12.8C15.4745 12.8 14.4 13.8745 14.4 15.2C14.4 16.5255 15.4745 17.6 16.8 17.6C18.0862 17.6 19.136 16.5883 19.1972 15.3173L21.7294 14.8493L22.2 15.2022C22.1988 18.1836 19.7816 20.6 16.8 20.6C13.8177 20.6 11.4 18.1824 11.4 15.2C11.4 12.2177 13.8177 9.80002 16.8 9.80002Z" fill="white"/>
<path d="M19.558 10.5565L18.9491 10.7851L18.0393 13.1443C18.4902 13.4167 18.8441 13.8332 19.0374 14.3299L21.6073 13.8549L21.887 13.3839C21.4617 12.1925 20.6296 11.1943 19.558 10.5565Z" fill="white"/>
<path d="M21.5106 9.8233L20.7022 10.1268C21.4601 10.7107 22.0835 11.4605 22.5179 12.322L22.969 11.5628L25.2649 11.1078C24.5949 9.72434 23.5956 8.52999 22.369 7.6265L21.5106 9.8233Z" fill="white"/>
</svg>
