<svg width="32" height="32" viewBox="0 0 32 32" fill="none" xmlns="http://www.w3.org/2000/svg">
<path d="M0 16C0 7.16344 7.16344 0 16 0V0C24.8366 0 32 7.16344 32 16V16C32 24.8366 24.8366 32 16 32V32C7.16344 32 0 24.8366 0 16V16Z" fill="#E5DED6"/>
<path fill-rule="evenodd" clip-rule="evenodd" d="M12.7375 6.74776C12.3018 6.49619 11.7649 6.49619 11.3292 6.74776L7.6925 8.84739C7.59107 8.90595 7.4987 8.97608 7.41668 9.05555L7.41797 9.00391L5.75895 10.72L5.75986 10.72C5.44305 10.9849 5.255 11.3792 5.255 11.8003V15.9996C5.255 16.5028 5.52343 16.9677 5.95917 17.2193L9.59584 19.3189C9.73015 19.3964 9.87407 19.4501 10.0217 19.4798V23.3663C10.0217 23.8694 10.2901 24.3343 10.7258 24.5859L14.3625 26.6856C14.7982 26.9371 15.3351 26.9371 15.7708 26.6856L19.4075 24.5859C19.554 24.5013 19.6816 24.3926 19.7865 24.2664L21.3328 22.7201L21.332 22.7201C21.6537 22.4552 21.845 22.0577 21.845 21.633V18.564L24.1742 17.2193C24.328 17.1305 24.461 17.0151 24.5686 16.8808L26.0843 15.3651C26.4147 15.1003 26.6117 14.6973 26.6117 14.2663V10.067C26.6117 9.5639 26.3432 9.09897 25.9075 8.84739L22.2708 6.74776C21.8351 6.49619 21.2982 6.49619 20.8625 6.74776L17.2258 8.84739C17.0567 8.94503 16.9128 9.07481 16.8 9.2265C16.6872 9.07481 16.5433 8.94503 16.3742 8.84739L12.7375 6.74776Z" fill="#2A2620"/>
<path d="M21.0667 7.12207C21.3761 6.94344 21.7573 6.94344 22.0667 7.12207L25.57 9.14472C25.8794 9.32336 26.07 9.65348 26.07 10.0107V14.056C26.07 14.4133 25.8794 14.7434 25.57 14.9221L22.0667 16.9447C21.7573 17.1234 21.3761 17.1234 21.0667 16.9447L17.5633 14.9221C17.2539 14.7434 17.0633 14.4133 17.0633 14.056V10.0107C17.0633 9.65348 17.2539 9.32336 17.5633 9.14472L21.0667 7.12207Z" fill="white"/>
<path fill-rule="evenodd" clip-rule="evenodd" d="M20.8167 6.68906C21.2808 6.42111 21.8526 6.42111 22.3167 6.68906L25.82 8.71171C26.2841 8.97966 26.57 9.47485 26.57 10.0107V14.056C26.57 14.5919 26.2841 15.0871 25.82 15.3551L22.3167 17.3777C21.8526 17.6457 21.2808 17.6457 20.8167 17.3777L17.3133 15.3551C16.8492 15.0871 16.5633 14.5919 16.5633 14.056V10.0107C16.5633 9.47485 16.8492 8.97966 17.3133 8.71171L20.8167 6.68906ZM21.8167 7.55509C21.662 7.46577 21.4714 7.46577 21.3167 7.55509L17.8133 9.57774C17.6586 9.66705 17.5633 9.83212 17.5633 10.0107V14.056C17.5633 14.2347 17.6586 14.3997 17.8133 14.4891L21.3167 16.5117C21.4714 16.601 21.662 16.601 21.8167 16.5117L25.32 14.4891C25.4747 14.3997 25.57 14.2347 25.57 14.056V10.0107C25.57 9.83212 25.4747 9.66705 25.32 9.57774L21.8167 7.55509Z" fill="#2A2620"/>
<path d="M11.5333 7.12207C11.8427 6.94344 12.2239 6.94344 12.5333 7.12207L16.0367 9.14472C16.3461 9.32336 16.5367 9.65348 16.5367 10.0107L16.5367 14.056C16.5367 14.4133 16.3461 14.7434 16.0367 14.9221L12.5333 16.9447C12.2239 17.1234 11.8427 17.1234 11.5333 16.9447L8.03 14.9221C7.7206 14.7434 7.53 14.4133 7.53 14.056L7.53 10.0107C7.53 9.65348 7.7206 9.32336 8.03 9.14472L11.5333 7.12207Z" fill="white"/>
<path fill-rule="evenodd" clip-rule="evenodd" d="M11.2833 6.68906C11.7474 6.42111 12.3192 6.42111 12.7833 6.68906L16.2867 8.71171C16.7508 8.97966 17.0367 9.47485 17.0367 10.0107L17.0367 14.056C17.0367 14.5919 16.7508 15.0871 16.2867 15.3551L12.7833 17.3777C12.3192 17.6457 11.7474 17.6457 11.2833 17.3777L7.78 15.3551C7.3159 15.0871 7.03 14.5919 7.03 14.056L7.03 10.0107C7.03 9.47485 7.3159 8.97966 7.78 8.71171L11.2833 6.68906ZM12.2833 7.55509C12.1286 7.46577 11.938 7.46577 11.7833 7.55509L8.28 9.57774C8.1253 9.66705 8.03 9.83212 8.03 10.0107L8.03 14.056C8.03 14.2347 8.1253 14.3997 8.28 14.4891L11.7833 16.5117C11.938 16.601 12.1286 16.601 12.2833 16.5117L15.7867 14.4891C15.9414 14.3997 16.0367 14.2347 16.0367 14.056L16.0367 10.0107C16.0367 9.83212 15.9414 9.66705 15.7867 9.57774L12.2833 7.55509Z" fill="#2A2620"/>
<path d="M16.3 14.4886C16.6094 14.31 16.9906 14.31 17.3 14.4886L20.8033 16.5113C21.1127 16.6899 21.3033 17.0201 21.3033 17.3773V21.4226C21.3033 21.7799 21.1127 22.11 20.8033 22.2886L17.3 24.3113C16.9906 24.4899 16.6094 24.4899 16.3 24.3113L12.7967 22.2886C12.4873 22.11 12.2967 21.7799 12.2967 21.4226V17.3773C12.2967 17.0201 12.4873 16.6899 12.7967 16.5113L16.3 14.4886Z" fill="white"/>
<path fill-rule="evenodd" clip-rule="evenodd" d="M16.05 14.0556C16.5141 13.7877 17.0859 13.7877 17.55 14.0556L21.0533 16.0783C21.5174 16.3462 21.8033 16.8414 21.8033 17.3773V21.4226C21.8033 21.9585 21.5174 22.4537 21.0533 22.7217L17.55 24.7443C17.0859 25.0123 16.5141 25.0123 16.05 24.7443L12.5467 22.7217C12.0826 22.4537 11.7967 21.9585 11.7967 21.4226V17.3773C11.7967 16.8414 12.0826 16.3462 12.5467 16.0783L16.05 14.0556ZM17.05 14.9217C16.8953 14.8323 16.7047 14.8323 16.55 14.9217L13.0467 16.9443C12.892 17.0336 12.7967 17.1987 12.7967 17.3773V21.4226C12.7967 21.6013 12.892 21.7663 13.0467 21.8556L16.55 23.8783C16.7047 23.9676 16.8953 23.9676 17.05 23.8783L20.5533 21.8556C20.708 21.7663 20.8033 21.6013 20.8033 21.4226V17.3773C20.8033 17.1987 20.708 17.0336 20.5533 16.9443L17.05 14.9217Z" fill="#2A2620"/>
<path d="M22.8667 11.1667C22.8667 11.8847 22.2846 12.4667 21.5667 12.4667C20.8487 12.4667 20.2667 11.8847 20.2667 11.1667C20.2667 10.4487 20.8487 9.8667 21.5667 9.8667C22.2846 9.8667 22.8667 10.4487 22.8667 11.1667Z" fill="#2A2620"/>
<path fill-rule="evenodd" clip-rule="evenodd" d="M21.5667 10.3667C21.1248 10.3667 20.7667 10.7249 20.7667 11.1667C20.7667 11.6085 21.1248 11.9667 21.5667 11.9667C22.0085 11.9667 22.3667 11.6085 22.3667 11.1667C22.3667 10.7249 22.0085 10.3667 21.5667 10.3667ZM19.7667 11.1667C19.7667 10.1726 20.5726 9.3667 21.5667 9.3667C22.5608 9.3667 23.3667 10.1726 23.3667 11.1667C23.3667 12.1608 22.5608 12.9667 21.5667 12.9667C20.5726 12.9667 19.7667 12.1608 19.7667 11.1667Z" fill="#2A2620"/>
<path d="M18.1 18.5333C18.1 19.2512 17.518 19.8333 16.8 19.8333C16.082 19.8333 15.5 19.2512 15.5 18.5333C15.5 17.8153 16.082 17.2333 16.8 17.2333C17.518 17.2333 18.1 17.8153 18.1 18.5333Z" fill="#2A2620"/>
<path fill-rule="evenodd" clip-rule="evenodd" d="M16.8 17.7333C16.3582 17.7333 16 18.0914 16 18.5333C16 18.9751 16.3582 19.3333 16.8 19.3333C17.2418 19.3333 17.6 18.9751 17.6 18.5333C17.6 18.0914 17.2418 17.7333 16.8 17.7333ZM15 18.5333C15 17.5392 15.8059 16.7333 16.8 16.7333C17.7941 16.7333 18.6 17.5392 18.6 18.5333C18.6 19.5274 17.7941 20.3333 16.8 20.3333C15.8059 20.3333 15 19.5274 15 18.5333Z" fill="#2A2620"/>
<path d="M13.3333 11.1667C13.3333 11.8847 12.7513 12.4667 12.0333 12.4667C11.3154 12.4667 10.7333 11.8847 10.7333 11.1667C10.7333 10.4487 11.3154 9.8667 12.0333 9.8667C12.7513 9.8667 13.3333 10.4487 13.3333 11.1667Z" fill="#2A2620"/>
<path fill-rule="evenodd" clip-rule="evenodd" d="M12.0333 10.3667C11.5915 10.3667 11.2333 10.7249 11.2333 11.1667C11.2333 11.6085 11.5915 11.9667 12.0333 11.9667C12.4752 11.9667 12.8333 11.6085 12.8333 11.1667C12.8333 10.7249 12.4752 10.3667 12.0333 10.3667ZM10.2333 11.1667C10.2333 10.1726 11.0392 9.3667 12.0333 9.3667C13.0274 9.3667 13.8333 10.1726 13.8333 11.1667C13.8333 12.1608 13.0274 12.9667 12.0333 12.9667C11.0392 12.9667 10.2333 12.1608 10.2333 11.1667Z" fill="#2A2620"/>
<path d="M21.5667 13.7667C20.6094 13.7667 19.8333 14.7368 19.8333 15.9334L21.6 17.2L23.3 15.9334C23.3 14.7368 22.524 13.7667 21.5667 13.7667Z" fill="#2A2620"/>
<path fill-rule="evenodd" clip-rule="evenodd" d="M20.3463 15.6859L21.5943 16.5807L22.7877 15.6916C22.6954 14.8044 22.1024 14.2667 21.5667 14.2667C21.0321 14.2667 20.4405 14.8021 20.3463 15.6859ZM19.3333 15.9334C19.3333 14.5705 20.2349 13.2667 21.5667 13.2667C22.8985 13.2667 23.8 14.5705 23.8 15.9334V16.1844L21.6057 17.8193L19.3333 16.1901V15.9334Z" fill="#2A2620"/>
<path d="M12.0333 13.7667C11.076 13.7667 10.3 14.7368 10.3 15.9334L12 17.2L13.7667 15.9334C13.7667 14.7368 12.9906 13.7667 12.0333 13.7667Z" fill="#2A2620"/>
<path fill-rule="evenodd" clip-rule="evenodd" d="M10.8124 15.6916L12.0057 16.5807L13.2537 15.6859C13.1595 14.8021 12.5679 14.2667 12.0333 14.2667C11.4976 14.2667 10.9046 14.8044 10.8124 15.6916ZM9.8 15.9334C9.8 14.5705 10.7016 13.2667 12.0333 13.2667C13.3651 13.2667 14.2667 14.5705 14.2667 15.9334V16.1901L11.9943 17.8193L9.8 16.1844V15.9334Z" fill="#2A2620"/>
<path d="M16.8 21.1333C15.8427 21.1333 15.0667 22.1034 15.0667 23.3L16.8 24.4L18.5333 23.3C18.5333 22.1034 17.7573 21.1333 16.8 21.1333Z" fill="#2A2620"/>
<path fill-rule="evenodd" clip-rule="evenodd" d="M15.5816 23.0346L16.8 23.8078L18.0184 23.0346C17.9182 22.1615 17.331 21.6333 16.8 21.6333C16.269 21.6333 15.6818 22.1615 15.5816 23.0346ZM14.5667 23.3C14.5667 21.9371 15.4682 20.6333 16.8 20.6333C18.1318 20.6333 19.0333 21.9371 19.0333 23.3V23.5748L16.8 24.9922L14.5667 23.5748V23.3Z" fill="#2A2620"/>
</svg>
