<svg width="32" height="32" viewBox="0 0 32 32" fill="none" xmlns="http://www.w3.org/2000/svg">
<path d="M0 16C0 7.16344 7.16344 0 16 0C24.8366 0 32 7.16344 32 16C32 24.8366 24.8366 32 16 32C7.16344 32 0 24.8366 0 16Z" fill="#E5DED6"/>
<path fill-rule="evenodd" clip-rule="evenodd" d="M22.0896 15.4991C22.2508 15.3397 22.4669 15.127 22.693 14.9045C22.9667 14.6352 23.2548 14.3517 23.4774 14.1313C23.492 14.1168 23.506 14.1018 23.5195 14.0863C23.6315 13.9788 23.7391 13.8655 23.8415 13.746C25.6465 11.6393 25.3026 8.23817 25.0791 6.90468C25.0223 6.56596 24.7402 6.32424 24.3968 6.32008C23.0448 6.3037 19.6312 6.48547 17.8262 8.59217C17.7764 8.65025 17.7283 8.70931 17.6818 8.76929C17.5972 7.87073 17.3537 6.96838 16.8465 6.17907C15.3466 3.84527 11.99 3.19825 10.6485 3.02954C10.3918 2.99726 10.1511 3.10324 10.0041 3.29759L8.58176 4.81111C8.49635 4.8915 8.43028 4.99483 8.39258 5.1153C7.98875 6.40568 7.18286 9.72779 8.68269 12.0616C10.1769 14.3867 13.5142 15.0376 14.8656 15.2092C14.8688 15.3078 14.8731 15.4045 14.8782 15.4991H10.2022C10.0029 15.4991 9.81955 15.5722 9.68168 15.6929V15.6895L8.03515 17.336H8.03624C7.89611 17.4807 7.81535 17.6796 7.83346 17.8986C7.98365 19.7138 8.64977 20.4848 9.28299 21.2177C9.81603 21.8346 10.3257 22.4245 10.4848 23.5877C10.4944 23.6584 10.5116 23.7271 10.5355 23.7926V27.2325C10.5355 27.6743 10.8937 28.0325 11.3355 28.0325H20.6688C20.9125 28.0325 21.1307 27.9236 21.2774 27.7518L22.7883 26.2408C22.96 26.0941 23.0689 25.876 23.0689 25.6324C23.0689 25.6324 22.9098 23.3558 23.0689 22.1926C23.2279 21.0294 23.7884 20.2346 24.3214 19.6176C24.9546 18.8848 25.6207 18.1138 25.7709 16.2986C25.8074 15.8582 25.444 15.4991 25.0022 15.4991H22.0896ZM10.5641 4.88612C12.1356 5.25847 14.2433 6.0625 15.3465 7.77907C15.8349 8.53913 16.0788 9.40401 16.1717 10.2694C16.2067 10.2254 16.2426 10.182 16.2794 10.1391C16.4164 9.97912 16.5627 9.83026 16.7167 9.69175C16.7339 8.61575 16.5462 7.56145 16.0052 6.71971C15.4138 5.79944 14.4159 5.15764 13.3188 4.72172C12.3658 4.34304 11.4153 4.15063 10.7741 4.05598C10.706 4.29112 10.6323 4.57218 10.5641 4.88612ZM24.1203 10.7294C24.0281 9.71702 23.7668 8.83465 23.5913 8.33226C23.4948 8.05588 23.2411 7.87452 22.9484 7.86857C22.3566 7.85656 21.2781 7.87943 20.1071 8.12253C20.5497 7.91272 21.0284 7.7519 21.52 7.63107C22.5159 7.38631 23.4838 7.32573 24.1319 7.31969C24.2254 7.96109 24.3139 8.92683 24.2248 9.94845C24.2018 10.2116 24.1676 10.4729 24.1203 10.7294ZM14.9704 16.4991H10.4594C10.4873 16.7222 10.5244 16.9208 10.5683 17.0991H15.0659C15.0593 17.0756 15.0539 17.0514 15.0497 17.0268C15.0241 16.8776 14.9965 16.6999 14.9704 16.4991ZM21.4688 25.4324H22.0546L22.0479 25.3121C22.0352 25.0743 22.0198 24.7445 22.0096 24.3765C21.9898 23.6628 21.9863 22.7287 22.0781 22.0571C22.0792 22.049 22.0803 22.0408 22.0815 22.0327C21.8195 22.4372 21.6113 22.9172 21.5196 23.5877C21.5099 23.6584 21.4927 23.7271 21.4688 23.7926V25.4324ZM24.1339 18.2498C24.1485 18.1372 24.1608 18.0202 24.1709 17.8986C24.2073 17.4583 23.844 17.0991 23.4022 17.0991H19.813C20.2146 16.9442 20.608 16.7475 20.9768 16.4991H24.7451C24.6655 17.1338 24.5117 17.5709 24.3391 17.9046C24.2755 18.0275 24.2074 18.1408 24.1339 18.2498Z" fill="#2A2620"/>
<path d="M11.024 9.921C10.4325 9.00073 10.2633 7.82638 10.3225 6.64738C10.374 5.62317 10.5938 4.67862 10.7741 4.05603C11.4153 4.15067 12.3658 4.34309 13.3189 4.72177C14.4159 5.15768 15.4138 5.79948 16.0052 6.71976C16.5967 7.64003 16.7659 8.81438 16.7067 9.99338C16.6668 10.7866 16.526 11.532 16.3807 12.1171L12.6375 6.35648L11.7989 6.90135L15.3886 12.4256C14.8772 12.3131 14.2942 12.151 13.7104 11.919C12.6133 11.4831 11.6154 10.8413 11.024 9.921Z" fill="white"/>
<path d="M20.1477 14.7071C21.2941 14.4254 22.3704 13.9261 23.0822 13.0954C23.7939 12.2647 24.1222 11.1245 24.2248 9.9485C24.314 8.92688 24.2254 7.96114 24.132 7.31974C23.4838 7.32578 22.5159 7.38636 21.5201 7.63112C20.3737 7.91287 19.2974 8.41213 18.5856 9.24285C17.8739 10.0736 17.5456 11.2137 17.443 12.3897C17.3764 13.1527 17.4089 13.8844 17.4686 14.4732L21.6936 9.29842L22.4682 9.93085L18.3417 14.9851C18.8807 14.9455 19.5084 14.8642 20.1477 14.7071Z" fill="white"/>
<path d="M10.4594 16.4992C10.5389 17.1338 10.6927 17.5709 10.8653 17.9046C11.0688 18.2979 11.3189 18.5926 11.6397 18.9639C11.6656 18.9938 11.6928 19.0251 11.7213 19.0578C12.2341 19.6462 13.1356 20.6805 13.1356 22.1926V25.4325H22.0546L22.0479 25.3121C22.0352 25.0743 22.0199 24.7445 22.0096 24.3766C21.9898 23.6628 21.9863 22.7288 22.0781 22.0572C22.2749 20.6179 22.9756 19.6458 23.5647 18.9639C23.8855 18.5926 24.1357 18.2979 24.3391 17.9046C24.5117 17.5709 24.6655 17.1338 24.7451 16.4992H10.4594Z" fill="white"/>
</svg>
