<svg width="32" height="32" viewBox="0 0 32 32" fill="none" xmlns="http://www.w3.org/2000/svg">
<path d="M0 16C0 7.16344 7.16344 0 16 0C24.8366 0 32 7.16344 32 16C32 24.8366 24.8366 32 16 32C7.16344 32 0 24.8366 0 16Z" fill="#E5DED6"/>
<path d="M18.9361 25.7236V26.2236H19.1727L18.9423 26.454L18.8866 26.5097L18.8507 26.5798C18.747 26.7825 18.5403 27.0008 18.2139 27.2017L18.2111 27.2034C17.6069 27.5742 16.6824 27.8294 15.6169 27.8294C14.6294 27.8294 13.7602 27.61 13.1558 27.2803C12.5324 26.9403 12.2977 26.5527 12.2977 26.2462C12.2977 26.2392 12.2978 26.2321 12.2981 26.2251L12.2983 26.217L12.2983 26.209L12.2977 22.3479C12.2977 22.3479 12.2977 22.3479 12.2977 22.3479C12.2977 21.7219 11.9996 21.1354 11.6452 20.6265C11.2902 20.1169 10.8278 19.6155 10.4055 19.1578L10.3926 19.1437C10.0483 18.7705 9.73174 18.4267 9.48127 18.1008C8.62197 16.9826 8.13135 15.7846 8.13135 14.3305C8.13135 12.5855 8.83824 10.9927 10.0052 9.79411L10.4387 9.34895L10.8856 8.90199V8.96693L11.6296 8.55097C12.694 7.95587 13.938 7.6131 15.2697 7.6131C19.2392 7.6131 22.4081 10.6469 22.4081 14.3305C22.4081 15.6791 21.9869 17.0843 21.276 18.1231C21.093 18.3905 20.8688 18.6769 20.6222 18.9914L20.6118 19.0046C20.2451 19.4724 19.833 19.9981 19.5145 20.5409C19.1943 21.0864 18.9361 21.7018 18.9361 22.3479V25.7236Z" fill="#2A2620" stroke="#2A2620"/>
<path d="M22.3102 17.9111C21.563 18.8643 20.7307 19.9261 20.7307 20.9591V24.8202C20.7311 24.8326 20.7308 24.845 20.7308 24.8574C20.7308 26.0079 19.0209 26.9406 16.9116 26.9406C14.8023 26.9406 13.0924 26.0079 13.0924 24.8574C13.0924 24.845 13.0926 24.8326 13.093 24.8202L13.0923 20.9591C13.0923 20.0158 12.1823 19.0292 11.3196 18.0939C10.9792 17.7249 10.6462 17.3639 10.3794 17.0167C9.46509 15.827 8.9259 14.5244 8.9259 12.9417C8.9259 8.95567 12.3457 5.7243 16.5643 5.7243C20.7828 5.7243 24.2026 8.95567 24.2026 12.9417C24.2026 14.3843 23.7547 15.8892 22.9832 17.0167C22.7893 17.3 22.5543 17.5998 22.3102 17.9111Z" fill="white"/>
<path d="M15.5084 2.40002V4.37797H16.5084V2.40002H15.5084Z" fill="#2A2620"/>
<path d="M7.0437 5.68048L8.44232 7.0791L9.14943 6.37199L7.75081 4.97337L7.0437 5.68048Z" fill="#2A2620"/>
<path d="M23.5745 7.0791L24.9731 5.68048L24.266 4.97337L22.8674 6.37199L23.5745 7.0791Z" fill="#2A2620"/>
<path d="M4 13.4491H5.97795V12.4491H4V13.4491Z" fill="#2A2620"/>
<path d="M28.0168 13.4491H26.0388V12.4491H28.0168V13.4491Z" fill="#2A2620"/>
<path fill-rule="evenodd" clip-rule="evenodd" d="M17.8146 14.3661C17.7484 14.4505 17.6782 14.5379 17.6033 14.6259C18.1448 14.7789 18.6553 14.7245 19.0218 14.4234L19.4081 14.1059L20.043 14.8786L19.6567 15.196C18.9487 15.7777 18.0539 15.7973 17.3102 15.5822C17.1272 15.5293 16.947 15.4605 16.7736 15.3784C16.6462 15.4597 16.5099 15.5318 16.3636 15.5909C15.6805 15.8668 14.8764 15.8242 13.9079 15.3457L13.4597 15.1242L13.9027 14.2277L14.3509 14.4492C15.0176 14.7786 15.4804 14.8064 15.8223 14.7186C15.7007 14.5972 15.5936 14.4682 15.5045 14.334C14.9718 13.5318 14.8343 12.6973 15.0651 12.0194C15.3001 11.3293 15.9049 10.8635 16.6667 10.8637C17.1113 10.8638 17.4997 10.9972 17.8011 11.2492C18.0992 11.4985 18.2796 11.8364 18.3617 12.1934C18.5233 12.8967 18.3198 13.722 17.8146 14.3661ZM16.6665 11.8637C16.9053 11.8637 17.0589 11.9321 17.1596 12.0163C17.2636 12.1033 17.3454 12.2361 17.3871 12.4175C17.4729 12.7909 17.3703 13.3122 17.0278 13.7489C16.9127 13.8957 16.7998 14.031 16.6856 14.1518C16.5397 14.0331 16.4205 13.9059 16.3375 13.7809C15.932 13.1701 15.9042 12.6575 16.0118 12.3417C16.1151 12.0381 16.3523 11.8636 16.6665 11.8637Z" fill="#2A2620"/>
<path fill-rule="evenodd" clip-rule="evenodd" d="M20.7307 23.2607V20.9591C20.7307 19.9261 21.563 18.8643 22.3102 17.9111C22.5543 17.5998 22.7893 17.3 22.9832 17.0167C23.7547 15.8892 24.2026 14.3843 24.2026 12.9417C24.2026 8.95567 20.7828 5.7243 16.5643 5.7243C12.3457 5.7243 8.9259 8.95567 8.9259 12.9417C8.9259 14.5244 9.46509 15.827 10.3794 17.0167C10.6462 17.3639 10.9792 17.7249 11.3196 18.0939C12.1823 19.0292 13.0923 20.0158 13.0923 20.9591V24.8202C13.0919 24.8326 13.0924 24.845 13.0924 24.8574C13.0924 26.0079 14.8023 26.9406 16.9116 26.9406C19.0209 26.9406 20.7308 26.0079 20.7308 24.8574C20.7308 24.845 20.7306 24.8326 20.7302 24.8202L20.7307 23.2875L20.7308 23.2764C20.7308 23.2712 20.7307 23.2659 20.7307 23.2607ZM22.1579 16.4519C22.8081 15.5018 23.2026 14.1964 23.2026 12.9417C23.2026 9.56061 20.2847 6.7243 16.5643 6.7243C12.8438 6.7243 9.9259 9.56061 9.9259 12.9417C9.9259 14.2672 10.368 15.3607 11.1723 16.4073C11.3775 16.6744 11.6366 16.9619 11.9369 17.2882L12.053 17.4141C12.3128 17.6958 12.5959 18.0026 12.8555 18.312C13.4089 18.9715 14.0923 19.9021 14.0923 20.9591V21.8711C14.7906 21.4545 15.7952 21.1932 16.9116 21.1932C18.0279 21.1932 19.0323 21.4545 19.7307 21.871V20.9591C19.7307 19.9463 20.2589 19.0295 20.7397 18.3359C20.9914 17.9727 21.2665 17.6217 21.5119 17.3085C21.7657 16.9848 21.983 16.7075 22.1579 16.4519ZM19.7307 23.2801C19.7305 23.2822 19.7303 23.2847 19.73 23.2875L19.7307 23.452C19.0323 23.0355 18.0279 22.7742 16.9116 22.7742C15.7952 22.7742 14.7906 23.0355 14.0923 23.4521V23.2875C14.0917 23.2828 14.0924 23.2791 14.0924 23.2764C14.0924 23.2387 14.1343 22.9843 14.6899 22.6813C15.2077 22.3989 15.9913 22.1932 16.9116 22.1932C17.8319 22.1932 18.6155 22.3989 19.1333 22.6813C19.6735 22.9759 19.728 23.2245 19.7307 23.2728V23.2801ZM19.1333 25.4526C19.6889 25.1495 19.7308 24.8952 19.7308 24.8574C19.7308 24.8197 19.6889 24.5653 19.1333 24.2623C18.6155 23.9798 17.8319 23.7742 16.9116 23.7742C15.9913 23.7742 15.2077 23.9798 14.6899 24.2623C14.1343 24.5653 14.0924 24.8197 14.0924 24.8574C14.0924 24.8952 14.1343 25.1495 14.6899 25.4526C15.2077 25.735 15.9913 25.9406 16.9116 25.9406C17.8319 25.9406 18.6155 25.735 19.1333 25.4526Z" fill="#2A2620"/>
</svg>
