<svg width="32" height="32" viewBox="0 0 32 32" fill="none" xmlns="http://www.w3.org/2000/svg">
<path d="M0 16C0 7.16344 7.16344 0 16 0C24.8366 0 32 7.16344 32 16C32 24.8366 24.8366 32 16 32C7.16344 32 0 24.8366 0 16Z" fill="#E5DED6"/>
<path d="M23.3105 23.3105C25.6821 21.4044 27.2 18.4795 27.2 15.2C27.2 9.45624 22.5437 4.8 16.8 4.8C13.5205 4.8 10.5956 6.31791 8.68946 8.68947C6.79999 10.8 4.79999 13.5206 4.79999 16.8C4.79999 22.5438 9.45623 27.2 15.2 27.2C18.4794 27.2 20.8 25.2 23.3105 23.3105Z" fill="#2A2620"/>
<path d="M26.2 15.2C26.2 20.3915 21.9915 24.6 16.8 24.6C11.6085 24.6 7.40002 20.3915 7.40002 15.2C7.40002 10.0085 11.6085 5.8 16.8 5.8C21.9915 5.8 26.2 10.0085 26.2 15.2Z" fill="white"/>
<path fill-rule="evenodd" clip-rule="evenodd" d="M17.3 20.9V14.3H16.3V20.9H17.3Z" fill="#2A2620"/>
<path d="M18.4 11.2C18.4 10.3163 17.6837 9.6 16.8 9.6C15.9164 9.6 15.2 10.3163 15.2 11.2C15.2 12.0837 15.9164 12.8 16.8 12.8C17.6837 12.8 18.4 12.0837 18.4 11.2Z" fill="#2A2620"/>
</svg>
