<svg width="32" height="32" viewBox="0 0 32 32" fill="none" xmlns="http://www.w3.org/2000/svg">
<path d="M0 16C0 7.16344 7.16344 0 16 0C24.8366 0 32 7.16344 32 16C32 24.8366 24.8366 32 16 32C7.16344 32 0 24.8366 0 16Z" fill="#E5DED6"/>
<path d="M25.5421 19.3428C24.9718 20.5888 24.1303 21.6964 23.0571 22.6857C21.0973 24.8116 18.3023 26.4 15.2571 26.4C10.8244 26.4 7.08921 23.4135 5.95396 19.3428H4.11422C3.08855 19.3428 2.25708 18.5113 2.25708 17.4857V16C2.25708 15.2238 2.76852 14.7199 3.31526 14.1813C3.40916 14.0888 3.50414 13.9952 3.59771 13.8991C3.6627 13.8323 3.73011 13.7573 3.80129 13.678C4.2003 13.2339 4.71847 12.6571 5.59994 12.6571H6.50998C7.01422 11.6495 7.71354 10.7151 8.57136 9.68569C9.77562 8.24058 11.2037 7.15024 12.7511 6.46098C13.9677 5.90799 15.3193 5.59998 16.7428 5.59998C16.7428 5.59998 16.7428 5.59998 16.7428 5.59998C21.1755 5.59998 24.9107 8.58648 26.0459 12.6571H27.8857C28.9113 12.6571 29.7428 13.4886 29.7428 14.5142V16C29.7428 16.9094 29.3965 17.2556 28.7562 17.8861L28.6424 17.9982C27.5968 19.0288 27.2783 19.3428 26.3999 19.3428H25.5421Z" fill="#2A2620"/>
<path fill-rule="evenodd" clip-rule="evenodd" d="M16.7428 23.9143C21.524 23.9143 25.4 20.0383 25.4 15.2571C25.4 10.4759 21.524 6.59998 16.7428 6.59998C11.9616 6.59998 8.0857 10.4759 8.0857 15.2571C8.0857 20.0383 11.9616 23.9143 16.7428 23.9143ZM15.4454 19.2843L21.7171 11.4657L20.9371 10.84L15.0143 18.2236L12.4711 15.6827L11.7643 16.3902L14.702 19.3251C14.8025 19.4255 14.941 19.4784 15.0828 19.4707C15.2247 19.4629 15.3565 19.3951 15.4454 19.2843Z" fill="white"/>
<path d="M27.8286 16.7428L26.2864 16.7428C26.3612 16.2585 26.4 15.7624 26.4 15.2571C26.4 14.7519 26.3612 14.2557 26.2864 13.7714H27.8286C28.2428 13.7714 28.5835 14.0862 28.6245 14.4896C28.6272 14.5165 28.6286 14.5438 28.6286 14.5714V15.9428C28.6286 16.3847 28.2704 16.7428 27.8286 16.7428Z" fill="white"/>
<path d="M5.65718 13.7714H7.19927C7.12449 14.2557 7.0857 14.7519 7.0857 15.2571C7.0857 15.7624 7.12449 16.2585 7.19927 16.7428H5.65718C5.32581 16.7428 5.04149 16.5414 4.92005 16.2542C4.9165 16.2458 4.91308 16.2374 4.90982 16.2288C4.90377 16.213 4.8982 16.197 4.89314 16.1807C4.87298 16.1159 4.86084 16.0475 4.85789 15.9768C4.85742 15.9655 4.85718 15.9542 4.85718 15.9428V14.5714C4.85718 14.4943 4.86808 14.4198 4.88843 14.3493C4.98471 14.0155 5.29244 13.7714 5.65718 13.7714Z" fill="white"/>
</svg>
