<svg width="32" height="32" viewBox="0 0 32 32" fill="none" xmlns="http://www.w3.org/2000/svg">
<path d="M0 16C0 7.16344 7.16344 0 16 0V0C24.8366 0 32 7.16344 32 16V16C32 24.8366 24.8366 32 16 32V32C7.16344 32 0 24.8366 0 16V16Z" fill="#E5DED6"/>
<path fill-rule="evenodd" clip-rule="evenodd" d="M16 26.4L15.4564 27.2393L15.4532 27.2372L15.447 27.2333L15.4263 27.2196C15.4087 27.208 15.3838 27.1915 15.3519 27.17C15.2883 27.1272 15.197 27.0649 15.082 26.9843C14.8521 26.823 14.527 26.588 14.1384 26.2875C13.3627 25.6878 12.3255 24.8213 11.2846 23.7556C9.24811 21.6705 7 18.6232 7 15.2C7 10.2294 11.0294 6.20001 16 6.20001C20.9706 6.20001 25 10.2294 25 15.2C25 18.6232 22.7519 21.6705 20.7154 23.7556C19.6745 24.8213 18.6373 25.6878 17.8616 26.2875C17.473 26.588 17.1479 26.823 16.918 26.9843C16.803 27.0649 16.7117 27.1272 16.6481 27.17C16.6162 27.1915 16.5913 27.208 16.5737 27.2196L16.553 27.2333L16.5468 27.2372L16.5436 27.2393L16 26.4ZM16 26.4C15.4564 27.2393 15.4566 27.2395 15.4564 27.2393L16 27.5915L16.5436 27.2393C16.5434 27.2395 16.5436 27.2393 16 26.4Z" fill="#2A2620"/>
<path d="M9.58398 8.90111L11.2 7.28505L11.2 8.90918L9.58398 8.90111Z" fill="#2A2620"/>
<path d="M25.6 13.6C25.6 19.6183 17.6 24.8 17.6 24.8C17.6 24.8 9.6 19.6183 9.6 13.6C9.6 9.1817 13.1817 5.59998 17.6 5.59998C22.0183 5.59998 25.6 9.1817 25.6 13.6Z" fill="white"/>
<path fill-rule="evenodd" clip-rule="evenodd" d="M17.0564 25.6393L17.6 24.8L18.1436 25.6393L17.6 25.9914L17.0564 25.6393ZM17.6 24.8C17.6 24.8 9.6 19.6183 9.6 13.6C9.6 9.1817 13.1817 5.59998 17.6 5.59998C22.0183 5.59998 25.6 9.1817 25.6 13.6C25.6 19.6183 17.6 24.8 17.6 24.8ZM18.1436 25.6393C18.1434 25.6395 18.1436 25.6393 17.6 24.8C17.0564 25.6393 17.0566 25.6395 17.0564 25.6393L17.0532 25.6372L17.047 25.6332L17.0263 25.6196C17.0087 25.608 16.9838 25.5914 16.9519 25.57C16.8883 25.5272 16.797 25.4649 16.682 25.3842C16.4521 25.223 16.127 24.9879 15.7384 24.6874C14.9627 24.0878 13.9255 23.2212 12.8846 22.1556C10.8481 20.0705 8.6 17.0231 8.6 13.6C8.6 8.62941 12.6294 4.59998 17.6 4.59998C22.5706 4.59998 26.6 8.62941 26.6 13.6C26.6 17.0231 24.3519 20.0705 22.3154 22.1556C21.2745 23.2212 20.2373 24.0878 19.4616 24.6874C19.073 24.9879 18.7479 25.223 18.518 25.3842C18.403 25.4649 18.3117 25.5272 18.2481 25.57C18.2162 25.5914 18.1913 25.608 18.1737 25.6196L18.153 25.6332L18.1468 25.6372L18.1436 25.6393Z" fill="#2A2620"/>
<path d="M20 13.6C20 14.9255 18.9255 16 17.6 16C16.2745 16 15.2 14.9255 15.2 13.6C15.2 12.2745 16.2745 11.2 17.6 11.2C18.9255 11.2 20 12.2745 20 13.6Z" fill="#2A2620"/>
</svg>
