<svg width="32" height="32" viewBox="0 0 32 32" fill="none" xmlns="http://www.w3.org/2000/svg">
<path d="M0 16C0 7.16344 7.16344 0 16 0C24.8366 0 32 7.16344 32 16C32 24.8366 24.8366 32 16 32C7.16344 32 0 24.8366 0 16Z" fill="#E5DED6"/>
<path d="M10.2627 5.59998C9.83835 5.59998 9.43138 5.76855 9.13132 6.0686L7.66858 7.53135C7.36852 7.8314 7.19995 8.23837 7.19995 8.66272V24.8C7.19995 25.6836 7.9163 26.4 8.79995 26.4H21.7372C22.1616 26.4 22.5685 26.2314 22.8686 25.9313L24.3313 24.4686C24.6314 24.1686 24.8 23.7616 24.8 23.3373V23.2178C24.8 23.2119 24.8 23.2059 24.8 23.2V7.19998C24.8 6.31632 24.0837 5.59998 23.2 5.59998H10.2627Z" fill="#2A2620"/>
<path fill-rule="evenodd" clip-rule="evenodd" d="M23.2 6.59998H10.4C10.0687 6.59998 9.80005 6.8686 9.80005 7.19998V23.2C9.80005 23.5313 10.0687 23.8 10.4 23.8H23.2C23.5314 23.8 23.8 23.5313 23.8 23.2V7.19998C23.8 6.86861 23.5314 6.59998 23.2 6.59998ZM13.2 11.6C13.8627 11.6 14.4 11.0627 14.4 10.4C14.4 9.73724 13.8627 9.19998 13.2 9.19998C12.5373 9.19998 12 9.73724 12 10.4C12 11.0627 12.5373 11.6 13.2 11.6ZM16 10.9H21.6V9.90001H16V10.9ZM16 15.7H21.6V14.7H16V15.7ZM21.6 20.5H16V19.5H21.6V20.5ZM13.2 16.4C13.8627 16.4 14.4 15.8627 14.4 15.2C14.4 14.5372 13.8627 14 13.2 14C12.5373 14 12 14.5372 12 15.2C12 15.8627 12.5373 16.4 13.2 16.4ZM14.4 20C14.4 20.6627 13.8627 21.2 13.2 21.2C12.5373 21.2 12 20.6627 12 20C12 19.3372 12.5373 18.8 13.2 18.8C13.8627 18.8 14.4 19.3372 14.4 20Z" fill="white"/>
</svg>
