<svg width="32" height="32" viewBox="0 0 32 32" fill="none" xmlns="http://www.w3.org/2000/svg">
<path d="M0 16C0 7.16344 7.16344 0 16 0C24.8366 0 32 7.16344 32 16C32 24.8366 24.8366 32 16 32C7.16344 32 0 24.8366 0 16Z" fill="#E5DED6"/>
<path d="M10.2627 5.59998C9.83835 5.59998 9.43138 5.76855 9.13132 6.0686L7.66858 7.53135C7.36852 7.8314 7.19995 8.23837 7.19995 8.66272V24.8C7.19995 25.6836 7.9163 26.4 8.79995 26.4H21.7372C22.1616 26.4 22.5685 26.2314 22.8686 25.9313L24.3313 24.4686C24.6314 24.1686 24.8 23.7616 24.8 23.3372V23.2178C24.8 23.2119 24.8 23.2059 24.8 23.2V7.19998C24.8 6.38532 24.1912 5.71288 23.4037 5.61283C23.337 5.60435 23.269 5.59998 23.2 5.59998C23.2 5.59998 23.2001 5.59998 23.2 5.59998H10.2627Z" fill="#2A2620"/>
<path fill-rule="evenodd" clip-rule="evenodd" d="M23.2 6.59998H10.4C10.0687 6.59998 9.80005 6.8686 9.80005 7.19998V23.2C9.80005 23.5313 10.0687 23.8 10.4 23.8H23.2C23.5314 23.8 23.8 23.5313 23.8 23.2V7.19998C23.8 6.86861 23.5314 6.59998 23.2 6.59998ZM14.1 10.4C14.1 10.2106 13.9929 10.0375 13.8236 9.95281C13.6542 9.86812 13.4515 9.8864 13.3 10L11.7 11.2L12.3 12L13.1 11.4V19.1H12V20.1H15.2V19.1H14.1V10.4ZM20.5 10.4C20.5 10.2106 20.3929 10.0375 20.2236 9.95281C20.0542 9.86812 19.8515 9.8864 19.7 10L18.1 11.2L18.7 12L19.5 11.4V19.1H18.4V20.1H21.6V19.1H20.5V10.4ZM17.6 16.4C17.6 16.8419 17.2418 17.2 16.8 17.2C16.3581 17.2 16 16.8419 16 16.4C16 15.9582 16.3581 15.6 16.8 15.6C17.2418 15.6 17.6 15.9582 17.6 16.4ZM16.8 14.8C17.2418 14.8 17.6 14.4419 17.6 14C17.6 13.5582 17.2418 13.2 16.8 13.2C16.3581 13.2 16 13.5582 16 14C16 14.4419 16.3581 14.8 16.8 14.8Z" fill="white"/>
</svg>
