<svg width="32" height="32" viewBox="0 0 32 32" fill="none" xmlns="http://www.w3.org/2000/svg">
<path d="M0 16C0 7.16344 7.16344 0 16 0V0C24.8366 0 32 7.16344 32 16V16C32 24.8366 24.8366 32 16 32V32C7.16344 32 0 24.8366 0 16V16Z" fill="#E5DED6"/>
<path d="M24.5992 8.1297L21.9837 8.68563L17.0991 4.16524C15.9468 3.09883 14.2067 3.24519 13.2211 4.31904L11.3841 6.15605C11.1096 6.40799 10.8808 6.72291 10.7208 7.09588L8.84047 11.4793L7.48161 11.7682C7.14215 11.8403 6.85412 12.022 6.64667 12.2684L4.82835 14.0867C4.41822 14.4319 4.20702 14.9863 4.32625 15.5472L6.46774 25.6222C6.63998 26.4325 7.43651 26.9498 8.24683 26.7775L25.3644 23.1391C25.6912 23.0696 25.9704 22.8986 26.1759 22.666L28.0449 20.797C28.4371 20.4505 28.6363 19.9084 28.5198 19.36L26.3783 9.28505C26.206 8.47472 25.4095 7.95746 24.5992 8.1297Z" fill="#2A2620"/>
<path d="M15.4797 5.915C15.2996 5.74829 15.0087 5.81012 14.9119 6.03568L12.9517 10.6054L11.5339 10.9067L13.8236 5.56884C14.2429 4.59139 15.5035 4.32346 16.2841 5.04586L20.547 8.99093L19.1291 9.2923L15.4797 5.915Z" fill="white"/>
<path d="M25.1036 9.30028L7.49696 13.0427L9.74241 23.6067L27.3491 19.8643L25.1036 9.30028Z" fill="white"/>
</svg>
