<svg width="32" height="32" viewBox="0 0 32 32" fill="none" xmlns="http://www.w3.org/2000/svg">
<path d="M0 16C0 7.16344 7.16344 0 16 0C24.8366 0 32 7.16344 32 16C32 24.8366 24.8366 32 16 32C7.16344 32 0 24.8366 0 16Z" fill="#E5DED6"/>
<path d="M25.5421 19.3429C24.9718 20.5889 24.1303 21.6964 23.0571 22.6857C21.0973 24.8117 18.3023 26.4 15.2571 26.4C10.8244 26.4 7.08922 23.4135 5.95397 19.3429H4.11422C3.08855 19.3429 2.25708 18.5114 2.25708 17.4858V16C2.25708 15.2239 2.76852 14.72 3.31526 14.1814C3.40916 14.0889 3.50414 13.9953 3.59771 13.8992C3.6627 13.8324 3.73011 13.7574 3.80129 13.6781C4.2003 13.234 4.71847 12.6572 5.59994 12.6572H6.50997C7.0142 11.6495 7.71354 10.7151 8.57136 9.68575C9.77582 8.2404 11.2042 7.14994 12.7519 6.4607C13.9683 5.90792 15.3196 5.60005 16.7428 5.60004C21.1755 5.60004 24.9107 8.58655 26.046 12.6572H27.8857C28.9113 12.6572 29.7428 13.4887 29.7428 14.5143V16C29.7428 16.9095 29.3965 17.2557 28.7562 17.8862L28.6424 17.9983C27.5968 19.0289 27.2783 19.3429 26.3999 19.3429H25.5421Z" fill="#2A2620"/>
<path fill-rule="evenodd" clip-rule="evenodd" d="M16.7429 23.9143C21.5241 23.9143 25.4 20.0384 25.4 15.2572C25.4 10.476 21.5241 6.60004 16.7429 6.60004C11.9616 6.60004 8.08571 10.476 8.08571 15.2572C8.08571 20.0384 11.9616 23.9143 16.7429 23.9143ZM17.2429 10.8V19.7143H16.2429V10.8H17.2429ZM14.2715 12.2857V18.2286H13.2715V12.2857H14.2715ZM20.2143 18.2286V12.2857H19.2143V18.2286H20.2143Z" fill="white"/>
<path d="M7.08571 15.2572C7.08571 15.7624 7.12451 16.2586 7.19929 16.7429H5.65718C5.21535 16.7429 4.85718 16.3847 4.85718 15.9429V14.5715C4.85718 14.1296 5.21535 13.7715 5.65718 13.7715H7.19927C7.12449 14.2558 7.08571 14.7519 7.08571 15.2572Z" fill="white"/>
<path d="M27.8286 16.7429H26.2864C26.3612 16.2586 26.4 15.7624 26.4 15.2572C26.4 14.7519 26.3612 14.2558 26.2864 13.7715H27.8286C28.2704 13.7715 28.6286 14.1296 28.6286 14.5715V15.9429C28.6286 16.3847 28.2704 16.7429 27.8286 16.7429Z" fill="white"/>
</svg>
