<svg width="32" height="32" viewBox="0 0 32 32" fill="none" xmlns="http://www.w3.org/2000/svg">
<path d="M0 16C0 7.16344 7.16344 0 16 0C24.8366 0 32 7.16344 32 16C32 24.8366 24.8366 32 16 32C7.16344 32 0 24.8366 0 16Z" fill="#E5DED6"/>
<path d="M9.00002 7.40002H18.6C18.9314 7.40002 19.2 7.66865 19.2 8.00002V22.4C19.2 22.7314 18.9314 23 18.6 23H9.00002C8.66865 23 8.40002 22.7314 8.40002 22.4V8.00002C8.40002 7.66865 8.66865 7.40002 9.00002 7.40002Z" fill="white"/>
<path d="M20.819 11.4H25.4001C25.7314 11.4 26.0001 11.6687 26.0001 12V22.4C26.0001 22.7314 25.7314 23 25.4001 23H20.819C20.4876 23 20.219 22.7314 20.219 22.4V12C20.219 11.6687 20.4876 11.4 20.819 11.4Z" fill="white"/>
<path d="M21.8 16.4V14H24.2V16.4H21.8Z" fill="#2A2620"/>
<path d="M21.8 20.4V18H24.2V20.4H21.8Z" fill="#2A2620"/>
<path d="M14.6 12.4V10H17V12.4H14.6Z" fill="#2A2620"/>
<path d="M13 16.4V14H10.6V16.4H13Z" fill="#2A2620"/>
<path d="M17 16.4V14H14.6V16.4H17Z" fill="#2A2620"/>
<path d="M14.6 20.4V18H17V20.4H14.6Z" fill="#2A2620"/>
<path d="M13 12.4V10H10.6V12.4H13Z" fill="#2A2620"/>
<path d="M10.6 20.4V18H13V20.4H10.6Z" fill="#2A2620"/>
<path fill-rule="evenodd" clip-rule="evenodd" d="M8.06279 6.40002C7.63844 6.40002 7.23148 6.5686 6.93142 6.86865L6.26868 7.5314C5.96862 7.83145 5.80005 8.23842 5.80005 8.66277V24C5.80005 24.8837 6.51639 25.6 7.40005 25.6H24.7373C25.1617 25.6 25.5686 25.4315 25.8687 25.1314L26.5314 24.4687C26.8315 24.1686 27 23.7616 27 23.3373V22.411L27.0001 22.4V12C27.0001 11.1164 26.2837 10.4 25.4001 10.4H20.819C20.5996 10.4 20.3904 10.4442 20.2 10.5241V8.00002C20.2 7.11637 19.4837 6.40002 18.6 6.40002H8.06279ZM20.219 12C20.219 11.6687 20.4876 11.4 20.819 11.4H25.4001C25.7315 11.4 26.0001 11.6687 26.0001 12V22.4C26.0001 22.7314 25.7315 23 25.4001 23H20.819C20.4876 23 20.219 22.7314 20.219 22.4V12ZM9.00005 7.40002H18.6C18.9314 7.40002 19.2 7.66865 19.2 8.00002V22.4C19.2 22.7314 18.9314 23 18.6 23H9.00005C8.66868 23 8.40005 22.7314 8.40005 22.4V8.00002C8.40005 7.66865 8.66868 7.40002 9.00005 7.40002Z" fill="#2A2620"/>
</svg>
