<svg width="32" height="32" viewBox="0 0 32 32" fill="none" xmlns="http://www.w3.org/2000/svg">
<path d="M0 16C0 7.16344 7.16344 0 16 0C24.8366 0 32 7.16344 32 16C32 24.8366 24.8366 32 16 32C7.16344 32 0 24.8366 0 16Z" fill="#E5DED6"/>
<path fill-rule="evenodd" clip-rule="evenodd" d="M14.2902 5.25C16.6696 5.25 18.6893 6.79004 19.4066 8.92773C19.4608 8.85986 19.517 8.7915 19.5748 8.72217C20.4508 7.6709 21.6234 7.08936 22.8402 7.08936C24.9718 7.08936 26.6996 8.81738 26.6996 10.9487C26.6996 12.1655 26.2133 13.1343 25.3636 13.917L25.3571 13.9243C27.161 14.8174 28.4642 16.7031 28.6808 18.9424C28.7216 19.3647 28.5441 19.7729 28.244 20.0728L28.1422 20.1743C27.8422 20.4746 27.4352 20.6431 27.0109 20.6431H22.266C22.3719 21.1099 22.4437 21.5913 22.4777 22.0845C22.5067 22.5078 22.3317 22.916 22.0316 23.2158L21.5162 23.7314C21.2162 24.0312 20.8092 24.2002 20.3849 24.2002H5.86804C5.42639 24.2002 5.06433 23.8408 5.10535 23.4009C5.34729 20.8086 6.73889 18.5679 8.40833 16.9395C8.60584 16.7212 8.83997 16.4946 9.10413 16.2686L9.16614 16.2158C9.41419 16.0073 9.68738 15.7998 9.98108 15.6006C9.72473 15.3838 9.48865 15.144 9.27649 14.8838L9.27039 14.876C8.51624 13.9482 8.06433 12.7646 8.06433 11.4756C8.06433 9.77441 8.68689 8.77783 9.72449 7.53271C10.9493 6.06299 12.5887 5.25 14.2902 5.25ZM18.611 13.9248C18.7184 13.7817 18.8182 13.6348 18.9105 13.4839C19.1339 13.8667 19.4215 14.208 19.7584 14.4922C19.3536 14.7676 19.0028 15.0635 18.7313 15.3452L18.7074 15.3291L18.6884 15.3164C18.4198 15.1362 18.1407 14.9731 17.8524 14.8281L17.8087 14.8062L17.818 14.7964C17.9178 14.7041 18.014 14.6104 18.1066 14.5146C18.2535 14.3628 18.391 14.2061 18.5187 14.0444L18.611 13.9248Z" fill="#2A2620"/>
<path d="M17.6005 14.7648C18.7563 13.7948 19.491 12.3395 19.491 10.7126C19.491 7.79222 17.1236 5.4248 14.2032 5.4248C11.2829 5.4248 8.91547 7.79222 8.91547 10.7126C8.91547 12.4168 9.72172 13.9328 10.9736 14.8998C8.37688 16.2903 6.58936 19.2035 6.58936 22.5722H21.4653C21.8983 22.5722 22.2528 22.2201 22.2168 21.7886C21.9548 18.6454 20.1318 15.9941 17.6005 14.7648Z" fill="white"/>
<path d="M10.9037 14.9183C8.51464 16.1976 6.79682 18.74 6.48194 21.7473C6.44759 22.0755 6.42993 22.4091 6.42993 22.7473H21.6095C22.0513 22.7473 22.413 22.3881 22.3763 21.9478C22.1089 18.7404 20.2488 16.035 17.6659 14.7806C17.3612 15.0363 17.0278 15.259 16.6713 15.4431C19.1228 16.3664 21.002 18.7573 21.3514 21.7473H7.48751C7.82311 18.8601 9.59281 16.5275 11.9258 15.5405C11.5612 15.3708 11.2186 15.1616 10.9037 14.9183Z" fill="#2A2620"/>
<path fill-rule="evenodd" clip-rule="evenodd" d="M14.1992 15.0414C16.6269 15.0414 18.5949 13.0734 18.5949 10.6457C18.5949 8.21802 16.6269 6.25 14.1992 6.25C11.7716 6.25 9.80354 8.21802 9.80354 10.6457C9.80354 13.0734 11.7716 15.0414 14.1992 15.0414ZM14.1992 16.0414C17.1792 16.0414 19.5949 13.6256 19.5949 10.6457C19.5949 7.66573 17.1792 5.25 14.1992 5.25C11.2193 5.25 8.80354 7.66573 8.80354 10.6457C8.80354 13.6256 11.2193 16.0414 14.1992 16.0414Z" fill="#2A2620"/>
</svg>
