<svg width="32" height="32" viewBox="0 0 32 32" fill="none" xmlns="http://www.w3.org/2000/svg">
<path d="M0 16C0 7.16344 7.16344 0 16 0V0C24.8366 0 32 7.16344 32 16V16C32 24.8366 24.8366 32 16 32V32C7.16344 32 0 24.8366 0 16V16Z" fill="#E5DED6"/>
<path fill-rule="evenodd" clip-rule="evenodd" d="M8.89888 7.55868C10.9094 5.37104 13.7946 4 17 4C23.0751 4 28 8.92487 28 15C28 18.8547 25.9619 21.5821 23.3824 24.1616C21.3727 26.3374 18.4955 27.7 15.3 27.7C9.22487 27.7 4.3 22.7751 4.3 16.7C4.3 12.8562 6.32533 10.1323 8.89888 7.55868Z" fill="#2A2620"/>
<path d="M23.4698 22.2942C25.482 20.5082 26.75 17.9022 26.75 15C26.75 9.61522 22.3848 5.25 17 5.25C11.6152 5.25 7.25 9.61522 7.25 15C7.25 17.9021 8.51797 20.5081 10.5302 22.2942C11.2389 20.3272 12.8192 18.7764 14.805 18.1079C13.3819 17.33 12.4167 15.8194 12.4167 14.0833C12.4167 11.552 14.4687 9.5 17 9.5C19.5313 9.5 21.5833 11.552 21.5833 14.0833C21.5833 15.8194 20.6181 17.33 19.195 18.1079C21.1808 18.7764 22.7611 20.3272 23.4698 22.2942Z" fill="white"/>
</svg>
