<svg width="32" height="32" viewBox="0 0 32 32" fill="none" xmlns="http://www.w3.org/2000/svg">
<path d="M0 16C0 7.16344 7.16344 0 16 0C24.8366 0 32 7.16344 32 16C32 24.8366 24.8366 32 16 32C7.16344 32 0 24.8366 0 16Z" fill="#E5DED6"/>
<path d="M23.3105 23.3105C25.6821 21.4044 27.2 18.4794 27.2 15.2C27.2 9.45623 22.5437 4.79999 16.8 4.79999C13.5205 4.79999 10.5956 6.31789 8.68946 8.68946C6.79999 10.8 4.79999 13.5205 4.79999 16.8C4.79999 22.5437 9.45623 27.2 15.2 27.2C18.4794 27.2 20.8 25.2 23.3105 23.3105Z" fill="#2A2620"/>
<path d="M26.2 15.2C26.2 20.3915 21.9915 24.6 16.8 24.6C11.6085 24.6 7.40002 20.3915 7.40002 15.2C7.40002 10.0085 11.6085 5.79999 16.8 5.79999C21.9915 5.79999 26.2 10.0085 26.2 15.2Z" fill="white"/>
<path d="M15.7933 17.8042V17.7354C15.8009 17.005 15.8774 16.4237 16.0227 15.9916C16.168 15.5595 16.3745 15.2096 16.6422 14.9419C16.9099 14.6742 17.2311 14.4275 17.6059 14.2019C17.8315 14.0643 18.0342 13.9017 18.2139 13.7144C18.3937 13.5231 18.5352 13.3033 18.6384 13.0547C18.7455 12.8061 18.799 12.5308 18.799 12.2287C18.799 11.8539 18.7111 11.5289 18.5352 11.2535C18.3592 10.9782 18.1241 10.766 17.8296 10.6168C17.5352 10.4677 17.2082 10.3931 16.8487 10.3931C16.5352 10.3931 16.2331 10.4581 15.9424 10.5882C15.6518 10.7182 15.409 10.9228 15.2139 11.2019C15.0189 11.4811 14.9061 11.8463 14.8755 12.2975H13.43C13.4606 11.6474 13.6288 11.091 13.9348 10.6283C14.2445 10.1656 14.6518 9.81187 15.1566 9.56712C15.6652 9.32238 16.2292 9.20001 16.8487 9.20001C17.5218 9.20001 18.1069 9.33386 18.604 9.60154C19.1049 9.86923 19.4912 10.2363 19.7627 10.7029C20.038 11.1694 20.1757 11.701 20.1757 12.2975C20.1757 12.7182 20.1107 13.0987 19.9807 13.439C19.8545 13.7794 19.6709 14.0834 19.43 14.3511C19.1929 14.6188 18.9061 14.8558 18.5696 15.0623C18.2331 15.2727 17.9635 15.4945 17.7608 15.7277C17.5581 15.9572 17.4109 16.2306 17.3191 16.548C17.2273 16.8654 17.1776 17.2612 17.17 17.7354V17.8042H15.7933ZM16.5275 21.2C16.2445 21.2 16.0017 21.0987 15.799 20.896C15.5963 20.6933 15.495 20.4505 15.495 20.1675C15.495 19.8845 15.5963 19.6417 15.799 19.439C16.0017 19.2363 16.2445 19.135 16.5275 19.135C16.8105 19.135 17.0533 19.2363 17.256 19.439C17.4587 19.6417 17.56 19.8845 17.56 20.1675C17.56 20.3549 17.5122 20.527 17.4166 20.6838C17.3248 20.8405 17.2005 20.9667 17.0438 21.0623C16.8908 21.1541 16.7187 21.2 16.5275 21.2Z" fill="#2A2620"/>
</svg>
