<svg width="32" height="32" viewBox="0 0 32 32" fill="none" xmlns="http://www.w3.org/2000/svg">
<path d="M0 16C0 7.16344 7.16344 0 16 0C24.8366 0 32 7.16344 32 16C32 24.8366 24.8366 32 16 32C7.16344 32 0 24.8366 0 16Z" fill="#E5DED6"/>
<path fill-rule="evenodd" clip-rule="evenodd" d="M12.401 7.79065C12.3695 7.62253 12.3531 7.44912 12.3531 7.27186C12.3531 6.41475 12.7383 5.64763 13.3451 5.13419L14.8515 3.62778C15.3649 3.02076 16.1322 2.63535 16.9895 2.63535C18.5354 2.63535 19.7886 3.88852 19.7886 5.43439C19.7886 5.86223 19.6926 6.26765 19.5209 6.63029C22.3329 7.6619 24.3392 10.3628 24.3392 13.5324V16.2885L26.6899 22.5572C26.8338 22.941 26.664 23.3435 26.3428 23.5306L24.7942 25.0792C24.6578 25.3121 24.4058 25.4755 24.1035 25.4755H19.5123C18.8756 26.7429 17.3642 27.6381 15.9156 27.6381C14.4669 27.6381 13.2273 26.7429 12.7198 25.4755H6.20075C5.64218 25.4755 5.25556 24.9176 5.45168 24.3946L7.80247 18.1259L7.80247 15.3699C7.80247 13.24 8.70841 11.3218 10.156 9.97949L11.5976 8.53786C11.8464 8.2694 12.115 8.01956 12.401 7.79065ZM15.4584 4.48937C15.7754 3.97683 16.3426 3.63535 16.9895 3.63535C17.9831 3.63535 18.7886 4.44081 18.7886 5.43439C18.7886 5.76735 18.6981 6.07918 18.5404 6.34665C18.2809 6.2909 18.0163 6.24885 17.7473 6.2213C17.4982 6.19579 17.2454 6.18271 16.9895 6.18271C16.4574 6.18271 15.9386 6.23925 15.4386 6.34665C15.2809 6.07918 15.1905 5.76735 15.1905 5.43439C15.1905 5.08775 15.2885 4.764 15.4584 4.48937ZM8.32678 22.6381L10.5204 16.7886L23.4587 16.7886L25.6523 22.6381H8.32678ZM18.9039 7.47639C21.4751 8.28843 23.3392 10.6927 23.3392 13.5324V15.7886L10.6399 15.7886L10.6399 13.5324C10.6399 10.1523 13.2809 7.38912 16.6119 7.19375C16.7368 7.18643 16.8627 7.18271 16.9895 7.18271C17.6567 7.18271 18.2998 7.28561 18.9039 7.47639ZM14.7895 23.6381C14.7895 24.8531 15.7745 25.8381 16.9895 25.8381C18.2045 25.8381 19.1895 24.8531 19.1895 23.6381H14.7895Z" fill="#2A2620"/>
<path d="M23.4587 16.7886L25.6523 22.6381H8.32678L10.5204 16.7886L23.4587 16.7886Z" fill="white"/>
<path d="M23.3392 15.7886V13.5324C23.3392 10.0255 20.4963 7.18271 16.9895 7.18271C16.8627 7.18271 16.7368 7.18642 16.6119 7.19375C13.2809 7.38912 10.6399 10.1523 10.6399 13.5324L10.6399 15.7886L23.3392 15.7886Z" fill="white"/>
<path d="M16.9895 25.8381C15.7745 25.8381 14.7895 24.8531 14.7895 23.6381H19.1895C19.1895 24.8531 18.2045 25.8381 16.9895 25.8381Z" fill="white"/>
<path d="M15.1905 5.43439C15.1905 5.76735 15.2809 6.07918 15.4386 6.34665C15.9386 6.23925 16.4574 6.18271 16.9895 6.18271C17.5216 6.18271 18.0405 6.23925 18.5404 6.34665C18.6981 6.07918 18.7886 5.76735 18.7886 5.43439C18.7886 4.44081 17.9831 3.63535 16.9895 3.63535C15.9959 3.63535 15.1905 4.44081 15.1905 5.43439Z" fill="white"/>
</svg>
