<svg width="32" height="32" viewBox="0 0 32 32" fill="none" xmlns="http://www.w3.org/2000/svg">
<path d="M0 16C0 7.16344 7.16344 0 16 0C24.8366 0 32 7.16344 32 16C32 24.8366 24.8366 32 16 32C7.16344 32 0 24.8366 0 16Z" fill="#E5DED6"/>
<path d="M16.8 3.60001H16.2284C15.2626 3.60001 14.3363 3.9837 13.6533 4.66667L13.5176 4.80236C13.263 5.05697 12.9177 5.20001 12.5576 5.20001C12.0065 5.20001 11.5322 5.52832 11.3194 6.00001H10.2627C9.83835 6.00001 9.43138 6.16858 9.13132 6.46864L7.66858 7.93138C7.36852 8.23143 7.19995 8.6384 7.19995 9.06275V25.2C7.19995 26.0837 7.9163 26.8 8.79995 26.8H21.7372C22.1616 26.8 22.5685 26.6314 22.8686 26.3314L24.3313 24.8686C24.6314 24.5686 24.8 24.1616 24.8 23.7373V7.60001C24.8 6.71635 24.0836 6.00001 23.2 6.00001H21.4805C21.2677 5.52832 20.7934 5.20001 20.2423 5.20001C19.8822 5.20001 19.5369 5.05697 19.2823 4.80236L18.985 4.5051C18.4144 3.93449 17.6437 3.61008 16.8377 3.60024L16.8 3.60001Z" fill="#2A2620"/>
<path d="M15.0248 5.50947L15.322 5.21221C15.714 4.82022 16.2456 4.60001 16.8 4.60001C17.3544 4.60001 17.886 4.82022 18.278 5.21221L18.5752 5.50947C19.0174 5.95161 19.6171 6.20001 20.2424 6.20001C20.4399 6.20001 20.6 6.36013 20.6 6.55765V7.40001H13V6.55765C13 6.36013 13.1601 6.20001 13.3576 6.20001C13.9829 6.20001 14.5826 5.95161 15.0248 5.50947Z" fill="white"/>
<path d="M21.6 7.20001V8.40001H12V7.20001H10.4C10.1791 7.20001 10 7.37909 10 7.60001V23.6C10 23.8209 10.1791 24 10.4 24H23.2C23.4209 24 23.6 23.8209 23.6 23.6V7.60001C23.6 7.37909 23.4209 7.20001 23.2 7.20001H21.6Z" fill="white"/>
<path d="M16.8 11L18.2695 13.9775L21.5553 14.4549L19.1777 16.7725L19.739 20.0451L16.8 18.5L13.8611 20.0451L14.4224 16.7725L12.0448 14.4549L15.3306 13.9775L16.8 11Z" fill="#2A2620"/>
</svg>
