<svg width="32" height="32" viewBox="0 0 32 32" fill="none" xmlns="http://www.w3.org/2000/svg">
<path d="M0 16C0 7.16344 7.16344 0 16 0C24.8366 0 32 7.16344 32 16C32 24.8366 24.8366 32 16 32C7.16344 32 0 24.8366 0 16Z" fill="#E5DED6"/>
<path fill-rule="evenodd" clip-rule="evenodd" d="M26.2442 7.24087C25.5605 7.24087 24.9436 7.52673 24.5065 7.98545L22.989 9.50296C22.9608 9.52985 22.9332 9.55742 22.9063 9.58564L22.9039 9.58818C22.4951 10.0185 22.2442 10.6004 22.2442 11.2409C22.2442 11.457 22.2727 11.6664 22.3263 11.8656L21.6682 12.376C21.2284 11.8767 20.5843 11.5616 19.8666 11.5616C18.912 11.5616 18.0877 12.1189 17.701 12.9258L14.6767 11.7901C14.7333 11.5857 14.7635 11.3704 14.7635 11.148C14.7635 9.82251 13.689 8.748 12.3635 8.748C11.7653 8.748 11.2181 8.9669 10.7978 9.32899V9.32778L10.7888 9.33679C10.7046 9.41005 10.6256 9.48909 10.5523 9.57329L9.18841 10.9372C8.68303 11.3772 8.3636 12.0253 8.3636 12.748C8.3636 12.8292 8.36763 12.9094 8.3755 12.9885C8.05956 12.8355 7.70496 12.7496 7.33032 12.7496C6.71406 12.7496 6.15205 12.9819 5.72705 13.3637V13.3606L5.69004 13.3976C5.65159 13.4336 5.61433 13.4709 5.57832 13.5093L4.09015 14.9975C3.62253 15.4354 3.33032 16.0584 3.33032 16.7496C3.33032 17.8729 4.10208 18.816 5.14431 19.0775V22.8283C5.14431 23.2702 5.50248 23.6283 5.94431 23.6283H24.4302C24.6653 23.6283 24.8768 23.5269 25.0232 23.3654L26.5674 21.8212C26.5868 21.8035 26.6054 21.785 26.623 21.7655L26.6388 21.7497H26.6369C26.7574 21.6097 26.8302 21.4275 26.8302 21.2283V12.233C26.8734 12.1378 26.9107 12.0393 26.9414 11.938C27.9268 11.6394 28.6442 10.7239 28.6442 9.64087C28.6442 8.31538 27.5697 7.24087 26.2442 7.24087ZM25.0698 8.87848C25.3195 8.49466 25.7522 8.24087 26.2442 8.24087C27.0174 8.24087 27.6442 8.86767 27.6442 9.64087C27.6442 10.1329 27.3904 10.5656 27.0066 10.8153C26.7872 10.958 26.5254 11.0409 26.2442 11.0409C26.1001 11.0409 25.961 11.0191 25.8302 10.9786L25.8279 10.9779C25.6688 10.9285 25.5219 10.8514 25.3928 10.7523C25.0592 10.4964 24.8442 10.0938 24.8442 9.64087C24.8442 9.35967 24.9271 9.09784 25.0698 8.87848ZM18.6922 13.1992C18.9418 12.8154 19.3746 12.5616 19.8666 12.5616C20.2629 12.5616 20.6208 12.7263 20.8755 12.991C21.1177 13.2427 21.2666 13.5848 21.2666 13.9616C21.2666 14.7348 20.6398 15.3616 19.8666 15.3616C19.2088 15.3616 18.657 14.908 18.5069 14.2966C18.4805 14.1892 18.4666 14.0771 18.4666 13.9616C18.4666 13.6804 18.5495 13.4186 18.6922 13.1992ZM13.7635 11.148C13.7635 11.2467 13.7533 11.3431 13.7339 11.4361C13.6602 11.7884 13.4541 12.092 13.17 12.2925M13.7635 11.148C13.7635 10.3748 13.1367 9.748 12.3635 9.748L13.7635 11.148ZM12.3635 9.748C11.8715 9.748 11.4388 10.0018 11.1891 10.3856L12.3635 9.748ZM14.1008 12.8038C13.8394 13.078 13.5137 13.2904 13.148 13.4169C12.9022 13.5018 12.6382 13.548 12.3635 13.548C11.7762 13.548 11.2382 13.3371 10.8211 12.9868L9.45425 14.031C9.63053 14.365 9.73032 14.7457 9.73032 15.1496C9.73032 16.3339 8.87249 17.3179 7.74429 17.514V21.0284H25.8302V12.0053C25.3526 11.9222 24.9234 11.698 24.5873 11.3772L22.162 13.2587C22.23 13.481 22.2666 13.717 22.2666 13.9616C22.2666 15.2871 21.192 16.3616 19.8666 16.3616C18.5411 16.3616 17.4666 15.2871 17.4666 13.9616C17.4666 13.9431 17.4668 13.9246 17.4672 13.9061L14.2089 12.6826C14.1742 12.7242 14.1382 12.7647 14.1008 12.8038ZM6.15592 14.3872C6.40559 14.0034 6.83832 13.7496 7.33032 13.7496C7.56158 13.7496 7.77975 13.8057 7.97196 13.905C8.27712 14.0626 8.51687 14.3292 8.63977 14.6532L8.64537 14.6682C8.70033 14.8183 8.73032 14.9805 8.73032 15.1496C8.73032 15.7787 8.3154 16.3109 7.74429 16.4874C7.61346 16.5278 7.47443 16.5496 7.33032 16.5496C6.55712 16.5496 5.93032 15.9228 5.93032 15.1496C5.93032 14.8684 6.01322 14.6066 6.15592 14.3872ZM11.1891 10.3856C11.0464 10.605 10.9635 10.8668 10.9635 11.148L11.1891 10.3856ZM10.9635 11.148C10.9635 11.6608 11.2393 12.1093 11.6506 12.3531L10.9635 11.148ZM11.6506 12.3531C11.6656 12.362 11.6808 12.3707 11.6962 12.379L11.6506 12.3531ZM11.6962 12.379C11.8946 12.4868 12.1219 12.548 12.3635 12.548L11.6962 12.379ZM12.3635 12.548C12.6447 12.548 12.9066 12.4651 13.126 12.3224L12.3635 12.548Z" fill="#2A2620"/>
<path d="M27.6442 9.64087C27.6442 10.4141 27.0174 11.0409 26.2442 11.0409C26.1 11.0409 25.961 11.0191 25.8302 10.9786L25.8278 10.9779C25.6688 10.9285 25.5219 10.8514 25.3928 10.7523C25.0592 10.4964 24.8442 10.0938 24.8442 9.64087C24.8442 8.86767 25.471 8.24087 26.2442 8.24087C27.0174 8.24087 27.6442 8.86767 27.6442 9.64087Z" fill="white"/>
<path d="M21.2665 13.9616C21.2665 14.7348 20.6397 15.3616 19.8665 15.3616C19.2088 15.3616 18.657 14.908 18.5068 14.2966C18.4805 14.1892 18.4665 14.0771 18.4665 13.9616C18.4665 13.1884 19.0933 12.5616 19.8665 12.5616C20.6397 12.5616 21.2665 13.1884 21.2665 13.9616Z" fill="white"/>
<path d="M13.17 12.2925C13.529 12.0391 13.7635 11.6209 13.7635 11.148C13.7635 10.3748 13.1367 9.748 12.3635 9.748C11.5903 9.748 10.9635 10.3748 10.9635 11.148C10.9635 11.6608 11.2392 12.1093 11.6506 12.3531C11.6656 12.362 11.6808 12.3707 11.6962 12.379C11.8945 12.4868 12.1219 12.548 12.3635 12.548C12.6638 12.548 12.942 12.4535 13.17 12.2925Z" fill="white"/>
<path d="M7.74426 16.4874C7.61343 16.5278 7.47441 16.5496 7.3303 16.5496C6.5571 16.5496 5.9303 15.9228 5.9303 15.1496C5.9303 14.3764 6.5571 13.7496 7.3303 13.7496C7.9287 13.7496 8.43942 14.125 8.63975 14.6532C8.64164 14.6582 8.64351 14.6632 8.64535 14.6682C8.7003 14.8183 8.7303 14.9805 8.7303 15.1496C8.7303 15.7787 8.31537 16.3109 7.74426 16.4874Z" fill="white"/>
<path d="M22.1619 13.2587L24.5873 11.3772C24.9234 11.698 25.3526 11.9222 25.8302 12.0053V21.0284H7.74426V17.514C8.87247 17.3179 9.7303 16.3339 9.7303 15.1496C9.7303 14.7457 9.6305 14.365 9.45422 14.031L10.8211 12.9868C11.2382 13.3371 11.7762 13.548 12.3635 13.548C13.1053 13.548 13.7686 13.2114 14.2088 12.6826L17.4672 13.9061C17.4667 13.9246 17.4665 13.9431 17.4665 13.9616C17.4665 15.2871 18.541 16.3616 19.8665 16.3616C21.192 16.3616 22.2665 15.2871 22.2665 13.9616C22.2665 13.717 22.2299 13.481 22.1619 13.2587Z" fill="white"/>
</svg>
