<svg width="32" height="32" viewBox="0 0 32 32" fill="none" xmlns="http://www.w3.org/2000/svg">
<path d="M0 16C0 7.16344 7.16344 0 16 0C24.8366 0 32 7.16344 32 16C32 24.8366 24.8366 32 16 32C7.16344 32 0 24.8366 0 16Z" fill="#E5DED6"/>
<path d="M25.8712 13.5496C25.9001 13.4338 25.927 13.3198 25.9521 13.2075C26.5821 10.3903 26.0803 8.6053 25.8352 7.96543C25.1954 7.72036 23.4104 7.21857 20.5932 7.84856C20.4809 7.87367 20.3668 7.90061 20.251 7.92946L25.8712 13.5496Z" fill="white"/>
<path d="M19.1536 8.24627C16.2328 9.20217 12.3984 11.3368 7.75897 15.8164L17.9843 26.0417C22.4638 21.4023 24.5985 17.5678 25.5544 14.647L19.1536 8.24627Z" fill="white"/>
<path d="M11.0163 11.6616C12.3149 10.6605 13.5401 9.84511 14.689 9.18389C13.6109 8.32351 12.6181 7.96 11.6973 7.96C10.7504 7.96 9.72714 8.34452 8.61337 9.25866L11.0163 11.6616Z" fill="white"/>
<path d="M22.139 22.7844C23.094 21.5455 23.88 20.3735 24.5244 19.2708C24.9763 20.0362 25.1752 20.7568 25.1752 21.4379C25.1752 22.3849 24.7907 23.4081 23.8765 24.5219L22.139 22.7844Z" fill="white"/>
<path fill-rule="evenodd" clip-rule="evenodd" d="M20.412 13.3886C19.8568 12.8334 18.9565 12.8334 18.4013 13.3886C17.8461 13.9439 17.8461 14.8441 18.4013 15.3993C18.9565 15.9546 19.8568 15.9546 20.412 15.3993C20.9673 14.8441 20.9673 13.9439 20.412 13.3886ZM17.6942 12.6815C18.64 11.7357 20.1734 11.7357 21.1191 12.6815C22.0649 13.6273 22.0649 15.1607 21.1191 16.1064C20.1734 17.0522 18.64 17.0522 17.6942 16.1064C16.7484 15.1607 16.7484 13.6273 17.6942 12.6815Z" fill="#2A2620"/>
<path fill-rule="evenodd" clip-rule="evenodd" d="M26.3676 7.10245C26.519 7.1676 26.6331 7.28167 26.6982 7.43311C27.0974 8.36098 28.3195 12.1455 25.0755 18.281C26.7048 20.6195 26.5238 22.9581 24.5324 25.2966C24.3445 25.5172 24.0723 25.6107 23.8068 25.583H21.3982C21.3385 25.5892 21.2781 25.5892 21.2181 25.583H21.1934L21.196 25.5804C21.0057 25.5558 20.8202 25.4689 20.6731 25.3218L20.328 24.9768C19.8042 25.5718 19.2425 26.1801 18.6405 26.8016C18.4196 27.0296 18.1056 27.1174 17.8139 27.0627L15.5387 27.1304C15.2389 27.2051 14.9076 27.1272 14.6745 26.894L10.5967 22.8162L8.54317 24.8697L7.83606 24.1626L9.88959 22.1091L4.31738 16.5369C3.95987 16.1794 3.96734 15.5912 4.33049 15.2395C5.48112 14.1249 6.58673 13.1486 7.64579 12.2945L5.22418 9.87294C4.86667 9.51543 4.86453 8.93072 5.24946 8.60293C6.64337 7.41593 8.03729 6.87212 9.4312 6.97152L11.3751 6.97152C12.4746 6.8933 13.5742 7.21531 14.6737 7.93754C17.1551 6.89178 19.1722 6.60353 20.682 6.62361L22.3813 6.57308C24.5053 6.4221 25.8614 6.8847 26.3676 7.10245ZM17.9843 26.0417C18.5683 25.4368 19.1126 24.8456 19.6195 24.2682C21.11 22.5708 22.2782 20.9937 23.1899 19.5432C23.442 19.142 23.6745 18.7505 23.8888 18.3688C24.0659 18.0532 24.2306 17.7444 24.3836 17.4423C24.8942 16.4341 25.2747 15.5015 25.5544 14.647L19.1536 8.24629C16.2328 9.20219 12.3984 11.3369 7.75897 15.8164L17.9843 26.0417ZM20.251 7.92947L25.8712 13.5496C25.8733 13.5413 25.8754 13.5329 25.8774 13.5246C25.9039 13.4174 25.9288 13.3117 25.9521 13.2075C25.9915 13.0314 26.0264 12.8594 26.0573 12.6914C26.5204 10.1716 26.065 8.56534 25.8352 7.96546C25.7957 7.9503 25.7517 7.93417 25.7034 7.91738C25.3653 7.79986 24.814 7.65032 24.0586 7.58138C23.1768 7.50089 22.0168 7.53023 20.5932 7.84858C20.4809 7.87369 20.3668 7.90062 20.251 7.92947ZM24.5244 19.2709C24.9763 20.0363 25.1753 20.7568 25.1753 21.438C25.1753 22.3849 24.7908 23.4082 23.8766 24.5219L22.139 22.7844C23.094 21.5455 23.88 20.3736 24.5244 19.2709ZM14.689 9.18391C13.5401 9.84513 12.3149 10.6606 11.0163 11.6616L8.61337 9.25868C9.72714 8.34454 10.7504 7.96002 11.6973 7.96002C12.6181 7.96002 13.6109 8.32352 14.689 9.18391Z" fill="#2A2620"/>
<path d="M12.0787 25.5769L9.25031 28.4053L9.95741 29.1124L12.7858 26.284L12.0787 25.5769Z" fill="#2A2620"/>
<path d="M3.59344 22.7485L6.42187 19.92L7.12898 20.6271L4.30055 23.4556L3.59344 22.7485Z" fill="#2A2620"/>
</svg>
