<svg width="32" height="32" viewBox="0 0 32 32" fill="none" xmlns="http://www.w3.org/2000/svg">
<path d="M0 16C0 7.16344 7.16344 0 16 0C24.8366 0 32 7.16344 32 16C32 24.8366 24.8366 32 16 32C7.16344 32 0 24.8366 0 16Z" fill="#E5DED6"/>
<path fill-rule="evenodd" clip-rule="evenodd" d="M5.38777 12.9048L5.38797 12.8929L3.84408 14.387C3.4182 14.7426 3.15955 15.2747 3.15955 15.8501V16.4173C3.15955 17.2055 3.64475 17.9123 4.38024 18.1956L10.4806 20.5452C11.4032 20.9005 12.3772 20.4899 12.8226 19.7113L12.0013 23.2694C11.7336 24.4294 12.6146 25.5369 13.805 25.5369C14.3855 25.5369 14.9142 25.2671 15.2568 24.8344L16.7376 23.2922L16.7325 23.2923C16.9813 23.0564 17.1639 22.748 17.2454 22.395L17.9447 19.3653C18.2714 20.3605 19.3892 20.9501 20.4405 20.5452L26.5409 18.1956C26.8579 18.0735 27.1284 17.8727 27.3336 17.6206L28.7677 16.1262L28.7636 16.1263C29.1578 15.7905 29.3967 15.2931 29.3967 14.7557V14.124C29.3967 13.3796 28.9383 12.7119 28.2436 12.4443L22.0494 10.0586C21.2498 9.75063 20.4095 10.0517 19.9513 10.6713L20.2853 9.22442C20.5445 8.10121 19.6915 7.02882 18.5387 7.02882C18.0138 7.02882 17.5325 7.25671 17.2009 7.62817L17.2011 7.62331L15.5238 9.20702L15.5348 9.20734C15.2963 9.44612 15.1214 9.75154 15.0412 10.0988L14.6995 11.5795C14.5987 10.4032 13.3883 9.62371 12.2593 10.0586L6.06503 12.4443C5.8011 12.546 5.57129 12.7054 5.38777 12.9048ZM14.2174 18.3754C14.2174 18.3754 14.2175 18.3754 14.2174 18.3754V18.3754ZM14.6635 16.4428C14.6635 16.4428 14.6635 16.4428 14.6635 16.4428V16.4428ZM13.8418 15.2953L14.3407 13.1339C14.2569 13.2445 14.1602 13.3455 14.0525 13.4345L14.0561 13.4345L12.7375 14.7836C12.719 14.8106 12.6998 14.8371 12.68 14.8631L13.4701 15.1237C13.6022 15.1673 13.7266 15.2252 13.8418 15.2953ZM11.615 15.5648L9.89041 16.1337L11.7625 16.7512C12.3387 16.9413 12.7769 17.3883 12.9672 17.9399C13.066 17.9323 13.1614 17.9062 13.2488 17.8645L13.5847 16.4093C13.488 16.2544 13.3388 16.1334 13.1568 16.0734L11.615 15.5648ZM12.9654 12.8695L13.1568 12.8063C13.4847 12.6982 13.7062 12.3919 13.7062 12.0466V11.7383C13.7062 11.1767 13.1427 10.7899 12.6187 10.9918L11.0473 11.597C11.8956 11.5424 12.6869 12.0708 12.9654 12.8695ZM15.9446 22.6471C16.1052 22.5378 16.2248 22.3702 16.271 22.1701L18.0353 14.5263C17.9793 14.4091 17.9352 14.2856 17.904 14.1577L15.9446 22.6471ZM18.6263 11.9656C18.5282 12.0376 18.4369 12.119 18.3539 12.2086L18.6487 10.9315C18.8453 10.0795 18.4223 9.25593 17.7122 8.87856L17.7666 8.64307C17.8495 8.28352 18.1697 8.02882 18.5387 8.02882C19.0484 8.02882 19.4255 8.50294 19.3109 8.99953L18.6263 11.9656ZM19.7079 12.6541C19.7079 12.6541 19.7079 12.6541 19.7079 12.6541V12.6541ZM18.8622 15.3898C18.9562 15.4397 19.0552 15.4821 19.1586 15.5162L19.9457 15.7758C19.9385 15.7858 19.9314 15.7958 19.9244 15.8058L19.9247 15.7964L18.454 17.1584L18.8622 15.3898ZM20.9916 16.1466C21.001 16.141 21.0106 16.1355 21.0202 16.1303L21.0307 16.1337L20.9916 16.1466ZM19.687 17.6917C19.687 17.6917 19.687 17.6917 19.687 17.6917V17.6917ZM20.6376 17.3782C20.6376 17.3782 20.6376 17.3782 20.6376 17.3782V17.3782ZM27.7391 15.5581C27.6359 14.8913 27.1841 14.3196 26.5409 14.0718L20.6024 11.7846V11.7383C20.6024 11.1767 21.1659 10.7899 21.69 10.9918L27.8842 13.3775C28.193 13.4964 28.3967 13.7932 28.3967 14.124V14.7557C28.3967 15.0866 28.193 15.3833 27.8842 15.5022L27.7391 15.5581ZM4.92796 14.9954C4.92796 14.9954 4.92796 14.9954 4.92796 14.9954V14.9954Z" fill="#2A2620"/>
<path d="M12.6187 17.8879C13.1427 18.0898 13.7062 17.703 13.7062 17.1414V16.8331C13.7062 16.4879 13.4847 16.1815 13.1568 16.0734L10.7241 15.2709L8.46867 14.4849C8.44949 14.4782 8.43664 14.4602 8.43664 14.4398C8.43664 14.4195 8.44949 14.4014 8.46867 14.3948L10.7241 13.6088L13.1568 12.8063C13.4847 12.6981 13.7062 12.3918 13.7062 12.0466V11.7383C13.7062 11.1767 13.1427 10.7899 12.6187 10.9917L6.42445 13.3775C6.11568 13.4964 5.91199 13.7931 5.91199 14.124V14.7557C5.91199 15.0865 6.11568 15.3833 6.42445 15.5022L12.6187 17.8879ZM15.4988 22.7844C15.8678 22.7844 16.188 22.5297 16.271 22.1701L19.3109 8.99951C19.4255 8.50293 19.0484 8.02881 18.5387 8.02881C18.1697 8.02881 17.8495 8.2835 17.7666 8.64306L14.7266 21.8137C14.612 22.3103 14.9892 22.7844 15.4988 22.7844ZM20.6024 17.1414C20.6024 17.703 21.1659 18.0898 21.69 17.8879L27.8842 15.5022C28.193 15.3833 28.3967 15.0865 28.3967 14.7557V14.124C28.3967 13.7931 28.193 13.4964 27.8842 13.3775L21.69 10.9917C21.1659 10.7899 20.6024 11.1767 20.6024 11.7383V12.0466C20.6024 12.3918 20.8239 12.6981 21.1518 12.8063L23.5846 13.6088L25.84 14.3948C25.8591 14.4014 25.872 14.4195 25.872 14.4398C25.872 14.4602 25.8591 14.4782 25.84 14.4849L23.5846 15.2709L21.1518 16.0734C20.8239 16.1815 20.6024 16.4879 20.6024 16.8331V17.1414Z" fill="white"/>
</svg>
