<svg width="32" height="32" viewBox="0 0 32 32" fill="none" xmlns="http://www.w3.org/2000/svg">
<path d="M0 16C0 7.16344 7.16344 0 16 0C24.8366 0 32 7.16344 32 16C32 24.8366 24.8366 32 16 32C7.16344 32 0 24.8366 0 16Z" fill="#E5DED6"/>
<path d="M15.8191 4.79999C15.2489 4.79999 14.8311 5.11332 14.4345 5.51272L13.6454 6.30817L12.7482 7.22453L11.7124 6.82233C11.1829 6.61055 10.5782 6.73467 10.175 7.13788L8.76711 8.5458C8.72987 8.58304 8.69501 8.622 8.66258 8.66245C8.62213 8.69488 8.58318 8.72974 8.54594 8.76697L7.13802 10.1749C6.73481 10.5781 6.61069 11.1828 6.82246 11.7122L7.28993 12.8809C6.77034 13.105 6.60726 13.2254 6.04726 13.7982L5.21999 14.6636C4.79999 15.0836 4.79999 15.2487 4.79999 15.8189V17.81C4.79999 18.3802 5.13981 18.8956 5.66393 19.1202L7.35537 19.8451C7.4028 19.9676 7.453 20.0886 7.50591 20.2082L6.82246 21.9168C6.61069 22.4463 6.73481 23.051 7.13801 23.4542L8.54594 24.8621C8.94915 25.2653 9.55386 25.3894 10.0833 25.1777L11.792 24.4942C11.9115 24.547 12.0325 24.5972 12.1549 24.6446L12.8798 26.336C13.1044 26.8602 13.6198 27.2 14.19 27.2H16.1811C16.7513 27.2 17.12 26.9327 17.5527 26.4745L18.0873 25.9145L19.2836 24.7691L20.2878 25.1776C20.8173 25.3894 21.422 25.2653 21.8252 24.8621L23.2331 23.4541C23.2703 23.4169 23.3052 23.3779 23.3376 23.3375C23.3781 23.3051 23.417 23.2702 23.4543 23.233L24.8622 21.825C25.2654 21.4218 25.3895 20.8171 25.1777 20.2877L24.7882 19.2773L25.6027 18.4564L26.3536 17.7245C26.3536 17.7245 26.758 17.3274 26.9073 17.1136C27.071 16.8791 27.2001 16.4792 27.2001 16.1809V14.1898C27.2001 13.6196 26.8603 13.1042 26.3361 12.8796L24.6448 12.1547C24.5974 12.0323 24.5472 11.9113 24.4943 11.7917L25.1777 10.0832C25.3895 9.55376 25.2654 8.94905 24.8622 8.54585L23.4543 7.13792C23.0511 6.73471 22.4464 6.61059 21.9169 6.82236L20.2085 7.50575C20.0888 7.45281 19.9677 7.40258 19.8452 7.35513L19.1204 5.66393C18.8958 5.13981 18.3804 4.79999 17.8102 4.79999H15.8191Z" fill="#2A2620"/>
<path d="M7.73068 13.9007L9.66366 13.0723C9.79253 13.0171 9.89229 12.9103 9.93862 12.778C10.0288 12.5204 10.133 12.2695 10.2503 12.0262C10.3112 11.8998 10.3163 11.7536 10.2641 11.6234L9.48306 9.67063C9.43633 9.5538 9.46372 9.42036 9.55269 9.33139L10.9606 7.92346C11.0496 7.83449 11.183 7.8071 11.2999 7.85383L13.2525 8.63491C13.3828 8.68702 13.529 8.68199 13.6554 8.62105C13.8988 8.5037 14.1498 8.39947 14.4073 8.3093C14.5397 8.26297 14.6465 8.16321 14.7017 8.03434L15.53 6.10159C15.5796 5.98594 15.6933 5.91095 15.8191 5.91095H17.8102C17.9361 5.91095 18.0498 5.98594 18.0993 6.10159L18.9277 8.03434C18.9829 8.16321 19.0897 8.26297 19.222 8.3093C19.4796 8.39948 19.7306 8.50372 19.974 8.62108C20.1004 8.68202 20.2466 8.68705 20.3769 8.63494L22.3295 7.85387C22.4464 7.80714 22.5798 7.83453 22.6688 7.9235L24.0767 9.33143C24.1657 9.4204 24.1931 9.55384 24.1463 9.67067L23.3652 11.6234C23.3131 11.7537 23.3182 11.8999 23.3791 12.0262C23.4964 12.2696 23.6006 12.5205 23.6908 12.778C23.7371 12.9103 23.8368 13.0171 23.9657 13.0724L25.8986 13.9007C26.0142 13.9503 26.0892 14.064 26.0892 14.1898V16.181C26.0892 16.3068 26.0142 16.4205 25.8986 16.4701L23.9657 17.2984C23.8369 17.3537 23.7371 17.4605 23.6908 17.5928C23.6006 17.8503 23.4964 18.1013 23.3791 18.3446C23.3181 18.471 23.3131 18.6172 23.3652 18.7475L24.1463 20.7003C24.1931 20.8172 24.1657 20.9506 24.0767 21.0396L22.6688 22.4475C22.5798 22.5365 22.4464 22.5638 22.3296 22.5171L20.3767 21.736C20.2464 21.6839 20.1002 21.6889 19.9738 21.7498C19.7305 21.8671 19.4796 21.9713 19.2221 22.0615C19.0898 22.1078 18.983 22.2075 18.9278 22.3364L18.0993 24.2694C18.0498 24.3851 17.9361 24.46 17.8102 24.46H15.8191C15.6933 24.46 15.5796 24.3851 15.53 24.2694L14.7016 22.3364C14.6464 22.2075 14.5396 22.1078 14.4072 22.0615C14.1498 21.9713 13.8989 21.8671 13.6556 21.7498C13.5292 21.6889 13.383 21.6839 13.2528 21.736L11.2999 22.5172C11.183 22.5639 11.0496 22.5365 10.9606 22.4475L9.55269 21.0396C9.46372 20.9506 9.43633 20.8172 9.48306 20.7004L10.2642 18.7475C10.3163 18.6173 10.3113 18.4711 10.2503 18.3447C10.133 18.1013 10.0288 17.8504 9.93862 17.5928C9.89229 17.4605 9.79253 17.3537 9.66366 17.2985L7.73068 16.4701C7.61503 16.4205 7.54004 16.3068 7.54004 16.181V14.1898C7.54004 14.064 7.61503 13.9503 7.73068 13.9007Z" fill="white"/>
<path d="M13.0563 12.4273V13.1491H14.0563V12.4273H21.7018V11.4273H14.0563V10.7054H13.0563V11.4273H11.9272V12.4273H13.0563Z" fill="#2A2620"/>
<path d="M13.0563 18.9436V19.6655H14.0563V18.9436H21.7018V17.9436H14.0563V17.2219H13.0563V17.9436H11.9272V18.9436H13.0563Z" fill="#2A2620"/>
<path d="M19.3691 15.6855V16.4073H20.3691V15.6855H21.7018V14.6855H20.3691V13.9637H19.3691V14.6855H11.9272V15.6855H19.3691Z" fill="#2A2620"/>
</svg>
