<svg width="32" height="32" viewBox="0 0 32 32" fill="none" xmlns="http://www.w3.org/2000/svg">
<path d="M0 16C0 7.16344 7.16344 0 16 0C24.8366 0 32 7.16344 32 16C32 24.8366 24.8366 32 16 32C7.16344 32 0 24.8366 0 16Z" fill="#E5DED6"/>
<path fill-rule="evenodd" clip-rule="evenodd" d="M17.7585 17.6916C17.8669 17.5628 18.0077 17.4616 18.1695 17.4004L22.9942 15.5741L24.4986 15.172C25.2242 14.9781 25.2328 13.9516 24.5106 13.7455L18.2093 11.9476C17.9981 11.8873 17.8135 11.7664 17.6751 11.6046L15.4827 3.93144C15.3119 3.33351 14.5732 3.12205 14.1118 3.53902L12.6766 4.83615C12.5638 4.93813 12.4808 5.06882 12.4364 5.21429L10.4782 11.6347C10.3798 11.9571 10.1257 12.2083 9.80226 12.3028L2.68492 14.3835C1.73849 14.6602 1.72136 15.9948 2.66036 16.2957L9.43642 18.467C9.75565 18.5693 10.0024 18.8247 10.0936 19.1473L12.347 27.1201C12.5166 27.7199 13.2573 27.9326 13.7193 27.5142L15.1514 26.2171C15.2689 26.1106 15.3539 25.973 15.3965 25.8203L17.0829 19.7775L17.7585 17.6916ZM19.8581 13.4579L17.8567 13.3285C17.5448 13.3083 17.3747 12.9839 17.491 12.7254C17.6299 12.8026 17.7786 12.8646 17.935 12.9092L19.8581 13.4579Z" fill="#2A2620"/>
<path d="M13.2067 11.3914L14.6775 5.17105L16.4933 11.4714C16.6939 12.1671 17.2387 12.7105 17.935 12.9092L23.3313 14.4489L18.3329 15.785C17.6448 15.9689 17.0968 16.4891 16.8773 17.1667L14.6623 24.0061L12.7619 17.2826C12.5634 16.5804 12.0148 16.0316 11.3127 15.833L6.4549 14.4589L11.7475 12.9252C12.4749 12.7144 13.0325 12.1283 13.2067 11.3914Z" fill="white"/>
<path d="M24.3509 19.0081C24.2808 18.8798 24.1462 18.8 24 18.8C23.8538 18.8 23.7192 18.8798 23.649 19.0081L22.5739 20.9739L20.608 22.0491C20.4798 22.1192 20.4 22.2538 20.4 22.4C20.4 22.5462 20.4798 22.6808 20.608 22.7509L22.5739 23.8261L23.649 25.7919C23.7192 25.9202 23.8538 26 24 26C24.1462 26 24.2808 25.9202 24.3509 25.7919L25.4261 23.8261L27.3919 22.7509C27.5202 22.6808 27.6 22.5462 27.6 22.4C27.6 22.2538 27.5202 22.1192 27.3919 22.0491L25.4261 20.9739L24.3509 19.0081Z" fill="#2A2620"/>
<path d="M22.7509 4.60806C22.6808 4.47977 22.5462 4.39999 22.4 4.39999C22.2538 4.39999 22.1192 4.47977 22.049 4.60806L21.2567 6.05674L19.808 6.84905C19.6798 6.91921 19.6 7.05378 19.6 7.19999C19.6 7.34621 19.6798 7.48078 19.808 7.55094L21.2567 8.34325L22.049 9.79193C22.1192 9.92021 22.2538 9.99999 22.4 9.99999C22.5462 9.99999 22.6808 9.92021 22.7509 9.79193L23.5432 8.34325L24.9919 7.55094C25.1202 7.48078 25.2 7.34621 25.2 7.19999C25.2 7.05378 25.1202 6.91921 24.9919 6.84905L23.5432 6.05674L22.7509 4.60806Z" fill="#2A2620"/>
</svg>
