<svg width="32" height="32" viewBox="0 0 32 32" fill="none" xmlns="http://www.w3.org/2000/svg">
<path d="M0 16C0 7.16344 7.16344 0 16 0C24.8366 0 32 7.16344 32 16C32 24.8366 24.8366 32 16 32C7.16344 32 0 24.8366 0 16Z" fill="#E5DED6"/>
<path d="M18.7458 5.38612C18.1466 4.17215 16.8144 4.17511 15.7644 5.15218L14.9623 5.95427C14.9623 5.95427 14.3936 6.43552 13.9497 7.25278L12.5062 10.1777L8.40007 10.7744C7.46484 10.9103 7.2915 11.4522 6.69358 12.0501L5.99723 12.7537C5.47586 13.2459 4.52796 14.2449 5.62819 15.427L9.24852 18.956C9.30351 19.0096 9.32861 19.0868 9.31562 19.1625L8.46098 24.1455C8.23213 25.4797 9.63261 26.4972 10.8309 25.8673L15.3058 23.5147C15.3738 23.4789 15.455 23.4789 15.523 23.5147L19.998 25.8673C21.6123 26.4584 22.4686 25.2023 23.0707 24.5188C23.5848 23.9353 24.4315 23.4272 24.2345 22.2788L23.3799 17.2958C23.3742 17.2628 23.3758 17.2294 23.384 17.1978L25.2006 15.427C25.2847 15.345 25.3575 15.2578 25.4195 15.1666L27.0673 13.5604C28.0367 12.6154 27.5018 10.9691 26.1621 10.7744L21.1589 10.0474C21.0829 10.0364 21.0172 9.98862 20.9832 9.91975L18.7458 5.38612Z" fill="#2A2620"/>
<path d="M17.012 5.67489C17.1221 5.45192 17.44 5.45192 17.55 5.67489L19.9381 10.5137C20.1275 10.8973 20.4935 11.1633 20.9169 11.2248L26.2568 12.0007C26.5029 12.0365 26.6011 12.3389 26.4231 12.5124L22.5591 16.2789C22.2527 16.5776 22.1129 17.0079 22.1852 17.4296L23.0974 22.7479C23.1394 22.993 22.8822 23.1798 22.6621 23.0641L17.886 20.5532C17.5072 20.3541 17.0548 20.3541 16.6761 20.5532L11.8999 23.0641C11.6799 23.1798 11.4226 22.993 11.4647 22.7479L12.3768 17.4296C12.4491 17.0079 12.3093 16.5776 12.0029 16.2789L8.13896 12.5124C7.9609 12.3389 8.05916 12.0365 8.30522 12.0007L13.6451 11.2248C14.0685 11.1633 14.4346 10.8973 14.6239 10.5137L17.012 5.67489Z" fill="white"/>
</svg>
