<svg width="32" height="32" viewBox="0 0 32 32" fill="none" xmlns="http://www.w3.org/2000/svg">
<path d="M0 16C0 7.16344 7.16344 0 16 0V0C24.8366 0 32 7.16344 32 16V16C32 24.8366 24.8366 32 16 32V32C7.16344 32 0 24.8366 0 16V16Z" fill="#E5DED6"/>
<path fill-rule="evenodd" clip-rule="evenodd" d="M12.625 7.20001C12.625 6.85483 12.3452 6.57501 12 6.57501C11.4737 6.57501 10.8585 7.63731 10.4958 8.00001H8.8C8.56946 8.00001 8.36169 8.09753 8.2157 8.25357L6.6535 9.81577C6.49749 9.96176 6.4 10.1695 6.4 10.4V23.2C6.4 23.6418 6.75817 24 7.2 24H24.8C25.0429 24 25.2605 23.8918 25.4072 23.7209L26.9209 22.2072C27.0918 22.0605 27.2 21.8429 27.2 21.6V8.80001C27.2 8.35818 26.8418 8.00001 26.4 8.00001H23.825V7.20001C23.825 6.85483 23.5452 6.57501 23.2 6.57501C22.6737 6.57501 22.0585 7.63731 21.6958 8.00001H12.625V7.20001Z" fill="#2A2620"/>
<path d="M9.6 12H26.4V21.6H9.6V12Z" fill="white"/>
<path fill-rule="evenodd" clip-rule="evenodd" d="M12 6.70001C12.2761 6.70001 12.5 6.92387 12.5 7.20001L12.5 10.4C12.5 10.6762 12.2761 10.9 12 10.9C11.7239 10.9 11.5 10.6762 11.5 10.4L11.5 7.20001C11.5 6.92387 11.7239 6.70001 12 6.70001Z" fill="#2A2620"/>
<path fill-rule="evenodd" clip-rule="evenodd" d="M23.2 6.70001C23.4761 6.70001 23.7 6.92387 23.7 7.20001L23.7 10.4C23.7 10.6762 23.4761 10.9 23.2 10.9C22.9239 10.9 22.7 10.6762 22.7 10.4L22.7 7.20001C22.7 6.92387 22.9239 6.70001 23.2 6.70001Z" fill="#2A2620"/>
<path d="M11.2 13.6H15.2V17.6H11.2V13.6Z" fill="#2A2620"/>
</svg>
