<svg width="32" height="32" viewBox="0 0 32 32" fill="none" xmlns="http://www.w3.org/2000/svg">
<path d="M0 16C0 7.16344 7.16344 0 16 0C24.8366 0 32 7.16344 32 16C32 24.8366 24.8366 32 16 32C7.16344 32 0 24.8366 0 16Z" fill="#E5DED6"/>
<path d="M23.1933 22.7588C23.1814 22.7699 23.1699 22.7814 23.1588 22.7933C21.13 24.9942 18.2699 26.6 15.2 26.6C9.7876 26.6 5.39999 22.2124 5.39999 16.8C5.39999 13.725 6.49874 11.9387 8.46092 9.58411C9.70284 8.09381 11.1674 6.97868 12.7429 6.27641L12.7429 6.27643L12.7471 6.27455C13.9815 5.71306 15.3534 5.4 16.8 5.4C22.2124 5.4 26.6 9.78761 26.6 15.2C26.6 18.2944 25.373 20.7495 23.1933 22.7588Z" fill="#2A2620" stroke="#2A2620" stroke-width="1.2" stroke-linecap="round" stroke-linejoin="round"/>
<path d="M26.2 15.2C26.2 20.3915 21.9915 24.6 16.8 24.6C11.6085 24.6 7.40002 20.3915 7.40002 15.2C7.40002 10.0085 11.6085 5.8 16.8 5.8C21.9915 5.8 26.2 10.0085 26.2 15.2Z" fill="white"/>
<path fill-rule="evenodd" clip-rule="evenodd" d="M22.1028 11.1228L15.3728 19.5128C15.2839 19.6236 15.152 19.6914 15.0102 19.6992C14.8683 19.707 14.7299 19.6541 14.6294 19.5537L11.4929 16.4201L12.1996 15.7127L14.9416 18.4521L21.3228 10.4971L22.1028 11.1228Z" fill="#2A2620"/>
</svg>
