<svg width="32" height="32" viewBox="0 0 32 32" fill="none" xmlns="http://www.w3.org/2000/svg">
<path d="M0 16C0 7.16344 7.16344 0 16 0C24.8366 0 32 7.16344 32 16C32 24.8366 24.8366 32 16 32C7.16344 32 0 24.8366 0 16Z" fill="#E5DED6"/>
<path d="M27.2 15.2C27.2 9.45624 22.5437 4.8 16.8 4.8C15.266 4.8 13.8095 5.13212 12.4986 5.72839C10.8332 6.47074 9.29621 7.64453 7.99999 9.2C5.99999 11.6 4.79999 13.5206 4.79999 16.8C4.79999 22.5438 9.45623 27.2 15.2 27.2C18.4794 27.2 21.4895 25.4895 23.6 23.2C25.8895 21.0895 27.2 18.4794 27.2 15.2Z" fill="#2A2620"/>
<path d="M26.2 15.2C26.2 20.3915 21.9915 24.6 16.8 24.6C11.6085 24.6 7.40002 20.3915 7.40002 15.2C7.40002 10.0085 11.6085 5.8 16.8 5.8C21.9915 5.8 26.2 10.0085 26.2 15.2Z" fill="white"/>
<path fill-rule="evenodd" clip-rule="evenodd" d="M22.1028 11.1228L15.3728 19.5128C15.2839 19.6236 15.152 19.6914 15.0102 19.6992C14.8683 19.707 14.7299 19.6541 14.6294 19.5537L11.4929 16.4201L12.1996 15.7127L14.9416 18.4521L21.3228 10.4971L22.1028 11.1228Z" fill="#2A2620"/>
</svg>
