<svg width="32" height="32" viewBox="0 0 32 32" fill="none" xmlns="http://www.w3.org/2000/svg">
<path d="M0 16C0 7.16344 7.16344 0 16 0C24.8366 0 32 7.16344 32 16C32 24.8366 24.8366 32 16 32C7.16344 32 0 24.8366 0 16Z" fill="#E5DED6"/>
<path d="M27.2 15.2C27.2 18.4795 25.8895 21.0895 23.6 23.2C21.4895 25.4895 18.4794 27.2 15.2 27.2C9.45623 27.2 4.79999 22.5438 4.79999 16.8C4.79999 13.5206 5.99999 11.6 7.99999 9.20005C10.3609 6.36699 13.5205 4.80005 16.8 4.80005C22.5437 4.80005 27.2 9.45629 27.2 15.2Z" fill="#2A2620"/>
<path d="M16.0016 13.6942L19.7863 12.6129L18.705 16.3976L16.0016 13.6942Z" fill="white"/>
<path fill-rule="evenodd" clip-rule="evenodd" d="M16.3001 5.81311V7.98271H17.3001V5.81311C22.2342 6.07172 26.1605 10.1353 26.1997 15.1246H24.0173V16.1246H26.1551C25.7066 20.7186 21.9511 24.3432 17.3001 24.587V22.4174H16.3001V24.587C11.649 24.3432 7.89343 20.7186 7.44493 16.1246H9.5827V15.1246H7.40033C7.43954 10.1353 11.3659 6.07169 16.3001 5.81311ZM21.2424 11.1568L14.6427 13.0425L12.7571 19.6421L19.3568 17.7565L21.2424 11.1568Z" fill="white"/>
</svg>
