<svg width="32" height="32" viewBox="0 0 32 32" fill="none" xmlns="http://www.w3.org/2000/svg">
<path d="M0 16C0 7.16344 7.16344 0 16 0C24.8366 0 32 7.16344 32 16C32 24.8366 24.8366 32 16 32C7.16344 32 0 24.8366 0 16Z" fill="#E5DED6"/>
<path fill-rule="evenodd" clip-rule="evenodd" d="M9.13138 6.06864C9.43144 5.76858 9.83841 5.60001 10.2628 5.60001H23.2C24.0837 5.60001 24.8 6.31635 24.8 7.20001V23.3372C24.8 23.7616 24.6314 24.1685 24.3314 24.4686L22.8686 25.9314C22.5685 26.2314 22.1616 26.4 21.7372 26.4H8.80001C7.91636 26.4 7.20001 25.6837 7.20001 24.8V8.66275C7.20001 8.2384 7.36858 7.83144 7.66864 7.53138L9.13138 6.06864Z" fill="#2A2620"/>
<path d="M8.79999 7.20001C8.79999 6.31635 9.51633 5.60001 10.4 5.60001H23.2C24.0836 5.60001 24.8 6.31635 24.8 7.20001V23.2C24.8 24.0837 24.0836 24.8 23.2 24.8H10.4C9.51633 24.8 8.79999 24.0837 8.79999 23.2V7.20001Z" fill="white"/>
<path fill-rule="evenodd" clip-rule="evenodd" d="M10.4 5.59998C9.51633 5.59998 8.79999 6.31632 8.79999 7.19998V23.2C8.79999 24.0836 9.51633 24.8 10.4 24.8H23.2C24.0836 24.8 24.8 24.0836 24.8 23.2V7.19998C24.8 6.31632 24.0836 5.59998 23.2 5.59998H10.4ZM23.2 6.84998H10.4C10.2067 6.84998 10.05 7.00668 10.05 7.19998V11.0784H23.55V7.19998C23.55 7.00668 23.3933 6.84998 23.2 6.84998ZM10.05 23.2V12.2784H13.8718L13.8746 23.55H10.4C10.2067 23.55 10.05 23.3933 10.05 23.2ZM15.0746 23.55H23.2C23.3933 23.55 23.55 23.3933 23.55 23.2V12.2784H15.0718L15.0746 23.55Z" fill="#2A2620"/>
</svg>
