<svg width="32" height="32" viewBox="0 0 32 32" fill="none" xmlns="http://www.w3.org/2000/svg">
<path d="M0 16C0 7.16344 7.16344 0 16 0C24.8366 0 32 7.16344 32 16C32 24.8366 24.8366 32 16 32C7.16344 32 0 24.8366 0 16Z" fill="#E5DED6"/>
<path d="M24.9383 20.7541H8.92186L8.51095 18.9734H25.3493L24.9383 20.7541Z" fill="white"/>
<path d="M25.58 17.9734H8.28018L6.7749 11.4506L9.94905 12.8863C10.6388 13.1983 11.4501 13.0453 11.9789 12.5036L16.9251 7.43672L21.7941 12.4952C22.3198 13.0413 23.1311 13.1996 23.8235 12.8912L27.0885 11.4366L25.58 17.9734Z" fill="white"/>
<path fill-rule="evenodd" clip-rule="evenodd" d="M17.5024 6.59462L22.491 11.7773L27.1514 10.17C27.7455 9.96511 28.333 10.4938 28.1917 11.1062L25.8793 21.1264C25.874 21.1495 25.8677 21.1722 25.8605 21.1944C25.8053 21.3698 25.6929 21.5167 25.547 21.6158L23.8964 23.2664C23.7496 23.4708 23.5104 23.5999 23.2464 23.5999H6.91172C6.5392 23.5999 6.21597 23.3428 6.13221 22.9798L3.82125 12.9657C3.73889 12.6088 3.90407 12.2804 4.17369 12.109L5.82573 10.5238C5.99063 10.3655 6.21023 10.2892 6.42817 10.3024C6.555 10.2927 6.68811 10.3138 6.81881 10.373L10.287 11.9417C10.352 11.9096 10.4133 11.8684 10.469 11.8182L16.2598 6.59868C16.3633 6.50547 16.4835 6.44458 16.6089 6.41468C16.9056 6.28676 17.264 6.34696 17.5024 6.59462ZM8.92185 20.7541H24.9383L25.3492 18.9734H8.51094L8.92185 20.7541ZM8.28017 17.9734L6.77491 11.4506L9.949 12.8863C10.6388 13.1983 11.45 13.0454 11.9789 12.5036L16.925 7.43676L21.7941 12.4953C22.3197 13.0414 23.1311 13.1997 23.8234 12.8912L27.0885 11.4366L25.58 17.9734H8.28017Z" fill="#2A2620"/>
<rect x="14.6154" y="13.4165" width="3.2" height="3.2" transform="rotate(-45 14.6154 13.4165)" fill="#2A2620"/>
</svg>
