<svg width="32" height="32" viewBox="0 0 32 32" fill="none" xmlns="http://www.w3.org/2000/svg">
<path d="M0 16C0 7.16344 7.16344 0 16 0V0C24.8366 0 32 7.16344 32 16V16C32 24.8366 24.8366 32 16 32V32C7.16344 32 0 24.8366 0 16V16Z" fill="#E5DED6"/>
<path fill-rule="evenodd" clip-rule="evenodd" d="M11.4322 11.9533C11.4948 11.2381 12.1253 10.709 12.8405 10.7716L22.0055 11.5734C22.7208 11.636 23.2499 12.2665 23.1873 12.9818L22.0717 25.7331C22.0091 26.4483 21.3786 26.9774 20.6633 26.9148L11.4983 26.113C10.7831 26.0504 10.254 25.4199 10.3166 24.7046L11.4322 11.9533Z" fill="#2A2620"/>
<path d="M8 7.39999C8 6.84771 8.44772 6.39999 9 6.39999H17.8C18.3523 6.39999 18.8 6.84771 18.8 7.39999V19.4C18.8 19.9523 18.3523 20.4 17.8 20.4H9C8.44772 20.4 8 19.9523 8 19.4V7.39999Z" fill="#2A2620"/>
<path d="M13.5303 10.397C13.5688 9.95682 13.9568 9.63122 14.397 9.66973L23.5619 10.4716C24.0021 10.5101 24.3277 10.8981 24.2892 11.3382L23.1736 24.0895C23.1351 24.5297 22.747 24.8553 22.3069 24.8168L13.1419 24.0149C12.7018 23.9764 12.3762 23.5884 12.4147 23.1483L13.5303 10.397Z" fill="#2A2620"/>
<path d="M13.5128 10.5962C13.561 10.046 14.046 9.63903 14.5962 9.68716L23.3627 10.4541C23.9129 10.5023 24.3199 10.9873 24.2717 11.5375L23.191 23.8903C23.1429 24.4405 22.6578 24.8475 22.1077 24.7993L13.3412 24.0324C12.791 23.9842 12.384 23.4992 12.4321 22.949L13.5128 10.5962Z" fill="white"/>
<path fill-rule="evenodd" clip-rule="evenodd" d="M13.0147 10.5526C13.0869 9.72734 13.8145 9.11685 14.6398 9.18905L23.4063 9.95602C24.2316 10.0282 24.842 10.7558 24.7698 11.581L23.6891 23.9339C23.6169 24.7591 22.8894 25.3696 22.0641 25.2974L13.2976 24.5305C12.4723 24.4582 11.8618 23.7307 11.934 22.9054L13.0147 10.5526ZM14.5526 10.1852C14.2775 10.1612 14.035 10.3647 14.0109 10.6398L12.9302 22.9926C12.9061 23.2677 13.1096 23.5102 13.3847 23.5343L22.1512 24.3012C22.4263 24.3253 22.6688 24.1218 22.6929 23.8467L23.7736 11.4939C23.7977 11.2188 23.5942 10.9763 23.3191 10.9522L14.5526 10.1852Z" fill="#2A2620"/>
<path fill-rule="evenodd" clip-rule="evenodd" d="M15.804 17.8409C16.0458 17.7076 16.35 17.7955 16.4833 18.0373C17.288 19.4969 19.2685 19.7752 20.4444 18.594C20.6392 18.3983 20.9558 18.3976 21.1515 18.5924C21.3472 18.7872 21.3479 19.1038 21.1531 19.2995C19.5069 20.9532 16.7342 20.5635 15.6076 18.5202C15.4743 18.2783 15.5622 17.9742 15.804 17.8409Z" fill="#2A2620"/>
<path d="M16.797 16.2326C17.2371 16.2711 17.6251 15.9455 17.6636 15.5053C17.7021 15.0652 17.3766 14.6772 16.9364 14.6387C16.4963 14.6002 16.1082 14.9257 16.0697 15.3659C16.0312 15.806 16.3568 16.1941 16.797 16.2326Z" fill="#2A2620"/>
<path d="M20.397 16.6326C20.8371 16.6711 21.2251 16.3455 21.2636 15.9053C21.3021 15.4652 20.9766 15.0772 20.5364 15.0387C20.0963 15.0001 19.7082 15.3257 19.6697 15.7659C19.6312 16.206 19.9568 16.5941 20.397 16.6326Z" fill="#2A2620"/>
<path d="M23.2944 24.8236L21.672 26.5601L21.672 24.936L23.2944 24.8236Z" fill="#2A2620"/>
</svg>
