<svg xmlns="http://www.w3.org/2000/svg" width="40" height="40" viewBox="0 0 40 40"><path fill="#E5DED6" d="M0 20C0 8.954 8.954 0 20 0s20 8.954 20 20-8.954 20-20 20S0 31.046 0 20"/><path fill="#2A2620" d="M11.414 7.586A2 2 0 0 1 12.828 7H29a2 2 0 0 1 2 2v20.172a2 2 0 0 1-.586 1.414l-1.828 1.828a2 2 0 0 1-1.414.586H11a2 2 0 0 1-2-2V10.828a2 2 0 0 1 .586-1.414z"/><path fill="#fff" d="M13 8.25h16a.75.75 0 0 1 .75.75v20a.75.75 0 0 1-.75.75H13a.75.75 0 0 1-.75-.75V9a.75.75 0 0 1 .75-.75"/><path fill="#2A2620" fill-rule="evenodd" d="M27 13.625h-5v-1.25h5zm0 6h-5v-1.25h5zm0 6h-5v-1.25h5zm-7.671-13.721L16.53 15.39a.625.625 0 0 1-.93.051l-1.485-1.484.884-.884.992.991 2.361-2.944zm0 5.571-2.798 3.487a.625.625 0 0 1-.93.052l-1.485-1.485.884-.884.992.992 2.361-2.944zm0 6-2.798 3.487a.625.625 0 0 1-.93.052l-1.485-1.485.884-.884.992.992 2.361-2.944z"/></svg>