<svg xmlns="http://www.w3.org/2000/svg" width="32" height="32" viewBox="0 0 32 32"><path fill="var(--hop-richicon-placeholder-foreground, #E5DED6)" d="M0 16C0 7.163 7.163 0 16 0s16 7.163 16 16-7.163 16-16 16S0 24.837 0 16"/><path fill="var(--hop-richicon-placeholder-background, #2A2620)" d="M9.131 6.069a1.6 1.6 0 0 1 1.132-.469H23.2a1.6 1.6 0 0 1 1.6 1.6v16.137a1.6 1.6 0 0 1-.469 1.132L22.87 25.93a1.6 1.6 0 0 1-1.132.469H8.8a1.6 1.6 0 0 1-1.6-1.6V8.663a1.6 1.6 0 0 1 .469-1.132z"/><path fill="#fff" d="M10.4 6.6h12.8a.6.6 0 0 1 .6.6v16a.6.6 0 0 1-.6.6H10.4a.6.6 0 0 1-.6-.6v-16a.6.6 0 0 1 .6-.6"/><path fill="var(--hop-richicon-placeholder-background, #2A2620)" fill-rule="evenodd" d="M21.6 10.9h-4v-1h4zm0 4.8h-4v-1h4zm0 4.8h-4v-1h4zM15.463 9.523l-2.238 2.79a.5.5 0 0 1-.744.04l-1.188-1.187.707-.707.794.793 1.889-2.355zm0 4.457-2.238 2.79a.5.5 0 0 1-.744.04l-1.188-1.187.707-.707.794.793 1.889-2.355zm0 4.8-2.238 2.79a.5.5 0 0 1-.744.04l-1.188-1.187.707-.707.794.793 1.889-2.355z"/></svg>