<svg xmlns="http://www.w3.org/2000/svg" width="24" height="24" viewBox="0 0 24 24"><path fill="var(--hop-Richicon-placeholder-shadow, #E5DED6)" d="M0 12C0 5.373 5.373 0 12 0s12 5.373 12 12-5.373 12-12 12S0 18.627 0 12"/><path fill="var(--hop-Richicon-placeholder-background, #2A2620)" d="M6.848 4.551a1.2 1.2 0 0 1 .849-.351H17.4a1.2 1.2 0 0 1 1.2 1.2v12.103a1.2 1.2 0 0 1-.352.849l-1.097 1.096a1.2 1.2 0 0 1-.848.352H6.6a1.2 1.2 0 0 1-1.2-1.2V6.497a1.2 1.2 0 0 1 .351-.848z"/><path fill="#fff" fill-rule="evenodd" d="M7.8 5.2h9.6c.11 0 .2.09.2.2v12a.2.2 0 0 1-.2.2H7.8a.2.2 0 0 1-.2-.2v-12c0-.11.09-.2.2-.2m5.4 3.1h3v-1h-3zm3 3.6h-3v-1h3zm-3 3.6h3v-1h-3zm-1.427-8.377-1.757 2.19a.5.5 0 0 1-.743.04l-.98-.978L9 7.667l.585.585 1.408-1.755zm-1.757 5.533 1.757-2.19-.78-.626-1.408 1.755L9 11.01l-.707.708.98.979a.5.5 0 0 0 .743-.041m1.757 1.41-1.757 2.19a.5.5 0 0 1-.743.04l-.98-.978L9 14.61l.585.585 1.408-1.755z"/></svg>