<svg xmlns="http://www.w3.org/2000/svg" width="24" height="24" viewBox="0 0 24 24"><path fill="var(--hop-RichIcon-placeholder-background, #E5DED6)" d="M0 12C0 5.373 5.373 0 12 0s12 5.373 12 12-5.373 12-12 12S0 18.627 0 12"/><path fill="var(--hop-RichIcon-placeholder-shadow, #2A2620)" fill-rule="evenodd" d="M9.625 5.4A.625.625 0 0 0 8.6 4.92v-.001l-.007.006a1 1 0 0 0-.068.068L7.52 6H6.6a.6.6 0 0 0-.438.19L4.99 7.362a.6.6 0 0 0-.19.438v9.6a.6.6 0 0 0 .6.6h13.2a.6.6 0 0 0 .455-.21l1.136-1.135a.6.6 0 0 0 .209-.455V6.6a.6.6 0 0 0-.6-.6h-1.775v-.6a.625.625 0 0 0-1.129-.37l-.97.97H9.625z"/><path fill="var(--hop-RichIcon-placeholder-fill, #fff)" d="M6.6 6.6h13.2v9.3H6.6z"/><path fill="var(--hop-RichIcon-placeholder-shadow, #2A2620)" fill-rule="evenodd" d="M9 4.9a.5.5 0 0 1 .5.5v2.4a.5.5 0 1 1-1 0V5.4a.5.5 0 0 1 .5-.5m8.4 0a.5.5 0 0 1 .5.5v2.4a.5.5 0 0 1-1 0V5.4a.5.5 0 0 1 .5-.5M13.2 8a1 1 0 0 1 .951.691l.314.967h1.018a1 1 0 0 1 .587 1.81l-.823.597.315.968a1 1 0 0 1-1.54 1.118l-.822-.598-.823.598a1 1 0 0 1-1.539-1.118l.315-.968-.823-.598a1 1 0 0 1 .588-1.809h1.017l.314-.967A1 1 0 0 1 13.2 8m0 1 .539 1.658h1.743l-1.41 1.025.539 1.659-1.411-1.025-1.41 1.025.538-1.659-1.41-1.025h1.743z"/></svg>