<svg xmlns="http://www.w3.org/2000/svg" width="32" height="32" viewBox="0 0 32 32"><path fill="var(--hop-RichIcon-placeholder-background, #E5DED6)" d="M0 16C0 7.163 7.163 0 16 0s16 7.163 16 16-7.163 16-16 16S0 24.837 0 16"/><path fill="var(--hop-RichIcon-placeholder-shadow, #2A2620)" fill-rule="evenodd" d="M12.625 7.2a.625.625 0 0 0-1.04-.468l-.004.004-.045.045L10.317 8H8.8a.8.8 0 0 0-.584.254L6.653 9.816a.8.8 0 0 0-.253.584v12.8a.8.8 0 0 0 .8.8h17.6c.243 0 .46-.108.607-.28l1.514-1.513a.8.8 0 0 0 .279-.607V8.8a.8.8 0 0 0-.8-.8h-2.575v-.8a.625.625 0 0 0-1.07-.438L21.515 8h-8.891z"/><path fill="var(--hop-RichIcon-placeholder-fill, #fff)" d="M8.8 8.8h17.6v12.4H8.8z"/><path fill="var(--hop-RichIcon-placeholder-shadow, #2A2620)" fill-rule="evenodd" d="M12 6.7a.5.5 0 0 1 .5.5v3.2a.5.5 0 0 1-1 0V7.2a.5.5 0 0 1 .5-.5m11.2 0a.5.5 0 0 1 .5.5v3.2a.5.5 0 0 1-1 0V7.2a.5.5 0 0 1 .5-.5M17.6 11a1 1 0 0 1 .951.691l.494 1.52h1.598a1 1 0 0 1 .588 1.81l-1.293.939.494 1.52a1 1 0 0 1-1.539 1.118l-1.293-.94-1.293.94a1 1 0 0 1-1.539-1.118l.494-1.52-1.293-.94a1 1 0 0 1 .588-1.809h1.598l.494-1.52A1 1 0 0 1 17.6 11m-.719 3.211h-2.324l1.88 1.367-.718 2.21 1.881-1.366 1.88 1.367-.718-2.211 1.881-1.367h-2.325L17.6 12z"/></svg>