<svg xmlns="http://www.w3.org/2000/svg" width="32" height="32" viewBox="0 0 32 32"><path fill="var(--hop-Richicon-placeholder-shadow, #E5DED6)" d="M0 16C0 7.163 7.163 0 16 0s16 7.163 16 16-7.163 16-16 16S0 24.837 0 16"/><path fill="var(--hop-Richicon-placeholder-background, #2A2620)" d="M27.2 15.2c0 3.28-1.31 5.89-3.6 8-2.11 2.29-5.12 4-8.4 4-5.744 0-10.4-4.656-10.4-10.4 0-3.28 1.2-5.2 3.2-7.6 2.36-2.833 5.52-4.4 8.8-4.4 5.744 0 10.4 4.656 10.4 10.4"/><path fill="#fff" fill-rule="evenodd" d="M16.8 24.6a9.4 9.4 0 1 0 0-18.8 9.4 9.4 0 0 0 0 18.8m-4-10.2a1.2 1.2 0 1 0 0-2.4 1.2 1.2 0 0 0 0 2.4m9.2-1.2a1.2 1.2 0 1 1-2.4 0 1.2 1.2 0 0 1 2.4 0m-9.806 4.087a.5.5 0 0 0-.78.626A6.89 6.89 0 0 0 16.8 20.5c2.18 0 4.123-1.01 5.386-2.587a.5.5 0 1 0-.78-.626A5.89 5.89 0 0 1 16.8 19.5a5.89 5.89 0 0 1-4.606-2.213"/></svg>