<svg xmlns="http://www.w3.org/2000/svg" width="40" height="40" viewBox="0 0 40 40"><path fill="var(--hop-Richicon-placeholder-shadow, #E5DED6)" d="M0 20C0 8.954 8.954 0 20 0s20 8.954 20 20-8.954 20-20 20S0 31.046 0 20"/><path fill="var(--hop-Richicon-placeholder-background, #2A2620)" d="M34 19c0 4.1-1.638 7.362-4.5 10-2.638 2.862-6.4 5-10.5 5-7.18 0-13-5.82-13-13 0-4.1 1.5-6.5 4-9.5C12.951 7.959 16.9 6 21 6c7.18 0 13 5.82 13 13"/><path fill="#fff" fill-rule="evenodd" d="M21 30.75c6.49 0 11.75-5.26 11.75-11.75S27.49 7.25 21 7.25 9.25 12.51 9.25 19 14.51 30.75 21 30.75M16 18a1.5 1.5 0 1 0 0-3 1.5 1.5 0 0 0 0 3m11.5-1.5a1.5 1.5 0 1 1-3 0 1.5 1.5 0 0 1 3 0m-12.258 5.11a.625.625 0 0 0-.975.78A8.61 8.61 0 0 0 21 25.626a8.61 8.61 0 0 0 6.733-3.234.625.625 0 1 0-.975-.782A7.36 7.36 0 0 1 21 24.375a7.36 7.36 0 0 1-5.758-2.766"/></svg>