<svg xmlns="http://www.w3.org/2000/svg" width="40" height="40" viewBox="0 0 40 40"><path fill="#E5DED6" d="M0 20C0 8.954 8.954 0 20 0s20 8.954 20 20-8.954 20-20 20S0 31.046 0 20"/><path fill="#2A2620" stroke="#2A2620" stroke-linecap="round" stroke-linejoin="round" stroke-width="1.5" d="m28.992 28.449-.043.043c-2.536 2.75-6.112 4.758-9.949 4.758-6.765 0-12.25-5.485-12.25-12.25 0-3.844 1.373-6.077 3.826-9.02C13.403 8.588 17.15 6.75 21 6.75c6.765 0 12.25 5.485 12.25 12.25 0 3.868-1.534 6.937-4.258 9.449"/><path fill="#fff" fill-rule="evenodd" d="M21 30.75c6.49 0 11.75-5.26 11.75-11.75S27.49 7.25 21 7.25 9.25 12.51 9.25 19 14.51 30.75 21 30.75M16 18a1.5 1.5 0 1 0 0-3 1.5 1.5 0 0 0 0 3m11.5-1.5a1.5 1.5 0 1 1-3 0 1.5 1.5 0 0 1 3 0m-12.258 5.11a.625.625 0 0 0-.975.78A8.61 8.61 0 0 0 21 25.626a8.61 8.61 0 0 0 6.733-3.234.625.625 0 1 0-.975-.782A7.36 7.36 0 0 1 21 24.375a7.36 7.36 0 0 1-5.758-2.766"/></svg>