<svg xmlns="http://www.w3.org/2000/svg" width="24" height="24" viewBox="0 0 24 24"><path fill="#E5DED6" d="M0 12C0 5.373 5.373 0 12 0s12 5.373 12 12-5.373 12-12 12S0 18.627 0 12"/><path fill="#2A2620" stroke="#2A2620" stroke-linecap="round" stroke-linejoin="round" stroke-width=".9" d="m17.395 17.07-.026.025c-1.521 1.65-3.666 2.855-5.969 2.855a7.35 7.35 0 0 1-7.35-7.35c0-2.306.824-3.646 2.296-5.412C8.042 5.153 10.29 4.05 12.6 4.05a7.35 7.35 0 0 1 7.35 7.35c0 2.32-.92 4.162-2.555 5.67"/><path fill="#fff" fill-rule="evenodd" d="M12.6 18.2a6.8 6.8 0 1 0 0-13.6 6.8 6.8 0 0 0 0 13.6m-3-7.361a1.2 1.2 0 1 0 0-2.4 1.2 1.2 0 0 0 0 2.4m7.2-1.2a1.2 1.2 0 1 1-2.4 0 1.2 1.2 0 0 1 2.4 0m-7.557 3.248a.5.5 0 0 0-.78.626A5.3 5.3 0 0 0 12.6 15.5a5.3 5.3 0 0 0 4.137-1.987.5.5 0 0 0-.78-.626A4.29 4.29 0 0 1 12.6 14.5a4.3 4.3 0 0 1-3.357-1.613"/></svg>