<svg xmlns="http://www.w3.org/2000/svg" width="24" height="24" viewBox="0 0 24 24"><path fill="#E5DED6" d="M0 12C0 5.373 5.373 0 12 0s12 5.373 12 12-5.373 12-12 12S0 18.627 0 12"/><path fill="#2A2620" d="M20.4 11.4c0 2.46-.983 4.417-2.7 6-1.583 1.717-3.84 3-6.3 3a7.8 7.8 0 0 1-7.8-7.8c0-2.46.9-3.9 2.4-5.7 1.77-2.125 4.14-3.3 6.6-3.3a7.8 7.8 0 0 1 7.8 7.8"/><path fill="#fff" fill-rule="evenodd" d="M12.6 18.2a6.8 6.8 0 1 0 0-13.6 6.8 6.8 0 0 0 0 13.6m-3-7.361a1.2 1.2 0 1 0 0-2.4 1.2 1.2 0 0 0 0 2.4m7.2-1.2a1.2 1.2 0 1 1-2.4 0 1.2 1.2 0 0 1 2.4 0m-7.557 3.248a.5.5 0 0 0-.78.626A5.3 5.3 0 0 0 12.6 15.5a5.3 5.3 0 0 0 4.137-1.987.5.5 0 0 0-.78-.626A4.29 4.29 0 0 1 12.6 14.5a4.3 4.3 0 0 1-3.357-1.613"/></svg>