<svg xmlns="http://www.w3.org/2000/svg" width="32" height="32" viewBox="0 0 32 32"><path fill="var(--hop-RichIcon-placeholder-background, #E5DED6)" d="M0 16C0 7.163 7.163 0 16 0s16 7.163 16 16-7.163 16-16 16S0 24.837 0 16"/><path fill="var(--hop-RichIcon-placeholder-shadow, #2A2620)" d="m9.051 9.58.063-.065a1.773 1.773 0 0 1 2.507 0l.059.058a1.773 1.773 0 0 1 2.923-.655l.277.277q.21.113.388.283l.024.024c.084-.21.214-.408.389-.577a1.766 1.766 0 0 1 2.443 0l1.36 1.318a1.774 1.774 0 0 1 2.073.75q.08.064.151.136c.138-.343.392-.645.747-.843.826-.463 1.882-.188 2.359.612l2.53 4.22.008.015c.714 1.285.96 2.58.695 3.865-.264 1.278-1.021 2.493-2.212 3.647q-.311.303-.665.56-.42.541-.96 1.065c-1.014.983-2.379 1.65-3.963 1.674a5.8 5.8 0 0 1-3.7 1.12c-1.8-.081-3.777-.98-5.778-2.98l-4.175-4.175a1.773 1.773 0 0 1 .133-2.628l.409-.409-.244-.243a1.773 1.773 0 0 1 .082-2.584l.458-.458a1.773 1.773 0 0 1 .122-2.51z"/><path fill="var(--hop-RichIcon-placeholder-fill, #fff)" d="M10.224 13.298a.64.64 0 1 0-.906.905l4.17 4.169-.884.884-2.67-2.67-.009-.008a.64.64 0 0 0-.905.905l4.175 4.174c1.86 1.86 3.584 2.585 5.028 2.65 1.441.066 2.693-.52 3.63-1.457 1.134-1.134 1.773-2.246 1.99-3.333.216-1.075.032-2.192-.603-3.375l-2.638-4.538a.64.64 0 1 0-1.109.64l.025.048 1.256 2.684a.625.625 0 0 1-1.009.707l-5.963-5.964a.64.64 0 1 0-.9.911l3.866 3.866-.884.884-5.064-5.064a.64.64 0 0 0-.905.905l5.064 5.064-.884.883-3.863-3.862z"/><path fill="var(--hop-RichIcon-placeholder-shadow, #2A2620)" fill-rule="evenodd" d="m21.615 8.772 1.76-3.049 1.083.625-1.76 3.05zm-3.13-.638 1.052-3.924 1.207.323-1.051 3.924zM15.876 7.9l-.684-2.55 1.208-.323.683 2.55z"/></svg>