<svg xmlns="http://www.w3.org/2000/svg" width="40" height="40" viewBox="0 0 40 40"><path fill="var(--hop-RichIcon-placeholder-background, #E5DED6)" d="M0 20C0 8.954 8.954 0 20 0s20 8.954 20 20-8.954 20-20 20S0 31.046 0 20"/><path fill="var(--hop-RichIcon-placeholder-shadow, #2A2620)" d="M11.063 11.905c.897-.897 2.292-.794 3.158.072.522-1.46 2.48-1.924 3.598-.806.267.267.578.457.848.719a2.05 2.05 0 0 1 .479-.711 2.174 2.174 0 0 1 3.006 0l1.674 1.623c1.21-.408 2.078.193 2.738 1.09.169-.422.482-.794.918-1.038 1.017-.569 2.317-.231 2.904.754l3.114 5.194.01.018c.88 1.581 1.181 3.175.855 4.757-.794 3.85-5.51 8.486-9.6 8.549-1.26.912-2.811 1.458-4.554 1.379-5.162-.235-8.89-5.448-12.249-8.807-1.313-1.313-.358-2.712.667-3.737-1.362-1.362-.932-2.748.364-4.044a2.18 2.18 0 0 1 .07-3.012z"/><path fill="var(--hop-RichIcon-placeholder-fill, #fff)" d="M12.531 16.459a.932.932 0 0 0-1.318 1.318l5.03 5.03-.885.883-3.184-3.184-.01-.01a.932.932 0 1 0-1.318 1.318l5.138 5.138c2.307 2.308 4.462 3.221 6.284 3.304 1.82.083 3.398-.658 4.576-1.836 1.409-1.41 2.215-2.802 2.49-4.176.272-1.362.036-2.772-.759-4.252l-3.247-5.587a.932.932 0 0 0-1.615.932l.025.047 1.545 3.304a.625.625 0 0 1-1.008.707l-7.34-7.34a.932.932 0 1 0-1.318 1.318l.008.008 4.654 4.655-.884.883-6.13-6.13a.932.932 0 1 0-1.318 1.318l6.13 6.13-.884.884-4.654-4.654z"/><path fill="var(--hop-RichIcon-placeholder-shadow, #2A2620)" fill-rule="evenodd" d="m26.7 11.136 2.166-3.753 1.083.625-2.167 3.753zm-3.824-.856 1.294-4.829 1.207.324-1.294 4.83zm-3.212-.436-.841-3.139 1.207-.323.841 3.139z"/></svg>