<svg xmlns="http://www.w3.org/2000/svg" width="24" height="24" viewBox="0 0 24 24"><path fill="var(--hop-RichIcon-placeholder-background, #E5DED6)" d="M0 12C0 5.373 5.373 0 12 0s12 5.373 12 12-5.373 12-12 12S0 18.627 0 12"/><path fill="var(--hop-RichIcon-placeholder-shadow, #2A2620)" d="m6.46 7.309.046-.048a1.296 1.296 0 0 1 1.832 0l.043.043a1.296 1.296 0 0 1 2.136-.479l.203.202q.153.082.283.207l.018.017c.062-.153.156-.297.284-.421a1.29 1.29 0 0 1 1.785 0l.994.963a1.296 1.296 0 0 1 1.515.549q.059.045.11.098c.101-.25.287-.471.546-.616a1.284 1.284 0 0 1 1.724.448l1.85 3.084.005.01c.522.94.701 1.885.508 2.825-.193.933-.746 1.821-1.616 2.665a4.5 4.5 0 0 1-.486.41 7.4 7.4 0 0 1-.702.778c-.74.718-1.738 1.205-2.896 1.223a4.23 4.23 0 0 1-2.704.818c-1.315-.06-2.76-.715-4.222-2.178l-3.051-3.05a1.296 1.296 0 0 1 .097-1.92l.299-.3-.178-.178a1.296 1.296 0 0 1 .06-1.888l.334-.334a1.296 1.296 0 0 1 .09-1.835z"/><path fill="var(--hop-RichIcon-placeholder-fill, #fff)" d="M7.198 10.144a.3.3 0 0 0-.423.424l3.165 3.165-.883.884-2.075-2.075-.002-.001a.3.3 0 1 0-.423.423l3.05 3.051c1.339 1.339 2.561 1.842 3.564 1.888 1 .045 1.87-.36 2.526-1.016.812-.813 1.258-1.597 1.408-2.35.148-.74.024-1.517-.423-2.35l-1.925-3.314-.001-.001a.3.3 0 0 0-.519.3l.025.047.917 1.962a.625.625 0 0 1-1.008.706L9.813 7.53a.3.3 0 1 0-.413.434l2.937 2.938-.883.884-3.82-3.82a.3.3 0 1 0-.423.424l3.819 3.819-.884.884-2.944-2.944z"/><path fill="var(--hop-RichIcon-placeholder-shadow, #2A2620)" fill-rule="evenodd" d="m15.35 6.55 1.287-2.228 1.082.625-1.286 2.228zm-2.32-.385.768-2.868 1.207.324-.768 2.867zm-1.907.003-.5-1.864 1.208-.323.499 1.864z"/></svg>