<svg xmlns="http://www.w3.org/2000/svg" width="40" height="40" viewBox="0 0 40 40"><path fill="var(--hop-RichIcon-placeholder-background, #E5DED6)" d="M0 20C0 8.954 8.954 0 20 0s20 8.954 20 20-8.954 20-20 20S0 31.046 0 20"/><path fill="var(--hop-RichIcon-placeholder-shadow, #2A2620)" fill-rule="evenodd" d="M16.747 11.254q-.125.19-.299.367c.342.359.552.844.552 1.379v3h1v-1c0-.535.21-1.02.552-1.38a2.5 2.5 0 0 1-.3-.366c-.335-.504-.502-1.127-.502-1.754 0-.896.519-1.569.83-1.907.11-.12.218-.222.314-.308l1.63-1.63.052-.058q.081-.089.17-.164l.025-.025v.004a1.926 1.926 0 0 1 2.653.185c.311.34.826 1.01.826 1.903 0 .627-.167 1.25-.503 1.754q-.125.19-.299.367c.342.359.552.844.552 1.379v3h1v-1c0-.535.21-1.02.552-1.38a2.5 2.5 0 0 1-.3-.366c-.335-.504-.502-1.127-.502-1.754 0-.896.519-1.569.83-1.907.105-.114.209-.214.302-.297l1.653-1.654.041-.045q.077-.083.16-.156l.034-.033v.005a1.926 1.926 0 0 1 2.654.184c.311.34.826 1.01.826 1.903 0 .627-.167 1.25-.503 1.754q-.125.19-.299.367c.342.359.552.844.552 1.379v3h2a1 1 0 0 1 1 1v12a1 1 0 0 1-.022.208 1 1 0 0 1-.327.551l-1.892 1.892A1 1 0 0 1 31 32H9a1 1 0 0 1-1-1V19a1 1 0 0 1 .35-.76l1.89-1.891.057-.061A1 1 0 0 1 11 16v-1c0-.535.21-1.02.552-1.379a2.5 2.5 0 0 1-.3-.367c-.335-.504-.502-1.127-.502-1.754 0-.896.519-1.569.83-1.907q.132-.143.253-.253l1.745-1.745q.057-.06.117-.117l.07-.07v.008a1.926 1.926 0 0 1 2.659.181c.311.34.826 1.01.826 1.903 0 .627-.167 1.25-.503 1.754m-1.557-.281c-.146-.633-.523-1.112-.77-1.38a5 5 0 0 0-.384-.37c.077-.301.269-.571.46-.78.275-.3.732-.3 1.007 0 .25.271.497.645.497 1.057 0 .731-.349 1.34-.81 1.473m14 0c.461-.133.81-.742.81-1.473 0-.412-.248-.786-.497-1.057a.676.676 0 0 0-1.006 0c-.192.209-.384.479-.461.78.113.097.247.221.383.37.248.268.625.747.77 1.38m-7 0c.461-.133.81-.742.81-1.473 0-.412-.248-.786-.497-1.057a.676.676 0 0 0-1.006 0c-.192.209-.384.479-.461.78.113.097.247.221.383.37.248.268.625.747.77 1.38"/><path fill="var(--hop-RichIcon-placeholder-fill, #fff)" fill-rule="evenodd" d="M14.98 12.25a.75.75 0 0 1 .75.75v4a.75.75 0 0 1-1.5 0v-4a.75.75 0 0 1 .75-.75"/><path fill="var(--hop-RichIcon-placeholder-shadow, #2A2620)" fill-rule="evenodd" d="M14.98 11a2 2 0 0 1 2 2v4a2 2 0 1 1-4 0v-4a2 2 0 0 1 2-2m.75 2a.75.75 0 0 0-1.5 0v4a.75.75 0 0 0 1.5 0z"/><path fill="var(--hop-RichIcon-placeholder-fill, #fff)" fill-rule="evenodd" d="M21.98 12.25a.75.75 0 0 1 .75.75v4a.75.75 0 0 1-1.5 0v-4a.75.75 0 0 1 .75-.75"/><path fill="var(--hop-RichIcon-placeholder-shadow, #2A2620)" fill-rule="evenodd" d="M21.98 11a2 2 0 0 1 2 2v4a2 2 0 1 1-4 0v-4a2 2 0 0 1 2-2m.75 2a.75.75 0 0 0-1.5 0v4a.75.75 0 0 0 1.5 0z"/><path fill="var(--hop-RichIcon-placeholder-fill, #fff)" fill-rule="evenodd" d="M28.98 12.25a.75.75 0 0 1 .75.75v4a.75.75 0 0 1-1.5 0v-4a.75.75 0 0 1 .75-.75"/><path fill="var(--hop-RichIcon-placeholder-shadow, #2A2620)" fill-rule="evenodd" d="M28.98 11a2 2 0 0 1 2 2v4a2 2 0 1 1-4 0v-4a2 2 0 0 1 2-2m.75 2a.75.75 0 0 0-1.5 0v4a.75.75 0 0 0 1.5 0z"/><path fill="var(--hop-RichIcon-placeholder-fill, #fff)" d="M9.98 17a1 1 0 0 1 1-1h22a1 1 0 0 1 1 1v12a1 1 0 0 1-1 1h-22a1 1 0 0 1-1-1z"/><path fill="var(--hop-RichIcon-placeholder-shadow, #2A2620)" fill-rule="evenodd" d="M11.23 17.25v11.5h21.5v-11.5zM10.98 16a1 1 0 0 0-1 1v12a1 1 0 0 0 1 1h22a1 1 0 0 0 1-1V17a1 1 0 0 0-1-1z"/><path fill="var(--hop-RichIcon-placeholder-fill, #fff)" d="M15.98 9.5c0 .828-.448 1.5-1 1.5s-1-.672-1-1.5 1-1.5 1-1.5 1 .672 1 1.5"/><path fill="var(--hop-RichIcon-placeholder-shadow, #2A2620)" fill-rule="evenodd" d="M15.677 6.962 14.98 8l-.697-1.038.697-.468zM14.98 8s1 .672 1 1.5-.448 1.5-1 1.5-1-.672-1-1.5 1-1.5 1-1.5m1.747 3.254c-.33.495-.923.996-1.747.996s-1.417-.501-1.747-.996c-.336-.504-.503-1.127-.503-1.754 0-.896.519-1.569.83-1.907a4.5 4.5 0 0 1 .692-.61l.019-.012.007-.005.003-.002.002-.002L14.98 8l.697-1.038.002.002.003.002.007.005.018.012a3 3 0 0 1 .216.163c.127.104.3.255.476.447.312.338.831 1.011.831 1.907 0 .627-.167 1.25-.503 1.754"/><path fill="var(--hop-RichIcon-placeholder-fill, #fff)" d="M22.98 9.5c0 .828-.448 1.5-1 1.5s-1-.672-1-1.5 1-1.5 1-1.5 1 .672 1 1.5"/><path fill="var(--hop-RichIcon-placeholder-shadow, #2A2620)" fill-rule="evenodd" d="M22.677 6.962 21.98 8l-.697-1.038.697-.468zM21.98 8s1 .672 1 1.5-.448 1.5-1 1.5-1-.672-1-1.5 1-1.5 1-1.5m1.747 3.254c-.33.495-.923.996-1.747.996s-1.417-.501-1.747-.996c-.336-.504-.503-1.127-.503-1.754 0-.896.519-1.569.83-1.907a4.5 4.5 0 0 1 .693-.61l.018-.012.007-.005.003-.002.002-.002L21.98 8l.697-1.038.002.002.003.002.007.005.018.012a3 3 0 0 1 .216.163c.127.104.3.255.477.447.311.338.83 1.011.83 1.907 0 .627-.167 1.25-.503 1.754"/><path fill="var(--hop-RichIcon-placeholder-fill, #fff)" d="M29.98 9.5c0 .828-.448 1.5-1 1.5s-1-.672-1-1.5 1-1.5 1-1.5 1 .672 1 1.5"/><path fill="var(--hop-RichIcon-placeholder-shadow, #2A2620)" fill-rule="evenodd" d="M29.677 6.962 28.98 8l-.697-1.038.697-.468zM28.98 8s1 .672 1 1.5-.448 1.5-1 1.5-1-.672-1-1.5 1-1.5 1-1.5m1.747 3.254c-.33.495-.923.996-1.747.996s-1.417-.501-1.747-.996c-.336-.504-.503-1.127-.503-1.754 0-.896.519-1.569.83-1.907a4.5 4.5 0 0 1 .693-.61l.018-.012.007-.005.003-.002.002-.002L28.98 8l.697-1.038.002.002.003.002.007.005.018.012a3 3 0 0 1 .216.163c.127.104.3.255.477.447.311.338.83 1.011.83 1.907 0 .627-.167 1.25-.503 1.754M12.523 22.375c-.355 0-.873-.268-1.526-1.227l-1.034.704c.71 1.04 1.554 1.773 2.56 1.773s1.85-.732 2.56-1.773c.653-.96 1.17-1.227 1.526-1.227s.874.268 1.527 1.227c.709 1.04 1.553 1.773 2.56 1.773 1.006 0 1.85-.732 2.559-1.773.653-.96 1.17-1.227 1.526-1.227s.874.268 1.527 1.227c.709 1.04 1.553 1.773 2.56 1.773 1.006 0 1.85-.732 2.559-1.773.4-.588.761-.93 1.067-1.097.28-.152.52-.164.765-.07l.442-1.17c-.61-.231-1.229-.171-1.805.143-.55.3-1.046.82-1.502 1.49-.653.96-1.171 1.227-1.527 1.227s-.873-.268-1.526-1.227c-.71-1.04-1.553-1.773-2.56-1.773-1.006 0-1.85.732-2.56 1.773-.652.96-1.17 1.227-1.526 1.227-.355 0-.873-.268-1.526-1.227-.71-1.04-1.553-1.773-2.56-1.773-1.006 0-1.85.732-2.56 1.773-.653.96-1.17 1.227-1.526 1.227"/></svg>