<svg xmlns="http://www.w3.org/2000/svg" width="24" height="24" viewBox="0 0 24 24"><path fill="var(--hop-RichIcon-placeholder-background, #E5DED6)" d="M0 12C0 5.373 5.373 0 12 0s12 5.373 12 12-5.373 12-12 12S0 18.627 0 12"/><path fill="var(--hop-RichIcon-placeholder-shadow, #2A2620)" fill-rule="evenodd" d="M10.048 6.752q-.075.114-.179.22c.205.216.331.507.331.828v1.8h.6V9c0-.32.126-.612.33-.827a1.5 1.5 0 0 1-.178-.22A1.9 1.9 0 0 1 10.65 6.9c0-.88.905-1.623 1.34-2.32 0 0 .346-.01.356-.022q.048-.053.102-.098l.015-.015v.002a1.155 1.155 0 0 1 1.591.111c.187.204.496.607.496 1.142 0 .376-.1.75-.302 1.052q-.075.114-.179.22c.205.216.331.507.331.828v1.8h.6V9c0-.32.126-.612.33-.827a1.5 1.5 0 0 1-.178-.22A1.9 1.9 0 0 1 14.85 6.9c0-.827.832-1.611 1.286-2.246 0 0 .402-.087.41-.096q.046-.05.096-.093l.02-.02v.003a1.155 1.155 0 0 1 1.592.11c.187.204.496.607.496 1.142 0 .376-.1.75-.302 1.052q-.075.114-.179.22c.205.216.331.507.331.828v1.8h1.2a.6.6 0 0 1 .6.6v7.2a.6.6 0 0 1-.014.127.6.6 0 0 1-.195.329l-1.136 1.134a.6.6 0 0 1-.455.21H5.4a.6.6 0 0 1-.6-.6v-7.2a.6.6 0 0 1 .21-.456L6.144 9.81A.6.6 0 0 1 6.6 9.6V9c0-.32.126-.612.33-.827a1.6 1.6 0 0 1-.178-.22A1.9 1.9 0 0 1 6.45 6.9c0-.875.877-1.557 1.302-2.252 0 0 .44-.139.465-.16l.042-.043v.005a1.155 1.155 0 0 1 1.595.108c.187.204.496.607.496 1.142 0 .376-.1.75-.302 1.052m-.934-.168c-.088-.38-.314-.667-.462-.828a3 3 0 0 0-.23-.222c.046-.18.16-.343.276-.468a.406.406 0 0 1 .604 0c.15.162.298.387.298.634 0 .439-.21.804-.486.884m8.4 0c.277-.08.486-.445.486-.884 0-.247-.149-.472-.298-.634a.406.406 0 0 0-.604 0c-.115.125-.23.287-.276.468a3 3 0 0 1 .23.222c.148.16.374.448.462.828m-4.2 0c.277-.08.486-.445.486-.884 0-.247-.149-.472-.298-.634a.406.406 0 0 0-.604 0c-.115.125-.23.287-.276.468a3 3 0 0 1 .23.222c.148.16.374.448.462.828"/><path fill="var(--hop-RichIcon-placeholder-fill, #fff)" fill-rule="evenodd" d="M8.988 7.35a.45.45 0 0 1 .45.45v2.4a.45.45 0 0 1-.9 0V7.8a.45.45 0 0 1 .45-.45"/><path fill="var(--hop-RichIcon-placeholder-shadow, #2A2620)" fill-rule="evenodd" d="M8.988 6.35c.8 0 1.45.65 1.45 1.45v2.4a1.45 1.45 0 0 1-2.9 0V7.8c0-.8.65-1.45 1.45-1.45m.45 1.45a.45.45 0 1 0-.9 0v2.4a.45.45 0 0 0 .9 0z"/><path fill="var(--hop-RichIcon-placeholder-fill, #fff)" fill-rule="evenodd" d="M13.188 7.35a.45.45 0 0 1 .45.45v2.4a.45.45 0 0 1-.9 0V7.8a.45.45 0 0 1 .45-.45"/><path fill="var(--hop-RichIcon-placeholder-shadow, #2A2620)" fill-rule="evenodd" d="M13.188 6.35c.8 0 1.45.65 1.45 1.45v2.4a1.45 1.45 0 0 1-2.9 0V7.8c0-.8.65-1.45 1.45-1.45m.45 1.45a.45.45 0 0 0-.9 0v2.4a.45.45 0 0 0 .9 0z"/><path fill="var(--hop-RichIcon-placeholder-fill, #fff)" fill-rule="evenodd" d="M17.388 7.35a.45.45 0 0 1 .45.45v2.4a.45.45 0 0 1-.9 0V7.8a.45.45 0 0 1 .45-.45"/><path fill="var(--hop-RichIcon-placeholder-shadow, #2A2620)" fill-rule="evenodd" d="M17.388 6.35c.8 0 1.45.65 1.45 1.45v2.4a1.45 1.45 0 0 1-2.9 0V7.8c0-.8.65-1.45 1.45-1.45m.45 1.45a.45.45 0 0 0-.9 0v2.4a.45.45 0 0 0 .9 0z"/><path fill="var(--hop-RichIcon-placeholder-fill, #fff)" d="M5.988 10.6a1 1 0 0 1 1-1h12.4a1 1 0 0 1 1 1V17a1 1 0 0 1-1 1h-12.4a1 1 0 0 1-1-1z"/><path fill="var(--hop-RichIcon-placeholder-shadow, #2A2620)" fill-rule="evenodd" d="M19.388 10.6h-12.4V17h12.4zm-12.4-1a1 1 0 0 0-1 1V17a1 1 0 0 0 1 1h12.4a1 1 0 0 0 1-1v-6.4a1 1 0 0 0-1-1z"/><path fill="var(--hop-RichIcon-placeholder-fill, #fff)" d="M9.588 5.7c0 .497-.269.9-.6.9s-.6-.403-.6-.9.6-.9.6-.9.6.403.6.9"/><path fill="var(--hop-RichIcon-placeholder-shadow, #2A2620)" fill-rule="evenodd" d="m9.546 3.97-.558.83-.558-.83.558-.375zm-.558.83s.6.403.6.9-.269.9-.6.9-.6-.403-.6-.9.6-.9.6-.9m1.256 2.091c-.227.342-.652.709-1.256.709s-1.029-.367-1.256-.709A2.16 2.16 0 0 1 7.388 5.7c0-.634.365-1.097.564-1.314a3 3 0 0 1 .456-.4l.013-.01.005-.003.003-.002.001-.001.558.83.558-.83.001.001.003.002.005.003.013.01a2 2 0 0 1 .143.107c.083.068.196.167.313.293.2.217.564.68.564 1.314 0 .418-.111.842-.344 1.191"/><path fill="var(--hop-RichIcon-placeholder-fill, #fff)" d="M13.788 5.7c0 .497-.269.9-.6.9s-.6-.403-.6-.9.6-.9.6-.9.6.403.6.9"/><path fill="var(--hop-RichIcon-placeholder-shadow, #2A2620)" fill-rule="evenodd" d="m13.746 3.97-.558.83-.558-.83.558-.375zm-.558.83s.6.403.6.9-.269.9-.6.9-.6-.403-.6-.9.6-.9.6-.9m1.256 2.091c-.228.342-.652.709-1.256.709s-1.029-.367-1.256-.709a2.16 2.16 0 0 1-.344-1.191c0-.634.365-1.097.564-1.314a3 3 0 0 1 .456-.4l.013-.01.005-.003.003-.002.002-.001.557.83.557-.83h.002v.001l.003.002.005.003.013.01a2 2 0 0 1 .143.107c.083.068.196.167.313.293.2.217.564.68.564 1.314 0 .418-.111.842-.344 1.191"/><path fill="var(--hop-RichIcon-placeholder-fill, #fff)" d="M17.988 5.7c0 .497-.269.9-.6.9s-.6-.403-.6-.9.6-.9.6-.9.6.403.6.9"/><path fill="var(--hop-RichIcon-placeholder-shadow, #2A2620)" fill-rule="evenodd" d="m17.946 3.97-.558.83-.558-.83.558-.375zm-.558.83s.6.403.6.9-.269.9-.6.9-.6-.403-.6-.9.6-.9.6-.9m1.256 2.091c-.227.342-.652.709-1.256.709s-1.029-.367-1.256-.709a2.16 2.16 0 0 1-.344-1.191c0-.634.365-1.097.564-1.314a3 3 0 0 1 .456-.4l.013-.01.005-.003.002-.002.003-.001.557.83.557-.83h.002v.001l.003.002.005.003.013.01a2 2 0 0 1 .143.107c.083.068.196.167.313.293.2.217.564.68.564 1.314 0 .418-.111.842-.344 1.191M7.514 13.3c-.148 0-.426-.114-.813-.682l-.826.563c.43.633.97 1.119 1.639 1.119s1.208-.486 1.639-1.119c.386-.567.664-.681.812-.681s.427.114.813.681c.431.633.97 1.119 1.64 1.119.668 0 1.207-.486 1.638-1.119.387-.567.665-.681.813-.681s.426.114.812.681c.431.633.97 1.119 1.64 1.119.668 0 1.207-.486 1.638-1.119.235-.344.438-.531.597-.618.139-.075.244-.078.355-.036l.354-.935a1.39 1.39 0 0 0-1.187.093c-.355.193-.666.524-.945.933-.386.568-.664.682-.813.682s-.426-.114-.812-.682c-.431-.632-.97-1.118-1.64-1.118-.668 0-1.207.486-1.638 1.118-.387.568-.665.682-.813.682s-.426-.114-.812-.682c-.431-.632-.97-1.118-1.64-1.118s-1.208.486-1.639 1.118c-.386.568-.664.682-.812.682"/></svg>