<svg xmlns="http://www.w3.org/2000/svg" width="24" height="24" viewBox="0 0 24 24"><path fill="var(--hop-RichIcon-placeholder-background, #E5DED6)" d="M0 12C0 5.373 5.373 0 12 0s12 5.373 12 12-5.373 12-12 12S0 18.627 0 12"/><path fill="var(--hop-RichIcon-placeholder-shadow, #2A2620)" d="M4.312 17.32c0 .654.53 1.183 1.183 1.183h2.55a1 1 0 0 0 .698-.284L19.385 7.858a1 1 0 0 0 .303-.716v-.465c0-.653-.53-1.183-1.183-1.183H6.576c-.313 0-.614.125-.836.347L4.659 6.92a1.18 1.18 0 0 0-.347.837z"/><path fill="var(--hop-RichIcon-placeholder-fill, #fff)" d="M8.085 8.893a.81.81 0 1 1 1.62 0 .81.81 0 0 1-1.62 0"/><path fill="var(--hop-RichIcon-placeholder-fill, #fff)" fill-rule="evenodd" d="M6.086 7.085a1 1 0 0 1 1-1h11.01a1 1 0 0 1 1 1v.161a.05.05 0 0 1-.015.036l-3.584 3.475-.698-1.021a.6.6 0 0 0-.88-.123l-3.122 2.603-1.287-.859a.6.6 0 0 0-.885.263l-1.273 2.972a.9.9 0 0 0 .827 1.254h2.07l-.896.869a.05.05 0 0 1-.034.014H7.086a1 1 0 0 1-1-1zm2.81.549a1.26 1.26 0 1 0 0 2.52 1.26 1.26 0 0 0 0-2.52"/><path fill="var(--hop-RichIcon-placeholder-fill, #fff)" d="m14.304 10.074.756 1.107-4.192 4.065H8.179a.3.3 0 0 1-.276-.418l1.274-2.972 1.287.859a.6.6 0 0 0 .717-.038z"/><path fill="var(--hop-RichIcon-placeholder-shadow, #2A2620)" d="M11.856 17.485a.5.5 0 0 0 .353.853h5.699c.22 0 .431-.09.587-.248l.757-.777a.86.86 0 0 0 .243-.6v-5.66a.5.5 0 0 0-.854-.354z"/><path fill="var(--hop-RichIcon-placeholder-fill, #fff)" d="M18.995 11.215a.05.05 0 0 0-.085-.035l-1.907 1.906.876 1.752a.9.9 0 0 1-.805 1.303h-3.125l-.614.613a.05.05 0 0 0 .036.086h4.624a1 1 0 0 0 1-1z"/><path fill="var(--hop-RichIcon-placeholder-fill, #fff)" d="M14.55 15.54h2.524a.3.3 0 0 0 .268-.434l-.778-1.58z"/></svg>