<svg xmlns="http://www.w3.org/2000/svg" width="40" height="40" viewBox="0 0 40 40"><path fill="var(--hop-RichIcon-placeholder-background, #E5DED6)" d="M0 20C0 8.954 8.954 0 20 0s20 8.954 20 20-8.954 20-20 20S0 31.046 0 20"/><path fill="var(--hop-RichIcon-placeholder-shadow, #2A2620)" d="M7.187 28.864c0 1.088.883 1.971 1.971 1.971h4.522a1 1 0 0 0 .698-.284L32.51 12.897a1 1 0 0 0 .303-.716v-1.057a1.97 1.97 0 0 0-1.972-1.971h-19.88c-.523 0-1.025.208-1.394.577l-1.802 1.802c-.37.37-.578.871-.578 1.394z"/><path fill="var(--hop-RichIcon-placeholder-fill, #fff)" d="M13.476 14.82a1.35 1.35 0 1 1 2.7 0 1.35 1.35 0 0 1-2.7 0"/><path fill="var(--hop-RichIcon-placeholder-fill, #fff)" fill-rule="evenodd" d="M10.144 11.138a1 1 0 0 1 1-1h19.683a1 1 0 0 1 1 1v.95a.05.05 0 0 1-.015.036l-5.983 5.801-1.163-1.702a1 1 0 0 0-1.466-.204l-5.204 4.337-2.146-1.43a1 1 0 0 0-1.474.438l-2.123 4.952a1.5 1.5 0 0 0 1.379 2.091h3.45l-1.503 1.457a.05.05 0 0 1-.034.014h-4.401a1 1 0 0 1-1-1zm4.682 1.581a2.1 2.1 0 1 0 0 4.2 2.1 2.1 0 0 0 0-4.2"/><path fill="var(--hop-RichIcon-placeholder-fill, #fff)" d="m23.84 16.787 1.26 1.845-5.628 5.457-1.375 1.318h-4.465a.5.5 0 0 1-.46-.697l2.123-4.953 2.146 1.431a1 1 0 0 0 1.195-.064z"/><path fill="var(--hop-RichIcon-placeholder-shadow, #2A2620)" d="M19.19 30.167a.5.5 0 0 0 .354.854h10.304c.366 0 .718-.15.977-.415l1.262-1.294a1.43 1.43 0 0 0 .404-1V18.074a.5.5 0 0 0-.853-.354z"/><path fill="var(--hop-RichIcon-placeholder-fill, #fff)" d="M31.659 19.069a.05.05 0 0 0-.086-.036l-3.288 3.29 1.432 2.864a1.5 1.5 0 0 1-1.341 2.17h-5.127l-1.08 1.08a.05.05 0 0 0 .035.086h8.455a1 1 0 0 0 1-1z"/><path fill="var(--hop-RichIcon-placeholder-fill, #fff)" d="M28.376 26.358h-4.04l3.231-3.235 1.256 2.511a.5.5 0 0 1-.448.724"/></svg>