<svg xmlns="http://www.w3.org/2000/svg" width="32" height="32" viewBox="0 0 32 32"><path fill="var(--hop-RichIcon-placeholder-background, #E5DED6)" d="M0 16C0 7.163 7.163 0 16 0s16 7.163 16 16-7.163 16-16 16S0 24.837 0 16"/><path fill="var(--hop-RichIcon-placeholder-shadow, #2A2620)" d="M6 22.77c0 .87.706 1.576 1.577 1.576h3.536a1 1 0 0 0 .697-.283l14.388-14.009a1 1 0 0 0 .302-.716v-.761C26.5 7.706 25.794 7 24.923 7H9.02c-.419 0-.82.166-1.115.462L6.462 8.904A1.58 1.58 0 0 0 6 10.019z"/><path fill="var(--hop-RichIcon-placeholder-fill, #fff)" d="M11.03 11.534a1.08 1.08 0 1 1 2.16 0 1.08 1.08 0 0 1-2.16 0"/><path fill="var(--hop-RichIcon-placeholder-fill, #fff)" fill-rule="evenodd" d="M8.365 8.789a1 1 0 0 1 1-1h15.347a1 1 0 0 1 1 1v.555a.05.05 0 0 1-.015.036l-4.784 4.639-.93-1.362a.8.8 0 0 0-1.173-.163l-4.163 3.47-1.717-1.145a.8.8 0 0 0-1.18.35l-1.697 3.962a1.2 1.2 0 0 0 1.103 1.673h2.76l-1.2 1.163a.05.05 0 0 1-.034.014H9.365a1 1 0 0 1-1-1zm3.746 1.065a1.68 1.68 0 1 0 0 3.36 1.68 1.68 0 0 0 0-3.36"/><path fill="var(--hop-RichIcon-placeholder-fill, #fff)" d="m19.322 13.108 1.009 1.476-5.59 5.42h-3.585a.4.4 0 0 1-.368-.557l1.698-3.963 1.717 1.145a.8.8 0 0 0 .956-.051z"/><path fill="var(--hop-RichIcon-placeholder-shadow, #2A2620)" d="M15.773 23.337a.5.5 0 0 0 .354.853h8.002c.293 0 .574-.12.78-.332l1.01-1.035c.208-.212.324-.5.324-.8v-7.95a.5.5 0 0 0-.853-.353z"/><path fill="var(--hop-RichIcon-placeholder-fill, #fff)" fill-rule="evenodd" d="M25.577 14.653a.05.05 0 0 0-.085-.036l-2.604 2.604 1.169 2.338a1.2 1.2 0 0 1-1.074 1.736h-4.17l-.81.811a.05.05 0 0 0 .035.086h6.54a1 1 0 0 0 1-1zm-2.594 5.842h-3.23l2.584-2.588 1.004 2.01a.4.4 0 0 1-.358.578"/></svg>