<svg xmlns="http://www.w3.org/2000/svg" width="32" height="32" viewBox="0 0 32 32"><path fill="var(--hop-Richicon-placeholder-shadow, #E5DED6)" d="M0 16C0 7.163 7.163 0 16 0s16 7.163 16 16-7.163 16-16 16S0 24.837 0 16"/><path fill="var(--hop-Richicon-placeholder-background, #2A2620)" d="M27.088 23a3.2 3.2 0 0 0 .551-3.786L20.07 5.226c-.633-1.121-1.81-1.626-3.267-1.555-1.571.076-2.816 1.238-3.677 2.554l-8.112 14.84c-1.01 1.866.34 4.135 2.462 4.135h16.087a3.2 3.2 0 0 0 2.263-.937z"/><path fill="var(--hop-Richicon-placeholder-fill, #fff)" d="M25.747 22.342a1.602 1.602 0 0 0 .974-2.304l-7.708-14.24a1.58 1.58 0 0 0-1.41-.839 1.58 1.58 0 0 0-1.404.838L8.48 20.037a1.602 1.602 0 0 0 1.185 2.348q.108.015.222.015h15.427q.229 0 .433-.058"/><path fill="var(--hop-Richicon-placeholder-background, #2A2620)" fill-rule="evenodd" d="M18.1 9.1v6.6h-1V9.1z"/><path fill="var(--hop-Richicon-placeholder-background, #2A2620)" d="M19.2 18.8a1.6 1.6 0 1 1-3.2 0 1.6 1.6 0 0 1 3.2 0"/></svg>