<svg xmlns="http://www.w3.org/2000/svg" width="24" height="24" viewBox="0 0 24 24"><path fill="#E5DED6" d="M0 12C0 5.373 5.373 0 12 0s12 5.373 12 12-5.373 12-12 12S0 18.627 0 12"/><path fill="#2A2620" d="m20.578 14.333-5.782-10.68c-.482-.89-1.417-1.204-2.294-1.124-1.444.131-2.355.933-3.001 1.92L3.417 15.58c-.758 1.4.255 3.101 1.846 3.101h12.065c.954 0 1.547-.516 2.407-1.274.922-.813 1.454-1.943.843-3.073"/><path fill="#fff" d="M11.806 4.128a1.2 1.2 0 0 1 2.11 0l5.782 10.681a1.2 1.2 0 0 1-1.055 1.772H7.072a1.2 1.2 0 0 1-1.055-1.772z"/><path fill="#2A2620" fill-rule="evenodd" d="M13.357 6.48v5.2h-1v-5.2z"/><path fill="#2A2620" d="M14.057 13.88a1.2 1.2 0 1 1-2.4 0 1.2 1.2 0 0 1 2.4 0"/></svg>