<svg xmlns="http://www.w3.org/2000/svg" width="40" height="40" viewBox="0 0 40 40"><path fill="var(--hop-Richicon-placeholder-shadow, #E5DED6)" d="M0 20C0 8.954 8.954 0 20 0s20 8.954 20 20-8.954 20-20 20S0 31.046 0 20"/><path fill="var(--hop-Richicon-placeholder-background, #2A2620)" d="M33.86 28.75a4 4 0 0 0 .689-4.733L25.085 6.533c-.79-1.402-2.262-2.033-4.083-1.945-1.963.096-3.52 1.548-4.596 3.193L6.266 26.332c-1.263 2.332.425 5.168 3.078 5.168h20.109a4 4 0 0 0 2.828-1.172z"/><path fill="var(--hop-Richicon-placeholder-fill, #fff)" d="M32.183 27.928c1.19-.328 1.85-1.714 1.219-2.88l-9.636-17.8a1.98 1.98 0 0 0-1.762-1.049 1.98 1.98 0 0 0-1.755 1.047L10.6 25.047c-.615 1.135-.007 2.478 1.123 2.852a2 2 0 0 0 .635.101h19.284q.285 0 .54-.072"/><path fill="var(--hop-Richicon-placeholder-background, #2A2620)" fill-rule="evenodd" d="M22.625 11.375v8.25h-1.25v-8.25z"/><path fill="var(--hop-Richicon-placeholder-background, #2A2620)" d="M24 23.5a2 2 0 1 1-4 0 2 2 0 0 1 4 0"/></svg>