<svg xmlns="http://www.w3.org/2000/svg" width="40" height="40" viewBox="0 0 40 40"><path fill="#E5DED6" d="M0 20C0 8.954 8.954 0 20 0s20 8.954 20 20-8.954 20-20 20S0 31.046 0 20"/><path fill="#fff" d="M23.343 9.185c0 .69.56 1.25 1.25 1.25h4.222a.75.75 0 0 1 .75.75v4.222c0 .69.56 1.25 1.25 1.25H32a2.75 2.75 0 0 1 2.75 2.75v.297a2.75 2.75 0 0 1-2.75 2.75h-1.185c-.69 0-1.25.56-1.25 1.25v4.222a.75.75 0 0 1-.75.75h-16.74a.75.75 0 0 1-.75-.75v-16.74a.75.75 0 0 1 .75-.75h4.221c.69 0 1.25-.56 1.25-1.25V8a2.75 2.75 0 0 1 2.75-2.75h.297A2.75 2.75 0 0 1 23.343 8z"/><path fill="#2A2620" fill-rule="evenodd" d="M16.49 5.977C17.548 4.993 18.763 4 20.445 4a4.15 4.15 0 0 1 4.149 4.148v1.037h4.148c1.145 0 2.074.929 2.074 2.074v4.148h1.037A4.15 4.15 0 0 1 36 19.556c0 1.682-.997 2.94-1.977 3.92-.973.974-1.998 1.838-3.208 2.164v2.42a2 2 0 0 1-.586 1.415l-1.94 1.94a2 2 0 0 1-1.414.585h-16.8A2.074 2.074 0 0 1 8 29.926V13.125a2 2 0 0 1 .586-1.415l1.94-1.939a2 2 0 0 1 1.414-.586h2.414c.315-1.233 1.16-2.298 2.137-3.208m8.103 4.458c-.69 0-1.25-.56-1.25-1.25V8a2.75 2.75 0 0 0-2.75-2.75h-.297A2.75 2.75 0 0 0 17.546 8v1.185c0 .69-.56 1.25-1.25 1.25h-4.222a.75.75 0 0 0-.75.75v16.74c0 .415.336.75.75.75h16.74a.75.75 0 0 0 .75-.75v-4.221c0-.69.56-1.25 1.25-1.25H32a2.75 2.75 0 0 0 2.75-2.75v-.297a2.75 2.75 0 0 0-2.75-2.75h-1.185c-.69 0-1.25-.56-1.25-1.25v-4.222a.75.75 0 0 0-.75-.75z"/><path fill="#2A2620" fill-rule="evenodd" d="M23.343 9.185c0 .69.56 1.25 1.25 1.25h4.222a.75.75 0 0 1 .75.75v4.222c0 .69.56 1.25 1.25 1.25H32a2.75 2.75 0 0 1 2.75 2.75v.297a2.75 2.75 0 0 1-2.75 2.75h-1.185c-.69 0-1.25.56-1.25 1.25v4.222q0 .068-.012.135a.75.75 0 0 1-.738.615h-16.74a.75.75 0 0 1-.75-.75v-16.74q0-.051.005-.099a.75.75 0 0 1 .744-.652h4.222c.69 0 1.25-.56 1.25-1.25V8a2.75 2.75 0 0 1 2.75-2.75h.297A2.75 2.75 0 0 1 23.343 8zM16.63 5.847c.993-.91 2.132-1.79 3.665-1.844a4 4 0 0 1 .297 0 4.15 4.15 0 0 1 4 4.145v1.037h4.148l.074.001a2.074 2.074 0 0 1 2 2.073v4.148h1.037q.075 0 .148.003a4.15 4.15 0 0 1 3.997 4.294c-.054 1.565-.971 2.756-1.897 3.696l-.077.077c-.906.905-1.856 1.716-2.958 2.087a4 4 0 0 1-.25.076v2.42a2 2 0 0 1-.586 1.415l-1.94 1.94a2 2 0 0 1-1.414.585h-16.8A2.074 2.074 0 0 1 8 29.926V13.125a2 2 0 0 1 .586-1.415l1.94-1.939a2 2 0 0 1 1.414-.586h2.414q.032-.126.072-.25c.359-1.127 1.154-2.11 2.065-2.958z"/><path fill="#2A2620" d="M21.588 18.412v-4.148h-1.25v4.148H16.19v1.25h4.148v4.148h1.25v-4.148h4.148v-1.25z"/></svg>