<svg xmlns="http://www.w3.org/2000/svg" width="32" height="32" viewBox="0 0 32 32"><path fill="var(--hop-RichIcon-placeholder-background, #E5DED6)" d="M0 16C0 7.163 7.163 0 16 0s16 7.163 16 16-7.163 16-16 16S0 24.837 0 16"/><path fill="var(--hop-RichIcon-placeholder-shadow, #2A2620)" fill-rule="evenodd" d="M13.193 4.781c.845-.787 1.817-1.581 3.162-1.581a3.32 3.32 0 0 1 3.32 3.319v.83h3.318c.916 0 1.659.742 1.659 1.658v3.319h.83a3.32 3.32 0 0 1 3.318 3.319c0 1.345-.797 2.352-1.582 3.137-.778.778-1.598 1.469-2.566 1.73v1.936a1.6 1.6 0 0 1-.469 1.132l-1.551 1.551a1.6 1.6 0 0 1-1.132.469H8.06a1.66 1.66 0 0 1-1.66-1.66V10.5a1.6 1.6 0 0 1 .469-1.132L8.42 7.817a1.6 1.6 0 0 1 1.132-.469h1.931c.252-.986.928-1.838 1.71-2.567m6.481 3.567a1 1 0 0 1-1-1V6.4a2.2 2.2 0 0 0-2.2-2.2h-.237a2.2 2.2 0 0 0-2.2 2.2v.948a1 1 0 0 1-1 1H9.66a.6.6 0 0 0-.6.6v13.393a.6.6 0 0 0 .6.6h13.393a.6.6 0 0 0 .6-.6v-3.378a1 1 0 0 1 1-1h.948a2.2 2.2 0 0 0 2.2-2.2v-.237a2.2 2.2 0 0 0-2.2-2.2h-.948a1 1 0 0 1-1-1V8.948a.6.6 0 0 0-.6-.6z"/><path fill="var(--hop-RichIcon-placeholder-shadow, #2A2620)" fill-rule="evenodd" d="M18.674 7.348a1 1 0 0 0 1 1h3.378a.6.6 0 0 1 .6.6v3.378a1 1 0 0 0 1 1h.948a2.2 2.2 0 0 1 2.2 2.2v.237a2.2 2.2 0 0 1-2.2 2.2h-.948a1 1 0 0 0-1 1v3.378a.6.6 0 0 1-.233.474.6.6 0 0 1-.367.126H9.659a.6.6 0 0 1-.6-.6V8.948a.6.6 0 0 1 .126-.367.6.6 0 0 1 .474-.233h3.378a1 1 0 0 0 1-1V6.4a2.2 2.2 0 0 1 2.2-2.2h.237a2.2 2.2 0 0 1 2.2 2.2z"/><path fill="var(--hop-RichIcon-placeholder-fill, #fff)" d="M18.674 7.348a1 1 0 0 0 1 1h3.378a.6.6 0 0 1 .6.6v3.378a1 1 0 0 0 1 1h.948a2.2 2.2 0 0 1 2.2 2.2v.237a2.2 2.2 0 0 1-2.2 2.2h-.948a1 1 0 0 0-1 1v3.378a.6.6 0 0 1-.6.6H9.659a.6.6 0 0 1-.6-.6V8.948a.6.6 0 0 1 .6-.6h3.378a1 1 0 0 0 1-1V6.4a2.2 2.2 0 0 1 2.2-2.2h.237a2.2 2.2 0 0 1 2.2 2.2z"/><path fill="var(--hop-RichIcon-placeholder-shadow, #2A2620)" d="M17.27 14.73v-3.32h-1v3.319h-3.318v1h3.318v3.318h1V15.73h3.319v-1z"/></svg>