<svg xmlns="http://www.w3.org/2000/svg" width="24" height="24" viewBox="0 0 24 24"><path fill="var(--hop-RichIcon-placeholder-background, #E5DED6)" d="M0 12C0 5.373 5.373 0 12 0s12 5.373 12 12-5.373 12-12 12S0 18.627 0 12"/><path fill="var(--hop-RichIcon-placeholder-shadow, #2A2620)" d="M9.895 3.586c.633-.59 1.362-1.186 2.372-1.186a2.49 2.49 0 0 1 2.489 2.489v.622h2.488c.688 0 1.245.557 1.245 1.245v2.488h.622a2.49 2.49 0 0 1 2.49 2.49c0 1.009-.599 1.764-1.187 2.352-.584.584-1.2 1.102-1.925 1.298v1.452a1.2 1.2 0 0 1-.352.849l-1.163 1.164a1.2 1.2 0 0 1-.849.351H6.045A1.244 1.244 0 0 1 4.8 17.956V7.875a1.2 1.2 0 0 1 .351-.849l1.164-1.163a1.2 1.2 0 0 1 .849-.352h1.448c.19-.74.696-1.379 1.283-1.925"/><path fill="var(--hop-RichIcon-placeholder-fill, #fff)" d="M9.778 6.511a1 1 0 0 0 1-1V4.8a1.4 1.4 0 0 1 1.4-1.4h.177a1.4 1.4 0 0 1 1.4 1.4v.711a1 1 0 0 0 1 1h2.534c.11 0 .2.09.2.2v2.533a1 1 0 0 0 1 1h.71a1.4 1.4 0 0 1 1.4 1.4v.178a1.4 1.4 0 0 1-1.4 1.4h-.71a1 1 0 0 0-1 1v2.534a.2.2 0 0 1-.2.2H7.244a.2.2 0 0 1-.2-.2V6.71c0-.11.09-.2.2-.2z"/><path fill="var(--hop-RichIcon-placeholder-shadow, #2A2620)" d="M13.078 10.922V8.433h-1v2.49h-2.49v1h2.49v2.488h1v-2.489h2.489v-1z"/></svg>