<svg xmlns="http://www.w3.org/2000/svg" width="32" height="32" viewBox="0 0 32 32"><path fill="#E5DED6" d="M0 16C0 7.163 7.163 0 16 0s16 7.163 16 16-7.163 16-16 16S0 24.837 0 16"/><path fill="#fff" d="M18.674 7.348a1 1 0 0 0 1 1h3.378a.6.6 0 0 1 .6.6v3.378a1 1 0 0 0 1 1h.948a2.2 2.2 0 0 1 2.2 2.2v.237a2.2 2.2 0 0 1-2.2 2.2h-.948a1 1 0 0 0-1 1v3.378a.6.6 0 0 1-.6.6H9.659a.6.6 0 0 1-.6-.6V8.948a.6.6 0 0 1 .6-.6h3.378a1 1 0 0 0 1-1V6.4a2.2 2.2 0 0 1 2.2-2.2h.237a2.2 2.2 0 0 1 2.2 2.2z"/><path fill="#2A2620" stroke="#2A2620" stroke-width="1.2" d="M13.78 5.057a2.8 2.8 0 0 0-.343 1.343v.948a.4.4 0 0 1-.4.4H12l.065-.251c.21-.823.788-1.58 1.537-2.276q.088-.084.178-.164ZM25.6 18.563c.474 0 .921-.118 1.313-.326l-.119.12c-.77.771-1.495 1.359-2.298 1.575l-.244.066v-1.035a.4.4 0 0 1 .4-.4zm-2.548 4.978q.202 0 .385-.063l-1.23 1.23A1 1 0 0 1 21.5 25H8.06A1.06 1.06 0 0 1 7 23.94V10.5a1 1 0 0 1 .293-.707l-.417-.418.417.418 1.23-1.23q-.064.182-.064.385v13.393a1.2 1.2 0 0 0 1.2 1.2z"/><path fill="#2A2620" d="M17.27 14.73v-3.32h-1v3.319h-3.318v1h3.318v3.318h1V15.73h3.319v-1z"/></svg>