<svg xmlns="http://www.w3.org/2000/svg" width="40" height="40" viewBox="0 0 40 40"><path fill="#E5DED6" d="M0 20C0 8.954 8.954 0 20 0s20 8.954 20 20-8.954 20-20 20S0 31.046 0 20"/><path fill="#fff" d="M23.343 9.185c0 .69.56 1.25 1.25 1.25h4.222a.75.75 0 0 1 .75.75v4.222c0 .69.56 1.25 1.25 1.25H32a2.75 2.75 0 0 1 2.75 2.75v.297a2.75 2.75 0 0 1-2.75 2.75h-1.185c-.69 0-1.25.56-1.25 1.25v4.222a.75.75 0 0 1-.75.75h-16.74a.75.75 0 0 1-.75-.75v-16.74a.75.75 0 0 1 .75-.75h4.221c.69 0 1.25-.56 1.25-1.25V8a2.75 2.75 0 0 1 2.75-2.75h.297A2.75 2.75 0 0 1 23.343 8z"/><path fill="#2A2620" stroke="#2A2620" stroke-width="1.5" d="M17.225 6.32A3.5 3.5 0 0 0 16.796 8v1.185a.5.5 0 0 1-.5.5H15l.08-.314c.264-1.029.987-1.974 1.922-2.845q.111-.105.223-.205ZM32 23.205c.593 0 1.152-.148 1.641-.408l-.148.15c-.964.964-1.869 1.699-2.873 1.97l-.305.082v-1.294a.5.5 0 0 1 .5-.5zm-3.185 6.222q.253-.001.48-.079l-1.536 1.537a1.25 1.25 0 0 1-.884.366h-16.8a1.324 1.324 0 0 1-1.325-1.324V13.125c0-.332.132-.65.366-.884l-.53-.53.53.53 1.537-1.537a1.5 1.5 0 0 0-.079.481v16.74a1.5 1.5 0 0 0 1.5 1.5z"/><path fill="#2A2620" d="M21.588 18.412v-4.148h-1.25v4.148H16.19v1.25h4.148v4.148h1.25v-4.148h4.148v-1.25z"/></svg>