<svg xmlns="http://www.w3.org/2000/svg" width="24" height="24" viewBox="0 0 24 24"><path fill="var(--hop-richicon-placeholder-foreground, #E5DED6)" d="M0 12C0 5.373 5.373 0 12 0s12 5.373 12 12-5.373 12-12 12S0 18.627 0 12"/><path fill="var(--hop-richicon-placeholder-background, #2A2620)" d="M3.628 6.544c-.586.622-1.12 1.074-1.12 1.887a1.8 1.8 0 0 0 1.36 1.746v6.944a.6.6 0 0 0 .6.6h13.864c.332 0 .725-.328 1.107-.71s.693-.614.693-1.09v-2.615q.049-.107.084-.22a1.8 1.8 0 1 0-1.635-3.14l-1.044-.797a1.8 1.8 0 0 0-1.619-2.588c-.812 0-1.375.557-1.949 1.108-.506.486-.937.941-1.034 1.642l-1.02.383a1.8 1.8 0 0 0-2.976-.412l-1.765-1.37A1.8 1.8 0 0 0 5.508 5.43c-.813 0-1.293.491-1.88 1.114"/><path fill="var(--hop-richicon-placeholder-background, #2A2620)" fill-rule="evenodd" d="M5.507 8.03a.8.8 0 1 1 0-1.6.8.8 0 0 1 0 1.6m0 1a1.8 1.8 0 1 1 0-3.6 1.8 1.8 0 0 1 0 3.6"/><path fill="#fff" d="M5.507 8.03a.8.8 0 1 1 0-1.6.8.8 0 0 1 0 1.6m4.366 3.124a.8.8 0 1 1 .698.067 1.6 1.6 0 0 0 .362-.09l5.062-1.9 2.902 2.216a.8.8 0 1 1 .235.486v3.588H6.068v-7.2l3.322 2.576q.222.171.483.257m5.244-2.793a.8.8 0 1 0 1.6 0 .8.8 0 0 0-1.6 0"/><path fill="var(--hop-richicon-placeholder-background, #2A2620)" fill-rule="evenodd" d="M5.507 8.03a.8.8 0 1 1 0-1.6.8.8 0 0 1 0 1.6m0 1a1.8 1.8 0 1 1 0-3.6 1.8 1.8 0 0 1 0 3.6m4.783 2.241a.8.8 0 1 1 0-1.6.8.8 0 0 1 0 1.6m0 1a1.8 1.8 0 1 1 0-3.6 1.8 1.8 0 0 1 0 3.6m5.627-3.11a.8.8 0 1 1 0-1.6.8.8 0 0 1 0 1.6m0 1a1.8 1.8 0 1 1 0-3.6 1.8 1.8 0 0 1 0 3.6m3.776 2.001a.8.8 0 1 1 0-1.6.8.8 0 0 1 0 1.6m0 1a1.8 1.8 0 1 1 0-3.6 1.8 1.8 0 0 1 0 3.6"/></svg>