<svg xmlns="http://www.w3.org/2000/svg" width="40" height="40" viewBox="0 0 40 40"><path fill="#E5DED6" d="M0 20C0 8.954 8.954 0 20 0s20 8.954 20 20-8.954 20-20 20S0 31.046 0 20"/><path fill="#2A2620" stroke="#2A2620" stroke-width="1.25" d="M7.055 16.961v-.487l-.473-.12a2.376 2.376 0 0 1-1.794-2.303c0-.936.513-1.473 1.377-2.378l.321-.338C7.49 10.27 8.115 9.676 9.163 9.676a2.375 2.375 0 0 1 2.199 3.274l-.18.44.375.291 2.943 2.283.464.36.388-.44a2.375 2.375 0 0 1 3.926.544l.247.516.537-.202 1.7-.638.348-.131.051-.368c.13-.933.69-1.56 1.537-2.373 1.004-.963 1.758-1.672 2.816-1.672a2.375 2.375 0 0 1 2.136 3.415l-.225.46.407.31 1.74 1.33.385.294.381-.3a2.375 2.375 0 1 1 2.157 4.141l-.32.097-.096.32q-.046.15-.11.292l-.056.123v4.493c0 .235-.068.4-.212.589a5 5 0 0 1-.483.514q-.124.12-.277.272c-.31.31-.602.574-.868.758-.28.194-.451.242-.535.242H7.43a.375.375 0 0 1-.375-.375z"/><path fill="#fff" d="M7.413 12.051a1.75 1.75 0 1 0 3.5 0 1.75 1.75 0 0 0-3.5 0m2.267 2.956v11.278h22.608v-4.393a3 3 0 0 1-2.138-4.353l-1.708-1.306a3 3 0 0 1-1.928.702 2.99 2.99 0 0 1-2.307-1.082l-4.073 1.53v.069a3 3 0 1 1-5.869-.879l-3.031-2.351a3 3 0 0 1-1.554.785m15.826.359c.284.2.632.319 1.008.319a1.749 1.749 0 1 0 0-3.5 1.75 1.75 0 0 0-1.008 3.18"/><path fill="#fff" d="M15.385 17.452a1.75 1.75 0 0 0 3.45.419l.005-.024q.045-.192.045-.395a1.75 1.75 0 0 0-3.5-.01zm16.941 3.168q.229.066.48.067a1.75 1.75 0 1 0-.48-.066"/></svg>