<svg xmlns="http://www.w3.org/2000/svg" width="32" height="32" viewBox="0 0 32 32"><path fill="#E5DED6" d="M0 16C0 7.163 7.163 0 16 0s16 7.163 16 16-7.163 16-16 16S0 24.837 0 16"/><path fill="#2A2620" stroke="#2A2620" d="M5.644 13.569v-.39l-.378-.095A1.9 1.9 0 0 1 3.83 11.24c0-.749.41-1.178 1.102-1.903l.257-.27c.802-.85 1.303-1.327 2.141-1.327a1.9 1.9 0 0 1 1.76 2.62l-.145.351.3.233L11.6 12.77l.37.288.311-.352a1.9 1.9 0 0 1 3.141.435l.198.413.43-.161 1.36-.511.278-.105.041-.294c.104-.746.552-1.248 1.23-1.898.802-.77 1.406-1.338 2.252-1.338a1.9 1.9 0 0 1 1.709 2.732l-.18.368.326.248 1.392 1.064.308.235.305-.24a1.9 1.9 0 1 1 1.726 3.313l-.257.078-.077.256q-.037.12-.088.233l-.045.098v3.595c0 .188-.054.32-.169.471-.1.132-.221.25-.387.411q-.1.095-.221.218a5.4 5.4 0 0 1-.695.607c-.223.154-.36.193-.428.193H5.944a.3.3 0 0 1-.3-.3z"/><path fill="#fff" d="M5.93 9.64a1.4 1.4 0 1 0 2.8 0 1.4 1.4 0 0 0-2.8 0m1.814 2.365v9.023H25.83v-3.514a2.4 2.4 0 0 1-1.71-3.483l-1.367-1.044a2.4 2.4 0 0 1-1.542.561 2.4 2.4 0 0 1-1.845-.865l-3.259 1.223v.056a2.4 2.4 0 1 1-4.695-.703l-2.425-1.882a2.4 2.4 0 0 1-1.243.628m12.66.288a1.39 1.39 0 0 0 1.52.06 1.4 1.4 0 1 0-1.52-.06"/><path fill="#fff" d="M12.308 13.962a1.4 1.4 0 0 0 2.76.335l.004-.02q.035-.152.036-.315a1.4 1.4 0 0 0-2.8-.009zm13.552 2.535a1.4 1.4 0 1 0 .765-2.696 1.4 1.4 0 0 0-.764 2.696"/></svg>