<svg xmlns="http://www.w3.org/2000/svg" width="32" height="32" viewBox="0 0 32 32"><path fill="var(--hop-richicon-placeholder-foreground, #E5DED6)" d="M0 16C0 7.163 7.163 0 16 0s16 7.163 16 16-7.163 16-16 16S0 24.837 0 16"/><path fill="var(--hop-richicon-placeholder-background, #2A2620)" d="m4.564 8.998.261-.273c.782-.83 1.422-1.484 2.505-1.484a2.4 2.4 0 0 1 2.222 3.309l2.354 1.826a2.4 2.4 0 0 1 3.967.55l1.36-.511c.13-.934.704-1.542 1.38-2.19l.047-.045c.748-.72 1.49-1.432 2.55-1.432a2.4 2.4 0 0 1 2.16 3.45l1.391 1.064a2.4 2.4 0 1 1 2.18 4.184q-.046.152-.11.296v3.486c0 .553-.315.859-.733 1.265l-.041.04q-.075.072-.15.148c-.51.51-1.035.947-1.477.947H5.944a.8.8 0 0 1-.8-.8v-9.26a2.4 2.4 0 0 1-1.814-2.327c0-.961.561-1.544 1.234-2.243"/><path fill="#fff" d="M5.93 9.64a1.4 1.4 0 1 0 2.8 0 1.4 1.4 0 0 0-2.8 0m1.814 2.365v9.023H25.83v-3.514a2.4 2.4 0 0 1-1.71-3.483l-1.367-1.044a2.4 2.4 0 0 1-1.542.561 2.4 2.4 0 0 1-1.845-.865l-3.259 1.223v.056a2.4 2.4 0 1 1-4.695-.703l-2.425-1.882a2.4 2.4 0 0 1-1.243.628m12.66.288a1.39 1.39 0 0 0 1.52.06 1.4 1.4 0 1 0-1.52-.06"/><path fill="#fff" d="M12.308 13.962a1.4 1.4 0 0 0 2.76.335l.004-.02q.035-.152.036-.315a1.4 1.4 0 0 0-2.8-.009zm13.552 2.535a1.4 1.4 0 1 0 .765-2.696 1.4 1.4 0 0 0-.764 2.696"/></svg>