<svg xmlns="http://www.w3.org/2000/svg" width="40" height="40" viewBox="0 0 40 40"><path fill="var(--hop-Richicon-placeholder-shadow, #E5DED6)" d="M0 20C0 8.954 8.954 0 20 0s20 8.954 20 20-8.954 20-20 20S0 31.046 0 20"/><path fill="var(--hop-Richicon-placeholder-background, #2A2620)" d="M5.745 11.206q.142-.146.286-.3C7.01 9.87 7.81 9.051 9.163 9.051a3 3 0 0 1 2.777 4.136l2.943 2.283a3 3 0 0 1 4.959.687l1.7-.638c.162-1.168.88-1.928 1.724-2.738l.059-.056c.935-.9 1.863-1.79 3.189-1.79a3 3 0 0 1 2.698 4.313l1.74 1.33a3 3 0 1 1 2.725 5.23q-.058.19-.14.37v4.357c0 .691-.392 1.073-.915 1.581l-.24.236c-.636.636-1.292 1.183-1.844 1.183H7.43a1 1 0 0 1-1-1V16.961a3 3 0 0 1-2.267-2.91c0-1.201.701-1.93 1.542-2.804"/><path fill="#fff" d="M7.413 12.051a1.75 1.75 0 1 0 3.5 0 1.75 1.75 0 0 0-3.5 0m2.267 2.956v11.278h22.608v-4.393a3 3 0 0 1-2.138-4.353l-1.708-1.306a3 3 0 0 1-1.928.702 2.99 2.99 0 0 1-2.307-1.082l-4.073 1.53v.069a3 3 0 1 1-5.869-.879l-3.031-2.351a3 3 0 0 1-1.554.785m15.826.359c.284.2.632.319 1.008.319a1.749 1.749 0 1 0 0-3.5 1.75 1.75 0 0 0-1.008 3.18"/><path fill="#fff" d="M15.385 17.452a1.75 1.75 0 0 0 3.45.419l.005-.024q.045-.192.045-.395a1.75 1.75 0 0 0-3.5-.01zm16.941 3.168q.229.066.48.067a1.75 1.75 0 1 0-.48-.066"/></svg>