<svg xmlns="http://www.w3.org/2000/svg" width="24" height="24" viewBox="0 0 24 24"><path fill="var(--hop-RichIcon-placeholder-background, #E5DED6)" d="M0 12C0 5.373 5.373 0 12 0s12 5.373 12 12-5.373 12-12 12S0 18.627 0 12"/><path fill="var(--hop-RichIcon-placeholder-shadow, #2A2620)" fill-rule="evenodd" d="M20.4 11.4c0 2.46-.983 4.417-2.7 6-1.583 1.717-3.84 3-6.3 3a7.8 7.8 0 0 1-7.8-7.8c0-2.46.9-3.9 2.4-5.7 1.77-2.125 4.14-3.3 6.6-3.3a7.8 7.8 0 0 1 7.8 7.8"/><path fill="var(--hop-RichIcon-placeholder-fill, #fff)" fill-rule="evenodd" d="M12.6 18.2a6.8 6.8 0 1 0 0-13.6 6.8 6.8 0 0 0 0 13.6m-3-7.4a.9.9 0 1 0 0-1.8.9.9 0 0 0 0 1.8m6.9-.9a.9.9 0 1 1-1.8 0 .9.9 0 0 1 1.8 0M9 13.3a.5.5 0 0 0 0 1h7.2a.5.5 0 1 0 0-1z"/></svg>