<svg xmlns="http://www.w3.org/2000/svg" width="32" height="32" viewBox="0 0 32 32"><path fill="var(--hop-RichIcon-placeholder-background, #E5DED6)" d="M0 16C0 7.163 7.163 0 16 0s16 7.163 16 16-7.163 16-16 16S0 24.837 0 16"/><path fill="var(--hop-RichIcon-placeholder-shadow, #2A2620)" fill-rule="evenodd" d="M25.594 15.837a1 1 0 0 0 .189-.976l-2.71-7.926a1 1 0 0 0-1.64-.397c-1.074 1.033-2.069 1.424-3.022 1.55-.94.124-1.87 0-2.944-.143l-.228-.03c-1.119-.147-2.404-.298-3.715.024a6.1 6.1 0 0 0-2.268 1.093l-.211-.61a1.5 1.5 0 0 0-2.835.982l6.518 18.804a1.5 1.5 0 1 0 2.834-.983l-2.825-8.152c.655-.78 1.347-1.191 2.044-1.414.973-.31 2.051-.288 3.28-.177q.34.031.7.07c.992.102 2.084.214 3.097.125 1.333-.117 2.652-.581 3.736-1.84"/><path fill="var(--hop-RichIcon-placeholder-shadow, #2A2620)" d="m6.546 7.874 1.29-1.616.326 1.625zm10.36 19.548-1.762 1.414v-1.624zm9.99-12.524L25.2 16.252v-1.624z"/><path fill="var(--hop-RichIcon-placeholder-fill, #fff)" d="m23.726 5.658 2.71 7.927c-3.495 4.057-9.804-2.007-13.586 4.26l-2.808-8.187c4.435-5.658 8.779.72 13.684-4"/><path fill="var(--hop-RichIcon-placeholder-shadow, #2A2620)" fill-rule="evenodd" d="M27.62 13.18c.143.42.053.884-.236 1.22-1.137 1.32-2.523 1.805-3.904 1.926-1.04.091-2.163-.024-3.155-.127q-.357-.037-.687-.068c-1.224-.11-2.26-.128-3.18.166-.863.276-1.733.862-2.537 2.194a1.25 1.25 0 0 1-2.253-.24L8.86 10.063a1.25 1.25 0 0 1 .199-1.176c1.254-1.6 2.585-2.443 4.005-2.791 1.363-.334 2.691-.176 3.807-.029l.22.03c1.082.143 1.98.263 2.887.143.9-.12 1.846-.486 2.881-1.482a1.25 1.25 0 0 1 2.05.496zm-3.894-7.522a8 8 0 0 1-1.033.844c-1.982 1.34-3.877 1.086-5.73.838-2.343-.313-4.62-.617-6.92 2.318l2.807 8.188a7.7 7.7 0 0 1 .902-1.224c1.965-2.15 4.41-1.9 6.76-1.66 2.22.226 4.356.444 5.925-1.377z"/><path fill="var(--hop-RichIcon-placeholder-fill, #fff)" fill-rule="evenodd" d="M9.064 6.84a.5.5 0 0 1 .636.309l6.517 18.804a.5.5 0 0 1-.944.327L8.755 7.476a.5.5 0 0 1 .309-.636"/><path fill="var(--hop-RichIcon-placeholder-shadow, #2A2620)" fill-rule="evenodd" d="M8.654 5.659a1.75 1.75 0 0 1 2.227 1.08l6.517 18.804a1.75 1.75 0 0 1-3.307 1.146L7.574 7.885a1.75 1.75 0 0 1 1.08-2.226M9.7 7.149a.5.5 0 0 0-.945.327l6.518 18.804a.5.5 0 1 0 .944-.328z"/><path fill="var(--hop-RichIcon-placeholder-fill, #fff)" fill-rule="evenodd" d="M9.023 6.722a.625.625 0 0 1 .795.386l6.517 18.804a.625.625 0 1 1-1.18.409L8.636 7.517a.625.625 0 0 1 .386-.795"/></svg>