<svg xmlns="http://www.w3.org/2000/svg" width="40" height="40" viewBox="0 0 40 40"><path fill="var(--hop-RichIcon-placeholder-background, #E5DED6)" d="M0 20C0 8.954 8.954 0 20 0s20 8.954 20 20-8.954 20-20 20S0 31.046 0 20"/><path fill="var(--hop-RichIcon-placeholder-shadow, #2A2620)" fill-rule="evenodd" d="M31.993 19.797c.29-.336.379-.8.235-1.22L28.84 8.668a1.25 1.25 0 0 0-2.05-.497c-1.341 1.292-2.585 1.78-3.776 1.937-1.176.156-2.338.001-3.68-.177l-.286-.038c-1.398-.185-3.004-.372-4.643.03a7.65 7.65 0 0 0-2.835 1.366l-.264-.764a1.875 1.875 0 1 0-3.543 1.229l8.147 23.504a1.875 1.875 0 1 0 3.543-1.228l-3.532-10.19c.818-.974 1.684-1.489 2.556-1.767 1.215-.389 2.564-.36 4.099-.221q.424.04.876.087c1.24.127 2.604.267 3.87.156 1.667-.146 3.316-.726 4.67-2.3"/><path fill="var(--hop-RichIcon-placeholder-shadow, #2A2620)" d="m8.182 9.843 2.02-2.02v2.03zM20.95 34.025l-2.02 2.02v-2.03zm12.57-15.73-2.02 2.02v-2.03z"/><path fill="var(--hop-RichIcon-placeholder-fill, #fff)" d="m29.658 7.073 3.388 9.908c-4.37 5.071-12.256-2.508-16.983 5.326l-3.51-10.235c5.544-7.072 10.973.9 17.105-4.999"/><path fill="var(--hop-RichIcon-placeholder-shadow, #2A2620)" fill-rule="evenodd" d="M34.229 16.576c.143.42.053.885-.236 1.22-1.355 1.574-3.004 2.154-4.67 2.3-1.267.111-2.631-.029-3.87-.156q-.452-.047-.877-.087c-1.535-.14-2.884-.168-4.1.22-1.156.37-2.302 1.155-3.343 2.88a1.25 1.25 0 0 1-2.252-.24l-3.51-10.235a1.25 1.25 0 0 1 .198-1.177c1.531-1.953 3.139-2.962 4.836-3.378 1.639-.401 3.245-.214 4.643-.03l.286.039c1.342.178 2.504.333 3.68.177 1.191-.157 2.435-.645 3.777-1.937a1.25 1.25 0 0 1 2.05.497zm-4.571-9.503q-.516.494-1.025.867c-2.574 1.885-5.03 1.557-7.43 1.236-2.928-.392-5.774-.773-8.65 2.896l3.51 10.235q.43-.708.89-1.258c2.495-2.98 5.653-2.657 8.687-2.347 2.774.283 5.444.555 7.406-1.721z"/><path fill="var(--hop-RichIcon-placeholder-fill, #fff)" fill-rule="evenodd" d="M11.33 8.55a.625.625 0 0 1 .795.386l8.147 23.505a.625.625 0 1 1-1.181.409L10.944 9.345a.625.625 0 0 1 .385-.795"/><path fill="var(--hop-RichIcon-placeholder-shadow, #2A2620)" fill-rule="evenodd" d="M10.92 7.369a1.874 1.874 0 0 1 2.386 1.157l8.147 23.505a1.875 1.875 0 1 1-3.543 1.228L9.763 9.754A1.875 1.875 0 0 1 10.92 7.37m1.205 1.567 8.147 23.505a.625.625 0 1 1-1.181.409L10.944 9.345a.625.625 0 0 1 1.18-.41"/><path fill="var(--hop-RichIcon-placeholder-fill, #fff)" fill-rule="evenodd" d="M11.33 8.55a.625.625 0 0 1 .795.386l8.147 23.505a.625.625 0 1 1-1.181.409L10.944 9.345a.625.625 0 0 1 .385-.795"/></svg>