<svg xmlns="http://www.w3.org/2000/svg" width="24" height="24" viewBox="0 0 24 24"><path fill="var(--hop-RichIcon-placeholder-background, #E5DED6)" d="M0 12C0 5.373 5.373 0 12 0s12 5.373 12 12-5.373 12-12 12S0 18.627 0 12"/><path fill="var(--hop-RichIcon-placeholder-shadow, #2A2620)" fill-rule="evenodd" d="M19.196 11.878a.75.75 0 0 0 .141-.732L17.304 5.2a.75.75 0 0 0-1.23-.298c-.805.775-1.55 1.068-2.266 1.163-.705.093-1.403 0-2.208-.107l-.171-.023c-.839-.11-1.803-.223-2.786.018a4.6 4.6 0 0 0-1.7.82l-.16-.458a1.125 1.125 0 0 0-2.125.737l4.888 14.103a1.125 1.125 0 0 0 2.126-.737l-2.12-6.114c.492-.585 1.01-.894 1.534-1.06.73-.234 1.538-.217 2.46-.133q.255.023.525.052c.744.076 1.563.16 2.323.094 1-.088 1.989-.436 2.802-1.38"/><path fill="var(--hop-RichIcon-placeholder-shadow, #2A2620)" d="m4.776 6.076.71-1.354.635 1.19zm7.82 14.925-1.51.8.272-1.392zm6.814-8.933-1.41.755-.099-.852z"/><path fill="var(--hop-RichIcon-placeholder-fill, #fff)" d="m17.795 4.244 2.032 5.945c-2.621 3.042-7.353-1.505-10.19 3.195l-2.105-6.14c3.326-4.244 6.584.54 10.263-3"/><path fill="var(--hop-RichIcon-placeholder-shadow, #2A2620)" fill-rule="evenodd" d="M21.01 9.784c.144.42.054.884-.236 1.22-.918 1.066-2.041 1.456-3.137 1.552-.813.071-1.694-.02-2.44-.097l-.497-.05c-.913-.082-1.635-.089-2.262.112-.568.181-1.162.568-1.73 1.509a1.25 1.25 0 0 1-2.253-.24L6.35 7.649a1.25 1.25 0 0 1 .199-1.177c.977-1.246 2.033-1.924 3.176-2.204 1.085-.266 2.136-.138 2.97-.027l.15.02c.827.11 1.461.193 2.099.109.608-.08 1.256-.325 1.985-1.027a1.25 1.25 0 0 1 2.05.496zm-3.216-5.54c-.352.339-.7.602-1.046.803-1.388.811-2.72.633-4.026.458-1.757-.235-3.464-.463-5.19 1.738l2.106 6.141c.289-.479.597-.861.921-1.166 1.43-1.344 3.159-1.167 4.825-.997 1.665.17 3.267.333 4.443-1.033z"/><path fill="var(--hop-RichIcon-placeholder-fill, #fff)" fill-rule="evenodd" d="M6.798 5.13a.375.375 0 0 1 .477.231l4.888 14.103a.375.375 0 1 1-.709.246L6.566 5.607a.375.375 0 0 1 .232-.477"/><path fill="var(--hop-RichIcon-placeholder-shadow, #2A2620)" fill-rule="evenodd" d="M6.388 3.949a1.625 1.625 0 0 1 2.068 1.003l4.888 14.103a1.625 1.625 0 0 1-3.07 1.064L5.384 6.016A1.625 1.625 0 0 1 6.388 3.95m.887 1.412a.375.375 0 0 0-.709.246l4.888 14.103a.375.375 0 0 0 .709-.246z"/><path fill="var(--hop-RichIcon-placeholder-fill, #fff)" fill-rule="evenodd" d="M6.716 4.894a.625.625 0 0 1 .795.386l4.888 14.103a.625.625 0 0 1-1.18.409L6.33 5.689a.625.625 0 0 1 .386-.795"/></svg>