<svg xmlns="http://www.w3.org/2000/svg" width="32" height="32" viewBox="0 0 32 32"><path fill="var(--hop-RichIcon-placeholder-background, #E5DED6)" d="M0 16C0 7.163 7.163 0 16 0s16 7.163 16 16-7.163 16-16 16S0 24.837 0 16"/><path fill="var(--hop-RichIcon-placeholder-shadow, #2A2620)" d="M8.8 8h12v16h-12z"/><path fill="var(--hop-RichIcon-placeholder-shadow, #2A2620)" d="M8.8 8.8a.8.8 0 0 1 .8-.8H20a.8.8 0 0 1 .8.8v14.4a.8.8 0 0 1-.8.8H9.6a.8.8 0 0 1-.8-.8z"/><path fill="var(--hop-RichIcon-placeholder-shadow, #2A2620)" fill-rule="evenodd" d="M9.6 7H20a1.8 1.8 0 0 1 1.8 1.8v14.4A1.8 1.8 0 0 1 20 25H9.6a1.8 1.8 0 0 1-1.8-1.8V8.8A1.8 1.8 0 0 1 9.6 7m0 1a.8.8 0 0 0-.8.8v14.4a.8.8 0 0 0 .8.8H20a.8.8 0 0 0 .8-.8V8.8A.8.8 0 0 0 20 8z"/><path fill="var(--hop-RichIcon-placeholder-shadow, #2A2620)" d="m22.799 22.937-1.616 1.616v-1.624zM21.6 9.6h.8a.8.8 0 0 1 .8.8V12a.8.8 0 0 1-.8.8h-.8z"/><path fill="var(--hop-RichIcon-placeholder-shadow, #2A2620)" fill-rule="evenodd" d="M20.6 8.6h1.8a1.8 1.8 0 0 1 1.8 1.8V12a1.8 1.8 0 0 1-1.8 1.8h-1.8zm1.8 4.2q.105 0 .2-.025a.8.8 0 0 0 .6-.775v-1.6a.8.8 0 0 0-.8-.8h-.8v3.2z"/><path fill="var(--hop-RichIcon-placeholder-shadow, #2A2620)" d="M21.6 14.4h.8a.8.8 0 0 1 .8.8v1.6a.8.8 0 0 1-.8.8h-.8z"/><path fill="var(--hop-RichIcon-placeholder-shadow, #2A2620)" fill-rule="evenodd" d="M20.6 13.4h1.8a1.8 1.8 0 0 1 1.8 1.8v1.6a1.8 1.8 0 0 1-1.8 1.8h-1.8zm1.8 4.2a.8.8 0 0 0 .8-.8v-1.6a.8.8 0 0 0-.8-.8h-.8v3.2z"/><path fill="var(--hop-RichIcon-placeholder-shadow, #2A2620)" d="M21.6 19.2h.8a.8.8 0 0 1 .8.8v1.6a.8.8 0 0 1-.8.8h-.8z"/><path fill="var(--hop-RichIcon-placeholder-shadow, #2A2620)" fill-rule="evenodd" d="M20.6 18.2h1.8a1.8 1.8 0 0 1 1.8 1.8v1.6a1.8 1.8 0 0 1-1.8 1.8h-1.8zm1.8 4.2a.8.8 0 0 0 .8-.8V20a.8.8 0 0 0-.8-.8h-.8v3.2z"/><path fill="var(--hop-RichIcon-placeholder-shadow, #2A2620)" d="m25.384 21.152-1.616 1.616v-1.624zM8.29 7.566 9.904 5.95v1.624zM10.4 6.4h12v16h-12z"/><path fill="var(--hop-RichIcon-placeholder-shadow, #2A2620)" d="M10.4 7.2a.8.8 0 0 1 .8-.8h10.4a.8.8 0 0 1 .8.8v14.4a.8.8 0 0 1-.8.8H11.2a.8.8 0 0 1-.8-.8z"/><path fill="var(--hop-RichIcon-placeholder-shadow, #2A2620)" fill-rule="evenodd" d="M11.2 5.4h10.4a1.8 1.8 0 0 1 1.8 1.8v14.4a1.8 1.8 0 0 1-1.8 1.8H11.2a1.8 1.8 0 0 1-1.8-1.8V7.2a1.8 1.8 0 0 1 1.8-1.8m0 1a.8.8 0 0 0-.8.8v14.4a.8.8 0 0 0 .8.8h10.4a.8.8 0 0 0 .8-.8V7.2a.8.8 0 0 0-.8-.8z"/><path fill="var(--hop-RichIcon-placeholder-shadow, #2A2620)" d="M23.2 8h.8a.8.8 0 0 1 .8.8v1.6a.8.8 0 0 1-.8.8h-.8z"/><path fill="var(--hop-RichIcon-placeholder-shadow, #2A2620)" fill-rule="evenodd" d="M22.2 7H24a1.8 1.8 0 0 1 1.8 1.8v1.6a1.8 1.8 0 0 1-1.8 1.8h-1.8zm1.8 4.2q.105 0 .2-.025a.8.8 0 0 0 .6-.775V8.8A.8.8 0 0 0 24 8h-.8v3.2z"/><path fill="var(--hop-RichIcon-placeholder-shadow, #2A2620)" d="M23.2 12.8h.8a.8.8 0 0 1 .8.8v1.6a.8.8 0 0 1-.8.8h-.8z"/><path fill="var(--hop-RichIcon-placeholder-shadow, #2A2620)" fill-rule="evenodd" d="M22.2 11.8H24a1.8 1.8 0 0 1 1.8 1.8v1.6A1.8 1.8 0 0 1 24 17h-1.8zM24 16q.105 0 .2-.025a.8.8 0 0 0 .6-.775v-1.6a.8.8 0 0 0-.8-.8h-.8V16z"/><path fill="var(--hop-RichIcon-placeholder-shadow, #2A2620)" d="M23.2 17.6h.8a.8.8 0 0 1 .8.8V20a.8.8 0 0 1-.8.8h-.8z"/><path fill="var(--hop-RichIcon-placeholder-shadow, #2A2620)" fill-rule="evenodd" d="M22.2 16.6H24a1.8 1.8 0 0 1 1.8 1.8V20a1.8 1.8 0 0 1-1.8 1.8h-1.8zm1.8 4.2q.105 0 .2-.025a.8.8 0 0 0 .6-.775v-1.6a.8.8 0 0 0-.8-.8h-.8v3.2z"/><path fill="var(--hop-RichIcon-placeholder-fill, #fff)" d="M10.4 7.4a1 1 0 0 1 1-1h10a1 1 0 0 1 1 1v14a1 1 0 0 1-1 1h-10a1 1 0 0 1-1-1z"/><path fill="var(--hop-RichIcon-placeholder-shadow, #2A2620)" fill-rule="evenodd" d="M11.4 5.4h10a2 2 0 0 1 2 2v14a2 2 0 0 1-2 2h-10a2 2 0 0 1-2-2v-14a2 2 0 0 1 2-2m0 1a1 1 0 0 0-1 1v14a1 1 0 0 0 1 1h10a1 1 0 0 0 1-1v-14a1 1 0 0 0-1-1z"/><path fill="var(--hop-RichIcon-placeholder-fill, #fff)" d="M23.2 8h.6a1 1 0 0 1 1 1v1.2a1 1 0 0 1-1 1h-.6zm0 4.8h.6a1 1 0 0 1 1 1V15a1 1 0 0 1-1 1h-.6zm0 4.8h.6a1 1 0 0 1 1 1v1.2a1 1 0 0 1-1 1h-.6z"/><path fill="var(--hop-RichIcon-placeholder-shadow, #2A2620)" d="M18.8 11.2a2.4 2.4 0 1 1-4.8 0 2.4 2.4 0 0 1 4.8 0m-6.4 7.2a4 4 0 0 1 8 0v4h-8z"/></svg>