<svg xmlns="http://www.w3.org/2000/svg" width="40" height="40" viewBox="0 0 40 40"><path fill="var(--hop-RichIcon-placeholder-background, #E5DED6)" d="M0 20C0 8.954 8.954 0 20 0s20 8.954 20 20-8.954 20-20 20S0 31.046 0 20"/><path fill="var(--hop-RichIcon-placeholder-shadow, #2A2620)" d="M11 10h15v20H11z"/><path fill="var(--hop-RichIcon-placeholder-shadow, #2A2620)" d="M11 11a1 1 0 0 1 1-1h13a1 1 0 0 1 1 1v18a1 1 0 0 1-1 1H12a1 1 0 0 1-1-1z"/><path fill="var(--hop-RichIcon-placeholder-shadow, #2A2620)" fill-rule="evenodd" d="M12 8.75h13A2.25 2.25 0 0 1 27.25 11v18A2.25 2.25 0 0 1 25 31.25H12A2.25 2.25 0 0 1 9.75 29V11A2.25 2.25 0 0 1 12 8.75M12 10a1 1 0 0 0-1 1v18a1 1 0 0 0 1 1h13a1 1 0 0 0 1-1V11a1 1 0 0 0-1-1z"/><path fill="var(--hop-RichIcon-placeholder-shadow, #2A2620)" d="m28.498 28.67-2.02 2.02v-2.03zM27 12h1a1 1 0 0 1 1 1v2a1 1 0 0 1-1 1h-1z"/><path fill="var(--hop-RichIcon-placeholder-shadow, #2A2620)" fill-rule="evenodd" d="M25.75 10.75H28A2.25 2.25 0 0 1 30.25 13v2A2.25 2.25 0 0 1 28 17.25h-2.25zM28 16a1 1 0 0 0 1-1v-2a1 1 0 0 0-1-1h-1v4z"/><path fill="var(--hop-RichIcon-placeholder-shadow, #2A2620)" d="M27 18h1a1 1 0 0 1 1 1v2a1 1 0 0 1-1 1h-1z"/><path fill="var(--hop-RichIcon-placeholder-shadow, #2A2620)" fill-rule="evenodd" d="M25.75 16.75H28A2.25 2.25 0 0 1 30.25 19v2A2.25 2.25 0 0 1 28 23.25h-2.25zM28 22a1 1 0 0 0 1-1v-2a1 1 0 0 0-1-1h-1v4z"/><path fill="var(--hop-RichIcon-placeholder-shadow, #2A2620)" d="M27 24h1a1 1 0 0 1 1 1v2a1 1 0 0 1-1 1h-1z"/><path fill="var(--hop-RichIcon-placeholder-shadow, #2A2620)" fill-rule="evenodd" d="M25.75 22.75H28A2.25 2.25 0 0 1 30.25 25v2A2.25 2.25 0 0 1 28 29.25h-2.25zM28 28a1 1 0 0 0 1-1v-2a1 1 0 0 0-1-1h-1v4z"/><path fill="var(--hop-RichIcon-placeholder-shadow, #2A2620)" d="m31.73 26.44-2.02 2.02v-2.03zM10.362 9.457l2.02-2.02v2.03zM13 8h15v20H13z"/><path fill="var(--hop-RichIcon-placeholder-shadow, #2A2620)" d="M13 9a1 1 0 0 1 1-1h13a1 1 0 0 1 1 1v18a1 1 0 0 1-1 1H14a1 1 0 0 1-1-1z"/><path fill="var(--hop-RichIcon-placeholder-shadow, #2A2620)" fill-rule="evenodd" d="M14 6.75h13A2.25 2.25 0 0 1 29.25 9v18A2.25 2.25 0 0 1 27 29.25H14A2.25 2.25 0 0 1 11.75 27V9A2.25 2.25 0 0 1 14 6.75M14 8a1 1 0 0 0-1 1v18a1 1 0 0 0 1 1h13a1 1 0 0 0 1-1V9a1 1 0 0 0-1-1z"/><path fill="var(--hop-RichIcon-placeholder-shadow, #2A2620)" d="M29 10h1a1 1 0 0 1 1 1v2a1 1 0 0 1-1 1h-1z"/><path fill="var(--hop-RichIcon-placeholder-shadow, #2A2620)" fill-rule="evenodd" d="M27.75 8.75H30A2.25 2.25 0 0 1 32.25 11v2A2.25 2.25 0 0 1 30 15.25h-2.25zM30 14a1 1 0 0 0 1-1v-2a1 1 0 0 0-1-1h-1v4z"/><path fill="var(--hop-RichIcon-placeholder-shadow, #2A2620)" d="M29 16h1a1 1 0 0 1 1 1v2a1 1 0 0 1-1 1h-1z"/><path fill="var(--hop-RichIcon-placeholder-shadow, #2A2620)" fill-rule="evenodd" d="M27.75 14.75H30A2.25 2.25 0 0 1 32.25 17v2A2.25 2.25 0 0 1 30 21.25h-2.25zM30 20a1 1 0 0 0 1-1v-2a1 1 0 0 0-1-1h-1v4z"/><path fill="var(--hop-RichIcon-placeholder-shadow, #2A2620)" d="M29 22h1a1 1 0 0 1 1 1v2a1 1 0 0 1-1 1h-1z"/><path fill="var(--hop-RichIcon-placeholder-shadow, #2A2620)" fill-rule="evenodd" d="M27.75 20.75H30A2.25 2.25 0 0 1 32.25 23v2A2.25 2.25 0 0 1 30 27.25h-2.25zM30 26a1 1 0 0 0 1-1v-2a1 1 0 0 0-1-1h-1v4z"/><path fill="var(--hop-RichIcon-placeholder-fill, #fff)" d="M13 9a1 1 0 0 1 1-1h13a1 1 0 0 1 1 1v18a1 1 0 0 1-1 1H14a1 1 0 0 1-1-1z"/><path fill="var(--hop-RichIcon-placeholder-shadow, #2A2620)" fill-rule="evenodd" d="M14 6.75h13A2.25 2.25 0 0 1 29.25 9v18A2.25 2.25 0 0 1 27 29.25H14A2.25 2.25 0 0 1 11.75 27V9A2.25 2.25 0 0 1 14 6.75M14 8a1 1 0 0 0-1 1v18a1 1 0 0 0 1 1h13a1 1 0 0 0 1-1V9a1 1 0 0 0-1-1z"/><path fill="var(--hop-RichIcon-placeholder-fill, #fff)" d="M29 10h1a1 1 0 0 1 1 1v2a1 1 0 0 1-1 1h-1zm0 6h1a1 1 0 0 1 1 1v2a1 1 0 0 1-1 1h-1zm0 6h1a1 1 0 0 1 1 1v2a1 1 0 0 1-1 1h-1z"/><path fill="var(--hop-RichIcon-placeholder-shadow, #2A2620)" d="M23.5 14a3 3 0 1 1-6 0 3 3 0 0 1 6 0m-8 8a4 4 0 0 1 4-4h2a4 4 0 0 1 4 4v6h-10z"/></svg>