<svg xmlns="http://www.w3.org/2000/svg" width="24" height="24" viewBox="0 0 24 24"><path fill="var(--hop-RichIcon-placeholder-background, #E5DED6)" d="M0 12C0 5.373 5.373 0 12 0s12 5.373 12 12-5.373 12-12 12S0 18.627 0 12"/><path fill="var(--hop-RichIcon-placeholder-shadow, #2A2620)" d="M6.6 6h9v12h-9z"/><path fill="var(--hop-RichIcon-placeholder-shadow, #2A2620)" d="M6.6 6.6a.6.6 0 0 1 .6-.6H15a.6.6 0 0 1 .6.6v10.8a.6.6 0 0 1-.6.6H7.2a.6.6 0 0 1-.6-.6z"/><path fill="var(--hop-RichIcon-placeholder-shadow, #2A2620)" fill-rule="evenodd" d="M7.2 5.25H15c.746 0 1.35.604 1.35 1.35v10.8A1.35 1.35 0 0 1 15 18.75H7.2a1.35 1.35 0 0 1-1.35-1.35V6.6c0-.746.604-1.35 1.35-1.35m0 .75a.6.6 0 0 0-.6.6v10.8a.6.6 0 0 0 .6.6H15a.6.6 0 0 0 .6-.6V6.6A.6.6 0 0 0 15 6z"/><path fill="var(--hop-RichIcon-placeholder-shadow, #2A2620)" d="m17.099 17.203-1.212 1.212v-1.218zM16.2 7.2h.6a.6.6 0 0 1 .6.6V9a.6.6 0 0 1-.6.6h-.6z"/><path fill="var(--hop-RichIcon-placeholder-shadow, #2A2620)" fill-rule="evenodd" d="M15.45 6.45h1.35c.746 0 1.35.604 1.35 1.35V9a1.35 1.35 0 0 1-1.35 1.35h-1.35zM16.8 9.6a.6.6 0 0 0 .6-.6V7.8a.6.6 0 0 0-.6-.6h-.6v2.4z"/><path fill="var(--hop-RichIcon-placeholder-shadow, #2A2620)" d="M16.2 10.8h.6a.6.6 0 0 1 .6.6v1.2a.6.6 0 0 1-.6.6h-.6z"/><path fill="var(--hop-RichIcon-placeholder-shadow, #2A2620)" fill-rule="evenodd" d="M15.45 10.05h1.35c.746 0 1.35.604 1.35 1.35v1.2a1.35 1.35 0 0 1-1.35 1.35h-1.35zm1.35 3.15a.6.6 0 0 0 .6-.6v-1.2a.6.6 0 0 0-.6-.6h-.6v2.4z"/><path fill="var(--hop-RichIcon-placeholder-shadow, #2A2620)" d="M16.2 14.4h.6a.6.6 0 0 1 .6.6v1.2a.6.6 0 0 1-.6.6h-.6z"/><path fill="var(--hop-RichIcon-placeholder-shadow, #2A2620)" fill-rule="evenodd" d="M15.45 13.65h1.35c.746 0 1.35.604 1.35 1.35v1.2a1.35 1.35 0 0 1-1.35 1.35h-1.35zm1.35 3.15a.6.6 0 0 0 .6-.6V15a.6.6 0 0 0-.6-.6h-.6v2.4z"/><path fill="var(--hop-RichIcon-placeholder-shadow, #2A2620)" d="m19.038 15.864-1.212 1.212v-1.218zM6.217 5.674l1.074-1.18.138 1.186zM7.8 4.8h9v12h-9z"/><path fill="var(--hop-RichIcon-placeholder-shadow, #2A2620)" d="M7.8 5.4a.6.6 0 0 1 .6-.6h7.8a.6.6 0 0 1 .6.6v10.8a.6.6 0 0 1-.6.6H8.4a.6.6 0 0 1-.6-.6z"/><path fill="var(--hop-RichIcon-placeholder-shadow, #2A2620)" fill-rule="evenodd" d="M8.4 4.05h7.8c.746 0 1.35.604 1.35 1.35v10.8a1.35 1.35 0 0 1-1.35 1.35H8.4a1.35 1.35 0 0 1-1.35-1.35V5.4c0-.746.604-1.35 1.35-1.35m0 .75a.6.6 0 0 0-.6.6v10.8a.6.6 0 0 0 .6.6h7.8a.6.6 0 0 0 .6-.6V5.4a.6.6 0 0 0-.6-.6z"/><path fill="var(--hop-RichIcon-placeholder-shadow, #2A2620)" d="M17.4 6h.6a.6.6 0 0 1 .6.6v1.2a.6.6 0 0 1-.6.6h-.6z"/><path fill="var(--hop-RichIcon-placeholder-shadow, #2A2620)" fill-rule="evenodd" d="M16.65 5.25H18c.746 0 1.35.604 1.35 1.35v1.2A1.35 1.35 0 0 1 18 9.15h-1.35zM18 8.4a.6.6 0 0 0 .6-.6V6.6A.6.6 0 0 0 18 6h-.6v2.4z"/><path fill="var(--hop-RichIcon-placeholder-shadow, #2A2620)" d="M17.4 9.6h.6a.6.6 0 0 1 .6.6v1.2a.6.6 0 0 1-.6.6h-.6z"/><path fill="var(--hop-RichIcon-placeholder-shadow, #2A2620)" fill-rule="evenodd" d="M16.65 8.85H18c.746 0 1.35.604 1.35 1.35v1.2A1.35 1.35 0 0 1 18 12.75h-1.35zM18 12a.6.6 0 0 0 .6-.6v-1.2a.6.6 0 0 0-.6-.6h-.6V12z"/><path fill="var(--hop-RichIcon-placeholder-shadow, #2A2620)" d="M17.4 13.2h.6a.6.6 0 0 1 .6.6V15a.6.6 0 0 1-.6.6h-.6z"/><path fill="var(--hop-RichIcon-placeholder-shadow, #2A2620)" fill-rule="evenodd" d="M16.65 12.45H18c.746 0 1.35.604 1.35 1.35V15A1.35 1.35 0 0 1 18 16.35h-1.35zM18 15.6a.6.6 0 0 0 .6-.6v-1.2a.6.6 0 0 0-.6-.6h-.6v2.4z"/><path fill="var(--hop-RichIcon-placeholder-fill, #fff)" d="M7.8 5.8a1 1 0 0 1 1-1h7a1 1 0 0 1 1 1v10a1 1 0 0 1-1 1h-7a1 1 0 0 1-1-1z"/><path fill="var(--hop-RichIcon-placeholder-shadow, #2A2620)" fill-rule="evenodd" d="M8.8 3.8h7a2 2 0 0 1 2 2v10a2 2 0 0 1-2 2h-7a2 2 0 0 1-2-2v-10a2 2 0 0 1 2-2m0 1a1 1 0 0 0-1 1v10a1 1 0 0 0 1 1h7a1 1 0 0 0 1-1v-10a1 1 0 0 0-1-1z"/><path fill="var(--hop-RichIcon-placeholder-fill, #fff)" d="M17.4 6h.2a1 1 0 0 1 1 1v.4a1 1 0 0 1-1 1h-.2zm0 3.6h.2a1 1 0 0 1 1 1v.4a1 1 0 0 1-1 1h-.2zm0 3.6h.2a1 1 0 0 1 1 1v.4a1 1 0 0 1-1 1h-.2z"/><path fill="var(--hop-RichIcon-placeholder-shadow, #2A2620)" d="M14.1 8.4a1.8 1.8 0 1 1-3.6 0 1.8 1.8 0 0 1 3.6 0m-4.8 5.4a3 3 0 1 1 6 0v3h-6z"/></svg>