<svg xmlns="http://www.w3.org/2000/svg" width="24" height="24" viewBox="0 0 24 24"><path fill="var(--hop-RichIcon-placeholder-background, #E5DED6)" d="M0 12C0 5.373 5.373 0 12 0s12 5.373 12 12-5.373 12-12 12S0 18.627 0 12"/><path fill="var(--hop-RichIcon-placeholder-shadow, #2A2620)" fill-rule="evenodd" d="m13.405 3.28 1.183 1.468 1.819-.49a1.178 1.178 0 0 1 1.481 1.08l.097 1.884 1.758.675c.7.27.975 1.117.566 1.747l-1.027 1.582 1.027 1.582a1.18 1.18 0 0 1-.153 1.478h.007l-2.23 1.963-.045.865c-.019.362-.195.67-.454.872l.001.001c-.046.02-.734.709-1.214 1.2h-.003c-.272.288-.745.363-1.226.239l-1.399-.489-.188.234a1 1 0 0 1-.069.078l-.93 1.155a1.175 1.175 0 0 1-1.832 0l-1.183-1.468-1.819.49a1.178 1.178 0 0 1-1.481-1.08l-.097-1.884-1.758-.675c-.7-.27-.859-1.02-.464-1.582l1.014-1.582-.78-1.123c-.494-.643-.597-1.05-.435-1.331l-.002-.002 1.063-1.762.004.005a1.17 1.17 0 0 1 .6-.513l.795-.305 1.144-2.64a1.194 1.194 0 0 1 1.41-.694l1.805.49 1.184-1.468a1.175 1.175 0 0 1 1.83 0"/><path fill="var(--hop-RichIcon-placeholder-fill, #fff)" d="M12.26 3.97a.25.25 0 0 1 .39 0l1.44 1.78a.25.25 0 0 0 .26.085l2.211-.595a.25.25 0 0 1 .315.23l.118 2.287a.25.25 0 0 0 .16.22l2.14.82a.25.25 0 0 1 .12.37l-1.25 1.92a.25.25 0 0 0 0 .273l1.25 1.92a.25.25 0 0 1-.12.37l-2.14.82a.25.25 0 0 0-.16.22l-.118 2.288a.25.25 0 0 1-.315.229l-2.212-.595a.25.25 0 0 0-.26.085l-1.44 1.78a.25.25 0 0 1-.389 0l-1.44-1.78a.25.25 0 0 0-.26-.085l-2.212.595a.25.25 0 0 1-.315-.229l-.118-2.288a.25.25 0 0 0-.16-.22l-2.14-.82a.25.25 0 0 1-.12-.37l1.25-1.92a.25.25 0 0 0 0-.273l-1.25-1.92a.25.25 0 0 1 .12-.37l2.14-.82a.25.25 0 0 0 .16-.22l.118-2.288a.25.25 0 0 1 .315-.229l2.212.595a.25.25 0 0 0 .26-.084z"/><path fill="var(--hop-RichIcon-placeholder-shadow, #2A2620)" fill-rule="evenodd" d="M10.38 10.7a1.502 1.502 0 1 0 0-3.003 1.502 1.502 0 0 0 0 3.003m0-1a.5.5 0 1 0 0-1.002.5.5 0 0 0 0 1.001"/><path fill="var(--hop-RichIcon-placeholder-shadow, #2A2620)" d="m8.972 14.148 6.364-6.364.707.707-6.364 6.364z"/><path fill="var(--hop-RichIcon-placeholder-shadow, #2A2620)" fill-rule="evenodd" d="M16.129 13.446a1.502 1.502 0 1 1-3.003 0 1.502 1.502 0 0 1 3.003 0m-1.001 0a.5.5 0 1 1-1.001 0 .5.5 0 0 1 1 0"/></svg>