<svg xmlns="http://www.w3.org/2000/svg" width="32" height="32" viewBox="0 0 32 32"><path fill="var(--hop-RichIcon-placeholder-background, #E5DED6)" d="M0 16C0 7.163 7.163 0 16 0s16 7.163 16 16-7.163 16-16 16S0 24.837 0 16"/><path fill="var(--hop-RichIcon-placeholder-shadow, #2A2620)" fill-rule="evenodd" d="m17.74 4.584 1.583 1.958 2.43-.654a1.574 1.574 0 0 1 1.98 1.44l.13 2.513 2.35.9a1.574 1.574 0 0 1 .757 2.328l-1.372 2.11 1.372 2.109c.421.646.3 1.465-.205 1.971h.01l-2.982 2.617-.06 1.153a1.56 1.56 0 0 1-.606 1.163l.002.002c-.062.026-.982.944-1.623 1.6H21.5c-.363.383-.996.483-1.64.318l-1.868-.652-.252.312a2 2 0 0 1-.092.104l-1.244 1.54a1.574 1.574 0 0 1-2.448 0l-1.583-1.958-2.43.654a1.574 1.574 0 0 1-1.98-1.44l-.13-2.513-2.35-.9c-.936-.358-1.148-1.36-.62-2.108l1.356-2.11-1.043-1.497c-.66-.857-.798-1.4-.582-1.775l-.002-.002 1.42-2.35.006.007c.172-.3.446-.547.8-.683l1.065-.408 1.529-3.52a1.6 1.6 0 0 1 1.885-.925l2.413.654 1.582-1.958a1.574 1.574 0 0 1 2.448 0"/><path fill="var(--hop-RichIcon-placeholder-fill, #fff)" d="M16.064 5.158a.5.5 0 0 1 .778 0l1.85 2.29a.5.5 0 0 0 .52.169l2.843-.765a.5.5 0 0 1 .63.457l.15 2.941a.5.5 0 0 0 .321.441l2.75 1.053a.5.5 0 0 1 .24.74l-1.605 2.468a.5.5 0 0 0 0 .545l1.605 2.468a.5.5 0 0 1-.24.74l-2.75 1.053a.5.5 0 0 0-.32.441l-.152 2.94a.5.5 0 0 1-.629.458l-2.844-.765a.5.5 0 0 0-.518.169l-1.851 2.29a.5.5 0 0 1-.778 0L14.213 23a.5.5 0 0 0-.519-.169l-2.843.765a.5.5 0 0 1-.63-.457l-.151-2.94a.5.5 0 0 0-.32-.442L7 18.705a.5.5 0 0 1-.24-.74l1.605-2.468a.5.5 0 0 0 0-.545l-1.606-2.468a.5.5 0 0 1 .24-.74l2.75-1.053a.5.5 0 0 0 .32-.44l.152-2.942a.5.5 0 0 1 .63-.457l2.843.765a.5.5 0 0 0 .519-.169z"/><path fill="var(--hop-RichIcon-placeholder-shadow, #2A2620)" fill-rule="evenodd" d="M13.624 13.396a1 1 0 1 0 0-2 1 1 0 0 0 0 2m0 1a2 2 0 1 0 0-4 2 2 0 0 0 0 4m-1.767 4.718 8.485-8.485.707.707-8.485 8.485zm8.424-1.061a1 1 0 1 1-2 0 1 1 0 0 1 2 0m1 0a2 2 0 1 1-4 0 2 2 0 0 1 4 0"/></svg>