<svg xmlns="http://www.w3.org/2000/svg" width="40" height="40" viewBox="0 0 40 40"><path fill="var(--hop-RichIcon-placeholder-background, #E5DED6)" d="M0 20C0 8.954 8.954 0 20 0s20 8.954 20 20-8.954 20-20 20S0 31.046 0 20"/><path fill="var(--hop-RichIcon-placeholder-shadow, #2A2620)" fill-rule="evenodd" d="m22.555 5.494 2.01 2.487 3.09-.83a2 2 0 0 1 2.516 1.828l.165 3.194 2.986 1.144a2 2 0 0 1 .962 2.958l-1.745 2.68 1.745 2.682a2 2 0 0 1-.26 2.504l-3.777 3.326-.076 1.466a1.99 1.99 0 0 1-.771 1.477l.002.002c-.078.033-1.247 1.2-2.063 2.034l-.005-.001c-.462.487-1.266.614-2.083.404l-2.375-.827c-.671.83-1.348 1.654-2.018 2.484a2 2 0 0 1-3.111 0l-2.01-2.487-3.09.83a2 2 0 0 1-2.516-1.828l-.165-3.194-2.986-1.144c-1.19-.455-1.458-1.727-.788-2.68l1.723-2.68-1.324-1.902c-.84-1.09-1.016-1.78-.74-2.256l-.003-.002 1.812-2.978a1.98 1.98 0 0 1 1.018-.868l1.352-.518 1.943-4.472a2.03 2.03 0 0 1 2.396-1.176l3.065.83 2.01-2.487a2 2 0 0 1 3.111 0"/><path fill="var(--hop-RichIcon-placeholder-fill, #fff)" d="M20.643 6.138a.5.5 0 0 1 .778 0L23.895 9.2a.5.5 0 0 0 .519.169l3.8-1.022a.5.5 0 0 1 .63.457l.203 3.93a.5.5 0 0 0 .32.442l3.677 1.408a.5.5 0 0 1 .24.74l-2.147 3.299a.5.5 0 0 0 0 .545l2.147 3.3a.5.5 0 0 1-.24.74l-3.676 1.407a.5.5 0 0 0-.321.441l-.203 3.931a.5.5 0 0 1-.63.457l-3.8-1.022a.5.5 0 0 0-.519.169l-2.474 3.06a.5.5 0 0 1-.778 0l-2.475-3.06a.5.5 0 0 0-.519-.169l-3.8 1.022a.5.5 0 0 1-.63-.457l-.203-3.93a.5.5 0 0 0-.32-.442L9.02 23.206a.5.5 0 0 1-.24-.74l2.146-3.299a.5.5 0 0 0 0-.545l-2.147-3.3a.5.5 0 0 1 .24-.74l3.677-1.407a.5.5 0 0 0 .32-.441l.203-3.93a.5.5 0 0 1 .63-.458l3.8 1.022a.5.5 0 0 0 .52-.169z"/><path fill="var(--hop-RichIcon-placeholder-shadow, #2A2620)" fill-rule="evenodd" d="M17.5 18a2.5 2.5 0 1 0 0-5 2.5 2.5 0 0 0 0 5m0-1.25a1.25 1.25 0 1 0 0-2.5 1.25 1.25 0 0 0 0 2.5"/><path fill="var(--hop-RichIcon-placeholder-shadow, #2A2620)" d="m15.5 23.5 10-10 .884.884-10 10z"/><path fill="var(--hop-RichIcon-placeholder-shadow, #2A2620)" fill-rule="evenodd" d="M27 22.5a2.5 2.5 0 1 1-5 0 2.5 2.5 0 0 1 5 0m-1.25 0a1.25 1.25 0 1 1-2.5 0 1.25 1.25 0 0 1 2.5 0"/></svg>