<svg xmlns="http://www.w3.org/2000/svg" width="40" height="40" viewBox="0 0 40 40"><path fill="#E5DED6" d="M0 20C0 8.954 8.954 0 20 0s20 8.954 20 20-8.954 20-20 20S0 31.046 0 20"/><path fill="#2A2620" stroke="#2A2620" stroke-linejoin="round" stroke-width="1.5" d="M9 30.25c-.69 0-1.25-.56-1.25-1.25V12.828c0-.331.132-.649.366-.883l1.829-1.829a1.25 1.25 0 0 1 .883-.366H31c.69 0 1.25.56 1.25 1.25v16.172c0 .331-.132.649-.366.883l-1.829 1.829a1.25 1.25 0 0 1-.883.366z"/><path fill="#fff" d="m10.25 11.103 9.507 9.507a1.625 1.625 0 0 0 2.298 0l9.69-9.69.005.08v16a.75.75 0 0 1-.75.75H11a.75.75 0 0 1-.75-.75z"/><path fill="#fff" d="M11.165 10.25h19.482l-9.475 9.476a.375.375 0 0 1-.53 0z"/></svg>