<svg xmlns="http://www.w3.org/2000/svg" width="32" height="32" viewBox="0 0 32 32"><path fill="#E5DED6" d="M0 16C0 7.163 7.163 0 16 0s16 7.163 16 16-7.163 16-16 16S0 24.837 0 16"/><path fill="#2A2620" stroke="#2A2620" stroke-linejoin="round" stroke-width="1.2" d="M7.2 24.2a1 1 0 0 1-1-1V10.263a1 1 0 0 1 .293-.707l1.463-1.463a1 1 0 0 1 .707-.293H24.8a1 1 0 0 1 1 1v12.937a1 1 0 0 1-.293.707l-1.463 1.463a1 1 0 0 1-.707.293z"/><path fill="#fff" d="m8.2 8.882 7.606 7.606a1.3 1.3 0 0 0 1.838 0l7.753-7.752.003.064v12.8a.6.6 0 0 1-.6.6h-16a.6.6 0 0 1-.6-.6z"/><path fill="#fff" d="M8.932 8.2h15.586l-7.58 7.58a.3.3 0 0 1-.425 0z"/></svg>