<svg xmlns="http://www.w3.org/2000/svg" width="40" height="40" viewBox="0 0 40 40"><path fill="var(--hop-richicon-placeholder-foreground, #E5DED6)" d="M0 20C0 8.954 8.954 0 20 0s20 8.954 20 20-8.954 20-20 20S0 31.046 0 20"/><path fill="var(--hop-richicon-placeholder-background, #2A2620)" d="M7 29a2 2 0 0 0 2 2h20.172a2 2 0 0 0 1.414-.586l1.828-1.828A2 2 0 0 0 33 27.172V11a2 2 0 0 0-2-2H10.828a2 2 0 0 0-1.414.586l-1.828 1.828A2 2 0 0 0 7 12.828z"/><path fill="#fff" d="m10.25 11.103 9.507 9.507a1.625 1.625 0 0 0 2.298 0l9.69-9.69.005.08v16a.75.75 0 0 1-.75.75H11a.75.75 0 0 1-.75-.75z"/><path fill="#fff" d="M11.165 10.25h19.482l-9.475 9.476a.375.375 0 0 1-.53 0z"/></svg>