<svg xmlns="http://www.w3.org/2000/svg" width="24" height="24" viewBox="0 0 24 24"><path fill="#E5DED6" d="M0 12C0 5.373 5.373 0 12 0s12 5.373 12 12-5.373 12-12 12S0 18.627 0 12"/><path fill="#2A2620" stroke="#2A2620" stroke-linejoin="round" stroke-width=".9" d="M5.4 18.15a.75.75 0 0 1-.75-.75V7.697a.75.75 0 0 1 .22-.53L5.967 6.07a.75.75 0 0 1 .53-.22H18.6a.75.75 0 0 1 .75.75v9.703a.75.75 0 0 1-.22.53l-1.097 1.097a.75.75 0 0 1-.53.22z"/><path fill="#fff" d="M6.4 16.2V7.088l5.366 5.366a1.1 1.1 0 0 0 1.556 0L18.8 6.976V16.2a.2.2 0 0 1-.2.2h-12a.2.2 0 0 1-.2-.2"/><path fill="#fff" d="M7.126 6.4h10.836l-5.348 5.347a.1.1 0 0 1-.141 0z"/></svg>