<svg xmlns="http://www.w3.org/2000/svg" width="24" height="24" viewBox="0 0 24 24"><path fill="var(--hop-richicon-placeholder-foreground, #E5DED6)" d="M0 12C0 5.373 5.373 0 12 0s12 5.373 12 12-5.373 12-12 12S0 18.627 0 12"/><path fill="var(--hop-richicon-placeholder-background, #2A2620)" d="M4.2 17.4a1.2 1.2 0 0 0 1.2 1.2h12.103a1.2 1.2 0 0 0 .848-.351l1.098-1.098a1.2 1.2 0 0 0 .351-.848V6.6a1.2 1.2 0 0 0-1.2-1.2H6.497a1.2 1.2 0 0 0-.849.351L4.551 6.85a1.2 1.2 0 0 0-.351.848z"/><path fill="#fff" d="M6.4 16.2V7.088l5.366 5.366a1.1 1.1 0 0 0 1.556 0L18.8 6.976V16.2a.2.2 0 0 1-.2.2h-12a.2.2 0 0 1-.2-.2"/><path fill="#fff" d="M7.126 6.4h10.836l-5.348 5.347a.1.1 0 0 1-.141 0z"/></svg>