<svg xmlns="http://www.w3.org/2000/svg" width="32" height="32" viewBox="0 0 32 32"><path fill="var(--hop-Richicon-placeholder-shadow, #E5DED6)" d="M0 16C0 7.163 7.163 0 16 0s16 7.163 16 16-7.163 16-16 16S0 24.837 0 16"/><path fill="var(--hop-Richicon-placeholder-background, #2A2620)" d="M5.6 23.2a1.6 1.6 0 0 0 1.6 1.6h16.137a1.6 1.6 0 0 0 1.132-.469l1.462-1.462c.3-.3.469-.707.469-1.132V8.8a1.6 1.6 0 0 0-1.6-1.6H8.663a1.6 1.6 0 0 0-1.132.469L6.07 9.13a1.6 1.6 0 0 0-.469 1.132z"/><path fill="var(--hop-Richicon-placeholder-fill, #fff)" d="m8.2 8.882 7.606 7.606a1.3 1.3 0 0 0 1.838 0l7.753-7.752.003.064v12.8a.6.6 0 0 1-.6.6h-16a.6.6 0 0 1-.6-.6z"/><path fill="var(--hop-Richicon-placeholder-fill, #fff)" d="M8.932 8.2h15.586l-7.58 7.58a.3.3 0 0 1-.425 0z"/></svg>