<svg xmlns="http://www.w3.org/2000/svg" width="40" height="40" viewBox="0 0 40 40"><path fill="var(--hop-Richicon-placeholder-shadow, #E5DED6)" d="M0 20C0 8.954 8.954 0 20 0s20 8.954 20 20-8.954 20-20 20S0 31.046 0 20"/><path fill="var(--hop-Richicon-placeholder-background, #2A2620)" d="M11.598 9a2 2 0 0 0-1.415.586l-1.597 1.597A2 2 0 0 0 8 12.598v13.787a2 2 0 0 0 2 2h2.385v4.21c0 .867 1.027 1.323 1.67.742l5.483-4.952h8.864a2 2 0 0 0 1.415-.586l1.597-1.598A2 2 0 0 0 32 24.787V11a2 2 0 0 0-2-2z"/><path fill="var(--hop-Richicon-placeholder-fill, #fff)" fill-rule="evenodd" d="M15.25 25.615c0-.69-.56-1.25-1.25-1.25h-2.154a.75.75 0 0 1-.75-.75V11a.75.75 0 0 1 .75-.75H30a.75.75 0 0 1 .75.75v12.615a.75.75 0 0 1-.75.75h-7.692a1.25 1.25 0 0 0-.83.316l-6.228 5.535zM21 19a1.5 1.5 0 1 0 0-3 1.5 1.5 0 0 0 0 3m6.5-1.5a1.5 1.5 0 1 1-3 0 1.5 1.5 0 0 1 3 0M16 19a1.5 1.5 0 1 0 0-3 1.5 1.5 0 0 0 0 3"/></svg>