<svg xmlns="http://www.w3.org/2000/svg" width="32" height="32" viewBox="0 0 32 32"><path fill="var(--hop-RichIcon-placeholder-background, #E5DED6)" d="M0 16C0 7.163 7.163 0 16 0s16 7.163 16 16-7.163 16-16 16S0 24.837 0 16"/><path fill="var(--hop-RichIcon-placeholder-shadow, #2A2620)" fill-rule="evenodd" d="M22.722 22.708a1.6 1.6 0 0 0 1.131-.469l1.278-1.278c.3-.3.469-.707.469-1.131V8.8A1.6 1.6 0 0 0 24 7.2H9.278a1.6 1.6 0 0 0-1.131.469L6.869 8.947a1.6 1.6 0 0 0-.469 1.131v11.03a1.6 1.6 0 0 0 1.6 1.6h1.908v3.368a.8.8 0 0 0 1.336.594l4.387-3.962z"/><path fill="var(--hop-RichIcon-placeholder-shadow, #2A2620)" fill-rule="evenodd" d="M12.2 20.492a1 1 0 0 0-1-1H9.477a.6.6 0 0 1-.6-.6V8.8a.6.6 0 0 1 .6-.6H24a.6.6 0 0 1 .6.6v10.092a.6.6 0 0 1-.6.6h-6.154a1 1 0 0 0-.664.253L12.2 24.173zm-1 0H9.477a1.6 1.6 0 0 1-1.6-1.6V8.8a1.6 1.6 0 0 1 1.6-1.6H24a1.6 1.6 0 0 1 1.6 1.6v10.092a1.6 1.6 0 0 1-1.6 1.6h-6.154l-5.315 4.724a.8.8 0 0 1-1.331-.598z"/><path fill="var(--hop-RichIcon-placeholder-fill, #fff)" fill-rule="evenodd" d="M12.2 20.492a1 1 0 0 0-1-1H9.477a.6.6 0 0 1-.6-.6V8.8a.6.6 0 0 1 .6-.6H24a.6.6 0 0 1 .6.6v10.092a.6.6 0 0 1-.6.6h-6.154a1 1 0 0 0-.664.253L12.2 24.173zm4.6-5.292a1.2 1.2 0 1 0 0-2.4 1.2 1.2 0 0 0 0 2.4M22 14a1.2 1.2 0 1 1-2.4 0 1.2 1.2 0 0 1 2.4 0m-9.2 1.2a1.2 1.2 0 1 0 0-2.4 1.2 1.2 0 0 0 0 2.4"/></svg>