<svg xmlns="http://www.w3.org/2000/svg" width="24" height="24" viewBox="0 0 24 24"><path fill="var(--hop-RichIcon-placeholder-background, #E5DED6)" d="M0 12C0 5.373 5.373 0 12 0s12 5.373 12 12-5.373 12-12 12S0 18.627 0 12"/><path fill="var(--hop-RichIcon-placeholder-shadow, #2A2620)" d="M12.6 11.4a.9.9 0 1 0 0-1.8.9.9 0 0 0 0 1.8m3.9-.9a.9.9 0 1 1-1.8 0 .9.9 0 0 1 1.8 0m-6.9.9a.9.9 0 1 0 0-1.8.9.9 0 0 0 0 1.8"/><path fill="var(--hop-RichIcon-placeholder-shadow, #2A2620)" fill-rule="evenodd" d="M17.89 16.68a1.2 1.2 0 0 1-.849.35h-5.318l-3.29 2.973a.6.6 0 0 1-1.002-.446v-2.526H6a1.2 1.2 0 0 1-1.2-1.2V7.559a1.2 1.2 0 0 1 .352-.849l.958-.959a1.2 1.2 0 0 1 .85-.351H18a1.2 1.2 0 0 1 1.2 1.2v8.272a1.2 1.2 0 0 1-.351.849zM9.4 15.37a1 1 0 0 0-1-1H7.108a.2.2 0 0 1-.2-.2V6.6c0-.11.09-.2.2-.2H18c.11 0 .2.09.2.2v7.57a.2.2 0 0 1-.2.2h-4.615a1 1 0 0 0-.665.252L9.4 17.573z"/><path fill="var(--hop-RichIcon-placeholder-fill, #fff)" fill-rule="evenodd" d="M8.4 14.37a1 1 0 0 1 1 1v2.203l3.32-2.951a1 1 0 0 1 .665-.253H18a.2.2 0 0 0 .2-.2V6.6a.2.2 0 0 0-.2-.2H7.108a.2.2 0 0 0-.2.2v7.57c0 .11.09.2.2.2zm5.1-3.87a.9.9 0 1 1-1.8 0 .9.9 0 0 1 1.8 0m2.1.9a.9.9 0 1 0 0-1.8.9.9 0 0 0 0 1.8m-5.1-.9a.9.9 0 1 1-1.8 0 .9.9 0 0 1 1.8 0"/></svg>