<svg xmlns="http://www.w3.org/2000/svg" width="40" height="40" viewBox="0 0 40 40"><path fill="var(--hop-richicon-placeholder-foreground, #E5DED6)" d="M0 20C0 8.954 8.954 0 20 0s20 8.954 20 20-8.954 20-20 20S0 31.046 0 20"/><path fill="var(--hop-richicon-placeholder-background, #2A2620)" fill-rule="evenodd" d="M25.548 6.818 23.69 3.127l-1.157 2.962A13 13 0 0 0 21 6c-4.1 0-8.049 1.959-11 5.5-2.5 3-4 5.4-4 9.5 0 7.18 5.82 13 13 13 4.1 0 7.862-2.138 10.5-5 2.67-2.462 4.276-5.468 4.478-9.19l3.18-.63-3.37-2.527-.007-.044 2.15-3.62-3.1.615a13.05 13.05 0 0 0-4.4-5.272l1.136-2.908L25.7 6.876q-.075-.03-.152-.058M23.9 6.325l-.066-.133-.043.108zm3.453 1.33.03-.076-.1.037zm6.813 10.843-.174.034-.007-.17zm-.741-3.738-.084.142-.04-.117z"/><path fill="#fff" d="m23.834 6.192 1.152 2.287 2.397-.9-1.456 3.726-2.397.9-1.152-2.287z"/><path fill="#fff" d="M22.06 7.297Q21.535 7.25 21 7.25C14.51 7.25 9.25 12.51 9.25 19S14.51 30.75 21 30.75c6.131 0 11.166-4.696 11.703-10.688l-2.765.548-.985-.738A8.001 8.001 0 0 1 13 19a8 8 0 0 1 8.532-7.983l-.521-1.035z"/><path fill="#fff" d="M21 12.25q.618 0 1.207.108l.325.644-1.165 3.02a3 3 0 1 0 2.63 3.124l3.2-.591.553.414V19A6.75 6.75 0 1 1 21 12.25"/><path fill="#fff" d="m23.687 13.481.76-.285a6.77 6.77 0 0 1 2.904 3.513l-.364.614-3.19.59a3 3 0 0 0-1.248-1.483zm2.191-.822a8 8 0 0 1 2.26 2.725l.573-.964 2.855-.566a11.8 11.8 0 0 0-3.605-4.32l-1.073 2.745zm8.288 5.839-3.924.778-2.049-1.537 1.308-2.201 3.924-.778-1.308 2.202z"/></svg>