<svg xmlns="http://www.w3.org/2000/svg" width="24" height="24" viewBox="0 0 24 24"><path fill="var(--hop-Richicon-placeholder-shadow, #E5DED6)" d="M0 12C0 5.373 5.373 0 12 0s12 5.373 12 12-5.373 12-12 12S0 18.627 0 12"/><path fill="var(--hop-Richicon-placeholder-background, #2A2620)" fill-rule="evenodd" d="m14.2 1.57 1.22 2.422 2.539-.953-.795 2.035a7.8 7.8 0 0 1 2.48 2.972l2.165-.43-1.385 2.332 2.17 1.628-2.215.439c-.15 2.174-1.107 3.936-2.679 5.385-1.583 1.717-3.84 3-6.3 3a7.8 7.8 0 0 1-7.8-7.8c0-2.46.9-3.9 2.4-5.7 1.77-2.125 4.14-3.3 6.6-3.3q.4 0 .79.04z"/><path fill="#fff" d="M15.235 5.13q.36.15.7.342l-.475 1.214-.892.335a5 5 0 0 0-.57-.214l-.434-.863.466-1.193q.387.083.757.208l.143.285z"/><path fill="#fff" d="m12.47 5.996.306.607L12.6 6.6a4.8 4.8 0 1 0 4.754 5.466l.578.434 1.42-.282a6.801 6.801 0 1 1-6.342-7.606z"/><path fill="#fff" d="M16.4 11.4v-.05l-.113-.084-1.9.351a1.8 1.8 0 1 1-1.697-2.015l.692-1.794-.07-.142A3.8 3.8 0 1 0 16.4 11.4"/><path fill="#fff" d="m16.113 10.281.077-.13a3.8 3.8 0 0 0-1.684-2.04l-.198.075-.671 1.742c.252.178.457.42.59.702zm-.473-2.595c.477.39.877.87 1.175 1.415l.333-.56 1.479-.294a6.8 6.8 0 0 0-1.841-2.206l-.557 1.424zm2.535 3.746-1.094-.821.698-1.177 2.025-.4-.555.934-.144.242.218.163.877.658-.803.159zm-4.611-5.488.75-1.922.616 1.222 1.281-.481-.75 1.923-1.282.48z"/></svg>