<svg xmlns="http://www.w3.org/2000/svg" width="40" height="40" viewBox="0 0 40 40"><path fill="var(--hop-Richicon-placeholder-shadow, #E5DED6)" d="M0 20C0 8.954 8.954 0 20 0s20 8.954 20 20-8.954 20-20 20S0 31.046 0 20"/><path fill="var(--hop-Richicon-placeholder-background, #2A2620)" fill-rule="evenodd" d="M29.5 29c2.862-2.638 4.5-5.9 4.5-10 0-1.651-.308-3.23-.87-4.684l2.92-2.08-4.139-.926.477-4.213-2.894 2.062A12.95 12.95 0 0 0 21 6c-4.1 0-8.049 1.959-11 5.5-2.5 3-4 5.4-4 9.5 0 7.18 5.82 13 13 13 4.1 0 7.862-2.138 10.5-5m3.542-16.156-.43.306a13 13 0 0 0-.241-.456zm-2.211-3.103-.075.666a13 13 0 0 0-.34-.37z"/><path fill="#fff" d="M32.75 19c0-1.38-.238-2.703-.674-3.932l-2.02 1.44-1.577-.353a8 8 0 1 1-2.262-3.22l.177-1.567 2.05-1.46A11.7 11.7 0 0 0 21 7.25C14.51 7.25 9.25 12.51 9.25 19S14.51 30.75 21 30.75 32.75 25.49 32.75 19"/><path fill="#fff" d="M21 12.25c2.003 0 3.803.873 5.039 2.259l-.025.219-2.933 2.11a3 3 0 1 0 .701 1.035l2.937-2.112.233.052A6.75 6.75 0 1 1 21 12.25m9.94-.248.304-2.681-3.67 2.616-.304 2.681 2.634.589 3.67-2.616z"/></svg>