<svg xmlns="http://www.w3.org/2000/svg" width="32" height="32" viewBox="0 0 32 32"><path fill="var(--hop-richicon-placeholder-foreground, #E5DED6)" d="M0 16C0 7.163 7.163 0 16 0s16 7.163 16 16-7.163 16-16 16S0 24.837 0 16"/><path fill="var(--hop-richicon-placeholder-background, #2A2620)" fill-rule="evenodd" d="M27.2 15.2c0 3.28-1.31 5.89-3.6 8-2.11 2.29-5.12 4-8.4 4-5.744 0-10.4-4.656-10.4-10.4 0-3.28 1.2-5.2 3.2-7.6 2.36-2.833 5.52-4.4 8.8-4.4 2.598 0 4.973.952 6.795 2.527l2.315-1.65-.381 3.371 3.31.74-2.334 1.665c.449 1.162.695 2.426.695 3.747m-1.11-4.68.344-.245-.537-.12q.1.18.193.365m-1.486-2.194.06-.533-.331.236q.138.145.271.297"/><path fill="#fff" d="M25.66 12.054A9.4 9.4 0 1 1 7.4 15.2a9.4 9.4 0 0 1 9.4-9.4c2.26 0 4.333.797 5.954 2.126l-1.64 1.169-.14 1.253a6.4 6.4 0 1 0 1.81 2.576l1.26.282z"/><path fill="#fff" d="m26.434 10.275-2-.447.23-2.035-2.606 1.857-.186 1.647-.043.389 1.999.447zm-5.603 1.332a5.4 5.4 0 1 0 .73 1.044l-.186-.042-2.35 1.69a2.4 2.4 0 1 1-.56-.828l2.346-1.689z"/></svg>