<svg xmlns="http://www.w3.org/2000/svg" width="24" height="24" viewBox="0 0 24 24"><path fill="#E5DED6" d="M0 12C0 5.373 5.373 0 12 0s12 5.373 12 12-5.373 12-12 12S0 18.627 0 12"/><path fill="#2A2620" stroke="#2A2620" stroke-linecap="round" stroke-linejoin="round" d="m14.257 2.796.504 1a.5.5 0 0 0-.912.044l-.751 1.922a.5.5 0 0 0 .019.407l.615 1.222a.5.5 0 0 0 .623.244l1.11-.417a.5.5 0 0 0-.141.855c.427.35.785.78 1.052 1.268a.5.5 0 0 0 .868.015l-.593 1a.5.5 0 0 0 .13.655l.873.655a.5.5 0 0 0-.795.331 4 4 0 0 1 .041-.597v-.056a.5.5 0 0 0-.2-.394l-.113-.084a.5.5 0 0 0-.39-.092l.007-.001a.5.5 0 0 0 .34-.236l.076-.13a.5.5 0 0 0 .043-.42 4.3 4.3 0 0 0-1.906-2.307.5.5 0 0 0-.427-.036l-.197.074a.5.5 0 0 0-.291.288l.007-.018a.5.5 0 0 0-.02-.405l-.071-.142a.5.5 0 0 0-.354-.266 4 4 0 0 0-.646-.072.5.5 0 0 0 .464-.725l-.205-.408.46-1.176a.5.5 0 0 0-.437-.68 7 7 0 0 0 .3.023.5.5 0 0 0 .516-.315zm4.997 8.932-1.2.238-.179-.134a.5.5 0 0 0 .398.09l2.024-.4a.5.5 0 0 0 .203-.891l-.735-.552.469-.79a.5.5 0 0 0-.527-.746l-.983.195a.5.5 0 0 0 .345-.723 7.3 7.3 0 0 0-1.975-2.368.5.5 0 0 0-.774.212l-.475 1.216-.21.079a.5.5 0 0 0 .29-.287l.752-1.922a.5.5 0 0 0-.642-.65l1.05-.394-.387.99a.5.5 0 0 0 .173.588 7.3 7.3 0 0 1 2.322 2.782.5.5 0 0 0 .548.275l1.066-.211-.813 1.368a.5.5 0 0 0 .13.656l1.273.954-1.115.221a.5.5 0 0 0-.402.456c-.14 2.03-1.029 3.679-2.519 5.052l-.029.03C15.819 18.703 13.686 19.9 11.4 19.9a7.3 7.3 0 0 1-7.3-7.3c0-2.29.816-3.618 2.284-5.38.929-1.114 2.024-1.947 3.202-2.47a7.301 7.301 0 1 0 10.262 7.528.5.5 0 0 0-.594-.55M17.35 9.179l.114-.192.218-.043a.5.5 0 0 0-.332.235M12.6 4.1q0 0 0 0m2.375.12a.5.5 0 0 0 .62.24l-.42.158zm-.679 6.906a.5.5 0 0 0-.405.431 1.3 1.3 0 1 1-1.225-1.455.5.5 0 0 0 .491-.32l.013-.033a.5.5 0 0 0 .178.588c.183.129.331.304.428.507a.5.5 0 0 0 .542.277z"/><path fill="#fff" d="M15.235 5.13q.36.15.7.342l-.475 1.214-.892.335a5 5 0 0 0-.57-.214l-.434-.863.466-1.193q.387.083.757.208l.143.285z"/><path fill="#fff" d="m12.47 5.996.306.607L12.6 6.6a4.8 4.8 0 1 0 4.754 5.466l.578.434 1.42-.282a6.801 6.801 0 1 1-6.342-7.606z"/><path fill="#fff" d="M16.4 11.4v-.05l-.113-.084-1.9.351a1.8 1.8 0 1 1-1.697-2.015l.692-1.794-.07-.142A3.8 3.8 0 1 0 16.4 11.4"/><path fill="#fff" d="m16.113 10.281.077-.13a3.8 3.8 0 0 0-1.684-2.04l-.198.075-.671 1.742c.252.178.457.42.59.702zm-.473-2.595c.477.39.877.87 1.175 1.415l.333-.56 1.479-.294a6.8 6.8 0 0 0-1.841-2.206l-.557 1.424zm2.535 3.746-1.094-.821.698-1.177 2.025-.4-.555.934-.144.242.218.163.877.658-.803.159zm-4.611-5.488.75-1.922.616 1.222 1.281-.481-.75 1.923-1.282.48z"/></svg>