<svg xmlns="http://www.w3.org/2000/svg" width="32" height="32" viewBox="0 0 32 32"><path fill="var(--hop-Richicon-placeholder-shadow, #E5DED6)" d="M0 16C0 7.163 7.163 0 16 0s16 7.163 16 16-7.163 16-16 16S0 24.837 0 16"/><path fill="var(--hop-Richicon-placeholder-background, #2A2620)" fill-rule="evenodd" d="M20.439 5.454 18.95 2.502l-.926 2.37A11 11 0 0 0 16.8 4.8c-3.28 0-6.44 1.567-8.8 4.4-2 2.4-3.2 4.32-3.2 7.6 0 5.744 4.656 10.4 10.4 10.4 3.28 0 6.29-1.71 8.4-4 2.13-1.964 3.413-4.36 3.581-7.325l2.545-.505-2.69-2.017-.008-.046 1.717-2.889-2.47.49a10.44 10.44 0 0 0-3.53-4.243l.909-2.326-3.094 1.162zM19.12 5.06l-.053-.106-.034.086zm2.762 1.064.024-.06-.08.03zm5.45 8.701-.138.028-.005-.135zm-.592-2.99-.062.104-.028-.086z"/><path fill="var(--hop-Richicon-placeholder-fill, #fff)" d="m18.664 5.985.403-1.031.921 1.83 1.918-.72-1.165 2.98-1.917.72-.378-.75-.544-1.08zm8.076 5.85-.769 1.294-.277.467 1.639 1.23-3.14.621-1.638-1.229 1.046-1.761z"/><path fill="var(--hop-Richicon-placeholder-fill, #fff)" d="M16.8 5.8q.43 0 .848.038l-.84 2.148.418.828a6.4 6.4 0 1 0 5.934 7.108l.79.593 2.21-.438c-.443 4.78-4.464 8.523-9.36 8.523a9.4 9.4 0 0 1-9.4-9.4 9.4 9.4 0 0 1 9.4-9.4"/><path fill="var(--hop-Richicon-placeholder-fill, #fff)" d="M16.8 9.8q.495.001.966.086l.26.516-.933 2.416a2.4 2.4 0 1 0 2.104 2.5l2.532-.469.471.353A5.4 5.4 0 1 1 16.8 9.8"/><path fill="var(--hop-Richicon-placeholder-fill, #fff)" d="m19.558 10.557-.609.228-.91 2.36c.451.272.805.688.998 1.185l2.57-.475.28-.471a5.42 5.42 0 0 0-2.329-2.828m1.952-.733-.808.304a6.4 6.4 0 0 1 1.816 2.195l.451-.76 2.296-.454a9.44 9.44 0 0 0-2.896-3.482z"/></svg>