<svg xmlns="http://www.w3.org/2000/svg" width="24" height="24" viewBox="0 0 24 24"><path fill="var(--hop-Richicon-placeholder-shadow, #E5DED6)" d="M0 12C0 5.373 5.373 0 12 0s12 5.373 12 12-5.373 12-12 12S0 18.627 0 12"/><path fill="var(--hop-Richicon-placeholder-fill, #fff)" d="M12.6 15.2a3.8 3.8 0 1 0 0-7.6 3.8 3.8 0 0 0 0 7.6"/><path fill="var(--hop-Richicon-placeholder-fill, #fff)" fill-rule="evenodd" d="M19.4 11.4a6.8 6.8 0 1 1-13.6 0 6.8 6.8 0 0 1 13.6 0m-6.8 4.8a4.8 4.8 0 1 0 0-9.6 4.8 4.8 0 0 0 0 9.6"/><path fill="var(--hop-Richicon-placeholder-fill, #fff)" d="m16.662 7.307 1.68-1.198-.153 1.36 1.336.298-1.681 1.198-1.336-.298z"/><path fill="var(--hop-Richicon-placeholder-background, #2A2620)" fill-rule="evenodd" d="M20.4 11.4c0 2.46-.983 4.417-2.7 6-1.583 1.717-3.84 3-6.3 3a7.8 7.8 0 0 1-7.8-7.8c0-2.46.9-3.9 2.4-5.7 1.77-2.125 4.14-3.3 6.6-3.3 1.902 0 3.645.68 4.998 1.812l1.99-1.418-.304 2.695 2.647.591-2.007 1.43a7.8 7.8 0 0 1 .476 2.69m-1.325-2.084a6.8 6.8 0 1 1-2.322-3.301l-1.035.737-.103.913a4.8 4.8 0 1 0 1.523 2.167l.923.207zm.45-1.549-1.336-.298.152-1.349.002-.01-1.681 1.197-.154 1.36 1.336.298zm-3.55 1.884a3.8 3.8 0 1 1-.574-.82l-1.648 1.187a1.8 1.8 0 1 0 .56.829z"/></svg>