<svg xmlns="http://www.w3.org/2000/svg" width="24" height="24" viewBox="0 0 24 24"><path fill="var(--hop-RichIcon-placeholder-background, #E5DED6)" d="M0 12C0 5.373 5.373 0 12 0s12 5.373 12 12-5.373 12-12 12S0 18.627 0 12"/><path fill="var(--hop-RichIcon-placeholder-shadow, #2A2620)" fill-rule="evenodd" d="M9.553 5.06a1.06 1.06 0 0 0-1.056 0L5.769 6.637q-.155.09-.269.221l-.004-.166-1.233 1.4c-.203.196-.322.47-.322.76V12c0 .377.202.726.528.914l2.728 1.575q.152.088.32.12v2.916c0 .377.2.726.527.914l2.728 1.575c.327.189.73.189 1.056 0l2.728-1.575q.165-.096.284-.24L16 17.04h-.001c.241-.199.385-.497.385-.815v-2.302l1.747-1.009q.173-.101.296-.253l1.136-1.137c.248-.199.396-.501.396-.824V7.55c0-.377-.202-.726-.528-.914L16.703 5.06a1.06 1.06 0 0 0-1.056 0l-2.728 1.575q-.191.111-.319.284a1.1 1.1 0 0 0-.32-.284z"/><path fill="var(--hop-RichIcon-placeholder-fill, #fff)" d="M15.675 5.414a1 1 0 0 1 1 0l2.377 1.372a1 1 0 0 1 .5.866v2.746a1 1 0 0 1-.5.866l-2.377 1.372a1 1 0 0 1-1 0l-2.378-1.372a1 1 0 0 1-.5-.866V7.652a1 1 0 0 1 .5-.866z"/><path fill="var(--hop-RichIcon-placeholder-shadow, #2A2620)" fill-rule="evenodd" d="M15.425 4.98a1.5 1.5 0 0 1 1.5 0l2.377 1.373a1.5 1.5 0 0 1 .75 1.3v2.745a1.5 1.5 0 0 1-.75 1.299l-2.377 1.372a1.5 1.5 0 0 1-1.5 0l-2.378-1.372a1.5 1.5 0 0 1-.75-1.3V7.653a1.5 1.5 0 0 1 .75-1.299zm1 .867a.5.5 0 0 0-.5 0l-2.378 1.372a.5.5 0 0 0-.25.433v2.746a.5.5 0 0 0 .25.433l2.378 1.372a.5.5 0 0 0 .5 0l2.377-1.372a.5.5 0 0 0 .25-.433V7.652a.5.5 0 0 0-.25-.433z"/><path fill="var(--hop-RichIcon-placeholder-fill, #fff)" d="M8.525 5.414a1 1 0 0 1 1 0l2.377 1.372a1 1 0 0 1 .5.866v2.746a1 1 0 0 1-.5.866l-2.377 1.372a1 1 0 0 1-1 0l-2.378-1.372a1 1 0 0 1-.5-.866V7.652a1 1 0 0 1 .5-.866z"/><path fill="var(--hop-RichIcon-placeholder-shadow, #2A2620)" fill-rule="evenodd" d="M8.275 4.98a1.5 1.5 0 0 1 1.5 0l2.377 1.373a1.5 1.5 0 0 1 .75 1.3v2.745a1.5 1.5 0 0 1-.75 1.299l-2.377 1.372a1.5 1.5 0 0 1-1.5 0l-2.378-1.372a1.5 1.5 0 0 1-.75-1.3V7.653a1.5 1.5 0 0 1 .75-1.299zm1 .867a.5.5 0 0 0-.5 0L6.397 7.219a.5.5 0 0 0-.25.433v2.746a.5.5 0 0 0 .25.433l2.378 1.372a.5.5 0 0 0 .5 0l2.377-1.372a.5.5 0 0 0 .25-.433V7.652a.5.5 0 0 0-.25-.433z"/><path fill="var(--hop-RichIcon-placeholder-fill, #fff)" d="M12.1 10.939a1 1 0 0 1 1 0l2.377 1.372a1 1 0 0 1 .5.866v2.746a1 1 0 0 1-.5.866L13.1 18.16a1 1 0 0 1-1 0l-2.377-1.37a1 1 0 0 1-.5-.866v-2.746a1 1 0 0 1 .5-.866z"/><path fill="var(--hop-RichIcon-placeholder-shadow, #2A2620)" fill-rule="evenodd" d="M11.85 10.506a1.5 1.5 0 0 1 1.5 0l2.377 1.372a1.5 1.5 0 0 1 .75 1.3v2.745a1.5 1.5 0 0 1-.75 1.299l-2.377 1.372a1.5 1.5 0 0 1-1.5 0l-2.377-1.372a1.5 1.5 0 0 1-.75-1.3v-2.745a1.5 1.5 0 0 1 .75-1.299zm1 .866a.5.5 0 0 0-.5 0l-2.377 1.372a.5.5 0 0 0-.25.433v2.746a.5.5 0 0 0 .25.433l2.377 1.372a.5.5 0 0 0 .5 0l2.377-1.372a.5.5 0 0 0 .25-.433v-2.746a.5.5 0 0 0-.25-.433z"/><path fill="var(--hop-RichIcon-placeholder-shadow, #2A2620)" d="M17.18 8.4a1 1 0 1 1-2 0 1 1 0 0 1 2 0"/><path fill="var(--hop-RichIcon-placeholder-shadow, #2A2620)" fill-rule="evenodd" d="M16.18 7.65a.75.75 0 1 0 0 1.5.75.75 0 0 0 0-1.5m-1.25.75a1.25 1.25 0 1 1 2.5 0 1.25 1.25 0 0 1-2.5 0"/><path fill="var(--hop-RichIcon-placeholder-shadow, #2A2620)" d="M13.6 13.925a1 1 0 1 1-2 0 1 1 0 0 1 2 0"/><path fill="var(--hop-RichIcon-placeholder-shadow, #2A2620)" fill-rule="evenodd" d="M12.6 13.175a.75.75 0 1 0 0 1.5.75.75 0 0 0 0-1.5m-1.25.75a1.25 1.25 0 1 1 2.5 0 1.25 1.25 0 0 1-2.5 0"/><path fill="var(--hop-RichIcon-placeholder-shadow, #2A2620)" d="M10.03 8.4a1 1 0 1 1-2 0 1 1 0 0 1 2 0"/><path fill="var(--hop-RichIcon-placeholder-shadow, #2A2620)" fill-rule="evenodd" d="M9.03 7.65a.75.75 0 1 0 0 1.5.75.75 0 0 0 0-1.5m-1.25.75a1.25 1.25 0 1 1 2.5 0 1.25 1.25 0 0 1-2.5 0"/><path fill="var(--hop-RichIcon-placeholder-shadow, #2A2620)" d="M16.18 9.8c-1.105 0-2 .848-2 1.893l2.038 1.107 1.962-1.107c0-1.045-.895-1.893-2-1.893m-7.15 0c-1.105 0-2 .848-2 1.893L8.992 12.8l2.038-1.107c0-1.045-.895-1.893-2-1.893m3.57 5.5c-1.105 0-2 .89-2 1.99l2 1.01 2-1.01c0-1.1-.895-1.99-2-1.99"/></svg>