<svg xmlns="http://www.w3.org/2000/svg" width="32" height="32" viewBox="0 0 32 32"><path fill="var(--hop-RichIcon-placeholder-background, #E5DED6)" d="M0 16C0 7.163 7.163 0 16 0s16 7.163 16 16-7.163 16-16 16S0 24.837 0 16"/><path fill="var(--hop-RichIcon-placeholder-shadow, #2A2620)" fill-rule="evenodd" d="M12.738 6.748a1.41 1.41 0 0 0-1.409 0l-3.637 2.1a1.4 1.4 0 0 0-.275.208l.001-.052-1.66 1.716h.002a1.41 1.41 0 0 0-.505 1.08V16c0 .503.268.968.704 1.22l3.637 2.099q.202.116.426.16v3.887c0 .503.268.968.704 1.22l3.637 2.1a1.41 1.41 0 0 0 1.408 0l3.636-2.1q.221-.129.38-.32l1.546-1.546h-.001c.322-.265.513-.662.513-1.087v-3.069l2.33-1.345a1.4 1.4 0 0 0 .394-.338l1.515-1.516a1.41 1.41 0 0 0 .528-1.099v-4.199c0-.503-.269-.968-.704-1.22l-3.637-2.1a1.41 1.41 0 0 0-1.408 0l-3.637 2.1c-.17.098-.313.228-.426.38a1.4 1.4 0 0 0-.426-.38z"/><path fill="var(--hop-RichIcon-placeholder-fill, #fff)" d="M21.067 7.122a1 1 0 0 1 1 0l3.503 2.023a1 1 0 0 1 .5.866v4.045a1 1 0 0 1-.5.866l-3.503 2.023a1 1 0 0 1-1 0l-3.504-2.023a1 1 0 0 1-.5-.866v-4.045a1 1 0 0 1 .5-.866z"/><path fill="var(--hop-RichIcon-placeholder-shadow, #2A2620)" fill-rule="evenodd" d="M20.817 6.69a1.5 1.5 0 0 1 1.5 0l3.503 2.022a1.5 1.5 0 0 1 .75 1.299v4.045a1.5 1.5 0 0 1-.75 1.3l-3.503 2.022a1.5 1.5 0 0 1-1.5 0l-3.504-2.023a1.5 1.5 0 0 1-.75-1.299v-4.045a1.5 1.5 0 0 1 .75-1.3zm1 .865a.5.5 0 0 0-.5 0l-3.504 2.023a.5.5 0 0 0-.25.433v4.045a.5.5 0 0 0 .25.433l3.504 2.023a.5.5 0 0 0 .5 0l3.503-2.023a.5.5 0 0 0 .25-.433v-4.045a.5.5 0 0 0-.25-.433z"/><path fill="var(--hop-RichIcon-placeholder-fill, #fff)" d="M11.533 7.122a1 1 0 0 1 1 0l3.504 2.023a1 1 0 0 1 .5.866v4.045a1 1 0 0 1-.5.866l-3.504 2.023a1 1 0 0 1-1 0L8.03 14.922a1 1 0 0 1-.5-.866v-4.045a1 1 0 0 1 .5-.866z"/><path fill="var(--hop-RichIcon-placeholder-shadow, #2A2620)" fill-rule="evenodd" d="M11.283 6.69a1.5 1.5 0 0 1 1.5 0l3.504 2.022a1.5 1.5 0 0 1 .75 1.299v4.045a1.5 1.5 0 0 1-.75 1.3l-3.504 2.022a1.5 1.5 0 0 1-1.5 0L7.78 15.355a1.5 1.5 0 0 1-.75-1.299v-4.045a1.5 1.5 0 0 1 .75-1.3zm1 .865a.5.5 0 0 0-.5 0L8.28 9.578a.5.5 0 0 0-.25.433v4.045a.5.5 0 0 0 .25.433l3.503 2.023a.5.5 0 0 0 .5 0l3.504-2.023a.5.5 0 0 0 .25-.433v-4.045a.5.5 0 0 0-.25-.433z"/><path fill="var(--hop-RichIcon-placeholder-fill, #fff)" d="M16.3 14.489a1 1 0 0 1 1 0l3.503 2.022a1 1 0 0 1 .5.866v4.046a1 1 0 0 1-.5.866L17.3 24.31a1 1 0 0 1-1 0l-3.503-2.022a1 1 0 0 1-.5-.866v-4.046a1 1 0 0 1 .5-.866z"/><path fill="var(--hop-RichIcon-placeholder-shadow, #2A2620)" fill-rule="evenodd" d="M16.05 14.056a1.5 1.5 0 0 1 1.5 0l3.503 2.022a1.5 1.5 0 0 1 .75 1.3v4.045a1.5 1.5 0 0 1-.75 1.299l-3.503 2.022a1.5 1.5 0 0 1-1.5 0l-3.503-2.022a1.5 1.5 0 0 1-.75-1.3v-4.045a1.5 1.5 0 0 1 .75-1.299zm1 .866a.5.5 0 0 0-.5 0l-3.503 2.022a.5.5 0 0 0-.25.433v4.046a.5.5 0 0 0 .25.433l3.503 2.022a.5.5 0 0 0 .5 0l3.503-2.022a.5.5 0 0 0 .25-.433v-4.046a.5.5 0 0 0-.25-.433z"/><path fill="var(--hop-RichIcon-placeholder-shadow, #2A2620)" d="M22.867 11.167a1.3 1.3 0 1 1-2.6 0 1.3 1.3 0 0 1 2.6 0"/><path fill="var(--hop-RichIcon-placeholder-shadow, #2A2620)" fill-rule="evenodd" d="M21.567 10.367a.8.8 0 1 0 0 1.6.8.8 0 0 0 0-1.6m-1.8.8a1.8 1.8 0 1 1 3.6 0 1.8 1.8 0 0 1-3.6 0"/><path fill="var(--hop-RichIcon-placeholder-shadow, #2A2620)" d="M18.1 18.533a1.3 1.3 0 1 1-2.6 0 1.3 1.3 0 0 1 2.6 0"/><path fill="var(--hop-RichIcon-placeholder-shadow, #2A2620)" fill-rule="evenodd" d="M16.8 17.733a.8.8 0 1 0 0 1.6.8.8 0 0 0 0-1.6m-1.8.8a1.8 1.8 0 1 1 3.6 0 1.8 1.8 0 0 1-3.6 0"/><path fill="var(--hop-RichIcon-placeholder-shadow, #2A2620)" d="M13.333 11.167a1.3 1.3 0 1 1-2.6 0 1.3 1.3 0 0 1 2.6 0"/><path fill="var(--hop-RichIcon-placeholder-shadow, #2A2620)" fill-rule="evenodd" d="M12.033 10.367a.8.8 0 1 0 0 1.6.8.8 0 0 0 0-1.6m-1.8.8a1.8 1.8 0 1 1 3.6 0 1.8 1.8 0 0 1-3.6 0"/><path fill="var(--hop-RichIcon-placeholder-shadow, #2A2620)" d="M21.567 13.767c-.958 0-1.734.97-1.734 2.166L21.6 17.2l1.7-1.267c0-1.196-.776-2.166-1.733-2.166"/><path fill="var(--hop-RichIcon-placeholder-shadow, #2A2620)" fill-rule="evenodd" d="m20.346 15.686 1.248.895 1.194-.89c-.093-.887-.686-1.424-1.221-1.424s-1.126.535-1.22 1.419m-1.013.247c0-1.363.902-2.666 2.234-2.666S23.8 14.57 23.8 15.933v.251l-2.194 1.635-2.273-1.629z"/><path fill="var(--hop-RichIcon-placeholder-shadow, #2A2620)" d="M12.033 13.767c-.957 0-1.733.97-1.733 2.166L12 17.2l1.767-1.267c0-1.196-.776-2.166-1.734-2.166"/><path fill="var(--hop-RichIcon-placeholder-shadow, #2A2620)" fill-rule="evenodd" d="m10.812 15.692 1.194.889 1.248-.895c-.095-.884-.686-1.42-1.22-1.42-.536 0-1.13.538-1.222 1.426m-1.012.241c0-1.363.902-2.666 2.233-2.666 1.332 0 2.234 1.303 2.234 2.666v.257l-2.273 1.63L9.8 16.183z"/><path fill="var(--hop-RichIcon-placeholder-shadow, #2A2620)" d="M16.8 21.133c-.957 0-1.733.97-1.733 2.167l1.733 1.1 1.733-1.1c0-1.197-.776-2.167-1.733-2.167"/><path fill="var(--hop-RichIcon-placeholder-shadow, #2A2620)" fill-rule="evenodd" d="m15.582 23.035 1.218.773 1.218-.773c-.1-.873-.687-1.402-1.218-1.402s-1.118.529-1.218 1.402m-1.015.265c0-1.363.901-2.667 2.233-2.667s2.233 1.304 2.233 2.667v.275L16.8 24.992l-2.233-1.417z"/></svg>