<svg xmlns="http://www.w3.org/2000/svg" width="40" height="40" viewBox="0 0 40 40"><path fill="var(--hop-RichIcon-placeholder-background, #E5DED6)" d="M0 20C0 8.954 8.954 0 20 0s20 8.954 20 20-8.954 20-20 20S0 31.046 0 20"/><path fill="var(--hop-RichIcon-placeholder-shadow, #2A2620)" fill-rule="evenodd" d="M15.922 8.435a1.76 1.76 0 0 0-1.76 0l-4.546 2.624a1.8 1.8 0 0 0-.464.388L7.2 13.4a1.76 1.76 0 0 0-.63 1.35V20c0 .628.335 1.21.88 1.524l4.546 2.625c.168.096.348.164.532.2v4.859c0 .629.336 1.21.88 1.524l4.546 2.625a1.76 1.76 0 0 0 1.76 0l4.546-2.625c.183-.105.343-.241.474-.399l1.933-1.933h-.001a1.76 1.76 0 0 0 .641-1.359v-3.836l2.912-1.68a1.8 1.8 0 0 0 .493-.424l1.894-1.895a1.76 1.76 0 0 0 .66-1.373v-5.25a1.76 1.76 0 0 0-.88-1.524L27.84 8.435a1.76 1.76 0 0 0-1.76 0l-4.547 2.624a1.8 1.8 0 0 0-.532.474 1.8 1.8 0 0 0-.532-.474z"/><path fill="var(--hop-RichIcon-placeholder-fill, #fff)" d="M26.458 8.83a1 1 0 0 1 1 0l4.63 2.673a1 1 0 0 1 .5.866v5.345a1 1 0 0 1-.5.866l-4.63 2.673a1 1 0 0 1-1 0L21.83 18.58a1 1 0 0 1-.5-.866V12.37a1 1 0 0 1 .5-.866z"/><path fill="var(--hop-RichIcon-placeholder-shadow, #2A2620)" fill-rule="evenodd" d="M26.146 8.29a1.63 1.63 0 0 1 1.625 0l4.629 2.672c.503.29.813.826.813 1.407v5.345c0 .58-.31 1.117-.813 1.408l-4.63 2.672c-.502.29-1.121.29-1.624 0l-4.63-2.672a1.63 1.63 0 0 1-.812-1.408V12.37c0-.58.31-1.117.813-1.407zm1 1.082a.38.38 0 0 0-.375 0l-4.63 2.672a.38.38 0 0 0-.187.325v5.345c0 .134.072.258.188.325l4.629 2.673a.38.38 0 0 0 .375 0l4.629-2.673a.38.38 0 0 0 .188-.325V12.37a.38.38 0 0 0-.188-.325z"/><path fill="var(--hop-RichIcon-placeholder-fill, #fff)" d="M14.542 8.83a1 1 0 0 1 1 0l4.629 2.673a1 1 0 0 1 .5.866v5.345a1 1 0 0 1-.5.866l-4.63 2.673a1 1 0 0 1-1 0L9.914 18.58a1 1 0 0 1-.5-.866V12.37a1 1 0 0 1 .5-.866z"/><path fill="var(--hop-RichIcon-placeholder-shadow, #2A2620)" fill-rule="evenodd" d="M14.23 8.29a1.63 1.63 0 0 1 1.624 0l4.63 2.672c.502.29.812.826.812 1.407v5.345c0 .58-.31 1.117-.813 1.408l-4.629 2.672c-.503.29-1.122.29-1.625 0L9.6 19.122a1.63 1.63 0 0 1-.812-1.408V12.37c0-.58.31-1.117.812-1.407zm1 1.082a.38.38 0 0 0-.376 0l-4.629 2.672a.38.38 0 0 0-.187.325v5.345c0 .134.071.258.187.325l4.63 2.673a.38.38 0 0 0 .374 0l4.63-2.673a.38.38 0 0 0 .187-.325V12.37a.38.38 0 0 0-.188-.325z"/><path fill="var(--hop-RichIcon-placeholder-fill, #fff)" d="M20.5 18.039a1 1 0 0 1 1 0l4.63 2.672a1 1 0 0 1 .5.866v5.346a1 1 0 0 1-.5.866L21.5 30.46a1 1 0 0 1-1 0l-4.63-2.672a1 1 0 0 1-.5-.866v-5.346a1 1 0 0 1 .5-.866z"/><path fill="var(--hop-RichIcon-placeholder-shadow, #2A2620)" fill-rule="evenodd" d="M20.188 17.497a1.63 1.63 0 0 1 1.625 0l4.629 2.673c.502.29.812.827.812 1.407v5.346c0 .58-.31 1.117-.812 1.407l-4.63 2.673c-.502.29-1.122.29-1.625 0l-4.629-2.673a1.63 1.63 0 0 1-.812-1.407v-5.346c0-.58.31-1.117.812-1.407zm1 1.083a.38.38 0 0 0-.375 0l-4.63 2.673a.38.38 0 0 0-.187.324v5.346c0 .134.071.257.187.324l4.63 2.673a.38.38 0 0 0 .375 0l4.629-2.673a.38.38 0 0 0 .187-.324v-5.346a.38.38 0 0 0-.187-.324z"/><path fill="var(--hop-RichIcon-placeholder-shadow, #2A2620)" d="M28.583 13.958a1.625 1.625 0 1 1-3.25 0 1.625 1.625 0 0 1 3.25 0"/><path fill="var(--hop-RichIcon-placeholder-shadow, #2A2620)" fill-rule="evenodd" d="M26.958 12.958a1 1 0 1 0 0 2 1 1 0 0 0 0-2m-2.25 1a2.25 2.25 0 1 1 4.5 0 2.25 2.25 0 0 1-4.5 0"/><path fill="var(--hop-RichIcon-placeholder-shadow, #2A2620)" d="M22.625 23.167a1.625 1.625 0 1 1-3.25 0 1.625 1.625 0 0 1 3.25 0"/><path fill="var(--hop-RichIcon-placeholder-shadow, #2A2620)" fill-rule="evenodd" d="M21 22.167a1 1 0 1 0 0 2 1 1 0 0 0 0-2m-2.25 1a2.25 2.25 0 1 1 4.5 0 2.25 2.25 0 0 1-4.5 0"/><path fill="var(--hop-RichIcon-placeholder-shadow, #2A2620)" d="M16.667 13.958a1.625 1.625 0 1 1-3.25 0 1.625 1.625 0 0 1 3.25 0"/><path fill="var(--hop-RichIcon-placeholder-shadow, #2A2620)" fill-rule="evenodd" d="M15.042 12.958a1 1 0 1 0 0 2 1 1 0 0 0 0-2m-2.25 1a2.25 2.25 0 1 1 4.5 0 2.25 2.25 0 0 1-4.5 0"/><path fill="var(--hop-RichIcon-placeholder-shadow, #2A2620)" d="M26.958 17.208c-1.196 0-2.166 1.213-2.166 2.709L27 21.5l2.125-1.583c0-1.496-.97-2.709-2.167-2.709"/><path fill="var(--hop-RichIcon-placeholder-shadow, #2A2620)" fill-rule="evenodd" d="m25.433 19.607 1.56 1.119 1.492-1.111c-.116-1.11-.857-1.782-1.527-1.782-.668 0-1.407.67-1.525 1.774m-1.266.31c0-1.704 1.127-3.334 2.791-3.334 1.665 0 2.792 1.63 2.792 3.334v.313l-2.743 2.044-2.84-2.036z"/><path fill="var(--hop-RichIcon-placeholder-shadow, #2A2620)" d="M15.042 17.208c-1.197 0-2.167 1.213-2.167 2.709L15 21.5l2.208-1.583c0-1.496-.97-2.709-2.166-2.709"/><path fill="var(--hop-RichIcon-placeholder-shadow, #2A2620)" fill-rule="evenodd" d="m13.515 19.615 1.492 1.11 1.56-1.118c-.118-1.104-.857-1.774-1.525-1.774-.67 0-1.411.673-1.527 1.782m-1.265.302c0-1.704 1.127-3.334 2.792-3.334s2.791 1.63 2.791 3.334v.32l-2.84 2.037-2.743-2.044z"/><path fill="var(--hop-RichIcon-placeholder-shadow, #2A2620)" d="M21 26.417c-1.197 0-2.167 1.212-2.167 2.708L21 30.5l2.167-1.375c0-1.496-.97-2.708-2.167-2.708"/><path fill="var(--hop-RichIcon-placeholder-shadow, #2A2620)" fill-rule="evenodd" d="M19.477 28.793 21 29.76l1.523-.967c-.125-1.091-.86-1.751-1.523-1.751-.664 0-1.398.66-1.523 1.751m-1.269.332c0-1.704 1.127-3.333 2.792-3.333s2.792 1.63 2.792 3.333v.344L21 31.24l-2.792-1.771z"/></svg>