<svg xmlns="http://www.w3.org/2000/svg" width="24" height="24" viewBox="0 0 24 24"><path fill="var(--hop-Richicon-placeholder-shadow, #E5DED6)" d="M0 12C0 5.373 5.373 0 12 0s12 5.373 12 12-5.373 12-12 12S0 18.627 0 12"/><path fill="var(--hop-Richicon-placeholder-background, #2A2620)" fill-rule="evenodd" d="m16.567 11.624.453-.446.588-.58.032-.033q.126-.12.241-.255c1.354-1.58 1.096-4.131.928-5.131a.52.52 0 0 0-.511-.439c-1.014-.012-3.574.124-4.928 1.704l-.109.133c-.063-.674-.246-1.35-.626-1.943C11.51 2.884 8.993 2.4 7.986 2.272a.52.52 0 0 0-.483.201L6.436 3.608a.53.53 0 0 0-.141.228c-.303.968-.908 3.46.217 5.21 1.12 1.744 3.624 2.232 4.637 2.36l.01.218H7.652a.6.6 0 0 0-.39.146v-.003l-1.236 1.235a.54.54 0 0 0-.15.422c.112 1.361.611 1.94 1.086 2.49.4.462.782.904.902 1.777a.7.7 0 0 0 .038.153v2.58a.6.6 0 0 0 .6.6h7a.6.6 0 0 0 .456-.21l1.133-1.133a.6.6 0 0 0 .21-.457s-.118-1.707 0-2.58c.12-.872.54-1.468.94-1.93.475-.55.975-1.129 1.087-2.49.028-.33-.245-.6-.576-.6zM8.166 3.725c1.145.303 2.572.908 3.344 2.11.366.57.55 1.218.619 1.867a3 3 0 0 1 .149-.175l.002-.045c.043-.858-.082-1.678-.486-2.307s-1.099-1.084-1.897-1.401a8.4 8.4 0 0 0-1.635-.45 9 9 0 0 0-.096.401m9.774 3.387a8 8 0 0 0-.246-.863.52.52 0 0 0-.483-.348 10 10 0 0 0-.803.017 8.6 8.6 0 0 1 1.473-.173c.045.376.08.854.06 1.367m-6.677 5.512H8.139q.021.107.046.2H11.3l-.013-.054zm4.839 6.2h.176a28 28 0 0 1-.02-.535 17 17 0 0 1 0-1.13 3 3 0 0 0-.118.532.7.7 0 0 1-.038.154zm1.992-5.64a.58.58 0 0 0-.542-.36H14.86q.227-.087.448-.2h2.958c-.046.23-.106.41-.172.56"/><path fill="var(--hop-Richicon-placeholder-fill, #fff)" fill-rule="evenodd" d="M8.478 7.306c-.404-.629-.53-1.45-.486-2.308.032-.635.153-1.23.27-1.674a8.4 8.4 0 0 1 1.635.45c.798.317 1.493.772 1.897 1.401s.53 1.45.486 2.308a8 8 0 0 1-.146 1.141L9.583 4.7l-.839.545 2.421 3.725a8 8 0 0 1-.79-.262c-.798-.317-1.493-.773-1.897-1.401m6.573 3.481c.835-.205 1.585-.56 2.07-1.128.487-.568.724-1.363.799-2.22a8.4 8.4 0 0 0-.04-1.694 8.4 8.4 0 0 0-1.68.221c-.835.205-1.585.561-2.07 1.129-.487.567-.724 1.363-.799 2.219a8 8 0 0 0-.014 1.08l2.857-3.5.774.633-2.794 3.422c.285-.034.59-.086.897-.162m-6.913 1.837c.06.3.144.518.233.69.137.265.306.466.548.745l.064.074c.384.44 1.119 1.28 1.119 2.512v2.18h6.176a28 28 0 0 1-.02-.536c-.015-.535-.019-1.254.053-1.78.157-1.149.718-1.922 1.174-2.45.241-.28.41-.48.547-.745.09-.172.174-.39.234-.69z"/></svg>