<svg xmlns="http://www.w3.org/2000/svg" width="40" height="40" viewBox="0 0 40 40"><path fill="#E5DED6" d="M0 20C0 8.954 8.954 0 20 0s20 8.954 20 20-8.954 20-20 20S0 31.046 0 20"/><path fill="#2A2620" fill-rule="evenodd" d="m27.612 19.374.754-.743c.342-.337.703-.691.98-.967l.053-.056q.21-.201.403-.425c2.256-2.634 1.826-6.885 1.547-8.552a.87.87 0 0 0-.853-.73c-1.69-.021-5.957.206-8.213 2.84a6 6 0 0 0-.18.22c-.106-1.123-.41-2.25-1.045-3.237-1.875-2.917-6.07-3.726-7.747-3.937a.87.87 0 0 0-.806.335l-1.778 1.892c-.107.1-.19.23-.236.38-.505 1.613-1.512 5.766.362 8.683 1.868 2.906 6.04 3.72 7.73 3.935q.005.185.015.362h-5.845a1 1 0 0 0-.65.242v-.004l-2.059 2.058h.001a.9.9 0 0 0-.253.703c.188 2.27 1.02 3.233 1.812 4.15.666.77 1.303 1.508 1.502 2.962q.019.133.063.256v4.3a1 1 0 0 0 1 1h11.667a1 1 0 0 0 .76-.351l1.89-1.889a1 1 0 0 0 .35-.76s-.199-2.846 0-4.3.9-2.448 1.566-3.219c.791-.916 1.624-1.88 1.812-4.149.045-.55-.409-1-.961-1zM13.205 6.108c1.964.465 4.6 1.47 5.978 3.616.61.95.916 2.031 1.032 3.113a6 6 0 0 1 .68-.722c.022-1.345-.212-2.663-.888-3.715-.74-1.15-1.987-1.953-3.358-2.498-1.192-.473-2.38-.714-3.181-.832-.085.294-.178.645-.263 1.038m16.945 7.304a13 13 0 0 0-.66-2.997.86.86 0 0 0-.804-.58c-.74-.014-2.088.014-3.552.318A9.3 9.3 0 0 1 26.9 9.54c1.245-.306 2.455-.382 3.265-.39.117.802.227 2.01.116 3.287q-.043.494-.13.976m-11.437 7.212h-5.639q.054.417.136.75h5.622a1 1 0 0 1-.02-.09 16 16 0 0 1-.099-.66m8.123 11.167h.732l-.008-.15c-.016-.298-.035-.71-.048-1.17-.025-.893-.03-2.06.086-2.9l.004-.03c-.328.506-.588 1.105-.703 1.944a1.2 1.2 0 0 1-.063.256zm3.331-8.979a10 10 0 0 0 .047-.439c.045-.55-.409-1-.961-1h-4.487a7.3 7.3 0 0 0 1.455-.75h4.71c-.1.794-.291 1.34-.507 1.758a4 4 0 0 1-.257.431"/><path fill="#fff" d="M13.78 12.401c-.74-1.15-.95-2.618-.877-4.092.064-1.28.34-2.46.565-3.239.801.118 1.99.359 3.18.832 1.372.545 2.62 1.347 3.359 2.498.739 1.15.95 2.618.876 4.092-.05.991-.226 1.923-.407 2.654l-4.68-7.2-1.047.68 4.487 6.906c-.64-.14-1.368-.343-2.098-.633-1.371-.545-2.619-1.347-3.358-2.498m11.405 5.983c1.433-.352 2.778-.976 3.668-2.015.89-1.038 1.3-2.463 1.428-3.933.111-1.277 0-2.485-.116-3.286-.81.007-2.02.083-3.265.389-1.433.352-2.778.976-3.668 2.015-.89 1.038-1.3 2.463-1.428 3.933-.083.954-.043 1.868.032 2.605l5.281-6.469.968.79-5.158 6.318a14 14 0 0 0 2.258-.347m-12.111 2.24c.1.793.292 1.34.508 1.757.254.491.567.86.968 1.324l.102.117c.64.736 1.768 2.029 1.768 3.919v4.05h11.148l-.008-.15c-.016-.298-.035-.71-.048-1.17-.025-.893-.03-2.06.086-2.9.246-1.799 1.122-3.014 1.858-3.866.401-.464.714-.833.968-1.324.216-.417.408-.964.507-1.757z"/></svg>