<svg xmlns="http://www.w3.org/2000/svg" width="32" height="32" viewBox="0 0 32 32"><path fill="var(--hop-richicon-placeholder-foreground, #E5DED6)" d="M0 16C0 7.163 7.163 0 16 0s16 7.163 16 16-7.163 16-16 16S0 24.837 0 16"/><path fill="var(--hop-richicon-placeholder-background, #2A2620)" fill-rule="evenodd" d="M22.09 15.5c.16-.16.377-.373.603-.595l.826-.819q.169-.16.323-.34c1.805-2.107 1.46-5.508 1.237-6.841a.69.69 0 0 0-.682-.585c-1.352-.016-4.766.165-6.57 2.272q-.076.087-.145.177c-.085-.898-.328-1.8-.835-2.59-1.5-2.334-4.857-2.98-6.199-3.15a.69.69 0 0 0-.644.269L8.582 4.81a.7.7 0 0 0-.19.304c-.403 1.29-1.21 4.613.29 6.947 1.495 2.325 4.832 2.976 6.184 3.147q.005.149.012.29h-4.676a.8.8 0 0 0-.52.194v-.003l-1.647 1.646h.001a.72.72 0 0 0-.203.563c.15 1.815.817 2.586 1.45 3.319.533.617 1.043 1.206 1.202 2.37q.015.106.05.205v3.44a.8.8 0 0 0 .8.8h9.334a.8.8 0 0 0 .608-.281l1.511-1.511a.8.8 0 0 0 .28-.609s-.158-2.276 0-3.44c.16-1.163.72-1.957 1.253-2.574.634-.733 1.3-1.504 1.45-3.32.036-.44-.327-.799-.769-.799zM10.564 4.885c1.572.372 3.68 1.176 4.783 2.893.488.76.732 1.625.825 2.49a4.6 4.6 0 0 1 .545-.577c.017-1.076-.17-2.13-.712-2.972-.591-.92-1.59-1.562-2.686-1.998a11.7 11.7 0 0 0-2.545-.666c-.068.235-.142.516-.21.83M24.12 10.73a10.3 10.3 0 0 0-.529-2.397.69.69 0 0 0-.643-.463 13 13 0 0 0-2.84.254c.442-.21.92-.371 1.412-.492a11.7 11.7 0 0 1 2.612-.311c.093.641.182 1.607.093 2.628a8 8 0 0 1-.105.781m-9.15 5.77h-4.51q.041.334.108.6h4.498l-.016-.072q-.04-.226-.08-.528m6.499 8.933h.586l-.007-.12a37 37 0 0 1-.038-.936c-.02-.713-.024-1.647.068-2.319l.003-.024c-.261.404-.47.884-.561 1.555a1 1 0 0 1-.051.205zm2.665-7.182a8 8 0 0 0 .037-.351c.036-.44-.327-.8-.769-.8h-3.589a6 6 0 0 0 1.164-.6h3.768c-.08.635-.233 1.072-.406 1.406a4 4 0 0 1-.205.345"/><path fill="#fff" d="M11.024 9.921c-.591-.92-.76-2.095-.701-3.274a11.7 11.7 0 0 1 .451-2.591 11.7 11.7 0 0 1 2.545.666c1.097.436 2.095 1.077 2.686 1.998.592.92.76 2.094.702 3.273-.04.794-.181 1.539-.326 2.124l-3.744-5.76-.838.544 3.59 5.525a11 11 0 0 1-1.679-.507c-1.097-.436-2.095-1.078-2.686-1.998m9.124 4.786c1.146-.282 2.222-.78 2.934-1.612.712-.83 1.04-1.97 1.143-3.147.089-1.021 0-1.987-.093-2.628a11.7 11.7 0 0 0-2.612.311c-1.146.282-2.223.781-2.934 1.612-.712.83-1.04 1.97-1.143 3.147a11.3 11.3 0 0 0 .026 2.083l4.225-5.175.774.633-4.126 5.054c.539-.04 1.166-.12 1.806-.278M10.46 16.5c.079.634.233 1.07.405 1.405.204.393.454.688.775 1.059l.081.094c.513.588 1.415 1.622 1.415 3.135v3.24h8.919l-.007-.12a37 37 0 0 1-.038-.936c-.02-.714-.024-1.648.068-2.32.197-1.44.898-2.411 1.487-3.093.32-.371.57-.666.774-1.06.173-.333.327-.77.406-1.405z"/></svg>