<svg xmlns="http://www.w3.org/2000/svg" width="24" height="24" viewBox="0 0 24 24"><path fill="var(--hop-Richicon-placeholder-shadow, #E5DED6)" d="M0 12C0 5.373 5.373 0 12 0s12 5.373 12 12-5.373 12-12 12S0 18.627 0 12"/><path fill="var(--hop-Richicon-placeholder-background, #2A2620)" d="M14.577 16.761c0-.775.624-1.571 1.185-2.286.183-.234.359-.458.505-.67.578-.846.914-1.975.914-3.057 0-2.99-2.565-5.413-5.729-5.413s-5.728 2.423-5.728 5.413c0 1.187.404 2.164 1.09 3.056.2.26.45.531.705.808.647.701 1.33 1.441 1.33 2.149v2.924c0 .863 1.282 1.562 2.864 1.562s2.864-.7 2.864-1.562z"/><path fill="var(--hop-Richicon-placeholder-background, #2A2620)" fill-rule="evenodd" d="M6.814 13.804c.2.26.45.531.705.808.647.701 1.33 1.441 1.33 2.149v2.924c0 .863 1.282 1.562 2.864 1.562s2.864-.7 2.864-1.562V16.76c0-.775.624-1.571 1.185-2.286.183-.234.359-.458.505-.67.578-.846.914-1.975.914-3.057 0-2.99-2.565-5.413-5.729-5.413s-5.728 2.423-5.728 5.413c0 1.187.404 2.164 1.09 3.056m6.763 2.957v2.895c-.017.031-.083.127-.318.256-.345.188-.89.335-1.546.335-.657 0-1.202-.147-1.547-.335-.237-.13-.302-.227-.318-.256V16.76c0-.662-.312-1.232-.601-1.648-.291-.418-.663-.82-.97-1.155l-.023-.024a12 12 0 0 1-.647-.74c-.576-.748-.883-1.516-.883-2.446 0-2.385 2.062-4.413 4.728-4.413s4.73 2.028 4.73 4.413c0 .894-.283 1.823-.74 2.491-.124.181-.28.379-.467.619l-.018.023c-.269.342-.6.765-.86 1.208-.264.45-.52 1.025-.52 1.672m-3.733 2.885v.001zm3.737 0v.001z"/><path fill="var(--hop-Richicon-placeholder-fill, #fff)" fill-rule="evenodd" d="M16.733 13.433c-.56.715-1.185 1.511-1.185 2.286v2.924c0 .863-1.282 1.563-2.864 1.563s-2.865-.7-2.865-1.563V15.72c0-.707-.682-1.447-1.33-2.149a12 12 0 0 1-.704-.808c-.686-.892-1.09-1.869-1.09-3.056 0-2.99 2.564-5.413 5.728-5.413s5.73 2.424 5.73 5.413c0 1.082-.337 2.21-.915 3.057a13 13 0 0 1-.505.67"/><path fill="var(--hop-Richicon-placeholder-background, #2A2620)" fill-rule="evenodd" d="M11.506 3.284V1.8h1v1.484zM6.243 5.398l-1.049-1.05.708-.706L6.95 4.69zm11.527 0 1.048-1.05-.707-.706-1.049 1.049zM4.483 10.212H3v-1h1.483zm16.53 0h-1.484v-1h1.483zM12.79 9.108c-.05-.042-.137-.085-.29-.085-.18 0-.312.094-.373.274-.065.191-.058.535.23.97q.058.085.147.172.083-.095.168-.204c.237-.302.301-.655.246-.894a.4.4 0 0 0-.128-.233m.638 1.783.031-.04c.4-.508.565-1.165.434-1.734a1.4 1.4 0 0 0-.462-.776 1.42 1.42 0 0 0-.93-.318 1.37 1.37 0 0 0-1.32.951c-.189.554-.072 1.22.343 1.846q.044.065.092.126c-.2.002-.458-.053-.797-.221l-.449-.222-.443.897.449.221c.75.37 1.39.412 1.944.188a2 2 0 0 0 .269-.134q.176.078.359.132c.582.168 1.3.158 1.874-.313l.386-.318-.635-.773-.386.318c-.193.159-.457.216-.759.17"/><path fill="var(--hop-Richicon-placeholder-background, #2A2620)" d="M14.23 17.084c.185.1.314.182.348.227l-.005.006h.975v-.006c0-.863-1.282-1.562-2.864-1.562s-2.865.7-2.865 1.562v.006h.982l-.004-.006c.034-.045.155-.126.34-.227.345-.188.89-.335 1.547-.335s1.201.147 1.546.335"/><path fill="var(--hop-Richicon-placeholder-background, #2A2620)" fill-rule="evenodd" d="M14.529 18.643c-.034-.045-.114-.126-.299-.227-.345-.188-.89-.335-1.546-.335-.657 0-1.202.147-1.547.335-.185.101-.265.182-.299.227.034.045.114.126.3.227.344.188.889.335 1.546.335.656 0 1.201-.147 1.546-.335a.9.9 0 0 0 .3-.227m-3.714.039v-.002zm3.737-.002v.002zm-1.868 1.526c1.582 0 2.864-.7 2.864-1.563s-1.282-1.562-2.864-1.562-2.865.7-2.865 1.562 1.283 1.563 2.865 1.563"/><path fill="var(--hop-Richicon-placeholder-background, #2A2620)" d="M17.152 9.706c0 .894-.282 1.824-.74 2.492a13 13 0 0 1-.475.63c-.183.233-.394.502-.588.782-.364.526-.8 1.268-.8 2.11v1.895h-.002v1h1.001V15.72c0-.774.624-1.57 1.185-2.286.183-.233.36-.458.505-.67.578-.846.914-1.975.914-3.057 0-2.99-2.565-5.413-5.729-5.413S6.695 6.717 6.695 9.706c0 1.187.404 2.164 1.09 3.057.2.26.45.53.705.807.647.702 1.33 1.442 1.33 2.15v2.895h.999V15.72c0-.892-.572-1.653-.986-2.146a18 18 0 0 0-.61-.682l-.086-.094a10 10 0 0 1-.56-.644c-.575-.749-.882-1.517-.882-2.447 0-2.384 2.063-4.413 4.728-4.413 2.666 0 4.73 2.029 4.73 4.413"/></svg>