<svg xmlns="http://www.w3.org/2000/svg" width="40" height="40" viewBox="0 0 40 40"><path fill="var(--hop-Richicon-placeholder-shadow, #E5DED6)" d="M0 20C0 8.954 8.954 0 20 0s20 8.954 20 20-8.954 20-20 20S0 31.046 0 20"/><path fill="var(--hop-Richicon-placeholder-background, #2A2620)" fill-rule="evenodd" d="M26.27 24.125c-.934 1.191-1.975 2.519-1.975 3.81v4.174h1.23l-1.41 1.41c-.568 1.093-2.41 1.893-4.594 1.893-2.637 0-4.774-1.166-4.774-2.604v-4.873c0-1.18-1.137-2.412-2.216-3.582-.425-.46-.841-.912-1.175-1.346-1.143-1.487-1.817-3.116-1.817-5.094 0-2.212.843-4.238 2.242-5.808h-.008l.073-.073q.293-.321.615-.614l1.37-1.371v.333a9.9 9.9 0 0 1 5.256-1.489c5.273 0 9.548 4.04 9.548 9.022 0 1.803-.56 3.685-1.524 5.094-.243.354-.536.729-.841 1.118"/><path fill="var(--hop-Richicon-placeholder-background, #2A2620)" fill-rule="evenodd" d="M23.045 32.867v-4.932c0-.97.386-1.854.81-2.575.419-.715.956-1.4 1.407-1.976l.024-.03c.311-.398.578-.739.793-1.053.813-1.188 1.306-2.82 1.306-4.388 0-4.226-3.647-7.772-8.298-7.772-1.705 0-3.282.48-4.594 1.3l-.764.477-.405.404-.021.02q-.28.255-.532.532l-.02.021-.002.002-.035.04c-1.208 1.355-1.925 3.09-1.925 4.976 0 1.657.553 3.024 1.558 4.332.293.381.668.789 1.103 1.26l.03.033c.518.562 1.12 1.215 1.59 1.888.466.67.927 1.534.927 2.509v3.576h.042l-.042 1.29v.007c0 .047.052.365.747.744.647.353 1.627.61 2.777.61.947 0 1.787-.175 2.42-.44.662-.276.968-.593 1.065-.779zm1.25-.758h1.23l-1.41 1.41c-.568 1.093-2.41 1.893-4.594 1.893-2.608 0-4.728-1.141-4.773-2.558v-4.919c0-1.18-1.138-2.412-2.217-3.582-.425-.46-.841-.912-1.175-1.346-1.143-1.487-1.817-3.116-1.817-5.094a8.6 8.6 0 0 1 1.306-4.558q.41-.66.928-1.242l.004-.004.004-.004h-.008l.073-.073q.293-.321.615-.614l1.37-1.371v.333a9.6 9.6 0 0 1 1.25-.659 10 10 0 0 1 4.006-.83c5.273 0 9.548 4.04 9.548 9.022 0 1.803-.56 3.685-1.524 5.094-.243.354-.536.729-.841 1.118-.934 1.191-1.975 2.519-1.975 3.81z"/><path fill="var(--hop-Richicon-placeholder-fill, #fff)" d="M27.888 22.389c-.934 1.191-1.975 2.518-1.975 3.81v4.873c0 1.438-2.137 2.604-4.773 2.604-2.637 0-4.774-1.166-4.774-2.604v-4.873c0-1.18-1.138-2.413-2.216-3.582-.426-.46-.842-.912-1.176-1.346-1.142-1.487-1.816-3.116-1.816-5.094 0-4.982 4.274-9.022 9.547-9.022s9.548 4.04 9.548 9.022c0 1.803-.56 3.684-1.524 5.094a22 22 0 0 1-.841 1.118"/><path fill="var(--hop-Richicon-placeholder-background, #2A2620)" d="M19.386 3v2.472h1.25V3zM8.805 7.1l1.748 1.749.884-.884-1.748-1.748zm20.663 1.749L31.216 7.1l-.884-.884-1.748 1.748zM5 16.811h2.472v-1.25H5zm30.02 0h-2.472v-1.25h2.473z"/><path fill="var(--hop-Richicon-placeholder-background, #2A2620)" fill-rule="evenodd" d="M22.268 17.958q-.123.158-.264.324c.677.192 1.315.124 1.773-.253l.483-.397.794.966-.483.397c-.885.727-2.004.752-2.933.483a4.5 4.5 0 0 1-.671-.255q-.24.154-.512.266c-.854.344-1.86.291-3.07-.307l-.56-.277.553-1.12.56.276c.834.412 1.412.447 1.84.337a3 3 0 0 1-.397-.48c-.666-1.003-.838-2.046-.55-2.894.294-.862 1.05-1.445 2.002-1.444.556 0 1.042.166 1.418.482.373.311.598.734.701 1.18.202.879-.052 1.91-.684 2.715m-1.435-3.128c.299 0 .49.085.617.19.13.109.232.275.284.502.107.466-.021 1.118-.45 1.664a7 7 0 0 1-.427.504 2.2 2.2 0 0 1-.435-.464c-.507-.764-.542-1.404-.407-1.799.129-.38.425-.598.818-.598"/><path fill="var(--hop-Richicon-placeholder-background, #2A2620)" fill-rule="evenodd" d="M25.913 26.199v4.873c0 1.438-2.137 2.604-4.773 2.604-2.637 0-4.774-1.166-4.774-2.604v-4.873c0-1.18-1.138-2.413-2.216-3.582-.426-.46-.842-.912-1.176-1.346-1.142-1.487-1.816-3.116-1.816-5.094 0-4.982 4.274-9.022 9.547-9.022s9.548 4.04 9.548 9.022c0 1.803-.56 3.684-1.524 5.094a22 22 0 0 1-.841 1.118c-.934 1.191-1.975 2.518-1.975 3.81m3.09-10.022c0 1.569-.493 3.2-1.305 4.388-.22.32-.49.666-.808 1.07-.307.392-.65.83-.965 1.285-.601.867-1.262 2.013-1.262 3.279v1.14c-.872-.52-2.128-.847-3.523-.847s-2.652.326-3.524.847v-1.14c0-1.321-.855-2.485-1.546-3.309-.325-.387-.679-.77-1.004-1.122l-.145-.158a18 18 0 0 1-.956-1.1c-1.005-1.31-1.557-2.676-1.557-4.333 0-4.226 3.647-7.772 8.297-7.772s8.298 3.546 8.298 7.772M17.616 29.315c.872-.52 2.128-.847 3.524-.847s2.65.326 3.523.847v-.224c-.003-.06-.071-.371-.746-.74-.648-.352-1.627-.61-2.777-.61s-2.13.258-2.778.61c-.694.38-.746.697-.746.745zm7.047 1.757c0 .047-.052.365-.746.744-.648.353-1.627.61-2.777.61s-2.13-.257-2.778-.61c-.694-.38-.746-.697-.746-.744s.052-.365.746-.744c.648-.353 1.627-.61 2.778-.61 1.15 0 2.13.257 2.777.61.694.379.746.697.746.744"/></svg>