<svg xmlns="http://www.w3.org/2000/svg" width="32" height="32" viewBox="0 0 32 32"><path fill="#E5DED6" d="M0 16C0 7.163 7.163 0 16 0s16 7.163 16 16-7.163 16-16 16S0 24.837 0 16"/><path fill="#2A2620" stroke="#2A2620" d="M18.936 25.724v.5h.237l-.23.23-.056.056-.036.07c-.104.203-.31.42-.637.622l-.003.001c-.604.371-1.529.626-2.594.626-.988 0-1.857-.219-2.461-.549-.624-.34-.858-.727-.858-1.034v-3.898c0-.626-.298-1.213-.653-1.721-.355-.51-.817-1.011-1.24-1.47l-.012-.013a16 16 0 0 1-.912-1.043c-.859-1.118-1.35-2.316-1.35-3.77 0-1.745.707-3.338 1.874-4.537l.434-.445.447-.447v.065l.744-.416a7.44 7.44 0 0 1 3.64-.938c3.97 0 7.138 3.034 7.138 6.718 0 1.348-.421 2.753-1.132 3.792a17 17 0 0 1-.654.868l-.01.014c-.367.467-.779.993-1.097 1.536-.32.545-.579 1.16-.579 1.807z"/><path fill="#fff" d="M22.31 17.911c-.747.953-1.58 2.015-1.58 3.048v3.898c0 1.15-1.71 2.084-3.818 2.084-2.11 0-3.82-.933-3.82-2.084l.001-.037v-3.86c0-.944-.91-1.93-1.773-2.866-.34-.37-.674-.73-.94-1.077-.915-1.19-1.454-2.493-1.454-4.075 0-3.986 3.42-7.218 7.638-7.218 4.219 0 7.639 3.232 7.639 7.218 0 1.442-.448 2.947-1.22 4.075-.194.283-.429.583-.673.894"/><path fill="#2A2620" d="M15.508 2.4v1.978h1V2.4zM7.044 5.68l1.398 1.4.707-.708-1.398-1.399zm16.531 1.4 1.398-1.4-.707-.707-1.399 1.399zM4 13.45h1.978v-1H4zm24.017 0h-1.978v-1h1.978z"/><path fill="#2A2620" fill-rule="evenodd" d="M17.815 14.366a8 8 0 0 1-.212.26c.542.153 1.052.099 1.419-.203l.386-.317.635.773-.386.317c-.708.582-1.603.601-2.347.386a3.6 3.6 0 0 1-.536-.204 2.5 2.5 0 0 1-.41.213c-.684.276-1.488.233-2.456-.245l-.448-.222.443-.896.448.221c.667.33 1.13.357 1.471.27a2.5 2.5 0 0 1-.317-.385c-.533-.802-.67-1.637-.44-2.315.235-.69.84-1.155 1.602-1.155.444 0 .833.133 1.134.385.298.25.479.587.56.944.162.704-.041 1.529-.546 2.173m-1.149-2.502c.24 0 .393.068.494.152a.72.72 0 0 1 .227.402c.086.373-.017.894-.36 1.33a6 6 0 0 1-.341.404 1.7 1.7 0 0 1-.349-.371c-.405-.61-.433-1.123-.325-1.44.103-.303.34-.477.654-.477"/><path fill="#2A2620" fill-rule="evenodd" d="M20.73 23.26v-2.3c0-1.034.833-2.096 1.58-3.049.244-.311.48-.611.673-.894.772-1.128 1.22-2.633 1.22-4.075 0-3.986-3.42-7.218-7.639-7.218-4.218 0-7.638 3.232-7.638 7.218 0 1.582.54 2.885 1.453 4.075.267.347.6.708.94 1.077.863.935 1.773 1.922 1.773 2.865v3.898c0 1.15 1.71 2.084 3.82 2.084s3.819-.933 3.819-2.084v-1.596m1.428-6.808c.65-.95 1.045-2.256 1.045-3.51 0-3.381-2.918-6.218-6.639-6.218s-6.638 2.837-6.638 6.218c0 1.325.442 2.419 1.246 3.465.205.267.465.555.765.881l.116.126c.26.282.543.589.802.898.554.66 1.237 1.59 1.237 2.647v.912c.699-.416 1.703-.678 2.82-.678s2.12.261 2.819.678v-.912c0-1.013.528-1.93 1.009-2.623.251-.363.527-.714.772-1.027.254-.324.471-.602.646-.857M19.73 23.28l-.001.008v.164c-.698-.417-1.702-.678-2.818-.678s-2.121.261-2.82.678v-.175c0-.038.042-.293.598-.596.518-.282 1.301-.488 2.222-.488.92 0 1.704.206 2.221.488.54.295.595.543.598.592zm-.598 2.173c.556-.303.598-.558.598-.596s-.042-.292-.598-.595c-.517-.282-1.301-.488-2.221-.488s-1.704.206-2.222.488c-.556.303-.598.558-.598.595 0 .038.042.293.598.596.518.282 1.301.488 2.222.488.92 0 1.704-.206 2.221-.488"/></svg>