<svg xmlns="http://www.w3.org/2000/svg" width="40" height="40" viewBox="0 0 40 40"><path fill="var(--hop-Richicon-placeholder-shadow, #E5DED6)" d="M0 20C0 8.954 8.954 0 20 0s20 8.954 20 20-8.954 20-20 20S0 31.046 0 20"/><path fill="var(--hop-Richicon-placeholder-background, #2A2620)" d="M29.138 29.138A12.98 12.98 0 0 0 34 19c0-7.18-5.82-13-13-13-4.1 0-7.755 1.897-10.138 4.862C8.5 13.5 6 16.9 6 21c0 7.18 5.82 13 13 13 4.1 0 7-2.5 10.138-4.862"/><path fill="#fff" d="M32.75 19c0 6.49-5.26 11.75-11.75 11.75S9.25 25.49 9.25 19 14.51 7.25 21 7.25 32.75 12.51 32.75 19"/><path fill="var(--hop-Richicon-placeholder-background, #2A2620)" fill-rule="evenodd" d="M21.625 26.125v-8.25h-1.25v8.25z"/><path fill="var(--hop-Richicon-placeholder-background, #2A2620)" d="M23 14a2 2 0 1 0-4 0 2 2 0 0 0 4 0"/></svg>