<svg xmlns="http://www.w3.org/2000/svg" width="24" height="24" viewBox="0 0 24 24"><path fill="#E5DED6" d="M0 12C0 5.373 5.373 0 12 0s12 5.373 12 12-5.373 12-12 12S0 18.627 0 12"/><path fill="#2A2620" d="M17.483 17.483A7.8 7.8 0 1 0 6.517 6.517C5.1 8.1 3.6 10.14 3.6 12.6a7.8 7.8 0 0 0 7.8 7.8c2.46 0 4.2-1.5 6.083-2.917"/><path fill="#fff" d="M19.4 11.4a6.8 6.8 0 1 1-13.6 0 6.8 6.8 0 0 1 13.6 0"/><path fill="#2A2620" fill-rule="evenodd" d="M13.1 15.8v-5.2h-1v5.2z"/><path fill="#2A2620" d="M13.8 8.4a1.2 1.2 0 1 0-2.4 0 1.2 1.2 0 0 0 2.4 0"/></svg>