<svg xmlns="http://www.w3.org/2000/svg" width="32" height="32" viewBox="0 0 32 32"><path fill="var(--hop-Richicon-placeholder-shadow, #E5DED6)" d="M0 16C0 7.163 7.163 0 16 0s16 7.163 16 16-7.163 16-16 16S0 24.837 0 16"/><path fill="var(--hop-Richicon-placeholder-background, #2A2620)" d="M23.31 23.31a10.38 10.38 0 0 0 3.89-8.11c0-5.744-4.656-10.4-10.4-10.4a10.38 10.38 0 0 0-8.11 3.89C6.8 10.8 4.8 13.52 4.8 16.8c0 5.744 4.656 10.4 10.4 10.4 3.28 0 5.6-2 8.11-3.89"/><path fill="#fff" d="M26.2 15.2a9.4 9.4 0 1 1-18.8 0 9.4 9.4 0 1 1 18.8 0"/><path fill="var(--hop-Richicon-placeholder-background, #2A2620)" fill-rule="evenodd" d="M17.3 20.9v-6.6h-1v6.6z"/><path fill="var(--hop-Richicon-placeholder-background, #2A2620)" d="M18.4 11.2a1.6 1.6 0 1 0-3.2 0 1.6 1.6 0 0 0 3.2 0"/></svg>