<svg xmlns="http://www.w3.org/2000/svg" width="24" height="24" viewBox="0 0 24 24"><path fill="var(--hop-richicon-placeholder-foreground, #E5DED6)" d="M0 12C0 5.373 5.373 0 12 0s12 5.373 12 12-5.373 12-12 12S0 18.627 0 12"/><path fill="var(--hop-richicon-placeholder-background, #2A2620)" d="m11.682 14.541 4.782-5.961-.78-.626-4.433 5.527-1.898-1.896-.707.708 2.292 2.29a.5.5 0 0 0 .744-.042"/><path fill="var(--hop-richicon-placeholder-background, #2A2620)" fill-rule="evenodd" d="M17.293 17.014c.805-.742 1.436-1.572 1.864-2.507h.643c.659 0 1.025-.258 1.81-1.03.393-.388.861-.899.861-1.52V10.93a1.6 1.6 0 0 0-1.6-1.6h-1.384a7.25 7.25 0 0 0-6.93-5.129c-2.284 0-4.484 1.091-6.128 3.064-.597.716-1.091 1.37-1.462 2.065h-.724c-.692 0-1.378.618-1.825 1.095-.41.404-.725.994-.725 1.576v1.114c0 .77.623 1.393 1.393 1.393h1.38a7.246 7.246 0 0 0 6.977 5.293c2.284 0 4.38-1.191 5.85-2.786m-4.736.672a6.245 6.245 0 0 0 6.144-7.357 6.245 6.245 0 0 0-12.288 2.228 6.245 6.245 0 0 0 6.144 5.129m-7.243-6.243q.001.568.085 1.114H4.243a.6.6 0 0 1-.6-.6V10.93a.6.6 0 0 1 .6-.6h1.156a7 7 0 0 0-.085 1.114m14.486 0q-.001.568-.085 1.114h1.156a.6.6 0 0 0 .6-.6V10.93a.6.6 0 0 0-.6-.6h-1.156q.084.545.085 1.114"/><path fill="#fff" fill-rule="evenodd" d="M12.557 17.686a6.245 6.245 0 0 0 6.144-7.357 6.245 6.245 0 0 0-12.288 2.228 6.245 6.245 0 0 0 6.144 5.129m-.875-3.145 4.782-5.961-.78-.626-4.433 5.527-1.898-1.896-.707.708 2.292 2.29a.5.5 0 0 0 .744-.042"/><path fill="#fff" d="M5.314 11.443q.001.568.085 1.114H4.243a.6.6 0 0 1-.6-.6V10.93a.6.6 0 0 1 .6-.6h1.156a7 7 0 0 0-.085 1.114m14.401 1.113a7.3 7.3 0 0 0 0-2.228h1.156a.6.6 0 0 1 .6.6v1.028a.6.6 0 0 1-.6.6z"/></svg>