<svg xmlns="http://www.w3.org/2000/svg" width="40" height="40" viewBox="0 0 40 40"><path fill="var(--hop-RichIcon-placeholder-background, #E5DED6)" d="M0 20C0 8.954 8.954 0 20 0s20 8.954 20 20-8.954 20-20 20S0 31.046 0 20"/><path fill="var(--hop-RichIcon-placeholder-shadow, #2A2620)" d="M31.928 24.179c-.713 1.557-1.765 2.942-3.107 4.178-2.45 2.658-5.943 4.643-9.75 4.643-5.54 0-10.21-3.733-11.628-8.821h-2.3a2.32 2.32 0 0 1-2.322-2.322V20c0-.97.64-1.6 1.323-2.273q.177-.174.353-.353a10 10 0 0 0 .255-.276C5.25 16.542 5.898 15.82 7 15.82h1.138c.63-1.26 1.504-2.427 2.576-3.714 1.505-1.805 3.289-3.168 5.222-4.03a12 12 0 0 1 6.02-1.034c5.084.429 9.271 4.008 10.601 8.778h2.3a2.32 2.32 0 0 1 2.322 2.322V20c0 1.137-.433 1.57-1.234 2.358l-.142.14c-1.307 1.288-1.705 1.68-2.803 1.68z"/><path fill="var(--hop-RichIcon-placeholder-fill, #fff)" fill-rule="evenodd" d="M20.929 29.893c5.976 0 10.821-4.845 10.821-10.822S26.905 8.25 20.929 8.25c-5.977 0-10.822 4.845-10.822 10.821 0 5.977 4.845 10.822 10.822 10.822m-1.622-5.788 7.84-9.773-.976-.782-7.403 9.23-3.18-3.177-.883.885 3.673 3.668a.625.625 0 0 0 .929-.05"/><path fill="var(--hop-RichIcon-placeholder-fill, #fff)" d="M8.857 19.071q.001.948.142 1.858H7.071a1 1 0 0 1-1-1v-1.715a1 1 0 0 1 1-1H9a12 12 0 0 0-.142 1.857m24.142 0q0-.947-.142-1.857h1.928a1 1 0 0 1 1 1v1.715a1 1 0 0 1-1 1h-1.928q.142-.91.142-1.858"/></svg>