<svg xmlns="http://www.w3.org/2000/svg" width="40" height="40" viewBox="0 0 40 40"><path fill="var(--hop-RichIcon-placeholder-background, #E5DED6)" d="M0 20C0 8.954 8.954 0 20 0s20 8.954 20 20-8.954 20-20 20S0 31.046 0 20"/><path fill="var(--hop-RichIcon-placeholder-shadow, #2A2620)" fill-rule="evenodd" d="m20 33-.68 1.05-.004-.003-.007-.005-.026-.017-.093-.062q-.121-.081-.338-.233a35 35 0 0 1-4.747-4.036C11.56 27.089 8.75 23.28 8.75 19c0-6.213 5.037-11.25 11.25-11.25S31.25 12.787 31.25 19c0 4.279-2.81 8.088-5.356 10.695a35 35 0 0 1-4.746 4.035 21 21 0 0 1-.43.295l-.027.017-.007.005-.005.002zm0 0-.68 1.05.68.44.68-.44z"/><path fill="var(--hop-RichIcon-placeholder-shadow, #2A2620)" d="M11.98 11.126 14 9.106v2.03z"/><path fill="var(--hop-RichIcon-placeholder-fill, #fff)" d="M32 17c0 7.523-10 14-10 14s-10-6.477-10-14c0-5.523 4.477-10 10-10s10 4.477 10 10"/><path fill="var(--hop-RichIcon-placeholder-shadow, #2A2620)" fill-rule="evenodd" d="M21.32 32.05 22 31l.68 1.05-.68.44zM22 31s-10-6.477-10-14c0-5.523 4.477-10 10-10s10 4.477 10 10c0 7.523-10 14-10 14m.68 1.05L22 31l-.68 1.05-.004-.003-.007-.005-.026-.017-.093-.062q-.121-.081-.338-.233a35 35 0 0 1-4.747-4.036C13.56 25.089 10.75 21.28 10.75 17c0-6.213 5.037-11.25 11.25-11.25S33.25 10.787 33.25 17c0 4.279-2.81 8.088-5.356 10.695a35 35 0 0 1-4.746 4.035 21 21 0 0 1-.43.295l-.027.017-.007.005z"/><path fill="var(--hop-RichIcon-placeholder-shadow, #2A2620)" d="M25 17a3 3 0 1 1-6 0 3 3 0 0 1 6 0"/></svg>