<svg xmlns="http://www.w3.org/2000/svg" width="24" height="24" viewBox="0 0 24 24"><path fill="var(--hop-RichIcon-placeholder-background, #E5DED6)" d="M0 12C0 5.373 5.373 0 12 0s12 5.373 12 12-5.373 12-12 12S0 18.627 0 12"/><path fill="var(--hop-RichIcon-placeholder-shadow, #2A2620)" fill-rule="evenodd" d="m12 19.8-.408.63-.002-.002-.005-.003-.015-.01-.056-.037-.202-.14a21 21 0 0 1-2.848-2.421C6.935 16.253 5.25 13.967 5.25 11.4a6.75 6.75 0 0 1 13.5 0c0 2.567-1.686 4.853-3.213 6.417a21 21 0 0 1-3.107 2.598l-.015.01-.005.003-.002.002zm0 0-.408.63.408.264.408-.264z"/><path fill="var(--hop-RichIcon-placeholder-shadow, #2A2620)" d="m6.705 7.221.78-1.052.205.952z"/><path fill="var(--hop-RichIcon-placeholder-fill, #fff)" d="M19.2 10.2c0 4.514-6 8.4-6 8.4s-6-3.886-6-8.4a6 6 0 0 1 12 0"/><path fill="var(--hop-RichIcon-placeholder-shadow, #2A2620)" fill-rule="evenodd" d="m12.656 19.44.544-.84.544.84-.544.351zm.544-.84s-6-3.886-6-8.4a6 6 0 0 1 12 0c0 4.514-6 8.4-6 8.4m.544.839L13.2 18.6l-.544.839-.003-.002-.005-.003-.016-.01-.058-.039-.206-.142a21 21 0 0 1-2.883-2.451C7.948 15.217 6.2 12.87 6.2 10.2a7 7 0 0 1 14 0c0 2.67-1.748 5.018-3.285 6.591a21 21 0 0 1-3.09 2.594l-.057.038-.017.011-.005.003z"/><path fill="var(--hop-RichIcon-placeholder-shadow, #2A2620)" d="M15 10.2a1.8 1.8 0 1 1-3.6 0 1.8 1.8 0 0 1 3.6 0"/></svg>