<svg xmlns="http://www.w3.org/2000/svg" width="32" height="32" viewBox="0 0 32 32"><path fill="var(--hop-RichIcon-placeholder-background, #E5DED6)" d="M0 16C0 7.163 7.163 0 16 0s16 7.163 16 16-7.163 16-16 16S0 24.837 0 16"/><path fill="var(--hop-RichIcon-placeholder-shadow, #2A2620)" fill-rule="evenodd" d="m16 26.4-.544.84-.003-.003-.006-.004-.02-.013-.075-.05-.27-.186a28 28 0 0 1-3.797-3.229C9.248 21.672 7 18.624 7 15.2a9 9 0 1 1 18 0c0 3.423-2.248 6.47-4.285 8.556a28 28 0 0 1-4.067 3.414l-.074.05-.021.013-.006.004-.003.002zm0 0-.544.84.544.352.544-.353z"/><path fill="var(--hop-RichIcon-placeholder-shadow, #2A2620)" d="M9.584 8.901 11.2 7.285V8.91z"/><path fill="var(--hop-RichIcon-placeholder-fill, #fff)" d="M25.6 13.6c0 6.018-8 11.2-8 11.2s-8-5.182-8-11.2a8 8 0 1 1 16 0"/><path fill="var(--hop-RichIcon-placeholder-shadow, #2A2620)" fill-rule="evenodd" d="m17.056 25.64.544-.84.544.84-.544.351zm.544-.84s-8-5.182-8-11.2a8 8 0 1 1 16 0c0 6.018-8 11.2-8 11.2m.544.84-.544-.84-.544.84-.003-.003-.006-.004-.02-.013a12 12 0 0 1-.345-.236 28 28 0 0 1-3.797-3.229C10.848 20.07 8.6 17.024 8.6 13.6a9 9 0 1 1 18 0c0 3.423-2.248 6.47-4.285 8.556a28 28 0 0 1-4.067 3.414l-.074.05-.021.013-.006.004z"/><path fill="var(--hop-RichIcon-placeholder-shadow, #2A2620)" d="M20 13.6a2.4 2.4 0 1 1-4.8 0 2.4 2.4 0 0 1 4.8 0"/></svg>