<svg xmlns="http://www.w3.org/2000/svg" width="24" height="24" viewBox="0 0 24 24"><path fill="var(--hop-Richicon-placeholder-shadow, #E5DED6)" d="M0 12C0 5.373 5.373 0 12 0s12 5.373 12 12-5.373 12-12 12S0 18.627 0 12"/><path fill="var(--hop-Richicon-placeholder-background, #2A2620)" d="M7.697 4.2a1.2 1.2 0 0 0-.849.351L5.751 5.648a1.2 1.2 0 0 0-.351.849V18.6a1.2 1.2 0 0 0 1.2 1.2h9.703a1.2 1.2 0 0 0 .848-.352l1.097-1.096a1.2 1.2 0 0 0 .352-.849V5.4a1.2 1.2 0 0 0-1.2-1.2z"/><path fill="var(--hop-Richicon-placeholder-fill, #fff)" fill-rule="evenodd" d="M17.4 5.2H7.8a.2.2 0 0 0-.2.2v12c0 .11.09.2.2.2h9.6a.2.2 0 0 0 .2-.2v-12a.2.2 0 0 0-.2-.2M9.9 8.7a.9.9 0 1 0 0-1.8.9.9 0 0 0 0 1.8m2.1-.4h4.2v-1H12zm0 3.6h4.2v-1H12zm4.2 3.6H12v-1h4.2zm-6.3-3.2a.9.9 0 1 0 0-1.8.9.9 0 0 0 0 1.8m.9 2.7A.9.9 0 1 1 9 15a.9.9 0 0 1 1.8 0"/></svg>