<svg xmlns="http://www.w3.org/2000/svg" width="40" height="40" viewBox="0 0 40 40"><path fill="#E5DED6" d="M0 20C0 8.954 8.954 0 20 0s20 8.954 20 20-8.954 20-20 20S0 31.046 0 20"/><path fill="#2A2620" d="M12.828 7a2 2 0 0 0-1.414.586L9.586 9.414A2 2 0 0 0 9 10.828V31a2 2 0 0 0 2 2h16.172a2 2 0 0 0 1.414-.586l1.828-1.828A2 2 0 0 0 31 29.172V9a2 2 0 0 0-2-2z"/><path fill="#fff" fill-rule="evenodd" d="M29 8.25H13a.75.75 0 0 0-.75.75v20c0 .414.336.75.75.75h16a.75.75 0 0 0 .75-.75V9a.75.75 0 0 0-.75-.75M16.5 14.5a1.5 1.5 0 1 0 0-3 1.5 1.5 0 0 0 0 3m3.5-.875h7v-1.25h-7zm0 6h7v-1.25h-7zm7 6h-7v-1.25h7zM16.5 20.5a1.5 1.5 0 1 0 0-3 1.5 1.5 0 0 0 0 3M18 25a1.5 1.5 0 1 1-3 0 1.5 1.5 0 0 1 3 0"/></svg>