<svg xmlns="http://www.w3.org/2000/svg" width="24" height="24" viewBox="0 0 24 24"><path fill="var(--hop-Richicon-placeholder-shadow, #E5DED6)" d="M0 12C0 5.373 5.373 0 12 0s12 5.373 12 12-5.373 12-12 12S0 18.627 0 12"/><path fill="var(--hop-Richicon-placeholder-background, #2A2620)" d="M7.697 4.2a1.2 1.2 0 0 0-.849.351L5.751 5.648a1.2 1.2 0 0 0-.351.849V18.6a1.2 1.2 0 0 0 1.2 1.2h9.703a1.2 1.2 0 0 0 .848-.352l1.097-1.097a1.2 1.2 0 0 0 .352-.848V5.4a1.2 1.2 0 0 0-1.2-1.2z"/><path fill="#fff" fill-rule="evenodd" d="M17.4 5.2H7.8a.2.2 0 0 0-.2.2v12c0 .11.09.2.2.2h9.6a.2.2 0 0 0 .2-.2v-12a.2.2 0 0 0-.2-.2m-6.7 2.6a.5.5 0 0 0-.8-.4l-1.2.9.6.8.4-.3v5.4H9v1h2.4v-1h-.7zm4.8 0a.5.5 0 0 0-.8-.4l-1.2.9.6.8.4-.3v5.4h-.7v1h2.4v-1h-.7zm-2.3 4.5a.6.6 0 1 1-1.2 0 .6.6 0 0 1 1.2 0m-.6-1.2a.6.6 0 1 0 0-1.2.6.6 0 0 0 0 1.2"/></svg>