<svg xmlns="http://www.w3.org/2000/svg" width="32" height="32" viewBox="0 0 32 32"><path fill="var(--hop-Richicon-placeholder-shadow, #E5DED6)" d="M0 16C0 7.163 7.163 0 16 0s16 7.163 16 16-7.163 16-16 16S0 24.837 0 16"/><path fill="var(--hop-Richicon-placeholder-background, #2A2620)" d="M10.263 5.6a1.6 1.6 0 0 0-1.132.469L7.67 7.53a1.6 1.6 0 0 0-.47 1.133V24.8a1.6 1.6 0 0 0 1.6 1.6h12.937a1.6 1.6 0 0 0 1.132-.469l1.462-1.462c.3-.3.469-.707.469-1.132V7.2a1.6 1.6 0 0 0-1.6-1.6z"/><path fill="var(--hop-Richicon-placeholder-fill, #fff)" fill-rule="evenodd" d="M23.2 6.6H10.4a.6.6 0 0 0-.6.6v16a.6.6 0 0 0 .6.6h12.8a.6.6 0 0 0 .6-.6v-16a.6.6 0 0 0-.6-.6m-9.1 3.8a.5.5 0 0 0-.8-.4l-1.6 1.2.6.8.8-.6v7.7H12v1h3.2v-1h-1.1zm6.4 0a.5.5 0 0 0-.8-.4l-1.6 1.2.6.8.8-.6v7.7h-1.1v1h3.2v-1h-1.1zm-2.9 6a.8.8 0 1 1-1.6 0 .8.8 0 0 1 1.6 0m-.8-1.6a.8.8 0 1 0 0-1.6.8.8 0 0 0 0 1.6"/></svg>