<svg xmlns="http://www.w3.org/2000/svg" width="40" height="40" viewBox="0 0 40 40"><path fill="var(--hop-richicon-placeholder-foreground, #E5DED6)" d="M0 20C0 8.954 8.954 0 20 0s20 8.954 20 20-8.954 20-20 20S0 31.046 0 20"/><path fill="var(--hop-richicon-placeholder-background, #2A2620)" d="M12.828 7a2 2 0 0 0-1.414.586L9.586 9.414A2 2 0 0 0 9 10.828V31a2 2 0 0 0 2 2h16.172a2 2 0 0 0 1.414-.586l1.828-1.828A2 2 0 0 0 31 29.172V9a2 2 0 0 0-2-2z"/><path fill="#fff" fill-rule="evenodd" d="M13 8.25h16a.75.75 0 0 1 .75.75v20a.75.75 0 0 1-.75.75H13a.75.75 0 0 1-.75-.75V9a.75.75 0 0 1 .75-.75m4.28 4.191a.63.63 0 0 1 .345.559v10.875H19v1.25h-4v-1.25h1.375V14.25l-1 .75-.75-1 2-1.5a.63.63 0 0 1 .654-.059m8 0a.63.63 0 0 1 .345.559v10.875H27v1.25h-4v-1.25h1.375V14.25l-1 .75-.75-1 2-1.5a.63.63 0 0 1 .654-.059M21 21.5a1 1 0 1 0 0-2 1 1 0 0 0 0 2m1-4a1 1 0 1 1-2 0 1 1 0 0 1 2 0"/></svg>