<svg xmlns="http://www.w3.org/2000/svg" width="24" height="24" viewBox="0 0 24 24"><path fill="var(--hop-RichIcon-placeholder-background, #E5DED6)" d="M0 12C0 5.373 5.373 0 12 0s12 5.373 12 12-5.373 12-12 12S0 18.627 0 12"/><path fill="var(--hop-RichIcon-placeholder-shadow, #2A2620)" d="m16.905 6.41 1.365-.29a1.385 1.385 0 0 1 1.642 1.066l1.401 6.591a1.39 1.39 0 0 1-.496 1.375l-1.619 1.619a1.38 1.38 0 0 1-.797.495L7.114 19.665a1.385 1.385 0 0 1-1.642-1.067l-1.4-6.591a1.39 1.39 0 0 1 .52-1.393l1.576-1.577a1.38 1.38 0 0 1 .816-.518l.205-.044.907-2.115a2.5 2.5 0 0 1 .7-.94l1.52-1.52a2.503 2.503 0 0 1 3.622-.234z"/><path fill="var(--hop-RichIcon-placeholder-fill, #fff)" d="M12.459 5.264a.32.32 0 0 0-.514.11l-.987 2.3-1.283.273L10.96 4.95a1.393 1.393 0 0 1 2.226-.473l2.393 2.214-1.283.272zM18.736 7.2 6.998 9.695l1.497 7.043 11.738-2.495z"/></svg>