<svg xmlns="http://www.w3.org/2000/svg" width="40" height="40" viewBox="0 0 40 40"><path fill="var(--hop-RichIcon-placeholder-background, #E5DED6)" d="M0 20C0 8.954 8.954 0 20 0s20 8.954 20 20-8.954 20-20 20S0 31.046 0 20"/><path fill="var(--hop-RichIcon-placeholder-shadow, #2A2620)" fill-rule="evenodd" d="m10.317 16.897 3.494-8.144c.174-.405.432-.74.744-.995l1.64-1.64a2.627 2.627 0 0 1 3.811-.257l7.887 7.3 2.6-.553a1 1 0 0 1 1.186.77l2.579 12.13a1 1 0 0 1-.344.98l-1.863 1.863a1 1 0 0 1-.564.343L9.968 33.268a1 1 0 0 1-1.186-.77l-2.578-12.13a1 1 0 0 1 .364-.997l1.825-1.825a1 1 0 0 1 .581-.364zm10.301-2.19-3.352-3.102-1.8 4.198z"/><path fill="var(--hop-RichIcon-placeholder-fill, #fff)" d="M18.478 7.513a.375.375 0 0 0-.6.127l-3.61 8.417-1.497.318 3.959-9.228a1.625 1.625 0 0 1 2.597-.552l7.37 6.82-1.497.318zm-8.999 10.84 2.474 11.64 21.03-4.47-2.474-11.64z"/></svg>