<svg xmlns="http://www.w3.org/2000/svg" width="32" height="32" viewBox="0 0 32 32"><path fill="var(--hop-RichIcon-placeholder-background, #E5DED6)" d="M0 16C0 7.163 7.163 0 16 0s16 7.163 16 16-7.163 16-16 16S0 24.837 0 16"/><path fill="var(--hop-RichIcon-placeholder-shadow, #2A2620)" d="m24.6 8.13-2.616.556-4.885-4.52a2.74 2.74 0 0 0-3.878.153l-1.837 1.837a2.7 2.7 0 0 0-.663.94l-1.88 4.383-1.36.29a1.48 1.48 0 0 0-.834.5l-1.819 1.818a1.5 1.5 0 0 0-.502 1.46l2.142 10.075a1.5 1.5 0 0 0 1.779 1.156l17.117-3.639c.327-.07.606-.24.812-.473l1.869-1.869a1.5 1.5 0 0 0 .475-1.437L26.378 9.285A1.5 1.5 0 0 0 24.6 8.13"/><path fill="var(--hop-RichIcon-placeholder-fill, #fff)" d="M15.48 5.915a.355.355 0 0 0-.568.12l-1.96 4.57-1.418.302 2.29-5.338a1.54 1.54 0 0 1 2.46-.523l4.263 3.945-1.418.301zM25.104 9.3 7.497 13.043l2.245 10.564 17.607-3.743z"/></svg>