<svg xmlns="http://www.w3.org/2000/svg" width="24" height="24" viewBox="0 0 24 24"><path fill="var(--hop-Richicon-placeholder-shadow, #E5DED6)" d="M0 12C0 5.373 5.373 0 12 0s12 5.373 12 12-5.373 12-12 12S0 18.627 0 12"/><path fill="var(--hop-Richicon-placeholder-background, #2A2620)" d="M9.829 13.671h1V9.214h-1zM13.057 8.1h-1v6.686h1zm1.229 5.571h1V9.214h-1z"/><path fill="var(--hop-Richicon-placeholder-background, #2A2620)" fill-rule="evenodd" d="M19.157 14.507c-.428.935-1.06 1.765-1.864 2.507-1.47 1.595-3.566 2.786-5.85 2.786a7.246 7.246 0 0 1-6.978-5.293h-1.38a1.39 1.39 0 0 1-1.392-1.393V12c0-.582.315-1.172.725-1.576-.014.015.014-.014 0 0 .447-.477 1.133-1.095 1.825-1.095h.724c.37-.694.865-1.349 1.462-2.065C8.073 5.291 10.273 4.2 12.557 4.2a7.25 7.25 0 0 1 6.93 5.129h1.384a1.6 1.6 0 0 1 1.6 1.6v1.028c0 .621-.468 1.132-.862 1.52-.784.772-1.15 1.03-1.809 1.03zm-.484-1.806a6.245 6.245 0 0 1-12.26-.144 6.3 6.3 0 0 1 .028-2.372 6.245 6.245 0 0 1 12.26.144 6.3 6.3 0 0 1-.028 2.372M5.4 12.557a7.3 7.3 0 0 1 0-2.228H4.243a.6.6 0 0 0-.6.6v1.028a.6.6 0 0 0 .6.6zm14.316 0a7.3 7.3 0 0 0 0-2.228h1.156a.6.6 0 0 1 .6.6v1.028a.6.6 0 0 1-.6.6z"/><path fill="var(--hop-Richicon-placeholder-fill, #fff)" fill-rule="evenodd" d="M12.557 17.686a6.245 6.245 0 0 0 6.144-7.357 6.245 6.245 0 0 0-12.288 2.228 6.245 6.245 0 0 0 6.144 5.129M9.83 9.214h1v4.457h-1zm3.228 5.572h-1V8.1h1zm1.229-5.572h1v4.457h-1z"/><path fill="var(--hop-Richicon-placeholder-fill, #fff)" d="M5.314 11.443q.001.568.085 1.114H4.243a.6.6 0 0 1-.6-.6V10.93a.6.6 0 0 1 .6-.6h1.156a7 7 0 0 0-.085 1.114m14.486-.001q-.001.568-.085 1.114h1.156a.6.6 0 0 0 .6-.6V10.93a.6.6 0 0 0-.6-.6h-1.156q.084.545.085 1.114"/></svg>