<svg xmlns="http://www.w3.org/2000/svg" width="32" height="32" viewBox="0 0 32 32"><path fill="var(--hop-Richicon-placeholder-shadow, #E5DED6)" d="M0 16C0 7.163 7.163 0 16 0s16 7.163 16 16-7.163 16-16 16S0 24.837 0 16"/><path fill="var(--hop-Richicon-placeholder-background, #2A2620)" d="M25.542 19.343c-.57 1.246-1.412 2.353-2.485 3.343-1.96 2.126-4.755 3.714-7.8 3.714-4.433 0-8.168-2.986-9.303-7.057h-1.84a1.857 1.857 0 0 1-1.857-1.857V16c0-.776.512-1.28 1.058-1.819q.142-.138.283-.282.097-.102.203-.22c.4-.445.917-1.022 1.799-1.022h.91c.504-1.008 1.204-1.942 2.061-2.971 1.205-1.446 2.633-2.536 4.18-3.225a9.6 9.6 0 0 1 3.992-.861c4.433 0 8.168 2.987 9.303 7.057h1.84c1.025 0 1.857.832 1.857 1.857V16c0 .91-.346 1.256-.987 1.886l-.114.112c-1.045 1.03-1.364 1.345-2.242 1.345z"/><path fill="var(--hop-Richicon-placeholder-fill, #fff)" fill-rule="evenodd" d="M16.743 23.914a8.657 8.657 0 1 0 0-17.314 8.657 8.657 0 0 0 0 17.314m.5-13.114v8.914h-1V10.8zm-2.971 1.486v5.943h-1v-5.943zm5.942 5.943v-5.943h-1v5.943z"/><path fill="var(--hop-Richicon-placeholder-fill, #fff)" d="M7.086 15.257q.001.759.113 1.486H5.657a.8.8 0 0 1-.8-.8v-1.371a.8.8 0 0 1 .8-.8H7.2a10 10 0 0 0-.113 1.485m20.742 1.486h-1.543a9.7 9.7 0 0 0 0-2.971h1.543a.8.8 0 0 1 .8.8v1.37a.8.8 0 0 1-.8.8"/></svg>