<svg xmlns="http://www.w3.org/2000/svg" width="24" height="24" viewBox="0 0 24 24"><path fill="var(--hop-richicon-placeholder-foreground, #E5DED6)" d="M0 12C0 5.373 5.373 0 12 0s12 5.373 12 12-5.373 12-12 12S0 18.627 0 12"/><path fill="var(--hop-richicon-placeholder-background, #2A2620)" d="M18.15 10.5h-1.8v1.8h1.8zm-1.8 4.8v-1.8h1.8v1.8zm-5.4-4.8h1.8v1.8h-1.8zm0 3v1.8h1.8v-1.8zm-3-3h1.8v1.8h-1.8zm3-3v1.8h1.8V7.5zm-3 0h1.8v1.8h-1.8zm0 6v1.8h1.8v-1.8z"/><path fill="var(--hop-richicon-placeholder-background, #2A2620)" fill-rule="evenodd" d="M6.047 4.8a1.2 1.2 0 0 0-.848.351l-.497.498a1.2 1.2 0 0 0-.352.848V18a1.2 1.2 0 0 0 1.2 1.2h13.003a1.2 1.2 0 0 0 .849-.351l.497-.497a1.2 1.2 0 0 0 .351-.85V9a1.2 1.2 0 0 0-1.2-1.2h-3.436q-.248.001-.464.093V6a1.2 1.2 0 0 0-1.2-1.2zm9.567 4h3.436c.11 0 .2.09.2.2v7.8a.2.2 0 0 1-.2.2h-3.436a.2.2 0 0 1-.2-.2V9c0-.11.09-.2.2-.2m-8.864-3h7.2c.11 0 .2.09.2.2v10.8a.2.2 0 0 1-.2.2h-7.2a.2.2 0 0 1-.2-.2V6c0-.11.09-.2.2-.2"/><path fill="#fff" fill-rule="evenodd" d="M6.75 5.8h7.2c.11 0 .2.09.2.2v10.8a.2.2 0 0 1-.2.2h-7.2a.2.2 0 0 1-.2-.2V6c0-.11.09-.2.2-.2m4.2 4.7h1.8v1.8h-1.8zm0 3v1.8h1.8v-1.8zm-3-3h1.8v1.8h-1.8zm3-3v1.8h1.8V7.5zm-3 0h1.8v1.8h-1.8zm0 6v1.8h1.8v-1.8zm7.664-4.7h3.436c.11 0 .2.09.2.2v7.8a.2.2 0 0 1-.2.2h-3.436a.2.2 0 0 1-.2-.2V9c0-.11.09-.2.2-.2m.736 1.7h1.8v1.8h-1.8zm0 3v1.8h1.8v-1.8z"/></svg>