<svg xmlns="http://www.w3.org/2000/svg" width="40" height="40" viewBox="0 0 40 40"><path fill="var(--hop-RichIcon-placeholder-background, #E5DED6)" d="M0 20C0 8.954 8.954 0 20 0s20 8.954 20 20-8.954 20-20 20S0 31.046 0 20"/><path fill="var(--hop-RichIcon-placeholder-shadow, #2A2620)" fill-rule="evenodd" d="M8.664 8.586A2 2 0 0 1 10.078 8H23.25a2 2 0 0 1 2 2v3.155c.238-.1.5-.155.774-.155h5.726a2 2 0 0 1 2 2v14.172a2 2 0 0 1-.586 1.414l-.828.828a2 2 0 0 1-1.414.586H9.25a2 2 0 0 1-2-2V10.828a2 2 0 0 1 .586-1.414zm17.36 5.664a.75.75 0 0 0-.75.75v13c0 .414.335.75.75.75h5.726a.75.75 0 0 0 .75-.75V15a.75.75 0 0 0-.75-.75zm-2.774-5h-12a.75.75 0 0 0-.75.75v18c0 .414.336.75.75.75h12A.75.75 0 0 0 24 28V10a.75.75 0 0 0-.75-.75"/><path fill="var(--hop-RichIcon-placeholder-fill, #fff)" d="M11.25 9.25h12A.75.75 0 0 1 24 10v18a.75.75 0 0 1-.75.75h-12a.75.75 0 0 1-.75-.75V10a.75.75 0 0 1 .75-.75m14.774 5h5.726a.75.75 0 0 1 .75.75v13a.75.75 0 0 1-.75.75h-5.726a.75.75 0 0 1-.75-.75V15a.75.75 0 0 1 .75-.75"/><path fill="var(--hop-RichIcon-placeholder-shadow, #2A2620)" fill-rule="evenodd" d="M18.25 12.5v3h3v-3zm-2 5v3h-3v-3zm5 0v3h-3v-3zm6 0v3h3v-3zm0 5v3h3v-3zm-9 0v3h3v-3zm-2-10v3h-3v-3zm-3 10v3h3v-3z"/></svg>