<svg xmlns="http://www.w3.org/2000/svg" width="32" height="32" viewBox="0 0 32 32"><path fill="var(--hop-RichIcon-placeholder-background, #E5DED6)" d="M0 16C0 7.163 7.163 0 16 0s16 7.163 16 16-7.163 16-16 16S0 24.837 0 16"/><path fill="var(--hop-RichIcon-placeholder-fill, #fff)" d="M9 7.4h9.6a.6.6 0 0 1 .6.6v14.4a.6.6 0 0 1-.6.6H9a.6.6 0 0 1-.6-.6V8a.6.6 0 0 1 .6-.6m11.819 4H25.4a.6.6 0 0 1 .6.6v10.4a.6.6 0 0 1-.6.6h-4.58a.6.6 0 0 1-.6-.6V12a.6.6 0 0 1 .6-.6"/><path fill="var(--hop-RichIcon-placeholder-shadow, #2A2620)" d="M21.8 16.4V14h2.4v2.4zm0 4V18h2.4v2.4zm-7.2-8V10H17v2.4zm-1.6 4V14h-2.4v2.4zm4 0V14h-2.4v2.4zm-2.4 4V18H17v2.4zm-1.6-8V10h-2.4v2.4zm-2.4 8V18H13v2.4z"/><path fill="var(--hop-RichIcon-placeholder-shadow, #2A2620)" fill-rule="evenodd" d="M8.063 6.4a1.6 1.6 0 0 0-1.132.469l-.662.662A1.6 1.6 0 0 0 5.8 8.663V24a1.6 1.6 0 0 0 1.6 1.6h17.337a1.6 1.6 0 0 0 1.132-.469l.662-.662c.3-.3.469-.707.469-1.132V12a1.6 1.6 0 0 0-1.6-1.6h-4.58q-.332.002-.619.124V8a1.6 1.6 0 0 0-1.6-1.6zM20.219 12a.6.6 0 0 1 .6-.6H25.4a.6.6 0 0 1 .6.6v10.4a.6.6 0 0 1-.6.6h-4.58a.6.6 0 0 1-.6-.6zM9 7.4h9.6a.6.6 0 0 1 .6.6v14.4a.6.6 0 0 1-.6.6H9a.6.6 0 0 1-.6-.6V8a.6.6 0 0 1 .6-.6"/></svg>