<svg xmlns="http://www.w3.org/2000/svg" width="32" height="32" viewBox="0 0 32 32"><path fill="var(--hop-Richicon-placeholder-shadow, #E5DED6)" d="M0 16C0 7.163 7.163 0 16 0s16 7.163 16 16-7.163 16-16 16S0 24.837 0 16"/><path fill="var(--hop-Richicon-placeholder-background, #2A2620)" fill-rule="evenodd" d="M14.29 5.25c2.38 0 4.4 1.54 5.117 3.678q.081-.102.168-.206c.876-1.051 2.048-1.633 3.265-1.633a3.86 3.86 0 0 1 3.86 3.86c0 1.217-.487 2.185-1.336 2.968l-.007.007c1.804.893 3.107 2.78 3.324 5.018.04.423-.137.83-.437 1.13l-.102.102c-.3.3-.707.47-1.131.47h-4.745q.16.7.212 1.44a1.47 1.47 0 0 1-.446 1.132l-.516.515c-.3.3-.707.47-1.131.47H5.868c-.442 0-.804-.36-.763-.8.242-2.592 1.634-4.833 3.303-6.462q.299-.329.696-.67l.062-.053q.373-.315.815-.615a5.5 5.5 0 0 1-.705-.717l-.006-.008a5.37 5.37 0 0 1-1.206-3.4c0-1.702.623-2.698 1.66-3.943C10.95 6.063 12.59 5.25 14.29 5.25m4.321 8.675q.16-.214.3-.441c.223.383.51.724.847 1.008a6.6 6.6 0 0 0-1.027.853l-.024-.016-.019-.013a8 8 0 0 0-.836-.488l-.043-.022.009-.01a6 6 0 0 0 .7-.752z"/><path fill="#fff" d="M17.6 14.765a5.288 5.288 0 1 0-6.627.135c-2.596 1.39-4.384 4.304-4.384 7.672h14.876c.433 0 .788-.352.752-.783-.262-3.144-2.085-5.795-4.616-7.024"/><path fill="var(--hop-Richicon-placeholder-background, #2A2620)" d="M10.904 14.918c-2.39 1.28-4.107 3.822-4.422 6.83a10 10 0 0 0-.052 1h15.18c.441 0 .803-.36.766-.8-.267-3.208-2.127-5.913-4.71-7.167a5.4 5.4 0 0 1-.995.662c2.452.923 4.331 3.314 4.68 6.304H7.488c.335-2.887 2.105-5.22 4.438-6.206a5.4 5.4 0 0 1-1.022-.623"/><path fill="var(--hop-Richicon-placeholder-background, #2A2620)" fill-rule="evenodd" d="M14.2 15.041a4.396 4.396 0 1 0 0-8.79 4.396 4.396 0 0 0 0 8.79m0 1a5.396 5.396 0 1 0 0-10.791 5.396 5.396 0 0 0 0 10.791"/></svg>