<svg xmlns="http://www.w3.org/2000/svg" width="24" height="24" viewBox="0 0 24 24"><path fill="var(--hop-richicon-placeholder-foreground, #E5DED6)" d="M0 12C0 5.373 5.373 0 12 0s12 5.373 12 12-5.373 12-12 12S0 18.627 0 12"/><path fill="var(--hop-richicon-placeholder-background, #2A2620)" fill-rule="evenodd" d="M10.718 3.938a4.05 4.05 0 0 1 3.837 2.758q.06-.076.126-.154c.657-.789 1.537-1.225 2.45-1.225a2.895 2.895 0 0 1 2.894 2.895c0 .912-.365 1.639-1.002 2.226l-.005.005c1.353.67 2.33 2.084 2.493 3.764.03.317-.103.623-.328.848l-.076.076a1.2 1.2 0 0 1-.849.351H16.7q.12.526.158 1.081c.022.318-.11.624-.334.849l-.387.387c-.225.224-.53.351-.848.351H4.4c-.331 0-.603-.27-.572-.6.182-1.944 1.225-3.624 2.477-4.845a6 6 0 0 1 .522-.504l.047-.04q.28-.234.61-.46a4 4 0 0 1-.528-.538l-.004-.006a4.03 4.03 0 0 1-.905-2.55c0-1.276.467-2.024 1.245-2.957.919-1.103 2.149-1.713 3.425-1.713m3.24 6.506a4 4 0 0 0 .225-.331c.168.287.383.543.636.756a5 5 0 0 0-.77.64l-.018-.012-.015-.01a6 6 0 0 0-.627-.366l-.032-.016.007-.008q.112-.104.216-.211.165-.17.309-.353z"/><path fill="#fff" d="M13.2 11.074a3.966 3.966 0 1 0-4.97.101c-1.947 1.043-3.288 3.228-3.288 5.754h11.157c.325 0 .59-.264.564-.587-.197-2.358-1.564-4.346-3.463-5.268"/><path fill="var(--hop-richicon-placeholder-background, #2A2620)" fill-rule="evenodd" d="M12.172 11.734a4.047 4.047 0 1 1 1.075-.648c1.937.94 3.332 2.97 3.532 5.375.028.33-.244.6-.575.6H4.819q0-.51.07-1c.302-2.146 1.56-3.948 3.286-4.872.33.255.701.46 1.102.604-1.702.613-3.044 2.218-3.377 4.268h9.823c-.347-2.123-1.768-3.765-3.551-4.327m1.521-3.75a3.047 3.047 0 1 1-6.093 0 3.047 3.047 0 0 1 6.093 0"/></svg>