<svg xmlns="http://www.w3.org/2000/svg" width="40" height="40" viewBox="0 0 40 40"><path fill="var(--hop-richicon-placeholder-foreground, #E5DED6)" d="M0 20C0 8.954 8.954 0 20 0s20 8.954 20 20-8.954 20-20 20S0 31.046 0 20"/><path fill="var(--hop-richicon-placeholder-background, #2A2620)" fill-rule="evenodd" d="M17.863 6.563a6.75 6.75 0 0 1 6.395 4.597q.102-.127.21-.257c1.096-1.314 2.561-2.041 4.082-2.041a4.824 4.824 0 0 1 4.824 4.824c0 1.52-.608 2.732-1.67 3.71l-.008.01c2.255 1.116 3.884 3.473 4.155 6.272.05.528-.17 1.038-.546 1.413l-.127.127a2 2 0 0 1-1.414.586h-5.932q.2.875.265 1.802c.036.529-.182 1.039-.558 1.414l-.644.644a2 2 0 0 1-1.414.586H7.335c-.552 0-1.005-.449-.953-.999.302-3.24 2.042-6.041 4.128-8.077.247-.273.54-.556.87-.838l.078-.066c.31-.26.651-.52 1.018-.77a7 7 0 0 1-.88-.895l-.008-.01a6.7 6.7 0 0 1-1.508-4.25c0-2.127.779-3.373 2.076-4.93 1.53-1.836 3.58-2.852 5.707-2.852m5.4 10.843q.203-.268.375-.551c.28.478.639.905 1.06 1.26a8.3 8.3 0 0 0-1.284 1.067l-.03-.02-.024-.017a10 10 0 0 0-1.044-.61l-.055-.027.012-.012a9 9 0 0 0 .36-.353q.276-.284.515-.588z"/><path fill="#fff" d="M22 18.456a6.61 6.61 0 1 0-8.284.169c-3.245 1.738-5.48 5.38-5.48 9.59h18.596c.54 0 .984-.44.939-.98-.328-3.928-2.606-7.242-5.77-8.779"/><path fill="var(--hop-richicon-placeholder-background, #2A2620)" d="M13.63 18.648c-2.987 1.599-5.134 4.777-5.528 8.536q-.065.615-.065 1.25h18.975c.552 0 1.004-.449.958-1-.334-4.009-2.659-7.39-5.888-8.958q-.572.481-1.243.828c3.065 1.154 5.414 4.143 5.85 7.88H9.36c.42-3.609 2.632-6.525 5.548-7.758a6.8 6.8 0 0 1-1.277-.778"/><path fill="var(--hop-richicon-placeholder-background, #2A2620)" fill-rule="evenodd" d="M17.749 18.802a5.495 5.495 0 1 0 0-10.99 5.495 5.495 0 0 0 0 10.99m0 1.25a6.745 6.745 0 1 0 0-13.49 6.745 6.745 0 0 0 0 13.49"/></svg>