<svg xmlns="http://www.w3.org/2000/svg" width="32" height="32" viewBox="0 0 32 32"><path fill="var(--hop-RichIcon-placeholder-background, #E5DED6)" d="M0 16C0 7.163 7.163 0 16 0s16 7.163 16 16-7.163 16-16 16S0 24.837 0 16"/><path fill="var(--hop-RichIcon-placeholder-shadow, #2A2620)" fill-rule="evenodd" d="M8.899 7.559A10.97 10.97 0 0 1 17 4c6.075 0 11 4.925 11 11 0 3.855-2.038 6.582-4.618 9.162A10.97 10.97 0 0 1 15.3 27.7c-6.075 0-11-4.925-11-11 0-3.844 2.025-6.568 4.599-9.141"/><path fill="var(--hop-RichIcon-placeholder-fill, #fff)" d="M23.47 22.294A9.73 9.73 0 0 0 26.75 15c0-5.385-4.365-9.75-9.75-9.75S7.25 9.615 7.25 15a9.73 9.73 0 0 0 3.28 7.294 6.9 6.9 0 0 1 4.275-4.186 4.583 4.583 0 1 1 4.39 0 6.9 6.9 0 0 1 4.275 4.186"/></svg>