<svg xmlns="http://www.w3.org/2000/svg" width="24" height="24" viewBox="0 0 24 24"><path fill="var(--hop-RichIcon-placeholder-background, #E5DED6)" d="M0 12C0 5.373 5.373 0 12 0s12 5.373 12 12-5.373 12-12 12S0 18.627 0 12"/><path fill="var(--hop-RichIcon-placeholder-shadow, #2A2620)" fill-rule="evenodd" d="M7.107 5.59A8 8 0 0 1 21 11c0 2.933-1.623 4.928-3.57 6.875v-.005A8 8 0 0 1 3.5 12.5c0-2.955 1.647-4.95 3.607-6.91"/><path fill="var(--hop-RichIcon-placeholder-fill, #fff)" d="M17.57 15.968a6.75 6.75 0 1 0-9.14 0 5 5 0 0 1 2.974-2.708A3.333 3.333 0 0 1 13 7a3.333 3.333 0 0 1 1.596 6.26 5 5 0 0 1 2.974 2.708"/></svg>