<svg xmlns="http://www.w3.org/2000/svg" width="40" height="40" viewBox="0 0 40 40"><path fill="var(--hop-RichIcon-placeholder-background, #E5DED6)" d="M0 20C0 8.954 8.954 0 20 0s20 8.954 20 20-8.954 20-20 20S0 31.046 0 20"/><path fill="var(--hop-RichIcon-placeholder-shadow, #2A2620)" fill-rule="evenodd" d="M10.688 9.53A13.96 13.96 0 0 1 21 5c7.732 0 14 6.268 14 14 0 4.068-1.735 7.73-4.506 10.289C27.267 32.516 23.803 35 19 35c-7.732 0-14-6.268-14-14 0-4.79 2.468-8.25 5.688-11.47"/><path fill="var(--hop-RichIcon-placeholder-fill, #fff)" d="M29.352 28.634A12.72 12.72 0 0 0 33.75 19c0-7.042-5.708-12.75-12.75-12.75S8.25 11.958 8.25 19a12.72 12.72 0 0 0 4.398 9.634 8.77 8.77 0 0 1 5.558-5.678 5.833 5.833 0 1 1 5.587 0 8.77 8.77 0 0 1 5.56 5.678"/></svg>