<svg xmlns="http://www.w3.org/2000/svg" width="24" height="24" viewBox="0 0 24 24"><path fill="#E5DED6" d="M0 12C0 5.373 5.373 0 12 0s12 5.373 12 12-5.373 12-12 12S0 18.627 0 12"/><path fill="#2A2620" d="M17.483 17.483A7.8 7.8 0 1 0 6.517 6.517C5.1 8.1 3.6 10.14 3.6 12.6a7.8 7.8 0 0 0 7.8 7.8c2.46 0 4.2-1.5 6.083-2.917"/><path fill="#fff" d="M19.4 11.4a6.8 6.8 0 1 1-13.6 0 6.8 6.8 0 0 1 13.6 0"/><path fill="#2A2620" d="M11.976 13.136v-.046q.008-.73.152-1.162.146-.432.413-.7.268-.268.643-.493.226-.138.405-.325a1.45 1.45 0 0 0 .39-.99q0-.375-.175-.651a1.2 1.2 0 0 0-.47-.424q-.295-.15-.655-.15-.313 0-.604.13a1.17 1.17 0 0 0-.486.41q-.195.28-.225.73H10.4q.03-.65.336-1.113.31-.462.815-.707A2.6 2.6 0 0 1 12.68 7.4q.673 0 1.17.268.501.267.773.734.275.465.275 1.063 0 .42-.13.761-.126.34-.367.608-.237.268-.574.474-.336.21-.539.444a1.4 1.4 0 0 0-.294.547 3 3 0 0 0-.1.791v.046zm.489 2.264a.66.66 0 0 1-.486-.203.66.66 0 0 1-.202-.485q0-.283.202-.486a.66.66 0 0 1 .486-.203q.283 0 .486.203a.66.66 0 0 1 .202.486q0 .188-.095.344a.7.7 0 0 1-.249.252.66.66 0 0 1-.344.092"/></svg>