<svg xmlns="http://www.w3.org/2000/svg" width="40" height="40" viewBox="0 0 40 40"><path fill="var(--hop-richicon-placeholder-foreground, #E5DED6)" d="M0 20C0 8.954 8.954 0 20 0s20 8.954 20 20-8.954 20-20 20S0 31.046 0 20"/><path fill="var(--hop-richicon-placeholder-background, #2A2620)" d="M29.138 29.138A12.98 12.98 0 0 0 34 19c0-7.18-5.82-13-13-13-4.1 0-7.755 1.897-10.138 4.862C8.5 13.5 6 16.9 6 21c0 7.18 5.82 13 13 13 4.1 0 7-2.5 10.138-4.862"/><path fill="#fff" d="M32.75 19c0 6.49-5.26 11.75-11.75 11.75S9.25 25.49 9.25 19 14.51 7.25 21 7.25 32.75 12.51 32.75 19"/><path fill="var(--hop-richicon-placeholder-background, #2A2620)" d="M19.827 22.038v-.08q.014-1.278.268-2.034.254-.757.723-1.225t1.124-.863q.395-.24.71-.57a2.53 2.53 0 0 0 .682-1.732q0-.657-.308-1.138a2.07 2.07 0 0 0-.823-.743 2.5 2.5 0 0 0-1.145-.261q-.548 0-1.057.228-.508.227-.85.716-.34.487-.395 1.278H17.07q.054-1.138.589-1.948.541-.81 1.425-1.238A4.5 4.5 0 0 1 21.058 12q1.179 0 2.048.469.877.468 1.352 1.284.482.817.482 1.86 0 .737-.228 1.332a3.3 3.3 0 0 1-.642 1.065 4.4 4.4 0 0 1-1.004.83 4.2 4.2 0 0 0-.943.776 2.45 2.45 0 0 0-.516.957q-.16.555-.174 1.385v.08zM20.684 26a1.16 1.16 0 0 1-.85-.355 1.16 1.16 0 0 1-.355-.85q0-.495.355-.85a1.16 1.16 0 0 1 .85-.354q.495 0 .85.354.354.355.354.85 0 .329-.167.603a1.25 1.25 0 0 1-.435.441q-.268.162-.602.161"/></svg>