<svg xmlns="http://www.w3.org/2000/svg" width="32" height="32" viewBox="0 0 32 32"><path fill="var(--hop-Richicon-placeholder-shadow, #E5DED6)" d="M0 16C0 7.163 7.163 0 16 0s16 7.163 16 16-7.163 16-16 16S0 24.837 0 16"/><path fill="var(--hop-Richicon-placeholder-background, #2A2620)" d="M23.31 23.31a10.38 10.38 0 0 0 3.89-8.11c0-5.744-4.656-10.4-10.4-10.4a10.38 10.38 0 0 0-8.11 3.89C6.8 10.8 4.8 13.52 4.8 16.8c0 5.744 4.656 10.4 10.4 10.4 3.28 0 5.6-2 8.11-3.89"/><path fill="var(--hop-Richicon-placeholder-fill, #fff)" d="M26.2 15.2a9.4 9.4 0 1 1-18.8 0 9.4 9.4 0 1 1 18.8 0"/><path fill="var(--hop-Richicon-placeholder-background, #2A2620)" d="M15.793 17.804v-.069q.011-1.095.23-1.743.218-.649.62-1.05.4-.402.963-.74.338-.207.608-.488a2.17 2.17 0 0 0 .585-1.485q0-.562-.264-.975a1.77 1.77 0 0 0-.705-.637 2.14 2.14 0 0 0-.981-.224q-.47 0-.907.195-.435.195-.728.614-.293.42-.338 1.095H13.43q.045-.975.505-1.669a3.04 3.04 0 0 1 1.222-1.06 3.85 3.85 0 0 1 1.692-.368q1.01 0 1.755.402.75.4 1.159 1.1.413.7.413 1.595 0 .632-.195 1.142-.19.51-.551.912a3.8 3.8 0 0 1-.86.711q-.505.316-.81.666-.304.345-.44.82-.139.476-.15 1.187v.07zm.735 3.396a1 1 0 0 1-.729-.304 1 1 0 0 1-.304-.729q0-.424.304-.728a1 1 0 0 1 .729-.304q.424 0 .728.304a1 1 0 0 1 .304.729q0 .28-.143.516a1.1 1.1 0 0 1-.373.378 1 1 0 0 1-.517.138"/></svg>