<svg xmlns="http://www.w3.org/2000/svg" width="40" height="40" viewBox="0 0 40 40"><path fill="var(--hop-RichIcon-placeholder-background, #E5DED6)" d="M0 20C0 8.954 8.954 0 20 0s20 8.954 20 20-8.954 20-20 20S0 31.046 0 20"/><path fill="var(--hop-RichIcon-placeholder-shadow, #2A2620)" fill-rule="evenodd" d="M15.501 9.738q-.06-.316-.06-.648c0-1.072.482-2.03 1.24-2.672l1.883-1.883a3.499 3.499 0 0 1 5.837 3.753 9.19 9.19 0 0 1 6.023 8.628v3.445l2.938 7.836a1 1 0 0 1-.434 1.216l-1.935 1.936a1 1 0 0 1-.864.495H24.39c-.796 1.585-2.685 2.704-4.496 2.704a4.3 4.3 0 0 1-3.994-2.704H7.75a1 1 0 0 1-.935-1.35l2.938-7.837v-3.445a9.16 9.16 0 0 1 2.942-6.738l1.802-1.802q.467-.504 1.004-.934m3.822-4.126a2.249 2.249 0 0 1 3.853 2.322 9 9 0 0 0-1.94-.206c-.664 0-1.313.071-1.938.205a2.24 2.24 0 0 1-.31-1.14c0-.433.123-.838.335-1.181m-8.915 22.686 2.742-7.312h16.173l2.742 7.312zM23.63 9.346a7.94 7.94 0 0 1 5.544 7.57v2.82H13.3v-2.82a7.938 7.938 0 0 1 10.33-7.57m-5.143 20.202a2.75 2.75 0 0 0 5.5 0z"/><path fill="var(--hop-RichIcon-placeholder-fill, #fff)" d="m29.323 20.986 2.742 7.312H10.408l2.742-7.312zm-.149-1.25v-2.82a7.937 7.937 0 1 0-15.874 0v2.82zm-7.937 12.562a2.75 2.75 0 0 1-2.75-2.75h5.5a2.75 2.75 0 0 1-2.75 2.75M18.988 6.793c0 .416.113.806.31 1.14a9.2 9.2 0 0 1 3.878 0 2.249 2.249 0 1 0-4.187-1.14"/></svg>