<svg xmlns="http://www.w3.org/2000/svg" width="24" height="24" viewBox="0 0 24 24"><path fill="var(--hop-Richicon-placeholder-shadow, #E5DED6)" d="M0 12C0 5.373 5.373 0 12 0s12 5.373 12 12-5.373 12-12 12S0 18.627 0 12"/><path fill="var(--hop-Richicon-placeholder-background, #2A2620)" fill-rule="evenodd" d="M14.64 4.973a2.1 2.1 0 0 0-3.503-2.251l-1.129 1.13a2.1 2.1 0 0 0-.707 1.99q-.324.26-.605.564l-1.08 1.08a5.5 5.5 0 0 0-1.764 4.042v2.066l-1.763 4.702a.6.6 0 0 0 .562.81H9.54c.38.951 1.31 1.623 2.397 1.623s2.22-.672 2.697-1.622h3.444a.6.6 0 0 0 .518-.298l1.127-1.127a.6.6 0 0 0 .337-.742l-1.806-5.44h-.02v-.87a6 6 0 0 0 .02-.48 5.51 5.51 0 0 0-3.613-5.177m-1-.263a5.6 5.6 0 0 0-1.796 0l-.045-.07a1.09 1.09 0 0 1 .065-1.225A1.1 1.1 0 0 1 13.64 4.71M6.548 16.729l1.332-4.013h9.724l1.332 4.013zm7.394-10.93a4.517 4.517 0 0 0-5.696 4.732l.003.041v1.144h8.984v-1.128l.004-.043a4.514 4.514 0 0 0-3.295-4.746m-2.85 11.889v.04a1.65 1.65 0 1 0 3.3-.04z"/><path fill="#fff" d="M13.64 4.71a5.6 5.6 0 0 0-1.796 0 1.095 1.095 0 0 1 .02-1.295A1.1 1.1 0 0 1 13.64 4.71m3.597 5.835-.003.043v1.128H8.249v-1.144l-.003-.041a4.512 4.512 0 1 1 8.992.014M7.88 12.716 6.548 16.73h12.388l-1.332-4.013zm3.212 5.013v-.041h3.3v.04a1.65 1.65 0 0 1-3.3 0"/></svg>