<svg xmlns="http://www.w3.org/2000/svg" width="32" height="32" viewBox="0 0 32 32"><path fill="var(--hop-Richicon-placeholder-shadow, #E5DED6)" d="M0 16C0 7.163 7.163 0 16 0s16 7.163 16 16-7.163 16-16 16S0 24.837 0 16"/><path fill="var(--hop-Richicon-placeholder-background, #2A2620)" fill-rule="evenodd" d="M12.401 7.79a2.79 2.79 0 0 1 .944-2.656l1.507-1.506a2.8 2.8 0 0 1 4.67 3.003 7.35 7.35 0 0 1 4.817 6.901v2.756l2.35 6.27a.8.8 0 0 1-.346.973l-1.549 1.548a.8.8 0 0 1-.69.396h-4.592c-.636 1.268-2.148 2.163-3.596 2.163a3.44 3.44 0 0 1-3.196-2.163H6.2a.8.8 0 0 1-.748-1.08l2.35-6.27V15.37a7.33 7.33 0 0 1 2.354-5.39l1.442-1.442a7.4 7.4 0 0 1 .803-.747m3.057-3.3a1.798 1.798 0 0 1 3.33.944c0 .333-.09.645-.248.913a7.3 7.3 0 0 0-1.55-.164q-.8.001-1.551.164a1.8 1.8 0 0 1-.248-.913c0-.346.098-.67.267-.945M8.327 22.637l2.193-5.85h12.94l2.193 5.85zM18.904 7.476a6.35 6.35 0 0 1 4.435 6.056v2.257h-12.7v-2.257a6.35 6.35 0 0 1 8.265-6.056M14.79 23.638a2.2 2.2 0 0 0 4.4 0z"/><path fill="var(--hop-Richicon-placeholder-fill, #fff)" d="m23.459 16.789 2.193 5.85H8.327l2.193-5.85zm-.119-1v-2.257a6.35 6.35 0 1 0-12.7 0v2.257zm-6.35 10.049a2.2 2.2 0 0 1-2.2-2.2h4.4a2.2 2.2 0 0 1-2.2 2.2m-1.8-20.404c0 .333.09.645.249.913a7.4 7.4 0 0 1 3.101 0 1.8 1.8 0 1 0-3.35-.912"/></svg>