<svg xmlns="http://www.w3.org/2000/svg" width="24" height="24" viewBox="0 0 24 24"><path fill="var(--hop-RichIcon-placeholder-background, #E5DED6)" d="M0 12C0 5.373 5.373 0 12 0s12 5.373 12 12-5.373 12-12 12S0 18.627 0 12"/><path fill="var(--hop-RichIcon-placeholder-shadow, #2A2620)" fill-rule="evenodd" d="M12.628 2.7a2.3 2.3 0 0 1 1.61.679l.224.223c.19.19.45.298.72.298.413 0 .769.246.928.6h1.29a1.2 1.2 0 0 1 1.2 1.2v12.103a1.2 1.2 0 0 1-.352.848l-1.097 1.098a1.2 1.2 0 0 1-.848.351H6.6a1.2 1.2 0 0 1-1.2-1.2V6.797a1.2 1.2 0 0 1 .351-.848L6.848 4.85a1.2 1.2 0 0 1 .849-.351h.792c.16-.354.516-.6.93-.6.27 0 .528-.107.72-.298l.1-.102a2.73 2.73 0 0 1 1.932-.8zM9 5.5H7.8a.2.2 0 0 0-.2.2v12c0 .11.09.2.2.2h9.6a.2.2 0 0 0 .2-.2v-12a.2.2 0 0 0-.2-.2h-1.2v.8H9z"/><path fill="var(--hop-RichIcon-placeholder-fill, #fff)" d="M9 5.5H7.8a.2.2 0 0 0-.2.2v12c0 .11.09.2.2.2h9.6a.2.2 0 0 0 .2-.2v-12a.2.2 0 0 0-.2-.2h-1.2v.8H9zm2.445-1.191.223-.223a1.32 1.32 0 0 1 1.864 0l.223.223a2.02 2.02 0 0 0 1.434.592l.006.004.004.006.001.007V5.3H10v-.382l.001-.007.004-.006.006-.004.007-.001a2.02 2.02 0 0 0 1.427-.591"/><path fill="var(--hop-RichIcon-placeholder-shadow, #2A2620)" d="m12.6 8 1.175 2.382 2.63.382-1.903 1.854.45 2.618L12.6 14l-2.351 1.236.449-2.618-1.902-1.854 2.628-.382z"/></svg>