<svg xmlns="http://www.w3.org/2000/svg" width="32" height="32" viewBox="0 0 32 32"><path fill="#E5DED6" d="M0 16C0 7.163 7.163 0 16 0s16 7.163 16 16-7.163 16-16 16S0 24.837 0 16"/><path fill="#2A2620" d="M16.8 3.6h-.572c-.965 0-1.892.384-2.575 1.067l-.135.135c-.255.255-.6.398-.96.398-.551 0-1.026.328-1.239.8h-1.056a1.6 1.6 0 0 0-1.132.469L7.67 7.93a1.6 1.6 0 0 0-.47 1.133V25.2a1.6 1.6 0 0 0 1.6 1.6h12.937a1.6 1.6 0 0 0 1.132-.469l1.462-1.462c.3-.3.469-.707.469-1.132V7.6A1.6 1.6 0 0 0 23.2 6h-1.72a1.36 1.36 0 0 0-1.238-.8c-.36 0-.705-.143-.96-.398l-.297-.297a3.1 3.1 0 0 0-2.147-.905z"/><path fill="#fff" d="m15.025 5.51.297-.298a2.09 2.09 0 0 1 2.956 0l.297.297a2.35 2.35 0 0 0 1.667.691c.198 0 .358.16.358.358V7.4H13v-.842c0-.198.16-.358.358-.358.625 0 1.225-.248 1.667-.69"/><path fill="#fff" d="M21.6 7.2v1.2H12V7.2h-1.6a.4.4 0 0 0-.4.4v16c0 .22.18.4.4.4h12.8a.4.4 0 0 0 .4-.4v-16a.4.4 0 0 0-.4-.4z"/><path fill="#2A2620" d="m16.8 11 1.47 2.977 3.285.478-2.377 2.318.561 3.272L16.8 18.5l-2.939 1.545.561-3.273-2.377-2.317 3.286-.478z"/></svg>