<svg xmlns="http://www.w3.org/2000/svg" width="40" height="40" viewBox="0 0 40 40"><path fill="var(--hop-Richicon-placeholder-shadow, #E5DED6)" d="M0 20C0 8.954 8.954 0 20 0s20 8.954 20 20-8.954 20-20 20S0 31.046 0 20"/><path fill="var(--hop-Richicon-placeholder-background, #2A2620)" d="M21 4.5h-.714c-1.208 0-2.366.48-3.22 1.333l-.169.17c-.318.318-.75.497-1.2.497-.689 0-1.282.41-1.548 1h-1.32a2 2 0 0 0-1.415.586L9.586 9.914A2 2 0 0 0 9 11.328V31.5a2 2 0 0 0 2 2h16.172a2 2 0 0 0 1.414-.586l1.828-1.828A2 2 0 0 0 31 29.672V9.5a2 2 0 0 0-2-2h-2.15c-.265-.59-.858-1-1.547-1-.45 0-.882-.179-1.2-.497l-.372-.372a3.86 3.86 0 0 0-2.684-1.13z"/><path fill="#fff" d="m18.78 6.887.372-.372a2.613 2.613 0 0 1 3.695 0l.372.372a2.95 2.95 0 0 0 2.084.863c.247 0 .447.2.447.447V9.25h-9.5V8.197c0-.247.2-.447.447-.447.782 0 1.531-.31 2.084-.863"/><path fill="#fff" d="M27 9v1.5H15V9h-2a.5.5 0 0 0-.5.5v20a.5.5 0 0 0 .5.5h16a.5.5 0 0 0 .5-.5v-20A.5.5 0 0 0 29 9z"/><path fill="var(--hop-Richicon-placeholder-background, #2A2620)" d="m21 14 1.763 3.573 3.943.573-2.853 2.781.674 3.927L21 23l-3.527 1.854.674-3.927-2.853-2.781 3.943-.573z"/></svg>