<svg xmlns="http://www.w3.org/2000/svg" width="24" height="24" viewBox="0 0 24 24"><path fill="var(--hop-Richicon-placeholder-shadow, #E5DED6)" d="M0 12C0 5.373 5.373 0 12 0s12 5.373 12 12-5.373 12-12 12S0 18.627 0 12"/><path fill="var(--hop-Richicon-placeholder-background, #2A2620)" fill-rule="evenodd" d="M16.693 8.43q0 .245.061.47l-.493.382a1.8 1.8 0 0 0-1.352-.61c-.716 0-1.194.408-1.785 1l-2.107-.83a1.8 1.8 0 0 0-2.909-1.846l-.006.006a2 2 0 0 0-.179.179L6.901 8.203a1.8 1.8 0 0 0-.61 1.538 1.79 1.79 0 0 0-1.986.281v-.002l-.027.027q-.044.042-.086.086l-1.115 1.115a1.8 1.8 0 0 0 .79 3.06v2.813a.6.6 0 0 0 .6.6h13.865a.6.6 0 0 0 .445-.197l1.16-1.16.038-.038.014-.014h-.002a.6.6 0 0 0 .145-.39v-6.65c.924-.757 1.36-1.23 1.36-2.042a1.8 1.8 0 0 0-3.106-1.239l-1.135 1.135-.062.062-.002.002c-.306.323-.494.76-.494 1.24m2.439.512a1.8 1.8 0 0 1-.485-.246l-1.956 1.518q.018.126.018.257a1.8 1.8 0 0 1-3.585.231l-2.648-.994a1.8 1.8 0 0 1-1.194.453 1.8 1.8 0 0 1-.945-.268l-1.133.866a1.8 1.8 0 0 1-1.136 2.314v2.448h13.064zm-3.423 1.53a.8.8 0 1 1-1.6 0 .8.8 0 0 1 1.6 0m3.984-2.441a.8.8 0 1 0 0-1.6.8.8 0 0 0 0 1.6m-9.61.33a.8.8 0 1 1-1.6 0 .8.8 0 0 1 1.6 0m-4.576 3.801a.8.8 0 1 0 0-1.6.8.8 0 0 0 0 1.6"/><path fill="#fff" d="M15.71 10.471a.8.8 0 1 1-1.6 0 .8.8 0 0 1 1.6 0m4.783-3.241a.8.8 0 1 1-1.6 0 .8.8 0 0 1 1.6 0M10.082 8.361a.8.8 0 1 1-1.6 0 .8.8 0 0 1 1.6 0m-3.775 3.001a.8.8 0 1 1-1.6 0 .8.8 0 0 1 1.6 0"/><path fill="#fff" d="M18.647 8.696q.221.158.485.246v6.58H6.068v-2.449a1.8 1.8 0 0 0 1.136-2.314l1.133-.866a1.79 1.79 0 0 0 2.14-.185l2.647.994a1.8 1.8 0 1 0 3.567-.488z"/></svg>