<svg xmlns="http://www.w3.org/2000/svg" width="32" height="32" viewBox="0 0 32 32"><path fill="var(--hop-Richicon-placeholder-shadow, #E5DED6)" d="M0 16C0 7.163 7.163 0 16 0s16 7.163 16 16-7.163 16-16 16S0 24.837 0 16"/><path fill="var(--hop-Richicon-placeholder-background, #2A2620)" fill-rule="evenodd" d="M26.244 7.24a2.4 2.4 0 0 0-1.738.745L22.99 9.503l-.083.083-.002.002a2.39 2.39 0 0 0-.578 2.278l-.658.51a2.4 2.4 0 0 0-3.967.55l-3.024-1.136a2.403 2.403 0 0 0-2.313-3.042 2.4 2.4 0 0 0-1.566.581v-.001l-.01.009a2.4 2.4 0 0 0-.236.236l-1.364 1.364a2.4 2.4 0 0 0-.812 2.052 2.4 2.4 0 0 0-1.046-.24 2.4 2.4 0 0 0-1.603.615v-.003l-.037.037a2 2 0 0 0-.112.111L4.09 14.998a2.4 2.4 0 0 0 1.054 4.08v3.75a.8.8 0 0 0 .8.8H24.43a.8.8 0 0 0 .593-.263l1.544-1.544.056-.056.016-.015h-.002a.8.8 0 0 0 .193-.522v-8.995q.064-.143.111-.295a2.401 2.401 0 0 0-.697-4.697M25.07 8.879a1.399 1.399 0 0 1 2.574.763 1.4 1.4 0 0 1-1.814 1.338l-.002-.001a1.397 1.397 0 0 1-.758-2.1M18.692 13.2a1.399 1.399 0 0 1 2.575.763 1.4 1.4 0 1 1-2.575-.763m-4.928-2.051q0 .148-.03.288a1.4 1.4 0 0 1-.564.857m.594-1.145a1.4 1.4 0 0 0-1.4-1.4zm-1.4-1.4c-.493 0-.925.254-1.175.638zm1.737 3.056a2.4 2.4 0 0 1-1.738.744 2.4 2.4 0 0 1-1.542-.561L9.454 14.03a2.4 2.4 0 0 1-1.71 3.483v3.514H25.83v-9.023a2.4 2.4 0 0 1-1.243-.628l-2.425 1.882a2.4 2.4 0 1 1-4.695.647l-3.258-1.223a2 2 0 0 1-.108.12m-7.945 1.583a1.399 1.399 0 0 1 2.484.266l.005.015q.084.227.085.482a1.4 1.4 0 1 1-2.574-.763m5.033-4.001c-.143.219-.226.48-.226.762zm-.226.762c0 .513.276.961.688 1.205zm.688 1.205.045.026zm.045.026c.199.108.426.169.668.169zm.668.169c.28 0 .543-.083.762-.226z"/><path fill="var(--hop-Richicon-placeholder-fill, #fff)" d="M27.644 9.64a1.4 1.4 0 0 1-1.814 1.339l-.002-.001a1.4 1.4 0 0 1-.984-1.337 1.4 1.4 0 1 1 2.8 0m-6.377 4.321a1.4 1.4 0 1 1-2.8 0 1.4 1.4 0 0 1 2.8 0m-8.097-1.669a1.4 1.4 0 1 0-1.613-2.289 1.4 1.4 0 0 0 1.613 2.289m-5.426 4.194a1.4 1.4 0 1 1-.825-2.677 1.4 1.4 0 0 1 .825 2.677"/><path fill="var(--hop-Richicon-placeholder-fill, #fff)" d="m22.162 13.259 2.425-1.882c.336.321.766.545 1.243.628v9.023H7.744v-3.514a2.4 2.4 0 0 0 1.71-3.483l1.367-1.044a2.4 2.4 0 0 0 3.388-.304l3.258 1.223v.056a2.4 2.4 0 1 0 4.695-.703"/></svg>