<svg xmlns="http://www.w3.org/2000/svg" width="40" height="40" viewBox="0 0 40 40"><path fill="var(--hop-Richicon-placeholder-shadow, #E5DED6)" d="M0 20C0 8.954 8.954 0 20 0s20 8.954 20 20-8.954 20-20 20S0 31.046 0 20"/><path fill="var(--hop-Richicon-placeholder-background, #2A2620)" fill-rule="evenodd" d="M32.805 9.051c-.854 0-1.625.357-2.172.93l-1.897 1.898q-.053.05-.103.103l-.003.003a2.99 2.99 0 0 0-.722 2.847l-.823.638a3 3 0 0 0-4.959.687l-3.78-1.42a3.005 3.005 0 0 0-2.892-3.802c-.748 0-1.431.274-1.957.726v-.001l-.011.011q-.158.138-.296.296l-1.705 1.704a3 3 0 0 0-1.016 2.565 3 3 0 0 0-1.306-.299c-.77 0-1.473.29-2.004.768V16.7l-.047.046a3 3 0 0 0-.14.14l-1.86 1.86a3.001 3.001 0 0 0 1.318 5.1v4.688a1 1 0 0 0 1 1h23.108a1 1 0 0 0 .74-.328l1.931-1.93q.036-.034.07-.07l.02-.02h-.003a1 1 0 0 0 .242-.652V15.291q.08-.179.139-.368a3.001 3.001 0 0 0-.872-5.872m-1.468 2.047a1.75 1.75 0 1 1 .95 2.625h-.002a1.747 1.747 0 0 1-.948-2.624M23.365 16.5a1.749 1.749 0 0 1 3.218.953 1.75 1.75 0 1 1-3.218-.953m-6.16-2.564q0 .185-.038.36c-.092.44-.35.82-.705 1.07m.742-1.43a1.75 1.75 0 0 0-1.75-1.75zm-1.75-1.75c-.615 0-1.156.317-1.468.797zm2.172 3.82a3 3 0 0 1-2.172.93 3 3 0 0 1-1.928-.701l-1.708 1.305a3 3 0 0 1-2.137 4.354v4.392h22.607V15.007a3 3 0 0 1-1.554-.785l-3.032 2.351a3 3 0 1 1-5.869.81l-4.072-1.53a3 3 0 0 1-.135.152m-9.931 1.979a1.749 1.749 0 0 1 3.105.332l.007.02q.104.282.106.601a1.75 1.75 0 1 1-3.218-.953m6.291-5.002a1.74 1.74 0 0 0-.282.953zm-.282.953c0 .641.345 1.202.86 1.506zm.86 1.506.056.033zm.056.033c.248.134.532.211.834.211zm.834.211c.352 0 .68-.104.953-.282z"/><path fill="#fff" d="M34.555 12.051a1.75 1.75 0 0 1-2.267 1.672h-.003a1.75 1.75 0 0 1-1.23-1.671 1.75 1.75 0 1 1 3.5 0m-7.972 5.4a1.75 1.75 0 1 1-3.5 0 1.75 1.75 0 0 1 3.5 0m-10.121-2.086a1.75 1.75 0 1 0-2.016-2.861 1.75 1.75 0 0 0 2.016 2.86M9.68 20.61q-.246.076-.517.077a1.75 1.75 0 1 1 1.637-2.37l.007.018q.104.283.106.602a1.75 1.75 0 0 1-1.233 1.672"/><path fill="#fff" d="m27.702 16.573 3.032-2.351c.42.4.957.68 1.554.785v11.278H9.68v-4.392a3 3 0 0 0 2.138-4.354l1.708-1.306a3 3 0 0 0 1.928.702 2.99 2.99 0 0 0 2.307-1.082l4.073 1.53v.069a3 3 0 1 0 5.868-.879"/></svg>