<svg xmlns="http://www.w3.org/2000/svg" width="32" height="32" viewBox="0 0 32 32"><path fill="var(--hop-Richicon-placeholder-shadow, #E5DED6)" d="M0 16C0 7.163 7.163 0 16 0s16 7.163 16 16-7.163 16-16 16S0 24.837 0 16"/><path fill="#fff" d="M25.871 13.55q.044-.174.081-.343c.63-2.817.128-4.602-.117-5.242-.64-.245-2.425-.746-5.242-.116a15 15 0 0 0-.342.08zm-6.717-5.304c-2.921.956-6.756 3.09-11.395 7.57l10.225 10.226c4.48-4.64 6.615-8.474 7.57-11.395zm-8.138 3.416a33 33 0 0 1 3.673-2.478c-1.078-.86-2.07-1.224-2.992-1.224-.947 0-1.97.385-3.084 1.299zm11.123 11.122a33 33 0 0 0 2.385-3.513c.452.765.651 1.486.651 2.167 0 .947-.384 1.97-1.299 3.084z"/><path fill="var(--hop-Richicon-placeholder-background, #2A2620)" fill-rule="evenodd" d="M20.412 13.389a1.422 1.422 0 1 0-2.01 2.01 1.422 1.422 0 0 0 2.01-2.01m-2.718-.707a2.422 2.422 0 1 1 3.425 3.424 2.422 2.422 0 0 1-3.425-3.425"/><path fill="var(--hop-Richicon-placeholder-background, #2A2620)" fill-rule="evenodd" d="M26.368 7.102a.62.62 0 0 1 .33.331c.4.928 1.622 4.713-1.622 10.848q2.444 3.508-.544 7.016a.83.83 0 0 1-.725.286h-2.409a1 1 0 0 1-.18 0h-.025l.003-.003a.9.9 0 0 1-.523-.258l-.345-.345a52 52 0 0 1-1.687 1.825.92.92 0 0 1-.827.26l-2.275.068a.91.91 0 0 1-.864-.236l-4.078-4.078-2.054 2.054-.707-.707 2.054-2.054-5.573-5.572a.914.914 0 0 1 .013-1.297 49 49 0 0 1 3.316-2.946l-2.422-2.42c-.357-.358-.36-.942.025-1.27q2.091-1.78 4.182-1.631h1.944q1.65-.118 3.299.966c2.481-1.046 4.498-1.334 6.008-1.314l1.7-.05c2.123-.152 3.48.31 3.986.528m-8.384 18.94a51 51 0 0 0 1.635-1.774c1.491-1.697 2.66-3.274 3.57-4.725q.378-.602.7-1.174.265-.474.495-.927c.51-1.008.89-1.94 1.17-2.795l-6.4-6.4c-2.921.955-6.756 3.09-11.395 7.57zM20.251 7.93l5.62 5.62.006-.024a15 15 0 0 0 .18-.834c.463-2.52.008-4.126-.222-4.726l-.132-.048a7 7 0 0 0-1.644-.336c-.882-.08-2.042-.05-3.466.268a15 15 0 0 0-.342.08m4.273 11.342c.452.765.651 1.486.651 2.167 0 .947-.384 1.97-1.298 3.084l-1.738-1.738a33 33 0 0 0 2.385-3.513M14.69 9.184a33 33 0 0 0-3.673 2.478L8.613 9.259c1.114-.914 2.137-1.299 3.084-1.299.921 0 1.914.364 2.992 1.224"/><path fill="var(--hop-Richicon-placeholder-background, #2A2620)" d="M12.079 25.577 9.25 28.405l.707.707 2.829-2.828zm-8.486-2.828 2.829-2.829.707.707-2.828 2.829z"/></svg>