<svg xmlns="http://www.w3.org/2000/svg" width="24" height="24" viewBox="0 0 24 24"><path fill="#E5DED6" d="M0 12C0 5.373 5.373 0 12 0s12 5.373 12 12-5.373 12-12 12S0 18.627 0 12"/><path fill="#2A2620" fill-rule="evenodd" d="M15.22 10.13a.941.941 0 1 0-1.33 1.331.941.941 0 0 0 1.33-1.331m-2.038-.707a1.941 1.941 0 1 1 2.746 2.745 1.941 1.941 0 0 1-2.746-2.745"/><path fill="#2A2620" fill-rule="evenodd" d="m15.505 18.991-.259-.258q-.589.669-1.266 1.368a.69.69 0 0 1-.62.196l-1.706.05a.68.68 0 0 1-.648-.177l-2.97-2.97-1.54 1.54-.708-.706 1.54-1.54-4.09-4.091a.685.685 0 0 1 .01-.973 37 37 0 0 1 2.486-2.21L3.918 7.406c-.268-.268-.27-.707.019-.953Q5.504 5.117 7.073 5.23h1.458q1.238-.089 2.474.724c1.861-.784 3.374-1 4.506-.985l1.276-.038c1.592-.113 2.61.234 2.989.397a.47.47 0 0 1 .248.248c.3.696 1.216 3.534-1.217 8.136q1.833 2.63-.408 5.261a.62.62 0 0 1-.544.215H16.05a1 1 0 0 1-.136 0h-.018l.002-.002a.68.68 0 0 1-.392-.194m2.38-.976c.534-.716.746-1.358.746-1.937 0-.424-.114-.881-.384-1.377q-.273.451-.588.923-.41.615-.901 1.264zm.255-12.068a7 7 0 0 0-.729-.04zM8.463 8.593 6.836 6.967c.716-.534 1.358-.747 1.937-.747s1.221.213 1.937.747l-.26.258c-.633.392-1.296.845-1.987 1.368"/><path fill="#2A2620" d="m4.728 14.852-2.121 2.12.707.708 2.121-2.121zm4.242 4.242-2.12 2.122.706.707L9.678 19.8z"/><path fill="#fff" d="M8.463 8.593 6.836 6.967c.716-.534 1.358-.747 1.937-.747s1.221.213 1.937.747l-.26.258c-.633.392-1.296.845-1.987 1.368m8.295 8.295a25 25 0 0 0 1.489-2.187c.27.495.384.953.384 1.377 0 .58-.212 1.221-.746 1.937zM13.89 10.13a.941.941 0 1 1 1.33 1.331.941.941 0 0 1-1.33-1.331"/><path fill="#fff" fill-rule="evenodd" d="M13.485 19.174c3.212-3.369 4.747-6.146 5.439-8.254L14.43 6.427c-2.107.692-4.884 2.226-8.253 5.439zm2.443-9.751a1.941 1.941 0 1 0-2.746 2.745 1.941 1.941 0 0 0 2.746-2.745"/><path fill="#fff" d="M19.181 6.17c-.317-.11-.904-.259-1.748-.262q-.315-.002-.676.027-.555.043-1.217.187l3.689 3.689c.415-1.89.13-3.125-.048-3.642"/></svg>