<svg xmlns="http://www.w3.org/2000/svg" width="40" height="40" viewBox="0 0 40 40"><path fill="var(--hop-Richicon-placeholder-shadow, #E5DED6)" d="M0 20C0 8.954 8.954 0 20 0s20 8.954 20 20-8.954 20-20 20S0 31.046 0 20"/><path fill="#fff" d="M32.339 16.937q.054-.217.101-.428c.788-3.521.16-5.752-.146-6.552-.8-.307-3.031-.934-6.552-.146q-.211.047-.428.1zm-8.397-6.629c-3.65 1.195-8.444 3.863-14.243 9.462L22.48 32.552c5.6-5.8 8.268-10.592 9.463-14.243zM13.77 14.577a41 41 0 0 1 4.591-3.097c-1.347-1.076-2.588-1.53-3.74-1.53-1.183 0-2.462.48-3.854 1.623zM27.674 28.48a42 42 0 0 0 2.982-4.392c.564.957.813 1.858.813 2.71 0 1.183-.48 2.462-1.623 3.854z"/><path fill="var(--hop-Richicon-placeholder-background, #2A2620)" fill-rule="evenodd" d="M25.515 16.736a1.777 1.777 0 1 0-2.513 2.513 1.777 1.777 0 0 0 2.513-2.513m-3.397-.884a3.027 3.027 0 1 1 4.28 4.281 3.027 3.027 0 0 1-4.28-4.281"/><path fill="var(--hop-Richicon-placeholder-background, #2A2620)" fill-rule="evenodd" d="M32.96 8.878a.78.78 0 0 1 .413.413c.499 1.16 2.026 5.89-2.029 13.56q3.055 4.385-.678 8.77a1.04 1.04 0 0 1-.907.358h-3.011q-.112.012-.225 0h-.031l.003-.003a1.13 1.13 0 0 1-.654-.324l-.43-.431a65 65 0 0 1-2.11 2.281 1.14 1.14 0 0 1-1.034.326l-2.844.085a1.14 1.14 0 0 1-1.08-.295l-5.097-5.098-2.567 2.567-.884-.884 2.567-2.567-6.965-6.965a1.14 1.14 0 0 1 .016-1.622 61 61 0 0 1 4.144-3.68L6.53 12.34c-.447-.447-.45-1.178.032-1.587q2.614-2.226 5.227-2.04h2.43q2.062-.146 4.123 1.208c3.102-1.307 5.623-1.668 7.51-1.642l2.125-.064c2.655-.188 4.35.39 4.982.662M22.48 32.552q1.094-1.134 2.044-2.217c1.863-2.122 3.324-4.093 4.463-5.906q.473-.752.874-1.468.331-.591.619-1.158a25 25 0 0 0 1.463-3.494l-8-8.001c-3.652 1.195-8.445 3.863-14.244 9.462zm2.834-22.64 7.025 7.025.008-.031a18 18 0 0 0 .225-1.042c.578-3.15.01-5.157-.278-5.907l-.165-.06a8.7 8.7 0 0 0-2.056-.42c-1.102-.1-2.552-.064-4.332.334q-.21.047-.427.1m5.342 14.177c.564.956.813 1.857.813 2.708 0 1.184-.48 2.463-1.623 3.855l-2.172-2.172a42 42 0 0 0 2.982-4.391M18.36 11.479a41 41 0 0 0-4.59 3.098l-3.004-3.004c1.392-1.142 2.671-1.623 3.855-1.623 1.15 0 2.392.454 3.74 1.53"/><path fill="var(--hop-Richicon-placeholder-background, #2A2620)" d="m15.098 31.971-3.535 3.536.884.884 3.535-3.536zM4.492 28.436 8.027 24.9l.884.884-3.535 3.535z"/></svg>