<svg xmlns="http://www.w3.org/2000/svg" width="32" height="32" viewBox="0 0 32 32"><path fill="var(--hop-Richicon-placeholder-shadow, #E5DED6)" d="M0 16C0 7.163 7.163 0 16 0s16 7.163 16 16-7.163 16-16 16S0 24.837 0 16"/><path fill="var(--hop-Richicon-placeholder-background, #2A2620)" fill-rule="evenodd" d="M5.388 12.905v-.012l-1.544 1.494a1.9 1.9 0 0 0-.684 1.463v.567c0 .788.485 1.495 1.22 1.779l6.1 2.35a1.91 1.91 0 0 0 2.343-.835L12 23.27a1.851 1.851 0 0 0 3.256 1.565l1.48-1.542h-.004c.248-.236.43-.544.512-.897l.7-3.03a1.91 1.91 0 0 0 2.496 1.18l6.1-2.35c.317-.122.587-.322.793-.574l1.434-1.495h-.004a1.8 1.8 0 0 0 .633-1.37v-.632a1.8 1.8 0 0 0-1.153-1.68l-6.195-2.385a1.8 1.8 0 0 0-2.098.612l.334-1.447A1.793 1.793 0 0 0 17.2 7.629v-.005l-1.677 1.584h.01a1.85 1.85 0 0 0-.493.892l-.341 1.48a1.8 1.8 0 0 0-2.44-1.52l-6.195 2.385a1.8 1.8 0 0 0-.677.46m8.454 2.39.499-2.161q-.126.166-.288.3h.003l-1.318 1.35-.058.08.79.26a1.8 1.8 0 0 1 .372.171m-2.227.27-1.725.569 1.872.617c.577.19 1.015.637 1.205 1.189a.8.8 0 0 0 .282-.076l.336-1.455a.8.8 0 0 0-.428-.336zm1.35-2.695.192-.064a.8.8 0 0 0 .55-.76v-.308a.8.8 0 0 0-1.088-.746l-1.572.605a1.914 1.914 0 0 1 1.918 1.273m2.98 9.777c.16-.11.28-.277.326-.477l1.764-7.644q-.084-.176-.131-.368zm2.681-10.681a2 2 0 0 0-.272.243l.295-1.277a1.85 1.85 0 0 0-.937-2.053l.055-.236A.792.792 0 1 1 19.31 9zm.236 3.424q.141.075.297.126l.787.26-.022.03v-.01l-1.47 1.362zm2.13.757.028-.017.01.004zm6.747-.589a1.9 1.9 0 0 0-1.198-1.486l-5.939-2.287v-.047a.8.8 0 0 1 1.088-.746l6.194 2.385a.8.8 0 0 1 .513.747v.632a.8.8 0 0 1-.513.746zm-22.811-.563"/><path fill="#fff" d="M12.619 17.888a.8.8 0 0 0 1.087-.747v-.308a.8.8 0 0 0-.55-.76l-2.432-.802-2.255-.786a.048.048 0 0 1 0-.09l2.255-.786 2.433-.803a.8.8 0 0 0 .55-.76v-.308a.8.8 0 0 0-1.088-.746l-6.195 2.385a.8.8 0 0 0-.512.747v.632a.8.8 0 0 0 .512.746zm2.88 4.896a.79.79 0 0 0 .772-.614L19.311 9a.792.792 0 0 0-1.544-.357l-3.04 13.17a.793.793 0 0 0 .772.971m5.103-5.643a.8.8 0 0 0 1.088.747l6.194-2.386a.8.8 0 0 0 .513-.746v-.632a.8.8 0 0 0-.513-.747l-6.194-2.385a.8.8 0 0 0-1.088.746v.309a.8.8 0 0 0 .55.76l2.433.802 2.255.786a.048.048 0 0 1 0 .09l-2.255.786-2.433.802a.8.8 0 0 0-.55.76z"/></svg>