<svg xmlns="http://www.w3.org/2000/svg" width="24" height="24" viewBox="0 0 24 24"><path fill="#E5DED6" d="M0 12C0 5.373 5.373 0 12 0s12 5.373 12 12-5.373 12-12 12S0 18.627 0 12"/><path fill="#2A2620" fill-rule="evenodd" d="m4.021 9.7-1.232 1.174h.002a1.43 1.43 0 0 0-.421 1.014v.425c0 .591.363 1.121.915 1.334l4.575 1.762a1.43 1.43 0 0 0 1.757-.626L9 17.454a1.388 1.388 0 0 0 2.348 1.279l1.194-1.252h-.005c.192-.178.334-.414.396-.684l.524-2.272a1.43 1.43 0 0 0 1.872.885l4.576-1.762c.284-.11.519-.304.68-.548l.863-.91a1.35 1.35 0 0 0 .598-1.122v-.474a1.35 1.35 0 0 0-.864-1.26l-4.646-1.79a1.35 1.35 0 0 0-1.573.46l.25-1.085a1.344 1.344 0 0 0-2.349-1.156v-.018l-1.252 1.194h.007a1.4 1.4 0 0 0-.34.636l-.255 1.11a1.35 1.35 0 0 0-1.83-1.14l-4.646 1.79c-.208.08-.387.207-.528.367m6.36 1.772.374-1.621q-.074.098-.164.18l-1.064 1.122.575.19q.15.05.28.128m-1.67.202-1.293.426 1.404.463c.432.143.76.478.903.892a.6.6 0 0 0 .211-.056l.252-1.092a.6.6 0 0 0-.32-.252zm1.013-2.022.144-.047a.6.6 0 0 0 .412-.57v-.231a.6.6 0 0 0-.816-.56l-1.179.454a1.435 1.435 0 0 1 1.439.954m2.234 7.333a.6.6 0 0 0 .245-.357l1.323-5.733a1.4 1.4 0 0 1-.098-.277zm2.012-8.01a1.5 1.5 0 0 0-.205.181l.221-.957a1.39 1.39 0 0 0-.702-1.54l.04-.177a.594.594 0 1 1 1.16.268zm.177 2.568-.309 1.336q.078-.074.166-.134l.95-.907.005-.006-.59-.195a1.4 1.4 0 0 1-.222-.095m6.658.126a1.43 1.43 0 0 0-.9-1.115l-4.453-1.715v-.035a.6.6 0 0 1 .815-.56l4.646 1.79a.6.6 0 0 1 .384.56v.473a.6.6 0 0 1-.384.56zm-5.061.441.029-.01-.008-.002zm3.165-1.082.799.309a1 1 0 0 0-.088-.042l-.702-.27z"/><path fill="#fff" d="M9.464 13.416a.6.6 0 0 0 .816-.56v-.231a.6.6 0 0 0-.412-.57l-1.825-.602-1.692-.59a.036.036 0 0 1 0-.067l1.692-.59 1.825-.601a.6.6 0 0 0 .412-.57v-.231a.6.6 0 0 0-.816-.56l-4.646 1.79a.6.6 0 0 0-.384.559v.474a.6.6 0 0 0 .384.56zm2.16 3.672a.594.594 0 0 0 .58-.46l2.28-9.878a.594.594 0 1 0-1.16-.268l-2.28 9.878a.594.594 0 0 0 .58.728m3.828-4.232a.6.6 0 0 0 .815.56l4.646-1.79a.6.6 0 0 0 .384-.56v-.473a.6.6 0 0 0-.384-.56l-4.646-1.79a.6.6 0 0 0-.815.56v.232a.6.6 0 0 0 .412.57l1.824.602 1.692.59a.036.036 0 0 1 0 .067l-1.692.59-1.824.601a.6.6 0 0 0-.412.57z"/></svg>