<svg xmlns="http://www.w3.org/2000/svg" width="40" height="40" viewBox="0 0 40 40"><path fill="var(--hop-richicon-placeholder-foreground, #E5DED6)" d="M0 20C0 8.954 8.954 0 20 0s20 8.954 20 20-8.954 20-20 20S0 31.046 0 20"/><path fill="var(--hop-richicon-placeholder-background, #2A2620)" fill-rule="evenodd" d="m6.675 16.198-1.793 1.724a2.38 2.38 0 0 0-.933 1.89v.71c0 .985.607 1.868 1.526 2.222l7.626 2.937a2.384 2.384 0 0 0 2.927-1.042l-1.026 4.448a2.314 2.314 0 0 0 3.916 2.13v.005l1.943-2.057c.34-.3.588-.705.696-1.171l.874-3.787a2.385 2.385 0 0 0 3.12 1.474l7.625-2.937c.42-.161.774-.433 1.036-.775l1.828-1.888a2.25 2.25 0 0 0 .706-1.636v-.79a2.25 2.25 0 0 0-1.441-2.1l-7.743-2.982a2.25 2.25 0 0 0-2.623.766l.418-1.809a2.24 2.24 0 0 0-3.858-1.992l-2.071 1.959h.003c-.305.3-.528.686-.63 1.127l-.427 1.85a2.25 2.25 0 0 0-3.05-1.9l-7.743 2.981a2.3 2.3 0 0 0-.906.643m10.627 2.921.624-2.701a2.3 2.3 0 0 1-.292.316l-1.757 1.854.96.317q.249.082.465.214m-2.783.337-2.156.711 2.34.772c.72.238 1.268.796 1.506 1.486a1 1 0 0 0 .352-.094l.42-1.82a1 1 0 0 0-.535-.42zm1.688-3.37.24-.078a1 1 0 0 0 .686-.95v-.385a1 1 0 0 0-1.36-.933l-1.964.756a2.39 2.39 0 0 1 2.398 1.59M19.93 28.31a1 1 0 0 0 .408-.596l2.205-9.555a2.4 2.4 0 0 1-.164-.46zm3.352-13.352q-.185.135-.34.304l.368-1.597a2.315 2.315 0 0 0-1.17-2.566l.067-.294a.99.99 0 0 1 1.93.445zm2.957 5.226.035-.02.013.004zm8.434-.735a2.38 2.38 0 0 0-1.498-1.858l-7.423-2.86v-.057a1 1 0 0 1 1.36-.933l7.742 2.982a1 1 0 0 1 .64.933v.79a1 1 0 0 1-.64.933zm-11.096-.21-.505 2.185 1.847-1.686.012-.017-.984-.325a2.4 2.4 0 0 1-.37-.158"/><path fill="#fff" d="M15.773 22.36a1 1 0 0 0 1.36-.933v-.386a1 1 0 0 0-.687-.95l-3.04-1.002-2.82-.983a.06.06 0 0 1 0-.113l2.82-.982 3.04-1.003a1 1 0 0 0 .687-.95v-.385a1 1 0 0 0-1.36-.933l-7.742 2.982a1 1 0 0 0-.641.933v.79a1 1 0 0 0 .64.933zm3.6 6.12a.99.99 0 0 0 .966-.767l3.8-16.464a.99.99 0 0 0-1.93-.445l-3.8 16.463a.99.99 0 0 0 .965 1.213m6.38-7.053a1 1 0 0 0 1.36.933l7.742-2.982a1 1 0 0 0 .64-.933v-.79a1 1 0 0 0-.64-.933l-7.742-2.982a1 1 0 0 0-1.36.933v.385a1 1 0 0 0 .687.95l3.04 1.003 2.82.982a.06.06 0 0 1 0 .113l-2.82.983-3.04 1.003a1 1 0 0 0-.687.95z"/></svg>