<svg xmlns="http://www.w3.org/2000/svg" width="24" height="24" viewBox="0 0 24 24"><path fill="#E5DED6" d="M0 12C0 5.373 5.373 0 12 0s12 5.373 12 12-5.373 12-12 12S0 18.627 0 12"/><path fill="#2A2620" d="M11.864 3.6c-.427 0-.74.235-1.038.535l-.592.596-.673.687-.777-.301a1.07 1.07 0 0 0-1.153.236L6.575 6.41a1 1 0 0 0-.078.088q-.046.036-.087.078L5.354 7.631a1.07 1.07 0 0 0-.237 1.153l.35.877c-.39.168-.511.258-.931.688l-.62.649c-.316.315-.316.439-.316.866v1.493c0 .428.255.815.648.983l1.269.544q.053.138.113.272l-.513 1.282a1.07 1.07 0 0 0 .237 1.153l1.056 1.056c.302.302.755.395 1.153.236l1.281-.512q.134.06.272.112l.544 1.269c.168.393.555.648.983.648h1.493c.428 0 .704-.2 1.029-.544l.4-.42.898-.86.753.307c.397.159.85.066 1.153-.236l1.056-1.056q.042-.043.078-.088.046-.036.088-.078l1.056-1.056a1.07 1.07 0 0 0 .236-1.153l-.292-.758.611-.616.563-.549s.304-.297.416-.458c.122-.176.22-.476.22-.7v-1.493a1.07 1.07 0 0 0-.649-.982l-1.268-.544a6 6 0 0 0-.113-.272l.512-1.282a1.07 1.07 0 0 0-.236-1.153L17.59 5.353a1.07 1.07 0 0 0-1.153-.236l-1.281.512q-.135-.06-.273-.113l-.544-1.268a1.07 1.07 0 0 0-.982-.648z"/><path fill="#fff" fill-rule="evenodd" d="M5.847 12.238a.11.11 0 0 1-.067-.102v-1.494a.11.11 0 0 1 .067-.101l1.45-.622a.5.5 0 0 0 .275-.294q.099-.284.228-.551a.5.5 0 0 0 .014-.403l-.586-1.464a.11.11 0 0 1 .025-.12L8.309 6.03a.11.11 0 0 1 .12-.025l1.464.586a.5.5 0 0 0 .403-.014q.268-.129.55-.228a.5.5 0 0 0 .295-.275l.621-1.45a.11.11 0 0 1 .102-.067h1.494a.11.11 0 0 1 .102.067l.62 1.45a.5.5 0 0 0 .295.275q.284.099.551.228a.5.5 0 0 0 .403.014l1.465-.586a.11.11 0 0 1 .12.025l1.055 1.056a.11.11 0 0 1 .025.12l-.586 1.464a.5.5 0 0 0 .014.403q.129.268.228.55a.5.5 0 0 0 .275.295l1.45.621a.11.11 0 0 1 .067.102v1.494a.11.11 0 0 1-.067.102l-1.45.621a.5.5 0 0 0-.275.294 5 5 0 0 1-.228.551.5.5 0 0 0-.014.403l.586 1.465a.11.11 0 0 1-.025.12l-1.056 1.055a.11.11 0 0 1-.12.025l-1.464-.586a.5.5 0 0 0-.403.014 5 5 0 0 1-.55.228.5.5 0 0 0-.295.275l-.621 1.45a.11.11 0 0 1-.102.067h-1.494a.11.11 0 0 1-.102-.067l-.62-1.45a.5.5 0 0 0-.295-.275 5 5 0 0 1-.551-.228.5.5 0 0 0-.403-.014l-1.465.586a.11.11 0 0 1-.12-.025L7.253 15.69a.11.11 0 0 1-.025-.12l.586-1.464a.5.5 0 0 0-.014-.403 5 5 0 0 1-.228-.55.5.5 0 0 0-.275-.295z"/><path fill="#2A2620" d="M9.667 9.445v.417h1v-.417h5.61v-1h-5.61V8.03h-1v.416h-.722v1zm0 4.888v.416h1v-.416h5.61v-1h-5.61v-.417h-1v.417h-.722v1zm4.735-2.443v.415h1v-.416h.874v-1h-.874v-.416h-1v.416H8.945v1z"/></svg>