<svg xmlns="http://www.w3.org/2000/svg" width="40" height="40" viewBox="0 0 40 40"><path fill="var(--hop-Richicon-placeholder-shadow, #E5DED6)" d="M0 20C0 8.954 8.954 0 20 0s20 8.954 20 20-8.954 20-20 20S0 31.046 0 20"/><path fill="var(--hop-Richicon-placeholder-background, #2A2620)" d="M19.774 6c-.713 0-1.235.392-1.73.89l-.987.995-1.122 1.146-1.295-.503a1.78 1.78 0 0 0-1.921.394l-1.76 1.76q-.07.07-.13.146-.077.06-.147.13l-1.76 1.76a1.78 1.78 0 0 0-.394 1.922l.584 1.461c-.65.28-.853.43-1.553 1.147l-1.034 1.081C6 18.856 6 19.062 6 19.775v2.488c0 .713.425 1.357 1.08 1.638l2.114.906q.09.23.188.454l-.854 2.136a1.78 1.78 0 0 0 .395 1.922l1.76 1.76a1.78 1.78 0 0 0 1.921.394l2.136-.854q.224.1.454.188l.906 2.114c.28.655.925 1.08 1.637 1.08h2.49c.712 0 1.173-.334 1.714-.907l.668-.7 1.495-1.432 1.256.511c.662.265 1.418.11 1.922-.394l1.76-1.76q.07-.07.13-.146.076-.06.146-.13l1.76-1.76c.504-.505.659-1.26.394-1.922l-.487-1.263 1.018-1.027.939-.914s.505-.497.692-.764c.205-.293.366-.793.366-1.166v-2.489c0-.712-.425-1.357-1.08-1.637l-2.114-.907q-.09-.23-.188-.453l.854-2.136a1.78 1.78 0 0 0-.394-1.922l-1.76-1.76a1.78 1.78 0 0 0-1.922-.394l-2.135.854q-.225-.1-.454-.188L23.9 7.08A1.78 1.78 0 0 0 22.263 6z"/><path fill="var(--hop-Richicon-placeholder-fill, #fff)" d="m9.663 17.376 2.417-1.036a.63.63 0 0 0 .343-.368 9 9 0 0 1 .39-.94.63.63 0 0 0 .017-.503l-.976-2.44a.39.39 0 0 1 .087-.425l1.76-1.76a.39.39 0 0 1 .424-.087l2.44.977a.63.63 0 0 0 .504-.018q.457-.22.94-.39a.63.63 0 0 0 .368-.343l1.036-2.416a.39.39 0 0 1 .36-.238h2.49c.157 0 .3.093.361.238l1.036 2.416a.63.63 0 0 0 .367.344q.483.169.94.39a.63.63 0 0 0 .504.017l2.44-.977a.39.39 0 0 1 .425.087l1.76 1.76a.39.39 0 0 1 .087.424l-.976 2.441a.63.63 0 0 0 .017.504q.22.457.39.94a.63.63 0 0 0 .343.367l2.416 1.036a.39.39 0 0 1 .239.361v2.49a.39.39 0 0 1-.239.36l-2.416 1.036a.63.63 0 0 0-.344.368 9 9 0 0 1-.39.94.63.63 0 0 0-.017.503l.977 2.441a.39.39 0 0 1-.087.424l-1.76 1.76a.39.39 0 0 1-.424.087l-2.441-.976a.63.63 0 0 0-.504.017 9 9 0 0 1-.94.39.63.63 0 0 0-.367.343l-1.036 2.417a.39.39 0 0 1-.361.238h-2.49a.39.39 0 0 1-.36-.238l-1.036-2.416a.63.63 0 0 0-.368-.344 9 9 0 0 1-.94-.39.63.63 0 0 0-.503-.017l-2.441.976a.39.39 0 0 1-.424-.087l-1.76-1.76a.39.39 0 0 1-.087-.424l.976-2.44a.62.62 0 0 0-.017-.504 9 9 0 0 1-.39-.94.63.63 0 0 0-.343-.368l-2.417-1.035a.39.39 0 0 1-.238-.362v-2.489c0-.157.094-.3.238-.361"/><path fill="var(--hop-Richicon-placeholder-background, #2A2620)" d="M16.32 15.534v.902h1.25v-.902h9.557v-1.25H17.57v-.902h-1.25v.902h-1.41v1.25zm0 8.146v.902h1.25v-.902h9.557v-1.25H17.57v-.903h-1.25v.902h-1.41v1.25zm7.891-4.073v.902h1.25v-.902h1.666v-1.25h-1.666v-.902h-1.25v.902H14.91v1.25z"/></svg>