<svg xmlns="http://www.w3.org/2000/svg" width="32" height="32" viewBox="0 0 32 32"><path fill="var(--hop-Richicon-placeholder-shadow, #E5DED6)" d="M0 16C0 7.163 7.163 0 16 0s16 7.163 16 16-7.163 16-16 16S0 24.837 0 16"/><path fill="var(--hop-Richicon-placeholder-background, #2A2620)" d="M15.82 4.8c-.571 0-.989.313-1.386.713l-.789.795-.897.917-1.036-.403a1.43 1.43 0 0 0-1.537.316L8.767 8.546a1 1 0 0 0-.104.116q-.06.05-.117.105l-1.408 1.408a1.43 1.43 0 0 0-.316 1.537l.468 1.169c-.52.224-.683.344-1.243.917l-.827.866c-.42.42-.42.585-.42 1.155v1.991c0 .57.34 1.086.864 1.31l1.691.725q.072.184.15.363l-.683 1.709a1.43 1.43 0 0 0 .316 1.537l1.408 1.408a1.43 1.43 0 0 0 1.537.316l1.709-.684q.18.08.363.15l.725 1.692c.224.524.74.864 1.31.864h1.991c.57 0 .939-.267 1.372-.726l.534-.56 1.197-1.145 1.004.409c.53.211 1.134.087 1.537-.316l1.408-1.408q.056-.055.105-.117.06-.048.116-.104l1.408-1.408a1.43 1.43 0 0 0 .316-1.537l-.39-1.01.815-.822.75-.732s.405-.397.554-.61a1.85 1.85 0 0 0 .293-.933V14.19c0-.57-.34-1.086-.864-1.31l-1.691-.725a8 8 0 0 0-.15-.363l.683-1.709a1.43 1.43 0 0 0-.316-1.537l-1.408-1.408a1.43 1.43 0 0 0-1.537-.316l-1.709.684a8 8 0 0 0-.363-.15l-.725-1.692a1.43 1.43 0 0 0-1.31-.864z"/><path fill="var(--hop-Richicon-placeholder-fill, #fff)" d="m7.73 13.9 1.934-.828a.5.5 0 0 0 .275-.294q.135-.386.311-.752a.5.5 0 0 0 .014-.403l-.78-1.952a.32.32 0 0 1 .069-.34l1.408-1.408a.32.32 0 0 1 .339-.07l1.952.782a.5.5 0 0 0 .403-.014q.366-.176.752-.312a.5.5 0 0 0 .295-.275l.828-1.932a.32.32 0 0 1 .29-.191h1.99c.126 0 .24.075.29.19l.828 1.933a.5.5 0 0 0 .294.275q.387.136.752.312a.5.5 0 0 0 .403.014l1.953-.781a.32.32 0 0 1 .339.07l1.408 1.407a.31.31 0 0 1 .07.34l-.782 1.952a.5.5 0 0 0 .014.403q.176.366.312.752a.5.5 0 0 0 .275.294l1.933.829c.115.05.19.163.19.289v1.991c0 .126-.075.24-.19.29l-1.933.827a.5.5 0 0 0-.275.295q-.136.386-.312.752a.5.5 0 0 0-.014.402l.781 1.953c.047.117.02.25-.07.34l-1.407 1.408a.32.32 0 0 1-.34.07l-1.952-.782a.5.5 0 0 0-.403.014 7 7 0 0 1-.752.311.5.5 0 0 0-.294.275l-.829 1.933a.31.31 0 0 1-.289.191h-1.99a.31.31 0 0 1-.29-.19l-.828-1.934a.5.5 0 0 0-.295-.274 7 7 0 0 1-.751-.312.5.5 0 0 0-.403-.014l-1.953.781a.32.32 0 0 1-.34-.07L9.554 21.04a.32.32 0 0 1-.07-.34l.781-1.953a.5.5 0 0 0-.014-.402 7 7 0 0 1-.311-.752.5.5 0 0 0-.275-.294L7.73 16.47a.32.32 0 0 1-.191-.289V14.19c0-.126.075-.24.19-.29"/><path fill="var(--hop-Richicon-placeholder-background, #2A2620)" d="M13.056 12.427v.722h1v-.722h7.646v-1h-7.646v-.722h-1v.722h-1.129v1zm0 6.517v.722h1v-.722h7.646v-1h-7.646v-.722h-1v.722h-1.129v1zm6.314-3.258v.721h1v-.722h1.332v-1h-1.333v-.721h-1v.721h-7.442v1z"/></svg>