<svg xmlns="http://www.w3.org/2000/svg" width="32" height="32" viewBox="0 0 32 32"><path fill="var(--hop-Richicon-placeholder-shadow, #E5DED6)" d="M0 16C0 7.163 7.163 0 16 0s16 7.163 16 16-7.163 16-16 16S0 24.837 0 16"/><path fill="var(--hop-Richicon-placeholder-background, #2A2620)" fill-rule="evenodd" d="M17.759 17.692a1 1 0 0 1 .41-.292l4.825-1.826 1.505-.402c.725-.194.734-1.22.012-1.427l-6.302-1.797a1.1 1.1 0 0 1-.534-.343L15.483 3.93a.84.84 0 0 0-1.371-.392l-1.435 1.297a.84.84 0 0 0-.24.378l-1.959 6.42a1 1 0 0 1-.676.669l-7.117 2.08c-.947.277-.964 1.612-.025 1.913l6.776 2.171a1 1 0 0 1 .658.68l2.253 7.973c.17.6.91.813 1.372.394l1.432-1.297a.84.84 0 0 0 .245-.397l1.687-6.042zm2.1-4.234-2.002-.13a.43.43 0 0 1-.366-.603q.21.118.444.184z"/><path fill="var(--hop-Richicon-placeholder-fill, #fff)" d="m13.207 11.391 1.47-6.22 1.816 6.3a2.1 2.1 0 0 0 1.442 1.438l5.396 1.54-4.998 1.336a2.1 2.1 0 0 0-1.456 1.382l-2.215 6.84-1.9-6.724a2.1 2.1 0 0 0-1.45-1.45l-4.857-1.374 5.293-1.534a2.1 2.1 0 0 0 1.459-1.534"/><path fill="var(--hop-Richicon-placeholder-background, #2A2620)" d="M24.35 19.008a.4.4 0 0 0-.701 0l-1.075 1.966-1.966 1.075a.4.4 0 0 0 0 .702l1.966 1.075 1.075 1.966a.4.4 0 0 0 .702 0l1.075-1.966 1.966-1.075a.4.4 0 0 0 0-.702l-1.966-1.075zm-1.6-14.4a.4.4 0 0 0-.701 0l-.792 1.449-1.449.792a.4.4 0 0 0 0 .702l1.449.792.792 1.449a.4.4 0 0 0 .702 0l.792-1.449 1.449-.792a.4.4 0 0 0 0-.702l-1.449-.792z"/></svg>