<svg xmlns="http://www.w3.org/2000/svg" width="24" height="24" viewBox="0 0 24 24"><path fill="var(--hop-RichIcon-placeholder-background, #E5DED6)" d="M0 12C0 5.373 5.373 0 12 0s12 5.373 12 12-5.373 12-12 12S0 18.627 0 12"/><path fill="var(--hop-RichIcon-placeholder-shadow, #2A2620)" fill-rule="evenodd" d="M10.55 2.617a.67.67 0 0 1 .632-.152.7.7 0 0 1 .559.541l1.024 3.798.536 1.874 5.17 1.409c.714.194.712 1.209-.004 1.4l-.02.005-4.786 1.622-.059.023-1.854 5.724-.03.08-.123.438a.7.7 0 0 1-.198.32l-1.074.974a.68.68 0 0 1-1.11-.32l-1.691-5.979a.7.7 0 0 0-.46-.476L1.98 12.269c-.751-.24-.738-1.308.02-1.53l2.214-.647 3.362-1.036a.7.7 0 0 0 .235-.345l1.468-4.815a.7.7 0 0 1 .195-.306zm-5.34 8.166L9.43 9.56a.73.73 0 0 0 .504-.53l1.12-4.733 1.284 4.76c.06.26.258.466.516.536l4.37 1.19-3.9 1.044a.73.73 0 0 0-.503.477l-1.745 5.386-1.502-5.314a.73.73 0 0 0-.5-.5z"/><path fill="var(--hop-RichIcon-placeholder-fill, #fff)" d="m9.934 9.03 1.12-4.733 1.284 4.76c.06.26.258.466.516.536l4.37 1.19-3.9 1.044a.73.73 0 0 0-.503.477l-1.745 5.386-1.502-5.314a.73.73 0 0 0-.5-.5L5.21 10.783 9.43 9.56a.73.73 0 0 0 .504-.53"/><path fill="var(--hop-RichIcon-placeholder-shadow, #2A2620)" d="M18.439 14.16a.5.5 0 0 0-.878 0l-.778 1.423-1.423.778a.5.5 0 0 0 0 .878l1.423.778.778 1.423a.5.5 0 0 0 .878 0l.778-1.423 1.423-.778a.5.5 0 0 0 0-.878l-1.423-.778zm-1.2-10.8a.5.5 0 0 0-.878 0l-.566 1.035-1.035.566a.5.5 0 0 0 0 .878l1.035.566.566 1.035a.5.5 0 0 0 .878 0l.566-1.035 1.035-.566a.5.5 0 0 0 0-.878l-1.035-.566z"/></svg>