<svg xmlns="http://www.w3.org/2000/svg" width="40" height="40" viewBox="0 0 40 40"><path fill="var(--hop-Richicon-placeholder-shadow, #E5DED6)" d="M0 20C0 8.954 8.954 0 20 0s20 8.954 20 20-8.954 20-20 20S0 31.046 0 20"/><path fill="var(--hop-Richicon-placeholder-background, #2A2620)" fill-rule="evenodd" d="M22.198 22.115a1.25 1.25 0 0 1 .514-.364l6.03-2.283 1.881-.503c.907-.242.918-1.526.015-1.783l-7.876-2.247a1.37 1.37 0 0 1-.668-.43l-2.74-9.59a1.05 1.05 0 0 0-1.714-.491l-1.794 1.621a1.05 1.05 0 0 0-.3.473l-2.448 8.025a1.25 1.25 0 0 1-.845.836l-8.897 2.6c-1.183.346-1.204 2.015-.03 2.39l8.47 2.715c.399.128.707.447.821.85l2.817 9.966a1.05 1.05 0 0 0 1.715.493l1.79-1.622a1.05 1.05 0 0 0 .307-.496l2.108-7.553zm2.625-5.293-2.502-.161a.538.538 0 0 1-.457-.754q.261.145.555.23z"/><path fill="#fff" d="m16.508 14.24 1.839-7.776 2.27 7.875c.25.87.931 1.55 1.802 1.798l6.745 1.924-6.248 1.67c-.86.23-1.545.88-1.82 1.727l-2.768 8.55-2.376-8.405a2.63 2.63 0 0 0-1.811-1.812l-6.072-1.717 6.615-1.918a2.63 2.63 0 0 0 1.824-1.917"/><path fill="var(--hop-Richicon-placeholder-background, #2A2620)" d="M30.439 23.76a.5.5 0 0 0-.878 0l-1.344 2.457-2.457 1.344a.5.5 0 0 0 0 .878l2.457 1.344 1.344 2.457a.5.5 0 0 0 .878 0l1.344-2.457 2.457-1.344a.5.5 0 0 0 0-.878l-2.457-1.344zm-2-18a.5.5 0 0 0-.878 0l-.99 1.81-1.81.991a.5.5 0 0 0 0 .878l1.81.99.99 1.81a.5.5 0 0 0 .878 0l.99-1.81 1.81-.99a.5.5 0 0 0 0-.878l-1.81-.99z"/></svg>