<svg xmlns="http://www.w3.org/2000/svg" width="32" height="32" viewBox="0 0 32 32"><path fill="var(--hop-Richicon-placeholder-shadow, #E5DED6)" d="M0 16C0 7.163 7.163 0 16 0s16 7.163 16 16-7.163 16-16 16S0 24.837 0 16"/><path fill="var(--hop-Richicon-placeholder-background, #2A2620)" d="M18.746 5.386c-.6-1.214-1.932-1.21-2.982-.234l-.802.802s-.568.482-1.012 1.299l-1.444 2.925-4.106.596c-.935.136-1.109.678-1.706 1.276l-.697.704c-.521.492-1.469 1.49-.369 2.673l3.62 3.529c.056.054.08.13.068.207l-.855 4.982c-.229 1.335 1.172 2.352 2.37 1.722l4.475-2.352a.23.23 0 0 1 .217 0l4.475 2.352c1.614.591 2.47-.665 3.073-1.348.514-.584 1.36-1.092 1.163-2.24l-.854-4.983a.2.2 0 0 1 .004-.098l1.817-1.771q.126-.124.218-.26l1.648-1.607c.97-.945.435-2.59-.905-2.786l-5.003-.727a.23.23 0 0 1-.176-.127z"/><path fill="var(--hop-Richicon-placeholder-fill, #fff)" d="M17.012 5.675a.3.3 0 0 1 .538 0l2.388 4.839c.19.383.556.65.979.71l5.34.777a.3.3 0 0 1 .166.511L22.56 16.28a1.3 1.3 0 0 0-.374 1.15l.912 5.319a.3.3 0 0 1-.435.316l-4.776-2.51a1.3 1.3 0 0 0-1.21 0l-4.776 2.51a.3.3 0 0 1-.435-.316l.912-5.318a1.3 1.3 0 0 0-.374-1.151L8.14 12.513a.3.3 0 0 1 .166-.511l5.34-.776a1.3 1.3 0 0 0 .979-.711z"/></svg>