<svg xmlns="http://www.w3.org/2000/svg" width="24" height="24" viewBox="0 0 24 24"><path fill="var(--hop-Richicon-placeholder-shadow, #E5DED6)" d="M0 12C0 5.373 5.373 0 12 0s12 5.373 12 12-5.373 12-12 12S0 18.627 0 12"/><path fill="var(--hop-Richicon-placeholder-background, #2A2620)" d="M14.06 4.04c-.45-.91-1.45-.909-2.237-.176l-.601.602s-.427.36-.76.974L9.38 7.633l-3.08.448c-.701.102-.831.508-1.28.957l-.522.527c-.391.37-1.102 1.119-.277 2.005l2.716 2.647c.04.04.06.098.05.155l-.641 3.737c-.172 1 .879 1.764 1.777 1.291l3.357-1.764a.18.18 0 0 1 .162 0L15 19.4c1.21.444 1.853-.498 2.304-1.01.386-.439 1.02-.82.873-1.681l-.641-3.737a.2.2 0 0 1 .003-.074l1.363-1.328q.094-.092.164-.195L20.3 10.17c.727-.708.326-1.943-.68-2.09l-3.752-.545a.18.18 0 0 1-.131-.095z"/><path fill="#fff" d="M12.871 4.311a.1.1 0 0 1 .18 0l1.79 3.63c.16.324.47.55.829.601l4.005.582a.1.1 0 0 1 .055.17l-2.898 2.826a1.1 1.1 0 0 0-.316.973l.684 3.989a.1.1 0 0 1-.145.105l-3.582-1.883a1.1 1.1 0 0 0-1.024 0l-3.582 1.883a.1.1 0 0 1-.145-.105l.684-3.989a1.1 1.1 0 0 0-.317-.973L6.191 9.295a.1.1 0 0 1 .056-.17l4.005-.583a1.1 1.1 0 0 0 .828-.601z"/></svg>