<svg xmlns="http://www.w3.org/2000/svg" width="40" height="40" viewBox="0 0 40 40"><path fill="var(--hop-Richicon-placeholder-shadow, #E5DED6)" d="M0 20C0 8.954 8.954 0 20 0s20 8.954 20 20-8.954 20-20 20S0 31.046 0 20"/><path fill="var(--hop-Richicon-placeholder-background, #2A2620)" d="M23.432 6.733c-.749-1.518-2.414-1.514-3.726-.293l-1.003 1.003s-.711.601-1.266 1.623l-1.804 3.656-5.133.746c-1.169.17-1.386.847-2.133 1.595l-.87.88c-.652.614-1.837 1.863-.462 3.34l4.526 4.412c.068.067.1.163.084.258l-1.069 6.229c-.286 1.668 1.465 2.94 2.963 2.152l5.593-2.94a.29.29 0 0 1 .272 0l5.593 2.94c2.018.739 3.089-.831 3.841-1.686.643-.729 1.701-1.364 1.455-2.8l-1.068-6.228a.3.3 0 0 1 .005-.123l2.27-2.213q.159-.155.274-.326l2.06-2.008c1.212-1.18.543-3.239-1.131-3.482l-6.254-.909a.29.29 0 0 1-.22-.16z"/><path fill="#fff" d="M21.265 7.094a.375.375 0 0 1 .673 0l2.985 6.048c.236.48.694.812 1.223.889l6.675.97c.308.045.43.423.208.64l-4.83 4.708a1.63 1.63 0 0 0-.467 1.438l1.14 6.648a.375.375 0 0 1-.544.395l-5.97-3.138a1.63 1.63 0 0 0-1.513 0l-5.97 3.138a.375.375 0 0 1-.544-.395l1.14-6.648a1.63 1.63 0 0 0-.467-1.438l-4.83-4.708a.375.375 0 0 1 .208-.64l6.674-.97c.53-.077.987-.41 1.224-.889z"/></svg>