<svg xmlns="http://www.w3.org/2000/svg" width="24" height="24" viewBox="0 0 24 24"><path fill="var(--hop-RichIcon-placeholder-background, #E5DED6)" d="M0 12C0 5.373 5.373 0 12 0s12 5.373 12 12-5.373 12-12 12S0 18.627 0 12"/><path fill="var(--hop-RichIcon-placeholder-shadow, #2A2620)" fill-rule="evenodd" d="M9.625 5.4a.625.625 0 0 0-1.122-.378L7.524 6H6.6a.6.6 0 0 0-.438.19L4.99 7.362a.6.6 0 0 0-.19.438v9.6a.6.6 0 0 0 .6.6h13.2a.6.6 0 0 0 .455-.21l1.136-1.135a.6.6 0 0 0 .209-.455V6.6a.6.6 0 0 0-.6-.6h-1.775v-.6a.625.625 0 0 0-1.108-.397L15.92 6H9.625z"/><path fill="var(--hop-RichIcon-placeholder-fill, #fff)" d="M7.2 9h12.6v7.2H7.2z"/><path fill="var(--hop-RichIcon-placeholder-shadow, #2A2620)" fill-rule="evenodd" d="M9 4.9a.5.5 0 0 1 .5.5v2.4a.5.5 0 1 1-1 0V5.4a.5.5 0 0 1 .5-.5m8.4 0a.5.5 0 0 1 .5.5v2.4a.5.5 0 0 1-1 0V5.4a.5.5 0 0 1 .5-.5"/><path fill="var(--hop-RichIcon-placeholder-shadow, #2A2620)" d="M8.4 10.2h3v3h-3z"/></svg>