<svg xmlns="http://www.w3.org/2000/svg" width="40" height="40" viewBox="0 0 40 40"><path fill="var(--hop-RichIcon-placeholder-background, #E5DED6)" d="M0 20C0 8.954 8.954 0 20 0s20 8.954 20 20-8.954 20-20 20S0 31.046 0 20"/><path fill="var(--hop-RichIcon-placeholder-shadow, #2A2620)" fill-rule="evenodd" d="M15.625 9a.625.625 0 0 0-1.105-.4l-1.4 1.4H11a1 1 0 0 0-.73.317L8.317 12.27A1 1 0 0 0 8 13v16a1 1 0 0 0 1 1h22a1 1 0 0 0 .759-.349l1.892-1.892A1 1 0 0 0 34 27V11a1 1 0 0 0-1-1h-3.375V9a.625.625 0 0 0-1.105-.4l-1.4 1.4H15.625z"/><path fill="var(--hop-RichIcon-placeholder-fill, #fff)" d="M12 15h21v12H12z"/><path fill="var(--hop-RichIcon-placeholder-shadow, #2A2620)" fill-rule="evenodd" d="M15 8.375c.345 0 .625.28.625.625v4a.625.625 0 1 1-1.25 0V9c0-.345.28-.625.625-.625m14 0c.345 0 .625.28.625.625v4a.625.625 0 1 1-1.25 0V9c0-.345.28-.625.625-.625"/><path fill="var(--hop-RichIcon-placeholder-shadow, #2A2620)" d="M14 17h5v5h-5z"/></svg>