<svg xmlns="http://www.w3.org/2000/svg" width="32" height="32" viewBox="0 0 32 32"><path fill="var(--hop-RichIcon-placeholder-background, #E5DED6)" d="M0 16C0 7.163 7.163 0 16 0s16 7.163 16 16-7.163 16-16 16S0 24.837 0 16"/><path fill="var(--hop-RichIcon-placeholder-shadow, #2A2620)" fill-rule="evenodd" d="M12.625 7.2A.625.625 0 0 0 12 6.575c-.526 0-1.142 1.062-1.504 1.425H8.8a.8.8 0 0 0-.584.254L6.654 9.816a.8.8 0 0 0-.254.584v12.8a.8.8 0 0 0 .8.8h17.6c.243 0 .46-.108.607-.28l1.514-1.513a.8.8 0 0 0 .279-.607V8.8a.8.8 0 0 0-.8-.8h-2.575v-.8a.625.625 0 0 0-.625-.625c-.526 0-1.142 1.062-1.504 1.425h-9.071z"/><path fill="var(--hop-RichIcon-placeholder-fill, #fff)" d="M9.6 12h16.8v9.6H9.6z"/><path fill="var(--hop-RichIcon-placeholder-shadow, #2A2620)" fill-rule="evenodd" d="M12 6.7a.5.5 0 0 1 .5.5v3.2a.5.5 0 1 1-1 0V7.2a.5.5 0 0 1 .5-.5m11.2 0a.5.5 0 0 1 .5.5v3.2a.5.5 0 1 1-1 0V7.2a.5.5 0 0 1 .5-.5"/><path fill="var(--hop-RichIcon-placeholder-shadow, #2A2620)" d="M11.2 13.6h4v4h-4z"/></svg>