<svg xmlns="http://www.w3.org/2000/svg" width="40" height="40" viewBox="0 0 40 40"><path fill="var(--hop-Richicon-placeholder-shadow, #E5DED6)" d="M0 20C0 8.954 8.954 0 20 0s20 8.954 20 20-8.954 20-20 20S0 31.046 0 20"/><path fill="var(--hop-Richicon-placeholder-background, #2A2620)" d="M21 6c7.18 0 13 5.82 13 13 0 4.1-1.638 7.362-4.5 10-2.638 2.862-6.4 5-10.5 5-7.18 0-13-5.82-13-13 0-4.1 1.5-6.5 4-9.5 1.62-1.944 3.541-3.412 5.623-4.34A12.95 12.95 0 0 1 21 6"/><path fill="var(--hop-Richicon-placeholder-background, #2A2620)" fill-rule="evenodd" d="M29.5 29c2.862-2.638 4.5-5.9 4.5-10 0-7.18-5.82-13-13-13-1.918 0-3.738.415-5.377 1.16-2.081.928-4.003 2.396-5.623 4.34-2.5 3-4 5.4-4 9.5 0 7.18 5.82 13 13 13 4.1 0 7.862-2.138 10.5-5"/><path fill="var(--hop-Richicon-placeholder-fill, #fff)" d="M32.75 19c0 6.49-5.26 11.75-11.75 11.75S9.25 25.49 9.25 19 14.51 7.25 21 7.25 32.75 12.51 32.75 19"/><path fill="var(--hop-Richicon-placeholder-background, #2A2620)" fill-rule="evenodd" d="M27.629 13.904 19.216 24.39a.625.625 0 0 1-.93.051l-3.92-3.917.884-.884 3.427 3.424 7.977-9.944z"/></svg>