<svg xmlns="http://www.w3.org/2000/svg" width="24" height="24" viewBox="0 0 24 24"><path fill="#E5DED6" d="M0 12C0 5.373 5.373 0 12 0s12 5.373 12 12-5.373 12-12 12S0 18.627 0 12"/><path fill="#2A2620" d="M11.4 20.4a7.8 7.8 0 0 1-7.8-7.8c0-2.46.9-3.9 2.4-5.7.972-1.167 2.125-2.047 3.374-2.604A7.8 7.8 0 0 1 20.4 11.4c0 2.46-.983 4.417-2.7 6-1.583 1.717-3.84 3-6.3 3"/><path fill="#fff" d="M19.4 11.4a6.8 6.8 0 1 1-13.6 0 6.8 6.8 0 0 1 13.6 0"/><path fill="#2A2620" fill-rule="evenodd" d="m16.753 8.323-5.126 6.39a.5.5 0 0 1-.743.04l-2.441-2.438.707-.707 2.046 2.044 4.777-5.955z"/></svg>