<svg xmlns="http://www.w3.org/2000/svg" width="32" height="32" viewBox="0 0 32 32"><path fill="var(--hop-richicon-placeholder-foreground, #E5DED6)" d="M0 16C0 7.163 7.163 0 16 0s16 7.163 16 16-7.163 16-16 16S0 24.837 0 16"/><path fill="var(--hop-richicon-placeholder-background, #2A2620)" d="M27.2 15.2c0-5.744-4.656-10.4-10.4-10.4-1.534 0-2.99.332-4.301.928C10.833 6.471 9.296 7.645 8 9.2c-2 2.4-3.2 4.32-3.2 7.6 0 5.744 4.656 10.4 10.4 10.4 3.28 0 6.29-1.71 8.4-4 2.29-2.11 3.6-4.72 3.6-8"/><path fill="#fff" d="M26.2 15.2a9.4 9.4 0 1 1-18.8 0 9.4 9.4 0 1 1 18.8 0"/><path fill="var(--hop-richicon-placeholder-background, #2A2620)" fill-rule="evenodd" d="m22.103 11.123-6.73 8.39a.5.5 0 0 1-.744.04l-3.136-3.133.707-.707 2.742 2.74 6.38-7.956z"/></svg>