<svg xmlns="http://www.w3.org/2000/svg" width="32" height="32" viewBox="0 0 32 32"><path fill="#E5DED6" d="M0 16C0 7.163 7.163 0 16 0s16 7.163 16 16-7.163 16-16 16S0 24.837 0 16"/><path fill="#2A2620" stroke="#2A2620" stroke-linecap="round" stroke-linejoin="round" stroke-width="1.2" d="m23.193 22.759-.034.034C21.13 24.994 18.269 26.6 15.2 26.6c-5.412 0-9.8-4.388-9.8-9.8 0-3.075 1.099-4.861 3.06-7.216 1.243-1.49 2.707-2.605 4.283-3.308h0l.004-.001A9.8 9.8 0 0 1 16.8 5.4c5.412 0 9.8 4.388 9.8 9.8 0 3.094-1.227 5.55-3.407 7.559"/><path fill="#fff" d="M26.2 15.2a9.4 9.4 0 1 1-18.8 0 9.4 9.4 0 1 1 18.8 0"/><path fill="#2A2620" fill-rule="evenodd" d="m22.103 11.123-6.73 8.39a.5.5 0 0 1-.744.04l-3.136-3.133.707-.707 2.742 2.74 6.38-7.956z"/></svg>