<svg xmlns="http://www.w3.org/2000/svg" width="40" height="40" viewBox="0 0 40 40"><path fill="#E5DED6" d="M0 20C0 8.954 8.954 0 20 0s20 8.954 20 20-8.954 20-20 20S0 31.046 0 20"/><path fill="#2A2620" stroke="#2A2620" stroke-linecap="round" stroke-linejoin="round" stroke-width="1.5" d="m28.992 28.449-.043.043c-2.536 2.75-6.112 4.758-9.949 4.758-6.765 0-12.25-5.485-12.25-12.25 0-3.844 1.373-6.077 3.826-9.02 1.553-1.863 3.383-3.257 5.353-4.134h0l.005-.003A12.2 12.2 0 0 1 21 6.75c6.765 0 12.25 5.485 12.25 12.25 0 3.868-1.534 6.937-4.258 9.449"/><path fill="#fff" d="M32.75 19c0 6.49-5.26 11.75-11.75 11.75S9.25 25.49 9.25 19 14.51 7.25 21 7.25 32.75 12.51 32.75 19"/><path fill="#2A2620" fill-rule="evenodd" d="M27.629 13.904 19.216 24.39a.625.625 0 0 1-.93.051l-3.92-3.917.884-.884 3.427 3.424 7.977-9.944z"/></svg>