<svg xmlns="http://www.w3.org/2000/svg" width="24" height="24" viewBox="0 0 24 24"><path fill="#E5DED6" d="M0 12C0 5.373 5.373 0 12 0s12 5.373 12 12-5.373 12-12 12S0 18.627 0 12"/><path fill="#2A2620" d="M17.483 17.483A7.8 7.8 0 1 0 6.517 6.517C5.1 8.1 3.6 10.14 3.6 12.6a7.8 7.8 0 0 0 7.8 7.8c2.46 0 4.2-1.5 6.083-2.917"/><path fill="#2A2620" stroke="#2A2620" stroke-linecap="round" stroke-linejoin="round" stroke-width=".9" d="m17.395 17.07-.026.025c-1.521 1.65-3.666 2.855-5.969 2.855a7.35 7.35 0 0 1-7.35-7.35c0-2.306.824-3.646 2.296-5.412C8.042 5.153 10.29 4.05 12.6 4.05a7.35 7.35 0 0 1 7.35 7.35c0 2.32-.92 4.162-2.555 5.67"/><circle cx="12.6" cy="11.4" r="7.3" fill="#fff" stroke="#2A2620" stroke-linecap="round" stroke-linejoin="round"/><path stroke="#2A2620" stroke-linecap="square" stroke-linejoin="round" d="m16.05 8.4-4.813 6-2.087-2.085"/></svg>