<svg xmlns="http://www.w3.org/2000/svg" width="32" height="32" viewBox="0 0 32 32"><path fill="var(--hop-RichIcon-placeholder-background, #E5DED6)" d="M0 16C0 7.163 7.163 0 16 0s16 7.163 16 16-7.163 16-16 16S0 24.837 0 16"/><path fill="var(--hop-RichIcon-placeholder-shadow, #2A2620)" d="M27.2 15.2c0 3.28-1.31 5.89-3.6 8-2.11 2.29-5.12 4-8.4 4-5.744 0-10.4-4.656-10.4-10.4 0-3.28 1.2-5.2 3.2-7.6 2.36-2.833 5.52-4.4 8.8-4.4 5.744 0 10.4 4.656 10.4 10.4"/><path fill="var(--hop-RichIcon-placeholder-fill, #fff)" d="m16.002 13.694 3.784-1.081-1.081 3.785z"/><path fill="var(--hop-RichIcon-placeholder-fill, #fff)" fill-rule="evenodd" d="M16.3 5.813v2.17h1v-2.17a9.4 9.4 0 0 1 8.9 9.312h-2.183v1h2.138a9.4 9.4 0 0 1-8.855 8.462v-2.17h-1v2.17a9.4 9.4 0 0 1-8.855-8.462h2.138v-1H7.4a9.4 9.4 0 0 1 8.9-9.312m4.942 5.344-6.6 1.886-1.885 6.6 6.6-1.887z"/></svg>