<svg xmlns="http://www.w3.org/2000/svg" width="24" height="24" viewBox="0 0 24 24"><path fill="var(--hop-Richicon-placeholder-shadow, #E5DED6)" d="M0 12C0 5.373 5.373 0 12 0s12 5.373 12 12-5.373 12-12 12S0 18.627 0 12"/><path fill="var(--hop-Richicon-placeholder-background, #2A2620)" d="M17.7 17.4c1.717-1.583 2.7-3.54 2.7-6q0-.102-.003-.203"/><path fill="var(--hop-Richicon-placeholder-background, #2A2620)" fill-rule="evenodd" d="m15.932 8.368-4.95 1.414-1.414 4.95 4.95-1.415zm-2.066 3.59.61-2.134-2.135.61z"/><path fill="var(--hop-Richicon-placeholder-background, #2A2620)" fill-rule="evenodd" d="M20.397 11.197v-.005a7.78 7.78 0 0 0-2.282-5.307 7.78 7.78 0 0 0-6.204-2.254c-.865.077-1.713.3-2.52.658l-.005.002C8.132 4.848 6.976 5.73 6 6.9c-1.5 1.8-2.4 3.24-2.4 5.7a7.8 7.8 0 0 0 7.8 7.8c2.46 0 4.717-1.283 6.3-3m1.698-6.182a7 7 0 0 0-.095-.966l-.005-.034a6.78 6.78 0 0 0-2.464-4.14 6.77 6.77 0 0 0-3.734-1.46v1.369h-1V4.619a6.8 6.8 0 0 0-2.291.578l-.007.003a6.81 6.81 0 0 0-3.9 5.018 7 7 0 0 0-.1 1h1.385v1H5.849a7 7 0 0 0 .197 1 6.81 6.81 0 0 0 5.527 4.905q.26.04.527.059v-1.369h1v1.369a7 7 0 0 0 1-.148 6.81 6.81 0 0 0 5.251-5.816h-1.338v-1z"/><path fill="#fff" d="m13.866 11.959.61-2.135-2.135.61z"/><path fill="#fff" fill-rule="evenodd" d="M19.398 11.218h-1.385v1h1.338a6.8 6.8 0 0 1-6.251 5.964v-1.369h-1v1.369a6.8 6.8 0 0 1-6.251-5.964h1.338v-1H5.802a6.8 6.8 0 0 1 6.298-6.6v1.369h1V4.618a6.8 6.8 0 0 1 6.298 6.6m-4.88 2.1 1.414-4.95-4.95 1.414-1.414 4.95z"/></svg>