<svg xmlns="http://www.w3.org/2000/svg" width="24" height="24" viewBox="0 0 24 24"><path fill="#E5DED6" d="M0 12C0 5.373 5.373 0 12 0s12 5.373 12 12-5.373 12-12 12S0 18.627 0 12"/><path fill="#2A2620" stroke="#2A2620" stroke-linecap="round" stroke-linejoin="round" d="m17.332 17.061.029-.029c1.626-1.498 2.539-3.327 2.539-5.632q0-.096-.002-.191m-2.566 5.852 2.565-5.856v.004m-2.565 5.852C15.817 18.704 13.685 19.9 11.4 19.9a7.3 7.3 0 0 1-7.3-7.3c0-2.29.816-3.618 2.284-5.38.932-1.118 2.03-1.952 3.213-2.475a7.3 7.3 0 0 0-4.295 6.46.5.5 0 0 0 .5.513h.047a.5.5 0 0 0-.497.56 7.3 7.3 0 0 0 6.712 6.403.5.5 0 0 0 .536-.5.5.5 0 0 0 .536.5 7.3 7.3 0 0 0 6.712-6.403.5.5 0 0 0-.497-.56h.047a.5.5 0 0 0 .358-.15m-2.424 5.493 2.424-5.494m.142-.358a.5.5 0 0 1-.142.358m.142-.358-.142.358m-4.8-1.606a.5.5 0 0 0-.618-.618l.866-.247zm-.61 2.135-.233.817-3.817 1.09 1.09-3.817.817-.233a.5.5 0 0 0-.216.834l1.525 1.525a.5.5 0 0 0 .834-.216m-1.905-7.844a.5.5 0 0 0-.354-.134q.256-.018.513-.018a7 7 0 0 1 .536.02.5.5 0 0 0-.536.498.5.5 0 0 0-.16-.366"/><path fill="#fff" d="m13.866 11.959.61-2.135-2.135.61z"/><path fill="#fff" fill-rule="evenodd" d="M19.398 11.218h-1.385v1h1.338a6.8 6.8 0 0 1-6.251 5.964v-1.369h-1v1.369a6.8 6.8 0 0 1-6.251-5.964h1.338v-1H5.802a6.8 6.8 0 0 1 6.298-6.6v1.369h1V4.618a6.8 6.8 0 0 1 6.298 6.6m-4.88 2.1 1.414-4.95-4.95 1.414-1.414 4.95z"/></svg>