<svg xmlns="http://www.w3.org/2000/svg" width="40" height="40" viewBox="0 0 40 40"><path fill="#E5DED6" d="M0 20C0 8.954 8.954 0 20 0s20 8.954 20 20-8.954 20-20 20S0 31.046 0 20"/><path fill="#2A2620" stroke="#2A2620" stroke-linecap="round" stroke-linejoin="round" stroke-width="1.5" d="m28.992 28.449-.043.043c-2.536 2.75-6.112 4.758-9.949 4.758-6.765 0-12.25-5.485-12.25-12.25 0-3.844 1.373-6.077 3.826-9.02C13.403 8.588 17.15 6.75 21 6.75c6.765 0 12.25 5.485 12.25 12.25 0 3.868-1.534 6.937-4.258 9.449"/><path fill="#fff" d="m24.733 15.766-5.418 1.548 3.87 3.87z"/><path fill="#fff" fill-rule="evenodd" d="M20.375 7.266v2.712h1.25V7.266c6.168.324 11.076 5.403 11.125 11.64h-2.728v1.25h2.672c-.56 5.742-5.255 10.273-11.069 10.578v-2.712h-1.25v2.712c-5.814-.305-10.508-4.836-11.069-10.578h2.672v-1.25H9.25c.05-6.237 4.957-11.316 11.125-11.64m6.178 6.68-8.25 2.357-2.357 8.25 8.25-2.357z"/></svg>