<svg xmlns="http://www.w3.org/2000/svg" width="40" height="40" viewBox="0 0 40 40"><path fill="var(--hop-Richicon-placeholder-shadow, #E5DED6)" d="M0 20C0 8.954 8.954 0 20 0s20 8.954 20 20-8.954 20-20 20S0 31.046 0 20"/><path fill="var(--hop-Richicon-placeholder-background, #2A2620)" d="M34 19c0 4.1-1.638 7.362-4.5 10-2.638 2.862-6.4 5-10.5 5-7.18 0-13-5.82-13-13 0-4.1 1.5-6.5 4-9.5C12.951 7.959 16.9 6 21 6c7.18 0 13 5.82 13 13"/><path fill="#fff" d="m24.733 15.766-5.418 1.548 3.87 3.87z"/><path fill="#fff" fill-rule="evenodd" d="M20.375 7.266v2.712h1.25V7.266c6.168.324 11.076 5.403 11.125 11.64h-2.728v1.25h2.672c-.56 5.742-5.255 10.273-11.069 10.578v-2.712h-1.25v2.712c-5.814-.305-10.508-4.836-11.069-10.578h2.672v-1.25H9.25c.05-6.237 4.957-11.316 11.125-11.64m6.178 6.68-8.25 2.357-2.357 8.25 8.25-2.357z"/></svg>