<svg xmlns="http://www.w3.org/2000/svg" width="32" height="32" viewBox="0 0 32 32"><path fill="#E5DED6" d="M0 16C0 7.163 7.163 0 16 0s16 7.163 16 16-7.163 16-16 16S0 24.837 0 16"/><path fill="#2A2620" stroke="#2A2620" stroke-linecap="round" stroke-linejoin="round" stroke-width="1.2" d="m23.193 22.759-.034.034C21.13 24.994 18.269 26.6 15.2 26.6c-5.412 0-9.8-4.388-9.8-9.8 0-3.075 1.099-4.861 3.06-7.216C10.723 6.871 13.72 5.4 16.8 5.4c5.412 0 9.8 4.388 9.8 9.8 0 3.095-1.227 5.55-3.407 7.559"/><path fill="#fff" d="m16.002 13.694 3.784-1.081-1.081 3.785z"/><path fill="#fff" fill-rule="evenodd" d="M16.3 5.813v2.17h1v-2.17a9.4 9.4 0 0 1 8.9 9.312h-2.183v1h2.138a9.4 9.4 0 0 1-8.855 8.462v-2.17h-1v2.17a9.4 9.4 0 0 1-8.855-8.462h2.138v-1H7.4a9.4 9.4 0 0 1 8.9-9.312m4.942 5.344-6.6 1.886-1.885 6.6 6.6-1.887z"/></svg>