<svg xmlns="http://www.w3.org/2000/svg" width="40" height="40" viewBox="0 0 40 40"><path fill="#E5DED6" d="M0 20C0 8.954 8.954 0 20 0s20 8.954 20 20-8.954 20-20 20S0 31.046 0 20"/><path fill="#2A2620" d="M11.414 7.586A2 2 0 0 1 12.828 7H29a2 2 0 0 1 2 2v20.172a2 2 0 0 1-.586 1.414l-1.828 1.828a2 2 0 0 1-1.414.586H11a2 2 0 0 1-2-2V10.828a2 2 0 0 1 .586-1.414z"/><path fill="#fff" d="M11 9a2 2 0 0 1 2-2h16a2 2 0 0 1 2 2v20a2 2 0 0 1-2 2H13a2 2 0 0 1-2-2z"/><path fill="#2A2620" fill-rule="evenodd" d="M29 8.25H13a.75.75 0 0 0-.75.75v4.364h17.5V9a.75.75 0 0 0-.75-.75M12.25 29V14.614h5.333V29.75H13a.75.75 0 0 1-.75-.75m6.583.75H29a.75.75 0 0 0 .75-.75V14.614H18.833zM13 7a2 2 0 0 0-2 2v20a2 2 0 0 0 2 2h16a2 2 0 0 0 2-2V9a2 2 0 0 0-2-2z"/></svg>