<svg xmlns="http://www.w3.org/2000/svg" width="24" height="24" viewBox="0 0 24 24"><path fill="var(--hop-Richicon-placeholder-shadow, #E5DED6)" d="M0 12C0 5.373 5.373 0 12 0s12 5.373 12 12-5.373 12-12 12S0 18.627 0 12"/><path fill="var(--hop-Richicon-placeholder-background, #2A2620)" fill-rule="evenodd" d="M6.849 4.551a1.2 1.2 0 0 1 .848-.351H17.4a1.2 1.2 0 0 1 1.2 1.2v12.103a1.2 1.2 0 0 1-.351.849l-1.098 1.096a1.2 1.2 0 0 1-.848.352H6.6a1.2 1.2 0 0 1-1.2-1.2V6.497a1.2 1.2 0 0 1 .351-.848z"/><path fill="#fff" d="M6.6 5.4a1.2 1.2 0 0 1 1.2-1.2h9.6a1.2 1.2 0 0 1 1.2 1.2v12a1.2 1.2 0 0 1-1.2 1.2H7.8a1.2 1.2 0 0 1-1.2-1.2z"/><path fill="var(--hop-Richicon-placeholder-background, #2A2620)" fill-rule="evenodd" d="M7.8 4.2a1.2 1.2 0 0 0-1.2 1.2v12a1.2 1.2 0 0 0 1.2 1.2h9.6a1.2 1.2 0 0 0 1.2-1.2v-12a1.2 1.2 0 0 0-1.2-1.2zm9.6 1H7.8a.2.2 0 0 0-.2.2v2.95h10V5.4a.2.2 0 0 0-.2-.2M7.6 17.4V9.351h3.064V17.6H7.8a.2.2 0 0 1-.2-.2m4.064.2H17.4a.2.2 0 0 0 .2-.2V9.351h-5.936z"/></svg>