<svg xmlns="http://www.w3.org/2000/svg" width="32" height="32" viewBox="0 0 32 32"><path fill="var(--hop-RichIcon-placeholder-background, #E5DED6)" d="M0 16C0 7.163 7.163 0 16 0s16 7.163 16 16-7.163 16-16 16S0 24.837 0 16"/><path fill="var(--hop-RichIcon-placeholder-shadow, #2A2620)" fill-rule="evenodd" d="M9.131 6.069a1.6 1.6 0 0 1 1.132-.469H23.2a1.6 1.6 0 0 1 1.6 1.6v16.137a1.6 1.6 0 0 1-.469 1.132L22.87 25.93a1.6 1.6 0 0 1-1.132.469H8.8a1.6 1.6 0 0 1-1.6-1.6V8.663a1.6 1.6 0 0 1 .469-1.132z"/><path fill="var(--hop-RichIcon-placeholder-fill, #fff)" d="M8.8 7.2a1.6 1.6 0 0 1 1.6-1.6h12.8a1.6 1.6 0 0 1 1.6 1.6v16a1.6 1.6 0 0 1-1.6 1.6H10.4a1.6 1.6 0 0 1-1.6-1.6z"/><path fill="var(--hop-RichIcon-placeholder-shadow, #2A2620)" fill-rule="evenodd" d="M10.4 5.6a1.6 1.6 0 0 0-1.6 1.6v16a1.6 1.6 0 0 0 1.6 1.6h12.8a1.6 1.6 0 0 0 1.6-1.6v-16a1.6 1.6 0 0 0-1.6-1.6zm12.8 1.25H10.4a.35.35 0 0 0-.35.35v3.878h13.5V7.2a.35.35 0 0 0-.35-.35M10.05 23.2V12.278h3.822l.003 11.272H10.4a.35.35 0 0 1-.35-.35m5.025.35H23.2a.35.35 0 0 0 .35-.35V12.278h-8.478z"/></svg>