<svg xmlns="http://www.w3.org/2000/svg" width="24" height="24" viewBox="0 0 24 24"><path fill="var(--hop-Richicon-placeholder-shadow, #E5DED6)" d="M0 12C0 5.373 5.373 0 12 0s12 5.373 12 12-5.373 12-12 12S0 18.627 0 12"/><path fill="var(--hop-Richicon-placeholder-background, #2A2620)" d="M6.848 4.551a1.2 1.2 0 0 1 .849-.351H17.4a1.2 1.2 0 0 1 1.2 1.2v12.103a1.2 1.2 0 0 1-.352.848l-1.097 1.098a1.2 1.2 0 0 1-.848.351H6.6a1.2 1.2 0 0 1-1.2-1.2V6.497a1.2 1.2 0 0 1 .351-.849z"/><path fill="var(--hop-Richicon-placeholder-fill, #fff)" fill-rule="evenodd" d="M7.8 5.2h9.6c.11 0 .2.09.2.2v12a.2.2 0 0 1-.2.2H7.8a.2.2 0 0 1-.2-.2v-12c0-.11.09-.2.2-.2m8.4 2.5H9v-1h7.2zM9 10.1h7.2v-1H9zm7.2 2.4H9v-1h7.2zM9 14.9h4.2v-1H9z"/></svg>