<svg xmlns="http://www.w3.org/2000/svg" width="32" height="32" viewBox="0 0 32 32"><path fill="var(--hop-RichIcon-placeholder-background, #E5DED6)" d="M0 16C0 7.163 7.163 0 16 0s16 7.163 16 16-7.163 16-16 16S0 24.837 0 16"/><path fill="var(--hop-RichIcon-placeholder-fill, #fff)" d="M24.938 20.754H8.922l-.411-1.78h16.838zm.642-2.781H8.28l-1.505-6.522 3.174 1.435a1.8 1.8 0 0 0 2.03-.382l4.946-5.067 4.87 5.058a1.8 1.8 0 0 0 2.028.396l3.265-1.454z"/><path fill="var(--hop-RichIcon-placeholder-shadow, #2A2620)" fill-rule="evenodd" d="m17.502 6.595 4.989 5.182 4.66-1.607a.8.8 0 0 1 1.04.936l-2.312 10.02-.019.068a.8.8 0 0 1-.313.422l-1.65 1.65a.8.8 0 0 1-.65.334H6.911a.8.8 0 0 1-.78-.62l-2.31-10.014a.8.8 0 0 1 .352-.857l1.652-1.585a.8.8 0 0 1 .602-.222.8.8 0 0 1 .39.071l3.469 1.569a.8.8 0 0 0 .182-.124l5.79-5.22a.8.8 0 0 1 .35-.183.8.8 0 0 1 .893.18m-8.58 14.16h16.016l.411-1.782H8.511zm-.642-2.782-1.505-6.522 3.174 1.435a1.8 1.8 0 0 0 2.03-.382l4.946-5.067 4.87 5.058a1.8 1.8 0 0 0 2.028.396l3.265-1.454-1.508 6.536z"/><path fill="var(--hop-RichIcon-placeholder-shadow, #2A2620)" d="m14.615 13.416 2.263-2.262 2.262 2.262-2.262 2.263z"/></svg>