<svg xmlns="http://www.w3.org/2000/svg" width="40" height="40" viewBox="0 0 40 40"><path fill="var(--hop-Richicon-placeholder-shadow, #E5DED6)" d="M0 20C0 8.954 8.954 0 20 0s20 8.954 20 20-8.954 20-20 20S0 31.046 0 20"/><path fill="var(--hop-Richicon-placeholder-fill, #fff)" d="M31.173 25.943h-20.02l-.514-2.226h21.048zm.802-3.476H10.35l-1.88-8.154 3.967 1.795a2.25 2.25 0 0 0 2.538-.479l6.182-6.333 6.087 6.323a2.25 2.25 0 0 0 2.536.495l4.082-1.818z"/><path fill="var(--hop-Richicon-placeholder-background, #2A2620)" fill-rule="evenodd" d="m21.878 8.243 6.236 6.479 5.825-2.01a1 1 0 0 1 1.3 1.17l-2.89 12.526-.023.085a1 1 0 0 1-.392.527l-2.064 2.063a1 1 0 0 1-.812.417H8.64a1 1 0 0 1-.975-.775L4.777 16.207a.995.995 0 0 1 .44-1.07l2.065-1.982a1 1 0 0 1 .753-.277 1 1 0 0 1 .489.088l4.335 1.961a1 1 0 0 0 .227-.154l7.239-6.525a1 1 0 0 1 .436-.23 1 1 0 0 1 1.117.225m-10.726 17.7h20.02l.514-2.226H10.64zm-.802-3.476-1.88-8.154 3.967 1.795a2.25 2.25 0 0 0 2.538-.478l6.182-6.334 6.087 6.323a2.25 2.25 0 0 0 2.536.495l4.082-1.818-1.886 8.17z"/><path fill="var(--hop-Richicon-placeholder-background, #2A2620)" d="m18.27 16.771 2.828-2.828 2.828 2.828-2.828 2.828z"/></svg>