<svg xmlns="http://www.w3.org/2000/svg" width="24" height="24" viewBox="0 0 24 24"><path fill="var(--hop-Richicon-placeholder-shadow, #E5DED6)" d="M0 12C0 5.373 5.373 0 12 0s12 5.373 12 12-5.373 12-12 12S0 18.627 0 12"/><path fill="var(--hop-Richicon-placeholder-background, #2A2620)" d="M4.821 7.727a.6.6 0 0 1 .293.053l2.601 1.176a.6.6 0 0 0 .137-.092l4.343-3.915a.6.6 0 0 1 .261-.138.6.6 0 0 1 .67.135l3.742 3.887 3.496-1.205a.6.6 0 0 1 .78.702l-1.734 7.515a.62.62 0 0 1-.25.367l-1.238 1.238a.6.6 0 0 1-.487.25H5.184a.6.6 0 0 1-.585-.465l-1.733-7.51a.6.6 0 0 1 .264-.643l1.24-1.19a.6.6 0 0 1 .451-.165"/><path fill="var(--hop-Richicon-placeholder-fill, #fff)" d="m19.96 9.01-1.455 6.306H6.89L5.438 9.024l1.92.869a1.6 1.6 0 0 0 1.805-.34l3.53-3.616 3.472 3.608a1.6 1.6 0 0 0 1.804.352z"/><path fill="var(--hop-Richicon-placeholder-background, #2A2620)" fill-rule="evenodd" d="M6.158 13.355h13.311v1H6.158z"/><path fill="var(--hop-Richicon-placeholder-background, #2A2620)" d="m10.96 10.062 1.698-1.697 1.697 1.697-1.697 1.697z"/></svg>