<svg xmlns="http://www.w3.org/2000/svg" width="24" height="24" viewBox="0 0 24 24"><path fill="var(--hop-RichIcon-placeholder-background, #E5DED6)" d="M0 12C0 5.373 5.373 0 12 0s12 5.373 12 12-5.373 12-12 12S0 18.627 0 12"/><path fill="var(--hop-RichIcon-placeholder-shadow, #2A2620)" fill-rule="evenodd" d="M8.574 8.965a.975.975 0 0 1 1.056-.886l6.874.601c.537.047.933.52.886 1.056l-.836 9.564a.975.975 0 0 1-1.056.886l-6.874-.601a.975.975 0 0 1-.887-1.056z"/><path fill="var(--hop-RichIcon-placeholder-shadow, #2A2620)" d="M6 5.8a1 1 0 0 1 1-1h6.1a1 1 0 0 1 1 1v8.5a1 1 0 0 1-1 1H7a1 1 0 0 1-1-1z"/><path fill="var(--hop-RichIcon-placeholder-shadow, #2A2620)" d="M10.148 7.798a.6.6 0 0 1 .65-.546l6.874.602a.6.6 0 0 1 .545.65l-.837 9.563a.6.6 0 0 1-.65.546l-6.874-.602a.6.6 0 0 1-.545-.65z"/><path fill="var(--hop-RichIcon-placeholder-fill, #fff)" d="M10.113 8.196a1 1 0 0 1 1.083-.909l6.077.532a1 1 0 0 1 .909 1.083l-.767 8.767a1 1 0 0 1-1.083.909l-6.077-.532a1 1 0 0 1-.91-1.083z"/><path fill="var(--hop-RichIcon-placeholder-shadow, #2A2620)" fill-rule="evenodd" d="M9.615 8.153a1.5 1.5 0 0 1 1.625-1.364l6.077.532a1.5 1.5 0 0 1 1.363 1.625l-.767 8.766a1.5 1.5 0 0 1-1.625 1.364l-6.077-.532a1.5 1.5 0 0 1-1.363-1.625zm1.538-.368a.5.5 0 0 0-.542.455l-.767 8.766a.5.5 0 0 0 .455.542l6.076.532a.5.5 0 0 0 .542-.455l.767-8.766a.5.5 0 0 0-.455-.542z"/><path fill="var(--hop-RichIcon-placeholder-shadow, #2A2620)" fill-rule="evenodd" d="M11.793 13.271a.5.5 0 0 1 .679.197 1.75 1.75 0 0 0 2.773.39.5.5 0 0 1 .708.705 2.75 2.75 0 0 1-4.357-.613.5.5 0 0 1 .197-.679"/><path fill="var(--hop-RichIcon-placeholder-shadow, #2A2620)" d="M12.598 12.174a.6.6 0 1 0 .104-1.195.6.6 0 0 0-.104 1.195m2.7.3a.6.6 0 1 0 .104-1.195.6.6 0 0 0-.104 1.195m2.169 6.178-1.213 1.268v-1.218z"/></svg>