<svg xmlns="http://www.w3.org/2000/svg" width="40" height="40" viewBox="0 0 40 40"><path fill="var(--hop-RichIcon-placeholder-background, #E5DED6)" d="M0 20C0 8.954 8.954 0 20 0s20 8.954 20 20-8.954 20-20 20S0 31.046 0 20"/><path fill="var(--hop-RichIcon-placeholder-shadow, #2A2620)" fill-rule="evenodd" d="M14.29 14.942a1.625 1.625 0 0 1 1.76-1.478l11.457 1.003a1.625 1.625 0 0 1 1.477 1.76l-1.394 15.94a1.625 1.625 0 0 1-1.76 1.477L14.372 32.64a1.625 1.625 0 0 1-1.477-1.76z"/><path fill="var(--hop-RichIcon-placeholder-shadow, #2A2620)" d="M10 9a1 1 0 0 1 1-1h11.5a1 1 0 0 1 1 1v15.5a1 1 0 0 1-1 1H11a1 1 0 0 1-1-1z"/><path fill="var(--hop-RichIcon-placeholder-shadow, #2A2620)" d="M16.913 12.996a1 1 0 0 1 1.083-.909l11.456 1.002a1 1 0 0 1 .91 1.084l-1.395 15.939a1 1 0 0 1-1.083.909l-11.457-1.002a1 1 0 0 1-.909-1.084z"/><path fill="var(--hop-RichIcon-placeholder-fill, #fff)" d="M16.913 12.996a1 1 0 0 1 1.083-.909l11.456 1.002a1 1 0 0 1 .91 1.084l-1.395 15.939a1 1 0 0 1-1.083.909l-11.457-1.002a1 1 0 0 1-.909-1.084z"/><path fill="var(--hop-RichIcon-placeholder-shadow, #2A2620)" fill-rule="evenodd" d="M16.29 12.942a1.625 1.625 0 0 1 1.76-1.478l11.457 1.003a1.625 1.625 0 0 1 1.477 1.76l-1.394 15.94a1.625 1.625 0 0 1-1.76 1.477L16.372 30.64a1.625 1.625 0 0 1-1.477-1.76zm1.652-.232a.375.375 0 0 0-.407.34l-1.394 15.94a.375.375 0 0 0 .34.406l11.457 1.002a.375.375 0 0 0 .406-.34l1.395-15.94a.375.375 0 0 0-.341-.406z"/><path fill="var(--hop-RichIcon-placeholder-shadow, #2A2620)" fill-rule="evenodd" d="M19.755 22.301a.625.625 0 0 1 .85.246 3.125 3.125 0 0 0 4.95.695.625.625 0 0 1 .886.882c-2.057 2.068-5.523 1.58-6.931-.974a.625.625 0 0 1 .245-.849"/><path fill="var(--hop-RichIcon-placeholder-shadow, #2A2620)" d="M20.996 20.29a1 1 0 1 0 .175-1.992 1 1 0 0 0-.175 1.993m4.5.499a1 1 0 1 0 .175-1.992 1 1 0 0 0-.175 1.993M29.11 31.18l-2.02 2.02v-2.03z"/></svg>