<svg xmlns="http://www.w3.org/2000/svg" width="32" height="32" viewBox="0 0 32 32"><path fill="var(--hop-RichIcon-placeholder-background, #E5DED6)" d="M0 16C0 7.163 7.163 0 16 0s16 7.163 16 16-7.163 16-16 16S0 24.837 0 16"/><path fill="var(--hop-RichIcon-placeholder-shadow, #2A2620)" fill-rule="evenodd" d="M11.432 11.953a1.3 1.3 0 0 1 1.409-1.181l9.165.801a1.3 1.3 0 0 1 1.181 1.409l-1.115 12.751a1.3 1.3 0 0 1-1.409 1.182l-9.165-.802a1.3 1.3 0 0 1-1.181-1.408z"/><path fill="var(--hop-RichIcon-placeholder-shadow, #2A2620)" d="M8 7.4a1 1 0 0 1 1-1h8.8a1 1 0 0 1 1 1v12a1 1 0 0 1-1 1H9a1 1 0 0 1-1-1z"/><path fill="var(--hop-RichIcon-placeholder-shadow, #2A2620)" d="M13.53 10.397a.8.8 0 0 1 .867-.727l9.165.802a.8.8 0 0 1 .727.866L23.174 24.09a.8.8 0 0 1-.867.727l-9.165-.802a.8.8 0 0 1-.727-.867z"/><path fill="var(--hop-RichIcon-placeholder-fill, #fff)" d="M13.513 10.596a1 1 0 0 1 1.083-.909l8.767.767a1 1 0 0 1 .909 1.083L23.19 23.89a1 1 0 0 1-1.083.91l-8.767-.768a1 1 0 0 1-.909-1.083z"/><path fill="var(--hop-RichIcon-placeholder-shadow, #2A2620)" fill-rule="evenodd" d="M13.015 10.553a1.5 1.5 0 0 1 1.625-1.364l8.766.767a1.5 1.5 0 0 1 1.364 1.625l-1.08 12.353a1.5 1.5 0 0 1-1.626 1.363l-8.766-.767a1.5 1.5 0 0 1-1.364-1.625zm1.538-.368a.5.5 0 0 0-.542.455l-1.08 12.353a.5.5 0 0 0 .454.541l8.766.767a.5.5 0 0 0 .542-.454l1.08-12.353a.5.5 0 0 0-.454-.542z"/><path fill="var(--hop-RichIcon-placeholder-shadow, #2A2620)" fill-rule="evenodd" d="M15.804 17.84a.5.5 0 0 1 .68.197 2.5 2.5 0 0 0 3.96.557.5.5 0 0 1 .71.705 3.5 3.5 0 0 1-5.546-.779.5.5 0 0 1 .196-.68"/><path fill="var(--hop-RichIcon-placeholder-shadow, #2A2620)" d="M16.797 16.233a.8.8 0 1 0 .14-1.594.8.8 0 0 0-.14 1.594m3.6.4a.8.8 0 1 0 .14-1.594.8.8 0 0 0-.14 1.594m2.897 8.191-1.622 1.736v-1.624z"/></svg>