<svg xmlns="http://www.w3.org/2000/svg" width="117" height="32" fill="none"><g clip-path="url(#a)"><path fill="currentColor" d="M45.264 23V8.455h3.075v6.001h6.243V8.455h3.069V23h-3.069v-6.009H48.34V23h-3.076Zm19.794.213c-3.31 0-5.37-2.266-5.37-5.625 0-3.38 2.06-5.64 5.37-5.64s5.37 2.26 5.37 5.64c0 3.36-2.06 5.625-5.37 5.625Zm.014-2.344c1.499 0 2.28-1.399 2.28-3.302 0-1.904-.781-3.31-2.28-3.31-1.527 0-2.308 1.406-2.308 3.31 0 1.903.781 3.302 2.308 3.302Zm7.323 6.222v-15h2.983v1.832h.135c.405-.887 1.278-1.974 3.103-1.974 2.394 0 4.418 1.86 4.418 5.61 0 3.651-1.939 5.619-4.425 5.619-1.761 0-2.677-1.016-3.096-1.925h-.093v5.838h-3.025Zm2.962-9.546c0 1.946.838 3.225 2.294 3.225 1.484 0 2.294-1.321 2.294-3.224 0-1.89-.796-3.19-2.294-3.19-1.47 0-2.294 1.243-2.294 3.19Zm9.694 9.546v-15h2.983v1.832h.135c.405-.887 1.278-1.974 3.104-1.974 2.393 0 4.417 1.86 4.417 5.61 0 3.651-1.939 5.619-4.424 5.619-1.762 0-2.678-1.016-3.097-1.925h-.092v5.838H85.05Zm2.962-9.546c0 1.946.838 3.225 2.294 3.225 1.484 0 2.294-1.321 2.294-3.224 0-1.89-.796-3.19-2.294-3.19-1.47 0-2.294 1.243-2.294 3.19Zm14.666 5.668c-3.36 0-5.412-2.159-5.412-5.618 0-3.366 2.081-5.646 5.291-5.646 2.884 0 5.128 1.832 5.128 5.54v.83h-7.429v.008c0 1.626.959 2.627 2.472 2.627 1.008 0 1.789-.433 2.095-1.264l2.798.185c-.426 2.024-2.244 3.338-4.943 3.338Zm-2.422-6.768h4.581c-.007-1.3-.916-2.238-2.23-2.238-1.342 0-2.287.995-2.351 2.238ZM109.661 23V12.09h2.933v1.904h.113c.398-1.35 1.4-2.06 2.621-2.06.306 0 .682.043.952.107v2.685c-.284-.093-.86-.164-1.279-.164-1.335 0-2.315.924-2.315 2.266V23h-3.025Z"/><path fill="#F0E9E1" d="M25.146 0H6.854A6.854 6.854 0 0 0 0 6.854v18.292A6.854 6.854 0 0 0 6.854 32h18.292A6.854 6.854 0 0 0 32 25.146V6.854A6.854 6.854 0 0 0 25.146 0Z"/><path fill="#2545FF" d="M23.438 8.083h-.23l-2.34 7.124-2.177-6.914a.3.3 0 0 0-.287-.21h-3.798a.355.355 0 0 0-.338.252l-2.466 8.332-2.348-8.584H4.916l4.378 15.563a.35.35 0 0 0 .336.254h4.02a.3.3 0 0 0 .285-.212l2.737-9.258 1.987 6.184a.355.355 0 0 0 .34.248H22.5a.414.414 0 0 0 .393-.282L27.09 8.083h-3.653Z"/><path fill="url(#b)" d="M16.672 14.43 14.83 8.697a.127.127 0 0 0-.243.002l-1.68 5.675c1.186.244 2.35.585 3.48 1.02l.285-.964Z"/><path fill="url(#c)" d="m19.181 20.387.996-3.058a21.92 21.92 0 0 0-2.678-1.405l1.435 4.463a.13.13 0 0 0 .247 0Z"/><path fill="url(#d)" d="M9.811 23.306a.123.123 0 0 0 .044-.063l1.947-6.576-.672-2.443a22.106 22.106 0 0 0-4.094-.17l2.584 9.187a.123.123 0 0 0 .191.065Z"/></g><defs><radialGradient id="b" cx="0" cy="0" r="1" gradientTransform="translate(14.595 8.72) scale(7.0845)" gradientUnits="userSpaceOnUse"><stop offset=".1" stop-color="#F0E9E1"/><stop offset=".4" stop-color="#A2AAED"/><stop offset=".76" stop-color="#4862FA"/><stop offset=".92" stop-color="#2545FF"/></radialGradient><radialGradient id="c" cx="0" cy="0" r="1" gradientTransform="matrix(4.45058 0 0 4.45057 17.625 19.703)" gradientUnits="userSpaceOnUse"><stop offset=".05" stop-color="#F0E9E1"/><stop offset=".25" stop-color="#B4B9EA"/><stop offset=".53" stop-color="#687BF5"/><stop offset=".72" stop-color="#3754FC"/><stop offset=".82" stop-color="#2545FF"/></radialGradient><radialGradient id="d" cx="0" cy="0" r="1" gradientTransform="matrix(-1.34433 -10.19455 10.74518 -1.41694 9.951 23.201)" gradientUnits="userSpaceOnUse"><stop offset=".1" stop-color="#F0E9E1"/><stop offset=".19" stop-color="#E7E2E2"/><stop offset=".33" stop-color="#CFCEE6"/><stop offset=".51" stop-color="#A7AEEC"/><stop offset=".72" stop-color="#7081F4"/><stop offset=".95" stop-color="#2A49FE"/><stop offset=".97" stop-color="#2545FF"/></radialGradient><clipPath id="a"><path fill="#fff" d="M0 0h117v32H0z"/></clipPath></defs></svg>
