<svg xmlns="http://www.w3.org/2000/svg" width="117" height="32" fill="none"><path fill="#000" d="M45.264 23.005V8.46h3.075v6.001h6.243V8.46h3.069v14.545h-3.069v-6.009H48.34v6.009h-3.076Zm19.794.213c-3.31 0-5.37-2.266-5.37-5.625 0-3.38 2.06-5.64 5.37-5.64s5.37 2.26 5.37 5.64c0 3.36-2.06 5.625-5.37 5.625Zm.014-2.344c1.499 0 2.28-1.399 2.28-3.302 0-1.904-.781-3.31-2.28-3.31-1.527 0-2.308 1.406-2.308 3.31 0 1.903.781 3.302 2.308 3.302Zm7.323 6.222v-15h2.983v1.832h.135c.405-.887 1.278-1.974 3.103-1.974 2.394 0 4.418 1.86 4.418 5.61 0 3.651-1.939 5.619-4.425 5.619-1.761 0-2.677-1.016-3.096-1.925h-.093v5.838h-3.025Zm2.962-9.546c0 1.946.838 3.225 2.294 3.225 1.484 0 2.294-1.321 2.294-3.224 0-1.89-.796-3.19-2.294-3.19-1.47 0-2.294 1.242-2.294 3.189Zm9.694 9.546v-15h2.983v1.832h.135c.405-.887 1.278-1.974 3.104-1.974 2.393 0 4.417 1.86 4.417 5.61 0 3.651-1.939 5.619-4.424 5.619-1.762 0-2.678-1.016-3.097-1.925h-.092v5.838h-3.026Zm2.962-9.546c0 1.946.838 3.225 2.294 3.225 1.484 0 2.294-1.321 2.294-3.224 0-1.89-.796-3.19-2.294-3.19-1.47 0-2.294 1.242-2.294 3.189Zm14.666 5.668c-3.36 0-5.412-2.159-5.412-5.618 0-3.366 2.081-5.646 5.291-5.646 2.884 0 5.128 1.832 5.128 5.54v.83h-7.429v.008c0 1.626.959 2.627 2.472 2.627 1.008 0 1.789-.433 2.095-1.264l2.798.185c-.426 2.024-2.244 3.338-4.943 3.338Zm-2.422-6.768h4.581c-.007-1.3-.916-2.238-2.23-2.238-1.342 0-2.287.995-2.351 2.238Zm9.404 6.555v-10.91h2.933v1.904h.113c.398-1.35 1.4-2.06 2.621-2.06.306 0 .682.043.952.107v2.685c-.284-.093-.86-.164-1.279-.164-1.335 0-2.315.924-2.315 2.266v6.172h-3.025Z"/><g clip-path="url(#a)"><path fill="#F0E9E1" d="M25.17 0H6.83A6.83 6.83 0 0 0 0 6.83v18.34A6.83 6.83 0 0 0 6.83 32h18.34A6.83 6.83 0 0 0 32 25.17V6.83A6.83 6.83 0 0 0 25.17 0Z"/><path fill="#2545FF" d="M25.98 14.68c-.235-.305-.293-.872-.141-1.227.842-1.967.39-6.54-3.921-6.54-3.277 0-4.242 1.795-5.918 1.865-1.673-.07-2.569-1.866-5.918-1.866-4.311 0-4.763 4.574-3.921 6.54.152.356.094.923-.142 1.228-1.74 2.264-4.156 10.33 9.882 10.405h.192c14.039-.077 11.622-8.144 9.882-10.408l.006.003Zm-3.474-5.998c1.034 0 1.87 1.197 1.87 2.672 0 1.476-.836 2.673-1.87 2.673-1.035 0-1.871-1.197-1.871-2.672 0-1.476.836-2.673 1.87-2.673Zm-3.454 5.634c.16-.16.45-.126.65.072.198.198.232.49.072.65-.16.16-.449.125-.65-.072-.197-.198-.232-.49-.072-.65Zm-6.374.072c.197-.198.489-.232.65-.072.16.16.125.45-.073.65-.198.197-.49.232-.65.072-.16-.16-.125-.45.073-.65ZM9.87 8.682c1.034 0 1.871 1.197 1.871 2.672 0 1.476-.837 2.673-1.871 2.673S8 12.83 8 11.355c0-1.476.837-2.673 1.871-2.673Zm15.6 9.742c-2.171 2.326-4.903 3.323-9.182 3.352-.032.003-.065 0-.097 0h-.096c-4.28-.032-7.01-1.026-9.181-3.354-.195-.209.045-.51.307-.393 2.761 1.243 4.662 1.253 8.973 1.253 4.309 0 6.212-.01 8.973-1.253.262-.118.503.184.307.393l-.005.002Z"/></g><defs><clipPath id="a"><path fill="#fff" d="M0 0h32v32H0z"/></clipPath></defs></svg>
