<svg width="24" height="24" viewBox="0 0 24 24" fill="none" xmlns="http://www.w3.org/2000/svg">
<path fill-rule="evenodd" clip-rule="evenodd" d="M10.5329 5.21686C10.24 4.92397 9.76513 4.92397 9.47224 5.21686L3.21966 11.4695C3.1813 11.5079 3.14797 11.5493 3.11966 11.5931C2.93166 11.8837 2.96496 12.2758 3.21955 12.5303L9.47219 18.7829C9.76509 19.0758 10.24 19.0758 10.5329 18.7829C10.8257 18.49 10.8257 18.0152 10.5328 17.7223L5.56055 12.75L20.2479 12.75C20.6621 12.75 20.9979 12.4142 20.9979 12C20.9979 11.5858 20.6621 11.25 20.2479 11.25L5.56046 11.25L10.5329 6.27752C10.8258 5.98463 10.8258 5.50975 10.5329 5.21686Z" fill="#3C3C3C"/>
</svg>
