<svg width="24" height="24" viewBox="0 0 24 24" fill="none" xmlns="http://www.w3.org/2000/svg">
<path fill-rule="evenodd" clip-rule="evenodd" d="M5 3.00061C4.58579 3.00061 4.25 3.3364 4.25 3.75061C4.25 4.16482 4.58579 4.50061 5 4.50061H6.60698V10.8215V10.8215V19.4994H5C4.58579 19.4994 4.25 19.8352 4.25 20.2494C4.25 20.6637 4.58579 20.9994 5 20.9994H14.4279C17.4456 20.9994 19.8919 18.5531 19.8919 15.5355C19.8919 13.1463 18.3584 11.1153 16.2221 10.3729C17.0314 9.59336 17.5349 8.49852 17.5349 7.28607C17.5349 4.91928 15.6162 3.00061 13.2494 3.00061H5ZM8.10698 11.5715L13.2494 11.5715C13.2513 11.5715 13.2533 11.5715 13.2552 11.5715H14.4279C16.6171 11.5715 18.3919 13.3463 18.3919 15.5355C18.3919 17.7247 16.6171 19.4994 14.4279 19.4994H8.10698V11.5715ZM13.2541 10.0715C14.7903 10.069 16.0349 8.82289 16.0349 7.28607C16.0349 5.7477 14.7878 4.50061 13.2494 4.50061H8.10698V10.0715H13.2541Z" fill="#3C3C3C"/>
</svg>
