<svg width="24" height="24" viewBox="0 0 24 24" fill="none" xmlns="http://www.w3.org/2000/svg">
<path fill-rule="evenodd" clip-rule="evenodd" d="M8.50293 3.75C8.50293 3.33579 8.16714 3 7.75293 3C7.33872 3 7.00293 3.33579 7.00293 3.75V4H5.5C4.67157 4 4 4.67157 4 5.5V18.5C4 19.3284 4.67157 20 5.5 20H18.5C19.3284 20 20 19.3284 20 18.5V5.5C20 4.67157 19.3284 4 18.5 4H17V3.75C17 3.33579 16.6642 3 16.25 3C15.8358 3 15.5 3.33579 15.5 3.75V4H8.50293V3.75ZM15.5 6.25V5.5H8.50293V6.25C8.50293 6.66421 8.16714 7 7.75293 7C7.33872 7 7.00293 6.66421 7.00293 6.25V5.5H5.5V8L18.5 8V5.5H17V6.25C17 6.66421 16.6642 7 16.25 7C15.8358 7 15.5 6.66421 15.5 6.25ZM18.5 9.5L5.5 9.5V18.5H18.5V9.5Z" fill="#3C3C3C"/>
</svg>
