<svg width="24" height="24" viewBox="0 0 24 24" fill="none" xmlns="http://www.w3.org/2000/svg">
<path d="M13.65 16.75H10.525M17.775 16.75H19.5C19.9142 16.75 20.25 16.4142 20.25 16V14.3124C20.25 13.076 19.4915 11.9663 18.3395 11.5173C17.8979 11.3451 17.4448 11.1685 17.0587 11.018M17.0587 11.018L14.8312 6.15C14.7544 6.0258 14.6547 5.925 14.5402 5.85557C14.4256 5.78615 14.2993 5.75 14.1712 5.75H10.5M17.0587 11.018H13.7404C13.1397 11.018 12.5969 10.6596 12.361 10.1072L10.5 5.75M6.4 16.75H4.5C4.08579 16.75 3.75 16.4142 3.75 16V12.67L3.76754 8.39459C3.77354 6.93227 4.96067 5.75 6.423 5.75V5.75H10.5" stroke="#3C3C3C" stroke-width="1.5" stroke-linecap="round" stroke-linejoin="round"/>
<rect x="6.75" y="14.75" width="3.5" height="3.5" rx="1.75" stroke="#3C3C3C" stroke-width="1.5"/>
<rect x="13.75" y="14.75" width="3.5" height="3.5" rx="1.75" stroke="#3C3C3C" stroke-width="1.5"/>
</svg>
