<svg width="24" height="24" viewBox="0 0 24 24" fill="none" xmlns="http://www.w3.org/2000/svg">
<path fill-rule="evenodd" clip-rule="evenodd" d="M17.1037 4.89197C16.103 5.29849 15.1933 5.91835 14.746 6.31268C14.56 6.47668 14.3049 6.53812 14.0646 6.47681C13.5614 6.34842 12.6766 6.30711 12.0502 6.30501C11.4388 6.306 10.437 6.36312 9.91601 6.48137C9.68105 6.5347 9.43476 6.4719 9.25403 6.31257C8.81464 5.9252 7.88645 5.31457 6.86897 4.91042C5.83176 4.49844 4.93788 4.39436 4.37397 4.65232C4.37012 4.65852 4.3654 4.66666 4.35992 4.6771C4.32492 4.7439 4.28259 4.86177 4.24877 5.04328C4.1812 5.40593 4.16821 5.90787 4.2199 6.48105C4.32474 7.64365 4.67431 8.88711 5.13012 9.59323C5.27283 9.81432 5.28923 10.094 5.17334 10.3303C4.75667 11.1797 4.50001 12.2183 4.50001 13.25C4.50001 16.8859 7.72279 19.5 12.0509 19.5C16.3583 19.5 19.5 16.802 19.5 13.25C19.5 12.235 19.2955 11.2013 18.8398 10.3558C18.7101 10.1152 18.7216 9.82294 18.8699 9.59323C19.3257 8.8871 19.6753 7.64367 19.7801 6.4811C19.8318 5.90794 19.8188 5.40601 19.7512 5.04338C19.7174 4.86187 19.6751 4.74401 19.6401 4.67722C19.6346 4.6667 19.6298 4.65851 19.6259 4.6523C19.0178 4.37078 18.1194 4.47931 17.1037 4.89197ZM19.6145 4.63593C19.6145 4.63591 19.6148 4.6363 19.6155 4.63717L19.6145 4.63593ZM4.38554 4.6358C4.38555 4.63582 4.3852 4.63625 4.38446 4.63704L4.38554 4.6358ZM16.5391 3.50227C17.6668 3.0441 19.1194 2.72072 20.3356 3.32939C20.6441 3.48377 20.8424 3.74009 20.9686 3.98086C21.0956 4.22314 21.1752 4.497 21.2258 4.7686C21.3271 5.31217 21.333 5.96198 21.274 6.61582C21.1716 7.75152 20.8578 9.05751 20.35 10.0278C20.8125 11.0506 21 12.1882 21 13.25C21 17.8647 16.9312 21 12.0509 21C7.19122 21 3.00001 17.9829 3.00001 13.25C3.00001 12.1296 3.24393 11.011 3.65687 10.0408C3.14497 9.06918 2.82883 7.75657 2.72596 6.61577C2.667 5.96192 2.67287 5.3121 2.77415 4.76852C2.82476 4.49691 2.90436 4.22305 3.03135 3.98077C3.15754 3.74 3.35586 3.48367 3.66431 3.32928C4.8402 2.74075 6.29671 3.06912 7.42269 3.51637C8.41797 3.91169 9.34715 4.4769 9.95665 4.94927C10.6365 4.84482 11.5207 4.80577 12.0498 4.805L12.0533 4.805V4.80501C12.5683 4.80668 13.3836 4.83217 14.0487 4.94346C14.6479 4.47396 15.5536 3.90265 16.5391 3.50227Z" fill="#3C3C3C"/>
<path fill-rule="evenodd" clip-rule="evenodd" d="M10.5322 16.5327C10.628 16.2163 10.9195 16 11.25 16H12.75C13.0805 16 13.372 16.2163 13.4678 16.5327C13.5636 16.849 13.441 17.1907 13.166 17.374L12.416 17.874C12.1641 18.042 11.8359 18.042 11.584 17.874L10.834 17.374C10.559 17.1907 10.4364 16.849 10.5322 16.5327Z" fill="#3C3C3C"/>
<path d="M9 14C9 14.5523 8.55228 15 8 15C7.44772 15 7 14.5523 7 14C7 13.4477 7.44772 13 8 13C8.55228 13 9 13.4477 9 14Z" fill="#3C3C3C"/>
<path d="M17 14C17 14.5523 16.5523 15 16 15C15.4477 15 15 14.5523 15 14C15 13.4477 15.4477 13 16 13C16.5523 13 17 13.4477 17 14Z" fill="#3C3C3C"/>
<path fill-rule="evenodd" clip-rule="evenodd" d="M5.75 14.75C5.75 15.1642 5.41421 15.5 5 15.5H4C3.58579 15.5 3.25 15.1642 3.25 14.75C3.25 14.3358 3.58579 14 4 14H5C5.41421 14 5.75 14.3358 5.75 14.75Z" fill="#3C3C3C"/>
<path fill-rule="evenodd" clip-rule="evenodd" d="M12 12C11.5858 12 11.25 11.6642 11.25 11.25L11.25 6C11.25 5.58579 11.5858 5.25 12 5.25C12.4142 5.25 12.75 5.58579 12.75 6L12.75 11.25C12.75 11.6642 12.4142 12 12 12Z" fill="#3C3C3C"/>
<path fill-rule="evenodd" clip-rule="evenodd" d="M14.75 11C14.3358 11 14 10.6642 14 10.25L14 5.5C14 5.08579 14.3358 4.75 14.75 4.75C15.1642 4.75 15.5 5.08579 15.5 5.5L15.5 10.25C15.5 10.6642 15.1642 11 14.75 11Z" fill="#3C3C3C"/>
<path fill-rule="evenodd" clip-rule="evenodd" d="M9.25 11C8.83579 11 8.5 10.6642 8.5 10.25L8.5 5.5C8.5 5.08579 8.83579 4.75 9.25 4.75C9.66421 4.75 10 5.08579 10 5.5L10 10.25C10 10.6642 9.66421 11 9.25 11Z" fill="#3C3C3C"/>
<path fill-rule="evenodd" clip-rule="evenodd" d="M20.75 14.75C20.75 15.1642 20.4142 15.5 20 15.5H19C18.5858 15.5 18.25 15.1642 18.25 14.75C18.25 14.3358 18.5858 14 19 14H20C20.4142 14 20.75 14.3358 20.75 14.75Z" fill="#3C3C3C"/>
</svg>
