<svg width="24" height="24" viewBox="0 0 24 24" fill="none" xmlns="http://www.w3.org/2000/svg">
<path fill-rule="evenodd" clip-rule="evenodd" d="M13.5383 4.07314C13.5046 4.0136 13.4711 3.95481 13.4378 3.89679C14.9102 4.19819 16.2108 4.93323 17.2191 5.81551C17.8803 6.39403 18.3997 7.02242 18.749 7.60543C18.8744 7.81472 18.9734 8.01049 19.0491 8.18979C17.9167 8.04078 16.9388 7.61493 16.0315 6.9091C15.1691 6.23823 14.3551 5.30221 13.5383 4.07314ZM15.67 8.49372C16.9451 9.3303 18.3625 9.75 20 9.75C20.4142 9.75 20.75 9.41421 20.75 9C20.75 8.30986 20.4635 7.54842 20.0357 6.83448C19.5988 6.10526 18.9747 5.35847 18.2069 4.68664C16.6746 3.34595 14.5057 2.25 12 2.25C11.8945 2.25 11.7922 2.27216 11.6987 2.31318C11.6814 2.32078 11.6644 2.329 11.6478 2.33782C11.5019 2.41547 11.3848 2.53977 11.3164 2.69145C11.3098 2.70609 11.3036 2.72098 11.2979 2.73611C11.2841 2.77288 11.2733 2.81047 11.2654 2.84854C11.1584 3.34804 11.0596 3.87733 10.9568 4.42788C10.7376 5.60201 10.5004 6.87283 10.1269 8.15756C9.59734 9.97945 8.83152 11.6666 7.586 12.86C7.17223 12.6433 6.74534 12.5237 6.31714 12.5032C5.66673 12.472 5.06802 12.6723 4.57098 13.0189C3.59224 13.7015 3 14.9458 3 16.2573C3 17.5156 3.50078 18.7221 4.39173 19.6114C5.28263 20.5007 6.49066 21 7.75 21C9.00934 21 10.2174 20.5007 11.1083 19.6114C11.4737 19.2466 11.7735 18.8285 12 18.3754C12.2265 18.8285 12.5263 19.2466 12.8917 19.6114C13.7826 20.5007 14.9907 21 16.25 21C17.5093 21 18.7174 20.5007 19.6083 19.6114C20.4992 18.7221 21 17.5156 21 16.2573C21 14.9458 20.4078 13.7015 19.429 13.0189C18.932 12.6723 18.3333 12.472 17.6829 12.5032C17.4288 12.5153 17.1752 12.5624 16.9246 12.6439C16.7429 11.418 16.2552 9.93486 15.67 8.49372ZM13.9767 8.33472C14.65 9.89107 15.1807 11.4184 15.3963 12.5916C15.2042 12.542 15.0108 12.5125 14.8171 12.5032C14.1667 12.472 13.568 12.6723 13.071 13.0189C12.6288 13.3273 12.2654 13.7504 12 14.2426C11.7346 13.7504 11.3712 13.3273 10.929 13.0189C10.5936 12.785 10.2118 12.6177 9.79906 12.5432C10.6251 11.3285 11.1717 9.93722 11.5673 8.57625C11.9138 7.38448 12.1592 6.15231 12.3669 5.05165C12.8956 6.00711 13.4664 7.15538 13.9767 8.33472ZM4.5 16.2573C4.5 15.3648 4.90776 14.6128 5.42902 14.2493C5.68198 14.0729 5.95827 13.9877 6.24536 14.0015C6.53242 14.0152 6.88502 14.1308 7.282 14.4478C7.55572 14.6663 7.94428 14.6663 8.218 14.4478C8.61498 14.1308 8.96758 14.0152 9.25464 14.0015C9.54173 13.9877 9.81802 14.0729 10.071 14.2493C10.5922 14.6128 11 15.3648 11 16.2573C11 17.1169 10.6579 17.9415 10.0486 18.5498C9.43919 19.158 8.6124 19.5 7.75 19.5C6.8876 19.5 6.06081 19.158 5.45142 18.5498C4.84208 17.9415 4.5 17.1169 4.5 16.2573ZM13 16.2573C13 15.3648 13.4078 14.6128 13.929 14.2493C14.182 14.0729 14.4583 13.9877 14.7454 14.0015C15.0324 14.0152 15.385 14.1308 15.782 14.4478C16.0557 14.6663 16.4443 14.6663 16.718 14.4478C17.115 14.1308 17.4676 14.0152 17.7546 14.0015C18.0417 13.9877 18.318 14.0729 18.571 14.2493C19.0922 14.6128 19.5 15.3648 19.5 16.2573C19.5 17.1169 19.1579 17.9415 18.5486 18.5498C17.9392 19.158 17.1124 19.5 16.25 19.5C15.3876 19.5 14.5608 19.158 13.9514 18.5498C13.3421 17.9415 13 17.1169 13 16.2573Z" fill="#3C3C3C"/>
</svg>
