<svg width="24" height="24" viewBox="0 0 24 24" fill="none" xmlns="http://www.w3.org/2000/svg">
<path d="M6.01435 15.9724V8.02765H4.79926C4.79926 9.00907 4.48381 9.38294 3 9.38294V10.5046H4.68243V15.9724H6.01435Z" fill="#3C3C3C"/>
<path d="M13.824 15.9724V14.769H9.8867C10.0269 14.0447 10.2723 13.7526 11.1485 13.2502L12.2935 12.5959C13.2749 12.0351 13.8474 11.1355 13.8474 10.1657C13.8474 8.76371 12.8543 7.88745 11.2537 7.88745C9.55956 7.88745 8.47299 8.99739 8.47299 10.7265H9.86333C9.86333 9.65166 10.3657 9.0558 11.2537 9.0558C11.943 9.0558 12.422 9.53483 12.422 10.2358C12.422 10.8784 12.0832 11.3808 11.4289 11.743L10.2606 12.3856C8.88192 13.145 8.29774 14.2199 8.29774 15.9724H13.824Z" fill="#3C3C3C"/>
<path d="M18.2544 16.1126C19.8667 16.1126 21 15.1195 21 13.6942C21 12.7011 20.3925 11.9533 19.4578 11.7897C20.334 11.5093 20.8014 10.9135 20.8014 10.0723C20.8014 8.76371 19.7615 7.88745 18.2076 7.88745C16.5603 7.88745 15.5087 8.85718 15.5087 10.376H16.829C16.829 9.51146 17.3547 8.99739 18.2076 8.99739C18.932 8.99739 19.4344 9.44136 19.4344 10.0723C19.4344 10.8551 19.0138 11.2406 18.1609 11.2406H17.5884V12.3973H18.1492C19.1423 12.3973 19.6447 12.8413 19.6447 13.7058C19.6447 14.4653 19.0839 14.9793 18.2544 14.9793C17.2496 14.9793 16.6771 14.3835 16.6771 13.3203H15.3101C15.3101 15.0845 16.3967 16.1126 18.2544 16.1126Z" fill="#3C3C3C"/>
</svg>
