<svg width="24" height="24" viewBox="0 0 24 24" fill="none" xmlns="http://www.w3.org/2000/svg">
<path fill-rule="evenodd" clip-rule="evenodd" d="M3.86582 2.87276C3.58284 2.72421 3.2249 2.76889 2.987 3.00678C2.69411 3.29967 2.69411 3.77455 2.987 4.06744L6.80428 7.88471C6.55875 8.05882 6.32433 8.23726 6.10193 8.41629C4.58243 9.63948 3.52975 10.9664 3.19701 11.408C2.93206 11.7597 2.93206 12.2401 3.19701 12.5918C3.52975 13.0334 4.58243 14.3603 6.10192 15.5835C7.60931 16.797 9.66849 17.9828 12 17.9828C13.5287 17.9828 14.8608 17.6165 15.9942 17.0746L19.9263 21.0068C20.2192 21.2997 20.6941 21.2997 20.987 21.0068C21.2249 20.7689 21.2696 20.4109 21.121 20.128L3.86582 2.87276ZM7.04252 9.58474C7.31068 9.36888 7.59108 9.15968 7.88211 8.96254L9.40479 10.4852C9.14328 10.9295 8.99329 11.4473 8.99329 12.0001C8.99329 13.6518 10.3323 14.9908 11.984 14.9908C12.5368 14.9908 13.0546 14.8408 13.4989 14.5793L14.8559 15.9364C14.0127 16.2721 13.0612 16.4828 12 16.4828C10.1679 16.4828 8.43921 15.5394 7.04252 14.4151C5.9238 13.5145 5.07734 12.5456 4.63772 11.9999C5.07734 11.4542 5.9238 10.4853 7.04252 9.58474ZM10.4933 12.0001C10.4933 11.8695 10.5101 11.7428 10.5416 11.6221L12.362 13.4425C12.2413 13.474 12.1146 13.4908 11.984 13.4908C11.1607 13.4908 10.4933 12.8234 10.4933 12.0001Z" fill="#3C3C3C"/>
<path d="M18.5009 15.3865C19.8404 14.1889 20.6302 12.9382 20.8797 12.5116C21.0806 12.1681 21.0538 11.7425 20.8174 11.4272C20.5032 11.0082 19.455 9.67684 17.9316 8.44344C16.4207 7.22014 14.3484 6.01698 12 6.01698C11.1433 6.01698 10.3234 6.17707 9.55419 6.43981L10.7688 7.65439C11.172 7.56577 11.5833 7.51698 12 7.51698C13.8457 7.51698 15.5864 8.4746 16.9878 9.60924C18.1265 10.5312 18.9793 11.5199 19.4023 12.0498C19.0735 12.558 18.4171 13.4631 17.4383 14.324L18.5009 15.3865Z" fill="#3C3C3C"/>
<path d="M14.9713 11.857C14.8989 10.3192 13.665 9.08525 12.1272 9.01277L14.9713 11.857Z" fill="#3C3C3C"/>
</svg>
