<svg width="24" height="24" viewBox="0 0 24 24" fill="none" xmlns="http://www.w3.org/2000/svg">
<path fill-rule="evenodd" clip-rule="evenodd" d="M5.5 5.5H10V10H5.5L5.5 5.5ZM4 5.5C4 4.67157 4.67157 4 5.5 4H10C10.8284 4 11.5 4.67157 11.5 5.5V10C11.5 10.8284 10.8284 11.5 10 11.5H5.5C4.67157 11.5 4 10.8284 4 10V5.5ZM5.5 14H10V18.5H5.5L5.5 14ZM4 14C4 13.1716 4.67157 12.5 5.5 12.5H10C10.8284 12.5 11.5 13.1716 11.5 14V18.5C11.5 19.3284 10.8284 20 10 20H5.5C4.67157 20 4 19.3284 4 18.5V14ZM18.5 5.5H14V10H18.5V5.5ZM14 4C13.1716 4 12.5 4.67157 12.5 5.5V10C12.5 10.8284 13.1716 11.5 14 11.5H18.5C19.3284 11.5 20 10.8284 20 10V5.5C20 4.67157 19.3284 4 18.5 4H14ZM14 14H18.5V18.5H14V14ZM12.5 14C12.5 13.1716 13.1716 12.5 14 12.5H18.5C19.3284 12.5 20 13.1716 20 14V18.5C20 19.3284 19.3284 20 18.5 20H14C13.1716 20 12.5 19.3284 12.5 18.5V14Z" fill="#3C3C3C"/>
</svg>
