<svg width="24" height="24" viewBox="0 0 24 24" fill="none" xmlns="http://www.w3.org/2000/svg">
<path fill-rule="evenodd" clip-rule="evenodd" d="M12 4.5C9.65279 4.5 7.75 6.40279 7.75 8.75C7.75 10.4082 8.69952 11.846 10.088 12.5468C10.3406 12.6744 10.5 12.9333 10.5 13.2164V15.0227H13.5V13.2164C13.5 12.9333 13.6594 12.6744 13.912 12.5468C15.3005 11.846 16.25 10.4082 16.25 8.75C16.25 6.40279 14.3472 4.5 12 4.5ZM6.25 8.75C6.25 5.57436 8.82436 3 12 3C15.1756 3 17.75 5.57436 17.75 8.75C17.75 10.8273 16.6483 12.6462 15 13.6562V15.7727C15 16.1869 14.6642 16.5227 14.25 16.5227H9.75C9.33579 16.5227 9 16.1869 9 15.7727V13.6562C7.35172 12.6462 6.25 10.8273 6.25 8.75ZM9 18C9 17.5858 9.33579 17.25 9.75 17.25H14.25C14.6642 17.25 15 17.5858 15 18C15 18.4142 14.6642 18.75 14.25 18.75H9.75C9.33579 18.75 9 18.4142 9 18ZM10.75 19.5C10.3358 19.5 10 19.8358 10 20.25C10 20.6642 10.3358 21 10.75 21H13.25C13.6642 21 14 20.6642 14 20.25C14 19.8358 13.6642 19.5 13.25 19.5H10.75Z" fill="#3C3C3C"/>
</svg>
