<svg width="24" height="24" viewBox="0 0 24 24" fill="none" xmlns="http://www.w3.org/2000/svg">
<path fill-rule="evenodd" clip-rule="evenodd" d="M11.25 8.25C11.25 8.66421 11.5858 9 12 9C12.4142 9 12.75 8.66421 12.75 8.25V6.5H14.2493C14.6635 6.5 14.9993 6.16421 14.9993 5.75C14.9993 5.33579 14.6635 5 14.2493 5H12.75V3.25C12.75 2.83579 12.4142 2.5 12 2.5C11.5858 2.5 11.25 2.83579 11.25 3.25V5H3.7478C3.33359 5 2.9978 5.33579 2.9978 5.75C2.9978 6.16421 3.33359 6.5 3.7478 6.5H11.25V8.25ZM3.7478 11.25C3.33359 11.25 2.9978 11.5858 2.9978 12C2.9978 12.4142 3.33359 12.75 3.7478 12.75H16.5029V14.5C16.5029 14.9142 16.8387 15.25 17.2529 15.25C17.6671 15.25 18.0029 14.9142 18.0029 14.5V12.75H20.2522C20.6664 12.75 21.0022 12.4142 21.0022 12C21.0022 11.5858 20.6664 11.25 20.2522 11.25H18.0029V9.5C18.0029 9.08579 17.6671 8.75 17.2529 8.75C16.8387 8.75 16.5029 9.08579 16.5029 9.5V11.25H3.7478ZM2.9978 18.25C2.9978 17.8358 3.33359 17.5 3.7478 17.5H5V15.75C5 15.3358 5.33579 15 5.75 15C6.16421 15 6.5 15.3358 6.5 15.75V17.5H20.2522C20.6664 17.5 21.0022 17.8358 21.0022 18.25C21.0022 18.6642 20.6664 19 20.2522 19H6.5V20.75C6.5 21.1642 6.16421 21.5 5.75 21.5C5.33579 21.5 5 21.1642 5 20.75V19H3.7478C3.33359 19 2.9978 18.6642 2.9978 18.25Z" fill="#3C3C3C"/>
<path d="M19 8C20.6569 8 22 6.65685 22 5C22 3.34315 20.6569 2 19 2C17.3431 2 16 3.34315 16 5C16 6.65685 17.3431 8 19 8Z" fill="#3B57FF"/>
</svg>
