<svg width="24" height="24" viewBox="0 0 24 24" fill="none" xmlns="http://www.w3.org/2000/svg">
<path fill-rule="evenodd" clip-rule="evenodd" d="M3.99582 5.50464C3.99582 4.67621 4.66739 4.00464 5.49582 4.00464H14.2517C14.6659 4.00464 15.0017 4.34043 15.0017 4.75464C15.0017 5.16885 14.6659 5.50464 14.2517 5.50464H5.49582V10.0017L18.4998 10.0017V9.75068C18.4998 9.33647 18.8356 9.00068 19.2498 9.00068C19.664 9.00068 19.9998 9.33647 19.9998 9.75068V18.5086C19.9998 19.3371 19.3282 20.0086 18.4998 20.0086H5.49582C4.66739 20.0086 3.99582 19.3371 3.99582 18.5086V5.50464ZM5.49582 18.5086V11.5017L8.99999 11.5017L8.99999 18.5086H5.49582ZM10.5 18.5086L18.4998 18.5086V11.5017L10.5 11.5017L10.5 18.5086Z" fill="#3C3C3C"/>
<path d="M19 8C20.6569 8 22 6.65685 22 5C22 3.34315 20.6569 2 19 2C17.3431 2 16 3.34315 16 5C16 6.65685 17.3431 8 19 8Z" fill="#3B57FF"/>
</svg>
