<svg width="24" height="24" viewBox="0 0 24 24" fill="none" xmlns="http://www.w3.org/2000/svg">
<path fill-rule="evenodd" clip-rule="evenodd" d="M12.75 4.75146C12.75 4.33725 12.4142 4.00146 12 4.00146C11.5858 4.00146 11.25 4.33725 11.25 4.75146V11.25H4.75159C4.33737 11.25 4.00159 11.5858 4.00159 12C4.00159 12.4142 4.33737 12.75 4.75159 12.75H11.25V19.2483C11.25 19.6625 11.5858 19.9983 12 19.9983C12.4142 19.9983 12.75 19.6625 12.75 19.2483V12.75H19.2484C19.6626 12.75 19.9984 12.4142 19.9984 12C19.9984 11.5858 19.6626 11.25 19.2484 11.25H12.75V4.75146Z" fill="#3C3C3C"/>
</svg>
