<svg width="24" height="24" viewBox="0 0 24 24" fill="none" xmlns="http://www.w3.org/2000/svg">
<path fill-rule="evenodd" clip-rule="evenodd" d="M4.71887 10.5132C5.39807 7.08247 8.40399 4.50366 12.0003 4.50366C14.5856 4.50366 16.8653 5.8353 18.196 7.86063H15.7095C15.2967 7.86063 14.9621 8.19758 14.9621 8.61324C14.9621 9.0289 15.2967 9.36585 15.7095 9.36585H19.7821C20.3324 9.36585 20.7786 8.91658 20.7786 8.36237V4.26124C20.7786 3.84558 20.444 3.50862 20.0312 3.50862C19.6184 3.50862 19.2838 3.84558 19.2838 4.26124V6.79357C17.6682 4.50237 15.0096 3.00366 12.0003 3.00366C7.66693 3.00366 4.0616 6.10942 3.24743 10.2219C3.16698 10.6282 3.43116 11.0228 3.83749 11.1032C4.24382 11.1837 4.63842 10.9195 4.71887 10.5132ZM12.0037 19.4963C15.6 19.4963 18.6059 16.9175 19.2851 13.4868C19.3655 13.0805 19.7602 12.8163 20.1665 12.8968C20.5728 12.9772 20.837 13.3718 20.7565 13.7781C19.9424 17.8906 16.337 20.9963 12.0037 20.9963C8.99437 20.9963 6.33583 19.4977 4.72022 17.2065L4.72022 19.7468C4.72022 20.1625 4.38561 20.4994 3.97284 20.4994C3.56008 20.4994 3.22546 20.1625 3.22546 19.7468V15.6376C3.22546 15.0834 3.67161 14.6341 4.22197 14.6341H8.3026C8.71536 14.6341 9.04998 14.9711 9.04998 15.3868C9.04998 15.8024 8.71536 16.1394 8.3026 16.1394H5.80794C7.13863 18.1647 9.4184 19.4963 12.0037 19.4963Z" fill="#3C3C3C"/>
</svg>
