<svg width="24" height="24" viewBox="0 0 24 24" fill="none" xmlns="http://www.w3.org/2000/svg">
<path fill-rule="evenodd" clip-rule="evenodd" d="M5.21967 10.7665L4.5186 11.4676C4.79168 7.57392 8.03686 4.5 12 4.5C16.1421 4.5 19.5 7.85786 19.5 12C19.5 16.1421 16.1421 19.5 12 19.5C11.5858 19.5 11.25 19.8358 11.25 20.25C11.25 20.6642 11.5858 21 12 21C16.9706 21 21 16.9706 21 12C21 7.02944 16.9706 3 12 3C7.19726 3 3.27316 6.76194 3.01366 11.4999L2.28033 10.7665C1.98744 10.4737 1.51256 10.4737 1.21967 10.7665C0.926777 11.0594 0.926777 11.5343 1.21967 11.8272L3.21967 13.8272C3.51256 14.1201 3.98744 14.1201 4.28033 13.8272L6.28033 11.8272C6.57322 11.5343 6.57322 11.0594 6.28033 10.7665C5.98744 10.4737 5.51256 10.4737 5.21967 10.7665ZM12.75 6.75C12.75 6.33579 12.4142 6 12 6C11.5858 6 11.25 6.33579 11.25 6.75V11.25C11.25 12.0784 11.9216 12.75 12.75 12.75H17.25C17.6642 12.75 18 12.4142 18 12C18 11.5858 17.6642 11.25 17.25 11.25H12.75V6.75Z" fill="#3C3C3C"/>
</svg>
