<svg width="24" height="24" viewBox="0 0 24 24" fill="none" xmlns="http://www.w3.org/2000/svg">
<path d="M14.6341 9.33083C14.927 9.62372 14.927 10.0986 14.6341 10.3915L13.0607 11.965L14.6692 13.5735C14.9621 13.8664 14.9621 14.3412 14.6692 14.6341C14.3763 14.927 13.9014 14.927 13.6085 14.6341L12 13.0256L10.3915 14.6341C10.0986 14.927 9.62371 14.927 9.33082 14.6341C9.03793 14.3412 9.03793 13.8664 9.33082 13.5735L10.9393 11.965L9.36587 10.3915C9.07298 10.0986 9.07298 9.62372 9.36587 9.33083C9.65876 9.03794 10.1336 9.03794 10.4265 9.33083L12 10.9043L13.5735 9.33083C13.8664 9.03794 14.3412 9.03794 14.6341 9.33083Z" fill="#3C3C3C"/>
<path fill-rule="evenodd" clip-rule="evenodd" d="M15.5 4L8.50293 4V3.25C8.50293 2.83579 8.16714 2.5 7.75293 2.5C7.33872 2.5 7.00293 2.83579 7.00293 3.25V4L5.5 4C4.67157 4 4 4.67157 4 5.5L4 18.5C4 19.3284 4.67157 20 5.5 20H18.5C19.3284 20 20 19.3284 20 18.5L20 5.5C20 4.67157 19.3284 4 18.5 4L17 4V3.25C17 2.83579 16.6642 2.5 16.25 2.5C15.8358 2.5 15.5 2.83579 15.5 3.25V4ZM15.5 5.5L8.50293 5.5L8.50293 6.25C8.50293 6.66421 8.16714 7 7.75293 7C7.33872 7 7.00293 6.66421 7.00293 6.25L7.00293 5.5L5.5 5.5L5.5 18.5L18.5 18.5L18.5 5.5L17 5.5V6.25C17 6.66421 16.6642 7 16.25 7C15.8358 7 15.5 6.66421 15.5 6.25V5.5Z" fill="#3C3C3C"/>
</svg>
