<svg width="24" height="24" viewBox="0 0 24 24" fill="none" xmlns="http://www.w3.org/2000/svg">
<path fill-rule="evenodd" clip-rule="evenodd" d="M12 19.5C16.1421 19.5 19.5 16.1421 19.5 12C19.5 7.85786 16.1421 4.5 12 4.5C7.85786 4.5 4.5 7.85786 4.5 12C4.5 16.1421 7.85786 19.5 12 19.5ZM12 21C16.9706 21 21 16.9706 21 12C21 7.02944 16.9706 3 12 3C7.02944 3 3 7.02944 3 12C3 16.9706 7.02944 21 12 21ZM8.46448 15.5356C8.17159 15.2427 8.17159 14.7678 8.46448 14.4749L10.9394 12L8.46447 9.52508C8.17158 9.23219 8.17158 8.75731 8.46447 8.46442C8.75737 8.17153 9.23224 8.17153 9.52513 8.46442L12.0001 10.9393L14.4749 8.46452C14.7678 8.17163 15.2427 8.17163 15.5355 8.46452C15.8284 8.75741 15.8284 9.23229 15.5355 9.52518L13.0607 12L15.5355 14.4748C15.8284 14.7677 15.8284 15.2426 15.5355 15.5355C15.2426 15.8284 14.7678 15.8284 14.4749 15.5355L12.0001 13.0607L9.52514 15.5356C9.23225 15.8285 8.75738 15.8285 8.46448 15.5356Z" fill="#3C3C3C"/>
</svg>
