<svg width="24" height="24" viewBox="0 0 24 24" fill="none" xmlns="http://www.w3.org/2000/svg">
<path fill-rule="evenodd" clip-rule="evenodd" d="M5.5 18.5L18.5 18.5L18.5 10.0028L15.5061 10.0028C14.6777 10.0028 14.0061 9.33123 14.0061 8.5028V5.5L5.5 5.5L5.5 18.5ZM15.5061 5.62773L18.3814 8.50281L15.5061 8.5028V5.62773ZM18.5 20H5.5C4.67157 20 4 19.3284 4 18.5V5.5C4 4.67157 4.67157 4 5.5 4H15.3784C15.7762 4 16.1577 4.15802 16.439 4.43929L19.5606 7.56065C19.8419 7.84196 20 8.22351 20 8.62136L20 18.5C20 19.3284 19.3284 20 18.5 20ZM16.7824 12.7834C17.0743 12.4894 17.0726 12.0146 16.7787 11.7227C16.4848 11.4308 16.0099 11.4325 15.7181 11.7264L12.7673 14.6979L10.8144 13.0194C10.513 12.7605 10.0621 12.7814 9.78606 13.0672L7.21031 15.7338C6.92254 16.0318 6.93077 16.5066 7.2287 16.7943C7.52663 17.0821 8.00143 17.0739 8.2892 16.7759L10.3733 14.6182L12.3189 16.2903C12.6172 16.5467 13.0628 16.5291 13.3399 16.25L16.7824 12.7834Z" fill="#3C3C3C"/>
</svg>
