<svg width="24" height="24" viewBox="0 0 24 24" fill="none" xmlns="http://www.w3.org/2000/svg">
<path fill-rule="evenodd" clip-rule="evenodd" d="M15.0857 6.45302C15.0857 5.09596 16.1858 3.99585 17.5429 3.99585C18.8999 3.99585 20 5.09596 20 6.45302C20 7.81007 18.8999 8.91018 17.5429 8.91018C16.9521 8.91018 16.41 8.70169 15.9862 8.35427L9.66694 12.0012L15.977 15.6533C16.4022 15.3013 16.9478 15.0898 17.5429 15.0898C18.8999 15.0898 20 16.19 20 17.547C20 18.9041 18.8999 20.0042 17.5429 20.0042C16.1858 20.0042 15.0857 18.9041 15.0857 17.547C15.0857 17.3294 15.114 17.1185 15.167 16.9176L8.63157 13.1351C8.21946 13.9141 7.40082 14.4449 6.4582 14.4449C5.10115 14.4449 4.00104 13.3447 4.00104 11.9877C4.00104 10.6306 5.10115 9.53052 6.4582 9.53052C7.40904 9.53052 8.23374 10.0706 8.64226 10.8607L15.17 7.09344C15.115 6.88926 15.0857 6.67456 15.0857 6.45302ZM17.5429 5.49585C17.0142 5.49585 16.5857 5.92439 16.5857 6.45302C16.5857 6.98165 17.0142 7.41018 17.5429 7.41018C18.0715 7.41018 18.5 6.98165 18.5 6.45302C18.5 5.92439 18.0715 5.49585 17.5429 5.49585ZM5.50104 11.9877C5.50104 11.4591 5.92958 11.0305 6.4582 11.0305C6.98683 11.0305 7.41537 11.4591 7.41537 11.9877C7.41537 12.5163 6.98683 12.9449 6.4582 12.9449C5.92958 12.9449 5.50104 12.5163 5.50104 11.9877ZM16.5857 17.547C16.5857 17.0184 17.0142 16.5898 17.5429 16.5898C18.0715 16.5898 18.5 17.0184 18.5 17.547C18.5 18.0756 18.0715 18.5042 17.5429 18.5042C17.0142 18.5042 16.5857 18.0756 16.5857 17.547Z" fill="#3C3C3C"/>
</svg>
