<svg width="24" height="24" viewBox="0 0 24 24" fill="none" xmlns="http://www.w3.org/2000/svg">
<path fill-rule="evenodd" clip-rule="evenodd" d="M17 3C17.4142 3 17.75 3.33579 17.75 3.75V5.25C17.75 5.66421 17.4142 6 17 6C16.5858 6 16.25 5.66421 16.25 5.25V3.75C16.25 3.33579 16.5858 3 17 3ZM9.00385 3.00165C9.33817 3.00165 9.63212 3.22293 9.72459 3.54422L11.0491 8.14642L14.5761 9.82439C14.8374 9.94871 15.0038 10.2123 15.0038 10.5016C15.0038 10.791 14.8374 11.0546 14.5761 11.1789L11.0491 12.8569L9.72459 17.4591C9.63212 17.7804 9.33817 18.0016 9.00385 18.0016C8.66952 18.0016 8.37557 17.7804 8.2831 17.4591L6.95857 12.8569L3.43163 11.1789C3.17032 11.0546 3.00385 10.791 3.00385 10.5016C3.00385 10.2123 3.17032 9.94871 3.43163 9.82439L6.95857 8.14642L8.2831 3.54422C8.37557 3.22293 8.66952 3.00165 9.00385 3.00165ZM9.00385 6.46337L8.30661 8.88597C8.24719 9.09243 8.10208 9.2635 7.90808 9.35579L5.4996 10.5016L7.90808 11.6475C8.10208 11.7398 8.24719 11.9109 8.30661 12.1173L9.00385 14.5399L9.70108 12.1173C9.7605 11.9109 9.90561 11.7398 10.0996 11.6475L12.5081 10.5016L10.0996 9.35579C9.90561 9.2635 9.7605 9.09243 9.70108 8.88597L9.00385 6.46337ZM17.75 8.75C17.75 8.33579 17.4142 8 17 8C16.5858 8 16.25 8.33579 16.25 8.75V10.25C16.25 10.6642 16.5858 11 17 11C17.4142 11 17.75 10.6642 17.75 10.25V8.75ZM13 7C13 6.58579 13.3358 6.25 13.75 6.25H15.25C15.6642 6.25 16 6.58579 16 7C16 7.41421 15.6642 7.75 15.25 7.75H13.75C13.3358 7.75 13 7.41421 13 7ZM18.75 6.25C18.3358 6.25 18 6.58579 18 7C18 7.41421 18.3358 7.75 18.75 7.75H20.25C20.6642 7.75 21 7.41421 21 7C21 6.58579 20.6642 6.25 20.25 6.25H18.75ZM15 13C15.4142 13 15.75 13.3358 15.75 13.75V15.25C15.75 15.6642 15.4142 16 15 16C14.5858 16 14.25 15.6642 14.25 15.25V13.75C14.25 13.3358 14.5858 13 15 13ZM15.75 18.75C15.75 18.3358 15.4142 18 15 18C14.5858 18 14.25 18.3358 14.25 18.75V20.25C14.25 20.6642 14.5858 21 15 21C15.4142 21 15.75 20.6642 15.75 20.25V18.75ZM11 17C11 16.5858 11.3358 16.25 11.75 16.25H13.25C13.6642 16.25 14 16.5858 14 17C14 17.4142 13.6642 17.75 13.25 17.75H11.75C11.3358 17.75 11 17.4142 11 17ZM16.75 16.25C16.3358 16.25 16 16.5858 16 17C16 17.4142 16.3358 17.75 16.75 17.75H18.25C18.6642 17.75 19 17.4142 19 17C19 16.5858 18.6642 16.25 18.25 16.25H16.75Z" fill="#3C3C3C"/>
</svg>
