<svg width="24" height="24" viewBox="0 0 24 24" fill="none" xmlns="http://www.w3.org/2000/svg">
<path fill-rule="evenodd" clip-rule="evenodd" d="M12 19.5C16.1421 19.5 19.5 16.1421 19.5 12C19.5 7.85786 16.1421 4.5 12 4.5C7.85786 4.5 4.5 7.85786 4.5 12C4.5 16.1421 7.85786 19.5 12 19.5ZM12 21C16.9706 21 21 16.9706 21 12C21 7.02944 16.9706 3 12 3C7.02944 3 3 7.02944 3 12C3 16.9706 7.02944 21 12 21Z" fill="#ECEBE8"/>
<path fill-rule="evenodd" clip-rule="evenodd" d="M14.1973 4.82905C14.2183 4.83757 14.2398 4.84532 14.2616 4.85224C15.9029 5.37147 17.3237 6.44307 18.2743 7.89647C19.2248 9.34988 19.6371 11.0811 19.455 12.7928C19.4526 12.8157 19.4511 12.8384 19.4504 12.8611C19.4503 12.8653 19.4503 12.8694 19.4502 12.8736C19.45 12.8887 19.4502 12.9037 19.4508 12.9187C19.4651 13.2837 19.7091 13.6125 20.0738 13.6888C20.48 13.7738 20.8816 13.5134 20.9324 13.1014C21.1918 10.998 20.701 8.86094 19.5321 7.0738C18.3633 5.28665 16.6021 3.98039 14.571 3.37502C14.1733 3.25647 13.7738 3.51998 13.6888 3.92623C13.6125 4.29094 13.8159 4.64622 14.1446 4.80565C14.1581 4.8122 14.1718 4.81841 14.1857 4.82428C14.1896 4.8259 14.1934 4.82749 14.1973 4.82905Z" fill="#3C3C3C"/>
</svg>
