<svg width="24" height="24" viewBox="0 0 24 24" fill="none" xmlns="http://www.w3.org/2000/svg">
<path fill-rule="evenodd" clip-rule="evenodd" d="M19.5 12C19.5 16.1421 16.1421 19.5 12 19.5C7.85786 19.5 4.5 16.1421 4.5 12C4.5 7.85786 7.85786 4.5 12 4.5C16.1421 4.5 19.5 7.85786 19.5 12ZM21 12C21 16.9706 16.9706 21 12 21C7.02944 21 3 16.9706 3 12C3 7.02944 7.02944 3 12 3C16.9706 3 21 7.02944 21 12ZM16.5454 9.51478C16.8297 9.21355 16.816 8.73887 16.5148 8.45457C16.2136 8.17026 15.7389 8.18398 15.4546 8.48522L10.3516 13.892L8.55869 11.8901C8.28234 11.5815 7.80819 11.5554 7.49963 11.8318C7.19108 12.1081 7.16498 12.5823 7.44132 12.8908L9.23427 14.8927C9.82005 15.5468 10.8399 15.5601 11.4425 14.9216L16.5454 9.51478Z" fill="#3C3C3C"/>
</svg>
